<?xml version="1.0" encoding="UTF-8"?>
<svg id="mapa-auren" data-name="Mapa de Auren" xmlns="http://www.w3.org/2000/svg" viewBox="0 0 1591.67 916.28">
  <defs>
    <style>
      .cls-1 {
        fill: #c6b482;
      }

      .cls-2 {
        fill: #7a6869;
      }

      .cls-3 {
        fill: #2d2e2b;
      }

      .cls-4 {
        fill: #5c5b48;
      }

      .cls-5 {
        fill: #a87b85;
      }

      .cls-6 {
        fill: #867d5d;
      }

      .cls-7 {
        fill: #92887f;
      }

      .cls-8 {
        fill: #a4ad91;
      }

      .cls-9 {
        fill: #779780;
      }

      .cls-10 {
        fill: #b16767;
      }

      .cls-11 {
        fill: #f0d9a8;
      }

      .cls-12 {
        fill: #d0dee3;
      }

      .cls-13 {
        fill: #6482b8;
      }

      .cls-14 {
        fill: #9eb67d;
      }

      .cls-15 {
        fill: #64825e;
      }
    </style>
  </defs>
  <g id="regioes-auren" data-name="Regiões de Auren">
    <g>
      <path id="mar-de-cinzas" data-name="Mar de Cinzas" class="cls-2" d="M856.47,616.66c.48.09,1.25.69,1.36,1.1.21.89.62,1.82,1.27,2.11.96.43,2.47.3,3.17.06l.69.17c.06,1.62,1.36,2.76,3.5,3.03l17.58,2.25c6.88.88,25.42-12.85,34.11-2.72,7.35,8.57,11.76,19.72,29.01,14.23,5.49-1.75,11.14,1.34,12.55,7.38,3.83,16.31,14.48,29.19,30.02,36.52,15.1-1.81,25.63-14.78,39.9-16.03,5.95-.52,11.29,3.61,16.44,5.68l29.58,11.9c9.22,3.71,25.8-.72,41.52,8.65l11.92,9.61c.34,7.26-14.63,9.96-15.33,21.23-.33,5.32-4.36,8.04-7.84,11.67,2.18,4.17,5.55,12.75-.36,15.47-3.71,1.71-6.7,4.26-9.81,6.26-4.38,2.82-5.05,3.94-6.56,9.4-4.8,4.69-14.26-1.23-18.54,2.69-3.55,3.25-1.14,9.68-4.19,11.01-4.15,1.82-7.82-3.93-10.88-3.63-4.78.45-10,8.12-7.9,15.85-20.68,3.19-16.92,20.67-27.27,19.15-7.7-.01-12.99,4.05-14.66,11.32-9.51,13.79-35.13,16.9-38.32,12.76-3.67-4.77,2.79-13.01,12.08-16.35l4.18-9.55c5.22-11.92-18.65-27.51-29.73-21.97-2.66,1.33-2.44,6.62-3.5,8.65l-2.18,4.17c-2.28-.61-2.98,2.56-3.53,4.31-4.54.74-8.47,3.93-12.01,6.55-5.36,3.96-11.42,6.56-14.19,13.58l-17.11,3.31c-4.85.94-12.88,4.09-16.04-1.25-3.13-5.29-6.71-5.82-11.21-9.47l-12.28-9.95c-3.63-2.94-2.4-10.09-3.34-14.01l-9.75-5.95c-4.75,2.25-9.52,1.99-13.79-1.28l-11.44,1.8c-2.52-3.77-2.2-8.38-2.38-12.66-.14-3.4-4.99-4.36-6-6.31-3.77-7.27-8.99-12.33-17.35-12.33-2.99,0-3.92,4.26-5.79,5.39-7.4,4.47-17.08.44-22.14-5.59s-10.9-7.09-19.05-6.54c-3.96.26-10.2-.93-12.03,4.26-.5,1.4.59,4.42-.11,5.68-2.38,4.32-10.11-2.7-20.38,1.95l-9.24-3.86c-4.54-12.91,1.59-26.56-7.01-39.12-1.77-2.58-5.13-4.02-7.68-3.58s-4.64,2.65-6,4.82h-1.35c.22-1.15-.33-2.72-2.01-3.17-8.96-2.42-1.97-12.56-9.78-15.64-1.37-.54-1.3-1.99-.76-2.79,3.04-4.51,6.86-9.8,6.05-16.19-.54-4.31-.18-9.01,4.1-11.29,5.03-2.67,7.46-8.79,11.95-11.74,15.53-10.2,39.3.29,58.67-19.33,4.22-4.27,9.47-9.36,15.52-10.58l33.37-6.75c8.16-6.16,14.01-13.48,20.05-21.92,10.08-3.63,21.11,1.54,25.99,11.21,1.94,2.61,3.51,5.84,6.21,6.36Z"/>
      <g id="deserto-de-sal" data-name="Deserto de Sal">
        <path class="cls-11" d="M1101.13,459.94c8.05,6.87,7.99,17.96,18.7,16.75.78,6.82-2.23,11.44-7.74,15.38-2.62,1.87-1.39,9.13,1.08,10.91,9.46,6.82,3.65,16.86,8.5,25.38l3.28,5.76c1.78,7.56,8.73,11.56,16.42,10.56,4.21-.86,8.04.03,10.54,3.6,5.3-1.61,8.95.5,11.24,5.27,3.56,2.43,11.05,4.86,11.51,9.5l1.4,14.19c.46,4.68.97,12.5-3.59,15.33-3.19,1.98-9.48.63-11.51,4.63-5.17,10.17-13.36,9.35-13.8,17.26-.48,8.5-13.17,23.39-.51,50,1.84,3.87,5.32,8.76,2.03,13.47-2.13,3.04-6.98,5.34-10.17,7.23-8.85,5.22-2.76,14.49-9.28,14.77-17.78-23.26-38.29-13.56-58.12-21.77l-30.14-12.48c-6.4-2.65-12.72-5.06-19.1-1.56l-18.77,10.29c-3.7,2.03-10.02,5.26-14.41,3.42-14.35-6.01-23.24-18.86-26.95-33.28-1.97-7.66-7.92-11.08-15.45-9.59-21.86,4.33-22.13-11.28-29.56-15.7-5.73-3.41-12.87-2.92-18.72.15-7.44,3.9-14.58,3.81-22.84,2.54l-12.2-1.87-.69-.17-4.44-2.16c-.11-.41-.88-1.01-1.36-1.1l-8.07-11.9c-4.41-6.34-11.6-8.74-19.4-8.15l.17-13.52c.08-6.4,6.14-8.79,9.51-13.1,3.05-3.9,4.83-11.29,3.83-15.86l-3.13-14.29c1.88-2.78,5.04-4.48,7.41-5.87,11.3-6.61,2.27-20.61,7.52-21.24l12.18-1.47c3.4-2.47,3.34-8.01,3.62-11.27.59-6.86,2.26-13.71,7.4-15.05,2.14-.56,4.34.44,6.05,1.51,8.19,5.1,16.02,2.57,21.29-4.93,5.33-7.59,20.05-.05,25.44-5.75,9.31-9.84,17.54-.67,23.13-6.28,6.58-6.6,1.85-23.94,20.46-28.08,3.07-.68,5.81-2.31,8.54-4.66,8.64,7.95,19.06,5.61,29.55,12.91,8.25,5.75,16.35,5.36,25.71,2.97,10.68-2.73,26.66,14.95,35,9.99,12.63-7.51,15.47-1.8,28.44-2.68Z"/>
      </g>
      <g id="ilhas-cinzentas" data-name="Ilhas Cinzentas">
        <path class="cls-6" d="M409.55,776.11c-.31-.02-.76-.03-.88.48-.74-.93-3.35-1.66-3.65-3.19-.51-2.87-.75-7.11.08-9.97,9.28-7.02,10.13,5.38,23.93,9.6-1.85,12.95,11.1,9.36,8.58,17.54-16.61,1.43-17.18-15.68-28.06-14.45Z"/>
        <path class="cls-6" d="M449.85,796.29l-.06,11.05c-5.62-2.56-7.87-7.05-5.53-10.04.76-.98,2.23-1.9,5.6-1.01Z"/>
        <path class="cls-6" d="M303.35,728.39c-2.12-4.57-4.81-6.32-9.93-8.22,4.46-4.46,3.77-8.51,1.49-12.35-2.65-4.45,1.68-8.89,2.31-12.65,1.13-6.76,1.8-11.43,6.76-16.49l2.41-7.09c5.68.52,8.85,4.39,9.2,8.4.48,5.57-2.72,7.48-6.85,9.72-3.24,13.4,4.89,16.55,5.38,19.48.33,1.98-.35,4.01-1.77,5.75-3.63,4.49,1.88,9.84-1.94,13.87-1.42,1.49-6.14,1.58-7.06-.41Z"/>
        <path class="cls-6" d="M323.4,757.15c-7.67-.51-14.27-6.35-10.52-9.18,2.05-1.55,6.85-1.32,8.34,1.03s1.56,5.43,2.18,8.15Z"/>
        <path class="cls-6" d="M345.83,777.8c1.08,2.9,3.06,4.79,1.52,6.66-2.43,2.96-12.27-.39-13.86-3.83-2.41-5.23-6.85-9.57-6.61-16.44,5.35,1.87,9.91,3.61,15.41,4.13l3.53,9.48Z"/>
        <path class="cls-6" d="M585.96,869.59c-12.34,5.95-18.09-4.42-29.93,1.25-2.29,1.09-6.85-3.27-6.12-5.66,9.8-5.92,10.69-11.94,18.38-6.91l8.56-2.23,9.1,13.55Z"/>
        <path class="cls-6" d="M388.56,749.06c1.62.61,2.83,10.31-1.98,10.77-2.09.2-3.58-1.09-5.58-3.03l-4.35-1.18c-.87-.24-2.51-9.67,1.6-11.79,2.17-1.12,3.34,1,5.32,3.34l4.99,1.88Z"/>
        <path class="cls-6" d="M532.76,869.77c-6.17,2.74-13.92,3.49-17.02,10.94l-1,11.04c-2.26,2.37-6.25,2.88-8.81,2.97-2.77.1-4.18-3.23-6.3-5.19-5.96-5.48-11.91-9.53-16.9-16.14-2.53-3.36-9.77-2.44-11.99.96-1.35,2.07-2.44,3.12-3.96,3.57-1.9.56-4.58-1.04-5.37-2.54-2.77-5.25-8.66-2.3-11.5-3.77-3.79-1.97-5.64-6.26-11.41-3.49-4.04-4.09-9.67-4.23-13.67.1-11.97-3.15-17.8-15.48-13.54-26.73,3.14-8.95-10.52-16.72-13.86-16.21-1.92.3-3.72,1.12-5.32.5-4.95-1.92-.48-16.06-15.77-22.49-2.37-1-3.57-3.17-3.69-5.27-.15-2.74,2.33-4.17,4.71-5.67,2-1.27,4.35-6.78,7.62-5.75l8.96,4.28c5.53,2.64,9.84,9.97,17.07,10.07,3.36.04,7.49-1.24,10.71,1.05,2.22,1.58,5.04,5.05,4.49,9.12-.62,4.6,1.77,5.55,4.02,8.62,2.07,2.81,2.23,6.97,6.63,6.59,7.37-.65,5.77-7.62,7.72-8.52,3.18-1.47,5.26,6.39,9.14,8.44,3.5,1.84,9.55,2.02,13.19.5l2.42-4.58c1.33-2.52,12.06.76,14.75-1.93,1.69-1.69,2.21-4.43,4.01-5.44,2.13-1.19,4.42-.4,6.7.18,5.29,1.35,4.85,8.01,7.1,10.37,4.53,4.75,7.06,6.47,7.65,13.54.4,4.76,7.48,9.3,11.51,11.29,6.11,3.03,17.34,17.07,11.69,19.58Z"/>
        <path class="cls-6" d="M649.29,909.45c.15-3.37,1.05-6.05,1.9-8.31,1.82-4.87-.95-6.42-3.98-8.62-4.61-3.35-7.75-6.13-14.25-5.34-1.6.19-4.02-1.6-4.96-2.51s-2-3.67-.56-5.09c6.28-6.22,3.93-9.8,5.88-12.47.85-1.17,3.47-.49,4.74-.86,17.12-5.08,22.07,7.3,32.77,4.62,2.17-.55,3.3-4.24,5.93-6.12,4.02-2.86,20.23,12.01,33-2.14,2.3-2.55,5.06-4.8,8.73-5.25,10.8-1.33,9.19-12.1,15.72-11.21,1.86.25,2.76,2.58,3.52,4.96.12,5.92,2.74,10.41,8.42,12.96.07,6.02,2.17,10.98,6.94,14.12,7.1,3.81,9.01,16.41,6.25,20.64-1.3,2.01-4.97.91-6.75,1.63-18.17,7.26-31.37-7.06-37.31-2.58-5.2,3.93-8.36,3.8-13.86,6.15l-15.36,6.56c-2.21.94-4.77,6.77-8.33,2.64-9.2-10.68-16.41,3.09-28.44-3.77Z"/>
        <path class="cls-6" d="M633.15,852.44l4.35.16c.84.03,1.44,2.84.37,3.53-10.99,7.21-24.27,8.71-25.39,2.1-.47-2.76-.18-6.73,2.54-7.91,3.26-1.42,6.37.06,9.05,2.69,2.06,2.02,6.73-.66,9.07-.58Z"/>
        <path class="cls-6" d="M660.12,856.86l-8.93-.91c-2.22-.23-2.84-1.44-3.08-2.67-.64-3.32,1.57-2.75,3.22-3.6,8.97-4.61,24.65-3.36,22.91,5.78-1.77,3.27-10.28,1.79-14.13,1.4Z"/>
        <path class="cls-6" d="M830.2,892.32c-4.76,1.24-6.67,5.8-9.4,8.48-3.11,3.06-8.43,1.18-10.71-1.74-2.75-3.52-6.37-4.14-10.53-1.58-3.02,1.85-11.41,2.48-11.59-2.37s1.26-8.74-.03-13.87c-.97-3.84,2.76-9.1,4.63-12.62l12.04,5.55c8.5,3.92,16.93-.5,24.27-5.42,3.35-2.24,8.43.49,10.88,3.09l9.42,2.87c4.17,4.06,8.18,1.97,12.92,2.52,3.96.46,7.19,4.75,13.69,3.11,2.14-.54,3.05,5.68,2.12,7.67-3.28,7.03-10.56,2.47-18.95,7-9.52,5.13-16.78-5.83-28.75-2.71Z"/>
        <path class="cls-6" d="M934.76,873.82c-2.27,7.04-19.37.28-27.26,7.13-1.94,1.68-4.37,1.98-6.41,2.35-1.86.34-6.86-1.43-5.86-4.5,2.34-7.16,11.27-10.82,17.63-13.52l6.91-8.8c19.64.88,24.68-13.86,30.12-11.87,7.69,2.8.34,17.98-4.47,19.63-6.25,2.15-8.58,3.13-10.66,9.58Z"/>
      </g>
      <g id="cordilheira-de-ferro" data-name="Cordilheira de Ferro">
        <path class="cls-7" d="M800.21,183.74c.19-2.17,2.27-2.67,3.4-3.85l9.27-3.46c6.09-2.5,12.38,1.66,18.62,1.94,5.52.25,9.98,1.38,12.27,6.91,4.27,10.31,14.02,15.86,25.41,14.75,9.7-.94,27.61,12.37,40.99-4.1,3.97-4.88,9.94-5.74,14.88-1.74,7.59,6.15,10.03,14.31,15.94,15.89,1.24,1.41,2.02,2.07,3.32,3.9l12.87,18.02c4.15,12.28,13.23,15.89,22.92,21.56,7.16,4.19,11.51,14.45,20.72,16.91-.32,6.2,2.83,11.03,4.71,16.3,2.52,7.05,2.95,14.47,7.08,20.98l-3.48,7.74c-12.17,9.49-19.47-.98-25.16,7.53-5.26,7.86,8.63,15.46,10.19,22.59,1.05,4.78-3.47,8.38-4.58,12.69-2.27,8.79-11.2,16.65-20.46,12.51-8.5-3.79-16.86-6.9-26.57-7.1-26.71-.56-26.33-21.14-40.55-29.57-12.23-7.25-31.12.02-36.77-7.29l-13.66-17.67c-4.82-3.84-7.8-7.56-11.74-12.27-7.77-9.28-27.8,7.44-45.91-5.39-3.86-2.74-8.1-1.09-11.8-2.04-14.36-3.72-22.99-23.56-44.81-7.98-11.23,8.02-23.72-12.1-33.12-6.47-3.5,2.09-5.46,7.43-10.92,7.01-10.11-.8-20.65-2.03-30.41-5.1-4.99-1.57-9.32-2.61-14.29.16-14.37,7.99-28.82,3.64-40.63,26.05-6.84,4.2-19.41-5.44-23.28-2.82l-9.16,6.21c-4.24-6.85-9.17-11.71-14.08-17.26-1.22-1.38-1.83-2.87-3.72-2.53l-.11-1.12.64-16.08,7.04-13c2.33-4.31,3.41-8.51,6.69-12.2,4.56-5.14,5.87-12.03,3.49-17.9l7.06-2.96c11.79-2.7,22.27-7.3,31.87-14.55,5.88-4.44,12.13-4.93,19.02-3.71,7.27,1.28,14.19-6.9,26.08-2.54,23.82,8.71,27.79-13.71,45.28-12.84,20.92,1.04,20.68-22.7,41.42-23.39l10.25,1.68c5.86,8.18,14.07,12.24,22.69,16.47,5.76,2.83,10.63,5.42,17.35,2.67,1.63-.67,3.55-1.59,3.71-3.49Z"/>
      </g>
      <g id="estepes-do-norte" data-name="Estepes do Norte">
        <path class="cls-12" d="M991.02,38.39l-10.25-.3-2.62-.7c-1.17-.31-2.56-3.52-.91-4.07,6.07-2.06,12.95-1.83,19.18-1.02,1.65.48,3.22,5.84,1.79,6.69-2.18,1.27-5.46-.55-7.2-.59Z"/>
        <path class="cls-12" d="M1008.2,48.49c-.28,1.52-4.98.31-4.42-2.64.88-.62,4.36-.45,4.42,2.64Z"/>
        <path class="cls-12" d="M1174.81,187.44c-2.23,3.41-5.33,5.3-9.35,3.92-3.7-1.27-9.05-4.37-13.44-3.23l-11.22,6.3c-15.5,8.71-9.83,23.2-20.6,34.61l-3.3,7.58c-9.17-1.52-17.98,1.69-24.18,8.81-4.42,5.08-9.86-.06-17.95-1.57-2.99-4.93-10.87-4.1-15.5-.47l-10.31,12.44c-4.32,5.21-18.11-1.67-28.09,9.38l-13.75,3.52-2.58,1.38c-7.3-2.16-14.08-7.06-18.52-13.75-3.11-4.68-6.88-6.58-12.01-8.2-8.35-2.65-12.42-10.83-15.77-18.19l-9.47-12.99c-1.28-1.76-3.21-2.63-4.45-3-1.3-1.83-2.08-2.49-3.32-3.9l-15.37-17.42c-4.39-4.98-11.77-3.73-15.98,1.5-6.38,7.92-16.59,10.38-25.98,6.36-15.73-6.73-28.51,3.05-37.38-14.08-2.99-7.11-9.39-11.43-17.25-10.18-8.88-4.26-19.01-3.02-25.42,3.63-1.14,1.18-3.21,1.68-3.4,3.85-5.45,3.48-11.78,3.29-17.78-.04-9.69-3.58-18.5-8.31-24.79-16.4-12.35-5.5-25.66-1.09-33.11,9.9-10.39,17.08-25.97,6.03-35.99,16.72-7.78,8.3-18.55,10.01-29.02,6.97-3.58-1.04-7.62-3.26-12.16-1.64s-9.01,4.87-13.82,4.17c-6.75-.99-13.05-.84-18.8,3.39-9.39,6.91-19.77,11.35-31.3,13.83l-9.41,4.51c-11.15-1.32-20.18-7.06-28.51-14.01-4.52-3.77-11.61-2.02-16.58-2.29-6.85-.33-.85-10.08-6.7-13.88-1.93-1.25-4.45-2.09-6.9-2.7l-8.97-2.28c-2.64-4.72-1.5-9.67,2.13-14.21,2.62-3.28,3.76-10.09-.25-12.48l-10.94-1.54c-11.2-5.75-4.07-18.34-17.49-23.74-4.9-1.97-9.13.73-13.64,2.16-4.62,1.46-10.02-.66-14.14,3.18-1.69,1.58-3.63,5.26-5.95,5.11l-15.05-.98c-5.21.87-9.14,2.82-12.63,7.47-2.34,3.13-7.94,3-10.64,1.43-8.1-4.71-3.52-13.9-5.65-16.53-2.48-3.04-4.79-5.71-5.41-9.81-.84-5.58-7.29-5.63-8.66-9.8-.84-2.56.91-4.57,1.61-6.59,4.98-14.3,17.18-3.14,29.37-11.12,8.09-5.3,2.68-17.96,10.23-18.05,6.11-.07,9.73,10.6,23.59,6.52,3.46-1.02,7.2-2.24,7.53-6.4.37-4.74-5.24-7.26-7.44-9.67.73-4.52,7.05-5.93,10.6-5.72l11.87.72c8.2-15.53,13.96,5.86,27.88,1.53,6.41-2,7.87-9.01,12.23-13.01,7.62-7,20.33-6.7,29.05-2.18,7.08,3.68,12.4,3.26,19.77,2.45,8.81-.96,18.21-1.26,26.14-6.04,1.45-.87,5.07.1,6.11-2.26,1.79-4.04,5.28-7.27,7.77-10.77,4.69-6.6,10.43-9.69,18.96-9.25,2.7.14,7.31-2.74,10.33-.17l8.7,7.43c9.68,8.28,22.47,6.14,25.4,1.83.92-1.36,3.05-5.88.69-6.41l-16.74-3.73c.12-6.77,6.24-10.93,13.02-9.64,6.37-1.85,11.83-5.75,16.12-11.24,6.28.67,11.35-1.06,16.19-4.74l14.72.86c7.8-3.32,15.14-4.05,23.31-.36,5.27,3.91,11.68,4.73,18.6,3.1,4.19,4.4,9.16,6.21,15.18,5.31,6.32,1.95,12.99,4.54,17.69,8.53,5.3,4.5,3.33,9.31,1.59,14.28-.55,4.57,6.85,6.78,8.81,9.24s1.89,6.03,3.58,7.44c2.3,1.92,19.98,4.6,24.25,3.18,6.23-2.07,10.27-.2,15.69,2.8,8.39,4.64,19.86,7.42,29.44,5.85,5.71-.93,8.34-1.89,13.72,1.13,6.39,3.59,16.02.1,20.96-5.2,3.67-3.94,5.59-3.99,10.68-5.37,4.83-1.31,11.53-3.95,15.62-7.25,6.17-4.99,13.79-9.32,21.72-4.52,2.13,1.29,3.93,4.95,7.75,3.38,6.51-2.66,11.42,9.11,14.6,13.2,4.8,6.18,18.28-8.84,19.7-2.74.81,3.49,4.39,4.89,5.51,6.82,2.7,4.62,4.77,4.8,8.86,6.75,9.58,4.57,20.09,6.6,29.84.86,1.76-4.55,5.38-8.22,10.1-9.74,6.18-7.23,14.46-8.63,23.39-8.29,7.64.29,12.89,1.47,18.1,7.53,2.67,3.11,9.83,7.54,14.02,6.12,10.49-3.54,23.44-6.42,29.21-1.52,6.89,5.85,2.24,16.26,16.84,18.76,5.3.91,8.23,2.48,12.82,4.91,2.73,1.44,9.64,1.44,12.84.26,6.48-2.39,15.12-.91,17.1,6.64.79,3.01.81,5.81,5.41,5.95l1.46,16c.23,2.48,3.28,4.68,1.49,7.48-1.05,1.64-3.59,1.72-6.15,2.72-5.98,2.34-6.1,12.86-1.25,16.4,2.02,1.48,3.15,2.21,3.56,3.88.48,1.96-.36,3.22-1.68,5.02-2.92,4,2.13,10.05-1.02,15.93-2.67,4.99-20.38,3.13-20.28,18.34Z"/>
      </g>
      <g id="ormara" data-name="Ormara">
        <path class="cls-8" d="M1548.59,495.69c-4.29-4.76-12.6-4.52-17.93-8.6-5.04,6.42-13.41,9.57-19.58,6.02l-1.92-5.31c-.77-2.14-7.65-1.26-9.41-3.06-2.69-2.77,2.56-7.56-.79-14.15-1.52-2.98-5.26-2.31-8.7-2.87-2.62-5.64,12.1-11.46,6.69-20.96l-7.11-3.81c-1.41-3.97-4.47-6.04-6.41-8.95-2.76-4.14,3.31-9.17,4.11-12.77l3.15-14.24c15.23,2.17,17.18-9.95,24.52-7.92,6.49,1.79,10.37-2.32,11.85-7.68s.05-8.23-.59-13.48c-.44-3.6,6.53-7.61,10.26-7.42,5.07,10.42,8.36,19.49,17.89,25.74,6.29,4.13,11.8,10.76,10.61,16.8-1.62,4.9,1.02,9.23,6.27,10.69.4,8.9,8.43,7.39,11.11,13.09.63,1.34-1.45,4.34-1.4,5.73.22,6.71-1.76,11.71-3.65,17.91-3.12,10.28,14.24,17.57,11.14,22.79-1.38,2.32-5.92,4.15-5.09,7.96,1.72,7.86-1.4,18.77-5.8,20.75-3.7,1.67-8.3,2.22-11.14-.73-1.54-1.61-1.38-5.16-2.49-7.49-7.3.99-10.95-2.89-15.58-8.02Z"/>
      </g>
      <g id="peninsula-da-aurora" data-name="Península da Aurora">
        <path class="cls-10" d="M1115.66,240.42c-.38,3.17,3.02,6.7,4.34,9.77,2.26,5.28,4.26,9.46,9.88,11.99l-.73,10.48c.13,5.43,2.38,9.93,8.09,10.55,2.62,4.99,6.42,8.49,11.07,11.52,2.04,1.3,3.64,3.12,3.79,5.03.18,2.42-2.03,3.66-3.3,5.67l-9.18,14.5c-1.21,1.91-2.31,3.84-1.94,5.99.46,2.7,9.41,7.1,9.73,15.21.19,4.8-3.25,7.91-6.91,11.28-4.05,3.72-1.02,10.56,3.36,13.36,17.91,11.44,11.25,24.05,24.63,19.59,6.84-2.28,16.33,5.1,24.32,1.3l7.16-8.86c6.06-4.26,14.32-.03,16.88,6.4,4.43,11.15,13.22,2.94,16.38,12.38-.66,1.58-.52,3.88,1.41,4.21.78,2.33.54,4.94-.15,7.37-1.28.17-2.91,1.76-4.14,2.38l-9.3-.3c-2.95-.09-4.84-2.01-7.62-1.41-1.93.42-4.76-.29-6.71-.52-.35-.53-.91-.91-1.6-.98-1.99-.21-3.43-2.35-4.55-3.98-6.04-8.79-14.83-9.86-24.29-6.31-7.93,2.97-19.11,2.08-26.67-1.76-5.32-2.71-8.59-5.64-15.16-3.58-7.84,2.46-18.3-.2-22.45-7.89-8.4-15.57-21.05-6.28-25.42-13.08-1.73-2.69-.99-6.03.3-9.17,4.02-5.95,4.3-12.59.4-18.87,1.63-6.18.68-12.46-4.01-16.74-9.81-5.61-23.43,2.65-31.07-3.97l-14.23-12.32c-2.77-2.4-5.4-6.58-5.1-10.5.85-11.35-5.91-20.68-16.7-23.21,1.86,4.72,5.63,4.89,8.27,7.02,11.4,9.19.48,22.38,15.47,31.16l12.82,10.89c10.43,5.03,33.43-5.58,32.64,10.58-.29,5.84,1.14,10.57,2.56,16.41l-4.11,12.39c-1.06,3.19-.55,6.31,1.67,8.8,4.6,5.15,18.18.28,22.37,8.47,4.8,9.39,15.07,15.46,25.72,12.14,6.96-2.17,9.99.83,15.97,3.92,7.07,3.66,19.19,4.27,26.77,1.46,9.18-3.4,19.3-1.53,23.24,8.01-2.28,4.24-4.17,9.01-5.12,14-.65,3.43-3.58,6.41-2.76,9.96-1.76,1.49-3.53,2.63-5.99,2.97l-13.4-8.03c-5.33-3.19-13.67-4.49-18.9.47l-9.04,8.58c-3.27,3.1-4.76,6.33-10.75,4.99-4.38-.98-9.38.83-11.48,5.52-5.91,13.25,3.49,20.78-.8,29.21-12.68,2.28-12.2-13-19.98-16.51-4.15-1.87-20.11-3.37-26.69,1.26-2.7,1.9-5.95,2.79-9.4,1.07l-14.27-7.1c-6.24-3.1-11.83-5.15-18.51-2.37-13.71,5.72-23.75-8.65-34.5-9.91-6.38-.75-16.13-2.97-16.18-10.43l-.11-18.44c-5.03-17.98,10.24-22.47,6.26-30.04l-5.6-10.63c7.33-7.6,12.87-16.74,13.83-27.47l-10.44-13.85c-1.7-2.26-1.37-5.48-.34-7.2,1.2-2.01,4.47-2.07,6.53-1.51,11.88,3.21,24.31-7.36,22.16-14.78l-5.33-18.35c-2.28-7.84-9.17-15.82-4.2-18.49l2.58-1.38c-.31.83.14,1.26.73,1.31.66.06,1.33-.36,2.19-.45l10.42-1.07c3.63-5.28,10.03-8.61,16.7-8.13,17.85,1.29,20.04-19.58,28.93-18l8.68,1.47c1.68,2.77,4.67,3.7,7.72,4.93,6.03,2.43,9.32.12,13.21-4.38,2.59-2.99,15.82-7.91,19.96-4Z"/>
        <path class="cls-10" d="M1185.68,434.13c2.46-.34,4.23-1.48,5.99-2.97.89-.75,2.08-.76,2.65-2.53l5.19-16.33c1.6-5.05,17.46,2.76,13.93-3.46,2.78-.6,4.67,1.32,7.62,1.41l9.3.3c1.22-.63,2.86-2.21,4.14-2.38,5.58,5.54,18.32,9.81,25.04,7.09,2.06-.83,2.78-5.39,4.72-6.82,4.75-3.5,7.4-5.44,9.98-10.8,1.66-3.46,7.06-7.44,5.49-12.61-2.72-8.91-15.91-13.87-11.08-22.37,2.57-4.51-1.22-5.9-2.24-8.84-1.52-4.8.08-11.45.9-16.29,1.73-10.32-19.03-13.79-13.42-32.48l7.91,2.86c2.49.9,4.82.26,6.75,1.36,1.69.96,1.98,17.86,25.7,21.41,3.76.56,7.05,3.28,11.24,2.28l1.55,8.79c2.01,11.37,12.79,8.31,14.9,12.34,2.2,4.18-8.96,9.55-.25,24.74l7.72,13.47c2.79,4.86,4.49,7.79,1.01,13.4-1.79,2.89-.8,9.88,1.82,12.25,2.54,2.29,4.11,3.44,4.87,6.61.47,1.96-2.35,3.81-2.34,6.34l.02,13.59-7.01,12.16c-2.02,6.47.92,15.97,7.26,18.53,2.29.93,4.16.7,5.41,2.15.9,1.04,1.08,5.13-.73,5.14-3.02.02-5.9-1.95-8.02.06-1.43,1.36-3.09,4.63-2.45,7.02,1.94,7.31-3.24,17.38-9.57,20.5-2.57,1.27.1,5.78-.43,7.55-3.12,10.44,1.42,19.48-2.47,21.39l-5.64,2.76-5.99,10.11c-4.45,3.8-7.38,7.63-7.79,13.66-.27,3.93-4.24,4.95-6.4,6.14-2.74,1.51-8.41-.14-8.87-2.57,1.07-6.08-.57-8.48-3.47-13.3-1.87-3.11-1.35-7.41-6.73-8.41-6.21-1.16,3.75-10.41-7.45-18.08-4.05-2.77-7.58-1.14-13.37,1.53-.78-6.88-1.55-14.81,2.2-20.56,1.93-2.97,2.31-4.31,1.62-8.63l-1.9-11.92c-7.46-13.95-26.68-.61-29.57-14.18l-11.1-.23-3.22-17c-.96-5.07-4.18-11.9-8.94-14.22-3.78-1.84-6.09-3.07-6.22-8.05l-8.24-1.91Z"/>
        <path class="cls-5" d="M1234.64,400.8c-1.93-.32-2.07-2.62-1.41-4.21l1.41,4.21Z"/>
        <path class="cls-10" d="M1325.09,563.95c-.57,4.2-9.33,4.25-8.83,1.39l2.45-14.13c.44-2.51,5.85-4.46,8.16-4.23s3.63,1.47,4.17,2.71c2,4.61-4.85,6.11-5.95,14.27Z"/>
        <path class="cls-10" d="M1334.05,539.33c-.49,1.5-4.1,1.25-4.44-.19-1.37-5.77,1.95-11.28,8.23-10.95.29,4.63-2.37,6.76-3.79,11.15Z"/>
        <path class="cls-10" d="M1285.48,592.6c-2.63.43-5.89.93-7.94-.39-2.37-1.52-1.81-4.69-1.18-6.65.96-2.99,7.16-6.6,9.84-6.59,1.44,0,5.25,1.28,4.29,3.24-1.95,3.66-5.33,5.86-5.02,10.39Z"/>
        <path class="cls-13" d="M1205.12,407.35l1.6.98c1.94.24,4.78.94,6.71.52,3.53,6.22-12.33-1.59-13.93,3.46l-5.19,16.33c-.56,1.77-1.76,1.78-2.65,2.53-.83-3.55,2.1-6.54,2.76-9.96.95-4.99,2.84-9.75,5.12-14-3.94-9.53-14.06-11.41-23.24-8.01-7.59,2.81-19.71,2.19-26.77-1.46-5.98-3.09-9.02-6.09-15.97-3.92-10.65,3.32-20.92-2.76-25.72-12.14-4.19-8.19-17.77-3.32-22.37-8.47-2.22-2.48-2.72-5.61-1.67-8.8l4.11-12.39c-1.42-5.84-2.84-10.57-2.56-16.41.79-16.16-22.21-5.56-32.64-10.58l-12.82-10.89c-15-8.77-4.07-21.97-15.47-31.16-2.64-2.13-6.41-2.3-8.27-7.02,10.8,2.53,17.56,11.86,16.7,23.21-.3,3.92,2.33,8.1,5.1,10.5l14.23,12.32c7.64,6.62,21.26-1.63,31.07,3.97,4.69,4.28,5.64,10.57,4.01,16.74,3.9,6.28,3.62,12.91-.4,18.87-1.29,3.15-2.03,6.48-.3,9.17,4.37,6.8,17.03-2.49,25.42,13.08,4.15,7.7,14.61,10.36,22.45,7.89,6.57-2.07,9.85.87,15.16,3.58,7.56,3.85,18.75,4.73,26.67,1.76,9.46-3.55,18.26-2.48,24.29,6.31,1.12,1.63,2.56,3.76,4.55,3.98Z"/>
        <path class="cls-5" d="M1206.72,408.32l-1.6-.98c.69.06,1.25.44,1.6.98Z"/>
      </g>
      <g id="arquipelago-de-vesper" data-name="Arquipélago de Vesper">
        <path class="cls-1" d="M166.3,411.4c.3.26.72.68,1.1.78,1.17,1.8,2.93,3.12,2.97,6.22-3.29-.84-4.41-4.28-7.2-4.76l-5.4-.93c.23-2.58-.68-4.11,1.55-5.54,1.92,2.76,4.43,4.33,6.99,4.22Z"/>
        <path class="cls-7" d="M133.7,413.36l.04-1.26c.89-1.74,1.09-3.64,1.69-6.4,1.84,2.6,1.13,6.61-1.73,7.66Z"/>
        <path class="cls-1" d="M57.61,335.53c2.9-.03,7.14-2.15,9.55.69l-1.8,15.12c-.51,4.28-2.93,4.91-.39,9.31,1.98,3.43-.5,10.41-3.06,13.55l3.14,7.84c-3.87,1.98-5.86-1.09-8.37-1.97-4.8-1.68-8.73-3.73-12.23-7.03l-1.48-1.4c.77-1.97.22-4.4-1.73-6.49-1.09-3.44-.22-6.64,1.63-9.53,3.66-.3,3.62-5.04,4.4-7.63.64.41,2.04.23,2.31-.54.55-1.53-.05-2.62-1.09-3.56.94-3.14,2.4-6.4,4.47-8.72,1.64-1.84,3.51.35,4.64.34Z"/>
        <path class="cls-1" d="M33.4,364.34c-.94,1.82-2.69,2.91-4.26,2.5-3.31-.87-6.07-7.07-4.76-10.05,1.96-1.46,1.63-4.32,1.36-6.53,1-1.02,2.16-1.86,3.76-2.49l3.9,16.56Z"/>
        <path class="cls-6" d="M24.38,356.8c.56-1.29-.08-3.51.13-4.91l.27-1.77.96.16c.27,2.21.6,5.07-1.36,6.53Z"/>
        <path class="cls-1" d="M159.85,497.3c-1.74-1.46-2.9-2.86-4.18-2.84-1.62.02-3.01,1.71-4.17,3.35-.96-2.84-1.78-5.36-3.31-5.67-4.98-1.04-7.37,6.54-9.98,14.52-2.84-.81-3.24-2.51-3.33-3.6-.13-1.54,1.14-2.56,1.59-4.22l2.68-9.75,12.71-2.84c1.42-5.97,7.94-10.42,14.13-8.31,2.68.91,2.49,6.01,2.3,7.77,10.35-.65,8.38-6.24,10.57-7.89.93-.7,3.52.71,4.93.23,2.03-.68,2.15-4.63,2.09-6.95,3.61,1.17,4.7,0,7.56-.73l5.66-1.43c.28-4.57-.95-7.5-1.65-12.01,7.83,1.05,15.87,12.31,15.44,14.78-.27,1.57-1.32,2.87-3.68,5.13,5.44,1.9,7.22,6.25,5.68,11.83,3.74,4.52,4.69,10.18,1.85,15.22-2.21.55-4.02,1.84-4.1,3.15-.13,2.07.83,4.54-.78,6.88-2.31-5.16-2.8-10.62-7.95-14.92l-5.5,7.93c-3.35,4.84,4.31,6.2,4.48,13.83.06,2.81-3.1,7.55-6.46,7.03-.5-1.95.34-5.86-2.41-6.93-3.01,3.82-5.95,2.41-9.31,1.04-4.81-1.96-9.31-3.57-10.69-7.67-2.08-6.16-.72-9.43,1.93-14.56.87-5.94-11.59-10.02-13.26-8.97-2.46,1.55-2.81,3.58-2.81,6.59Z"/>
        <path class="cls-7" d="M200.72,452.34c-.86-1.89-.56-3.89-.46-5.72.33-.37.63-.65.65-.66.96,2.09.97,5.28-.2,6.39Z"/>
        <path class="cls-1" d="M156.92,463c.89,1.37.53,3.03-.31,3.93-.74.79-1.94,1.44-3.5,1.52-1.14.06-1.57-3.21-3.06-3.97-2.79-1.45-9.14-4.98-6.54-9.22,1.19-1.95,7.09-1.68,7.44-6.08.29-3.63.36-9.32,2.25-12.61,1.13-1.53,7.06-.83,7.7,1.02.33,9.72-9.81,16.47-3.99,25.41Z"/>
        <path class="cls-1" d="M148.94,434.89l-4.02,4.78c-3.87.31-7.1,1.05-10.32,4.5-2.07-3.38.61-5.91.88-8.97l1.32-14.48c5.98,4.17,10.65,5.84,17.88,4.92.07,3.96-3.16,6.17-5.74,9.25Z"/>
        <rect class="cls-1" x="133.9" y="419.81" width=".89" height=".89" transform="translate(-257.82 218.08) rotate(-45)"/>
        <path class="cls-1" d="M187.66,422.91v-2.58c-.03-4.87-12.68-4.67-9.52-12.75,4.22-1.31,9.68-.27,14.53-.52,1.16,1.37,3.23,3.52,3.43,5.32.56,6.55,1.12,12.38,4.39,18.67-4.75,1.21-7.2-.52-11.56-2.86l.99,10.95c.18,2.03,4.67,5.18,2.58,7.62l-3.02-.12c-.41-.02-.82,1.77-1.2,3.83-5.38-2.71-1.35-10.05-2.92-12.79-.94-1.64-3.24-1.47-4.77-2.25-2.7-1.37-2.1-5.97-1.18-7.93,2.34,2.45,4.45,2.26,7.34.72,1.66-.89.94-2.49.93-5.29Z"/>
        <path class="cls-1" d="M172.58,397l.02,6.31c-.06.8-.9,2.02-1.83,2.08-.72.04-2.22-1.82-1.97-2.59.23-.69,1.48-1.32,2.51-3.23-15.88,1.76-11.98-7.16-20.03-12.84-2.72-1.92-4.52-5.99-9.53-6.16l4.51,13.48c-1.09,1.01-3.28.6-3.75-.09-.44-.65-.2-3.11-.78-3.78-3.58-4.08-8.8-8.1-14.01-8.97-2.97-.5-4.47,4.15-5.91,5.26-5.67,1.46-9.24-6.2-14-3.15-3.7-9.07,7.67-11.15,5.48-14.67-2-3.22-5.72-4.15-9.56-3.84l-.23,7.35c-3.02-.8-4.06-4-5.05-6.47-5.04-.89-4.38-5.01-5.6-8.37-1.63-4.5-2.8-7.8-4.07-12.55-.97-3.63-5.45-7.57-.41-11.34,1.14,3.26,2.96,4.37,3.94,5.44,1.55,1.69,6.73.08,6.12-1.96-1.65-5.52-3.39-10.45-.58-15.74s-.76-9.25-.95-13.49c-.26-5.9,1.94-14.85,3.69-19.96,11.65-9.83,17.74,2.92,27.45,2.85,2.85-.02,5.19-1.92,6.71-5.59,3.59,4.14,1.02,6.26-.42,9.89-1.24,3.12-1.08,10.87,1.37,13.33,5.06,5.08,7.71,10.03,3.42,16.98l-4.03,9.6c-2.39,3.52-7.92,3.81-11.8,7.64,3.23,3.92-1.47,8.91-1.81,11.99,6.17,12.41,5.3,28.56,15.06,26.16,1.59-.39,2.01-2.35,3.07-4.12,1.43-2.39,5.48-2.53,8.14-1.73,5.67,1.7,6.12,16.76,11.09,5.85l7.88,3.49c-1.96,1.22-3.26,1.76-3.73,2.65-.84,1.58.89,2.85,2.15,4.18,1.12,1.18.95,4.13,1.76,5.11,1.17,1.42,3.92,1.13,5.68,1Z"/>
        <path class="cls-1" d="M104.04,392.34c-1.1-.47-.65-1.89.52-1.66.64.68,1.19.55,1.39.51,5.89-1.14,15.9,2.15,17.7,5.37,2.3,4.12.14,15.69-3.56,17.09-5.67-2.74-7.63-9.61-9.53-14.73-.99-2.69-4.06-3.83-5.68-5.63l-.85-.94Z"/>
        <path class="cls-1" d="M185.04,423.62l.65.22c.52.93.89,3.1-.03,3.35s-3.13-.01-3.88-.42c.52-1.77,1.64-2.93,3.26-3.14Z"/>
        <path class="cls-1" d="M160.61,461.23c-1.29-7.3,2.3-13.22,5.83-18.9l4.68-10.27c.14,4.4-.31,9.61-1.69,13.42-3.85,4.97-7.84,9.32-8.82,15.75Z"/>
        <path class="cls-1" d="M177.53,385.64c.03,1.93-3.51,2.6-4.43,1-.85-1.47-.66-5.81,1.24-6.98,1.49-.44,3.15,2.84,3.2,5.98Z"/>
        <path class="cls-7" d="M133.47,366.45c-2.51-1.8-3.34-4.58-.84-6.54,1.8,2.54,1.22,4.39.84,6.54Z"/>
        <path class="cls-1" d="M135.21,511.56c.88-.41,2.64-.29,3.41.36s.57,2.11-.63,2.86c-.84.53-1.57.72-2.98-.28-.79-.56-2.48-1.7.2-2.93Z"/>
        <path class="cls-1" d="M180.1,451.06c.91,3.89-1.41,5.79-3.87,6.78-2.6,1.03-5.27,1.41-7.95-.23,2.52-3.1,4.32-5.36,6.88-6.5,1.24-.55,3.75-.06,4.95-.05Z"/>
        <path class="cls-7" d="M134.7,393.73c-1.07,1.78-2.46.28-2.94-.41-.59-.83-1.26-2.55-.03-3.59s4.48,1.51,2.98,4Z"/>
        <path class="cls-1" d="M35.7,317.82c4.33-4.09-11.17-16.33-1.52-20.67,1.26-.57,4.26.78,5.12-.02,1.17-1.09,2.11-2.66,2.68-4.38,1.15-3.47,5.69-2.83,7.64-4.75l10.75-10.56c2.91,7.59,1.88,14.76-4.28,19.15,2.85,8.93-1.44,16.54-8.83,20.43-2.02,6.36-11.63,9.31-12.11,8.98-1.29-.89-2.43-2.21-2.54-3.65-.12-1.63,1.12-2.67,3.09-4.52Z"/>
        <path class="cls-1" d="M28.73,347.06c-3.95.9-5.07-2.43-5.49-4.7-.56-3.01,2.8-10.62,3.15-10.74,4.52-1.58,1.59,6.67,2.34,15.44Z"/>
        <path class="cls-1" d="M23.06,520.32c-3.1,4.01-8.84-10.91-14.17-5.99-1.56,1.44-3.23,2.1-4.7,1.53-5.42-2.11.67-8.95,2.17-20.32.45-3.46,7.58-3.99,8.69-7.94.84-3.01-3.89-5.43-2.78-8.13,1.31-3.18,5.49.33,9.88-2.59,1.95-1.29,2.09-4.53,2.8-6.41,3.15-1.06,7.38-1.98,10.91-1.79l2.32,3.47c.56.84,3.68.5,4.41-.29,3.15-3.43,5.56-2.59,9.54-2.53,2.33.04,5.78-4.35,6.53-6.51,2.17-6.21,7.44-7.24,12.42-9.44,3.92-1.74,6.36-7.45,11.3-8.64,1.92-5.09.79-9.96,4.81-14.09-.66,5.27-.63,8.99,3.59,12.64-2.09,2.64-5.63,2.73-7.09,3.85-1.76,3.97-5.32,5.03-7.42,7.77l-3.94,16.16c-5.72,5.91-8.99,16.51-7.21,25.29l-5.51,7.75c-6.5-1.38-12.87-2.55-18.65,1.14-3.14,2-2.39,7.61-4.5,10.39-1.64,2.16-6.31-.27-7.78-2.57l-5.62,7.26Z"/>
        <path class="cls-1" d="M100.55,418.26c-4.22,1.04-5.79-1.82-6.98-5.19,2.89.46,5.52,1.14,6.98,5.19Z"/>
        <path class="cls-1" d="M123.76,523.28c-1.89.86-3.89.56-5.72.46-.37-.33-.65-.63-.66-.65,2.09-.96,5.28-.97,6.39.2Z"/>
        <path class="cls-1" d="M112.21,273.28l.52-3.07c1.12-.08,1.73.16,2.18.71.57.7-.15,1.65-.67,1.67-.47.02-1.75.26-2.02.69Z"/>
        <path class="cls-1" d="M149.85,395.77c.4,3.86,3.74,6.98,8.16,7.36-.64-5.11-3.96-7.9-8.16-7.36Z"/>
        <path class="cls-1" d="M174.2,396.9l-1.62.1.02,6.31,2.39.11c.02-2.08.92-4.94-.8-6.53Z"/>
        <path class="cls-1" d="M38.86,358.09c-.34,1.54-.13,3.18-1.09,5.1-1.24-1.4-.66-2.61-.71-3.15s-1.24-1.14-1.87-.68c-1.56,1.15,1,5.64,1.19,5.71.69.27,2.74-.37,3.35.05,2.48,1.72,1.74,5.11,3.24,6.53.77-1.97.22-4.4-1.73-6.49-1.09-3.44-.22-6.64,1.63-9.53-2.19.18-3.57.47-4.02,2.46Z"/>
        <path class="cls-1" d="M47.25,340.22c-.44,1.37-.4,3.27,1.25,3.68.94-3.14,2.4-6.4,4.47-8.72,1.64-1.84,3.51.35,4.64.34l-.34-1.25c-2-3.23-8.92,2.47-10.02,5.94Z"/>
        <path class="cls-1" d="M93.75,445.34c.53-.34.82-1.69.54-2.25-.46-.95-1.5-1.41-2.75-2.04l-.52,4.65c.5-.27,2.23-.04,2.73-.36Z"/>
        <path class="cls-1" d="M127.4,236.87c1.1-.78,1.98-2.57.99-4.3-.39-.68-2.49-.87-2.9.13-.33.8-1.71,1.74-1.23,3.82.21.91,2.39.89,3.14.36Z"/>
      </g>
      <g id="costa-quebrada" data-name="Costa Quebrada">
        <path class="cls-1" d="M339.75,371.57c-2.15.62-3.27.51-5.29.24-.45-8.88-2.59-15.93,1.84-12.39.59.47,1.21,1.56,1.51,2.95l1.94,9.21Z"/>
        <rect class="cls-1" x="438.21" y="233.95" width="5.38" height="3.23" transform="translate(-58.37 260.41) rotate(-30.96)"/>
        <path class="cls-1" d="M334.28,226.17c-4.42-3.72,5.64-9.86,8.4-9.89,1.21-.01,2.63.57,2.96,2.04.88,3.91-4.63,7.2-11.36,7.85Z"/>
        <path class="cls-1" d="M348.13,297.31c-.03,2.95-5.53,4.56-9.2,17.41-1.1,3.84-.82,8.57-4.89,11.16-2.2,1.4-8.09-.44-9.23-3.14-1.87-4.45-.45-10.14-1.02-14.5-8.68-9.82,5.01-20.74-7.67-26.88,7.17-10.28,5.22-25.25,9.21-29.6,1.37-1.49,11.87-3.92,12.29-3.89,1.34.09,2.07,3.96,3.22,4.8,2.83,2.07,4.81,4.99,6.04,7.57l24.11,9.74c1.08,3.06,3.33,5.92,2.97,9.17-.66,5.83-16.23-2.9-21.8,4.94l-5.74,8.08c.1,1.63,1.73,3.78,1.72,5.15Z"/>
        <path class="cls-1" d="M355.6,396.09c.23,1.32-4.59,1.81-5.13.06-1.52-4.95-1.99-10.03-2.32-15.2,1.95-.42,3.45-.32,4.85-.08l2.59,15.22Z"/>
        <path class="cls-8" d="M349.38,409.47c-1.44.35-2.23-4.76.29-4.95,1.39-.11,2.52,4.27-.29,4.95Z"/>
        <path class="cls-1" d="M384.41,362.44c-1.45-1.89-5.02-1.43-7.19-1.74l.99-8.6c.34-2.97-5.63-2.83-9.02-2.33-.97-5.24-4.94-11.33-10.97-11.4-2.12-.02-5.4,4.36-8.63,1.81,2.8-5.15,10.34-13.68,13.78-15.06,1.56-.63,1.56-5.41,1.18-6.68,3.72-2.12,6.78,2.55,9,2.96,4.66-.21,7.92-1.19,11.47,2.92l7.85,4.16c-.34,4.46,2.81,4.94,5.02,6.18,6.63,3.71,3.49,10.35,1.67,15.64-2.05,5.96-1.42,12.62-7.66,16.55-1.03.65-3.92.58-4.9-.08-.88-.59-1.17-2.5-2.58-4.33Z"/>
        <path class="cls-1" d="M389.39,306.35l-5.48,4.06c-1.34-2.84-.75-6.57,1.78-7.47,1.13-.4,2.81-.11,3.36.02.81.2,1.34,2.63.33,3.38Z"/>
        <path class="cls-1" d="M574.18,226.33c1.2,6.78.24,13.6-4.91,18.95-3.88,4.02-5.01,9.16-7.53,13.79-4.96,9.12-9.78,17.97-4.11,26.53l.11,1.12c.2,2.07,3.03,2.97,4.24,4.51l16.59,21.19c1.98,2.53-.86,6.85-.66,8.93.73,7.34-.44,12.06-3.98,17.76l-13.37,21.52c-4.43,7.13,3.06,20.49-3.96,41.44-2.47,7.37-1.87,14.43,5.93,18.23l3.59,14.32c2.96,11.78-14.28,3.29-20.6,8.04-4.86,3.65-9.24,10.57-9.64,16.57,1.26,4.29,6.53,7.85,5.93,13.47l-6.61,5.75c-4.88,8.84-8.62,18.58-16.87,24.59l-22.51,16.39c-5.03,3.66-7.87,8.53-8.66,15.4-9.36,1.16-17.35,3.74-25.12,8.98-8.39-.34-16.82.51-23.31,5.02-3.37.03-2.84-4.07-4.13-5.96-2.77-4.06-6.92-7.25-5.72-12.55,1.35-5.92,6.36-9.32,10.33-13.52,9.92-10.51,2.99-27.4-10.65-35.71-.44-3.05,0-6.2-1.37-8.69s-4.85-3.99-6.89-3.85c-.46-5.63,3.04-9.95,5.67-15.1,3.48-6.8,7.06-14.12,14.97-16.72,4.37-1.44,10.11.06,14.38.94,4.84,1,7.39-.7,11.46-2.9l9.58.18c3.11-1.63,5.34-3.72,7.36-5.61l-.51-1.21-7.06,4.39-10.4.42c-3.77,1.81-6.45,3.62-10.92,2.33-17.39-4.99-23.01,2.97-30.03,15.75-3.25,5.92-6.81,10.98-7.06,17.71-7.02-.88-13.98.58-20.53,4.1-4.12,2.21-8.77-2.74-11.87-3.25-8.18-1.33-14.01-5.03-21.07-8.01-10.21-2.33-23.12,4.13-27.7.58-1.46-1.13-3.14-5.19-1.44-5.89,8.45-.33,16.66-1.2,23.67,1.85,4.64,2.02,7.95,2.71,12.49-.78,1.49-1.15,4.55-1.34,5.17-2.7,1.45-3.18,1.11-8.64-.84-10.11-.76-.57-2.77-.8-3.76-.09-4.62,3.3-13.71-1.69-14.06-2.93-1.52-5.38,6.11-8.87-1.25-16.41-1.69-1.73-2.42-4.93-2.18-7.28.16-1.5,3.1-2.45,4.3-3.98,9.64-12.31,23.27-16.49,24.02-9.05.18,1.8-.35,6.51,1.74,7.36,4.53-.22,7.82,2,11.7,3.15,5.98,1.76,11.74-3.16,16.56-5.1,10.14-4.09,8.35-10.62,16.5-17.37,10.92-1.97,16.2-15.64,11.15-18.58-3.99-2.32-4.64-5.06-6.83-8.77-2.54-4.32-9.11-6.06-13.64-8.08-1.48.34-3.1,2.5-5.28,2.09l2.73-7.2c-.51-5.35,1.89-7.55,3.97-11.5,2.47-4.69,2.06-10.84,6.77-14.99-4.17-7.84,1.67-17.31-6.72-19.11-4.28-.92-9.08-.68-12.98-3.66-1.7-1.3-2.2-4.09-.97-6.32,2.61,1.15,5.03.44,6.23-.83,3.69-3.9-1.33-8.51-1.4-11.07-.04-1.27,2.05-2.82,2.61-4.56.92-2.87-2.93-9.57-6.13-9.37-5.01.32-6.48-1.34-9.65-3.52-4.47-1.75-10.25-.51-15.23-1.01-2.5-.25-7.35-3.08-5.85-5.48,2.84-4.54,1.93-6.46,1.03-11.48l-1.82-10.12c2.87-.33,8.6-1.56,10.42.28,6.53,6.59,17.2,10.57,24.08,6.1l7.06-1.2c1.92-1.57,3.58-2.42,5.31-2.1,5.88,1.08,1.99,11.17,19.33,14.95,3.82.83,11.29,6.17,14.98,1.4,3.42-4.42,6.16-8.39,11.74-11.11,3.41-1.66,1.74-8.14,2.45-10.74,1.2-4.4,5.97-4.25,8.84-4.05,3.46.25,4.23,3.57,7.08,5.23l14.8,8.67c4.41-4.07,9.44-4.29,14.11-5.58,5.23-1.45,5.45-7.62,7.41-11.26,3.13-5.84,5.35-10.71,3.83-16.99,3.34-4.61,16.01-1.24,18.12.8,8.97,8.68,16.49,12.03,27.44,12.69Z"/>
        <path class="cls-13" d="M420.32,468.56l-2.57.18c.25-6.74,3.8-11.79,7.06-17.71,7.02-12.78,12.64-20.74,30.03-15.75,4.47,1.28,7.15-.52,10.92-2.33l10.4-.42,7.06-4.39.51,1.21c-2.02,1.88-4.24,3.98-7.36,5.61l-9.58-.18c-4.07,2.2-6.62,3.9-11.46,2.9-4.27-.89-10.01-2.38-14.38-.94-7.91,2.6-11.49,9.92-14.97,16.72-2.63,5.15-6.13,9.48-5.67,15.1Z"/>
      </g>
      <g id="pantanos-de-varg" data-name="Pântanos de Varg">
        <path class="cls-13" d="M602.34,626c-.2,8.55-5.48,13.06-11.04,19.1-10.39,11.3-13.7,28.48-22.83,44.3-.94,1.63.66,6.13-.91,7.57-1.66,1.53-3.58,2.49-6.89,3.46.36-2.42,3.42-2.79,5.33-4.15,1.5-1.07,1.55-6.59.12-7.72-3.68-2.9-6.9,2.32-11.81,6,1.81-6.84,8.42-6.75,12.9-9.54,6.07-3.78,6.63-13.53,9.59-19.22l6.95-13.36c7.68-14.76,17.26-14.27,15.35-26.93.77-.26,2.72-.1,3.23.48Z"/>
        <path class="cls-9" d="M492.55,544.12c1.1.87,2.39,2.62,3.56,3.7,6.88,6.32,13.42,13.83,23.01,17.17,5.59,1.95,12.73,2.84,15.46,8.57l6.86,14.39-7.17,25.07c0,13.61,15.79,22.4,27.77,19.48l3.54-3.26,1.16-.97,7.84-5.2,13.67,3.39c3.58.89,8.21-.01,10.86-.94,1.91,12.66-7.67,12.17-15.35,26.93l-6.95,13.36c-2.96,5.69-3.52,15.44-9.59,19.22-4.48,2.79-11.1,2.69-12.9,9.54,4.91-3.68,8.13-8.9,11.81-6,1.43,1.13,1.39,6.65-.12,7.72-1.9,1.36-4.96,1.74-5.33,4.15,3.3-.98,5.23-1.93,6.89-3.46,1.57-1.45-.03-5.94.91-7.57,9.13-15.83,12.44-33,22.83-44.3,5.56-6.05,10.84-10.55,11.04-19.1,7.24,8.33,27.72,9.98,33.35,6.94,5.62-3.03,8.91-8.58,14.27-13.22l22.69,23.88c5.92,6.23,12.11,10.98,21.5,12.99-2.63,5.39-6.11,8.72-10.68,11.71-9.4,6.15-.23,17.96-11.4,28.79-8.54.49-21.62.9-23.03,1.85-13.47,9.08-21.13,1.18-27.24,16.43-4.63,11.57-12.83,18.26-23.1,23.89-6.69,3.67-12.09,10.25-21.06,9.59-6.39-3.48-10.18-10.97-10.61-18.38l-7.26-7.72-6.52-23.29c-9.05,7.74-7.39,18.5-4.4,27.82,1.04,5.65-4.06,12.34-5.9,16.99l-12.17,2.25c-6.73,1.23-13.66.98-20.16-.72-7.44,3.4-14.13.43-19.41-4.76-2.4-2.36-5.79-3.37-6.72-7.5-2.51-11.09-9.88-23.67-21.93-26.25-6.76-1.44-13.85,1.18-19.8-3.47l-14.85-4.84c-2.99-7.38-8.4-12.48-15.14-16.54-2.83-1.71-5.34-10.2-2.9-12.42,5.92-5.36,12.67-8.41,17.95-13.99.39-2.99.22-5.76,1.43-8.75l13.93-2.44,21.75-13.11c9.08-5.47,19.29-6.2,18.67-21.15l-8.16-3.07c-3.19-2.46-6.41-2.91-10-3.88-5.78-1.57-10.02-1.13-14.31,3.03-5.41,5.25-13.67,2.18-17.3-3.89-2.68-4.48-6.73-5.56-11.09-3.15-3.69,2.04-7.56-1.14-8.86-4.7-1.08-2.96-2.24-5.56-.66-8.11,1.1-1.79,3.49-4.16,6.45-4.57,15.37-2.14,7.64-15.43,13.35-22.76,2.08-2.67,5.46-4.32,4.29-8.17l.05-1.23c.19.05,1.18.33,1.51.19,6.52-2.9,14.44-3.84,22.2-4.38l14.46-6.37,11.08-2.97c2.01,2.02,3.79,5.86,5.95,7.57ZM553.47,695.7l-.63.63.63.63.63-.63-.63-.63Z"/>
        <rect class="cls-15" x="553.03" y="695.89" width=".89" height=".89" transform="translate(-330.27 595.31) rotate(-45)"/>
      </g>
      <g id="divisoes-internas" data-name="Divisões Internas">
        <path class="cls-4" d="M1116.91,236.62c-.75.65-1,2.82-1.25,3.8-4.13-3.91-17.37,1.01-19.96,4-3.89,4.5-7.18,6.81-13.21,4.38-3.05-1.23-6.04-2.16-7.72-4.93,8.1,1.51,13.54,6.65,17.95,1.57,6.2-7.13,15.02-10.33,24.18-8.81Z"/>
        <path class="cls-4" d="M1174.81,187.44c-2.23,3.41-5.33,5.3-9.35,3.92v1.52c4.17,1.06,9.35-.27,10.69-5.41-.25.19-.83.18-1.34-.03ZM1071.1,678.17l-30.14-12.48c-6.4-2.65-12.72-5.06-19.1-1.56l-18.77,10.29c-3.7,2.03-10.02,5.26-14.41,3.42-14.35-6.01-23.24-18.86-26.95-33.28-1.97-7.66-7.92-11.08-15.45-9.59-21.86,4.33-22.13-11.28-29.56-15.7-5.73-3.41-12.87-2.92-18.72.15-7.44,3.9-14.58,3.81-22.84,2.54l-12.2-1.87c.06,1.62,1.36,2.76,3.5,3.03l17.58,2.25c6.88.88,25.42-12.85,34.11-2.72,7.35,8.57,11.76,19.72,29.01,14.23,5.49-1.75,11.14,1.34,12.55,7.38,3.83,16.31,14.48,29.19,30.02,36.52,15.1-1.81,25.63-14.78,39.9-16.03,5.95-.52,11.29,3.61,16.44,5.68l29.58,11.9c9.22,3.71,25.8-.72,41.52,8.65l11.92,9.61c0-.19-.09-.45.13-.66-17.78-23.26-38.29-13.56-58.12-21.77ZM857.83,617.76c.21.89.62,1.82,1.27,2.11.96.43,2.47.3,3.17.06l-4.44-2.16ZM986.02,256.36c-3.11-4.68-6.88-6.58-12.01-8.2-8.35-2.65-12.42-10.83-15.77-18.19l-9.47-12.99c-1.28-1.76-3.21-2.63-4.45-3l12.87,18.02c4.15,12.28,13.23,15.89,22.92,21.56,7.16,4.19,11.51,14.45,20.72,16.91-.32,6.2,2.83,11.03,4.71,16.3,2.52,7.05,2.95,14.47,7.08,20.98l-3.48,7.74c-12.17,9.49-19.47-.98-25.16,7.53-5.26,7.86,8.63,15.46,10.19,22.59,1.05,4.78-3.47,8.38-4.58,12.69-2.27,8.79-11.2,16.65-20.46,12.51-8.5-3.79-16.86-6.9-26.57-7.1-26.71-.56-26.33-21.14-40.55-29.57-12.23-7.25-31.12.02-36.77-7.29l-13.66-17.67c-4.82-3.84-7.8-7.56-11.74-12.27-7.77-9.28-27.8,7.44-45.91-5.39-3.86-2.74-8.1-1.09-11.8-2.04-14.36-3.72-22.99-23.56-44.81-7.98-11.23,8.02-23.72-12.1-33.12-6.47-3.5,2.09-5.46,7.43-10.92,7.01-10.11-.8-20.65-2.03-30.41-5.1-4.99-1.57-9.32-2.61-14.29.16-14.37,7.99-28.82,3.64-40.63,26.05-6.84,4.2-19.41-5.44-23.28-2.82l-9.16,6.21c-4.24-6.85-9.17-11.71-14.08-17.26-1.22-1.38-1.83-2.87-3.72-2.53.2,2.07,3.03,2.97,4.24,4.51l16.59,21.19c1.98,2.53-.86,6.85-.66,8.93.73,7.34-.44,12.06-3.98,17.76l-13.37,21.52c-4.43,7.13,3.06,20.49-3.96,41.44-2.47,7.37-1.87,14.43,5.93,18.23l3.59,14.32c2.96,11.78-14.28,3.29-20.6,8.04-4.86,3.65-9.24,10.57-9.64,16.57,1.26,4.29,6.53,7.85,5.93,13.47l-6.61,5.75c-4.88,8.84-8.62,18.58-16.87,24.59l-22.51,16.39c-5.03,3.66-7.87,8.53-8.66,15.4-9.36,1.16-17.35,3.74-25.12,8.98-8.39-.34-16.82.51-23.31,5.02l.12,1.43c6.52-2.9,14.44-3.84,22.2-4.38l14.46-6.37,11.08-2.97c2.01,2.02,3.79,5.86,5.95,7.57l-3.22-8.14c-1.17-16.32,22.28-21.95,35.27-36.67l13.18-20.89c1.38-2.19,5.71-2.84,5.6-5.96-.37-10.24-10.15-11.62-2.76-21.31,2.24-2.94,3.81-7.5,8.71-8.26,4.65-.72,12.64,2.16,16.62-1.35,5.51-4.87-2.27-16.76-.77-20.01s14.47,6.98,24.41-7.83l21.39-1.02c6.57-2.24,8.97-1.25,14.09,2.61,4.79,3.62,12.57-1.32,16.59-4.53,4.44-3.56,9.92-3.57,15.4-3.86l5.81,8.11c1.05,1.47,1.86,1.86,3.18,2-2.41-4.93-7.07-11.52-10.13-12.23-7.46-1.74-17.12,8.11-28.94,10.3-2.65-1.88-4.55-4.55-7.6-5.51l-23.73,2.32c-5.02.49-7.88.59-10.81,4.67-3.42,4.74-9.67,2.95-14.67,2.77-4.59-.17-8.51.6-11.34-3.67-4.71-7.11,2.56-15.54,2.54-23.73l-.05-18.66c-.01-4.67-1.62-8.64,1.15-13.03l14.07-22.24c3.6-5.68,3.99-11.02,4.16-17.66.12-4.61,1.38-8.67-3.45-12.34l8.05-6.59,15.49,5.1c11.45,3.77,9.32-17.77,34.08-22.35l20.93-6.78c11.91,3.92,23.83,6.33,36.33,6.44,10.49.09,11.73-11.07,17.85-7.85l12.71,6.68c3.42,1.79,10.04,4.56,13.49,1.73,21.12-17.32,34.54,4.65,45.11,6.71,5.11.99,9.1.38,13.44,3.35,17.49,11.95,35.99-3.94,44.19,4.48,4.3,4.42,8.57,7.44,12.06,11.97l11.99,15.6c3.11,4.05,6.86,6.55,12.45,6.57l16.11.04c7.36.02,12.79,3.76,17.2,9.32l12.78,16.08c7.89,9.92,32.2,4.54,50.28,16.19,2.11-1.59,6.85-3.19,8.41-1.51,3.33,3.57,4.8,8.31,7.27,12.59-4.31,6.09-9.54,12.3-8.92,19.94l1.03,12.67.91,17.35c-.62,2.73-6,3.57-8.13,4.23-19.27,5.98-14.28,22.87-20.18,28.34-5.05,4.69-16.39-4.51-23.44,7.57l-19.45.51c-5.29.14-9.74,16.44-23.15,8.82-3.06-1.74-7-2.85-10.15-1.55-2.68,1.11-5.08,3.72-5.77,7.14l-1.45,7.18c-.12.58.17,1.37.28,1.95l1.04.05c.59-6.86,2.26-13.71,7.4-15.05,2.14-.56,4.34.44,6.05,1.51,8.19,5.1,16.02,2.57,21.29-4.93,5.33-7.59,20.05-.05,25.44-5.75,9.31-9.84,17.54-.67,23.13-6.28,6.58-6.6,1.85-23.94,20.46-28.08,3.07-.68,5.81-2.31,8.54-4.66,8.64,7.95,19.06,5.61,29.55,12.91,8.25,5.75,16.35,5.36,25.71,2.97,10.68-2.73,26.66,14.95,35,9.99,12.63-7.51,15.47-1.8,28.44-2.68.16-.53.13-1.02.2-1.57-4.15-1.87-20.11-3.37-26.69,1.26-2.7,1.9-5.95,2.79-9.4,1.07l-14.27-7.1c-6.24-3.1-11.83-5.15-18.51-2.37-13.71,5.72-23.75-8.65-34.5-9.91-6.38-.75-16.13-2.97-16.18-10.43l-.11-18.44c-5.03-17.98,10.24-22.47,6.26-30.04l-5.6-10.63c7.33-7.6,12.87-16.74,13.83-27.47l-10.44-13.85c-1.7-2.26-1.37-5.48-.34-7.2,1.2-2.01,4.47-2.07,6.53-1.51,11.88,3.21,24.31-7.36,22.16-14.78l-5.33-18.35c-2.28-7.84-9.17-15.82-4.2-18.49-7.3-2.16-14.08-7.06-18.52-13.75ZM437.35,550.09c-1.33-.1-1.27,1.26-.05,1.23l.05-1.23ZM925.63,192.66c-4.39-4.98-11.77-3.73-15.98,1.5-6.38,7.92-16.59,10.38-25.98,6.36-15.73-6.73-28.51,3.05-37.38-14.08-2.99-7.11-9.39-11.43-17.25-10.18-8.88-4.26-19.01-3.02-25.42,3.63l9.27-3.46c6.09-2.5,12.38,1.66,18.62,1.94,5.52.25,9.98,1.38,12.27,6.91,4.27,10.31,14.02,15.86,25.41,14.75,9.7-.94,27.61,12.37,40.99-4.1,3.97-4.88,9.94-5.74,14.88-1.74,7.59,6.15,10.03,14.31,15.94,15.89l-15.37-17.42ZM782.43,183.7c-9.69-3.58-18.5-8.31-24.79-16.4-12.35-5.5-25.66-1.09-33.11,9.9-10.39,17.08-25.97,6.03-35.99,16.72-7.78,8.3-18.55,10.01-29.02,6.97l-.02,1.75c23.82,8.71,27.79-13.71,45.28-12.84,20.92,1.04,20.68-22.7,41.42-23.39l10.25,1.68c5.86,8.18,14.07,12.24,22.69,16.47,5.76,2.83,10.63,5.42,17.35,2.67,1.63-.67,3.55-1.59,3.71-3.49-5.45,3.48-11.78,3.29-17.78-.04ZM431.04,147.49l-.24,2.28c3.73.01,7.63-.07,11.77,1.37,1.75.61,2.91-.9,3.85-1.14l-.33-1.53-15.05-.98ZM506.37,190c.67,4,5.34,4.23,8.84,3.68l.13-1.4-8.97-2.28ZM647.37,199.25c-4.31,1.53-9.01,4.87-13.82,4.17-6.75-.99-13.05-.84-18.8,3.39-9.39,6.91-19.77,11.35-31.3,13.83l-9.41,4.51c-11.15-1.32-20.18-7.06-28.51-14.01-4.52-3.77-11.61-2.02-16.58-2.29-.1,1.08-.59,2.85-.32,3.97,3.34-4.61,16.01-1.24,18.12.8,8.97,8.68,16.49,12.03,27.44,12.69l1.3.08,7.06-2.96c11.79-2.7,22.27-7.3,31.87-14.55,5.88-4.44,12.13-4.93,19.02-3.71,7.27,1.28,14.19-6.9,26.08-2.54l.02-1.75c-3.58-1.04-7.62-3.26-12.16-1.64ZM1101.33,458.37c-.07.56-.05,1.04-.2,1.57,8.05,6.87,7.99,17.96,18.7,16.75.6-.38,1.17-1.21,1.48-1.82-12.68,2.28-12.2-13-19.98-16.51ZM1059.26,243.39l-10.31,12.44c-4.32,5.21-18.11-1.67-28.09,9.38l-13.75,3.52c-.31.83.14,1.26.73,1.31.66.06,1.33-.36,2.19-.45l10.42-1.07c3.63-5.28,10.03-8.61,16.7-8.13,17.85,1.29,20.04-19.58,28.93-18l8.68,1.47c-2.99-4.93-10.87-4.1-15.5-.47ZM558.26,269.52l7.04-13c2.33-4.31,3.41-8.51,6.69-12.2,4.56-5.14,5.87-12.03,3.49-17.9l-1.3-.08c1.2,6.78.24,13.6-4.91,18.95-3.88,4.02-5.01,9.16-7.53,13.79-4.96,9.12-9.78,17.97-4.11,26.53l.64-16.08ZM600.79,623.32c-16.25,4.9-27.3-9.05-34.05,4.94l7.84-5.2,13.67,3.39c3.58.89,8.21-.01,10.86-.94.77-.26,2.72-.1,3.23.48,7.24,8.33,27.72,9.98,33.35,6.94,5.62-3.03,8.91-8.58,14.27-13.22l22.69,23.88c5.92,6.23,12.11,10.98,21.5,12.99-2.63,5.39-6.11,8.72-10.68,11.71-9.4,6.15-.23,17.96-11.4,28.79l2.48-.2c3.04-4.51,6.86-9.8,6.05-16.19-.54-4.31-.18-9.01,4.1-11.29,5.03-2.67,7.46-8.79,11.95-11.74,15.53-10.2,39.3.29,58.67-19.33,4.22-4.27,9.47-9.36,15.52-10.58l33.37-6.75c8.16-6.16,14.01-13.48,20.05-21.92,10.08-3.63,21.11,1.54,25.99,11.21,1.94,2.61,3.51,5.84,6.21,6.36l-8.07-11.9c-4.41-6.34-11.6-8.74-19.4-8.15l.17-13.52c.08-6.4,6.14-8.79,9.51-13.1,3.05-3.9,4.83-11.29,3.83-15.86l-3.13-14.29c1.88-2.78,5.04-4.48,7.41-5.87l-1.55-.43c-1.67,1.01-3.79,2.37-5.55,2.51-2.42.19-4.18-2.12-5.95-3.14-11.64-6.68-9.33-18.6-14.28-22.16-6.19-4.45-14.2-4.61-20.82-8.15l-21.98-11.75-14.34-13.42c-5.21-4.88,2.12-16.68-14.7-20.31l-20.38-4.41c-5.53-1.2-9.07-.66-11.22-7.49-1.77-5.63-4.02-15.77-10.64-18.5-9.15-3.76-19.84-2-29.27-4.69l-8.16-2.33c.65,3.29,4.32,3.22,7.13,4.04,17.41,5.09,29.83-2.29,35.36,11.52l5.67,14.17c1.88,4.7,5.71,4.31,9.79,5.11l23.18,4.56c4.52.89,8.63,4.81,8.57,9.37-.09,7.05,3.64,10.96,8.51,15.23,5.89,5.17,11.03,10.93,18.43,14.19,8.75,3.85,16.95,8.9,26.45,10.84,15.3,3.11,6.29,19.92,26.2,28l1.3,9.19c2.9,8.98,2.52,20.77-5.03,27.62-4.67,4.24-8.57,8.23-7.04,15.64.9,4.36-.99,6.94-3.67,10.1l-13.29,15.63c-3.97,4.68-10.92,4.49-16.66,5.85l-12.11,2.86c-6.55,1.55-13.39,2.29-18.6,6.56l-17.2,14.12c-8.07,4.51-18.15,4.76-27.06,5.33-7.66.49-13.45,3.65-21.09,4.71-5.38.74-13.89-3.24-17.56-6.91l-12.08-12.08c-5.86-5.86-10.34-12.78-17.22-17.52l-12.42,12.01c-3.35,3.24-7.94,3.32-12.41,2.47l-15.94-3.05c-3.21-.61-5.26-4.26-8.02-6.39M558,631.67c-9.66-2.73-19.21-4.79-21.11-12.6-3.72-15.29,12.4-24.11,2.68-40.59-11.38-19.3-25.98-12.6-38.37-28.19-1.3-1.64-3.19-2.64-5.08-2.47,6.88,6.32,13.42,13.83,23.01,17.17,5.59,1.95,12.73,2.84,15.46,8.57l6.86,14.39-7.17,25.07c0,13.61,15.79,22.4,27.77,19.48l3.54-3.26-7.58,2.44ZM869.07,499.94l-1.29-.05c.72,2.71.52,6.33-.86,8.54-2.91,4.66-11.68.08-15.12,3.8s3.63,15.13-6.57,21.32l1.55.43c11.3-6.61,2.27-20.61,7.52-21.24l12.18-1.47c3.4-2.47,3.34-8.01,3.62-11.27l-1.04-.05Z"/>
      </g>
      <g id="vale-de-ardan" data-name="Vale de Ardan">
        <path class="cls-14" d="M868.79,497.99c-5.1-4.9-11.88-10.06-14.21-17.61l.07-16.59c-2.72-8.41-12.04-12.2-20.43-12.67-2.86-7.3.35-12.63,4.33-18.07,7.35-10.05-9.26-23.83,3.46-35.5,10.9-10,22.65-4.71,28.65-13.65,7.01-10.46-6.94-19.36,6.82-28.93,4.28-2.98,10.31-4.96,12.74-10.97-6.32,3.37-12.12,7.95-17.62,12.48-9.36,7.71,2.66,17.07-3.82,26.84-5.38,8.12-24.78,1.59-32.92,19.38-4.2,9.18,6.54,21.63.89,29.65-3.76,5.34-6.86,10.42-5.74,17.65-16.12-3.58-6.93-16.67-13-22.64-4.2-4.13-12.64-1.43-15.49-4.58-3.85-4.26,3.36-19.07-11.99-24.84-6.52-2.45-10.09-5.75-13.43-12.24-1.36-2.63-7.05-6.02-10.13-6.37-15.57-1.77-35.76-9.34-33.19-19.49,5.08-20.02-12.82-22.44-4.14-33.26,7.91-9.86,22.45-11.68,17.86-25.31-1.4-4.15-.34-8.09,1.21-12.44-4.25,1.81-4.47,7.45-3.26,11.26,5.17,16.38-13.03,14.56-20.18,29.8l-8.19-13.07c-2.32-3.7-2.88-8.04-.31-11.61,9.22-12.8-6.16-27.23-4.1-21.94,1.94,4.98,9.41,11.15,2.26,21.14-3.06,4.27-2.42,9.72.75,13.89,5.19,6.81,7.89,14.46,12.44,21.55,3.94,6.14,7.46,13.62,2.34,20.49-3.35,1.37-9.68-.31-12.91-2.19-7.82-4.55-14.62,3.22-24.66-2.11-7.78-4.13-12.57,4.83-20.48,1.48-8.44-3.58-6.69-15.96-19.99-12.37-5.84,1.57-15.26,6.09-21.17,2.45-4.26-2.63-9.99-8.44-12.35-12.62-2.7-4.79-1.11-11.21-7.41-14.38-3.44-1.73-4.78-5.98-5.85-10.28-5.75,9.31,12.52,11.56,9.6,24.9-13.61,4.79-17.8-9.24-23.02-3.07,5.17-.05,7.09,2.34,10.83,4.74,3.14,2.02,8.67-.02,12.43.98,6.39,1.7,9.31,9,14.71,11.59,10.67,5.13,24.58-4.73,29.27-2.42,1.5.74,2.92,2.65,3.96,4.59,4.38,8.17,13.2,11.28,20.89,6.15,6.61-4.42,9.87,5.51,20.43,1.52,6.88-2.6,12.65,1.37,18.96,3.37,1.88.59,5.71-.24,7.33.61.83.43,3.08,13.69,34.84,17.81,3.52.46,8.66,4.12,10.19,7.03,3.41,6.5,8.08,9.4,14.38,12.14,13.84,6.02,5.64,19.12,10.61,23.92,3.7,3.58,11.66,1.18,15.42,4.82s-1.24,19.22,10.93,22.38l16.6,4.32c7.25,1.89,10.77,9.14,8.71,16.35s.53,14.22,6.06,19.4l9.01,8.45c.72,2.71.52,6.33-.86,8.54-2.91,4.66-11.68.08-15.12,3.8s3.63,15.13-6.57,21.32c-1.67,1.01-3.79,2.37-5.55,2.51-2.42.19-4.18-2.12-5.95-3.14-11.64-6.68-9.33-18.6-14.28-22.16-6.19-4.45-14.2-4.61-20.82-8.15l-21.98-11.75-14.34-13.42c-5.21-4.88,2.12-16.68-14.7-20.31l-20.38-4.41c-5.53-1.2-9.07-.66-11.22-7.49-1.77-5.63-4.02-15.77-10.64-18.5-9.15-3.76-19.84-2-29.27-4.69l-8.16-2.33c-.2-1.03-.48-2.51-1.91-2.66-2.41-4.93-7.07-11.52-10.13-12.23-7.46-1.74-17.12,8.11-28.94,10.3-2.65-1.88-4.55-4.55-7.6-5.51l-23.73,2.32c-5.02.49-7.88.59-10.81,4.67-3.42,4.74-9.67,2.95-14.67,2.77-4.59-.17-8.51.6-11.34-3.67-4.71-7.11,2.56-15.54,2.54-23.73l-.05-18.66c-.01-4.67-1.62-8.64,1.15-13.03l14.07-22.24c3.6-5.68,3.99-11.02,4.16-17.66.12-4.61,1.38-8.67-3.45-12.34l8.05-6.59,15.49,5.1c11.45,3.77,9.32-17.77,34.08-22.35l20.93-6.78c11.91,3.92,23.83,6.33,36.33,6.44,10.49.09,11.73-11.07,17.85-7.85l12.71,6.68c3.42,1.79,10.04,4.56,13.49,1.73,21.12-17.32,34.54,4.65,45.11,6.71,5.11.99,9.1.38,13.44,3.35,17.49,11.95,35.99-3.94,44.19,4.48,4.3,4.42,8.57,7.44,12.06,11.97l11.99,15.6c3.11,4.05,6.86,6.55,12.45,6.57l16.11.04c7.36.02,12.79,3.76,17.2,9.32l12.78,16.08c7.89,9.92,32.2,4.54,50.28,16.19,2.11-1.59,6.85-3.19,8.41-1.51,3.33,3.57,4.8,8.31,7.27,12.59-4.31,6.09-9.54,12.3-8.92,19.94l1.03,12.67.91,17.35c-.62,2.73-6,3.57-8.13,4.23-19.27,5.98-14.28,22.87-20.18,28.34-5.05,4.69-16.39-4.51-23.44,7.57l-19.45.51c-5.29.14-9.74,16.44-23.15,8.82-3.06-1.74-7-2.85-10.15-1.55-2.68,1.11-5.08,3.72-5.77,7.14l-1.45,7.18ZM837.26,327.74c4.64-12.85-10.12-14.74,1.35-23.94-3.74-1.23-5.79,2.83-6.49,5.24-.95,3.25.53,5.75,2.51,8.33,4.75,6.17-3,18.7-6.94,20.7l-15.85,8.02c-7.05,3.57-12.49,11.37-8.33,19-.37-25.01,25.27-13.84,33.76-37.35Z"/>
        <path class="cls-13" d="M868.79,497.99c-.12.58.17,1.37.28,1.95l-1.29-.05-9.01-8.45c-5.52-5.18-8.19-11.91-6.06-19.4s-1.46-14.46-8.71-16.35l-16.6-4.32c-12.17-3.17-7.1-18.68-10.93-22.38s-11.72-1.24-15.42-4.82c-4.96-4.8,3.23-17.91-10.61-23.92-6.3-2.74-10.97-5.64-14.38-12.14-1.53-2.91-6.67-6.57-10.19-7.03-31.76-4.13-34.02-17.38-34.84-17.81-1.62-.85-5.46-.01-7.33-.61-6.31-2-12.08-5.97-18.96-3.37-10.56,3.99-13.82-5.94-20.43-1.52-7.68,5.13-16.51,2.02-20.89-6.15-1.04-1.95-2.47-3.85-3.96-4.59-4.68-2.32-18.6,7.55-29.27,2.42-5.4-2.6-8.32-9.89-14.71-11.59-3.76-1-9.28,1.04-12.43-.98-3.73-2.4-5.65-4.79-10.83-4.74,5.22-6.17,9.4,7.86,23.02,3.07,2.92-13.34-15.35-15.59-9.6-24.9,1.06,4.3,2.41,8.55,5.85,10.28,6.3,3.17,4.71,9.59,7.41,14.38,2.36,4.18,8.09,9.99,12.35,12.62,5.91,3.65,15.34-.87,21.17-2.45,13.31-3.58,11.55,8.8,19.99,12.37,7.91,3.35,12.7-5.61,20.48-1.48,10.04,5.33,16.84-2.44,24.66,2.11,3.23,1.88,9.56,3.56,12.91,2.19,5.12-6.88,1.6-14.36-2.34-20.49-4.55-7.09-7.25-14.75-12.44-21.55-3.17-4.16-3.81-9.62-.75-13.89,7.15-9.99-.32-16.16-2.26-21.14-2.06-5.29,13.32,9.14,4.1,21.94-2.57,3.57-2.01,7.91.31,11.61l8.19,13.07c7.16-15.23,25.35-13.42,20.18-29.8-1.2-3.81-.99-9.46,3.26-11.26-1.55,4.36-2.6,8.3-1.21,12.44,4.59,13.62-9.95,15.45-17.86,25.31-8.68,10.82,9.22,13.24,4.14,33.26-2.58,10.16,17.61,17.72,33.19,19.49,3.07.35,8.77,3.73,10.13,6.37,3.34,6.49,6.9,9.79,13.43,12.24,15.35,5.77,8.14,20.58,11.99,24.84,2.85,3.15,11.29.45,15.49,4.58,6.07,5.97-3.11,19.06,13,22.64-1.12-7.23,1.98-12.31,5.74-17.65,5.65-8.02-5.09-20.47-.89-29.65,8.14-17.79,27.54-11.26,32.92-19.38,6.48-9.77-5.54-19.12,3.82-26.84,5.5-4.53,11.3-9.11,17.62-12.48-2.43,6.01-8.46,7.99-12.74,10.97-13.76,9.57.19,18.47-6.82,28.93-5.99,8.95-17.74,3.65-28.65,13.65-12.73,11.68,3.89,25.46-3.46,35.5-3.98,5.44-7.19,10.77-4.33,18.07,8.39.46,17.71,4.26,20.43,12.67l-.07,16.59c2.33,7.55,9.11,12.71,14.21,17.61Z"/>
        <path class="cls-13" d="M837.26,327.74c-8.49,23.51-34.13,12.34-33.76,37.35-4.16-7.64,1.28-15.44,8.33-19l15.85-8.02c3.94-1.99,11.69-14.53,6.94-20.7-1.99-2.58-3.46-5.08-2.51-8.33.7-2.41,2.75-6.48,6.49-5.24-11.47,9.21,3.29,11.09-1.35,23.94Z"/>
      </g>
      <g id="floresta-de-nhalor" data-name="Floresta de Nhalor">
        <g>
          <path class="cls-15" d="M600.79,623.32c-16.25,4.9-27.3-9.05-34.05,4.94l-1.16.97-7.58,2.44c-9.66-2.73-19.21-4.79-21.11-12.6-3.72-15.29,12.4-24.11,2.68-40.59-11.38-19.3-25.98-12.6-38.37-28.19-1.3-1.64-3.19-2.64-5.08-2.47-1.17-1.08-2.46-2.83-3.56-3.7l-3.22-8.14c-1.17-16.32,22.28-21.95,35.27-36.67l13.18-20.89c1.38-2.19,5.71-2.84,5.6-5.96-.37-10.24-10.15-11.62-2.76-21.31,2.24-2.94,3.81-7.5,8.71-8.26,4.65-.72,12.64,2.16,16.62-1.35,5.51-4.87-2.27-16.76-.77-20.01s14.47,6.98,24.41-7.83l21.39-1.02c6.57-2.24,8.97-1.25,14.09,2.61,4.79,3.62,12.57-1.32,16.59-4.53,4.44-3.56,9.92-3.57,15.4-3.86l5.81,8.11c1.05,1.47,1.86,1.86,3.18,2,1.43.15,1.7,1.63,1.91,2.66.65,3.29,4.32,3.22,7.13,4.04,17.41,5.09,29.83-2.29,35.36,11.52l5.67,14.17c1.88,4.7,5.71,4.31,9.79,5.11l23.18,4.56c4.52.89,8.63,4.81,8.57,9.37-.09,7.05,3.64,10.96,8.51,15.23,5.89,5.17,11.03,10.93,18.43,14.19,8.75,3.85,16.95,8.9,26.45,10.84,15.3,3.11,6.29,19.92,26.2,28l1.3,9.19c2.9,8.98,2.52,20.77-5.03,27.62-4.67,4.24-8.57,8.23-7.04,15.64.9,4.36-.99,6.94-3.67,10.1l-13.29,15.63c-3.97,4.68-10.92,4.49-16.66,5.85l-12.11,2.86c-6.55,1.55-13.39,2.29-18.6,6.56l-17.2,14.12c-8.07,4.51-18.15,4.76-27.06,5.33-7.66.49-13.45,3.65-21.09,4.71-5.38.74-13.89-3.24-17.56-6.91l-12.08-12.08c-5.86-5.86-10.34-12.78-17.22-17.52l-12.42,12.01c-3.35,3.24-7.94,3.32-12.41,2.47l-15.94-3.05c-3.21-.61-5.26-4.26-8.02-6.39M601.14,622.87c4.26-10.34-1.18-18.59,4.33-28.42-4.02,1.81-4.93,6.38-4.88,10.84l.2,18.03M605.77,594.07c6.24-1.06,10.36-3.76,14.47-6.76,6.17-4.5,1.17-15.05,9.27-17.09,10.51-2.65,16.93-13.7,12.26-23.36-2.41,5.9.28,10.76-3,15.36-5.35,7.5-17.4,5.12-16.57,14.29,1.15,12.73-11.97,11.29-16.43,17.56Z"/>
          <path class="cls-13" d="M605.77,594.07c4.46-6.26,17.58-4.83,16.43-17.56-.83-9.17,11.22-6.79,16.57-14.29,3.28-4.6.6-9.46,3-15.36,4.67,9.67-1.75,20.72-12.26,23.36-8.1,2.04-3.1,12.59-9.27,17.09-4.11,3-8.23,5.7-14.47,6.76Z"/>
        </g>
        <path class="cls-13" d="M600.79,623.32l-.2-18.03c-.05-4.46.86-9.03,4.88-10.84-5.51,9.83-.07,18.09-4.33,28.42"/>
      </g>
      <path id="contorno-geral" data-name="Contorno Geral" class="cls-3" d="M180.1,451.06c-1.2,0-3.71-.5-4.95.05l-.04-1.68c1.53-1.12,2.9-1.58,3.76-.39l1.23,2.02ZM980.77,38.09l-.74,1.77c3.52.89,6.75,1.06,10.49.78l.49-2.24-10.25-.3ZM334.51,357.48c5.47,1.33,8.65,11.1,4.68,16.07-1.68,2.11-4.98-.02-6.18-1.11-1.11-1.02-3.81-16.25,1.49-14.96ZM336.31,359.41c-4.43-3.53-2.29,3.52-1.84,12.39,2.02.27,3.14.38,5.29-.24l-1.94-9.21c-.29-1.39-.92-2.48-1.51-2.95ZM445.92,235.29c.08,3.63-8.31,5.27-9.48,2.72-1.71-3.73,1.49-4.33,3.41-4.89,1.97-.58,5.99-1.28,6.07,2.18ZM444.04,235.57l-1.66-2.77-4.61,2.77,1.66,2.77,4.61-2.77ZM216.68,487.64c3.54,4.69,4.79,10.53,2.36,15.95-6.75,4.89-3.55,13.66-6.87,13.84-3.03.17-2.68-7.26-6.04-13.69l-1.61.96c.1.91.22,1.75-.13,2.88-1.77-1.8-3.36-1.69-4.27-.85-4.15,3.87,4.64,6.98,4.79,12.85.15,5.7-5.85,11.76-8.99,10.4-1.31-.57-2.36-2.64-1.81-6.08-4.2,2.47-7.63,1.29-12.04-.96-8.54-4.37-10.5-4.57-11.54-18.4,1.11-1.05,2.67-2.29,3.1-3.17,2.29-4.67-3.87-5.68-9.99-10.22-1.64,2.98-1.12,4.8-1.05,7.39-3.25.74-5.1-.41-7.22-2.69-1.5,2.93-2.42,5.1-5.65,5.72l-1.88-7.08c-5.75-2.26-3.62,12.03-11.41,13.12-2.94.41-3.32-2.37-3.81-3.54-.93-2.19,1.08-3.98,1.63-6.07,1.23-4.63,1.74-10,7.37-11.74,2.12-.65,7.28.35,8.69-2.24,3.28-6.01,9.9-10.15,16.9-7.43,1.92.75,2.29,4.06,2.94,5.85.59,1.61,2.61.56,3.45.19,1.25-.55,2.39-2.53,2.63-4.5.34-2.83,4.01-3.7,6.95-1.67,1.6-3.03,1.02-6.19-.81-9.36-.62-1.08,1.67-3.04,2.69-1.7l3.92,5.13c2.57-2.93,5.1-3.29,8.67-2.82l-2.22-11.56c.72-1.01,3.06-1.28,5.2-1.55-1.7-2.04-2.55-4.17-2.38-6.28.13-1.56,1.74-4.94,4.23-4.43,1.94,3.45,1.29,8.72-.79,12.69l6.85,4.85c5.79,4.1,8.7,11.43,4.01,14.22,4.34,2.32,6.16,6.87,4.15,11.98ZM200.72,452.34c1.17-1.11,1.16-4.3.2-6.39-.02,0-.33.29-.65.66-.11,1.83-.4,3.83.46,5.72ZM204.07,503.18l1.28-.22c.31-2.54-2.46-1.41-1.28.22ZM214.86,488.66c1.54-5.58-.23-9.93-5.68-11.83,2.36-2.26,3.41-3.56,3.68-5.13.43-2.47-7.61-13.73-15.44-14.78.71,4.51,1.93,7.45,1.65,12.01l-5.66,1.43c-2.86.72-3.95,1.9-7.56.73.06,2.33-.06,6.27-2.09,6.95-1.41.47-4.01-.93-4.93-.23-2.19,1.65-.22,7.25-10.57,7.89.2-1.77.39-6.86-2.3-7.77-6.19-2.11-12.71,2.33-14.13,8.31l-12.71,2.84-2.68,9.75c-.46,1.66-1.73,2.69-1.59,4.22.1,1.1.5,2.79,3.33,3.6,2.61-7.98,5.01-15.55,9.98-14.52,1.54.32,2.35,2.84,3.31,5.67,1.16-1.64,2.55-3.33,4.17-3.35,1.28-.02,2.44,1.38,4.18,2.84,0-3.01.35-5.04,2.81-6.59,1.67-1.05,14.13,3.03,13.26,8.97-2.65,5.13-4,8.4-1.93,14.56,1.38,4.09,5.88,5.71,10.69,7.67,3.36,1.37,6.3,2.78,9.31-1.04,2.75,1.06,1.91,4.98,2.41,6.93,3.36.52,6.53-4.22,6.46-7.03-.17-7.63-7.83-8.99-4.48-13.83l5.5-7.93c5.15,4.3,5.64,9.76,7.95,14.92,1.61-2.34.65-4.81.78-6.88.08-1.31,1.9-2.6,4.1-3.15,2.83-5.04,1.88-10.7-1.85-15.22ZM130.59,419.67c7.12-5.64,13.29,7.82,25.54,3.46.59,4.04.08,6.81-1.27,10.28,2.74.24,4.31.41,5.94,1.11,1.93.83,1.81,3.21,1.81,5.17l.3,5.36c-3.63.2-3.35,3.87-4.6,6.68-1.41,3.17-3.99,6.53.2,9.5.07-5.7,1.35-10.76,4.4-16.18.84-1.49,1.57-2.4,2.5-4.98l2.65-7.4c.7-1.96,1.18-3.06,2.69-3.14,4.37-.25,2.89,8.19-.42,16.69-4.18,4.97-7.22,9.56-8.54,16.46l.2.9c1.3-.2,3.2.13,4.04.76,1,.75,1.66,2.98.88,4.3-.8,1.35-3.42,1.08-4.42.39-1.21-.83-1.47-3.3-1.12-4.83l-.71-.76c-2.35,2.03-2.89,8.36-8.52,6.48-1.23-.41-1.71-2.79-3.16-4.06-2.16-1.88-5.14-2.89-6.38-4.46-1.77-2.22-2.52-6.25-.28-8.04,1.74-1.4,4.86-1.38,5.7-2.7,1.13-1.78,1.21-4.86.17-6.26-1.2,2.08-3.27,2.52-4.38,2.07-1.07-.43-.94-2.81,0-4.02-4.18-.8-7.22.71-10.06,4.2-6.53-6.48,5.7-16.24-3.14-26.99ZM160.61,461.23c.98-6.43,4.97-10.78,8.82-15.75,1.38-3.81,1.83-9.02,1.69-13.42l-4.68,10.27c-3.53,5.68-7.13,11.6-5.83,18.9ZM152.04,434.82c-3.95,1.73-4.12,4.76-6.59,7.18,1.46-.18,2.41.43,3.3.08l3.29-7.26ZM153.21,436.57c-1.89,3.28-1.96,8.97-2.25,12.61-.35,4.41-6.25,4.14-7.44,6.08-2.6,4.25,3.74,7.78,6.54,9.22,1.48.77,1.91,4.03,3.06,3.97,1.56-.08,2.76-.73,3.5-1.52.85-.9,1.21-2.57.31-3.93-5.83-8.94,4.32-15.69,3.99-25.41-.64-1.85-6.57-2.56-7.7-1.02ZM135.49,435.2c-.28,3.06-2.95,5.6-.88,8.97,3.21-3.45,6.45-4.19,10.32-4.5l4.02-4.78c2.59-3.08,5.81-5.29,5.74-9.25-7.23.93-11.9-.75-17.88-4.92l-1.32,14.48ZM134.34,420.88l.63-.63-.63-.63-.63.63.63.63ZM174.94,405.6c.44,7.56,5.4,11.11,10.34,14.91l2.37-.17c-.02-4.87-12.67-4.67-9.51-12.75,4.22-1.31,9.68-.27,14.53-.52,1.16,1.37,3.23,3.52,3.43,5.32.56,6.55,1.12,12.38,4.39,18.67-4.75,1.21-7.2-.52-11.56-2.86l.99,10.95c.18,2.03,4.67,5.18,2.58,7.62l-3.02-.12c-.41-.02-.82,1.77-1.2,3.83-5.38-2.71-1.35-10.05-2.92-12.79-.94-1.64-3.24-1.48-4.77-2.25-2.7-1.37-2.1-5.97-1.18-7.93,2.34,2.45,4.45,2.26,7.34.72,1.66-.89.94-2.49.93-5.29l-1.97.92c.52.93.89,3.1-.03,3.35-.88.24-3.13-.01-3.88-.42.52-1.77,1.64-2.93,3.26-3.14l.24-3.12c-2.56,2.53-4.99,2.59-9.7.85l1.72,15.09,7.07,1.54c-.95,5.05-1.38,9.14.63,13.19l9.7,2.25c.48-1.01.21-2.25-.15-2.48-.54-.34-2.27-.01-3.01-1.89,9.03-2.69-1.67-6.94,0-17.16,3.98,1.78,7.65,2.29,12.35.6-4.06-6.56-4.93-12.27-5.2-19.38-.12-3.02-5.4-8.29-8.54-8.25-5.29.06-9.65,1.95-15.19.72ZM133.5,385.78c-2.71-1.75-6.7-4.51-9.48-.8-.98,1.3-1.81,4.11-3.68,4.31-4.04.43-7.42-7.09-13.69-3.13-.4-2.72-1.63-5.98-.9-8.97.96-2.46,5.03-4.24,5.38-8.13-1.45-1.23-3.59-2.87-6.34-2.77.22,2.85.35,4.4.08,6.22-.15,1.06-2.91,1.25-3.91.53-2.72-1.97-2.41-5.7-8.1-7.82-1-4.04-.87-8.04-3.76-11.6l-1.5-8.07c-2.95-3.6-3.8-6.57-2.44-11.13.46-1.54,1.37-2.49,2.79-2.42,3.15.15,3.68,7.66,8.72,5.29-5.14-11.29,2.3-17.53-2.25-30.13-1.23-3.41,2.08-8.51,2.41-12.07l.77-8.43c3.54-3.11,9.9-7.15,14.52-4.71l12.19,6.43c3.93,2.07,6.58-.58,8.76-3.82,1.06-1.59,4.28-.38,4.67,1.16,1.81,7.2-4.95,14.47-.47,21.39,2.34,3.61,8.08,7.58,5.93,12.89-2.27,5.59-5.91,10.83-6.33,17.18l-10.94,4.79c1.88,4.63-1.43,9.93-2.34,13.59,6.29,7.99,3.08,14.53,8.2,21.78.1-1,1.27-2.61,2.23-2.52.68.06,2.35,1.34,3.25.75,3.82-2.51,7.86-3.72,12.26-1.34,2.71,1.46,4.92,4.68,6.17,8.24.7-2.7,2.16-4.37,3.65-4.25.27.02,8.9,3.83,10.71,6.91l.73.23,1.47-7.71c3.59-.76,6.16,2.07,6.62,5.65.39,2.99-.96,5.05-3.46,5.81-2.12.64-4.43-.47-5.29-2.74-.12-.32-.34-.59-.63-.73l-4.98,2.47c2.87,2.31,3.85,4.23,4.77,7.28,1.85.34,3.88.56,4.92,1.52l-1.62.1c-1.76.13-4.51.42-5.68-1-.81-.98-.65-3.93-1.76-5.11-1.26-1.33-2.99-2.6-2.15-4.18.48-.89,1.77-1.44,3.73-2.65l-7.88-3.49c-4.97,10.91-5.42-4.14-11.09-5.85-2.66-.8-6.71-.66-8.14,1.73-1.06,1.78-1.48,3.73-3.07,4.12-9.76,2.4-8.89-13.75-15.06-26.16.33-3.09,5.04-8.07,1.81-11.99,3.88-3.83,9.41-4.12,11.8-7.64l4.03-9.6c4.29-6.95,1.64-11.9-3.42-16.98-2.45-2.46-2.61-10.21-1.37-13.33,1.44-3.63,4.01-5.75.42-9.89-1.52,3.67-3.87,5.57-6.71,5.59-9.71.07-15.79-12.68-27.45-2.85-1.75,5.12-3.95,14.07-3.69,19.96.19,4.24,3.64,8.43.95,13.49-2.81,5.28-1.07,10.22.58,15.74.61,2.04-4.57,3.66-6.12,1.96-.98-1.07-2.8-2.18-3.94-5.44-5.04,3.78-.56,7.71.41,11.34,1.27,4.75,2.44,8.05,4.07,12.55,1.22,3.36.56,7.49,5.6,8.37.99,2.47,2.03,5.66,5.05,6.47l.23-7.35c3.84-.31,7.55.62,9.56,3.84,2.19,3.52-9.19,5.6-5.48,14.67,4.76-3.06,8.34,4.61,14,3.15,1.43-1.11,2.94-5.75,5.91-5.26,5.2.87,10.43,4.89,14.01,8.97.59.67.34,3.13.78,3.78.47.69,2.66,1.09,3.75.09l-4.51-13.48c5.01.18,6.81,4.24,9.53,6.16,8.05,5.68,4.15,14.59,20.03,12.84-1.04,1.91-2.28,2.54-2.51,3.23-.25.76,1.25,2.63,1.97,2.59.93-.05,1.77-1.28,1.83-2.07l2.39.11c-.02,1.74-2.56,5.2-4.61,3.59-3.71-2.91-6.82-6.02-11.19-7.94-2.98-1.31-2.89-5.77-4.92-7.45l-7.27-6.01-1.15.96,1.48,6.82c.47,2.15-1.24,3.8-2.96,3.77-2.94-.05-1.22-5.14-10.87-11.38ZM145.33,386.24l1.25-1.39c-1.25-1.46-2.55.56-1.25,1.39ZM173.09,386.64c.93,1.6,4.47.92,4.43-1-.05-3.13-1.71-6.41-3.2-5.98-1.89,1.16-2.09,5.51-1.24,6.98ZM120.14,414.8c-7.19.07-9.03-11.31-11.76-15.84-2.01-3.34-6.77-3.92-7.09-8.92l11.09-.56c6.43-.33,11.28,4.07,13.24,9.06,1.92,4.89.81,15.17-5.47,16.26ZM104.56,390.67c-1.18-.22-1.62,1.19-.52,1.66l.52-1.66ZM120.09,413.64c3.7-1.4,5.86-12.97,3.56-17.09-1.79-3.22-11.81-6.51-17.7-5.37l-1.07,2.1c1.62,1.8,4.69,2.94,5.68,5.63,1.89,5.12,3.86,11.99,9.53,14.73ZM160.16,415.07c3.64.21,6.97,5.56,10.97,5.15,1.68-.17,1.58-3.98.56-5.2-1.06-1.28-2.45-2.33-4.29-2.84,1.17,1.8,2.93,3.12,2.97,6.22-3.29-.84-4.41-4.28-7.2-4.76l-5.4-.93c.23-2.58-.68-4.11,1.55-5.54,1.92,2.76,4.43,4.33,6.99,4.22.8-1.34.11-3.52-.89-4.82-.75-.99-2.81-3.68-3.66-.26l-5.5-1.01c1.11,4.8-2.14,8.22-3.09,11.74,1.98,3.38,5.59-1.02,7-1.99ZM208.26,458.61c3.84-.8,4.42-3.28,4.45-4.47.03-1.56-1.29-3.72-3.87-3.08-3.5.87-3.1,8.08-.58,7.55ZM141.76,407.38c-1.66,2.57.73,4.67,2.65,4.8,1.93.13,4.3-1.26,3.21-3.96-.64-1.6-5.05-2.1-5.86-.85ZM134.82,359.4l-.05,10.26c-3.21-.44-4.6-3.38-4.83-6.6-.15-2.11,1.07-4.45,4.88-3.67ZM133.47,366.45c.38-2.15.96-4-.84-6.54-2.51,1.96-1.67,4.74.84,6.54ZM100.23,388.04c1.39-.15,1.58-3.37.27-4.77-.88-.93-3.03-2.62-4.8.23-1.03,1.66,1.58,4.84,4.53,4.53ZM118.06,269.5c1.21.28,3.55.08,2.63-2.35-.35-.92-2.47-2.89-3.33-3.05-1.69-.32-3.08,1.86-2.53,3.1.8,1.82,1.8,1.97,3.23,2.3ZM140.73,512.52c.71,2.02-3.21,4.93-4.8,4.35-1.78-.65-5.56-2.76-4.16-5.05,1.59-2.61,7.61-3.14,8.96.7ZM138.62,511.91c-.77-.64-2.53-.76-3.41-.36-2.67,1.24-.98,2.37-.2,2.93,1.4,1,2.14.81,2.98.28,1.2-.75,1.42-2.2.63-2.86ZM126.66,273.84c-.36.77-.92,1.18-.55,3.04.2,1.03,2.28,1.5,3.23,1.01.8-.41,1.3-2.54.33-4.35-1.07-2.01-2.54-.74-3.02.31ZM133.7,413.36c-.02.73.28,1.22.8,1.28,1.82.21,6.26-7.41,2.52-9.86-1.52-.99-3.04,1.23-3.63,2.57-.67,1.52-1.76,3.46.34,4.74.89-1.74,1.09-3.64,1.69-6.4,1.84,2.6,1.13,6.61-1.73,7.66ZM175.15,451.11l-.04-1.68c-2.51,1.84-7.84,4.94-7.46,9.4,4.64,3.41,14.69-2.27,14.93-3.53.27-1.38-1.17-2.75-2.49-4.24.91,3.89-1.41,5.79-3.87,6.78-2.6,1.03-5.27,1.41-7.95-.23,2.52-3.1,4.32-5.36,6.88-6.5ZM128.36,259.22l-2.24,3.74,3.04,1.82,2.24-3.74-3.04-1.82ZM130.68,394.32c-1.48-1.57-1.39-4.64,1.15-5.85,1.65-.79,5.06,2.56,4.23,5.02-1.23,3.64-4.28,2.01-5.38.84ZM131.76,393.32c.48.68,1.87,2.18,2.94.41,1.5-2.48-1.8-5-2.98-4-1.22,1.05-.55,2.76.03,3.59ZM536.34,866.97c-.65,8.12-18.47,4.53-19.11,16.92-.14,2.65,1.26,5.79-.53,8.16-1.11,1.46-3.45,2.92-5.81,3.7-5.76,1.92-8.19-.74-12.07-4.34l-14.21-13.19c-2.39-2.22-3.51-4.98-6.41-5.11-3.73-.17-5.97,1.55-8.12,4.77-2.15,3.22-7.24,1.82-9.39-.64-3.4-3.9-7.54-2.64-12.08-3.91-1.97-.55-3.31-4.99-7.68-3.2-2.42.99-5.13-1.74-6.64-3.05-3.04-2.63-6.57,1.49-8.76,2.8-6.7-.38-12.5-6.92-15.21-11.06-3.51-7.92-3.76-13.96.09-21.39-6.98-15.78-23.65-5.61-23.11-14.95.21-3.58-1.27-5.97-2.45-8.83-4.09-9.88-14.28-7.96-14.11-15.56.09-3.97,2.57-5.25,6.06-7.7,2.29-1.6,4.87-7.1,9.15-5.41,2.52,1,6.72,3.22,9.55,4,5.37,7.25,12.88,10.58,21.92,10.06,7.35-.42,12.05,7.97,10.5,14.52l4.6,6.06c1.58,2.09,1.72,4.88,4.27,4.99,5.76.25,3.45-7.78,7.57-8.64,2.26-.47,4.37.7,5.3,2.95,2.71,6.55,12.22,7.63,15.04,6.5,1.93-.77,2.37-3.17,3.59-4.8,3.09-4.13,9.64-.89,13.5-1.19,2.38-2.79,3.67-6.31,6.85-6.83,11.4-1.88,13.11,10.15,15.2,12.49,2.84,3.19,6.22,4.37,6.79,9.76.29,2.68,1.83,8.48,4.52,9.95,9.62,5.29,21.75,15.28,21.2,22.16ZM521.07,850.18c-4.03-2-11.11-6.54-11.51-11.29-.59-7.08-3.11-8.79-7.65-13.54-2.25-2.36-1.81-9.02-7.1-10.37-2.28-.58-4.57-1.37-6.7-.18-1.81,1.01-2.32,3.75-4.01,5.44-2.7,2.69-13.42-.59-14.75,1.93l-2.42,4.58c-3.64,1.51-9.7,1.34-13.19-.5-3.88-2.04-5.96-9.9-9.14-8.44-1.94.9-.34,7.87-7.72,8.52-4.4.39-4.56-3.77-6.63-6.59-2.25-3.07-4.64-4.02-4.02-8.62.54-4.08-2.27-7.55-4.49-9.12-3.23-2.29-7.35-1-10.71-1.05-7.23-.1-11.54-7.42-17.07-10.07l-8.96-4.28c-3.27-1.03-5.61,4.48-7.62,5.75-2.38,1.51-4.86,2.93-4.71,5.67.12,2.1,1.32,4.27,3.69,5.27,15.3,6.44,10.83,20.57,15.77,22.49,1.6.62,3.4-.2,5.32-.5,3.34-.51,17,7.26,13.86,16.21-4.26,11.25,1.58,23.58,13.54,26.73,4-4.33,9.62-4.18,13.67-.1,5.77-2.77,7.61,1.53,11.41,3.49,2.84,1.47,8.73-1.48,11.5,3.77.79,1.5,3.47,3.11,5.37,2.54,1.51-.45,2.61-1.5,3.96-3.57,2.22-3.4,9.46-4.32,11.99-.96,4.98,6.61,10.94,10.66,16.9,16.14,2.12,1.95,3.53,5.29,6.3,5.19,2.56-.09,6.54-.61,8.81-2.97l1-11.04c3.1-7.46,10.85-8.2,17.02-10.94,5.65-2.51-5.58-16.55-11.69-19.58ZM409.55,776.11c5.52,1.95,8.52,5.74,12.64,10.31,3.17,3.51,10.17,6.24,14.54,6.57,3.02.23,3.58-4.27,2.94-5.86-.87-2.14-1.76-4.04-4.79-4.91-6.94-1.98-1.06-11.5-8.57-12.7-10.69-1.71-8.2-12.96-19.3-9.54-2.97.91-4.59,4.55-4.94,8.55-.39,4.42,2.59,9.27,6.6,8.05-.74-.93-3.35-1.66-3.65-3.19-.51-2.87-.75-7.11.08-9.97,9.28-7.02,10.13,5.38,23.93,9.6-1.85,12.95,11.1,9.36,8.58,17.54-16.61,1.43-17.18-15.68-28.06-14.45ZM441.06,800.95c-.92-3.62,5.52-7.78,8.33-5.58,3.38,2.64,3.99,8.71,2.06,13.24-4.41-.52-9.26-3.22-10.39-7.66ZM449.79,807.34l.06-11.05c-3.36-.89-4.83.03-5.6,1.01-2.34,2.99-.09,7.48,5.53,10.04ZM612.19,862.12c-2.26-1.95-2.26-8.77-.47-11.02,2.62-3.28,8.72-2.76,12.18-.76,5.88,3.42,13.05-3.7,16.67,3.42-5.01,9.83-18.54,12.71-28.38,8.36ZM637.88,856.13c1.06-.7.46-3.5-.37-3.54l-4.35-.16c-2.35-.09-7.02,2.59-9.07.58-2.68-2.63-5.79-4.11-9.05-2.69-2.72,1.19-3.01,5.15-2.54,7.91,1.12,6.61,14.4,5.11,25.39-2.1ZM57.27,334.28l.34,1.25c2.9-.03,7.14-2.15,9.55.69l-1.8,15.12c-.51,4.28-2.93,4.91-.39,9.31,1.98,3.43-.5,10.41-3.06,13.55l3.14,7.84c-3.87,1.98-5.86-1.09-8.37-1.97-4.8-1.68-8.73-3.73-12.23-7.03-.09.73-.69,2.63-.3,3.3,3.36,3.24,7.69,3.64,11.95,5.58,2.88,1.32,6.76,4.49,9.8,1.14,1.57-1.73.59-5.78-2.19-7.59,5.6-6.7,3.22-12.95,2.85-19.75-.21-3.9,4.61-10.03.66-14.77,1.96-1.21,2.87-3.2,2.27-4.43-2.05-4.22-6.71-4.18-12.23-2.24ZM34.95,316.35c-2.14-6.82-7.93-10.76-4.98-17.36,1.69-3.78,4.65-3.88,8.34-3.41,2.37-5.04,5.24-7.12,10.23-9.26l13.14-11.04c1.72,4.18,2.81,9.35,2.2,13.42l-4.91,9.38c-1.72,3.28.42,8.16-1.25,11.88-1.52,3.39-6.98,5.53-8.84,8.75-3.84,6.64-12.58,9.87-14.53,8.87-2.05-1.05-3.52-2.94-3.64-5.25-.12-2.32,1.52-4.43,4.24-5.97ZM35.7,317.82c-1.96,1.85-3.21,2.89-3.09,4.52.11,1.44,1.25,2.77,2.54,3.65.48.33,10.09-2.62,12.11-8.98,7.39-3.88,11.68-11.49,8.83-20.43,6.17-4.39,7.19-11.56,4.28-19.15l-10.75,10.56c-1.95,1.92-6.5,1.28-7.64,4.75-.57,1.72-1.52,3.29-2.68,4.38-.86.8-3.87-.55-5.12.02-9.64,4.35,5.86,16.58,1.52,20.67ZM24.78,350.11c-5.57-8.18-3.42-10.62-.24-19.92,1.64-1.14,4.8.41,5.64,1.89,1.02,1.81.25,4.58.08,6.52l-.76,9.17c-1.6.64-2.76,1.48-3.76,2.49l-.96-.16ZM23.24,342.36c.42,2.27,1.54,5.59,5.49,4.7-.75-8.77,2.18-17.02-2.34-15.44-.35.12-3.71,7.73-3.15,10.74ZM23.94,363.78c1.44,2.56,1.29,4.84,5.02,4.62,2.51-.15,5.13-1.13,4.44-4.06-.94,1.82-2.69,2.91-4.26,2.5-3.31-.87-6.07-7.07-4.76-10.05.56-1.29-.08-3.51.13-4.91-3.19,3.52-3.04,7.52-.57,11.89ZM49.59,347.46c.55-1.53-.05-2.62-1.09-3.56l-1.22,4.1c.64.41,2.04.23,2.31-.54ZM91.54,441.05l-.52,4.65-5.82,3.09-7.35,7.64c-3.54,3.67-1.37,10.29-2.53,14.9-7.33,5.53-8.23,13.67-8.35,22.54-.06,4.22-5.4,11.64-9.35,12.11-5.85-.75-13.43-2.76-17.62,2.15-1.14,2.7.68,9.58-4.59,10.69l-8.19-2.75c-.56,3.51-2.07,6.31-4.61,6.45-6.39.36-6.92-7.18-11.51-7.37-2.49,1.9-5.26,3.48-8.2,2.26-6.69-2.79.31-11.77.31-17.49,0-9.75,10.14-9.89,9.93-13.05-.14-2.07-4.27-5.44-2.78-8.16,2.43-4.43,10.87-.58,11.52-3.68,1.9-9.05,12.42-9.33,13.86-8.37,1.21.81,2.65,2.46,4.28,4.61,3.32-2.86,6.4-4.49,11-4.01,5.93.62,4.86-12.52,19.56-15.62,2.62-1.92,6.75-6.79,10.22-8.19,1.37-5.77.74-12.92,6.46-16.89,3.66,5.44-.8,11.96,4.29,14.51ZM90.78,443.28c-4.21-3.65-4.25-7.37-3.59-12.64-4.02,4.13-2.89,8.99-4.81,14.09-4.94,1.19-7.38,6.91-11.3,8.64-4.97,2.21-10.25,3.23-12.42,9.44-.75,2.16-4.2,6.55-6.53,6.51-3.97-.07-6.39-.91-9.54,2.53-.73.79-3.85,1.13-4.41.29l-2.32-3.47c-3.53-.19-7.76.73-10.91,1.79-.71,1.88-.86,5.12-2.8,6.41-4.39,2.92-8.57-.59-9.88,2.59-1.11,2.7,3.62,5.13,2.78,8.13-1.11,3.96-8.23,4.48-8.69,7.94-1.49,11.38-7.59,18.21-2.17,20.33,1.47.57,3.14-.08,4.7-1.53,5.33-4.92,11.07,9.99,14.17,5.99l5.62-7.26c1.46,2.31,6.14,4.73,7.78,2.57,2.11-2.78,1.36-8.39,4.5-10.39,5.78-3.69,12.16-2.52,18.65-1.14l5.51-7.75c-1.78-8.78,1.48-19.38,7.21-25.29l3.94-16.16c2.1-2.74,5.66-3.8,7.42-7.77,1.46-1.11,5-1.21,7.09-3.85ZM98.93,420.01l-5.16,5.11c-1.51-.69-1.27-2.61-.77-2.99.5-.39,1.92-.49,3.13-2.21-2.59-1.67-5.53-5.69-3.16-8.38,1.13-1.28,8.97,2.15,9.27,5.01.19,1.75-.97,2.83-3.31,3.45ZM100.55,418.26c-1.46-4.05-4.09-4.73-6.98-5.19,1.19,3.38,2.76,6.23,6.98,5.19ZM310.61,731.51c-7.09,3.94-8.25-5.83-17.81-10.42l1.34-8.98c-6.02-9.72,2.09-12.59,1.44-21.32-.39-5.22,3-7.3,5.63-10.95,1.66-2.3.94-7.43,5-8.9,3.23-1.17,6.4,1.02,8.35,2.74,3.37,2.96,3.13,10.8,1.51,14.27-.53,1.13-3.52,1.04-4.9,2.31-6.32,5.84,4.16,15.89,4.62,18.7.47,2.93-1.25,4.39-2.43,7.22l.47,8.81c.15,2.82-1.28,5.43-3.23,6.51ZM310.42,728.81c3.82-4.02-1.69-9.38,1.94-13.87,1.41-1.74,2.1-3.76,1.77-5.75-.49-2.92-8.62-6.07-5.38-19.48,4.13-2.24,7.33-4.15,6.85-9.72-.34-4.02-3.52-7.88-9.2-8.4l-2.41,7.09c-4.96,5.05-5.63,9.73-6.76,16.49-.63,3.76-4.96,8.2-2.31,12.65,2.28,3.84,2.97,7.89-1.49,12.35,5.13,1.9,7.82,3.65,9.93,8.22.93,2,5.65,1.91,7.06.41ZM310.17,752.19c-.91-2.64,3.64-7.9,7.29-7.61,6,.48,8.59,11.53,7.06,13.52-2.68,3.48-13.53-3.52-14.35-5.91ZM323.4,757.15c-.63-2.72-.7-5.81-2.18-8.15-1.48-2.34-6.28-2.57-8.34-1.03-3.75,2.83,2.86,8.67,10.52,9.18ZM347.85,776.61c.74,2.81,4.5,7.85-.37,9.99-4.02,1.76-10.19.04-13.75-2.69-3.41-2.61-4.67-7.68-6.08-12.48l-2.99-2.74c-.9-.82-.55-3.46.65-4.35,2.86-2.12,6.55-.33,9.32-.06,7.58.75,11.13,4.4,13.22,12.32ZM345.83,777.8l-3.53-9.48c-5.5-.53-10.06-2.26-15.41-4.13-.24,6.87,4.2,11.21,6.61,16.44,1.59,3.44,11.43,6.79,13.86,3.83,1.54-1.87-.44-3.76-1.52-6.66ZM577.37,854.24l11.44,15.83c-6.6,5.15-14.28,5.1-20.87,1.22-6.09-3.59-9.13,3.53-14.8.59-2.16-1.12-6.7-3.85-4.61-7.36l9.63-6.52c1.84-1.24,2.93-3.37,4.37-3.99,2.34-1.01,4.84,2.6,6.59,2.19l8.25-1.96ZM585.96,869.59l-9.1-13.55-8.56,2.23c-7.69-5.03-8.58.99-18.38,6.91-.73,2.39,3.83,6.75,6.12,5.66,11.84-5.67,17.59,4.7,29.93-1.25ZM980.04,39.86l.74-1.77-2.62-.7c-1.17-.31-2.56-3.52-.91-4.07,6.07-2.06,12.95-1.83,19.18-1.02,1.65.48,3.22,5.84,1.79,6.69-2.18,1.27-5.46-.55-7.2-.59l-.49,2.24c3.19-.24,5.78.38,9.6,1.53,1.22-2.91.89-6.71-1.04-9.05-1.98-2.42-5.64-4.22-9.39-3.69l-10.1,1.42c-3.06.43-5.02,1.64-5.04,4.11-.03,3.19,2.39,4.12,5.48,4.9ZM1002.49,44.71c1.73-2.4,7.95-.67,8.08,2.76.14,3.74-3.28,3.7-5.17,3.04-1.92-.67-4.72-3.29-2.91-5.8ZM1008.2,48.49c-.07-3.09-3.55-3.26-4.42-2.64-.56,2.95,4.15,4.16,4.42,2.64ZM373.16,750.89c-.69-4.78,2.64-9.85,7.41-9.7,3.09,5.44,11.82,4.53,11.78,13.75-.02,4.58-2.29,6.39-4.77,7.11-2.99.87-4.55-1.79-7.52-2.91l-4.94-1.86c-2-.76-1.59-3.81-1.96-6.39ZM376.65,755.63l4.35,1.18c2,1.94,3.49,3.23,5.58,3.03,4.81-.46,3.6-10.16,1.98-10.77l-4.99-1.88c-1.98-2.34-3.15-4.46-5.32-3.34-4.11,2.12-2.47,11.56-1.6,11.79ZM331.23,225.79c-1.84-3.4,11.48-14.88,14.81-10.34,2.94,4,.51,7.7-3.52,9.84-3.28,1.74-9.03,4.67-11.28.51ZM334.28,226.17c6.73-.65,12.24-3.94,11.36-7.85-.33-1.47-1.76-2.05-2.96-2.04-2.76.03-12.82,6.17-8.4,9.89ZM126.69,246.41c.47.32,1.54.08,1.99-.39l2.01-2.11c1.41-1.49.21-3.56-1.33-3.71-1.05-.11-2.4.84-3.28,2.46-.88,1.64-.57,2.95.61,3.76ZM126.44,523.29c1.61,3.17-10.17,2.93-10.89,1.78-.62-.99-.42-3.21,1.8-4.15,2.13-.9,7.36-1.04,9.1,2.37ZM123.76,523.28c-1.11-1.17-4.3-1.16-6.39-.2,0,.02.29.33.66.65,1.83.11,3.83.4,5.72-.46ZM314.74,280.83c-.23-1.46.78-2.41,1.47-3.89,5.07-10.86,2.69-20.28,8.1-26.88.89-1.09,12.86-4.77,14.01-4.42,3.14.96,5.44,12.14,16.69,16.17,3.27.63,5.39,1.35,8.58,3.43,2.9,1.89,7.77,1.54,9.59,4.88,1.54,2.83,4.28,8.61,1.61,11.31-4.66,4.7-17.52-1.49-20.73,3.32-1.59,2.37-3.67,5.07-5.28,7.1,2.77,9.19-.98,9.55-3.03,12.35-3.86,5.29-4.59,15.48-8.64,22.27-1.64,2.76-7.63,2.18-10.48.33-5.58-3.64-5.6-10.41-4.92-18.45-3.83-4.47-4.91-10.1-2.35-15.77,3.16-6.99-4.06-8.18-4.62-11.75ZM316.11,281.35c12.67,6.14-1.01,17.06,7.67,26.88.57,4.36-.85,10.05,1.02,14.5,1.13,2.69,7.02,4.54,9.23,3.14,4.07-2.59,3.8-7.32,4.89-11.16,3.67-12.85,9.17-14.45,9.2-17.41.01-1.37-1.62-3.52-1.72-5.15l5.74-8.08c5.57-7.84,21.14.89,21.8-4.94.37-3.24-1.89-6.1-2.97-9.17l-24.11-9.74c-1.22-2.58-3.21-5.49-6.04-7.57-1.15-.84-1.88-4.72-3.22-4.8-.42-.03-10.92,2.4-12.29,3.89-3.98,4.35-2.04,19.32-9.21,29.6ZM348.58,397.04c-1.6-1.94-3.07-13.85-2.67-15.24.41-1.45,2.48-4.57,5.06-3.31,5.95,2.9,8.48,14.31,4.71,20.13-1.87,2.88-5.89-.12-7.09-1.58ZM355.6,396.09l-2.59-15.22c-1.4-.24-2.9-.34-4.85.08.33,5.17.79,10.24,2.32,15.2.54,1.75,5.35,1.26,5.13-.06ZM353.43,406.46c.1,1.87-.77,3.83-2.61,5.1-1.78,1.23-3.62-.61-4.43-2.02-1.28-2.22-1.23-4.59,1.85-5.83,3.08-1.25,5.07.53,5.19,2.75ZM349.66,404.51c-2.52.19-1.73,5.3-.29,4.95,2.8-.68,1.68-5.06.29-4.95ZM758.57,880.45c3.86,3.98,4.31,12.73,3.09,17.73-1.05,4.29-6.79,3.08-9.15,4.21-5.99,2.87-10.53,3.99-16.86,1.77l-11.71-4.11c-7.27-2.55-10.09,1.37-15.27,4-3.85,1.95-8.4.32-12.22,4.62l-11.27,4.56c-2,.81-3.2,3.09-4.96,3.06-4.37-.08-7.86-9.19-14.07-4.82-6.39,4.51-17.13,3.26-19.05-4.74-.27-2.35,4.85-7.67,1.98-10.01l-8.3-6.8c-2.71-2.22-13.79,1.15-15.39-6.7-.6-2.91,1.08-4.47,3-6.8,1.89-2.3,1.64-8.45,4.46-10.17,17.29-10.49,29.04,4.19,36.43,3.37,3.36-.37,3.59-4.14,5.38-5.74,6.74-5.99,22.35,12.76,35.75-4.44,2.47-3.17,6.53-3.74,10.37-4.54,5.95-1.23,6.01-10,12.37-10.8,1.66-.21,4.76,1.42,5.46,3.62l3.86,12.14c3.06,3.31,6.04,5.15,6.52,10.08.53,5.38,6.27,7.1,9.58,10.51ZM753.08,878.18c-4.77-3.14-6.88-8.1-6.94-14.12-5.68-2.55-8.3-7.04-8.42-12.96-.76-2.37-1.66-4.7-3.52-4.96-6.53-.89-4.92,9.87-15.72,11.21-3.67.45-6.43,2.7-8.73,5.25-12.77,14.16-28.98-.72-33,2.14-2.63,1.88-3.76,5.57-5.93,6.12-10.7,2.68-15.65-9.7-32.77-4.62-1.27.38-3.88-.3-4.74.86-1.95,2.67.41,6.25-5.88,12.47-1.44,1.42-.38,4.18.56,5.09.94.91,3.36,2.7,4.96,2.51,6.5-.79,9.64,1.99,14.25,5.34,3.03,2.2,5.8,3.75,3.98,8.62-.85,2.26-1.75,4.94-1.9,8.31,12.03,6.86,19.24-6.91,28.44,3.77,3.56,4.13,6.12-1.69,8.33-2.64l15.36-6.56c5.5-2.35,8.66-2.22,13.86-6.15,5.93-4.48,19.14,9.84,37.31,2.58,1.78-.71,5.45.38,6.75-1.63,2.75-4.24.84-16.84-6.25-20.64ZM668.29,845.43c2.62.82,7.7,5.24,7.41,8.3-.55,5.82-8.45,7.51-12.85,5.76-8.78-3.5-16.26.27-17.23-6.3-.58-3.93,2.41-4.07,5.59-5.29,5.23-2.01,11.12-4.33,17.08-2.47ZM651.34,849.68c-1.65.85-3.86.27-3.22,3.6.24,1.23.85,2.45,3.08,2.67l8.93.91c3.85.39,12.36,1.87,14.13-1.4,1.74-9.14-13.94-10.39-22.91-5.78ZM876.11,893l-10.4,1.54c-4.8.71-10.1,6.04-15.28,4.1l-13.26-4.94c-9.82-3.66-13.78,10.45-20.18,10.35-9.05-.14-9-9.55-16.86-5.14-6,3.37-12.59,1.46-15.37-4.76,2.02-5.09,1.72-9.87,1.3-15.37,1.51-3.22,2.29-7.99,4.58-10.33,4.61-4.73,13.62,6.86,21.93,5.3,11.32-2.13,16.12-10.19,23.19-6.54,5.87,3.03,11.66,6.12,18.31,7.95l8.41.15c5.31,3.03,11.08,2.25,16.01,4.67,3.75,1.85,1.36,12.46-2.35,13.01ZM875.79,880.36c-6.5,1.64-9.73-2.65-13.69-3.11-4.74-.55-8.75,1.54-12.92-2.52l-9.42-2.87c-2.45-2.6-7.53-5.34-10.88-3.09-7.34,4.92-15.77,9.34-24.27,5.42l-12.04-5.55c-1.87,3.53-5.6,8.78-4.63,12.62,1.3,5.13-.14,9.07.03,13.87.18,4.85,8.57,4.22,11.59,2.37,4.16-2.55,7.78-1.93,10.53,1.58,2.28,2.92,7.6,4.8,10.71,1.74,2.73-2.68,4.64-7.25,9.4-8.48,11.97-3.12,19.24,7.84,28.75,2.71,8.39-4.52,15.67.03,18.95-7,.93-1.99.02-8.21-2.12-7.67ZM378.74,318.47l10.3,6.07c3.71,2.19,4.74,3.54,6.93,6.31,2.32,2.94,6.52,4.42,7.32,7.16,1.43,4.86-.13,8.34-1.25,12.36-2.89,10.41-6.92,21.75-15.86,18.31-1.37-.53-1.85-4.12-3.62-5.07-1.93-1.04-4.5-.38-5.44-1.05-3.14-2.23.37-8.34-.59-10.12-1.28-2.39-6.23-.37-8.79-1.79-2.55-1.41-.49-6.38-5.99-9.18-4.16-2.12-12.71,4.13-13.38-.89-.64-4.76,4.95-7.38,6.89-10.38,2.14-3.31,3.8-5.25,7.22-7.23.88-1.01.55-4.3,1.46-5.17,4.23-3.99,8.14,3.17,14.8.67ZM373.55,321.39c-2.22-.41-5.28-5.08-9-2.96.38,1.27.38,6.06-1.18,6.68-3.44,1.38-10.99,9.91-13.78,15.06,3.24,2.55,6.51-1.83,8.63-1.81,6.04.06,10,6.16,10.97,11.4,3.39-.5,9.37-.64,9.02,2.33l-.99,8.6c2.17.31,5.73-.15,7.19,1.74,1.41,1.83,1.7,3.74,2.58,4.33.98.66,3.87.73,4.9.08,6.24-3.93,5.61-10.59,7.66-16.55,1.82-5.29,4.95-11.92-1.67-15.64-2.22-1.24-5.36-1.72-5.02-6.18l-7.85-4.16c-3.54-4.11-6.81-3.14-11.47-2.92ZM382.11,311.53c-3.11-1.48-.53-7.23,2.03-9,1.77-1.22,2.89-2.5,4.63-1.99,1.32.39,4.2,2.55,2.95,4.44-1.63,2.44-6.32,6.79-9.61,6.55ZM383.91,310.41l5.48-4.06c1.01-.75.48-3.19-.33-3.38-.55-.13-2.23-.42-3.36-.02-2.53.9-3.12,4.62-1.78,7.47ZM944.86,866.85c-1.42.78-5.73.11-6.29,2.57-1.53,6.77-5.78,10.6-13.17,9.7-16.83-2.07-17.1,7.16-26.19,5.85-3.39-.49-5.57-2.7-6.09-5.43-1.02-5.32,10.64-12.31,18.81-16.27,5.07-6.77,8.54-10.04,17.69-9.73,8.66.29,14.43-14.5,21.97-10.28,7.03,3.94,2.55,18.52-6.73,23.6ZM949.89,844.61c-5.44-1.98-10.48,12.75-30.12,11.87l-6.91,8.8c-6.36,2.7-15.29,6.36-17.63,13.52-1,3.08,4,4.84,5.86,4.5,2.04-.38,4.47-.67,6.41-2.35,7.89-6.85,24.99-.1,27.26-7.13,2.08-6.45,4.41-7.43,10.66-9.58,4.81-1.65,12.16-16.83,4.47-19.63ZM389.58,124.75c4.86,1.98,4.79,5.86,6.79,9.87,2.18,4.38,6.09,6.77,4.85,12.94-.86,4.28,2.45,8.78,5.94,10.52,3.67,1.83,9.75,1.84,12.54-1.91,3.07-4.12,6.41-6.42,11.11-6.41l.24-2.28c-5.21.87-9.14,2.82-12.63,7.47-2.34,3.13-7.94,3-10.64,1.43-8.1-4.71-3.52-13.9-5.65-16.53-2.48-3.04-4.79-5.71-5.41-9.81-.84-5.58-7.29-5.63-8.66-9.8-.84-2.56.91-4.57,1.61-6.59,4.98-14.3,17.18-3.14,29.37-11.12,8.09-5.29,2.68-17.96,10.23-18.05,6.11-.07,9.73,10.6,23.59,6.52,3.46-1.02,7.2-2.24,7.53-6.4.37-4.74-5.24-7.26-7.44-9.67.73-4.52,7.05-5.93,10.6-5.72l11.87.72c8.2-15.53,13.96,5.86,27.88,1.53,6.41-2,7.87-9.01,12.23-13.01,7.62-7,20.33-6.7,29.05-2.18,7.08,3.68,12.4,3.26,19.77,2.45,8.81-.96,18.21-1.26,26.14-6.04,1.45-.87,5.07.1,6.11-2.26,1.79-4.04,5.28-7.27,7.77-10.77,4.69-6.6,10.43-9.69,18.96-9.25,2.7.14,7.31-2.74,10.33-.17l8.7,7.43c9.68,8.28,22.47,6.14,25.4,1.83.92-1.36,3.05-5.88.69-6.41l-16.74-3.73c.12-6.77,6.24-10.93,13.02-9.64,6.37-1.85,11.83-5.75,16.12-11.24,6.28.67,11.35-1.06,16.19-4.74l14.72.86c7.8-3.32,15.14-4.05,23.31-.36,5.27,3.91,11.68,4.73,18.6,3.1,4.19,4.4,9.16,6.21,15.18,5.31,6.32,1.95,12.99,4.54,17.69,8.53,5.3,4.5,3.33,9.31,1.59,14.28-.55,4.57,6.85,6.78,8.81,9.24,2.04,2.58,1.89,6.03,3.58,7.44,2.3,1.92,19.98,4.6,24.25,3.18,6.23-2.07,10.27-.2,15.69,2.8,8.39,4.64,19.86,7.42,29.44,5.85,5.71-.93,8.34-1.89,13.72,1.13,6.39,3.59,16.02.1,20.96-5.2,3.67-3.94,5.59-3.99,10.68-5.37,4.83-1.31,11.53-3.95,15.62-7.25,6.17-4.99,13.79-9.32,21.72-4.52,2.13,1.29,3.93,4.95,7.75,3.38,6.51-2.66,11.42,9.11,14.6,13.2,4.8,6.18,18.28-8.84,19.7-2.74.81,3.49,4.39,4.89,5.51,6.82,2.7,4.62,4.77,4.8,8.86,6.75,9.58,4.57,20.09,6.6,29.84.86,1.76-4.55,5.38-8.22,10.1-9.74,6.18-7.23,14.46-8.63,23.39-8.29,7.64.29,12.89,1.47,18.1,7.53,2.67,3.11,9.83,7.54,14.02,6.12,10.49-3.54,23.44-6.42,29.21-1.52,6.89,5.85,2.24,16.26,16.84,18.76,5.3.91,8.23,2.48,12.82,4.91,2.73,1.44,9.64,1.44,12.84.26,6.48-2.39,15.12-.91,17.1,6.64.79,3.01.81,5.81,5.41,5.95l1.46,16c.23,2.48,3.28,4.68,1.49,7.48-1.05,1.64-3.59,1.72-6.15,2.72-5.98,2.34-6.1,12.86-1.25,16.4,2.02,1.48,3.15,2.21,3.56,3.88.48,1.96-.36,3.22-1.68,5.02-2.92,4,2.13,10.05-1.02,15.93-2.67,4.99-20.38,3.13-20.28,18.34.51.21,1.09.21,1.34.03,1.48-5.7,3.88-10.49,11-12.28,5.14-1.29,11.62-5.37,11.32-11.49-.22-4.43-1.56-8.42.49-12.99,2.43-5.4-5.58-5.92-6.32-14.11-.78-8.73,8.46-6.52,10.73-10.77,1.75-3.28-.16-5.96-1.45-9.07-1.67-4.01-.03-8.75-.21-13.13-4.75-2.64-5.79-6.33-7.69-10.48-3.3-7.22-12.99-8.25-19.74-6.11-6.56,2.08-10.22.44-15.19-2.38l-14.35-4.64c-3.54-1.15-4.27-5.45-5.09-8.84-2.93-12.18-20.23-13.22-34.17-7.29-5.37,2.29-12.5-2.33-15.71-6.41-3.15-4.01-6.91-4.55-10.77-5.68-12.5-3.65-22.03.42-31.76,7.69-4.13,3.09-7.21,6.94-11,10.24-6.96,6.07-18.79.86-25.99-1.23-4.59-1.33-5.49-2.03-8.24-5.45l-6.64-8.24c-4.58-5.69-9.42,4.47-19.39,4.59-.77-5.58-3.68-7.65-6.67-11.04-1.99-2.26-3.49-4.83-7.35-3.85-4.5,1.14-6.01-1.3-9.28-3.71-3.58-2.64-12.57-2.21-16.18.49-8.94,6.68-18.05,11.67-28.57,13.14-5.67,6.23-14.29,13.1-22.95,9.18-5.74-2.6-9.72-3.1-16.19-1.99-17.8,3.05-34.53-9.95-38.44-9.31-10.41,1.71-27.25-.22-28.44-1.35-1.41-1.34-1.42-4.65-3.12-6.95-2.26-3.04-7.94-3.77-9.22-8.64,3.42-4.94,3.45-11.01-2.03-15.28-4.46-3.48-12.55-9.54-18.51-8.89-6.86.75-9.29-2.74-14.21-4.02-6.78-1.76-13.38-1.02-20.27-5.22-7.19-4.39-17.13-.24-24.8.88-4.39.64-10.02-3.48-14.19-.03-4.28,3.55-10.72,3.48-15.42,4.7-5.64,4.58-10,10.1-18.7,10.27-5.65.11-13.44,5.58-10.82,11.98,4.27,4.65,14.69,1.81,16.67,5.29,2.01,3.55-7.03,9.24-17.71,4.98-3.87-1.54-9.22-5.47-11.85-8.53-4.3-5.02-7.01-4.69-12.73-4.23-9.43.76-17.08,4.38-23.06,12.53l-7.36,10.02c-.79,1.08-4.92.57-6.14,1.31-7.36,4.44-16.11,4.15-24.02,5.07-7.43.86-12.86,1.24-19.76-2.39-10.33-5.44-23.66-4.22-31.58,4.68-2.81,3.15-3.74,7.8-7.92,9.96-4.11,2.12-11.22,1.76-14.73-1.55-2.57-2.42-4.24-4.71-7.26-4.62-2.99.09-5.71,1.29-7.55,4.13-3.16,4.9-15.24-4.24-23.99,6.04-4.21,4.94,8.25,6.11,6.32,13.64-7.22,6.14-17.65,4.46-23.85-1.78-2.12-2.14-5.65-1.84-7.4-1.04-6.31,2.89-2.05,13.4-8.95,18.04-8.83,5.94-22.54-4.69-30.35,12.49-1.66,3.66-2.59,9.01,2.18,10.96ZM508.25,163.31l-10.94-1.54c-11.2-5.75-4.07-18.34-17.49-23.74-4.9-1.97-9.13.73-13.64,2.16-4.62,1.46-10.02-.66-14.14,3.18-1.69,1.58-3.63,5.26-5.95,5.11l.33,1.53c2.1-.54,4.37-4.87,7.14-5.46l17.44-3.68c3.82-.81,7.32-2.13,10.88,0,7.93,4.74,4.58,20.33,16.38,23.24,2.58.63,7.95-1.87,9.9,1.68,2.52,4.59-1.46,10.16-4.12,13.85-1.82,4.57-1.73,8.84,2.33,10.38-2.64-4.72-1.5-9.67,2.13-14.21,2.62-3.28,3.76-10.09-.25-12.48ZM1335.96,473.59c-8.09-3.98-8.57-15.42-3.27-21.99,3.69-4.57,5.28-9.68,4.3-15.65-.68-4.11,1.22-6.91,2-10.05,1.54-6.18-12.43-7.96-5.16-24.37,1.99-4.48-1.32-7.34-3.13-10.44l-7.81-13.38c-3.74-6.41-3.42-13.73,1.33-19.17.43-7.18-6.08-11-13.18-10.57-1.75-5.18-1.55-12.21-5.74-15.76-5.66-4.79-27.45-2.49-32.03-16.82-.98-3.06-.9-7.85-5.45-8.52-3.33-.48-6.86-.33-9.92-2.62-2.07-1.56-5.74-.54-6,2.6-.29,3.46-1.25,8.57.58,11.83,6.5,11.59,15.2,10.27,11.75,22.09-.7,2.4,1.84,7.12-1.1,10.12-.6.61-.39,3.27.19,3.64l3.7,2.42c-.14,5.09-2.4,10.86.85,15.37,2.9,4.02,8.25,7.53,10.04,12.41,1.78,4.86-3.27,8.36-5.27,11.53-2.4,3.8-2.81,7.25-7.81,8.97-2.27.78-3.4,4.61-4.53,6.32-3.07,4.66-7.53,2.83-11.57,1.14-3.9-1.63-8.76-1.05-11.94-4.82.17-6.69-.45-14.27-7.01-17.82-2.01-1.09-7.02-.66-8.43-2.39l-8.63-10.59c-2.37-2.91-5.1-3.14-9.15-2.78-6.84.61-8.04,9.67-13.08,11.27-3.31,1.05-6.76-.92-9.97-1.28l-11.21-1.29c-2.27-.26-6.92,3.91-8.73-.23-3.01-6.89-7.17-13.31-14.31-17.08-4.52-2.39-6.99-9.52-3.28-13.33,3.24-3.33,6-6.07,6.2-9.99.44-8.65-5.73-11.44-10.09-18.2l11.05-17.55c1.65-2.63,4.24-3.43,3.84-6.9-.3-2.56-1.49-4.66-4.4-6.3-4.46-3.07-8.58-6.46-11.07-11.56-5.51-.84-8.12-4.58-7.3-10.66.12-2.31,1.79-8.28-.62-9.91-5.03-3.4-6.7-7.65-9.39-12.37-2.99-5.23-4.08-8.12-1.42-14.11,1.87-4.22,3.79-7.88,7.02-12,4.4-5.61.93-21.61,18.74-29.02,2.52-1.05,5.62-4.57,9.45-3.6l10.49,2.66v-1.52c-3.69-1.27-9.05-4.37-13.43-3.23l-11.22,6.3c-15.5,8.71-9.83,23.2-20.6,34.61l-3.3,7.58c-.75.65-1,2.82-1.25,3.8-.38,3.17,3.02,6.7,4.34,9.77,2.26,5.28,4.26,9.46,9.88,11.99l-.73,10.48c.13,5.43,2.38,9.93,8.09,10.55,2.62,4.99,6.42,8.49,11.07,11.52,2.04,1.3,3.64,3.12,3.79,5.03.18,2.42-2.03,3.66-3.3,5.67l-9.18,14.5c-1.21,1.91-2.31,3.84-1.94,5.99.46,2.7,9.41,7.1,9.73,15.21.19,4.8-3.25,7.91-6.91,11.28-4.05,3.72-1.02,10.56,3.36,13.36,17.91,11.44,11.25,24.05,24.63,19.59,6.84-2.28,16.33,5.1,24.32,1.3l7.16-8.86c6.06-4.26,14.32-.03,16.88,6.4,4.43,11.15,13.22,2.94,16.38,12.38l1.41,4.21c.78,2.33.54,4.94-.15,7.37,5.58,5.54,18.32,9.81,25.04,7.09,2.06-.84,2.78-5.39,4.72-6.82,4.75-3.5,7.4-5.44,9.98-10.8,1.66-3.46,7.06-7.44,5.49-12.61-2.72-8.91-15.91-13.87-11.08-22.37,2.57-4.51-1.22-5.9-2.24-8.84-1.52-4.8.08-11.45.9-16.29,1.73-10.32-19.03-13.79-13.42-32.48l7.91,2.86c2.49.9,4.82.26,6.75,1.36,1.69.96,1.98,17.86,25.7,21.41,3.76.56,7.05,3.28,11.24,2.28l1.55,8.79c2.01,11.37,12.79,8.31,14.9,12.34,2.2,4.18-8.96,9.55-.25,24.74l7.72,13.47c2.79,4.86,4.49,7.79,1.01,13.4-1.79,2.89-.8,9.88,1.82,12.25,2.54,2.29,4.11,3.44,4.87,6.61.47,1.96-2.35,3.81-2.34,6.34l.02,13.59-7.01,12.16c-2.02,6.47.92,15.97,7.26,18.53,2.29.93,4.16.7,5.41,2.15.9,1.04,1.08,5.13-.73,5.14-3.02.02-5.9-1.95-8.02.06-1.43,1.36-3.09,4.63-2.45,7.02,1.94,7.31-3.24,17.38-9.57,20.5-2.57,1.27.1,5.78-.43,7.55-3.12,10.44,1.42,19.48-2.47,21.39l-5.64,2.76-5.99,10.11c-4.45,3.8-7.38,7.63-7.79,13.66-.27,3.93-4.24,4.95-6.4,6.14-2.74,1.51-8.41-.14-8.87-2.57,1.07-6.08-.57-8.48-3.47-13.3-1.87-3.11-1.35-7.41-6.73-8.41-6.21-1.16,3.75-10.41-7.45-18.08-4.05-2.77-7.58-1.14-13.37,1.53-.78-6.88-1.55-14.81,2.2-20.56,1.93-2.97,2.31-4.31,1.62-8.63l-1.9-11.92c-7.46-13.95-26.68-.61-29.57-14.18l-11.1-.23-3.22-17c-.96-5.07-4.18-11.9-8.94-14.22-3.78-1.84-6.09-3.07-6.22-8.05l-8.24-1.91-13.4-8.03c-5.33-3.19-13.67-4.49-18.9.47l-9.04,8.58c-3.27,3.1-4.76,6.33-10.75,4.99-4.38-.98-9.38.83-11.48,5.52-5.91,13.25,3.49,20.78-.8,29.21-.31.61-.88,1.44-1.48,1.82.78,6.82-2.23,11.44-7.74,15.38-2.62,1.87-1.39,9.13,1.08,10.91,9.46,6.82,3.65,16.86,8.5,25.38l3.28,5.76c1.78,7.56,8.73,11.56,16.42,10.56,4.21-.86,8.04.03,10.54,3.6,5.3-1.61,8.95.5,11.24,5.27,3.56,2.43,11.05,4.86,11.51,9.5l1.4,14.19c.46,4.68.97,12.5-3.59,15.33-3.19,1.98-9.48.63-11.51,4.63-5.17,10.17-13.36,9.35-13.8,17.26-.48,8.5-13.17,23.39-.51,50,1.84,3.87,5.32,8.76,2.03,13.47-2.13,3.04-6.98,5.34-10.17,7.23-8.85,5.22-2.76,14.49-9.28,14.77-.21.21-.13.47-.13.66.34,7.26-14.63,9.96-15.33,21.23-.33,5.32-4.36,8.04-7.84,11.67,2.18,4.17,5.55,12.75-.36,15.47-3.71,1.71-6.7,4.26-9.81,6.26-4.38,2.82-5.05,3.94-6.56,9.4-4.8,4.69-14.26-1.23-18.54,2.69-3.55,3.25-1.14,9.68-4.19,11.01-4.15,1.82-7.82-3.93-10.88-3.63-4.78.45-10,8.12-7.9,15.85-20.68,3.19-16.92,20.67-27.27,19.15-7.7-.01-12.99,4.05-14.66,11.32-9.51,13.79-35.13,16.9-38.32,12.76-3.67-4.77,2.79-13.01,12.08-16.35l4.18-9.55c5.22-11.92-18.65-27.51-29.73-21.97-2.65,1.33-2.45,6.6-3.5,8.63-.29.57-2.46,4.84-2.18,4.19-2.28-.61-2.98,2.56-3.53,4.31-4.54.74-8.47,3.93-12.01,6.55-5.36,3.96-11.42,6.56-14.19,13.58l-17.11,3.31c-4.85.94-12.88,4.09-16.04-1.25-3.13-5.29-6.71-5.82-11.21-9.47l-12.28-9.95c-3.63-2.94-2.4-10.09-3.34-14.01l-9.75-5.95c-4.75,2.25-9.52,1.99-13.79-1.28l-11.44,1.8c-2.52-3.77-2.2-8.38-2.38-12.66-.14-3.4-4.99-4.36-6-6.31-3.77-7.27-8.99-12.33-17.35-12.33-2.99,0-3.92,4.26-5.79,5.39-7.4,4.47-17.08.44-22.14-5.59-5.25-6.26-10.9-7.09-19.05-6.54-3.96.26-10.2-.93-12.03,4.26-.5,1.4.59,4.42-.11,5.68-2.38,4.32-10.11-2.7-20.38,1.95l-9.24-3.86c-4.54-12.91,1.59-26.56-7.01-39.12-1.77-2.58-5.13-4.02-7.68-3.58-2.51.44-4.64,2.65-6,4.82l7.29-3.15c6.25.99,8.12,7.18,8.34,12.42l.9,21.4c.28,6.6,4.45,11.41,11.35,11.68l13.13.5c3.74.14,6.78,1.65,9.3-.86,2.39-2.39,2.86-5.21,2.16-9.87,6.28,1.5,11.88-.73,17.53-.81,5.86-.08,8.82,5.66,12.67,8.82,4.04,3.31,10.77,6.33,16.06,5.83l10.72-6.82c7.53-1.68,12.01,4.47,15.92,9.94,1.89,2.65,6.91,3.64,5.7,8.69-.94,3.94-.55,10.54,4.57,12.24l10.89-1.01c2.75-.26,5.47,3.38,8.69,2.1,3.39-1.35,6.35-.99,9.46.47,7.04,3.31,1.89,17.19,11.66,20.28,3.56,1.12,5.41,5.5,7.74,6.95,5.29,2.34,8.79,3.87,11.59,9.26,2.24,4.31,9.08,5.17,13.41,3.18,6.21-2.87,12.29-2.94,18.69-4.18,3.99-.78,5.89-5.18,8.06-8.01l9.22-5.96c3.73-2.42,7.21-6.4,11.81-6.05l4.21-2.24c.42.28,1.45-1,2.51-2.38,3.67-5.03-.17-9.32,2.51-12.8,1.13-1.47,9.72-2.85,18.99,3.8,3.37,2.42,6.55,3.67,7.61,7.32,2.08,7.2-2.67,16.04-3.43,16.48-9.17,5.33-16.41,13.2-11.8,19.71,4.94,6.98,36.08-.82,42.15-15.51,4.69-11.34,11.83-6.18,19.74-10.38,6.74-16.9,18.06-15.46,21.26-18.76,1.72-1.78-.56-7.75,2.89-11.92,4.78-5.79,8.26,2.71,14.22,1.48,5.51-1.14,3.38-9.08,5.79-11.55,3.14-3.23,16.88,2.98,19.01-3.57,1.61-4.93,2.43-5.75,6.24-8.5,2.92-2.1,4.41-4.12,8.73-5.39,6.64-1.95,6.83-12.66,2.1-17.48,2.28-3.14,4.64-3.73,7.01-5.67-1.75-20.03,21.19-17.75,20.32-38.05,7.18-6.75,14.69-6.58,17.06-15.4,1.25-4.63-1.49-6.58-3.54-10.42-6.2-11.67-7.92-21.88-4.26-34.43l4.83-16.56c1.16-3.96,6.19-5.98,8.58-8.68l7.14-8.05c3.69-1.69,7.86-1.11,10.29-4.33,2.18-2.88,3.42-7.51,2.94-12.01l-1.94-17.85c-.59-5.44-9.57-7.54-11.99-10.82-3.87-5.25-6.09-5.22-11.98-6.35-3.3-.63-6.69-3.8-11.06-2.66-8.23,2.14-12.55-3.58-15.39-9.76-2.41-5.23-4.54-9.14-4.72-15.57-.41-14.73-7.95-12.95-8.49-20.35-.28-3.82,2.59-5.12,5.45-7.37,3.75-2.95,2.73-9.33,4.39-12.89,5.43-11.62-1.84-13.71.14-27.68.77-5.46,5.97-7.99,10.82-6.97,6.3,1.32,8.46-1.93,12.07-5.43l8.92-8.64c4.65-4.5,12.72-1.74,17.63.74l14.85,7.46c3.61,1.81,6.28,2.22,6.59,6.95,8.32,2.06,12.97,9.03,13.43,17.88l2.63,12.26c.62,2.91,4.35,4.68,6.62,4.2,5.06-1.06,5.93,1.67,8.22,4.64,5.21,6.77,27.21-2.66,27.38,11.58.05,4.28-.58,7.82,2.71,11.61-6.21,6.87-7.93,16.7-6.04,25.31,5.79,2.8,9.54-2.12,15.82,1.35,7.42,4.1,1.37,9.48,3.39,14.11.68,1.56,3.1,3.41,5.22,3.91,3.69.87,2.26,5.68,3.52,7,3.46,3.63,3.95,7.27,3.72,12.11-.24,4.89,7.69,5.86,11.37,4.43,10.41-4.02,6.02-12.97,12.19-17.64,4.08-3.09,6.28-7.87,7.47-12.82,2.31-.96,6.03-.92,7.23-3.13,3.65-6.71-1.71-12.58,2.95-22.1.13-1.57-2.55-5.68.03-6.69,5.24-2.04,11.65-13.71,9.66-20.59-.61-2.09.26-7.08,3.11-6.73,2.93.36,4.9,1.21,6.59-.67,1.65-1.85,2.51-3.91,2.04-5.72-.92-3.59-4.63-2.55-7.02-3.73ZM1332.44,547.88c1.09,1.81,1.14,5.38-.4,7.18-5.81,6.81-4.69,13.02-11.9,14.12-2.82.43-7.12-1.47-6.26-5.28l2.7-12.02c.94-4.19,12.28-9.95,15.86-4ZM1331.04,549.69c-.54-1.24-1.81-2.48-4.17-2.71-2.3-.22-7.72,1.72-8.16,4.23l-2.45,14.13c-.5,2.86,8.26,2.81,8.83-1.39,1.1-8.16,7.95-9.65,5.95-14.27ZM1339.2,528.59c1,2.38-2.83,11.81-5.5,12.64-2.07.64-5.4-.12-6.04-2.94-1.1-4.87,2.3-10.34,7.04-11.68,2.07-.59,4.02.85,4.5,1.98ZM1337.85,528.19c-6.29-.33-9.6,5.18-8.23,10.95.34,1.45,3.95,1.69,4.44.19,1.43-4.38,4.09-6.52,3.79-11.15ZM1292.06,583.33c-.25,1.27-2.12,1.9-3.43,3.99-.83,1.34.47,5-2.59,7.12-3.45,2.39-12.64-.31-12.49-5.57.2-7.39,10.14-12.75,16.56-10.78,2.34.72,2.3,3.5,1.96,5.24ZM1286.2,578.97c-2.69,0-8.88,3.61-9.84,6.59-.63,1.96-1.2,5.13,1.18,6.65,2.06,1.32,5.31.81,7.94.39-.31-4.52,3.07-6.73,5.02-10.39.96-1.97-2.85-3.24-4.29-3.24ZM1584.92,490.11c3.94,10.27-.94,22.29-11.55,24.91-2.62.65-6.36-.48-7.7-1.84-1.38-1.42-2.55-3.9-2.44-7.47-7.77.26-11.43-4.01-16.58-9.04-3.92-3.83-11.2-4.56-15.88-7.25-5.45,5.74-13.52,9.6-20.33,5.05-2.14-1.43-1.97-7.33-6.85-6.84-1.85.19-4.95-.7-5.95-1.97-3.24-4.11,2.07-9.23-.85-14.43-1.02-1.82-5.02-.9-7.39-2.08-3.04-1.51-1.96-7.08,1.46-8.98,3.22-1.79,7.31-9.5,4.05-11.97-4.15-3.15-7.66-4.43-10.02-9.73-.68-1.52-4.23-3.08-4.17-4.7.3-8.89,6.64-10.87,6.3-21.26-.09-2.67,2.15-4.97,3.28-6.38,2.51-3.11,9.82,2.47,19.36-8.8l10.65-.2c4.74-1.75,6.07-9.1,4.69-13.44-1.79-5.65-.54-8.7,3.94-12.06,2.51-1.89,4.97-2.85,8.18-2.37,3.51.52,2.81,4.02,4.29,6.65l6.49,11.52c3.59,6.36,23.62,13.33,19.05,29.77-.61,2.2,4.38,4.14,5.71,5.37,1.66,8.61,7.92,7.28,11.61,13.33.31.51-1.07,16.16-4.19,22.48-4.72,9.54,8.29,15.05,11.6,24.08l-6.76,7.66ZM1583.6,491.19c-.83-3.81,3.7-5.63,5.09-7.96,3.1-5.22-14.26-12.51-11.14-22.79,1.89-6.21,3.87-11.2,3.65-17.91-.05-1.39,2.03-4.4,1.4-5.73-2.68-5.7-10.71-4.19-11.11-13.09-5.24-1.45-7.88-5.79-6.27-10.69,1.19-6.05-4.32-12.67-10.61-16.8-9.53-6.25-12.82-15.32-17.89-25.74-3.73-.19-10.7,3.82-10.26,7.42.64,5.25,2,8.37.59,13.48-1.48,5.36-5.35,9.47-11.85,7.68-7.33-2.02-9.28,10.09-24.52,7.92l-3.15,14.24c-.8,3.6-6.87,8.63-4.11,12.77,1.95,2.91,5.01,4.98,6.41,8.95l7.11,3.81c5.41,9.5-9.31,15.32-6.69,20.96,3.44.56,7.18-.11,8.7,2.87,3.35,6.59-1.91,11.38.79,14.15,1.76,1.81,8.64.92,9.41,3.06l1.92,5.31c6.16,3.55,14.53.4,19.58-6.02,5.34,4.07,13.65,3.84,17.93,8.6,4.63,5.13,8.28,9.02,15.58,8.02,1.12,2.33.95,5.88,2.49,7.49,2.83,2.96,7.44,2.4,11.14.74,4.4-1.98,7.51-12.89,5.8-20.75ZM625.44,711.84c1.4-4.19,6.03-5.49,9.89-5.52,5.52-.04,9.68-4.14,14.58-4.94l13.43-2.2c5.61-.92,13.1.42,14.82,6.77.67,2.48-.68,6.46,1.56,8.84,1.53,1.62,4.6,3.65,7.4,3.68.22-1.14-.33-2.7-2.01-3.15-8.96-2.42-1.97-12.56-9.78-15.64-1.37-.54-1.3-1.99-.76-2.79l-2.48.2c-8.54.49-21.62.9-23.03,1.85-13.47,9.08-21.13,1.18-27.24,16.43-4.63,11.57-12.83,18.26-23.1,23.89-6.69,3.67-12.09,10.25-21.06,9.59-6.39-3.48-10.18-10.97-10.61-18.38l-7.26-7.72-6.52-23.29c-9.05,7.74-7.39,18.5-4.4,27.82,1.04,5.65-4.06,12.34-5.9,16.99l-12.17,2.25c-6.73,1.23-13.66.98-20.16-.72-7.44,3.4-14.13.43-19.41-4.76-2.4-2.36-5.79-3.37-6.72-7.5-2.51-11.09-9.88-23.67-21.93-26.25-6.76-1.44-13.85,1.18-19.8-3.47l-14.85-4.84c-2.99-7.38-8.4-12.48-15.14-16.54-2.83-1.71-5.34-10.2-2.9-12.42,5.92-5.36,12.67-8.41,17.95-13.99.39-2.99.22-5.76,1.43-8.75l13.93-2.44,21.75-13.11c9.08-5.47,19.29-6.2,18.67-21.15l-8.16-3.07c-3.19-2.46-6.41-2.91-10-3.88-5.78-1.57-10.02-1.13-14.31,3.03-5.41,5.25-13.67,2.18-17.3-3.89-2.68-4.48-6.73-5.56-11.09-3.15-3.69,2.04-7.56-1.14-8.86-4.7-1.08-2.96-2.24-5.56-.66-8.11,1.1-1.79,3.49-4.16,6.45-4.57,15.37-2.14,7.64-15.43,13.35-22.77,2.08-2.67,5.46-4.32,4.29-8.17-1.22.03-1.28-1.33.05-1.23.19.05,1.18.33,1.51.19l-.12-1.43c-3.37.03-2.84-4.07-4.13-5.96-2.77-4.06-6.92-7.25-5.72-12.55,1.35-5.92,6.36-9.32,10.33-13.52,9.92-10.51,2.99-27.4-10.65-35.71-.44-3.05,0-6.2-1.37-8.69-1.31-2.38-4.85-3.99-6.89-3.85l-2.57.18c-7.02-.88-13.98.58-20.53,4.1-4.12,2.21-8.77-2.74-11.87-3.25-8.18-1.33-14.01-5.03-21.07-8.01-10.21-2.33-23.12,4.13-27.7.58-1.46-1.13-3.14-5.19-1.44-5.89,8.45-.33,16.66-1.2,23.67,1.85,4.64,2.02,7.95,2.71,12.49-.78,1.49-1.15,4.55-1.34,5.17-2.7,1.45-3.18,1.11-8.64-.84-10.11-.76-.57-2.77-.8-3.76-.09-4.62,3.3-13.71-1.69-14.06-2.93-1.52-5.38,6.11-8.87-1.25-16.41-1.69-1.73-2.42-4.93-2.18-7.28.16-1.5,3.1-2.45,4.3-3.98,9.64-12.31,23.27-16.49,24.02-9.05.18,1.8-.35,6.51,1.74,7.36,4.53-.22,7.82,2,11.7,3.15,5.98,1.76,11.74-3.16,16.56-5.1,10.14-4.09,8.35-10.62,16.5-17.37,10.92-1.97,16.2-15.64,11.15-18.58-3.99-2.32-4.64-5.06-6.83-8.77-2.54-4.32-9.11-6.06-13.64-8.08-1.48.34-3.1,2.5-5.28,2.09l2.73-7.2c-.51-5.35,1.89-7.55,3.97-11.5,2.47-4.69,2.06-10.84,6.77-14.99-4.17-7.84,1.67-17.31-6.72-19.11-4.28-.92-9.08-.68-12.98-3.66-1.7-1.3-2.2-4.09-.97-6.32,2.61,1.15,5.03.44,6.23-.83,3.69-3.9-1.33-8.51-1.4-11.07-.04-1.27,2.05-2.82,2.61-4.56.92-2.87-2.93-9.57-6.13-9.37-5.01.32-6.48-1.34-9.65-3.52-4.47-1.75-10.25-.51-15.23-1.01-2.5-.25-7.35-3.08-5.85-5.48,2.84-4.54,1.93-6.46,1.03-11.48l-1.82-10.12c2.87-.33,8.6-1.56,10.42.28,6.53,6.59,17.2,10.57,24.08,6.1l7.06-1.2c1.92-1.57,3.58-2.42,5.31-2.1,5.88,1.08,1.99,11.17,19.33,14.95,3.82.83,11.29,6.17,14.98,1.4,3.42-4.42,6.16-8.39,11.74-11.11,3.41-1.66,1.74-8.14,2.45-10.74,1.2-4.4,5.97-4.25,8.84-4.05,3.46.25,4.23,3.57,7.08,5.23l14.8,8.67c4.41-4.07,9.44-4.29,14.11-5.58,5.23-1.45,5.45-7.62,7.41-11.26,3.13-5.84,5.35-10.71,3.83-16.99-.27-1.12.21-2.89.32-3.97-6.85-.33-.85-10.08-6.7-13.88-1.93-1.25-4.45-2.09-6.9-2.7l-.13,1.4c2.82.94,7.54,1.61,7.82,5.19l.69,8.8c4.56,7.24,4.06,13.75-.36,20.81-2.05,3.28-2.08,10.07-7.45,11.22-4.48.96-9.22,1.02-13.23,4.54l-13.44-8.15c-3.23-1.96-5.42-5.21-8.98-5.75-3.45-.52-8.38,1.22-9.8,5.31-.79,2.28.91,8.41-.94,9.93-5.54,3.17-8.9,7.29-12.74,11.65-3.32,3.78-9.53-1.21-12.81-1.86-15.79-3.11-10.83-10.24-19.11-14.8-3.82-2.11-23.58,12.56-36.3-3.04l-12.47-1.19c-1.08,7,1.32,13.23,2.39,19.62-1,1.61-3.31,4.12-2.76,6.1,1.74,6.3,12.16,7.72,21.77,6.09l4.88,4.76c2.78-1.08,6.27-1.07,8.11.91,5.88,6.33-3.46,9.08,1.49,14.7,1.16,1.32.99,4.56.11,6.06-.7,1.2-4.2.22-5.75,1.23-2.81,1.84-1.36,6.41.25,8.38,4.87,5.95,20.36,1.47,17.89,9.67-1.2,4,.25,8.09,1.31,11.32-2.69,4.2-5.26,7.97-5.35,13.64l-4.26,6.7c.15,11.23-6.35,13.39-4.43,15.32.68.68,2.3,1.53,4.44.52,4.17-1.96,14.19.64,15.86,5.33,1.66,4.69,4.49,5.79,6.79,8.98,4.67,6.48-3.92,13.71-9.67,15.57-6.28,2.03-7.88,9.56-11.61,13.53-3.71,3.95-9.98,5.49-14.49,8.01-4.33,2.42-7.59.43-11.26-1.46-1.98-1.02-5.39-.16-7.17-1.65.95-5.07-.06-8.63-4.11-10.14-3.72-1.39-6.64-.64-10.28,1.98-3.09,2.22-7.21,3.11-9.26,7.04-1.61,3.1-5.74,4.48-7.58,7.2-2.17,3.2.03,8.9,2.26,11.34,5.3,5.81-2.44,10.62.78,16.24.41.72,12.74,7.7,17.06,1.8,2.74,2.23,1.97,4.7,1.45,7.5-.4,2.18-3.77,2.14-5.02,3.23-4.33,3.76-6.6,3.2-11.17.69-6.76-3.72-18.7-5.29-25.1-.27-1.92,3.13,3.75,9.69,6.77,9.41,9.46-2.57,22.61-4.45,28.57-.17,4.67,3.35,11.05,4.39,15.78,6.64,7.46,3.56,12.34,3.73,19.77-.3,4.11-2.22,12.71-.53,16.96-.39,6.41.22,3.89,6.61,5.23,9.13,2.95,5.53,10.07,7.73,12.43,13.92,1.41,3.71,3.24,8.64,2.78,12.7-.97,8.53-12.41,13.28-14.87,22.33-2.72,10.01,17.78,18.7,1.76,32.36-.44,5.14-.06,10.46-2.3,15.26-7.96,4.84-18.34,5.03-15.32,16.7.82,3.16,2.26,5.96,4.74,7.23,7.23,3.7,12.14-4.66,16.05,2.02,2.44,4.17,6.29,6.98,9.84,7.43,11.26,1.42,12.67-8.43,19.93-5.76,3.45,1.27,7.54,1.08,10.69,3.19,2.43,1.63,5.77,3.21,8.46,4.14,2.3,5.42-1.97,10.8-7.14,13.32-8.98,4.38-16.96,9.38-25.3,14.76-10.4,6.7-23.66,1.25-21.99,10.18,1.6,8.52-13.09,12.96-17.86,18.5-4.13,4.79.17,13.06,4.57,15.62,12.71,7.39,10.72,18.66,22.43,19.11,4.09.16,7.16,3.46,10.81,4.18,6.96,1.35,14.55-.83,21.2,2.98,7.14,4.09,11.73,11.91,13.85,19.8,1.59,5.88,4.13,9.11,9.36,12.3,3.35,2.04,7.08,6.8,11.7,6.14,5.26-.74,9.88-.91,15.3.42,5.83,1.44,12.21-1.32,17.79-1.67,7.84-.48,11.42-5.04,13.82-11.68,1.73-4.8,2.91-7.61.84-12.83-2.51-6.34-2.09-15.38,1.97-20.64l5.29,19.66,8.11,8.95c.27,7.04,4.34,16.52,11.46,18.77,7.63,2.41,13.84-4.49,19.63-7.55,13.31-7.03,23.9-16.33,28.67-30.63Z"/>
    </g>
  </g>
</svg>