<?xml version="1.0" encoding="UTF-8"?>
<svg id="Layer_1" data-name="Layer 1" xmlns="http://www.w3.org/2000/svg" viewBox="0 0 64 64">
  <path d="M16.34,48.44l-4.87,1.58c-.35.11-.91.16-1.15,0-.27-.19-.36-.83-.31-1.24l1.71-15.57c.07-.65.12-1.36.34-1.89s.46-1.11.33-1.64c-.7-2.8-.82-5.45-.85-8.29l-.42-5.16c-.06-.74.54-.97,1.08-1.17l4.2-1.54,6.06-2.36c.39-.15.78.5.79.89l.07,3.35v5.09s.02,4.52.02,4.52l.12,4.07-.42,4.25-.21,4.4-.52,6.99c-.03.47.15,1.32-.06,1.77-.16.34-1.1.42-1.48.55l-4.43,1.42ZM37.48,40.41l.4,5.71.02,6.34c0,.15-.15.26-.22.31-.19.12-.44.15-.59.08-2.21-1.12-4.38-1.89-6.69-2.7-.33-.12-.66-.23-1-.35-.93-.33-1.84-.84-2.71-1.33-.47-.27-.97-.54-1.46-.79l-.93-.47c-.05-.05-.11-.24-.08-.93l.14-5.28.66-9.83c.06-.89.11-1.7.09-2.71l-.2-9.61.04-6.29c0-.14.11-.39.17-.43.03-.02.09-.02.17-.02.17,0,.41.03.52.09l2.74,1.41,8,3.29c.06.03.15.06.25.09.17.06.69.23.73.35l.09,1.61,1.63.02.26-1.78c.97-.25,1.8-.66,2.6-1.05.43-.21.88-.43,1.34-.62l4.97-2.04,3.49-1.27c.14-.05.52-.03.61.04.09.07.25.48.23.65l-1.49,15.98c-.1,1.09,0,1.77.18,2.75l1.35,7.46,1.19,7.49c.07.47-.12.54-.59.66-.12.03-.24.06-.36.11l-7.22,2.75-5.09,2.19c-.25.11-.57.19-.72.18-.08-.06-.19-.38-.2-.55l-.15-4.14-.23-7.39-1.93.05ZM38.05,39.22c.09.1.21.15.34.15.02,0,.04,0,.07,0,.42-.05.88-.61,1-.83l1.59-2.96,1.2-2.09c1.23-2.15,2.15-4.04,2.88-5.97l.02-.06v-.06c-.54-2.24-1.26-3.88-2.33-5.32l-.03-.04-.05-.02c-.5-.23-.98-.54-1.44-.84-.84-.55-1.71-1.11-2.76-1.2-.92-.08-1.81.47-2.59.96-.34.21-.66.41-.97.55-.76.35-1.21.81-1.55,1.57l-1.41,3.15c-.33.74-.28,1.56.15,2.41l2.32,4.62c.07.13.13.26.19.38.3.61.56,1.14,1.05,1.77.37.49.64,1.03.93,1.61.37.75.75,1.52,1.39,2.22ZM38.45,35.77c.16-.07.43-.36.51-.55l2.51-6.19c.23-.56,1.12-1.01,1.09-1.83-.01-.42-.71-.98-.98-1.33l-2.15-2.78c-.27-.35-.99-1.18-1.39-.71l-1.79,2.12-1.69,2.25c-.59.78.21,1.68.97,2.11l.92,2.53.82,2.1.6,1.77c.06.18.41.57.57.49Z"/>
</svg>