<?xml version="1.0" encoding="UTF-8"?>
<svg id="Layer_1" data-name="Layer 1" xmlns="http://www.w3.org/2000/svg" viewBox="0 0 64 64">
  <path d="M43.89,45.84l.45-3.91c2.91-3.42,3.7-8.73,2.79-13.04.23-.31.71-.42,1.08-.42h1.51c.24-.77.34-1.18.82-1.9l.63,4.62.45,2.45c-.09.82-.43,1.7-.08,2.39l.95,1.88.41-1.27c-1.07-.84-.86-2.05-.26-3.08l-.79-4.09-.36-2.57-.06-.57c-.02-.16-.42-.22-.63-.33-.65-.32-.89-1.52-.53-2.13l.91-1.52c.26-.43,1.57-.5,1.82-.07.34.74.76,1.01,1.48,1.35.84.4.63,1.91.03,2.51l1.02,7.01c1.33.27,1.62,1.51,1.4,2.77-.16.94-.48,1.56-1.53,1.83l-.61,2.24-.51,2.22-.47,3.5-1.78.2c-.93.1-.65-.94-.6-1.37l.25-2.29-4.79.17-.34,2.03-.23,1.39c-.78.1-1.38.1-2.43,0ZM16.35,34.66l-.17-2.51.37-3.9-2.43-.05-.74-1.98c-.54,1.5-.42,2.59-.66,3.93l-.58,3.28-.04,1.75-.57,1.86c-.13-.17-.4-.66-.42-.91-.04-.4,1.34-1.07.19-3.22l.42-2.3.79-4.97c.91-.34,1.48-1.15,1.23-2.2-.2-.84-.47-1.38-1.15-1.76-.49-.28-1.68-.39-1.99.02-.33.43-.69.93-.99,1.16-.98.73-.33,1.83-.05,2.54l-1.2,7.07c-.55.24-1.16.65-1.26,1.13-.26,1.32.08,2.96,1.25,3.24l1.15,4.1c.54,1.95.15,3.87.41,4.19s1.96.49,2.4.14c.22-.18.19-.7.15-1.04l-.29-2.44,4.81.38.3,2.3c.05.36.06.98.29,1.17.42.35,1.71.37,2.11-.09.16-.19.17-.73.06-1.03-.25-.71.03-1.89-.25-2.5-.69-1.52-1.82-2.27-2.28-4.07l-.84-3.26ZM44.85,38.01c-1.59-.17-2.93-.21-4.59.13l-.49.1.42.26c1,.61,1.89.53,2.92.44h.12c.42-.05.68.04.75.24.27.78-1.44,3.02-3.8,4.52l-2.22,1.41-3.56,1.16c-.5.16-1.16.06-1.74-.03-.26-.04-.51-.08-.72-.09h-.02s-.02,0-.02,0c-1.12.22-2.04.28-3.16-.06l-2.51-.79c-.52-.16-.99-.47-1.45-.77-.09-.06-.18-.12-.27-.17-2.05-1.3-3.59-2.85-4.73-4.71-.29-.47-.36-.8-.01-1.37l.1-.17-1.2-.74c-.95-3.44-1.19-5.49-.73-6.09.08-.1.19-.16.32-.15l2.96.05,1.33-.32,2.46.03-.47-.36c-.82-.62-1.64-.59-2.43-.57-.3,0-.6.02-.9,0l-2.74-.24-.52-.03c-.27-.37.53-3.54,1.51-5.55.32-.66.98-.67,1.81-.68.63,0,1.34-.02,2.03-.32l.58-.26-2.48-.44c-.23-.04-.36-.12-.38-.24-.12-.76,2.57-2.94,4.74-4.07,1.63-.85,3.36-1.28,5.3-1.31l.67,2.09.22-.38c.15-.25.33-.64.37-.9l.13-.72c.24-.3,3.09.03,4.58.86l2.49,1.38,2.93,2.49c.21.18.44.72.37.98-.02.06-.04.09-.11.1-.78.13-1.61.05-2.41-.02-.46-.04-.93-.09-1.39-.09l-6.05-.09-3.5.11c-.4.01-.8,0-1.18,0-.99-.03-2.01-.05-3.11.29l-.56.17.56.2c1.1.38,2.21.44,3.28.49.57.03,1.16.06,1.74.14,1.29.18,2.49.14,3.76.11.46-.01.93-.03,1.4-.03l4.14-.02,4.36.04c.95.71,1.32,2.05,1.65,3.24.03.12.07.23.1.35.31,1.08.42,1.91.34,2.65-1.64-.05-2.86-.08-4.35.28l-.48.12.43.24c1.08.6,2.26.59,3.12.58.58,0,1.08-.01,1.26.17.48.47-.12,4.34-.97,6.4ZM39.07,37.9l-8.08-.62h-.03s-.03,0-.03,0c-1.42.33-2.6.39-3.74.18h-.02s-2.27,0-2.27,0l-3.5.41.55.29c.7.38,1.52.41,2.39.45.19,0,.38.02.58.03l2.85.18c1.48.1,3.07.2,4.71.2,1.27,0,2.58-.06,3.9-.23.2-.03.41-.02.63-.02.59,0,1.25.01,1.79-.58l.27-.29ZM33.89,48.21c.03-1.15-.93-.15-3.43-.58-.18-.03-.6-.05-.64.1-.03.11-.06.44-.05.59v1.95c0,.64.29.96.93.96h2.16c.66,0,.96-.3.98-1.06l.05-1.96Z"/>
</svg>