<?xml version="1.0" encoding="UTF-8"?>
<svg id="Layer_1" data-name="Layer 1" xmlns="http://www.w3.org/2000/svg" viewBox="0 0 64 64">
  <path d="M43.07,52.22c-.66,0-1.33.03-2.05.12-.11.02-.44-.23-.49-.4l-.85-2.67c-.15-.46-.18-1.05-.2-1.62-.02-.5-.05-1.01-.15-1.46-.15-.67-.04-1.08.37-1.41,1.03-.75,1.5-1.76,1.37-2.92.89-.83,1.25-2.01,1.01-3.32.24-1.57-.27-2.93-1.48-3.95-.14-1.53-1.14-2.77-2.61-3.26-.7-.28-1.28-.63-1.82-1.11l-.04-.03c-2.15-1.17-4.74-.81-6.47.89-1.87.41-3.16,1.83-3.29,3.63l-1.24,1.72v.07c0,.3,0,.61-.02.94-.03.93-.06,1.88.19,2.67.29.9.44,1.54.38,2.36v.18s.16.04.16.04c.71.14.97.56,1.31,1.13.24.4.52.85,1,1.28.13,1.51.17,3.05-.3,4.24l-1.07,2.69c-.08.2-.66.27-.97.31-.09.01-.16.02-.23.03l-1.71.27c-1.38-.1-2.71-1.2-3.18-2.6l2.81-1.52-3.22-.1c-.19-.08-.52-.41-.67-1.73-.68-6.01-.9-11.07-.7-15.91,0-.24.29-.67.44-.72l2.43-.86-2.89-.96-.16-3.4c-.05-1.04.27-1.06,1.34-1.12.75-.04,1.77-.1,3.05-.59l.48-.18-.47-.2c-1.15-.48-2.22-.75-3.48-.87l-.95-.09c-.12-.05-.32-.56-.31-.85.09-2-1.07-4.4-2.21-5.48-.48-.46-.95-.67-1.36-.63-.71.07-1.34.54-1.78,1.32-.62,1.09-.73,2.55-.26,3.56l.2.43.17-.45c.1-.25.17-.49.24-.73.16-.55.3-1.02.67-1.31.29-.22,1.17-.02,1.71.23.45,1.29.72,2.53.81,3.7l.2,2.67c0,.12-.1.51-.17.61,0,.01-.09.11-.66.16l-2.29.21c-.88.08-1.54.04-2.08-.43-.36-.31-.5-.9-.65-1.52-.03-.12-.06-.23-.09-.35l-.59-2.29c-.55-2.13-.22-4.35.92-6.23.65-1.07,2.22-2.24,3.45-2.24.01,0,.02,0,.03,0l3.96.07c1.08.02,2.19.19,3.25.35.8.12,1.64.25,2.46.32,1.77.14,3.53.07,5.23,0,.7-.03,1.41-.06,2.13-.07l8.08-.16c1.45-.03,3.1.06,4.35.97l1.41,2.37c.63,1.05.58,2.57.53,3.9,0,.2-.01.4-.02.59l-2.45.93,2.03.74c.34.8.33,1.97-.02,2.74l-3.73.86,3.08.83c.6.16.85.32.87.86l.15,4.09.14,4.69c.05,1.75.26,3.3.67,5,.05.2.04.34-.02.43-.12.18-.51.23-.91.29-.53.07-1.19.16-1.68.58l-.36.31,4.63.52,3.72-.37c.49-.05.86.38,1.09.75,1,1.64,1.1,5.17-.26,7.29l-2.13,1.64-4.93-.36c-1-.07-1.92-.14-2.86-.14ZM37.41,44.03c1.29-.19,2.02-1.51,1.84-2.82.95-.75,1.4-1.68,1.28-2.9l-.18-1.5c-.97-.64-1.37-1.75-1.48-2.77-.14-1.31-1.62-1.04-2.26-1.46-1.82-1.18-3.65-1.84-5.57-.33-1.11.88-2.6.32-3.03,2.6-.13.68-.51,1.17-.9,1.81-.55.91-.58,2.77.13,3.58s1.13,1.43,1.26,2.57c.05.47.91,1.12,1.36,1.14.99.03,1.49.38,2.27.87.9.56,2.55.44,3.45-.18.65-.45,1.12-.61,1.82-.61ZM32.96,41.61l-.34-2.2-2.18-.33c-.18-.33-.13-1.37.18-1.61.52-.1,1.59-.05,1.82-.43s.24-1.2.29-1.89c.31-.19,1.19-.16,1.7-.01l.19,1.71c.09.77,1.93.16,2.28,1.07.11.29.02,1.15-.29,1.19l-1.57.19c-.45.48-.5,1.07-.51,2.18l-1.58.14ZM33.73,52.65l2.48,1.77,1.95,1.14c.24.14.89.26,1.07.08s.12-.62.02-.95l-1.32-4.34c-.46-1.53-.29-3.19-.58-4.88-1.2.46-2.21,1.05-3.42,1.09-1.88.06-4.07-1.76-3.92-.3.23,2.25-.34,4.23-1.07,6.23l-.85,2.31c-.1.28,0,.92.28,1.01.22.07.64-.1.89-.25l3.24-2.03,1.23-.88Z"/>
</svg>