<?xml version="1.0" encoding="UTF-8"?>
<svg id="Layer_1" data-name="Layer 1" xmlns="http://www.w3.org/2000/svg" viewBox="0 0 64 64">
  <path d="M47.58,50.42c.72-.96,1.42-2.03,1.71-3.33.2-.9.35-1.82.51-2.71.05-.29.07-.59.07-.97,0-.74-.13-.91-.87-1.14-.52-.16-1.2-.38-1.84-.7-.94-.47-1.5-1.12-1.74-2.05-.11-.43-.24-.87-.36-1.29-.34-1.18-.69-2.4-.84-3.65-.05-.39-.04-.72.14-1.1.27-.58.12-1.07-.46-1.53-.58-.46-1.13-.96-1.67-1.44-.12-.11-.24-.22-.36-.33-.23-.21-.45-.44-.65-.67l-.95-1.04c-1.02-1.12-2.08-2.27-3.1-3.41-1.29-1.43-2.34-3.02-3.28-4.51-.24-.37-.43-.73-.38-1.22.05-.53-.29-.83-.59-.99-.12-.06-.23-.13-.33-.2-.04-.03-.08-.05-.12-.07l-.08-.05v-.09c.02-.19.04-.38.06-.56.04-.41.07-.8.08-1.19.01-.53.31-.86.82-.9.36-.03.74.07,1.07.15.16.04.31.11.46.17.16.07.3.13.46.16.48.1,1-.01,1.43-.32.43-.31.72-.77.77-1.25.13-1.07.7-1.68,1.74-1.86.11-.02.21-.05.33-.08-.35-.41-.8-.67-1.29-.74-.51-.07-1.03.08-1.46.42-.72.57-1.22.75-1.92.12-.67-.61-1.41-.94-2.33-1.03-.47-.05-.73-.02-.87.11-.13.12-.18.35-.17.74.04,1.44.11,2.92.21,4.4.02.37.09.74.16,1.13.03.18.06.36.09.55l.02.11-.1.05c-.05.02-.1.05-.15.07-.1.04-.2.08-.28.13-.45.27-.66.6-.62.98.06.56-.17.97-.4,1.3-.12.18-.24.37-.37.55-.26.4-.54.82-.83,1.21-2.12,2.84-4.67,5.73-7.79,8.84-.29.29-.62.53-.91.73-.81.55-.92.89-.59,1.82.11.31.15.56.11.77-.66,3.9-1.68,7.3-3.1,10.38h0c-.15.3-.29.61-.42.9-.55,1.2-1.07,2.33-2.04,3.24-.29.27-.5.51-.35.83.11.23.31.25.62.26.07,0,.13,0,.2,0,.3.03.61.03.91.03.57,0,1.17.01,1.72.17,1.55.43,3.03.2,4.59-.05.29-.05.58-.09.88-.13l-.11-.78c-.22-1.55.21-3.01,1.31-4.45.64-.83.79-1.61.46-2.44-.11-.29-.18-.65.29-.94l.08-.05.08.06c.18.14.32.33.46.5.17.22.34.44.58.57.04-.2.07-.4.11-.6.1-.58.2-1.12.35-1.66.34-1.22.8-1.78,1.66-2.01l.28-.08-.11.27c-.04.11-.08.21-.12.31-.08.2-.15.38-.23.55-.43.91-.81,1.91-.7,3.07.06.59-.04,1.2-.14,1.79l-.03.19c-.04.25-.14.48-.26.75-.06.13-.12.29-.19.46l-.14.36-.76-2.05s-.04.04-.06.06c-.1.11-.18.2-.21.28-.39.86-.68,1.53-.93,2.17-.46,1.14-.53,2.13-.21,3.09.12.38.29.9-.25,1.26-.01.03-.02.1-.01.12.2.39-.01.63-.19.83-.03.03-.06.06-.08.1-.14.17-.27.37-.38.59-.2.38-.23.72-.09,1,.14.29.47.48.92.55.57.08,1.11-.04,1.67-.18.15-.04.3-.07.45-.1.15-.03.3-.07.45-.11.33-.09.67-.18,1.03-.18.08,0,.15,0,.23.01h.13s0,.14,0,.14c0,.94.28,1.26,1.2,1.36.63.07,1.21-.14,1.74-.38.29-.13.36-.39.44-.7.03-.13.07-.26.12-.38l.04-.09h.1c.07.01.14.02.21.02.15,0,.28,0,.42.04h.03c.77.2,1.56.4,2.34.63.56.17,1.11.14,1.67-.07.54-.21.97-.75.94-1.19-.04-.54-.49-1.05-1.06-1.18-.19-.05-.37-.1-.58-.15-.1-.03-.21-.06-.32-.09l-.2-.05.12-.17c.07-.1.13-.19.19-.27.11-.16.2-.28.28-.41.71-1.13.88-2.1.53-3.06-.06-.17-.13-.34-.2-.51-.31-.81-.64-1.65-.64-2.57-.33.03-.35.07-.52.38-.04.07-.07.14-.1.21-.14.29-.29.62-.69.8l-.15.07-.05-.15c-.03-.08-.06-.16-.08-.24-.19-.54-.37-1.05-.16-1.65.07-.21.06-.52-.04-.78-.3-.83-.57-1.45-.85-2-.44-.83-.93-1.76-.49-2.86,0,0,0,0,0,0-.02,0-.04,0-.06,0-.99.8-1.4,1.67-1.26,2.67.13.91-.25,1.51-.88,2.14l-.14.14-.09-.18c-.11-.21-.21-.42-.32-.62-.26-.51-.51-.99-.72-1.49-.11-.27-.05-.62.01-.89.07-.31.15-.62.22-.93.29-1.21.58-2.46.93-3.67.64-2.2,1.12-4.53,1.41-6.93.03-.2.08-.4.13-.59.02-.09.04-.17.06-.26l.12-.51.16.5c.26.8.41,1.61.57,2.39.04.23.09.46.14.69.13.64.28,1.28.42,1.9.21.92.42,1.87.59,2.81.45,2.46,1.36,4.75,2.11,6.48.5,1.15,1.15,2.26,1.78,3.34.29.49.59,1.01.87,1.52.03.05.06.1.09.16.11.19.23.39.27.61.25,1.29.9,2.4,1.78,3.66.44.62.77.67,1.48.23.06-.04.12-.07.2-.11.04-.02.07-.04.11-.06l.08-.05.07.06c.12.09.23.18.35.27.26.2.51.39.76.6.45.38.9.42,1.51.13.86-.4,1.56-.97,2.13-1.74ZM28.44,31.38c-.4.65-.88,1.16-1.47,1.54-.42.27-.83.55-1.27.85-.2.14-.41.28-.62.42l-.05.04-1.72-.44-.03-.04c-.1-.13-.15-.29-.12-.4.02-.05.05-.09.1-.11.29-.1.58-.21.88-.26,1.53-.29,2.83-1.05,3.8-1.68.08-.05.2-.12.35-.13l.29-.03-.15.25ZM29.41,49.02c0-.28.09-.55.18-.81.02-.06.04-.12.06-.18.17-.52.35-1.04.52-1.54.07-.2.14-.41.21-.61l.03-.08h.08c.21-.05.4.02.5.17.56.86,1.08,1.83,1.13,3.11l.85-.66.08.13c.53.83.54,1.69.04,2.62-.42.79-.79,1.08-1.5,1.08-.18,0-.39-.02-.63-.06-.3-.05-.59-.04-.83,0-.39.08-.73,0-1.1-.26-.36-.25-.48-.62-.33-1.02.1-.27.23-.54.4-.83.17-.3.33-.63.32-1.07ZM39.68,34.16c-.08,0-.15.02-.21.02-.1.01-.2.03-.28.03-.11,0-.2-.02-.27-.08-.75-.63-1.74-1.48-2.62-2.45l-.58-.64.75.42c.17.09.34.18.51.27.38.2.77.41,1.13.65.79.52,1.64.7,2.61.55.35-.05.76-.08,1.17.28l.11.1-.11.11c-.43.41-.92.48-1.41.56-.27.04-.53.08-.76.18h-.04ZM44.69,41.09c-.85.57-1.73.7-2.4.76q-.8.07-.94.79s-.02.1-.03.15c-.02.08-.04.16-.05.24-.28,2.13-.04,4.63.64,6.68l.1.3-.29-.13c-.76-.33-1.05-.76-1.47-2.17-.35-.97-.46-1.82-.35-2.67.06-.44.11-.88.16-1.31.07-.66.15-1.34.25-2,.13-.82.44-1.08,1.29-1.09,1.04,0,1.83-.21,2.55-.64l.13-.08.53,1.09-.1.07Z"/>
</svg>