<?xml version="1.0" encoding="UTF-8"?>
<svg id="Layer_1" data-name="Layer 1" xmlns="http://www.w3.org/2000/svg" viewBox="0 0 64 64">
  <path d="M36.51,57.52c.53.03,1.07.13,1.58.24.86.17,1.67.33,2.52.17.64-.12,1.26-.25,1.92-.39.42-.09.84-.18,1.28-.27h.03s.03,0,.03,0c1.61.32,3.16.26,4.98.08.25-.03.41-.09.49-.2.08-.11.09-.27.03-.5-.08-.33-.16-.67-.24-1-.24-1.03-.49-2.1-.72-3.15-.09-.43-.26-.68-.53-.82-.52-.26-.55-.69-.58-1.14v-.02c-.03-.47-.05-.95-.06-1.42-.03-1.21-.06-2.46-.46-3.65-.04-.13-.04-.27-.04-.4,0-.49,0-.98,0-1.47,0-1.06,0-2.16,0-3.24,0-.37.02-.76.36-1.09.37-.35.42-.79.38-1.35-.05-.61-.07-1.22-.09-1.82,0-.19-.01-.39-.02-.58-.02-.43-.03-.87-.05-1.3-.02-.63-.04-1.27-.07-1.9-.03-.69-.11-.79-.77-.93-.05-.01-.1-.02-.15-.03-.12-.03-.24-.06-.36-.07-.68-.08-.88.07-.98.73-.05.33-.09.67-.13,1.02-.02.17-.04.34-.06.52l-.02.14-1.46-.07-.24-1.98c-.06-.52-.27-.71-.78-.71h0c-.23,0-.45.04-.69.07-.11.02-.23.04-.34.05-.94.12-1.05.24-1.09,1.21,0,.11,0,.22,0,.34,0,.33.01.67-.13.95-.27.53-.29,1.08-.31,1.66v.08c-.04,1.15-.08,2.4-.15,3.82,0,.14-.03.28-.07.43-.02.07-.03.15-.05.24l-.03.18-1.1-.42v-.09c-.05-.26-.08-.51-.12-.77-.09-.66-.18-1.29-.26-1.93-.03-.22-.02-.48.03-.75.22-1.39.08-2.76-.11-4.03-.11-.76-.04-1.46.05-2.24v-.03c.18-1.48.37-3-.21-4.45-.08-.2-.09-.43-.08-.67.01-.7.02-1.39.04-2.09.02-1.32.05-2.69.05-4.04,0-.63.17-1.03.57-1.36.51-.42.72-.97.64-1.68-.04-.4-.03-.81-.02-1.2,0-.17,0-.34.01-.5,0-.39,0-.78.02-1.17.01-.84.03-1.71,0-2.56q-.06-1.41-1.48-1.61h-.04s-.09-.02-.13-.02c-.64-.05-.87.13-.97.78-.06.38-.12.75-.19,1.15-.03.18-.06.37-.1.56l-.02.14-1.85-.1v-.13c-.03-.2-.05-.4-.07-.6-.04-.43-.09-.83-.12-1.23-.06-.69-.18-.84-.8-.92-.41-.05-.87-.04-1.46.04-.81.11-.94.26-.99,1.13-.02.36-.06.72-.11,1.09-.02.17-.04.34-.06.51v.12s-1.91.23-1.91.23l-.04-.12c-.02-.05-.04-.1-.06-.14-.04-.09-.08-.18-.08-.28-.02-.23-.03-.47-.04-.69,0-.18-.01-.36-.03-.54-.02-.38-.12-.64-.29-.78-.17-.14-.43-.2-.81-.17-.12.01-.24.02-.36.04-.12.01-.23.03-.35.04-.94.09-1.15.31-1.16,1.25,0,.8,0,1.62,0,2.41,0,1.1,0,2.25-.02,3.37-.02.75.23,1.33.74,1.77.35.31.5.65.51,1.2.01,1.2.05,2.43.08,3.61.02.63.03,1.26.05,1.9,0,.15-.02.29-.04.43,0,.04-.01.08-.02.12-.04.3-.09.6-.14.89-.1.62-.21,1.27-.22,1.9-.02,1.14,0,2.31.03,3.44.02,1.03.04,2.09.03,3.14,0,.94-.06,1.89-.11,2.81-.03.59-.07,1.21-.09,1.81v.05c-.04,1.02-.1,1.08-1.27,1.34l-.18.04v-.19c-.03-.45-.05-.89-.07-1.33-.05-1.13-.1-2.3-.14-3.44,0-.07,0-.14,0-.22,0-.42-.01-.79-.3-1.11-.15-.16-.17-.43-.19-.64v-.04c-.02-.2-.02-.4-.02-.6,0-.13,0-.26,0-.38-.03-.73-.14-.85-.84-.94-.23-.03-.47-.04-.7-.06-.09,0-.18-.01-.27-.02-.95-.07-.98-.06-1.1.94-.04.34-.09.68-.14,1.03l-.08.61-1.43.14-.02-.14c-.04-.21-.07-.42-.1-.62-.07-.42-.13-.82-.22-1.21-.1-.43-.26-.55-.74-.49-.28.03-.57.08-.85.14-.63.11-.73.23-.76.86-.03.7-.06,1.4-.09,2.1-.05,1.25-.1,2.51-.16,3.76-.02.38,0,.81.33,1.11.49.45.49.99.44,1.5l-.03.26c-.08.84-.17,1.71-.12,2.55.06,1.09.01,2.01-.15,2.91-.17.93-.22,1.9-.28,2.84-.03.46-.05.93-.09,1.39v.02c-.02.27-.05.6-.25.73-.54.38-.68.94-.83,1.54-.02.07-.04.15-.06.22-.1.4-.17.82-.24,1.22-.12.77-.25,1.57-.64,2.32-.09.17-.1.32-.04.44.08.15.3.26.59.29.25.03.5.05.74.07.4.03.81.07,1.21.14,1.35.24,2.49.28,3.57.11.28-.04.57,0,.85.03.17.02.34.04.5.04.24,0,.48.01.73.02.66.03,1.34.05,1.99-.04.33-.05.67-.12.99-.19.68-.15,1.37-.3,2.11-.23.14.01.24-.01.3-.08.1-.09.11-.25.11-.37,0-.14-.02-.29-.04-.44-.02-.14-.04-.29-.05-.44v-.07c-.14-2.66-.27-5.42.38-8.09.42-1.72,1.54-2.88,3.35-3.45.07-.02.15-.03.22-.03.15,0,.3.04.39.07,1.46.48,2.54,1.51,3.19,3.07.07.17.1.35.13.52l.02.11c.08.43.16.86.24,1.3l.02.13c.03.19.07.39.07.59,0,.57,0,1.16,0,1.72,0,.31,0,.63,0,.94,0,.57,0,1.14,0,1.71,0,.76,0,1.53,0,2.29v.06c0,.4.03.54.25.55ZM42.02,44.16c0-.3,0-.58,0-.86,0-.66,0-1.27.03-1.88.02-.38.11-.72.26-.98.14-.23.33-.36.53-.36h0c.21,0,.41.14.56.38.08.13.21.38.22.65.01.86.01,1.72,0,2.56,0,.29,0,.57,0,.86v.12l-.11.03c-.37.1-.64.16-.85.16-.35,0-.51-.18-.64-.65v-.02s0-.02,0-.02ZM22.15,44.05c-.01.19-.02.39-.03.59v.15h-1.57l-.07-2.54c0-.14,0-.26,0-.37,0-.3,0-.54.03-.79.03-.21.1-.86.76-.99.13-.03.27.01.4.11.24.18.42.56.45.95.04.52.08,1.06.08,1.6,0,.43-.03.85-.05,1.29ZM31.38,29.41c.07-.51.45-.97.81-.98.39-.02.81.46.86.96.06.7.09,1.42.08,2.14,0,.39-.04.77-.08,1.17-.02.18-.04.37-.05.57v.15s-1.49-.07-1.49-.07v-.14c-.12-1.3-.13-2.47-.14-3.6,0-.06,0-.13,0-.2ZM29.59,20.18c.01-.14.02-.28.03-.41.02-.38.04-.71.15-1.01.09-.27.49-.54.75-.51.27.03.62.4.63.67.03,1,.03,1.98.03,3.02,0,.33,0,.66,0,1v.16h-1.58v-2.92ZM33.39,39.71c-.48.24-.95.3-1.43.3-.24,0-.48-.02-.71-.03-.37-.02-.75-.05-1.14-.02l-.38.03.25-.29c.73-.84,1.33-.95,2.8-.51h0c.29.1.45.16.6.23l.31.13-.3.15ZM34.79,22.82c0,.09-.05.15-.09.2-.01.02-.03.04-.04.06l-.05.07h-1.36l-.05-1.75v-.46c0-.55,0-1.02.02-1.48,0-.03,0-.07,0-.11,0-.16,0-.34.08-.49.32-.56.52-.62.64-.61.24.02.44.2.63.37.05.04.09.08.14.12.1.09.12.24.12.37,0,1.28-.01,2.53-.03,3.71ZM29.77,53.36h0c0-.31,0-.59,0-.88,0-.71-.01-1.38-.04-2.06-.06-1.32.32-2.47,1.14-3.42.26-.31.66-.53,1.04-.74l.14-.08s.06-.02.11-.02c.09,0,.21.02.34.07.64.23,1.15.64,1.46,1.21.56,1.01.8,1.95.77,2.95-.04,1.31,0,2.64.06,3.93.02.52.04,1.05.06,1.57,0,.13.02.26.03.38.02.17.03.33.02.5-.01.47-.12.57-.61.57-.66,0-1.32,0-1.97,0-.7,0-1.4,0-2.1,0-.28,0-.42-.03-.49-.09-.07-.07-.09-.23-.08-.55.02-.5.04-1.01.07-1.52.03-.6.05-1.21.08-1.84Z"/>
</svg>