<?xml version="1.0" encoding="UTF-8"?>
<svg id="Layer_1" data-name="Layer 1" xmlns="http://www.w3.org/2000/svg" viewBox="0 0 64 64">
  <path d="M28.66,45.43c.83-.71,1.68-1.06,2.59-1.06.28,0,.56.03.84.1,1.97.44,3.36,2.62,3.42,4.38.04,1.3.05,2.61.06,3.89v.24c0,.62.03.65.59.66,1.3.02,2.66.02,4.03,0,.41,0,.72-.09.89-.47.1-.23.45-.4.7-.41.23-.01.45-.02.68-.04,1.01-.06,2.06-.12,3.09-.07,1.07.05,2.33.04,3.55-.42.37-.14.77-.24,1.16-.28.52-.06,1.04-.11,1.55-.15.48-.04.98-.09,1.47-.14.39-.04.61-.09.68-.18.07-.1.04-.33-.02-.65-.32-1.56-.3-3.15-.28-4.68,0-.38.01-.77.01-1.15v-.29c0-.44,0-.89.01-1.33.01-.56.03-1.12.05-1.68.03-.97.06-1.98.08-2.97,0-.53-.08-.61-.66-.65-.34-.02-.69-.04-1.03-.06-.21-.01-.43-.03-.64-.04-.9-.06-1.28.26-1.39,1.17-.03.27-.05.55-.08.83-.01.13-.02.27-.03.41v.13s-.14.02-.14.02c-.13.02-.27.05-.41.08-.32.07-.62.14-.86.01-.49-.26-.94-.26-1.55-.18-.24.03-.43,0-.56-.11-.12-.1-.17-.25-.18-.44,0-.4.24-.64.67-.65.27,0,.54,0,.8.02.15,0,.3.01.45.02.17,0,.35,0,.52,0h.11c.01-.09.02-.18.03-.27.03-.27.06-.53.2-.72.36-.46.35-.98.35-1.53,0-.12,0-.23,0-.35,0-.22,0-.44,0-.67v-.42s.24-.11.24-.11c.08-.04.15-.07.22-.1q.53-.23.38-.74c-.05-.16-.1-.32-.17-.49l-.36-.93c-.37-.95-.76-1.94-1.15-2.9v-.04c-.49-1.18-.98-2.4-1.51-3.58-.03-.07-.25-.18-.53-.21-.06,0-.25.15-.32.21-.38.33-.75.65-1.11.97-.26.23-.53.46-.79.69l-.05.05c-1,.86-2.03,1.75-3.55,1.77-.29,0-.55.11-.75.31-.25.26-.39.64-.39,1.07,0,.38-.07.76-.2,1.08-.11.28-.25.55-.39.82-.16.31-.32.63-.44.96-.14.39-.21.86-.2,1.33.01.36.07.74.12,1.1.04.24.08.49.1.74.05.5.05.52.55.56.29.02.6.03.89.04.15,0,.3.01.45.02.97.04,1.22.31,1.22,1.31,0,.52.02,1.05.03,1.6,0,.21.01.42.02.63h.23c.26,0,.5,0,.74,0,.09,0,.19,0,.29,0,.23,0,.47,0,.7.01.18.02.36.06.53.09.17.04.34.07.51.09.65.06.71.54.68.99v.14s-.15,0-.15,0c-.16,0-.31.01-.47.02-.36.01-.7.03-1.05.02-.22,0-.45-.02-.66-.03-.3-.02-.62-.04-.92-.03-.61.03-.63.05-.65.65-.02.55-.09,1.15-.54,1.81l-.24.36-.04-.44c-.03-.34-.07-.67-.11-1-.08-.73-.16-1.42-.18-2.12-.02-.49.03-.99.07-1.47.03-.31.06-.63.07-.94,0-.24-.04-.42-.15-.54-.1-.11-.26-.16-.48-.16-.98-.01-1.88,0-2.77.05-.44.02-.58.16-.65.66-.15.95-.23,1.02-1.15.97-.26-.01-.52-.04-.79-.06-.13-.01-.25-.02-.39-.03h-.12s-.02-.13-.02-.13c-.02-.12-.04-.23-.06-.34-.04-.23-.07-.44-.13-.65-.07-.26-.25-.51-1-.42-.29.03-.37.16-.37.54,0,.18,0,.36-.02.56,0,.09-.01.18-.02.27v.15h-2.05l-.03-.43c-.01-.18-.02-.33-.04-.49-.04-.52-.1-.56-.52-.6-.78-.08-.96.21-1.02.5-.05.21-.09.42-.13.64-.02.1-.04.21-.06.32l-.02.13h-2.19l-.03-.11c-.02-.06-.04-.11-.05-.16-.04-.11-.07-.21-.09-.32-.02-.08-.02-.16-.02-.24,0-.07,0-.14-.02-.2-.08-.4-.24-.54-.64-.54-.9,0-1.72,0-2.51,0-.64,0-.84.2-.84.8,0,.45.02.91.04,1.36.02.49.04,1,.04,1.5,0,.48-.04.97-.08,1.44-.02.21-.04.42-.05.64v.14s-.5.03-.5.03l-.48-2.13c-.11,0-.22-.01-.33-.02-.34-.02-.69-.04-1.04-.08-.26-.03-.45-.07-.55-.23-.11-.17-.06-.39.06-.73l.03-.09,1.78-.16v-.28c0-.28,0-.52,0-.76,0-.14,0-.28,0-.43,0-.36,0-.74.04-1.11.09-.74.39-.99,1.18-.94.66.04,1.2-.04,1.74-.26v-1.81h.16c.76.04.89.06.94.66.01.12.01.24.01.36,0,.15,0,.29.02.43.01.06.06.13.12.2,0,0,0,0,0,0,.08-.07.16-.15.18-.21.07-.3.1-.61.14-.9.01-.12.03-.24.04-.36l.02-.14h.14c.49,0,.71,0,.85.15.13.14.11.36.09.66-.07.77,0,1.57.18,2.43.08.34.27.52.59.53.24.01.32-.13.44-.47.02-.05.03-.1.05-.15.04-.13.08-.28.18-.39.04-.05.09-.1.13-.15.2-.24.43-.52.72-.58.8-.16,1.68-.26,2.68-.31.31-.01.61.05.9.11.18.04.36.07.53.09h.04c1.15.12,1.21.17,1.53,1.32.09.31.2.41.46.41.32,0,.46-.11.51-.43.13-.84.64-1.3,1.46-1.35.04,0,.1-.03.17-.07.02-.01.04-.02.07-.03,0-.05,0-.11.02-.16.02-.18.03-.34.02-.51-.04-.39-.09-.79-.14-1.17-.08-.67-.17-1.36-.2-2.04-.03-.78-.01-1.57.01-2.33.01-.39.02-.77.03-1.16,0-.33.02-.66.03-.98.04-.79.07-1.6-.05-2.37-.13-.79-.25-1.66-.21-2.58.03-.85-.02-1.73-.07-2.58l-.03-.45c-.03-.51.03-1.08.65-1.44.44-.25.63-.63.6-1.21-.05-1.01-.09-2.03-.13-3.02-.02-.63-.05-1.27-.07-1.9-.02-.49-.04-.73-.13-.83-.1-.11-.36-.14-.84-.21h-.09c-.12-.03-.23-.05-.34-.05-.5-.01-.68.12-.8.6-.08.31-.13.62-.2.95-.03.15-.06.31-.09.47l-.03.14-1.52-.17-.02-.12c-.02-.11-.04-.2-.06-.29-.04-.18-.07-.34-.08-.5-.01-.1-.02-.2-.03-.29q-.11-1.19-1.68-1.16c-.95.02-1.09.15-1.18,1.09-.03.28-.07.55-.11.84-.02.13-.04.26-.05.4l-.02.13-1.61.09-.07-.43c-.03-.16-.05-.3-.07-.43-.03-.18-.06-.34-.08-.48-.08-.5-.12-.71-.25-.78-.17-.09-.55-.04-1.25.05l-.13.02c-.75.09-.81.16-.82.93,0,.55,0,1.09,0,1.64,0,.99,0,2.02-.04,3.03-.03.84.19,1.36.72,1.72.33.22.47.53.46.98-.01.42-.02.85-.03,1.27-.05,2.08-.1,4.22-.38,6.33,0,.07-.05.12-.08.18-.01.02-.03.05-.05.08l-.05.09h-.1s-.09-.02-.14-.02c-.11,0-.24-.02-.37-.04-.21-.04-.42-.1-.62-.16-.55-.18-.71-.08-.91.3-.04.08-.07.18-.1.28-.02.07-.04.14-.07.21-.38,1-.75,1.8-1.18,2.52l-.1.17-.14-.14c-1.05-1.06-2.12-2.99-2.66-4.81l-.02-.07.04-.06c.56-.86.51-1.15-.27-1.84-.18-.16-.38-.31-.57-.45-.09-.07-.18-.13-.27-.2-.31-.24-.42-.53-.34-.93.07-.39.11-.62.05-.73-.07-.12-.29-.21-.7-.38l-.08-.03-.03-.09c-.02-.08-.03-.16-.05-.24-.09-.44-.18-.86-.51-1.23,0,0,0,0,0,.01-.05.1-.09.18-.11.25-.06.24-.13.48-.19.72-.22.81-.45,1.65-.63,2.48-.09.42-.22.98-.1,1.42.14.5.04.84-.16,1.21l-.34.61c-.55.98-1.11,2-1.68,2.99-.13.23-.28.44-.43.65-.16.22-.32.45-.45.69-.18.33-.24.54-.2.68.05.14.24.27.62.42.09.03.13.11.15.15l.03.03v6.25l-.29-.5c-.67-1.13-.82-1.19-1.47-1.02l-.06.02c-.51.13-.99.26-1.58.07-.18-.06-.33-.05-.44.02-.14.09-.23.28-.26.55-.02.18-.02.37-.02.57v.13c0,.38,0,.77,0,1.15-.01,1.26-.02,2.56.19,3.83.09.55.17,1.13.13,1.71-.07,1.06-.17,2.13-.26,3.16-.05.58-.11,1.16-.16,1.74,0,.09.03.2.08.34l.02.05.04.04c.08.07.15.13.19.14.19.04.39.07.58.11.84.17,1.62.33,2.46.16.35-.07.71-.1,1.06-.13.19-.01.37-.03.56-.05.44-.05.94-.06,1.34.46.12.16.4.3.66.34.77.11,1.55.2,2.31.28.44.05.88.1,1.32.15.05,0,.1.01.15.02.25.02.53.05.69.22.29.31.64.33,1.03.33,1.38-.01,2.77-.04,4.12-.07.23,0,.37-.04.43-.11.06-.07.08-.2.05-.43-.17-1.63-.13-3.18.12-4.76.19-1.24.66-2.17,1.43-2.83ZM46.99,36.46c0-.13.01-.26,0-.38v-.03s0-.02,0-.02c.07-.28.13-.41.19-.53l.17-.36.12.38c.23.71.42,1.43.17,2.31l-.08.29-.19-.23c-.43-.51-.41-1-.39-1.42ZM45.14,35.8l-.82.43-.05-.19s-.04-.1-.06-.16c-.06-.15-.13-.31-.06-.46.13-.31.29-.6.45-.89.07-.13.14-.26.21-.39.16-.31.32-.62.48-.93l.21-.41c.15-.37.25-.63.41-1.03l.16-.4.15.34c.08.19.17.36.24.52.17.35.31.65.41.97.11.33.09.59-.04.8-.13.21-.39.34-.76.38-.06,0-.12,0-.18,0-.04,0-.1,0-.12,0-.18.09-.26.17-.27.2,0,.11.08.3.17.36.06.04.15.07.24.09.21.06.53.14.55.55.05.71.05,1.33.02,1.89-.01.17-.19.24-.41.34-.08.03-.17.07-.24.11l-.16.08-.06-.17c-.12-.32-.13-.64-.15-.95-.02-.42-.03-.8-.33-1.1ZM31.35,21.2c.02-.38.23-.82.72-.84.44-.01.73.3.79.87.05.42.04.85.04,1.27,0,.17,0,.35,0,.52v1.53h-1.55v-.15c-.07-1.17-.07-2.22-.01-3.19ZM25.15,31.98h.38s.62,1.85.62,1.85c.13.34.2.55.27.76l.04.12-.1.07c-.38.25-.64.04-.8-.1-.13-.1-.21-.17-.32-.16-.01,0-.07.07-.1.11-.09.11-.24.29-.47.29-.12,0-.25-.04-.42-.16l-.1-.07,1-2.71ZM18.29,33.24c.47-.04.76-.02.93.14.15.14.17.35.16.63-.02.47-.05.94-.09,1.43-.02.22-.03.45-.05.68v.15h-1.03l-.14-1.41h0c.01-.61.04-1.05.07-1.47v-.14s.14-.01.14-.01ZM17.15,29.7c.02-.35.05-.8.53-1l.12-.05.07.11c.33.52.45,1.04.38,1.63l-.02.13h-.14c-.09,0-.17,0-.25,0-.29,0-.47-.03-.59-.15-.14-.14-.13-.35-.11-.68ZM16.05,33.32l.11-.03c.45-.13.72-.17.91-.03.17.13.2.36.2.7,0,.48,0,.96,0,1.47,0,.23,0,.46,0,.7v.13l-1.19.19v-2c-.03-.45-.03-.74-.03-1.02v-.12ZM18.42,40.43c-.55-.16-1.08-.3-1.62-.42-.14-.03-.33.05-.5.13-.05.02-.09.04-.13.05-.11.04-.21.11-.33.18-.05.03-.11.07-.16.1l-.06.03-.06-.02c-.34-.1-.55-.16-.81-.23l-.22-.06.08-.17c.03-.07.06-.14.08-.2.05-.14.11-.27.21-.37.43-.37.88-.7,1.26-.98.2-.15.51-.2.79-.13.25.06.44.2.54.4.18.37.42.52.85.55.71.05.87.61.92,1.14l.03.23-.22-.06c-.22-.06-.43-.12-.64-.18ZM31,45.92c.22-.08.52-.07.73.01,1.07.42,1.74,1.43,1.77,2.64.02,1.05.07,2.11.11,3.14.01.32.03.64.04.96.02.47-.06.56-.49.58-.17,0-.35-.01-.55-.04-.1-.01-.2-.02-.31-.03h-.01c-.17,0-.34,0-.51,0-.28,0-.54,0-.81,0-.52,0-1.02,0-1.53,0-.18,0-.29-.03-.34-.07-.05-.05-.07-.16-.06-.36.04-1.42.09-2.8.12-4.19.03-1.34.65-2.23,1.85-2.64Z"/>
</svg>