<?xml version="1.0" encoding="UTF-8"?>
<svg id="Layer_1" data-name="Layer 1" xmlns="http://www.w3.org/2000/svg" viewBox="0 0 64 64">
  <path d="M38.8,47.99c-.01.18-.03.36-.04.54-.04.48-.08.97-.07,1.45,0,.15.18.41.28.44.13.04.27.09.4.14.59.21,1.2.42,1.77.41.34,0,.68,0,1.02,0,.66,0,1.33,0,1.97.01,2.29.02,4.66.05,6.98-.24,1.05-.13,2.11-.19,3.15-.25.26-.01.52-.03.79-.05.41-.03.66-.11.77-.26.1-.14.1-.38,0-.73-.15-.51-.32-1.02-.48-1.52-.14-.42-.28-.84-.41-1.26-.22-.71-.5-1.4-.78-2.07-.09-.21-.17-.42-.26-.63-.27-.67-.27-1.45-.27-2.2,0-.25,0-.5,0-.75-.05-1.25-.09-2.53-.12-3.76-.02-.63-.04-1.26-.06-1.89-.02-.48,0-.97,0-1.44.03-1.3.05-2.64-.46-3.9-.07-.17-.06-.35-.06-.51,0-.05,0-.1,0-.15-.01-.6-.02-1.2-.03-1.8-.02-1.3-.04-2.64-.07-3.96-.01-.47-.03-1.05.52-1.5.45-.36.63-.86.58-1.57-.03-.32,0-.65.01-.96.01-.19.02-.38.03-.57v-.92c.02-1.25.04-2.54.02-3.81,0-.49-.16-.65-.72-.74-.38-.06-.78-.11-1.19-.15-.68-.06-.87.08-1,.75-.09.44-.16.89-.24,1.37-.04.22-.07.45-.11.68l-.03.16-2.04-.11-.02-.15c-.03-.25-.05-.5-.08-.74-.05-.51-.1-.99-.18-1.46-.11-.74-.37-.94-1.11-.88-.47.04-.9.06-1.32.08-.89.04-1.08.21-1.17,1.08-.05.46-.11.91-.17,1.38-.03.21-.06.42-.09.64l-.02.15h-2.05l-.03-.15c-.04-.21-.08-.42-.11-.63-.09-.47-.17-.92-.23-1.37-.09-.64-.24-.76-.89-.72-.26.02-.53.04-.79.07-.17.02-.34.04-.51.05-.86.07-1.03.23-1.08,1.06-.02.28-.01.57,0,.89.02.53.04,1.06.05,1.59.04,1.17.09,2.38.1,3.57,0,.7.19,1.15.6,1.46.53.4.56.91.52,1.4-.04.48-.06.97-.09,1.48-.01.27-.02.54-.04.82h0s-.15,1.6-.15,1.6h-2.29l-.02-.16c-.02-.17-.04-.33-.06-.49-.04-.34-.08-.66-.11-.98-.05-.57-.18-.72-.67-.75-.93-.06-1.7-.09-2.41-.09-.59,0-.72.12-.8.73-.05.36-.1.73-.15,1.08l-.09.62h-2.48l-.02-.16c-.02-.19-.04-.36-.05-.54-.03-.37-.07-.71-.11-1.05-.07-.51-.26-.69-.76-.69-.83,0-1.64.02-2.41.07-.53.04-.64.14-.72.72-.05.34-.12.69-.18,1.02-.03.15-.06.3-.09.44l-.02.13-2.1.21-.04-.15s-.02-.09-.04-.13c-.03-.09-.06-.19-.07-.3-.04-.53-.07-1.07-.11-1.6-.05-.68-.09-1.35-.14-2.03-.04-.49.13-.88.52-1.2.49-.41.7-.82.7-1.33,0-1.03,0-2.07,0-3.08,0-1.05,0-2.13,0-3.19,0-.71-.07-.78-.85-.91-.15-.03-.3-.06-.45-.09-.21-.04-.43-.09-.64-.11-.77-.1-1.06.13-1.17.89-.05.4-.12.8-.19,1.22-.03.19-.06.39-.1.6l-.03.16-1.9-.16-.11-.85c-.06-.48-.12-.94-.17-1.39-.08-.65-.29-.86-.93-.89-.55-.03-1.09-.01-1.6.01-.79.04-1.01.26-1.08,1.07-.04.46-.09.92-.14,1.37-.02.21-.05.42-.07.62l-.02.16h-2.23v-.16c-.03-.21-.05-.41-.07-.61-.04-.44-.08-.85-.11-1.26-.04-.64-.31-.9-.89-.86-.5.03-1.01.11-1.51.19l-.28.04c-.3.04-.48.24-.57.63-.06.24-.06.49-.05.76l.02,1.12c.03,1.62.06,3.29.14,4.94.01.31.19.71.42.94.49.5.58,1.03.56,1.67-.03,1.37-.04,2.77-.04,4.12,0,.78,0,1.56-.01,2.34,0,.19-.04.38-.08.55-.02.09-.04.17-.05.26-.05.3-.1.59-.15.89-.12.71-.25,1.45-.32,2.18-.03.33-.01.66.01,1,.02.26.03.53.03.8-.06,2.14-.14,4.32-.22,6.43l-.03.88c0,.24-.01.48-.09.71-.33.93-.67,1.88-1.01,2.79-.26.71-.52,1.43-.78,2.14-.14.38-.21.67-.23.93-.04.44.12.65.55.74,2.23.45,4.06.61,5.77.49,1.43-.1,2.88-.05,4.29-.01.26,0,.51.01.77.02h.34c1.63.05,3.31.1,4.91-.39.64-.2.72-.26.7-.87-.01-.48-.05-.98-.09-1.46-.03-.32-.05-.64-.07-.96-.01-.25-.01-.49,0-.75,0-.11,0-.23,0-.35v-.18h2.37v.18c0,.19,0,.38,0,.56,0,.38-.01.75.01,1.1.02.3.16.55.38.66.19.1.42.08.63-.05.29-.18.31-.46.26-.92,0-.08-.02-.15-.03-.23-.06-.39-.13-.83.16-1.25l.05-.07h2.23v.16c.02.1.03.19.04.28.02.19.04.38.04.56,0,.13,0,.25,0,.38,0,.18,0,.35.01.52.03.27.16.48.34.57.15.08.34.05.53-.06.17-.11.31-.44.35-.7.05-.32.04-.65.03-1.01,0-.15,0-.31,0-.47v-.17h.17c.21-.01.42-.03.62-.05.55-.05,1.06-.1,1.61.13l.11.05v.12c0,.18,0,.36,0,.54,0,.41-.02.79.02,1.17.04.38.25.56.64.54.34-.02.52-.18.58-.53.02-.11.01-.23,0-.36,0-.07,0-.14,0-.21,0-.27,0-.55,0-.83v-.53s.38-.04.38-.04c.73-.08,1.35-.15,2.05.18l.11.05-.04.61c-.03.37-.05.74-.08,1.1ZM49.18,38.25l-.08.15-.15-.08c-.39-.21-.38-.55-.38-.81,0-.13,0-.24-.04-.33l-.02-.03v-.04c0-.15-.02-.29-.04-.43-.05-.53-.1-1.02.28-1.47l.13-.15.14.14c.72.73.79,1.92.17,3.04ZM48.18,26.09c0-.36,0-.9.58-1.21l.05-.03h.06c.5.09.8.46.81,1.03.02.86.02,1.7.01,2.6,0,.35,0,.7,0,1.05v.18h-1.44l-.07-1.41c0-.28,0-.53,0-.77,0-.52,0-.97,0-1.43ZM43.25,25.97c0-.1,0-.2,0-.3v-.05c.13-.4.24-.63.37-.9l.12-.24.18.2c.63.72.7,1.86.18,3.2l-.1.26-.19-.2c-.58-.61-.57-1.33-.55-1.97ZM15.67,26.77c0,.23-.02.44-.01.65v.03s-.01.03-.01.03c-.13.34-.24.59-.45.62-.01,0-.02,0-.04,0-.19,0-.5-.16-.54-.36-.16-.78-.3-1.69.08-2.58.05-.12.15-.18.27-.26.06-.04.13-.08.2-.14l.18-.14.09.21c.29.67.26,1.31.23,1.92ZM27.59,44.82l-2.2.12-.05-.12c-.32-.76-.26-1.45-.16-2.14.02-.16.16-.25.27-.34.04-.03.08-.06.11-.08l.05-.05h.07c.68-.01,1.17-.01,1.73-.01h.18v2.62ZM31.34,44.84l-1.23.11h-.02c-.47-.06-.78-.11-1.07-.16l-.15-.02v-2.51h2.46v2.58ZM31.42,40.78l-.08.05c-.41.28-.8.38-1.18.38-.41,0-.81-.11-1.21-.22l-.12-.03-.11-2.41h.19c.18,0,.36,0,.54,0,.52,0,1.01,0,1.49.02.16,0,.26.16.34.29.03.04.05.08.08.11l.04.05v.06c.02.69.02,1.18.02,1.62v.09ZM35.11,44.62l-.08.05c-.33.21-.65.27-.97.27-.18,0-.35-.02-.52-.03-.23-.02-.45-.04-.66-.02h-.14s-.04-.12-.04-.12c-.23-.7-.15-1.32-.07-1.93.01-.1.03-.19.04-.29l.02-.13.12-.03c.78-.17,1.44-.2,2.13-.24h.19s0,2.48,0,2.48ZM35.18,40.47c0,.09,0,.19,0,.28v.1l-.08.05c-.4.26-.78.35-1.14.35-.39,0-.75-.1-1.08-.21l-.1-.03-.02-.1c-.13-.76-.13-1.41-.13-2.1v-.18h2.48v.17c.02.11.02.21.03.32.02.24.03.46.04.68,0,.23,0,.46,0,.69ZM36.43,38.5c.12-.37-.08-.6-.42-.92-.06-.05-.11-.11-.17-.16-.23-.23-.37-.21-.83-.02-.46.18-.99.14-1.5.1-.21-.02-.42-.03-.61-.03h-.12l-.05-.11c-.14-.33-.16-.67-.18-1.01-.03-.55-.06-.99-.58-1.24-.54.3-.56.78-.58,1.37-.01.26-.02.52-.08.79l-.03.12-1.01.1c-.55,0-.92,0-1.31,0h-.12l-.32-.75c-.71.52-1.06,1.13-.97,1.71.07.41.08.81.1,1.2,0,.23.02.46.03.69.01.14-.02.27-.05.39-.01.04-.02.08-.03.12v.08s-.08.04-.08.04c-.35.23-.72.34-1.12.34-.29,0-.6-.06-.93-.18l-.08-.03-.03-.08c-.22-.57-.02-1.09.16-1.54.05-.14.11-.27.15-.4.33-1.08.89-2.4,2.29-3.12.11-.05.22-.14.35-.28,1.96-1.94,4.28-2.26,6.53-.9,2.15,1.3,3.44,3.19,3.82,5.61.02.13.01.25,0,.37,0,.05,0,.09,0,.14v.13l-.13.04c-.81.23-.85.23-1.94-.13l-.11-.04v-.12c-.03-.17-.05-.35-.08-.53-.08-.56-.17-1.14.03-1.76ZM38.8,44.07c-.02.13-.03.27-.04.4-.01.16-.18.24-.34.31-.05.02-.09.04-.13.06l-.04.03h-.05c-.61,0-1.07,0-1.6,0h-.18v-2.64h2.25l.04.12c.21.58.15,1.16.08,1.72Z"/>
</svg>