<?xml version="1.0" encoding="UTF-8"?>
<svg id="Layer_1" data-name="Layer 1" xmlns="http://www.w3.org/2000/svg" viewBox="0 0 64 64">
  <path d="M40.26,53.97c.1-.02.21-.04.31-.04h.31c.91.03,1.86.05,2.79.09.11,0,.21.01.32.02.45.03.87.07,1.24-.14.56-.32,1.17-.4,1.98-.27.82.14,1.67.08,2.78-.19.3-.08.36-.16.31-.47v-.08c-.1-.48-.19-.98-.32-1.46-.19-.71-.25-1.46-.19-2.29.04-.64.07-1.21.08-1.77,0-.47,0-.96,0-1.42,0-.43,0-.87,0-1.3v-.02c0-.48,0-.71-.08-.86-.09-.14-.33-.23-.75-.39l-.07-.03v-.08c0-.15,0-.3,0-.45,0-.45,0-.91,0-1.36,0-.14.09-.31.2-.4.2-.17.19-.35.08-.62-.23-.61-.46-1.22-.69-1.83-.28-.74-.55-1.47-.83-2.2-.02-.05-.06-.1-.11-.17,0,0,0,0,0,0-.23.37-.38.77-.53,1.16-.15.41-.3.81-.54,1.16l-.05.07-.08-.03c-.64-.23-.92-.64-.86-1.23,0-.05-.01-.12-.03-.19-.02-.07-.04-.15-.04-.23,0-.22.02-.45.04-.67v-.09c.02-.14.04-.27.06-.4.03-.25.07-.51.06-.76-.01-.56-.04-1.13-.07-1.68-.02-.46-.04-.94-.06-1.41,0-.17.04-.42.18-.59v-.02q.35-.4.14-.84c-.04-.08-.08-.16-.13-.24-.1-.18-.2-.37-.25-.57-.32-1.28-.63-2.58-.94-3.83-.15-.63-.3-1.26-.46-1.89-.01-.05-.03-.1-.07-.17,0,.01,0,.02-.01.04-.05.16-.1.28-.13.41-.12.46-.24.91-.35,1.37-.24.94-.49,1.91-.76,2.86-.06.19-.1.4-.14.59-.12.56-.25,1.13-.65,1.63-.21.26-.16.35.14.67.06.06.25.28.24.49-.02.99-.05,2-.08,2.98l-.03.97-1.34.09.08-.17c.03-.06.05-.11.07-.15.04-.1.07-.17.13-.22.35-.28.38-.58.11-1.04-.08-.13-.15-.26-.22-.4-.2-.39-.4-.76-.75-1.02-.08-.06-.14-.15-.18-.25-.39-.97-.68-1.72-.95-2.41-.1-.25-.19-.5-.28-.76-.12-.32-.24-.64-.36-.96-.02-.05-.07-.1-.13-.16-.01-.01-.02-.02-.03-.03-.28.37-.5.8-.67,1.35-.05.15-.1.3-.16.44-.17.47-.34.91-.27,1.4.02.16-.06.32-.14.46-.01.02-.03.05-.04.07-.19.36-.39.74-.67,1.23-.04.07-.09.13-.16.21-.04.04-.08.1-.13.16l-.2.25v-.32c0-.08,0-.15,0-.21,0-.1,0-.16,0-.23.01-.17.03-.34.04-.5.03-.35.06-.71.06-1.06,0-.13-.02-.27-.03-.4-.04-.37-.07-.75.11-1.13.04-.08.02-.21,0-.34,0-.06-.01-.11-.02-.17-.01-.19-.02-.38-.04-.57-.02-.25-.03-.5-.05-.76,0-.16,0-.33-.01-.49,0-.29,0-.6-.05-.89-.06-.41-.05-.88.45-1.21.27-.18.38-.44.37-.84-.02-.83-.04-1.73,0-2.61.05-1.16-.06-2.21-.34-3.22-.07-.25-.12-.51-.17-.81-.01-.06-.02-.11-.03-.17-.12.24-.21.48-.3.72-.14.38-.29.78-.56,1.17l-.14.2-.06-.24c-.5-1.99-.97-3.83-1.44-5.72h0c-.25-1.05-.5-2.05-.74-3.05-.1.4-.19.8-.29,1.2-.24,1-.48,2.04-.74,3.05-.05.21-.1.42-.16.63-.31,1.26-.63,2.57-1.07,3.91l-.07.22-.13-.2c-.2-.32-.32-.65-.43-.98-.12-.35-.24-.69-.46-.99-.04.2-.09.4-.13.59-.19.85-.37,1.65-.39,2.47-.02.66-.01,1.33,0,1.98,0,.58.01,1.17,0,1.76-.01.49.12.78.44.99.3.19.43.47.4.86-.03.42-.04.84-.06,1.26-.01.25-.02.51-.03.76,0,.2-.03.4-.04.59,0,.09-.01.18-.02.27l-.02.27-.18-.21c-.36-.43-.77-.93-1.01-1.5-.22-.54-.4-1.11-.58-1.66-.08-.26-.17-.54-.26-.8-.01-.04-.03-.08-.04-.13-.04-.13-.07-.25-.18-.35-.02.04-.03.08-.05.12-.06.16-.12.32-.17.47-.4,1.27-.78,2.4-1.37,3.49-.11.2-.2.41-.28.62-.05.12-.1.24-.15.36-.05.11-.06.19-.03.25.02.06.09.11.19.14.07.02.13.04.21.07l.18.06v1.64h-.12c-.36-.03-.55-.03-.65.04-.1.07-.15.26-.24.61-.02.08-.03.16-.05.24-.02.11-.04.21-.07.32-.12.38-.25.77-.38,1.18-.05.17-.11.34-.17.52l-.1.32-.11-.32c-.21-.63-.26-2.2-.16-3.04v-.05s.05-.03.05-.03c.54-.39.56-.44.23-1.04-.03-.05-.06-.1-.09-.16-.07-.11-.13-.23-.19-.35l-.05-.11c-.1-.21-.2-.44-.25-.67-.25-1.08-.51-2.19-.75-3.26-.18-.81-.37-1.62-.56-2.42-.01-.06-.04-.11-.08-.17-.07.13-.11.25-.15.39l-.03.09c-.26.81-.44,1.67-.62,2.49-.33,1.51-.67,3.07-1.47,4.48-.06.1-.12.25-.08.37.03.08.11.15.23.2.29.11.28.36.28.54v.04c0,.24,0,.49,0,.73,0,.61,0,1.25-.01,1.87,0,.39-.06.8-.38,1.18-.29.34-.27.55.1,1,.12.15.17.37.17.53,0,.8-.02,1.47-.05,2.09,0,.17-.14.38-.3.47-.22.13-.45.23-.69.34-.1.04-.2.09-.3.13l-.1.05-.05-.1c-.1-.22-.21-.44-.32-.66-.25-.5-.48-.98-.68-1.48-.16-.42-.29-.85-.42-1.27-.07-.24-.14-.48-.22-.72-.03-.1-.08-.19-.15-.31,0,0,0,0,0-.01v.04c-.06.16-.1.28-.14.39-.14.43-.28.87-.41,1.29-.3.99-.61,2.01-1.09,2.96-.15.29-.22.46.04.63.09.06.17.19.17.3,0,.4,0,.79,0,1.21v.53s-.12,0-.12,0c-.08,0-.14,0-.21,0-.13,0-.24,0-.36-.03-.44-.08-.7-.07-.85.05-.16.12-.24.38-.26.86-.05.84,0,1.68.04,2.51.05.9.1,1.83.03,2.75-.02.32-.04.65-.05.97-.03.72-.06,1.46-.21,2.19-.05.25-.04.42.03.54.08.12.25.2.54.25.15.03.31.04.48.03.17-.01.35-.02.52-.03.55-.03,1.13-.06,1.68-.14.52-.07,1.05-.14,1.51.32.04.04.12.07.23.09.19.03.37.07.56.11.45.09.91.19,1.36.19h.02c.66,0,1.33-.09,1.98-.17.17-.02.33-.04.5-.06.05,0,.1-.01.14-.02.13-.02.27-.04.4-.04.16,0,.33.03.49.12l.06.03v.18c0,.08,0,.15,0,.22,0,.4.07.47.44.5.1,0,.2,0,.3,0,.04,0,.09,0,.13,0h1.42c.94,0,1.89,0,2.83,0h0c.23,0,.37-.04.44-.11.08-.08.11-.22.11-.46,0-.55-.02-1.1-.02-1.65-.01-.93-.02-1.9-.05-2.84-.01-.53.09-1.05.32-1.59.35-.83.88-1.37,1.6-1.66.3-.12.55-.11.81.03.89.46,1.44,1.16,1.65,2.1.11.51.17,1.09.16,1.72,0,.46.02.93.05,1.38.05.77.1,1.57-.02,2.37-.05.33-.04.5.04.59.08.09.26.13.65.13,1.37,0,2.75,0,4.12,0,.38,0,.62-.02.73-.14.11-.11.12-.36.11-.75v-.1s.1-.01.1-.01c.04,0,.09-.01.13-.02ZM20.43,45.26c-.06.07-.2.19-.32.2-.17.01-.34,0-.5,0-.15,0-.3,0-.44,0-.51.03-.54.05-.62.57h0c-.02.15-.05.32-.18.49l-.14.18-.06-.22s-.02-.06-.03-.08c-.02-.07-.05-.15-.05-.24,0-.18,0-.36-.01-.54-.02-.4-.04-.82.07-1.24.04-.16.01-.35-.02-.55-.02-.16-.05-.32-.04-.48.02-.39.07-.77.11-1.15.02-.16.04-.32.06-.48v-.07s.08-.02.08-.02c.21-.06.32-.06.45-.06h.1l.04.67c.03.59.07,1.18.1,1.76,0,.06,0,.13,0,.19,0,.07,0,.13,0,.19.01.2.04.31.09.35.05.04.16.05.37.02.22-.03.44-.05.66,0,.17.04.28.28.3.39,0,.04,0,.09-.04.13ZM32.91,21.52l.03-.02h.04c.33.08.5.3.5.65,0,.4,0,.8,0,1.22v.63s-.9.07-.9.07l-.08-.63v-.43c0-.28,0-.52,0-.77,0-.23.04-.55.42-.73ZM31.32,37.42c.19-.61.45-1.17.71-1.71.24-.5.46-.97.62-1.48l.02-.07.29-.03.4,1.03c.04.1.08.21.12.31.1.25.19.5.3.75.09.22.19.45.3.69.05.11.1.23.16.36l.05.11-.12.04c-.07.02-.14.04-.2.07-.16.06-.32.11-.49.12,0,0-.01,0-.02,0-.11,0-.2-.08-.28-.15-.03-.03-.06-.05-.09-.07l-.05-.03v-.06c0-.13,0-.23,0-.32,0-.08,0-.15,0-.22-.01-.34-.07-.46-.12-.5-.02-.01-.04-.03-.1-.02-.21.03-.23.16-.24.4,0,.03,0,.06,0,.09-.01.15-.02.31-.03.47l-.02.36h-1.24l.05-.14ZM28.81,30.62c.34-.05.61,0,.9.04l.09.02v2.87l-.95-.28v-.08c0-.06,0-.12,0-.17,0-.11,0-.22,0-.33-.03-.47-.07-.95-.1-1.42l-.04-.62.1-.02ZM27.18,31.31c.01-.13.09-.25.19-.29.06-.03.19-.06.35.06l.04.03v.04c.1.56.13,1.03.16,1.49v.09s-.08.03-.08.03c-.1.03-.18.04-.25.04-.12,0-.2-.03-.25-.07-.09-.06-.15-.15-.16-.27-.04-.36-.04-.75,0-1.15ZM25.02,37.5c.21-.7.44-1.45.71-2.29.02-.07.09-.09.14-.11,0,0,.02,0,.03,0l.1-.05.04.11c.35.87.65,1.68.96,2.54l.05.14-.71.05-.04-.05c-.1-.15-.13-.33-.14-.48-.03-.21-.05-.35-.19-.44-.19.15-.22.38-.24.64-.01.16-.06.27-.15.34-.06.05-.14.06-.22.06s-.17-.02-.27-.04l-.09-.02v-.09s0-.07,0-.1c0-.07,0-.14.01-.2ZM22.06,32.79l.05-.12.11.07c.33.22.34.51.34.74,0,.08,0,.16.02.22h0s0,.03,0,.03c0,.08,0,.14,0,.21,0,.16,0,.29-.03.42-.02.12-.16.22-.27.23,0,0-.02,0-.03,0-.11,0-.28-.07-.3-.19-.08-.51-.16-1.04.11-1.62ZM21.67,38.03l.02-.09h.36s.02.96.02.96v.03c-.09.15-.17.19-.25.21l-.11.04-.03-.12c-.08-.33-.08-.67,0-1.03ZM36.13,42.34l-.03.07h-.07c-.05,0-.1.01-.15.02-.11,0-.23.02-.34.02-.99.01-1.04-.03-1.13-.98-.03-.27-.15-.41-.41-.46-.18-.03-.36-.04-.54-.03-.41.03-.46.09-.5.53-.01.15-.03.31-.04.47l-.03.35h-1.47v-.1c-.01-.1-.02-.2-.02-.29-.01-.21-.03-.41-.03-.62,0-.2-.09-.29-.28-.3-.24,0-.47,0-.68,0-.3.02-.45.16-.48.45-.02.19-.06.37-.1.57-.02.09-.03.18-.05.27l-.02.09h-1.6v-.1c-.01-.07-.02-.14-.03-.22-.02-.16-.03-.33-.04-.5-.01-.47-.16-.62-.61-.63-.07,0-.14,0-.22.02-.07,0-.14.02-.21.02-.14,0-.27.01-.41.02-.38.02-.78.04-1.17.02-.32-.01-.5.02-.6.11-.09.09-.14.26-.14.55v.23c-.01.57-.02,1.16-.01,1.73,0,.17.03.34.06.51.01.07.02.15.03.22,0,.03.01.07.02.1.02.07.03.15.03.23-.03.44-.07.89-.11,1.32l-.04.45c-.05.29-.09.48-.14.73l-.07.34-.14-.32s-.04-.09-.06-.12c-.04-.08-.08-.15-.09-.23-.07-.43-.14-.9-.19-1.38-.02-.19-.1-.26-.3-.26,0,0,0,0,0,0-.15,0-.31,0-.48.02-.08,0-.16,0-.25.01h-.1s-.02-.09-.02-.09c-.01-.06-.02-.12-.03-.18-.02-.12-.04-.23-.05-.34-.06-.6-.11-.64-.72-.63-.28,0-.57,0-.88-.03-.15,0-.3-.02-.46-.02h-.19s.1-.17.1-.17c.21-.34.4-.54.73-.57.24-.02.48-.06.72-.1h.09c.53-.1,1.08.29,1.16.83.01.07.02.13.04.21v.06s.44.04.44.04v-.14c0-.17,0-.32,0-.47,0-.26,0-.53,0-.79,0-.65,0-1.33.05-2,.03-.59.14-.63.7-.74h.04c.06-.02.12-.04.2-.06.02,0,.04-.01.06-.02l.06-1.28.85-.07v.11c.01.11.02.21.02.3.01.23.02.42.05.61.01.08.11.19.16.21.05.01.08,0,.11-.01.04-.03.06-.09.06-.18,0-.19,0-.37,0-.59v-.42s.98-.05.98-.05v1.38l.83.04c0-.07,0-.13.01-.19.02-.2.03-.38.04-.56.02-.42.21-.63.59-.63,0,0,0,0,.01,0,.29,0,.57,0,.87,0,.13,0,.27,0,.41,0h.1l.12,1.28h.85l.15-1.51h1.3v.1c.01.08.02.15.03.22.01.16.03.32.03.47,0,.16,0,.31,0,.49,0,.05,0,.1,0,.15l.51.03v-.14c.02-.16.03-.31.04-.46,0-.16.02-.31.03-.48l.02-.35h1.08v.1c.01.08.02.15.03.23.01.17.03.32.03.48,0,.16,0,.32,0,.49,0,.05,0,.09,0,.14.62.21.82.71.94,1.18.01.04.02.09.02.13.03.19.05.29.23.31.19.02.25-.07.35-.28l.03-.06c.03-.05.07-.08.11-.1.02,0,.04-.02.06-.04l.09-.06.06.09c.29.41.13.82,0,1.17ZM43.63,33.44s0-.04,0-.07c0-.07,0-.13,0-.19,0-.32-.02-.62.27-.89l.09-.09.07.11c.24.35.21.71.18,1.03,0,.1-.02.2-.02.3,0,.07-.05.13-.1.17-.04.03-.1.08-.18.08,0,0-.02,0-.02,0-.11-.02-.23-.11-.29-.21-.04-.08-.03-.16-.02-.23ZM42.44,42.69c.08-.04.16-.07.19-.12l.04-.06h.07c.11.03.21.05.31.07.2.04.37.08.52.06.48-.05.82.13,1.09.58l.02.03c.12.19.23.39.31.61.07.22.13.28.26.27.17,0,.19-.11.21-.36l.12-2.21c0-.08.01-.17.02-.25v-.18s.07-.03.07-.03c.14-.06.3-.12.43-.05.09.05.15.14.17.28.02.09.02.19.02.28,0,.04,0,.08,0,.11.02.28.04.5.06.7,0,.1.02.19.03.28,0,.03,0,.06,0,.08.01.1.02.21,0,.32-.06.38-.12.75-.19,1.14-.03.15-.05.3-.08.45l-.02.09h-1.79v-.1c-.01-.07-.02-.14-.02-.22-.01-.16-.02-.33-.04-.49-.05-.37-.13-.44-.51-.45-.37,0-.74,0-1.09,0-.16,0-.31,0-.46,0h-.08l-.03-.07c-.19-.54.13-.69.35-.79ZM39.04,35.4c.13-.01.25.02.34.1.14.12.18.32.19.47.02.4.01.8.01,1.22,0,.18,0,.36,0,.54v.12l-.9-.06v-.77c0-.14-.02-.26-.02-.38-.02-.24-.03-.45-.03-.66,0-.34.15-.56.42-.58ZM36.83,35.43l.53-.08h.02c.38.09.55.29.56.65,0,.4,0,.8,0,1.22v.63s-.89.05-.89.05l-.22-2.46ZM40.03,47.27l-.31.02v-.1c-.05-.26-.08-.53-.12-.78-.09-.59-.18-1.2-.2-1.81-.02-.6.02-1.21.07-1.81.02-.26.04-.52.05-.78,0-.45-.05-.69-.16-.81-.11-.12-.3-.17-.68-.16-.14,0-.28,0-.42.01-.18,0-.36.01-.54.01-.37,0-.56-.17-.58-.52v-.07s.05-.03.05-.03c.02-.01.03-.02.05-.04.05-.04.12-.1.21-.1.18,0,.35-.02.53-.05.41-.05.83-.1,1.25.08.1.04.22.04.36.04.06,0,.11,0,.17,0,.44.02.63.11.66.62.02.42.02.84.02,1.25,0,.15,0,.31,0,.46v.14c0,.37,0,.75,0,1.13,0,.12.02.22.08.27.05.05.14.08.27.08.15,0,.31,0,.48,0h.35s.12.91.12.91h-1.46l-.26,2.03Z"/>
</svg>