<?xml version="1.0" encoding="UTF-8"?>
<svg id="Layer_1" data-name="Layer 1" xmlns="http://www.w3.org/2000/svg" viewBox="0 0 64 64">
  <path d="M34.92,53.57c1.01-.03,2.02-.05,3.01-.06h.27c.97-.01,1.97-.02,2.96,0,.31,0,.62.05.93.09.5.06.97.13,1.43.06,1.62-.24,3.27-.35,4.86-.47.6-.04,1.21-.09,1.81-.14.19-.02.37-.1.39-.14.03-.07-.03-.29-.13-.41-.46-.53-.82-1.09-1.08-1.73-.06-.15-.19-.31-.34-.41-.43-.3-.49-.7-.53-1.16-.02-.21-.03-.43-.04-.64-.08-1.16-.15-2.36-.69-3.45-.12-.23-.1-.62.03-.85.21-.37.21-.74.19-1.2-.02-.41-.04-.83-.07-1.23-.03-.55-.07-1.13-.08-1.69,0-.29.06-.6.2-.86.21-.42.19-.79-.07-1.16-.21-.3-.42-.62-.63-.92-.46-.68-.93-1.39-1.46-2.02-1.15-1.35-2.03-2.9-2.89-4.39l-.04-.06c-.16-.27-.19-.61-.19-.78-.02-.71-.28-1.02-.95-1.12-.22-.03-.44-.07-.67-.1-.43-.06-.88-.13-1.32-.19-.13-.02-.25-.04-.38-.06-.64-.1-1.25-.19-1.85.01-.82.27-1.57.06-2.26-.18-1.23-.42-2.53-.52-3.76-.56-.28,0-.57.07-.87.16-.15.04-.31.09-.47.12l-.11.02-.04-.1c-.36-.86-.28-1.71-.16-2.35l.03-.16c.07-.37.14-.74.11-1.1-.07-1.09-.15-2.19-.24-3.25-.05-.58-.09-1.16-.13-1.73-.02-.26-.09-.33-.34-.34-.11,0-.23,0-.35,0-.44,0-.89,0-1.29-.15-.66-.25-1.31-.24-2-.24-.2,0-.41,0-.62,0-.06,0-.11,0-.17,0-.25,0-.53.02-.79-.19l-.22-.17.28-.06c.22-.05.44-.1.66-.16.66-.16,1.28-.3,1.91-.44.12-.03.25.01.36.05.05.02.1.03.14.04.98.18,1.96.37,2.93.55.04,0,.08.01.12.01.13,0,.23-.06.28-.13.06-.09.05-.2.03-.28-.04-.15-.14-.3-.23-.42-.39-.53-.71-.96-1.02-1.35-.03-.04-.07-.09-.1-.13-.13-.18-.27-.36-.43-.44-.42-.21-.67-.54-.91-.86l-.06-.08c-.16-.21-.33-.42-.49-.63-.2-.25-.4-.51-.6-.77-.15-.21-.27-.44-.39-.66v-.02c-.13-.24-.26-.48-.38-.72-.22-.44-.45-.89-.69-1.32-.07-.12-.19-.23-.31-.35-.04-.03-.07-.07-.11-.1-.57.38-.87.88-1.09,1.32-.83,1.71-1.91,3.24-3.19,4.56-.5.51-.93,1.08-1.41,1.71-.17.22-.23.42-.2.59.03.13.13.25.29.33.62.33.66.82.64,1.34-.01.42-.04.85-.07,1.27v.2c-.03.21-.04.43-.06.64-.1,1.26-.2,2.56.16,3.81.03.11.02.22.01.32,0,.04,0,.07,0,.11,0,.22-.01.44-.02.66-.02.44-.03.89-.04,1.34,0,.46-.01.93-.01,1.39,0,.71-.01,1.44-.03,2.16,0,.23-.09.49-.23.7-.39.59-.8,1.19-1.2,1.76-.17.24-.33.48-.5.72-.12.18-.24.35-.36.53-.24.35-.48.71-.73,1.06-.27.37-.56.73-.83,1.09-.21.27-.42.53-.62.8-.14.18-.33.55-.05.91.24.32.25.64.25.96v.51c.03.99.05,2,.11,3,0,.11.02.21.02.32.05.56.1,1.14-.28,1.69-.05.07-.06.21-.07.33v.05c-.04.5-.08,1.01-.11,1.54l-.03.52c-.01.16-.02.31-.03.45-.02.35-.04.68-.08,1-.03.23-.08.52-.22.76-.25.42-.51.84-.77,1.24-.2.32-.41.65-.61.98-.11.19-.15.33-.11.4.03.05.12.12.4.15.35.04.7.08,1.05.12.38.05.77.09,1.16.13.35.04.71.05,1.06.05.43,0,.87-.02,1.3-.03.53-.01,1.08-.03,1.62-.03.28,0,.46-.05.56-.15.1-.11.14-.3.13-.6-.08-1.7-.14-3.23-.16-4.77,0-.47.04-.94.07-1.4.03-.3.05-.61.07-.91,0-.22,0-.45-.02-.67-.04-.52-.07-1.05.19-1.57.01-.03.01-.08.01-.13,0-.04,0-.08,0-.12.17-1.7,1.05-3.04,2.64-3.98.08-.05.19-.07.3-.07.13,0,.27.03.38.07.82.32,1.48.85,1.95,1.57.89,1.35,1.07,2.89,1.13,4.09.02.33.01.66,0,.98,0,.29,0,.58,0,.87.02.66.07,1.32.12,1.97.11,1.47.23,2.99.05,4.51-.03.21,0,.34.05.42.07.08.21.12.48.14.56.04,1.12.08,1.67.12.67.05,1.34.1,2.01.14.77.05,1.58.05,2.37-.26.27-.11.58-.13.87-.14ZM24.44,26.62c-.16.15-.31.29-.48.29,0,0,0,0,0,0-.39-.01-.78-.04-1.18-.06-.14,0-.29-.02-.43-.03h-.06s-.05-.06-.05-.06c-.04-.03-.1-.09-.1-.18,0-.29,0-.57,0-.86,0-.95-.02-1.93.01-2.9.01-.38.22-.76.4-1.05.2-.31.42-.48.67-.5.25-.02.49.12.72.39.4.48.57.98.54,1.56-.04.77-.02,1.55,0,2.31,0,.32.02.65.02.97v.06s-.04.04-.04.04ZM39.61,46.65c0,.4,0,.8,0,1.2v.13l-1.56.09-.17-3.29c-.11-.77-.11-1.64.69-2.26l.05-.04.07.02c.57.17.9.59.91,1.16.03.99.02,1.96.02,2.99ZM43.44,46.59c0,.39,0,.79,0,1.18v.13h-1.43l-.19-3.31c-.11-.76-.11-1.54.59-2.11l.06-.05.07.02c.54.18.86.59.88,1.13.03,1,.03,1.97.02,3ZM26.8,22.4l.04-.14.14.05c.37.14.44.45.45.7h0s0,.02,0,.02c-.02.21-.02.42,0,.63.02.43.04.88-.29,1.28l-.16.19-.07-.24c-.2-.63-.25-1.96-.1-2.5ZM33.62,44.78c-.1.49-.08,1-.06,1.53.01.3.02.6.01.9-.03.91-.08,1.82-.13,2.71l-.04.75c0,.07-.03.12-.07.21-.02.05-.05.11-.09.2l-.18.45-.08-.48c-.02-.1-.03-.17-.04-.24-.02-.12-.03-.2-.04-.28v-.03c-.06-.47-.12-.94-.17-1.42-.02-.19-.04-.38-.06-.58-.01-.14-.03-.28-.04-.42-.03-.29-.06-.59-.09-.88-.06-.61-.13-1.25-.19-1.87v-.16c-.05-.34-.08-.69-.02-1.02.16-.82.18-1.68.07-2.64-.07-.61-.09-1.26-.06-1.94.02-.43-.08-.73-.31-.96-.8-.81-1.36-1.79-1.9-2.73-.09-.16-.18-.32-.27-.48h0c-.5-1.08-1.22-1.93-1.92-2.75-.27-.32-.54-.64-.8-.97-.17-.22-.34-.48-.27-.73.06-.21.26-.36.68-.52l.11-.04.06.1c.64,1.06,1.48,2.02,2.28,2.95.17.19.33.39.5.58.43.5.78,1.07,1.12,1.62.21.33.42.67.64.99.28.4.61.78.93,1.15l.18.21c.05.06.16.12.24.12.22.01.45.02.67.04.66.04,1.33.08,1.99.04.79-.05,1.59-.13,2.36-.22.55-.06,1.13-.12,1.69-.17.22-.02.44.03.65.08.1.02.19.05.28.06.11.02.21.04.31.07.22.05.43.1.62.08.71-.11,1.41,0,2.08.1.35.05.72.11,1.07.13.13,0,.25.05.38.1.06.02.12.04.19.06l.17.05-.1.15c-.31.46-.7.65-1.2.6-.63-.07-1.27-.02-2.09.16-.48.1-1,.04-1.35-.02-1.06-.18-2.31-.35-3.57-.27-.43.03-.87.02-1.29.01-.31,0-.63-.01-.95,0-.43.01-.9.05-1.44.12-.47.06-.5.1-.51.55-.02.82-.02,1.55,0,2.23,0,.26.03.52.05.77.05.62.1,1.27-.03,1.93ZM22.13,50.5c0-.34,0-.69,0-1.03v-.21c-.01-.47-.03-.93-.04-1.4-.03-1-.06-2.04-.04-3.06.03-1.48.42-2.67,1.2-3.65.14-.17.32-.31.51-.46.07-.05.14-.11.2-.16,1.33.8,1.77,2.06,2.05,3.29.01.07.02.14.04.2.04.22.07.41.07.6,0,1.29,0,2.58,0,3.86,0,1.2,0,2.41,0,3.61,0,.15.02.3.05.45.01.08.03.17.04.25.02.21,0,.35-.07.43-.07.08-.19.12-.37.14-.5.03-1,.02-1.37,0-.48-.02-.96-.05-1.43-.08-.16-.01-.32-.02-.48-.03-.2-.01-.32-.05-.37-.11-.06-.07-.08-.2-.06-.44.05-.68.07-1.38.09-2.06v-.17Z"/>
</svg>