<?xml version="1.0" encoding="UTF-8"?>
<svg id="Layer_1" data-name="Layer 1" xmlns="http://www.w3.org/2000/svg" viewBox="0 0 64 64">
  <path d="M10.96,28.56s.03,0,.04,0c.21,0,.44.12.58.85.46,2.35.96,4.71,1.39,6.72.04.21.13.4.23.63.05.11.1.23.16.36l.08.21.18-.13c.15-.11.3-.21.44-.3.31-.21.59-.41.87-.62.13-.1.26-.21.38-.32.14-.12.27-.23.41-.33.29-.21.55-.28.76-.22.21.06.39.25.53.58.09.21.15.43.21.67.06.23.12.47.22.7.64,1.53,1.33,3.12,2.04,4.71.19.42.4.65.68.71.28.06.58-.05.96-.36.54-.45,1.06-.93,1.56-1.39.24-.22.49-.45.73-.67.06-.06.13-.12.19-.17.21-.19.42-.39.65-.56.28-.21.53-.29.75-.25.22.04.43.21.62.51.27.42.53.86.79,1.29.32.52.64,1.07.98,1.59.57.89,1.18,1.77,1.8,2.62.28.39.55.58.85.6.3.02.59-.14.93-.5.31-.33.6-.67.91-1.03.14-.16.28-.32.43-.49l.98-1.15c.54-.63,1.07-1.25,1.6-1.86.29-.33.52-.49.74-.5.22-.01.47.13.79.45.38.38.76.76,1.15,1.14.76.77,1.55,1.56,2.36,2.31.48.45.85.62,1.19.57.35-.06.64-.34.99-.96,1.27-2.29,2.41-4.36,3.54-6.48.28-.53.55-.8.81-.83.25-.03.55.16.91.58.59.68,1.25,1.23,2.02,1.87l.49.41.09-.24c.1-.25.19-.49.28-.71.18-.46.35-.89.49-1.32.41-1.3.82-2.63,1.21-3.92.2-.65.4-1.3.6-1.96.01-.04.02-.09.04-.13.02-.08.05-.22.09-.24.39-.29.53-.33.58-.32.21.09.45.38.48.58.18,1.31.26,2.31.27,3.25.01,1.13-.03,2.28-.08,3.4-.01.37-.03.74-.04,1.1,0,.22-.03.46-.1.64-.08.19-.16.37-.23.56-.71,1.72-1.44,3.49-2.96,4.74-.23.19-.43.42-.62.64-.19.22-.37.43-.59.6-.74.6-1.42,1.08-2.06,1.45-.53.31-1.08.59-1.62.86-.45.23-.92.46-1.37.71-.76.42-1.58.57-2.44.73-.38.07-.78.14-1.16.24-1.06.27-2.11.48-3.19.68-.48.09-1.04.19-1.59.2-2.58.02-4.69.01-6.66-.02-.61-.01-1.22-.11-1.76-.28-1.39-.43-2.65-.68-3.85-.75-.95-.06-1.83-.36-2.69-.93-.46-.3-.96-.53-1.45-.75-.1-.05-.2-.09-.3-.14-.49-.23-.99-.45-1.48-.66-.35-.15-.7-.31-1.05-.47h-.02c-.2-.1-.41-.19-.57-.32-.83-.67-1.66-1.36-2.47-2.02l-.69-.57s-.02-.02-.03-.03c-.3-.51-.64-1.01-.97-1.49-.61-.89-1.25-1.82-1.62-2.86-.13-.37-.21-.83-.23-1.35-.05-1.21-.11-2.45-.08-3.68.03-1.21.11-2.44.18-3.63.03-.49.06-.99.09-1.48,0-.1.02-.19.04-.27.12-.49.25-.75.65-.77ZM14.8,17.82c-.07.17-.14.35-.2.52-.13.33-.26.68-.42,1.01-1.03,2.09-1.74,4.4-2.22,7.28-.01.08-.03.16-.04.24-.11.61-.21,1.14.28,1.6.11.11.14.27.16.4,0,.03,0,.05.01.08.14.7.27,1.41.41,2.11v.05c.09.42.15.57.34.55.05-.02.17-.24.23-.36.05-.09.1-.17.14-.24.01-.02.02-.06.03-.1.01-.05.03-.11.06-.17.87-1.75,1.93-3.06,3.26-3.99l.13-.09c1.4-.98,2.84-2,4.53-2.55.48-.16.95-.35,1.41-.55.94-.39,1.92-.79,2.99-.9.21-.02.41-.04.62-.06.67-.06,1.36-.12,2.01-.24,1.09-.21,2.18-.29,3.27-.29,2.33,0,4.63.39,6.87.76.37.06.74.12,1.11.19.34.06.66.19.98.31.11.04.21.08.32.12,1.89.7,3.76,1.69,5.56,2.92,2.04,1.4,3.4,3.18,4.04,5.28.08.26.19.53.31.8.03.07.06.14.09.22.34-.29.41-.64.49-1.01.02-.09.04-.17.06-.26.02-.09.04-.18.06-.26.1-.47.21-.99.72-1.27.38-.21.41-.47.38-.96-.02-.26-.03-.53-.05-.79-.12-2.05-.23-4.16-.71-6.2-.16-.71-.29-1.44-.42-2.14l-.03-.18c-.1-.56-.28-.82-.57-.83-.19,0-.42.13-.64.27-.1.06-.21.13-.32.19,0,0-.01.02-.02.03-.02.03-.05.06-.07.09-.18.18-.37.36-.55.55-.44.44-.89.89-1.36,1.32-.2.18-.5.41-.82.34-.25-.05-.43-.26-.61-.68-.04-.08-.06-.16-.08-.24-.01-.05-.03-.11-.05-.16l-.49-1.37c-.46-1.29-.94-2.62-1.43-3.92-.15-.4-.36-.64-.61-.7-.25-.06-.54.05-.85.33-1.27,1.15-2.32,2.12-3.3,3.05-.54.51-.99.73-1.41.69-.41-.04-.8-.32-1.21-.89-.78-1.08-1.56-2.2-2.3-3.28l-.63-.91c-.25-.36-.5-.55-.75-.56-.22-.01-.46.13-.71.42-.83.99-1.64,1.98-2.49,3.03-.28.35-.57.7-.86,1.06-.39.6-.87.85-1.34.7-.35-.11-.71-.38-1.1-.83-.55-.62-1.08-1.28-1.6-1.9-.32-.39-.64-.78-.96-1.16-.29-.35-.55-.51-.78-.49-.23.02-.45.23-.68.62-.68,1.18-1.35,2.39-2,3.56-.25.45-.5.91-.76,1.36-.04.07-.08.15-.11.22-.07.14-.14.29-.24.43-.17.23-.39.37-.63.4-.24.03-.48-.05-.69-.22-.19-.15-.34-.34-.49-.52-.05-.06-.1-.12-.15-.18-.18-.21-.36-.42-.55-.64-.34-.4-.7-.82-1.06-1.21-.36-.39-.65-.57-.88-.53-.22.04-.43.3-.63.77ZM49.47,34.96c.14.08.34.16.5.08.13-.07.22-.25.25-.5.04-.32,0-.66-.06-1.02-.03-.18-.05-.37-.06-.56-.04-.48-.28-.75-.82-.89-.29-.08-.58-.19-.85-.29-.13-.05-.26-.1-.4-.15-.91-.32-1.58-.27-2.05.17-.72.66-1.46.6-2.16.43-1.13-.27-2.35-.5-3.59-.33-.27.04-.48-.01-.61-.15-.14-.14-.19-.36-.16-.65.1-.78.2-1.56.3-2.34.06-.5-.01-.87-.23-1.11-.22-.24-.58-.36-1.09-.35-.15,0-.29,0-.44.02-.4.02-.81.04-1.22-.01-2.72-.31-5.5-.21-8.19-.11-1.07.04-2.18.08-3.27.09-.49,0-.82.12-1.01.34-.2.23-.27.59-.21,1.11.02.19.05.39.07.58.06.51.12,1.04.16,1.57.03.4.04.65-.11.82-.15.17-.4.19-.82.22-.53.03-1.07.09-1.59.14-.38.04-.77.08-1.15.11h-.1c-.45.04-.91.08-1.36.05-.38-.03-.73-.15-.94-.34-.7-.63-1.45-.49-2.34-.24-.24.07-.48.16-.71.24-.2.08-.41.16-.63.22-.41.13-.6.33-.63.7-.02.25-.03.5-.05.75-.01.22-.03.45-.04.67-.01.19.03.35.11.44.08.08.19.12.34.13.26,0,.58-.08.87-.22,1.23-.62,1.62-.54,2.49.47.34.4.56.34.74.21.87-.57,1.81-.51,2.7-.35,1,.18,1.88.16,2.76-.04h.03c.06,0,.11-.01.16-.01.27,0,.48.06.63.19.17.14.27.36.29.67.02.27.05.54.09.8.03.24.06.48.08.72.11,1.2.53,1.56,1.75,1.49,1.14-.06,2.27-.1,3.39-.09,1.43,0,2.87.03,4.28.05.87.01,1.73.02,2.6.03,1.08.01,1.39-.28,1.5-1.41.03-.32.07-.64.1-.96.02-.19.04-.38.06-.58.06-.6.38-.88.98-.87.45.01,1.04,0,1.59-.1,1.41-.28,2.78.08,3.81.43.96.32,1.62.28,2.36-.14.52-.3,1.14-.58,1.9-.15Z"/>
</svg>