<?xml version="1.0" encoding="UTF-8"?>
<svg id="Layer_1" data-name="Layer 1" xmlns="http://www.w3.org/2000/svg" viewBox="0 0 64 64">
  <path d="M48.25,28.58c.51-.76,1.05-1.57,1.55-2.39.17-.28.37-.65.41-1,.11-.91.17-1.81.18-2.68,0-.42-.08-.9-.24-1.39-.27-.81-.58-1.62-.88-2.4l-.19-.49c-.08-.2-.18-.4-.31-.58-.74-1.07-1.71-1.96-2.65-2.83-.36-.33-.74-.68-1.1-1.03-.31-.31-.53-.16-.59-.1-.19.14-.24.34-.16.62.06.2.16.4.26.6l.04.09c.77,1.54,1.02,3.19,1.18,4.74.03.33-.03.69-.16.96-.26.53-.56,1.05-.85,1.56-.08.14-.16.27-.24.41-.01.03-.03.05-.04.08-.08.15-.17.32-.33.4-.9.47-1.8.9-2.49,1.23-.14.07-.38.04-.49-.06-.2-.16-.38-.35-.58-.54-.08-.08-.16-.16-.25-.24l-.14-.13.17-.09c.69-.35.82-.88.82-1.62,0-.31.03-.61.07-.87.07-.47.14-.95.22-1.42.09-.54.17-1.09.25-1.63.14-.98.27-1.94.37-2.75.06-.5-.08-.81-.43-.93-.34-.12-.71-.09-1.03.08-.34.18-.6.5-.7.88-.21.78-.56,1.38-1.08,1.91l-.14.14-.08-.18c-.04-.1-.09-.19-.13-.27-.09-.18-.16-.33-.21-.5l-.1-.32c-.21-.7-.44-1.42-.61-2.14-.17-.7-.38-1.42-.94-2-.23-.24-.36-.45-.4-.65-.12-.61-.53-.78-1.11-.86-.15-.02-.29-.05-.43-.07-.17-.03-.32-.06-.48-.08-.24-.02-.45.04-.54.18-.08.11-.07.26,0,.42.4.82.3,1.54-.33,2.26-.03.03-.05.08-.08.13l-.03.05c-.14.26-.1.46.13.65.16.12.31.25.46.37.22.18.45.37.67.54.21.16.41.33.43.56.02.23-.13.44-.31.63-.21.23-.41.46-.62.7-.17.19-.34.38-.51.57-.29.33-.34.62-.16.98.12.23.22.47.32.71.08.19.16.38.25.57.1.22.24.35.39.39.16.04.34,0,.54-.15.09-.07.18-.14.28-.22.11-.09.22-.18.34-.26.11-.07.3-.13.45-.09.34.09.78.75.72,1.07-.04.22-.31.47-.54.61-.14.09-.35.18-.52.14-.21-.06-.38-.19-.55-.31-.04-.03-.09-.06-.13-.09-.24-.17-.45-.19-.65-.07-.29.17-.5.32-.47.64,0,.1,0,.2,0,.32,0,.06,0,.12,0,.2v.25l-.21-.13c-.08-.05-.15-.1-.22-.14-.13-.08-.24-.16-.35-.22-.65-.34-.82-.32-1.34.2-.16.16-.32.32-.48.49-.16.17-.33.34-.5.51-.1.1-.21.18-.32.27-.05.04-.09.07-.14.11l-.07.06-.32-.2.04-.1c.03-.08.06-.17.09-.25.07-.19.14-.38.22-.56.2-.48.19-.59-.17-.95-.55-.56-.6-.56-1.34-.15-.44.24-.92.1-1.24-.36-.24-.35-.15-.7.27-1.04.37-.3.68-.19.87-.05.09.07.17.15.25.23.07.07.13.13.2.19.12.1.31.2.49.16.18-.04.3-.21.37-.35.15-.3.3-.61.44-.91.09-.18.17-.37.26-.55.11-.23.08-.42-.11-.62-.15-.15-.3-.31-.44-.46-.19-.2-.38-.41-.57-.6-.35-.34-.51-.74-.5-1.28,0-.42-.01-.85-.03-1.27,0-.19-.01-.39-.02-.58,0-.27-.13-.43-.37-.51-.13-.04-.3-.05-.49.25-.34.52-.68,1.05-1,1.57l-.28.45c-.29.45-.57.9-.87,1.38l-.54.86-.12-.16c-.51-.68-.94-1.3-1.09-2.1-.05-.29-.36-.59-.77-.76-.41-.17-.83-.17-1.07,0-.1.07-.21.23-.26.42-.04.11-.02.27,0,.41v.07c.09.71.18,1.42.27,2.13.12.95.23,1.9.35,2.85.01.11.03.21.04.32.06.5.13,1.03.12,1.54,0,.63.11,1.09.66,1.39l.16.08-.27.28c-.1.1-.18.19-.26.27-.56.57-.62.59-1.31.24h-.03c-.56-.3-1.07-.56-1.6-.77-.39-.16-.66-.41-.83-.78-.07-.14-.13-.28-.19-.43-.16-.37-.33-.75-.55-1.07-.6-.86-.45-1.74-.28-2.33.12-.42.22-.85.32-1.26.25-1.02.5-2.07,1-3.03.02-.03.03-.07.04-.1v-.03c.16-.41,0-.58-.13-.68-.22-.16-.38-.08-.64.17-.63.59-1.26,1.18-1.85,1.75l-.16.15c-.61.58-1.18,1.13-1.57,1.86-.22.42-.47.83-.7,1.22-.2.34-.41.7-.61,1.06-.18.32-.27.59-.28.81-.1,1.78-.16,3.25-.17,4.62,0,.22.11.51.32.84.45.68.92,1.36,1.39,2.01l.32.46s.05.07.08.11c.1.15.2.3.33.38l.28.19c.6.41,1.21.83,1.85,1.16.62.32.92.53,1,.84.08.31-.1.64-.47,1.19-.05.07-.1.13-.15.2-.05.06-.09.11-.13.17-.06.08-.12.16-.18.24-.14.19-.28.37-.36.57-.51,1.32-1.01,2.66-1.48,3.98-.06.17-.11.4,0,.53.09.12.3.18.61.16l1.07-.06-.09.49c-.03.2-.06.37-.1.53-.03.15-.06.29-.09.44-.06.25-.11.51-.15.77-.05.31-.02.51.08.61.1.1.3.13.61.08.08-.01.15,0,.22,0,.03,0,.05,0,.07,0h.11l.02.11c.06.3.11.6.16.89.12.7.24,1.36.38,2.02.05.24.15.39.27.44.13.04.31-.03.5-.2.15-.13.31-.26.47-.39.08-.07.17-.13.26-.21l.13-.11.07.16c.14.3.28.6.42.88.31.63.59,1.22.82,1.83.35.95,1.03,1.6,1.75,2.22.14.12.39.2.45.18.16-.1.3-.14.42-.14.28,0,.49.2.65.36.03.03.05.05.08.08.88.84,1.76,1.64,2.83,2.19.68.35,1.28.69,1.81,1.04.37.24.73.52,1.08.78.2.15.41.31.61.46.41.3.61.26,1-.17.43-.49.89-.95,1.34-1.4.16-.16.32-.32.48-.48.1-.1.24-.22.42-.22h0c.12,0,.25.06.36.18.14.15.38.3.79-.03.29-.24.57-.5.84-.76l.13-.12c.11-.1.22-.22.33-.33.21-.23.44-.46.7-.63.9-.6,1.6-1.32,2.16-2.21.1-.16.21-.33.39-.37.12-.02.25.01.4.12.14.1.3.14.53-.18l.04-.06c.1-.14.21-.29.27-.44.39-.93.77-1.88,1.14-2.79l.14-.34c.07-.18.14-.36.22-.56.04-.1.07-.2.12-.31l.06-.16.37.27c.14.1.25.18.36.26.22.16.38.22.49.18.11-.04.21-.2.28-.48.31-1.23.39-2.23.24-3.16-.03-.17-.02-.35-.01-.51,0-.08,0-.16,0-.24v-.17l.16.03c.38.08.83.15.97.01.13-.13.05-.54-.03-.88l-.27-1.1.08-.05s.07-.05.09-.06c.05-.04.09-.07.15-.08.42-.08.63-.17.68-.28.05-.11-.02-.32-.22-.69-.08-.14-.15-.27-.23-.39-.67-1.01-1.3-2.13-1.98-3.51-.08-.17-.16-.37-.09-.55.05-.13.16-.23.34-.31.07-.03.15-.07.24-.12.04-.02.09-.05.14-.07l.39-.26c.63-.42,1.23-.82,1.81-1.24.17-.12.33-.3.48-.53ZM37.78,20.01c.06-.06.12-.13.18-.21.23-.28.5-.6,1.01-.52.24.04.63.23.54,1.06v.05s-.04.03-.04.03c-.33.32-.58.46-.82.46-.02,0-.04,0-.06,0-.31-.03-.55-.31-.83-.71l-.06-.09.08-.08ZM24.8,19.33c.49-.25.83.03,1.09.33l.02.02v.03c.1.28.08.55-.04.78-.09.18-.24.3-.41.35-.06.02-.12.03-.19.03-.34,0-.71-.24-.84-.58-.14-.36.02-.77.37-.95ZM24.53,23.64c.29.05.59.06.88.08.64.03,1.31.06,1.91.47.37.25.8.23,1.26.21.11,0,.21,0,.32-.01.51,0,1.02,0,1.52,0,.34,0,.68,0,1.02,0,.42,0,.85,0,1.27,0,1.07.01,2.18.02,3.27-.05.54-.04,1.1-.2,1.63-.36.26-.08.54-.16.81-.23.23-.06.51-.1.87,0l.23.06-.17.17s-.06.07-.09.11c-.08.09-.16.19-.28.25-.92.44-1.74.83-2.6,1.2-.22.09-.47.12-.7.12-.07,0-.13,0-.19,0-.7-.03-1.41-.07-2.09-.11-.93-.05-1.89-.1-2.84-.14-.38-.01-.76.02-1.14.05-.2.02-.41.03-.62.04-.09,0-.18.01-.27.02-.26.03-.52.06-.76-.03-.68-.24-1.36-.53-2.01-.8-.26-.11-.51-.22-.77-.32l-.04-.02c-.24-.2-.39-.33-.54-.46l-.37-.32.48.08ZM23.14,37.54c-.12-.13-.24-.26-.36-.38-.26-.27-.5-.52-.72-.78-.71-.85-.35-1.71.05-2.44l.16-.29.09.31c.03.08.05.16.07.22.04.12.07.22.09.33.12.91.51,1.65,1.19,2.25.48.43.48.51.5,1.28v.42s-1.07-.93-1.07-.93ZM24.98,33.42l-.03-.07c-.2-.42-.41-.85-.51-1.31-.1-.45-.27-.69-.61-.88l-.03-.02c-.3-.17-.72-.39-.61-.95v-.05s.07-.04.07-.04c.25-.19.46-.35.65-.28.16.06.32.12.49.18.46.16.94.33,1.36.67.66.55,1.42,1.01,2.09,1.41.52.31,1.04.58,1.66.54.23-.01.42.08.5.25.09.18.04.4-.14.6-.19.22-.4.43-.6.64-.14.14-.28.28-.41.43-.17.19-.37.27-.61.27-.09,0-.18-.01-.29-.03-.25-.06-.51-.09-.77-.13-.17-.02-.34-.05-.52-.08-.84-.15-1.39-.52-1.69-1.15ZM38.21,42.2c-.16.94-.5,1.86-.83,2.75-.08.22-.16.44-.24.66-.09.24-.21.38-.38.43-.18.05-.39-.02-.61-.2-.19-.15-.37-.32-.54-.47-.15-.13-.3-.27-.45-.39-.28-.24-.53-.28-.77-.14-.37.21-.72.11-1.01-.01-.85-.37-1.73-.39-2.69-.06-.27.09-.62.09-.9,0-.38-.13-.67-.06-.99.23-.29.28-.6.57-.93.83-.2.16-.39.24-.56.24-.05,0-.1,0-.15-.02-.21-.06-.38-.26-.49-.59-.11-.33-.22-.67-.34-1-.22-.65-.45-1.32-.65-1.99-.08-.25-.09-.56-.04-.96,0-.07.02-.14.03-.21.08-.61.15-1.2-.14-1.76-.05-.09-.02-.2,0-.28,0-.03.01-.05.02-.08l.02-.14.14.02s.07,0,.11,0c.12,0,.26,0,.32.12.23.36.42.73.58,1.08.07.17.04.37.02.53-.17,1.12.32,2.03.83,3l.06.11c.09.17.17.26.23.27.06.01.16-.04.29-.16.1-.08.2-.16.3-.24.32-.24.62-.48.73-.87.03-.12.16-.17.28-.21.04-.01.07-.03.1-.04l.09-.05.07.08c.45.51.98.58,1.52.6.33.01.67.02.99.02.21,0,.42,0,.63,0,.37,0,.69-.12,1.02-.42.16-.14.3-.24.46-.23.17.01.3.15.48.35.33.38.65.69.96.93.15.11.24.16.31.14.1-.02.2-.2.27-.33.54-1,.97-1.91.78-2.99-.11-.6.05-1.09.46-1.46.06-.05.13-.08.21-.12.03-.02.07-.03.11-.05l.19-.09v.21c.02.32.05.64.08.94.07.71.13,1.38.02,2.04ZM37.07,34.59c-.2.02-.4.06-.59.1-.13.02-.26.05-.39.07-.04,0-.09.02-.15.03-.1.02-.2.05-.29.05-.07,0-.14-.02-.19-.06-.48-.43-.96-.91-1.46-1.46-.06-.07-.04-.17,0-.25,0-.02.15-.4.35-.42,1.2-.14,2.13-.78,3.1-1.46.25-.18.51-.36.78-.53.44-.28,1.03-.62,1.73-.75.22-.04.67-.13.82.42l.02.06-.04.05c-.27.35-.51.59-.77.8-.26.2-.4.39-.46.66-.1.4-.25.82-.48,1.32-.36.81-1.02,1.28-1.96,1.39ZM42.01,35.99c-.33.78-.9,1.27-1.5,1.8-.28.24-.57.5-.84.78l-.19.2-.04-.28c-.07-.5,0-.85.27-1.17l1.21-1.46c.22-.68.37-1.26.54-1.87l.07-.24.17.19c.68.78.65,1.26.32,2.04Z"/>
</svg>