<?xml version="1.0" encoding="UTF-8"?>
<svg id="Camada_1" xmlns="http://www.w3.org/2000/svg" version="1.1" xmlns:xlink="http://www.w3.org/1999/xlink" viewBox="0 0 340 340">
  <!-- Generator: Adobe Illustrator 30.4.0, SVG Export Plug-In . SVG Version: 2.1.4 Build 226)  -->
  <defs>
    <style>
      .st0 {
        fill: #b63131;
      }

      .st1 {
        fill: #b26059;
      }

      .st2 {
        fill: #edb352;
      }

      .st3 {
        fill: #5e89e6;
      }

      .st4 {
        fill: #4db5fa;
      }

      .st5 {
        fill: #dae5eb;
      }

      .st6 {
        fill: url(#Gradiente_sem_nome);
      }

      .st7 {
        fill: #ed6960;
      }

      .st8 {
        fill: #e7eded;
      }

      .st9 {
        fill: #863131;
      }

      .st10 {
        fill: #a4bdce;
      }

      .st11 {
        fill: #d57370;
      }

      .st12 {
        fill: #403c73;
      }

      .st13 {
        fill: #ebc8b5;
      }

      .st14 {
        fill: #1c6691;
      }
    </style>
    <linearGradient id="Gradiente_sem_nome" data-name="Gradiente sem nome" x1="292.4" y1="732.6" x2="292.8" y2="782.1" gradientTransform="translate(0 -502)" gradientUnits="userSpaceOnUse">
      <stop offset="0" stop-color="#edcfc9"/>
      <stop offset="1" stop-color="#eca397"/>
    </linearGradient>
  </defs>
  <g id="Layer_7">
    <g>
      <path class="st4" d="M287.6,108.4l-24.4-42.9c-.8-1.3-.7-3,.2-4.3l24.1-34.9c1.6-2.3,4.9-2.3,6.6,0l25.5,35.1c.8,1.1.8,2.7,0,3.8l-31.9,43.3h-.1Z"/>
      <path class="st14" d="M316.9,64.5l-18.8,6.3c-2,.7-3.4,2.4-3.7,4.5l-4,29.2,28-37.9c.8-1.1-.3-2.5-1.5-2.1Z"/>
      <path class="st5" d="M284.9,41.1l-12.2,17.7c-.6.9-.2,2.2.9,2.4l14,3.7c1.1.3,2.1-.6,2-1.7l-1.8-21.3c-.1-1.5-2-2-2.9-.8Z"/>
      <path class="st0" d="M314.4,71.9l-24.9,30.8,18.9,16.8,10.2-25.9c1-2.4,1.5-5,1.5-7.6,0-4.4-.7-10.4-5.8-14.1h0Z"/>
      <path class="st7" d="M276.5,112.4l24,23.8v203.8h-14.9v-188.6c0-4-1.4-7.9-3.9-11-4.4-5.3-10.1-15.5-5.2-28Z"/>
      <path class="st12" d="M46.4,340h189.1l13.9-40.7s-29.4-85.4-63.1-123.4H61.7s-49.7,94.1-15.3,164.1Z"/>
      <path class="st3" d="M167,190.4s77.6,57.6,68.5,149.6h28.3s11.5-97.4-68.5-170.8l-28.3,21.2h0Z"/>
      <path class="st12" d="M76.3,145.5s49.5,8,106.9,2.9l4.2,22.1s-85.1,11.7-111.1-25Z"/>
      <polygon class="st13" points="113.9 147.8 113.9 172.9 142.3 172.9 142.3 157.4 113.9 147.8"/>
      <path class="st12" d="M195.3,169.2l-28.3,21.2s4.6,3.4,11.4,9.9h3.4s20,2,28.7-15.7c-4.6-5.2-9.7-10.4-15.1-15.4h0Z"/>
      <path class="st3" d="M31.7,220.1s-17.4,64.1-10,119.9h24.8s-8.5-40.9-1.6-78l-13.2-41.9Z"/>
      <path class="st13" d="M162.9,226.6s17.8,17.6,39.5,31.8c4.5,3,9.8,4.6,15.2,4.6h65.8v-23.9l-58-2.1c-4.3-.1-8.4-2-11.4-5.1-9.3-9.7-30-31.9-38.9-46.3-16.3,1.9-15.9,19.9-12.2,41.1h0Z"/>
      <path class="st11" d="M175.1,185.5c-12.7,1.5-15.3,12.8-14,27.7,5.8-3.9,10.2-7.4,13-9.8,2.4-2,5.4-3.1,8.5-3.1h3.3c-4.2-5.2-8-10.4-10.7-14.8h-.1Z"/>
      <path class="st13" d="M31.6,212.8s-4.1,16.1-5.3,38.5c-.3,5.6,1.8,11.1,5.8,15.2,7.6,7.7,20.8,20.4,31.5,26.9l-2.3,11c-1.2,5.8,1.8,11.7,7.3,14.1l4.1,1.8,16.3-31.1s-25.7-24.2-34.2-37.3l8.8-31.1-32-8.1h0Z"/>
      <path class="st8" d="M78.1,257.8s0,14.9-4.9,82.2h102.9s-2.4-49.3-3.7-94.8l-94.3,12.7h0Z"/>
      <path class="st11" d="M57.8,241.5l5.8-20.6-32-8.2s-2.4,9.4-4.1,23.9c10.5,2.6,20.6,4.2,30.3,4.8h0Z"/>
      <path class="st10" d="M78,256.7s7.4,28.6,43.8,55.1c6.8,5,15.4,3.9,21.2-2.9,10-11.7,24.5-33.1,29.6-63.7,0,0-94.6,11.5-94.6,11.5Z"/>
      <path class="st8" d="M70,176.4c5.2,6.7,8.1,16.6,8.1,26.9v54.5s15,20.7,41.8,38.1c6.6,4.3,14.3,3.1,20.1-3,8.8-9.3,21.9-25.4,32.4-47.8v-50c0-8.1,1.8-15.9,5.1-22.2"/>
      <path class="st10" d="M171.8,185.5l-28,4.8-67.6,32.3s-7.1-3.7.7,3.4c1.1,1,.5,14.1,1.3,15.4,39.6-5.5,82.1-26.5,94.3-36.2-.4-4.7,1.5-14-.6-19.7h0Z"/>
      <path class="st3" d="M76.3,145.5s28.2,23.3,80.8,22.6l4.2,25.1s-52.2,44-123.7,31.1c-6.4-1.1-11.1-6.5-11.5-13-.3-5.9-.2-13.8,1.2-23.2.8-5.5,6.3-8.9,11.6-7.4l2.1.6s.2-7.2,2-15.8c1.2-5.7,6.7-9.5,12.5-8.7l7.7,1.1s0-3.2,1.9-8.4c1.7-4.5,7-6.4,11.1-4.1h0Z"/>
      <path class="st3" d="M152,169.9s15.5-5.4,30.2-20.7c2.8-2.9,7.8-1.9,9.2,1.9,2.3,6.4,4.7,16,4,27.4-.4,6.4-5.5,11.5-11.9,12.1l-26.3,2.1-5.1-22.7h0Z"/>
      <path class="st7" d="M300.5,136.2l-37.3-35.5c-4.5-4.2-6.4-10.6-4.7-16.6,1.1-3.8,3.5-7.7,9.1-10.8l37.6,40c3,3.3,4.3,7.9,3,12.2-1,3.3-3.2,7.1-7.7,10.6h0Z"/>
      <path class="st12" d="M96.8,167.6c-10.7-5.6-22.6-12.9-29.8-20.9-.8.8-1.4,1.7-1.8,2.8-2,5.2-2,8.4-2,8.4,0,0,12.1,8.6,31.4,14.8,3.3,1,5.2-3.5,2.2-5.1Z"/>
      <path class="st0" d="M281.7,140.4c.2.3.5.6.7.9h0s7.8,7.4,12.5,16.1c1.5,2.7,3.5,4.1,5.7,4.8v-26l-24-23.8c-5,12.5.8,22.7,5.2,28h-.1Z"/>
      <path class="st12" d="M160.3,186.7v-.6c-13.2,2.6-73.8,12.5-117.8-17.3-1.2,7.1-1.4,12.6-1.4,12.6,0,0,62.7,31.6,119.2,5.4h0Z"/>
      <path class="st2" d="M160.4,161.9h0c6.1,0,11.6,3.9,13.6,9.6,1.1,3.2,2,7.1,2.2,11.7.4,6.8-3.9,12.9-10.4,14.8l-.9.2c-7.7,2.2-15.7-2.2-17.9-9.9-1.1-3.8-1.6-8.4-1-13.8.9-7.3,7.1-12.7,14.4-12.6h0Z"/>
      <polygon class="st11" points="266.3 262.9 283.3 262.9 283.3 239 264.4 238.4 266.3 262.9"/>
      <path class="st6" d="M296.8,272.7h-8.4c-6.6,0-11.9-5.3-11.9-11.9v-19c0-6.6,5.3-11.9,11.9-11.9h8.4c6.6,0,11.9,5.3,11.9,11.9v19c0,6.5-5.3,11.9-11.9,11.9Z"/>
      <g>
        <path class="st9" d="M83.7,76.7s-10.2,31.3,19.2,67c0,0,7-7.3,9.8-18.2"/>
        <path class="st9" d="M158,72.3s24.8,21.6,17.9,67.4c0,0-9.8-2.6-17.8-10.6"/>
        <path class="st11" d="M142.3,162.5c-6.1-.4-17.5-2.6-28.4-11.6v-19.1l28.4,6.5v24.3h0Z"/>
        <path class="st13" d="M91.3,108s-3.8,18.2,7.8,21.1c0,0,5.6,1.8,11.1-4.2,0,0-.2,3.8.4,8.3.7,4.5,3.2,8.4,6.9,11,5.4,3.8,15.2,9.6,29.1,13.2,4.2,1.1,8.7-.5,11.3-4,0,0,0-.1.1-.2,3.2-4.5,5.1-9.9,5.6-15.4.6-6.8,1.7-21.1,2.1-34.6.2-6.7-30.4-37.2-30.4-37.2l-44.6,31.1.6,10.9h0Z"/>
        <path class="st11" d="M138,116.9h-.8c-1.1-.3-2.3-.6-3.2-.8-1.6-.4-2.6-2-2.2-3.6.4-1.6,2-2.6,3.6-2.2,1,.2,2.3.5,3.4.9,1.6.4,2.5,2.1,2.1,3.7-.3,1.3-1.6,2.2-2.9,2.2v-.2Z"/>
        <path class="st11" d="M156.5,117c-1.3,0-2.4-.8-2.9-2.1-.5-1.6.3-3.3,1.9-3.8,0,0,1.4-.5,3.2-1,1.6-.5,3.3.4,3.7,2,.5,1.6-.4,3.3-2,3.7-1.7.5-3,.9-3,.9-.3,0-.6.2-.9.2h0Z"/>
        <path class="st11" d="M135.3,66l-33.3,23.2c5.7,7.7,13.1,19.4,13.1,19.4,0,0,4.8-1.5,8.1-6.4l2.6,3.1c.8,1,2.2,1.3,3.4.8,2.9-1.4,8.2-4.8,12.6-12.9,0,0,10.4,8.6,24,10.1.2-6.7.2-13.2,0-18.5l-30.3-18.7h-.2Z"/>
        <path class="st1" d="M184.6,93.2s.9-19.9-2.7-28.2c-3.5-8-11.6-18.2-25.3-21,0,0,6.6-1.7,11.2-9.6,0,0-10.1.2-16.5-2.5,0,0-30.7-10.2-44.8,21.4,0,0-10.7.2-18.7,10.1h0s-17.7,18.4-9.5,53.9c0,0,7.4-2.7,13-9.4h0c.2-.5,1-2.5,2.8-4.3,4.2-4.2,11.4-3.6,14.8,1.3,1,1.5,1.8,3.5,1.8,6.1,0,0,9-2.3,11.1-14.5l4,3.6c.7.6,1.7.7,2.5.2,3.2-2.1,10.6-8.7,8.1-24.9,0,0,23.7,21.3,48.2,17.7h0Z"/>
      </g>
      <circle class="st2" cx="100.7" cy="127.6" r="4.6"/>
    </g>
  </g>
</svg>