<?xml version="1.0" encoding="UTF-8"?>
<svg id="Camada_1" xmlns="http://www.w3.org/2000/svg" version="1.1" xmlns:xlink="http://www.w3.org/1999/xlink" viewBox="0 0 340 340">
  <!-- Generator: Adobe Illustrator 30.4.0, SVG Export Plug-In . SVG Version: 2.1.4 Build 226)  -->
  <defs>
    <style>
      .st0 {
        fill: #dac2a6;
      }

      .st1 {
        fill: #ed685f;
      }

      .st2 {
        fill: #b26059;
      }

      .st3 {
        fill: #ffc72e;
      }

      .st4 {
        fill: url(#Gradiente_sem_nome_2);
      }

      .st5 {
        fill: url(#Gradiente_sem_nome);
      }

      .st6 {
        fill: #ecb3aa;
      }

      .st7 {
        fill: #9eb7cb;
      }

      .st8 {
        fill: #ffd43b;
      }

      .st9 {
        fill: #863131;
      }

      .st10 {
        fill: #d57370;
      }

      .st11 {
        fill: #cb9b90;
      }
    </style>
    <linearGradient id="Gradiente_sem_nome" data-name="Gradiente sem nome" x1="69" y1="103.2" x2="38.7" y2="156.1" gradientTransform="translate(0 339.9) scale(1 -1)" gradientUnits="userSpaceOnUse">
      <stop offset="0" stop-color="#e8eded"/>
      <stop offset="1" stop-color="#c3d3dd"/>
    </linearGradient>
    <linearGradient id="Gradiente_sem_nome_2" data-name="Gradiente sem nome 2" x1="167.5" y1="145.5" x2="175.1" y2="-196.3" gradientTransform="translate(0 339.9) scale(1 -1)" gradientUnits="userSpaceOnUse">
      <stop offset="0" stop-color="#ede5dc"/>
      <stop offset="1" stop-color="#ddc1ba"/>
    </linearGradient>
  </defs>
  <g id="Layer_20">
    <g>
      <path class="st1" d="M202.8,30.8s-15.8,1.5-28.4,22.2c0,0,4.3,1.8,9.7,1"/>
      <path class="st2" d="M180.9,48.6s15-9.9,24.5,4.7c1.4,2.2,2.4,4.3,3.1,6.2l-10.9,21.8-16.6-32.7Z"/>
      <path class="st9" d="M185.7,53l-1.5,2,13.4,26.3c6.7-4.1,14.5-10.9,10.9-21.8-13.9,3.6-22.8-6.5-22.8-6.5Z"/>
      <path class="st6" d="M25.1,142.4h0c1.5-2.1,4.2-2.9,6.6-2.1,5.2,1.9,13.6,6.6,16.7,18.7l-9.9,4.5s-3-8.5-11.6-13.2c-2.8-1.5-3.7-5.3-1.8-7.9Z"/>
      <path class="st6" d="M51.8,135.8h0c3-.2,5.8,1.9,6.3,4.9,1.1,5.8,2.5,16,.2,25.9l-12.2-.4s1.7-13.1.3-23.8c-.4-3.3,2-6.3,5.4-6.5Z"/>
      <path class="st6" d="M110.5,182.6s-19,15.5-32.3,25.5c3.5,9.4,7.7,18.2,13.6,25.6,9.6-6.2,19.3-13.4,26.7-21.3l6.3-17.4-14.3-12.4Z"/>
      <path class="st6" d="M33.2,161.3s-5.5-.5-10.5,2.3c-2.8,1.6-4.5,4.5-4.6,7.7,0,1.9,0,4.3.5,6.6.5,2.9,3.2,5,6.2,5,1.2,0,2.5-.1,3.9-.4,0,0-.9,11.8,9.3,15.8,0,0,12.8,1.1,20.3-10.5l1-27.7s-10.4-7.2-26.1,1.1Z"/>
      <path class="st5" d="M78.2,208.1c-3.2,2.4-6.1,4.5-8.3,6,0,0-6.6-12.4-11.7-26.3l-20.3,10.5s5.3,34.5,13.9,56.4c0,0,20-8.2,40-21.1-2.9-13.2-10.5-22.3-13.6-25.6Z"/>
      <path class="st7" d="M40.5,212.8c.4,1.9.8,3.8,1.2,5.9,11.4-2.7,18.9-9.7,23.1-14.9-.9-1.9-1.8-4-2.8-6.3-3,4.2-10,12.4-21.5,15.3Z"/>
      <path class="st7" d="M51.8,254.7s6.5-2.8,13.4-6.2c11.7-13.6,9.9-32.4,9.3-37.7-1.2.9-3.6,2.6-4.6,3.3,0,0-1.3,28.4-18.1,40.6Z"/>
      <path class="st10" d="M40.4,176.2c0-2.6-.8-5.1-2.3-7.1t0,0c-.6-.8-1.9-.4-1.9.6h0s0,0,0,0v5.1c0,3.8-2.6,7-6.3,7.6l-1.2.2s-.2,2.3.5,5.2c9-.8,11.1-6.3,11.3-11.6Z"/>
      <path class="st10" d="M110.5,182.6s-3.8,3.1-9.3,7.5c2.2,5,8.1,21.4.3,36.9,6.2-4.5,12-9.4,16.9-14.6l6.3-17.4-14.3-12.4Z"/>
      <path class="st6" d="M237.3,175s-10.6,28.9,1.5,57.2c.2.6.5,1.1.7,1.6l-19.1,14.1c-2.4-6.6-6-14.3-10.7-19.1l-7.2-35.7s23.2-13.6,34.8-18.1Z"/>
      <path class="st10" d="M205.7,209.1c12.2-8.5,22.2-14.9,28.1-18.5,1.2-9.4,3.5-15.6,3.5-15.6-11.6,4.4-34.8,18.1-34.8,18.1l3.2,16Z"/>
      <path class="st10" d="M209.7,228.8c3.1,3.1,5.6,7.4,7.7,11.9,12.5-18.9,3.6-48.6,3.6-48.6l-17.2,7.7,5.8,29Z"/>
      <path class="st9" d="M134,151.8s8.9,6.6,22.8,4.6l2.2,22.2-25-26.9Z"/>
      <path class="st4" d="M228.8,340l-12.6-98.2c0-8.3,0-15.6,0-19.4.2-8-.8-14.4-2.1-19.1h-49.4c0,0-49.5.5-49.5.5-1.2,4.7-2.2,10.9-2,18.6.1,4.5,1.5,16.3,5.3,27.2-1.8,22.4-5.8,71.9-5.8,90.4h116.1Z"/>
      <path class="st11" d="M176.7,230.5c13.8-10.8,26.9-20.1,37.5-27.2-1.8-6.8-4.2-10.2-4.2-10.2l-45.2,10.1-45.2-10.1s-2.5,3.6-4.3,10.7c15.6,14.1,34.1,23.7,44.9,28.6,5.5,2.5,11.8,1.7,16.6-2Z"/>
      <polygon class="st6" points="176.8 120.4 180.9 160.4 153.7 179.5 149.7 139.6 176.8 120.4"/>
      <path class="st2" d="M185.4,144.3l-27.4,25.2-24.1-17.7c-3.3-2.4-7.7-2.3-10.9.3-3.6,2.9-7.9,7.5-10.4,13.8,0,0-4.3.6-8.7,3.6-4,2.8-4.6,8.4-1.5,12.1,7,8.2,23.2,24,53.8,40.1,4.2,2.2,9.2,2.2,13.4,0,8.3-4.5,23.3-13.2,38.7-25.1,13.4-10.4,23.3-15.8,29.2-18.5,4.1-1.9,6.1-6.5,4.7-10.7-1.9-5.8-5.8-13.7-13.7-20.7-4.4-3.9-10.9-4.1-15.4-.4-2.1,1.7-4.5,3.9-7,6.6l-8-8c-3.5-3.5-9.1-3.6-12.7-.3Z"/>
      <path class="st6" d="M257.4,303.2l18.8-16.9s-24.3-25-36.6-52.6c-4.9,2.4-13,7.1-19.1,14.1,2.6,7,3.8,12.8,3.8,12.8,8.6,25.7,33.1,42.6,33.1,42.6Z"/>
      <path class="st10" d="M245.6,293.9c8,8.7,11.7,9.3,11.7,9.3l18.8-16.9s-2.6-1.9-10.2-11.6"/>
      <path class="st9" d="M154.2,166.7c-1.2,1.1-2.4,2-3.6,2.7-2.9,1.6-8.3,1.3-12.2.8-.9-.1-1.3,1.1-.5,1.5l5.4,3c3.4,1.9,7.5,1.4,10.4-1.2l4.3-4-3.8-2.8Z"/>
      <path class="st9" d="M118.6,156.3c-2.3,2.6-4.4,5.7-5.9,9.5,0,0,10,12,23.1,22.5,1,.8,2.2-.5,1.5-1.5-5.8-7.4-14.9-20-18.6-30.5Z"/>
      <path class="st9" d="M242.3,167.1c-1.9-5.8-5.8-13.7-13.7-20.7-4.4-3.9-10.9-4.1-15.4-.4-2.1,1.7-4.5,3.9-7,6.6l-7.8-8c-3.5-3.5-9.4-3.6-13-.3l-2.8,2.6c2.2.6,6.3,2.6,10.6,9.2-7.9,11.6-17.3,22.9-28.1,34.1-.9,1,.4,2.4,1.4,1.6,8.8-6.6,18.4-15.2,28-25.6h0s16.4-16.7,26.9-1.7c0,0,7.6,9.4,5.9,18.8,4.1-2.5,7.6-4.2,10.2-5.4,4.1-1.9,6.1-6.5,4.7-10.7Z"/>
      <path class="st10" d="M178.9,140l-2.1-19.7-27.1,19.2,2,18.8c13.7-3.3,22.4-11.9,27.2-18.3Z"/>
      <path class="st3" d="M180.1,117.9s13.1-1.6,18.4-19c6.8-22.6-4.4-47.1-26.1-56.6-1.7-.8-3.6-1.5-5.5-2.1-7.9-2.6-16.5-3-24.5-.6-4.9,1.5-10.6,5.9-13.1,10.2,0,0-20.9,3.4-20.2,31.1.7,28.9,32.6,31.9,32.6,31.9l38.5,5.1Z"/>
      <path class="st6" d="M129.7,75.7s3.9,26.7,37,30.8c0,0,.5-3.2,2.7-6.1,3.7-4.7,11-4.5,14.1.5,1.3,2.1,2.2,5.1,2.2,9.5,0,0,.2,9.3-8.9,9.9v5.4c0,3.3-1.3,6.5-3.6,8.8-4,4.1-11.2,10.3-21.5,14.5-3.5,1.4-7.5,1-10.6-1-6.3-4.1-16.3-12.7-19.9-28.3,0,0-7.2-30,8.5-44Z"/>
      <path class="st10" d="M131,114.9c0,0-.2,0-.2,0-1.9-.2-3.6-.8-3.8-.9-1.5-.6-2.3-2.4-1.7-3.9.6-1.5,2.3-2.3,3.9-1.7.3.1,1.3.4,2.1.5,1.6.1,2.9,1.6,2.7,3.2-.1,1.6-1.4,2.8-3,2.8Z"/>
      <path class="st10" d="M143.7,115c-1.5,0-2.9-1.2-3-2.8-.1-1.7,1.1-3.1,2.7-3.2.8,0,1.8-.4,2.1-.5,1.5-.6,3.3.2,3.9,1.7s-.1,3.3-1.7,3.9c-.2,0-1.9.8-3.8.9,0,0-.2,0-.3,0Z"/>
      <g>
        <path class="st8" d="M324.1,201.4s0,0,0-.1v-.5c-.2-.2-.2-.4-.3-.6,0-.2,0-.2,0-.3s0-.2,0-.2c0,0,0,0,0-.1,0-.1,0-.2,0-.2s0,0,0-.1l-.2-.8c-.2-.7-.3-1.3-.4-2-.1-.5-.2-1.1-.3-1.6v-.6c-.1-.2-.1-.4-.1-.5l-.3-1.2c-.1-.6-.3-1.3-.4-1.9v-.3s-.1-.6-.1-.6c0-.3-.1-.5-.2-.8,0-.1,0-.2,0-.3l-.2-1.1c-.1-.6-.3-1.3-.4-2,0,0,0-.2-.1-.2-.2-.3-.4-.5-.6-.6-.1,0-.3-.1-.4-.1h-.6c0,0,0,0-.1.1l-.7.3c-.3.1-.7.2-1,.4,0,0-.2,0-.2,0h-.1s0,0-.1,0c-.5.2-1,.4-1.6.6,0,0-.1,0-.2,0-.3.1-.6.2-1,.4,0,0,0,0,0,0-.1,0-.2,0-.3.1,0,0-.1,0-.2,0,0,0-.2,0-.2,0,0,0-.2,0-.2,0-.2,0-.3,0-.4.2,0,0,0,0,0,0,0,0-.1,0-.2,0,0,0,0,0-.1,0h-.2c0,.1-.2.2-.3.2-.1,0-.1,0-.2,0,0,0-.1,0-.2,0,0,0-.1,0-.2,0,0,0-.1,0-.2,0,0,0-.2,0-.3.1-.1,0-.2,0-.3.1,0,0-.1,0-.2,0,0,0,0,0-.1,0-.4.1-.8.3-1.2.5l-.5.2c0,0-.2,0-.2,0,0,0,0,0-.1,0,0,0,0,0-.1,0-.1,0-.3.1-.5.2h-.3c0,0,0,0-.1,0h-.2c-.2.1-.3.2-.5.3,0,0-.2,0-.3,0-.9.6-1,1-.8,2,0,0,0,.2,0,.4h0c0,.2,0,.2,0,.2s0,0,0,.1c.1.5.2.9.4,1.4,0,.1,0,.2,0,.2s0,0,0,.1l.2.8c.1.5.3,1.1.4,1.6,0,.3,0,.5.1.8,0,.4.2.7.3,1.1v.5c.1.3.2.6.3,1,0,.3,0,.5.1.8.1.5.3,1,.4,1.6.1.6.3,1.2.4,1.8h0c-.2,0-.3,0-.4,0,0,0,0,0-.1,0-1.1.1-2.2.3-3.2,1-.4.3-.8.7-1.2,1-.2.1-.3.3-.5.5-.1.1-.2.2-.2.3,0,0,0,0,0,.1v.3c-.2.4-.4.8-.5,1.4v.4c0,0,0,.1,0,.2,0,0,0,0,0,.1,0,0,0,0,0,.1.1.9.6,1.7,1.3,2.2.7.5,1.5.7,2.4.7s.5,0,.7,0c1.9-.3,3.4-1.3,4.3-2.9.6-1.1.8-2.2.5-3.4l-2.5-11.4c0,0,0-.2,0-.3.9-.3,1.9-.6,2.8-1,.1,0,.2,0,.3,0,0,0,0,0,.1,0,0,0,.2,0,.3-.1h.2c.1-.1.2-.1.4-.2.6-.2,1.2-.5,1.9-.7.2,0,.3,0,.5-.1.1,0,.2-.1.4-.2l.6-.2s0,0,0,0c.8-.3,1.5-.6,2.4-.9.2,1.1.4,2.1.6,3.2v.5c.2.6.3,1.1.4,1.7,0,.2,0,.3,0,.5,0,.3.2.6.2,1,0,.3,0,.5.1.8l.2.7c0,0,0,.2,0,.2-2.2,0-4,.7-5.3,2.3h0c0,.1,0,.2-.1.2v.4c-.3.3-.4.6-.5,1,0,0,0,0,0,.1,0,.5,0,.8,0,1.2,0,0,0,.1,0,.2l.3,1c0,0,0,.1,0,.1,1.5,1.8,3.8,2.1,6.2.7.2-.1.4-.3.6-.4l.2-.2c.2-.2.4-.4.6-.6,0,0,0,0,0,0l.6-1s0,0,0,0c0-.1.1-.2.2-.3,0,0,0,0,0-.1,0-.5.2-1,.3-1.7,0-.3,0-.4,0-.6Z"/>
        <path class="st8" d="M276.2,208.1h-.2c0,0-.1,0-.2-.1-.3,0-.7,0-1.1-.1,0,0-.1,0-.2,0-.3,0-.6,0-.9-.1,0,0,0,0-.1,0-.2,0-.3,0-.5,0,0,0-.1,0-.2,0,0,0,0,0,0,0,0,0-.1,0-.2,0,0,0-.2,0-.2,0h0s-.1,0-.1,0h-.3c0,0-.1,0-.2,0,0,0,0,0,0,0,0,0,0,0-.2,0,0,0-.1,0-.2,0,0,0-.1,0-.2,0-.2,0-.4,0-.6,0h-.5c0,0-.1,0-.1,0h-.1c0,0-.1,0-.2,0h-.1s-.1,0-.1,0c-.1,0-.2,0-.3,0,0,0-.2,0-.3,0-.7,0-.9.3-1.1,1,0,0,0,0,0,.1l.5.2h-.5s0,0,0,0c0,.2,0,.4-.1.7h0c0,.2,0,.2,0,.3,0,.4-.2.8-.3,1.2l-.2.8c0,.1,0,.3,0,.4h0c0,.2,0,.2,0,.3,0,.1,0,.3-.1.5l-.3,1.3c0,.2-.1.5-.2.7,0,0,0,0,0,0-.6-.2-1.2-.4-1.9-.3-.3,0-.6.1-.9.2h-.4c0,.1-.2.2-.2.2,0,0-.1,0-.1.1l-.2.2c-.1.1-.3.3-.5.5v.2c-.2,0-.2.1-.2.2,0,0,0,0,0,.1-.2.5-.1,1.1.1,1.6.3.6.8,1,1.5,1.2,1.1.3,2.1.2,3.1-.4.6-.4,1-1,1.2-1.7.3-1.1.6-2.2.9-3.3l.8-2.9,1.4.2h.1s0,0,.1,0c0,0,.2,0,.3,0h.1s.1,0,.1,0h1.1c.1.2.2.2.4.2,0,0,.1,0,.2,0h.3c0,0,0,0,0,0,.4,0,.8,0,1.2.1l-.4,1.4c0,0,0,0,0,.1,0,0,0,.1,0,.1v.4c-.2.2-.2.4-.3.5v.4c-.2.1-.2.3-.2.4,0,.1,0,.2,0,.3v.4c-1.2-.5-2.2-.5-3.2,0,0,0-.1,0-.2,0,0,0,0,0-.1,0l-.2.2c-.1.1-.2.2-.4.3,0,0,0,0,0,0-.2.2-.2.4-.3.6,0,0,0,.1,0,.2,0,0,0,.2,0,.3,0,0,0,.1,0,.2,0,0,0,.1,0,.2.3,1.5,1.7,2.1,2.9,2.1s.2,0,.2,0c.2,0,.4,0,.6,0,.2,0,.3,0,.5-.1,0,0,0,0,.1,0,.2,0,.3-.2.6-.3.1,0,.2-.1.2-.2,0,0,0,0,0,0l.2-.2c.1-.2.2-.3.4-.6,0,0,0-.2.1-.3,0,0,0,0,0-.1v-.2c0-.1.1-.3.1-.3h0c0-.2,0-.3,0-.4,0,0,0-.1,0-.2v-.5c.2-.3.3-.7.4-1,.1-.4.2-.8.4-1.2,0,0,0,0,0-.1,0,0,0-.1,0-.2.1-.5.3-1.1.4-1.7,0,0,0-.2.1-.3,0-.2,0-.4.1-.6h0c0-.2,0-.2,0-.3l.4-1.6c0,0,0-.2,0-.2,0-.2,0-.3-.2-.5,0-.1-.2-.2-.3-.3Z"/>
        <path class="st8" d="M291.8,181.4c-.2-1.1-.7-2-1.6-2.8-.2-.2-.3-.3-.6-.5l-.5-.4c-.6-.2-1.1-.5-1.7-.8,0,0-.1,0-.2-.1-1.4-.5-2.4-1.1-3.1-1.9-.3-.4-.8-.6-1.4-.4,0,0,0,0-.1,0-.7.4-.7,1.1-.6,1.4v.2c0,0,0,.1,0,.2.4,1,.7,2,1.1,3v.4c.5,1,.9,1.9,1.2,2.9l1.2,3.3c0,.1,0,.2,0,.2h0c0,.1,0,.2,0,.2.1.4.3.8.5,1.2,0,0-.2,0-.3,0-1.2,0-2.1.6-3,1.1,0,0-.1,0-.2.1,0,0,0,0,0,0-.1.2-.3.3-.4.5l-.4.4s0,0,0,0c0,0-.1.1-.1.2,0,.1-.1.2-.2.3,0,0,0,.1-.1.2-.1.4-.3.7-.5,1.2,0,.3,0,.5,0,.7v.2s0,0,0,.1v.2c0,.2,0,.3,0,.4,0,0,0,.1,0,.1l.3.6s0,0,0,.1c.3.3.5.6.7.9,0,0,0,0,.2.1.6.3,1.3.5,2.1.5s.2,0,.2,0h.3s0,0,.1,0c.8-.2,1.7-.5,2.5-1.1,0,0,0,0,.1,0,0,0,.1,0,.2-.1,0,0,.1-.1.2-.3l.7-.8.2-.3c0-.1.1-.2.2-.4l.2-.3s0,0,0-.1h0c0-.2,0-.3,0-.5,0-.1,0-.2,0-.3.2-1.1,0-2.1-.4-3.2-.1-.4-.3-.8-.4-1.2v-.4c-.1,0,0,.1-.2.3.1-.2,0-.5,0-.7,0,0,0,0,0,0h0c-.1-.4-.3-.8-.4-1.2l-.3-.9c0,0,0-.1,0-.2,0,0,0,0,0-.1-.3-.8-.6-1.6-.9-2.4,0,0,0-.1,0-.1,0-.1,0-.2-.1-.3,0,0,0,0,0,0,.1,0,.2,0,.3,0,1.1,0,1.9.5,2.5,1.4,0,.2.2.3.2.5v.4c.1.3.1.5.2.8v.2c0,.2,0,.4,0,.6,0,.1.1.3.3.3.3.1.5.2.7.2.1,0,.3,0,.4-.1,0,0,0,0,0,0,0,0,0,0,.1-.1.2-.2.3-.4.5-.7,0,0,0,0,0-.1,0-.3.1-.6.2-1v-.3c0,0,0,0,0-.1v-.4c0-.4,0-.8-.2-1.3Z"/>
      </g>
      <g>
        <path class="st9" d="M279.8,234c0,.8,0,1.6,0,2.6,0,.9.1,1.6,0,2.3-.7-.1-1.4-.2-2-.3-1.2-.2-2.4-.4-3.6-.6-.7-.1-1.4-.3-2.2-.4-.2,0-.4,0-.6-.1-.2,0-.4,0-.6,0-.2,0-.4,0-.6-.1-.1,0-.2,0-.4,0-.2,0-.3,0-.4-.1-.1,0-.2,0-.4,0-.3,0-.6,0-.8-.2-.1,0-.2,0-.4,0-.4,0-.7,0-1.1-.1-.6-.1-1.1-.2-1.8-.4-.6-.1-1.1-.2-1.7-.3-1.5-.2-3-.5-4.5-.7-.5,0-1-.1-1.6-.2-.6-.1-1-.2-1.5-.2-1.5-.2-3-.5-4.6-.7-.5,0-1-.1-1.5-.2-.9-.2-1.7-.4-2.6-.5-.2-.6-.6-1.2-.5-2,0-1.4,1.3-3,2.9-3.4.8.1,1.5.2,2.2.3.8.1,1.6.2,2.5.3.2,0,.5,0,.9.2.9.1,1.7.2,2.4.3,0,0,.1,0,.4.1.8.1,1.4.2,2.1.3.1,0,.3,0,.5.1.7.1,1.2.2,1.8.2.1,0,.3,0,.5.1.9.1,1.7.2,2.4.4.2,0,.5,0,.9.2.7.1,1.2.2,1.8.2,0,0,.1,0,.3,0,.8.1,1.5.2,2.3.3.2,0,.5.1.9.2.6,0,1.1.2,1.6.2.2,0,.4,0,.7.1.5,0,.8.2,1.1.2,1.8.3,3.7.6,5.5.8,0,0,0,0,0,0,0,.4,0,.8,0,1.1Z"/>
        <path class="st8" d="M266.6,236.8c-.2,1.2-.6,2.4-.9,3.5-1.3,4.9-2.7,9.8-4,14.7-1,3.8-2,7.5-3.1,11.3-1,3.8-2.1,7.5-3.1,11.3-.9,3.3-1.8,6.6-2.7,9.9-.3,1.1-.6,2.1-.9,3.2-.2.6-.2,1.3-.4,2-.5,0-1.1,0-1.7-.2.3-1.3.6-2.6.9-4,1-3.7,2-7.4,3-11.1,1-3.6,2-7.2,3-10.8.8-3.1,1.7-6.1,2.5-9.2,1-3.6,2-7.3,3-10.9.8-3,1.7-6.1,2.5-9.1,0-.2,0-.5,0-.9.5,0,1.1.1,1.7.3Z"/>
        <path class="st8" d="M257.7,293.1c1-4.1,2.2-8.2,3.3-12.4,1.5-5.5,3-11.1,4.5-16.6,1.5-5.6,3.1-11.2,4.6-16.9.8-3,1.6-6,2.4-9,0,0,0-.2,0-.3-.2,0-.3-.2-.5-.3.6,0,1.3.2,2.1.4-.4,1.7-.8,3.4-1.2,5.1-1.7,6.4-3.5,12.7-5.2,19.1-1.5,5.5-3,10.9-4.5,16.4-1.1,4-2.1,7.9-3.2,11.9-.2.8-.4,1.5-.6,2.4-.6.1-1.1.2-1.8.2Z"/>
        <path class="st8" d="M241.7,291c0-.3.2-.5.3-.8,1-3.6,2-7.3,3-10.9,1.1-4,2.2-8.1,3.4-12.1.8-3,1.7-6.1,2.5-9.1,1.3-4.7,2.6-9.4,3.9-14.1.8-2.9,1.6-5.8,2.4-8.7.5,0,1,0,1.5.1-.2,1.1-.4,2.1-.7,3.2-.8,2.8-1.5,5.5-2.3,8.2-1,3.7-2.1,7.4-3.1,11.2-1.4,5-2.8,10-4.2,15-1.1,4.1-2.3,8.3-3.4,12.4-.4,1.6-.8,3.1-1.2,4.7,0,.3-.1.7-.1,1.1-.6,0-1.2-.1-1.9-.3Z"/>
        <path class="st8" d="M251,234.2c-.3,1.4-.6,2.7-.9,4.1-1.1,3.9-2.1,7.7-3.2,11.6-1.1,4-2.2,8-3.3,12-.8,2.9-1.6,5.8-2.4,8.7-1.1,4-2.2,8-3.4,12.1-.5,1.9-1.1,3.8-1.6,5.8,0,.3,0,.6-.1,1-.6-.1-1.1-.4-1.7-.6.3-1,.6-1.9.9-2.8,1.3-4.6,2.5-9.1,3.8-13.7,1.2-4.6,2.5-9.1,3.8-13.7,1.1-3.8,2.1-7.6,3.2-11.3.6-2.1,1.2-4.3,1.8-6.4.6-2.2,1.2-4.4,1.8-6.8.5,0,1,0,1.5.1Z"/>
        <path class="st2" d="M302.4,225.7v-.4c-.3-.8-.6-1.6-.9-2.6-1.2-2.2-2.9-3.6-5-4.6-.1,0-.2-.1-.5-.2-.5-.1-.9-.2-1.3-.3-.1,0-.2,0-.4-.1-.2,0-.2,0-.3,0-.1,0-.3,0-.6,0-1,0-1.9,0-2.8,0-.1,0-.3.1-.5.1-.2,0-.4,0-.5,0-.1,0-.3.1-.5.2-.7.2-1.3.4-1.9.6-.1.1-.3.2-.5.3-.2.1-.3.2-.4.2-1.1.5-2,1.4-2.8,2.2-.5.4-3.6,3.9-3.6,6.6s-.4,2.8-.4,3.1c-.2,3.1.6,5.6.6,18.1s0,4.6-.2,6.9c-.3,4.7-.9,9.3-2,13.8-1,4.1-2.4,8-4.4,11.7-1.6,2.9-3.4,5.7-5.9,8-.9.9-2.9,2.9-5.5,3.3-.9.1-1.7.3-2.7.4-.6,0-1.2,0-1.8.1-2.1,0-4.1,0-6.1-.3-.6,0-1.1-.1-1.8-.2-1.7-.3-3.4-.6-5.1-.9-.4,0-.7-.1-1.2-.2-.7-.1-1.2-.2-1.9-.4-1.9-.3-3.6-1.1-5.5-1.6-.6-.2-1.2-.4-1.8-.7-2.4-.9-4.6-2-6.5-3.6-.5-.5-2.2-3.3-2.4-4.2-.4-1.6-.5-3.2-.4-4.8.2-2.6.8-5,1.6-7.4,1.3-3.7,3-7.3,4.9-10.7,2.1-3.8,4.5-7.4,6.9-11,2.2-3.3,4.3-6.7,6.4-10.1.7-1.1,1.2-2.2,1.9-3.4-.2-.7-.5-1.3-.5-2,0-1.4,1.3-3,2.8-3.4,0-.2.1-.5.2-.8,0-.2,0-.2.1-.3,0-.1,0-.2,0-.4,0-.2,0-.2,0-.3,0-.6.1-1.1.2-1.8,0-1.1,0-2,0-2.9,0-.2-.1-.4-.2-.7,0-.3,0-.4,0-.5-.1-.2-.2-.5-.3-.9,0-.2,0-.3,0-.4,0,0-.1-.2-.2-.4-.4-.9-.8-1.8-1.2-2.6-1.6-2.5-3.8-4.1-6.6-4.8-.1,0-.3,0-.5,0-.2,0-.2,0-.3-.1-.3,0-.5,0-.9,0-.6,0-1.1,0-1.6,0-.2,0-.4.1-.7.1-.2,0-.3,0-.4,0-.3.1-.6.2-1,.3-.3,0-.5,0-.6,0-.1,0-.2.2-.4.3-.8.2-1.3.7-1.9,1.1-2,1.5-3.1,3.5-3.6,5.9,0,.1,0,.2,0,.4,0,.8,0,1.5,0,2.2,0,0,.1.2.1.4,0,.2,0,.4,0,.5,0,.2.1.4.2.7.2.5.4.9.6,1.2.4.6.7,1.3,1.3,1.7.8.5,1.4,1.4,2.5,1.4,1.7,0,3.7.1,4.9-.6,0,.2,0,.5-.2.6-.6,1.1-1.3,2.2-2.1,3.4-1.2,1.8-2.4,3.6-3.6,5.3,0,.1-.1.2-.3.4-.2.3-.4.6-.6.8-.1.2-.3.4-.5.7-.3.3-.5.6-.7.9-.1.2-.3.4-.5.8-.2.3-.4.6-.6.8-.2.3-.4.6-.6.9-.2.3-.4.5-.5.7-.2.3-.4.6-.6.9-.7.9-1.3,1.7-1.9,2.5,0,.2-.2.3-.4.6-.7.9-1.3,1.7-1.9,2.6,0,.2-.2.3-.3.6-1,1.5-2,2.9-3,4.4-.8,1.2-1.6,2.3-2.4,3.5-.7,1.1-1.3,2.3-1.9,3.4-.7,1.2-1.4,2.5-2,3.8-.3.6-.6,1.3-.9,1.9-1.1,2.8-2.4,5.6-3.1,8.5,0,.1-.1.2-.2.4,0,.3-.1.6-.1.8,0,.1,0,.2,0,.4,0,.2,0,.2-.1.3,0,.3-.1.6-.2,1.1-.1.4-.2.7-.3,1,0,.1,0,.2,0,.4,0,.2,0,.4-.1.5,0,.1,0,.3,0,.5,0,.3-.1.5-.1.7,0,.1,0,.2,0,.4,0,.2,0,.4-.1.5,0,.1,0,.3,0,.6,0,.4,0,.6-.1.8,0,.3,0,.6,0,1.1,0,.5,0,1-.1,1.4,0,1.1.3,7.3,1.3,11.8,0,.3,0,.4.1.5.2.6.4,1.2.7,1.9,0,.2,0,.4.1.5.2.5.5,1,.7,1.6,0,.2.1.4.2.5.8,1.3,1.5,2.6,2.3,4,.1.2.1.3.2.4.3.4.6.8,1,1.2.1.2.2.4.3.5.2.2.4.5.6.7,0,0,2.4,2.3,2.8,2.5,3.4,2.9,7.3,4.9,11.4,6.4,3.2,1.1,6.5,1.8,9.9,2.1,1.5.1,3,.3,4.5.2,4.6-.1,9-1,13.3-2.9,3.4-1.5,6.6-3.4,9.5-5.7,2.6-2.1,5-4.4,7.1-7,.1-.1,6.7-9.3,8.9-14.2,2-4.4,3.4-9,4.5-13.6,1.5-6.8,2-13.8,2.2-20.7,0-3.6,0-7.1-.1-10.7,0-1.2-.5-12.3-.6-13.1l.5.5c1.5,1.4,3.4,2.2,5.4,2.3h.2c1.8-.2,3.2-.9,4.3-2,1.1-1.1,1.9-2.5,2.3-4.1,0-.1,0-.2,0-.4,0-.2,0-.2,0-.3,0-.8,0-1.6,0-2.6ZM250,304.7c-.4,3.2-2.8,5.1-5.9,4.6-2.2-.4-4,.4-5.4,2.1-.3.4-.6.8-.9,1.2-.3.4-.6.6-1.1.5-.4,0-.6-.5-.6-.8,0-.3-.1-.6-.1-.9-.2-2.1-1.1-3.7-3.1-4.5-.5-.2-1.1-.3-1.6-.5-1.1-.6-1.9-1.3-2.3-2.3-.5-1.4-.3-2.8.4-4.1.2-.4.6-.4.7,0,.5,1.1,1.4,1.5,2.4,1.8,1.8.6,3,1.7,3.5,3.5,0,.2.1.4.2.7.1.3.3.5.6.4.2,0,.3-.3.4-.5,0-.2,0-.4,0-.6,0-.9.1-1.8,0-2.7-.3-1.5.1-2.9,1-3.9.7-.9,1.6-1.6,2.5-2.3.4-.3.9-.2,1.1.3.8,1.5,1.2,3.1,1,4.8-.2,1.1-.9,1.9-1.4,2.7-.5.7-.9,1.4-1.3,2-.1.2-.3.5,0,.8.3.3.6,0,.9-.2.3-.3.6-.5.9-.8,1.3-1,2.8-1.5,4.5-1.2,1,.1,1.9,0,2.8-.5.5-.4.9,0,.8.6ZM282.5,224.4c0,0-.1.1-.2.2-.1.1-.3.3-.4.5.1-.2.3-.3.4-.5,0,0,.1-.1.2-.2.1,0,.2-.2.3-.2,0,0-.2.2-.3.2Z"/>
        <path class="st0" d="M271.5,237.5c-.1,0-.3,0-.5,0,.1,0,.3,0,.5,0Z"/>
        <path class="st0" d="M268.2,237c0,0-.2,0-.3,0,0,0,.2,0,.3,0Z"/>
        <path class="st0" d="M269.4,237.2c0,0-.2,0-.3,0,0,0,.2,0,.3,0Z"/>
        <path class="st0" d="M270.3,237.3c0,0-.2,0-.3,0,0,0,.2,0,.3,0Z"/>
        <path class="st8" d="M231,306.3c-1-.5-1.8-1.2-2.2-2.3-.5-1.4-.3-2.8.4-4.1.2-.4.6-.4.7,0,.5,1.1,1.4,1.5,2.4,1.8,1.8.6,3,1.7,3.5,3.5,0,.2.1.4.2.7.1.3.3.5.6.4.2,0,.3-.3.4-.5,0-.1,0-.3,0-.5,0-1.2-.1-2.4-.2-3.5,0-1.2.3-2.3,1.1-3.2.7-.9,1.6-1.6,2.5-2.3.4-.3.9-.2,1.1.3.8,1.5,1.2,3.1,1,4.8-.2,1.1-.9,1.9-1.4,2.7-.5.7-.9,1.4-1.3,2-.1.2-.3.5,0,.8.3.3.6,0,.9-.2.3-.3.6-.5.9-.8,1.3-1,2.8-1.5,4.5-1.2,1,.1,1.9,0,2.8-.5.5-.3.9,0,.9.6-.4,3.2-2.8,5.1-5.9,4.6-2.2-.4-4,.4-5.4,2.1-.3.4-.6.8-.9,1.2-.3.4-.6.6-1.1.5-.4,0-.6-.5-.6-.8,0-.3-.1-.6-.1-.9-.2-2.1-1.1-3.7-3.1-4.5-.5-.2-1.1-.3-1.6-.5Z"/>
      </g>
      <path class="st6" d="M254.6,295.2c2.9-4.3,7.4-9.4,13.3-12.5,4-2.1,8.9-1.5,12.4,1.3,2.3,1.8,5,4.2,7.7,6.7,4.4,4.2,4.6,11,.7,15.6-3,3.5-6.9,7.4-11.4,10.6-4,2.9-9.4,2.7-13.4-.2-2.4-1.8-5.2-4.2-8.2-7.4-3.7-3.9-4.1-9.8-1.1-14.2Z"/>
    </g>
  </g>
</svg>