<?xml version="1.0" encoding="UTF-8"?>
<svg id="Camada_1" xmlns="http://www.w3.org/2000/svg" version="1.1" viewBox="0 0 340 340">
  <!-- Generator: Adobe Illustrator 30.4.0, SVG Export Plug-In . SVG Version: 2.1.4 Build 226)  -->
  <defs>
    <style>
      .st0 {
        fill: #b26059;
      }

      .st1 {
        fill: #454558;
      }

      .st2 {
        fill: #f57f4c;
      }

      .st3 {
        fill: #92ab7e;
      }

      .st4 {
        fill: #485438;
      }

      .st5 {
        fill: #863131;
      }

      .st6 {
        fill: #ffe23b;
      }

      .st7 {
        fill: #d57370;
      }

      .st8 {
        fill: #d73e39;
      }

      .st9 {
        fill: #ffb9ab;
      }
    </style>
  </defs>
  <g id="cor_urso">
    <path class="st0" d="M106.4,192.4c1,.7,2.2.7,3.3.3.7-.2,1.4-.6,2.5-1,0,0,0,0,0,0,5.1-54.2,32.9-71.8,44.5-77.3,2.6-1.3,5.7-3.5,5.4-6.4-1.4-15.9,8.9-23.1,13-29.5,1.6-2.5,1.3-5.8-.8-8h.1c-12.6-13.1-27.2-28.1-48.7-38.8l1.1-7.7s-28.4,3.2-44.3,17c0,0-4.7-17-21.3-14.5-5.8.8-10.7,7.4-14.2,14.6-3.2,6.6-5.2,13.8-5.3,17.5l-5.5,1.8c-2.4.8-4.6,2.2-6.4,4-.9.9-1.9,2-3,3.3-7.1,8.2-17.8,23.6-14.7,39,0,0,3.2,11.6-1.5,23.8h0c.5.6,4.8,3.9,9.8,6.6,3.6,1.8,5.5,5.9,4.5,9.8-.8,3-2.4,5.5-4.4,7.8.5.4,8,5.3,21.1,2.5,0,0,16.5-7.1,22.9-19.9,0,0,1.5,2.4,3.2,7.9.2.5.4.9.5,1.4-.1-.5-.3-1-.4-1.4,5.4,11.8,17.6,34,38.5,47.3ZM47,91l-2.2,3.6c-.7,1.1-1.8,1.7-3,1.7s-1.2-.2-1.8-.5c-1.7-1-2.2-3.1-1.2-4.8l2.2-3.6c1-1.7,3.1-2.2,4.8-1.2s2.2,3.1,1.2,4.8ZM89.2,36.1c.9,5.5.9,11.2.9,14.7s1,3.1,2.6,3.7c1.7.6,3,1.7,4,2.7.7.8,0,2-1,1.7-5.1-1.3-11.7-1.8-11.7-1.8h0c.2-8.1-1.5-16.2-1.5-16.2,2-1.8,4.2-3.4,6.6-4.8ZM75.9,123.9c.6-2.7,1.7-6,3.9-8.9h0c2.2-2.8,6.4-4.2,6.4-4.2,0,0,13-2.7,15.7-13.8l-9.4-3.7c-.9-.4-1-1.6-.2-2.1,3.4-2,9.8-6.5,13.2-14l-5.6-3c-1.1-.6-.7-2.2.5-2.2l16.8-.5c2.1,0,3.5,2.1,2.6,3.9-1.7,3.7-5.2,9.2-11.7,13.1l9.2,3.4c1.6.6,2.3,2.5,1.4,4-3,5.2-11.3,15.9-29.7,19.8-1.4.3-2.8.8-4,1.5-1.6.9-4.5,4.2-6.9,7.7-.8,1.1-2.5.4-2.2-1ZM56.6,57.3h.1c-.8,0-1.4-.7-1.4-1.5,0-7.5,2-12.2,4.1-15,2.7-3.6,8.3-3.2,10.6.7,2.7,4.8,3.5,11.4,3.7,14.3,0,.8-.6,1.5-1.4,1.5h-15.7Z"/>
    <path class="st0" d="M109.6,224.9c-1.2.4-2.6,0-3.5-.8-5.9-5.3-24.1-22.8-33-47.6,0-.2,0-.3,0-.5,0,.2,0,.3,0,.5.8,13.8-.8,26.5-3.7,49.1,0,0-8.7,45,34.1,56.8,2.6.7-7.6-20.9,3.7-51.6.7-2.1,1.6-4.1,2.5-5.9Z"/>
  </g>
  <g id="nariz_urso">
    <path class="st1" d="M20.5,137c-5-2.7-9.3-6-9.8-6.5,0,0,0,0,0,0,0,0-3.7,4.7-1.6,14,2.1,9,11.5,10.2,11.5,10.2,0,0,0,0,0,0,2.1-2.4,3.7-4.9,4.4-7.8,1-3.9-.9-8-4.5-9.8Z"/>
  </g>
  <g id="cabelo">
    <path class="st2" d="M174.4,121.4c1.2-1.3,2.4-2.4,3.6-3.3h0c.9-.7,1.7-1.3,2.6-1.8,0,0,0,0,0,0,4.9-3,9.6-3.3,13.1-2.5,3.7.7,7,2.8,9.3,5.8,1,1.4,2.4,3.1,4.1,5,4.3-10.2,6-20,6.7-26-7.6-1.7-7.8-10.1-7.8-10.1,0-.4,0-.7,0-1.1-1.3-18.5-3.9-28.2,18.1-4.3.2.2.2.4.2.4v.2c7.3-1.5,8.8-8.6,8.9-13.1,0-3.5,1.1-6.9,2.9-9.9,3.4-5.8,9.6-13.7,18.1-13.7s9.1,2,11.4,4.4c2.9,2.8,4.2,6.8,4.1,10.8v2.2c2.3-3.2,6.5-10.4,5.4-21.4-.5-5.2-2.6-9.3-5.2-12.5-6.3-7.8-16.8-11.2-26.2-7.6-.4,0-.8.3-1.2.5-5.1,2.3-10.9,3-16.4,1.6-6.8-1.8-16.5-1.9-24.8,7.1-4.5,4.9-7.3,11.2-8.1,17.8-.5,3.9-.9,9-.9,14.6s-3.4,15.2-9.3,20.3c-7.1,6.1-15.1,17.3-14.9,36.2,3.7-.2,6.4.4,6.4.4Z"/>
  </g>
  <g id="sombra_cabelo">
    <path class="st8" d="M246.6,121.8c.3,4.3.2,8.3,0,11.1,0,0,0,0,0,0h0c0,.1,17.7-2.3,17.7-2.3.6,0,1.1-.1,1.7-.1,0-.3,0-.7,0-1.1,0-5.2-1.4-10.1-3.8-13.9-4.4,4.5-10.6,6-15.7,6.3Z"/>
  </g>
  <g id="cor_pele">
    <path class="st9" d="M318.5,271.2c-2.8-22.1-10.1-37-15.2-45-3.2-5-4.8-10.9-4.4-16.9,2.1-33.5-7.7-50.1-13.6-56.9.6,9.4.3,17.6-.6,24.8,1.9,12.1,2.3,29.9-6,47.3,0,0,.7,17.8-2.9,28.9,0,0-6.3-2.7-11.4-7.9.3-7,.4-13.2.4-17.7-.3-.9-.4-1.9-.5-2.9-7.8,4.9-19.2,8.3-35.9,9.1-82.6,3.9-73.8-58.6-68.2-80.6,1.8-7-2-14.1-8.5-16.5-3.4,0-5.9.9-5.9.9,0,0,0-.1,0-.2-.2,0-.3,0-.3,0,0,0,0,0,0,0h-.1c-25.6,17.1-26.8,57.7-26,75.2.2,5.3-.8,10.6-3,15.4-12.5,28-6.4,60.2-6.4,60.2-4.6,17.1-2.4,34.9-1.4,44.3.4,4.1,3.9,7.2,8,7.2h20.7c4.5,0,8.1-3.6,8.1-8.1v-17.1c0-2.7-1.1-5.2-3-7-2.1-2-3.2-4.8-3-7.6l1.5-24c12.9-17.1,13.6-41.7,13.6-41.7,9.2-5,12.3-17.1,12.3-17.1,0,0,1.3,11.4,9.2,25.9,4.7,8.7,5.7,18.6,5.7,25.3.1,0,.2,0,.2,0v-.2c-.1,0,15.8,14.8,42,14.8s28.8-6.9,35.2-11.7c1-.8,2.2-1.2,3.4-1.4,1-8.5,1.5-16.9,1.8-24.3,5,5.1,11.3,7.8,11.3,7.8-.8,12.2,5.2,20.2,7.9,23.2,1.8,1.9,3.5,4,5,6.2,7.7,11.7,8.2,22.4,8.2,22.4-5.4,3.7-7.1,10-7.5,15.6-.5,7.6,5,14.1,12.5,14.9,9,.9,16.3-.3,21.4-1.7,5-1.4,8.4-6,8.4-11.2-.3-28.5-13.1-51.7-13.1-51.7ZM247.8,249.5c-2,2.7-6,6.3-13.2,5.5.8,3.5,1.1,8.5-1.4,12.4-.6,1-2.2.4-2.1-.7.4-4.3-.4-8.3-1.2-11.1-9.6,2.4-15.4-1-18.3-3.7-.7-.6-.1-1.8.8-1.5,3.6,1,9.8,2.3,16.2.7,2.4-5.4,2.2-11.6,1.6-15.8-.2-1.2,1.5-1.8,2.1-.7,2.1,3.5,3.9,9.2,1.2,15.6,5.5,1.1,10.6-.8,13.4-2.1.7-.3,1.4.7.9,1.4ZM316.6,304.1c-9.8-2.9-19.7,1.4-19.7,1.4,0,0-.2-3.9-2-9.4,12.9-.9,19.8,1.6,23.4,4.5,1.7,1.4.4,4.1-1.7,3.5Z"/>
    <path class="st9" d="M265.5,51.4c-2.3-2.4-5.9-4.4-11.4-4.4-8.5,0-14.7,7.9-18.1,13.7-1.8,3-2.8,6.4-2.9,9.9-.1,4.5-1.6,11.6-8.9,13.1v-.2s0-.2-.2-.4c-22-23.9-19.4-14.2-18.1,4.3,0,.4,0,.7,0,1.1,0,0,.3,8.4,7.8,10.1,1.9.4,4.1.5,7-.1,0,0,0,.2.1.3,4.2,11.1,7.8,21.3,19.6,22.8,1.7.2,3.8.3,6.1.2,5.1-.3,11.2-1.7,15.7-6.3,3.1-3.2,5.4-7.8,6-14.6l.7-21.2c-.4.2-.8.4-1.2.4-1.4.2-2.7.5-2.7.5h-.5,0c-1.4.1-2.7-.9-3-2.4-.3-1.6.8-3.2,2.4-3.5,0,0,1.4-.3,2.9-.5.8-.2,1.6,0,2.3.5l.3-10.3v-2.2c.2-4-1.1-8-4-10.8ZM244.5,76.4c.3-1.6,1.9-2.7,3.5-2.4l3.3.6c1.6.3,2.7,1.9,2.4,3.5-.3,1.4-1.5,2.4-2.9,2.4h-.6l-3.3-.6c-1.6-.3-2.7-1.9-2.4-3.5Z"/>
  </g>
  <g id="cor_roupa">
    <path class="st3" d="M246.7,133h0c0-.1,0,0,0,0-.5.8-5.6,7.9-17.3,7.2-7.6-.4-16.4-8.9-22.1-15.6-1.6-1.9-3-3.6-4.1-5-2.3-3-5.6-5.1-9.3-5.8-3.6-.7-8.2-.5-13.1,2.5,9.7,4.7,14.2,17.4,15.8,23.1,1.2,4.1,3,8.1,5.5,11.6,6.8,9.4,16.5,14,24.2,16.2,1.8.6,1.3,3.3-.6,3.1h0c-15.7-1.5-30.8-11.4-35.1-25.5-2.3-7.5-5.5-12.8-8.4-16.4-5.9,1.5-5,8.2-5,8.2.3,1.6.6,3.1,1,4.5,6.1,23.2,25.5,40.8,49.2,44.3,23,3.4,39.5-7.6,48.5-15.9,0,0,0-.1.1-.2h0c0,0-.2.1-.2.2-15.2,24.7-41.5,25.4-41.5,25.4-49.4,1.1-61.6-44.3-61.6-44.3-5.7-17.4-24.4-13.5-26.8-12.9,0,0,0,.1,0,.2,0,0,2.5-.9,5.9-.9,5.3,0,12.8,2.3,16.5,13.7,0,0-28.9,80.6,60.3,76.3,0,0,48.9,7.6,56.2-49.7.9-7.2,1.2-15.4.6-24.8-.1-2.1-.3-4.3-.5-6.5,0,0,0-.3,0-.7-1.6-8.9-9.7-15.1-18.6-14.7-.6,0-1.1,0-1.7.1l-17.7,2.4Z"/>
    <path class="st3" d="M224,283.1c-26.2,0-42.1-14.8-42.1-14.8v.2c.1,0,0,0,0,0-1.2.5-7.6,3.4-9.7,14.9-.2,1-.3,1.9-.3,2.8-.5,10.5,8,16.6,8,16.6,5.3-3.3,8.2-8.6,8.2-8.6,9.5,14.3,23.2,17.9,23.2,17.9,6.2-3.5,10-11.2,10-11.2,12,18.9,24.7,25.4,24.7,25.4,6.6-5.3,11.1-15,11.1-15,3,9.7,8.8,21.1,13.3,26.8.9,1.1,2.1,1.7,3.4,1.8,2.3.2,4.8-1.2,5.4-3.8,6.8-28.4-3.5-52.9-10-63.1-1.4-2.3-4-3.4-6.5-3.1-1.2.1-2.4.6-3.4,1.4-6.4,4.8-9,11.7-35.2,11.7Z"/>
  </g>
  <g id="olhos">
    <path class="st6" d="M45.8,86.2c-1.7-1-3.8-.5-4.8,1.2l-2.2,3.6c-1,1.7-.5,3.8,1.2,4.8.6.3,1.2.5,1.8.5,1.2,0,2.3-.6,3-1.7l2.2-3.6c1-1.7.5-3.8-1.2-4.8Z"/>
    <path class="st6" d="M246.9,79.9l3.3.6h.6c1.4,0,2.6-1,2.9-2.4.3-1.6-.8-3.2-2.4-3.5l-3.3-.6c-1.6-.3-3.2.8-3.5,2.4-.3,1.6.8,3.2,2.4,3.5Z"/>
    <path class="st6" d="M266.9,74.2c-1.5.2-2.9.5-2.9.5-1.6.3-2.7,1.9-2.4,3.5.3,1.5,1.6,2.5,3,2.5h0c.1-.1.3-.1.5-.1,0,0,1.3-.3,2.7-.5.5,0,.9-.2,1.2-.4,1-.6,1.5-1.8,1.3-3,0-.8-.5-1.5-1.1-2-.6-.5-1.5-.7-2.3-.5Z"/>
  </g>
  <g id="sombra_pele">
    <path class="st7" d="M228.5,227c-89.2,4.3-60.3-76.3-60.3-76.3-3.7-11.3-11.2-13.6-16.5-13.7,6.5,2.4,10.3,9.4,8.5,16.5-5.6,22-14.4,84.5,68.2,80.6,16.7-.8,28.1-4.2,35.9-9.1,0,1,.2,2,.5,2.9,0,4.5,0,10.7-.4,17.7,5,5.2,11.4,7.9,11.4,7.9,3.6-11.1,2.9-28.9,2.9-28.9,8.3-17.4,7.9-35.2,6-47.3-7.3,57.4-56.2,49.7-56.2,49.7Z"/>
    <path class="st7" d="M229.3,140.2c11.7.7,16.8-6.5,17.3-7.2.2-2.9.3-6.8,0-11.1-2.3.1-4.5,0-6.1-.2-11.8-1.5-15.4-11.7-19.6-22.8-.1,0-.1-.3-.1-.3-2.8.6-5.1.6-7,.1-.7,6-2.4,15.8-6.7,26,5.8,6.7,14.6,15.2,22.1,15.6Z"/>
    <path class="st7" d="M246.9,248.1c-2.8,1.3-8,3.2-13.4,2.1,2.7-6.4.9-12.1-1.2-15.6-.6-1.1-2.3-.5-2.1.7.6,4.2.8,10.4-1.6,15.8-6.4,1.6-12.6.3-16.2-.7-.9-.3-1.5.9-.8,1.5,2.9,2.7,8.7,6,18.3,3.7.8,2.8,1.6,6.8,1.2,11.1-.1,1.1,1.5,1.7,2.1.7,2.5-4,2.2-8.9,1.4-12.4,7.2.8,11.2-2.8,13.2-5.5.5-.7-.2-1.7-.9-1.4Z"/>
    <path class="st7" d="M318.3,300.6c-3.6-2.9-10.5-5.4-23.4-4.5,1.8,5.5,2,9.4,2,9.4,0,0,9.9-4.3,19.7-1.4,2.1.6,3.4-2.1,1.7-3.5Z"/>
  </g>
  <g id="sombra_roupa">
    <path class="st4" d="M270.3,338.2c-4.5-5.7-10.3-17.1-13.3-26.8,0,0-4.5,9.7-11.1,15,0,0-12.7-6.5-24.7-25.4,0,0-3.8,7.7-10,11.2,0,0-13.7-3.6-23.2-17.9,0,0-2.9,5.3-8.2,8.6,0,0-8.5-6.1-8-16.6-4.2,8.4-12.2,27.6-13.2,53.7h115.1c-1.3-.1-2.5-.7-3.4-1.8Z"/>
    <path class="st4" d="M145.9,137.7c2.4-.6,21.1-4.5,26.8,12.9,0,0,12.2,45.4,61.6,44.3,0,0,26.2-.7,41.5-25.4-9,8.3-25.5,19.2-48.5,15.9-23.7-3.5-43.1-21.1-49.2-44.3-.4-1.4-.7-2.9-1-4.5,0,0-.8-6.7,5-8.2,2.9,3.7,6.1,9,8.4,16.4,4.3,14.1,19.4,24,35.1,25.4h0c1.9.3,2.4-2.4.6-3-7.7-2.2-17.4-6.8-24.2-16.2-2.5-3.5-4.3-7.5-5.5-11.6-1.6-5.7-6.2-18.3-15.8-23.1,0,0,0,0,0,0-.9.5-1.7,1.1-2.6,1.8h0c-1.2.9-2.4,2-3.6,3.3,0,0-2.6-.6-6.4-.4-6.9.3-17.5,3.1-22.4,16.8,0,0,0,0,0,0,0,0,0,0,.3,0Z"/>
    <path class="st4" d="M275.9,169.3c0,0,0,.1-.1.2,0,0,.2-.1.2-.2h0Z"/>
  </g>
  <g id="sombra_urso">
    <path class="st5" d="M36.2,60.3l5.5-1.8c.2-3.7,2.1-10.9,5.3-17.5-1.6-1.6-3.2-2.7-4.7-3.5-3.9-2.1-8.6-1.1-11.3,2.4-6.4,8.3-5.3,21.3-4.2,27.7,1.1-1.3,2.1-2.4,3-3.3,1.8-1.8,4-3.2,6.4-4Z"/>
    <path class="st5" d="M73.7,55.8c-.2-2.9-1-9.5-3.7-14.3-2.3-3.9-7.9-4.3-10.6-.7-2.1,2.8-4.1,7.5-4.1,15s.6,1.4,1.4,1.4h-.1c0,0,15.7,0,15.7,0,.8,0,1.4-.7,1.4-1.5Z"/>
    <path class="st5" d="M84.1,57.1h0s6.6.5,11.7,1.8c1,.3,1.7-.9,1-1.7-1-1-2.3-2.1-4-2.7-1.6-.6-2.6-2.1-2.6-3.7,0-3.5,0-9.2-.9-14.7-2.4,1.4-4.6,3-6.6,4.8,0,0,1.7,8.1,1.5,16.2Z"/>
    <path class="st5" d="M78.1,124.9c2.4-3.5,5.3-6.8,6.9-7.7,1.2-.7,2.6-1.2,4-1.5,18.4-3.9,26.7-14.6,29.7-19.8.9-1.5.2-3.4-1.4-4l-9.2-3.4c6.5-3.9,10-9.4,11.7-13.1.9-1.8-.5-3.9-2.6-3.9l-16.8.5c-1.2,0-1.6,1.6-.5,2.2l5.6,3c-3.4,7.5-9.8,12-13.2,14-.8.5-.7,1.7.2,2.1l9.4,3.7c-2.7,11.1-15.7,13.8-15.7,13.8,0,0-4.2,1.4-6.4,4.3h0c-2.2,2.8-3.3,6.1-3.9,8.8-.3,1.4,1.4,2.1,2.2,1Z"/>
    <path class="st5" d="M106.1,224.1c.9.8,2.3,1.1,3.5.8,0,0,.2,0,.3,0h-.1c.8-1.5,1.6-2.9,2.4-4.2-.8-10.6-.7-20.3,0-29,0,0,0,0-.1,0-1,.5-1.8.9-2.5,1-1.1.4-2.3.4-3.3-.3-20.9-13.3-33.1-35.5-38.5-47.3.1.5.3.9.4,1.4,1.9,6.2,3.9,15.8,4.7,29.5,0,.2,0,.3,0,.5,8.9,24.8,27.1,42.3,33,47.6Z"/>
  </g>
</svg>