<?xml version="1.0" encoding="UTF-8"?>
<svg id="Camada_1" xmlns="http://www.w3.org/2000/svg" version="1.1" viewBox="0 0 340 340">
  <!-- Generator: Adobe Illustrator 30.4.0, SVG Export Plug-In . SVG Version: 2.1.4 Build 226)  -->
  <defs>
    <style>
      .st0 {
        fill: #b26059;
      }

      .st1 {
        fill: #454558;
      }

      .st2 {
        fill: #f57f4c;
      }

      .st3 {
        fill: #92ab7e;
      }

      .st4 {
        fill: #485438;
      }

      .st5 {
        fill: #863131;
      }

      .st6 {
        fill: #ffe23b;
      }

      .st7 {
        fill: #d57370;
      }

      .st8 {
        fill: #d73e39;
      }

      .st9 {
        fill: #ffb9ab;
      }
    </style>
  </defs>
  <g id="Layer_19">
    <g>
      <path class="st5" d="M27.6,71.4s-5.4-20.1,3.4-31.5c2.7-3.5,7.4-4.5,11.3-2.4,2.3,1.2,4.9,3.1,7,6.2l.7,16.1-22.4,11.6Z"/>
      <path class="st0" d="M174.4,70.4c-12.6-13.1-27.2-28.1-48.7-38.8l1.1-7.7s-28.4,3.2-44.3,17c0,0-4.7-17-21.3-14.5-11.1,1.6-19.1,24.4-19.5,32.1l-5.5,1.8c-2.4.8-4.6,2.2-6.4,4-6.5,6.8-21.3,24.5-17.7,42.3,0,0,3.2,11.6-1.5,23.8l9.9,24.2s7.5,5.5,21.2,2.5c0,0,16.5-7.1,22.9-19.9,0,0,1.5,2.4,3.2,7.9,4.5,11.5,6.6,22.1,5.2,31.4.8,13.8-.8,26.5-3.7,49.1,0,0-8.7,45,34.1,56.8,2.6.7-7.6-20.9,3.7-51.6,1.3-3.7,2.9-7,4.7-9.8-1.9-10-2.2-19.9.4-29.4,5.1-54.2,32.9-71.8,44.5-77.3,2.6-1.3,5.7-3.5,5.4-6.4-1.4-15.9,8.9-23.1,13-29.5,1.6-2.5,1.3-5.8-.8-8Z"/>
      <path class="st7" d="M163.5,194.1c4.6,12.1,17.4,31.7,52.8,33.2,2.1,0,2.4,3.1.4,3.6"/>
      <path class="st9" d="M281.2,148.5s20.6,13.7,17.7,60.8c-.4,6,1.2,11.9,4.4,16.9,5.1,8,12.4,22.9,15.2,45,0,0,12.8,23.2,13.1,51.7,0,5.2-3.4,9.8-8.4,11.2-5.1,1.4-12.4,2.6-21.4,1.7-7.5-.8-13-7.3-12.5-14.9.4-5.6,2.1-11.9,7.5-15.6,0,0-.5-10.7-8.2-22.4-1.5-2.2-3.2-4.3-5-6.2-2.7-3-8.7-11-7.9-23.2,0,0-12.9-5.5-16.5-15.8-3.6-10.4,1.7-72.2,22-89.2Z"/>
      <path class="st7" d="M280.9,162.4l-10.7,2.5c-11,25-13.7,64.7-10.9,72.8,3.6,10.3,16.5,15.8,16.5,15.8,3.6-11.1,2.9-28.9,2.9-28.9,14.6-30.5,2.3-62.3,2.3-62.3Z"/>
      <path class="st7" d="M281.2,148.5c-10.2,8.6-19.4,25.9-22.8,44.9,20.4-13.1,25.2-33.7,26.3-40.9-3.5-4.9-3.6-4-3.6-4Z"/>
      <path class="st1" d="M10.6,130.5s-3.7,4.7-1.6,14c2.1,9,11.5,10.2,11.5,10.2,2.1-2.4,3.7-4.9,4.5-7.9,1-3.9-.9-8-4.5-9.8-5.4-2.9-9.9-6.5-9.9-6.5Z"/>
      <path class="st5" d="M56.6,57.3h15.7c.8,0,1.4-.7,1.4-1.5-.2-2.9-1-9.5-3.7-14.3-2.3-3.9-7.9-4.3-10.6-.7-2.1,2.8-4.1,7.5-4.1,15,0,.8.6,1.4,1.4,1.4Z"/>
      <path class="st5" d="M84,57.1s6.6.5,11.7,1.8c1,.3,1.7-.9,1-1.7-1-1-2.3-2.1-4-2.7-1.6-.6-2.6-2.1-2.6-3.7,0-3.5,0-9.2-.9-14.7-2.4,1.4-4.6,3-6.6,4.8,0,0,1.7,8.1,1.5,16.2Z"/>
      <path class="st5" d="M79.8,115.1c2.2-2.9,6.4-4.3,6.4-4.3,0,0,13-2.7,15.7-13.8l-9.4-3.7c-.9-.4-1-1.6-.2-2.1,3.4-2,9.8-6.5,13.2-14l-5.6-3c-1.1-.6-.7-2.2.5-2.2l16.8-.5c2.1,0,3.5,2.1,2.6,3.9-1.7,3.7-5.2,9.2-11.7,13.1l9.2,3.4c1.6.6,2.3,2.5,1.4,4-3,5.2-11.3,15.9-29.7,19.8-1.4.3-2.8.8-4,1.5-1.6.9-4.5,4.2-6.9,7.7-.8,1.1-2.5.4-2.2-1,.6-2.7,1.7-6,3.9-8.9Z"/>
      <path class="st6" d="M41.8,96.3c-.6,0-1.2-.2-1.8-.5-1.7-1-2.2-3.1-1.2-4.8l2.2-3.6c1-1.7,3.1-2.2,4.8-1.2s2.2,3.1,1.2,4.8l-2.2,3.6c-.7,1.1-1.8,1.7-3,1.7Z"/>
      <path class="st2" d="M267.9,66.3s8.6-8,7.1-23.3c-.5-5.2-2.6-9.3-5.2-12.5-6.3-7.8-16.8-11.2-26.2-7.6-.4.1-.8.3-1.2.5-5.1,2.3-10.9,3-16.4,1.6-6.8-1.8-16.5-1.9-24.8,7.1-4.5,4.9-7.3,11.2-8.1,17.8-.5,3.9-.9,9-.9,14.6,0,7.8-3.4,15.2-9.3,20.3-7.7,6.7-16.6,19.3-14.6,41.5l67,12.4,32.5-72.3Z"/>
      <ellipse class="st8" cx="249.1" cy="129.4" rx="17" ry="22"/>
      <path class="st4" d="M174.4,281.5s-14.5,22.7-15.8,58.5h115.8v-40.4l-99.9-18.1Z"/>
      <path class="st9" d="M276.3,157.2l3.2,20c.3,14.3-2.2,32.9-14.8,42.7-.5,2.9-.6,5.6.1,8,0,11-.4,31.7-3.4,51.2,0,0-38.1,24.8-80-3.1,0,0,2.6-18.2-5.3-32.7-7.9-14.5-9.2-25.9-9.2-25.9,0,0-3.1,12.1-12.3,17.1,0,0-.7,24.6-13.6,41.7l-1.5,24c-.2,2.8.9,5.6,3,7.6h0c1.9,1.8,3,4.3,3,7v17.1c0,4.5-3.6,8.1-8.1,8.1h-20.7c-4.1,0-7.6-3.1-8-7.2-1-9.4-3.2-27.2,1.4-44.3,0,0-6.1-32.2,6.4-60.2,2.2-4.8,3.2-10.1,3-15.4-.8-17.5.4-58.1,26-75.1l10.1-6.2,120.4,25.6Z"/>
      <path class="st7" d="M279.5,177.3c-.2-11.2-2-19.8-2-19.8l-121.6-25.9-7.6,4.7c.1,0,.2,0,.3,0,8.3,1,13.7,9.1,11.6,17.2-5.6,22-14.4,84.5,68.2,80.6,60.9-2.9,51.9-40.8,51.1-56.8Z"/>
      <path class="st7" d="M214.3,92.5s-.2,17.3-8.4,35c0,0,6.6,27.8,40.3,10.3,0,0,7.8-54.5-31.8-45.2Z"/>
      <path class="st3" d="M246.7,132.9s-5,8-17.4,7.3c-9.7-.5-21.5-14.4-26.2-20.6-2.3-3-5.6-5.1-9.3-5.8-5-1-12.1-.2-19.2,7.7,0,0-21.2-4.8-28.8,16.4,0,0,16.3-5.8,22.4,12.8,0,0-28.9,80.6,60.3,76.3,0,0,65.1,10.2,56.3-81.1,0,0,0-.3-.1-.7-1.7-9.5-10.7-15.9-20.3-14.6l-17.7,2.4Z"/>
      <path class="st9" d="M224.2,83.5s0-.2-.2-.4c-22-23.9-19.4-14.2-18.1,4.3,0,.4,0,.7.1,1.1,0,0,.4,13,14.8,10,0,0,0,.2.1.3,4.2,11.1,7.8,21.3,19.6,22.8,7.9,1,26,.3,27.8-20.7l1.3-38.7c.1-4-1.2-8-4.1-10.8-2.3-2.4-5.9-4.4-11.4-4.4-8.5,0-14.7,7.9-18.1,13.7-1.8,3-2.8,6.4-2.9,9.9-.1,4.5-1.6,11.6-8.9,13.1Z"/>
      <path class="st3" d="M181.9,268.3s15.9,14.8,42.1,14.8,28.8-6.9,35.2-11.7c3.2-2.4,7.8-1.7,9.9,1.7,6.5,10.2,16.8,34.7,10,63.1-1,4-6.2,5.2-8.8,2-4.5-5.7-10.3-17.1-13.3-26.8,0,0-4.5,9.7-11.1,15,0,0-12.7-6.5-24.7-25.4,0,0-3.8,7.7-10,11.2,0,0-13.7-3.6-23.2-17.9,0,0-2.9,5.3-8.2,8.6,0,0-10-7.2-7.7-19.4,2.3-12.7,9.9-15,9.9-15Z"/>
      <path class="st6" d="M250.8,80.5c-.2,0-.4,0-.6,0l-3.3-.6c-1.6-.3-2.7-1.9-2.4-3.5.3-1.6,1.9-2.7,3.5-2.4l3.3.6c1.6.3,2.7,1.9,2.4,3.5-.3,1.4-1.5,2.4-2.9,2.4Z"/>
      <path class="st6" d="M264.6,80.7c-1.4,0-2.7-1-3-2.5-.3-1.6.8-3.2,2.4-3.5,0,0,1.4-.3,2.9-.5,1.6-.3,3.2.8,3.4,2.5.3,1.6-.8,3.2-2.5,3.4-1.4.2-2.7.5-2.7.5-.2,0-.4,0-.5,0Z"/>
      <path class="st4" d="M225.6,170.3c1.9.2,2.4-2.5.6-3.1-7.7-2.2-17.4-6.8-24.2-16.2-2.5-3.5-4.3-7.5-5.5-11.6-1.6-5.7-6.2-18.4-15.9-23.1-2,1.2-4,2.9-6.1,5.1,0,0,10.5,5.5,16,23.4,4.3,14.1,19.4,24,35.1,25.4Z"/>
      <path class="st7" d="M231.1,266.7c.8-8.1-2.7-15.2-2.7-15.2,2.6-5.5,2.4-11.9,1.8-16.2-.2-1.2,1.5-1.8,2.1-.7,2.1,3.6,4,9.4,1,16,0,0,4.3,9.9-.1,16.8-.6,1-2.2.4-2.1-.7Z"/>
      <path class="st7" d="M229.8,250.8c-6.8,2.1-13.6.7-17.4-.4-.9-.3-1.5.9-.8,1.5,3.1,2.9,9.7,6.6,20.7,3l-2.4-4.1Z"/>
      <path class="st7" d="M232.6,250c5.8,1.5,11.3-.5,14.3-1.9.7-.3,1.4.7.9,1.4-2.3,3.1-7.3,7.4-16.7,4.8l1.6-4.2Z"/>
      <path class="st7" d="M294.9,296.1c1.8,5.5,2,9.4,2,9.4,0,0,9.9-4.3,19.7-1.4,2.1.6,3.4-2.1,1.7-3.5-3.6-2.9-10.5-5.4-23.4-4.5Z"/>
      <path class="st4" d="M276,169.3c-8.9,8.3-25.5,19.5-48.7,16.1-23.7-3.5-43.1-21.1-49.2-44.3-.4-1.4-.7-2.9-1-4.5,0,0-1.3-10.5,10.7-8.2l-9.8-10.3c-1.2.9-2.4,2-3.6,3.3,0,0-21.2-4.8-28.8,16.4,0,0,21-5.8,27.1,12.8,0,0,12.2,45.4,61.6,44.3,0,0,26.4-.7,41.6-25.6Z"/>
      <path class="st5" d="M109.8,224.8c.8-1.5,1.6-2.9,2.4-4.2-.8-10.6-.7-20.3.1-29-1.1.5-1.9.9-2.6,1.1-1.1.4-2.3.4-3.3-.3-20.9-13.3-33.1-35.5-38.5-47.3,2,6.2,4.3,16.4,5.2,31.4,8.9,24.8,27.1,42.3,33,47.6,1,.9,2.5,1.2,3.8.7Z"/>
    </g>
  </g>
</svg>