<?xml version="1.0" encoding="UTF-8"?>
<svg id="Camada_1" xmlns="http://www.w3.org/2000/svg" version="1.1" xmlns:xlink="http://www.w3.org/1999/xlink" viewBox="0 0 340 340">
  <!-- Generator: Adobe Illustrator 30.4.0, SVG Export Plug-In . SVG Version: 2.1.4 Build 226)  -->
  <defs>
    <style>
      .st0 {
        fill: #474759;
      }

      .st1 {
        fill: #39394c;
      }

      .st2 {
        fill: #4d3482;
      }

      .st3 {
        fill: url(#Gradiente_sem_nome_2);
      }

      .st4 {
        fill: #39394d;
      }

      .st5 {
        fill: #5b5b8a;
      }

      .st6 {
        fill: #9370b8;
      }

      .st7 {
        fill: #2c2c3f;
      }

      .st8 {
        fill: url(#Gradiente_sem_nome);
      }

      .st9 {
        fill: #d7e2ed;
      }

      .st10 {
        fill: #e8b8ae;
      }

      .st11 {
        fill: #d57370;
      }

      .st12 {
        fill: #813450;
      }
    </style>
    <linearGradient id="Gradiente_sem_nome" data-name="Gradiente sem nome" x1="88" y1="35.8" x2="12.3" y2="57.5" gradientTransform="translate(0 339.9) scale(1 -1)" gradientUnits="userSpaceOnUse">
      <stop offset="0" stop-color="#9eb7ec"/>
      <stop offset="1" stop-color="#87a2d5"/>
    </linearGradient>
    <linearGradient id="Gradiente_sem_nome_2" data-name="Gradiente sem nome 2" x1="288" y1="39.2" x2="240" y2="52.9" gradientTransform="translate(0 339.9) scale(1 -1)" gradientUnits="userSpaceOnUse">
      <stop offset="0" stop-color="#9eb7ec"/>
      <stop offset="1" stop-color="#87a2d5"/>
    </linearGradient>
  </defs>
  <g id="Layer_8">
    <g>
      <path class="st9" d="M284.9,159.9s10.1,87.4-41,148.9l11.4,18.2s6-28.7,38-37.1c0,0,36.3-46.9-8.4-130Z"/>
      <path class="st9" d="M44.1,161.2s-3.3,87.9,52.4,145.3l-9.9,19s-8.2-28.1-40.8-34c0,0-39.8-44-1.6-130.3Z"/>
      <path class="st8" d="M86.6,325.6l9.9-19c-7.6-7.8-14.1-16.2-19.7-24.9-25.7,5.1-38.7-7.4-44.1-15.3,5.4,16.8,13,25.2,13,25.2,32.6,5.9,40.8,34,40.8,34Z"/>
      <path class="st3" d="M261.9,281.8c-5,9.3-10.9,18.4-18,27l11.4,18.2s6-28.7,38-37.1c0,0,5.5-7.1,9.6-20.7-6.3,7.6-18.9,16.6-41,12.5Z"/>
      <path class="st10" d="M227.5,162.1s14.4,8.1,15.7,65l-27.1-4.2s0-19.4-6-27.2l-10.9-20.2,28.3-13.4Z"/>
      <path class="st11" d="M227.5,162.1l-28.3,13.4,9.5,17.5c9.1-5.7,18.9-11,28.2-14.4-4.4-13.8-9.3-16.6-9.3-16.6Z"/>
      <path class="st10" d="M112.2,162.1s-14.4,8.1-15.7,65l27.1-4.2s0-19.4,6-27.2l10.9-20.2-28.3-13.4Z"/>
      <path class="st11" d="M105.8,171.1c4.3,2.7,15,9.7,27.2,18.3l7.6-13.9-28.3-13.4s-3,1.7-6.4,9.1Z"/>
      <path class="st1" d="M116.2,275s-4,6.3-7.9,15.7l-6.3,16.1,18.4,18.7s110.1,8.4,125.7-3.3l-6.1-20.4s-6.5-15.6-17.2-29.4l-55.9,12.7-50.7-10.2Z"/>
      <path class="st4" d="M214,169.5l-91.9,1.7s3.6,62.6.5,66.8c-4.3,6-2,21.6-2,21.6l48.2,33.2,50.3-29.5s-2.1-9.1-2.5-24.8c0-4.3-2.6-69-2.6-69Z"/>
      <path class="st7" d="M206.7,179h-74.9s-10.7-23.6-9.1,3.4c10.2,7.1,27.5,19.5,37.8,28.1,6.4,5.4,15.8,5.6,22.5.5,7.5-5.8,20.6-14.9,31.8-21.6.5-40.4-8.1-10.3-8.1-10.3Z"/>
      <path class="st2" d="M25.9,113.5c.8,4.5,2.7,10.7,6.7,16.7,7.4,10.8,21.8,14.2,33.4,8.1,3.3-1.7,6.9-3.9,10.7-6.6,7.9-5.7,17.7-8.3,27.3-7.1,7.5,1,16.1,3.2,23.6,7.9l-20.2-21.6s-19.7-8.2-43.4,3.7c-8.2,4.1-17.7,4.8-26.3,1.7-3.1-1.1-6.1-2.6-8.7-4.7-1.4-1.2-3.5.1-3.2,1.9Z"/>
      <path class="st6" d="M7.6,23.3s-1.6,20.1,14.6,42.2c4,5.5,9.8,9.5,16.3,11.4,17.5,5.1,58.7,20.7,91.3,62.4l9.3-6.8S102.7,47.6,7.6,23.3Z"/>
      <path class="st2" d="M190,110.9l-.8,6.5c-1.6,16.6,11.4,25.2,13.8,26.1v3.7s-45.1-.5-45.1-.8,1.9-11.5,1.9-11.5l30.3-24Z"/>
      <path class="st6" d="M145.7,123.1c-7.8,2.8-20.8,10.8-24.2,22,0,0-9.3,1.2-19.2,9.4-3.5,2.9-2.8,8.5,1.2,10.6,13,6.6,39.5,20.8,60.4,35.9,4.5,3.2,10.5,3.3,15.1.1,12.1-8.4,36.7-24,59.8-30.7,5.6-1.6,7.5-8.4,3.6-12.7-2.8-3.1-7.3-5.9-14.2-7.2,0,0-3.4-10.6-25.3-8.4,0,0-39.3,8.7-57.2-19Z"/>
      <path class="st5" d="M218,251.5s-29.6,20.2-64.7,30.5c-9,3.8-17.8,6.9-26,5.9-5.8.9-11.8,1.6-17.9,2.1,0,0-3.8,8.3-6.3,16.1,0,0,19.4,0,45.9-5.3l24.3-6.1c16.6-5.1,34.2-12.4,50.6-22.9,0,0-.4-13.7-5.9-20.3Z"/>
      <path class="st5" d="M102.6,306.8s46.2,22,143.4,15.5c0,0-16.9,8.8-17.2,17.7h-117.7s-15.6-13.3-8.5-33.2Z"/>
      <path class="st2" d="M225.1,146.4c-19.8,1.7-38.8,13.3-46.2,18.4-2.1,1.4-4.8,1.6-7,.4-6.8-3.5-20.9-10.9-27.7-15.5-2.1-1.4-4.3-2.4-6.6-3.2-2.2-.7-3.6,2.3-1.7,3.6,1.5,1,3.1,2.2,4.7,3.6,0,0,14.1,11.8,29.4,19.3,4.1,2,9,1.6,12.7-1,6.1-4.3,16.2-10.8,24.8-14.5,6.4-2.7,13.4-5.3,20.8-7.1,0,0-.6-2-3.1-4Z"/>
      <path class="st2" d="M173.1,150.8s13.7-6.6,26.3-8.2c-9.9,1.1-39,2.1-53.8-19.5-1.3.5-2.9,1.1-4.4,1.9,2.2,5.3,10.2,20.4,31.9,25.8Z"/>
      <path class="st12" d="M200.9,142.4h0Z"/>
      <path class="st10" d="M154.5,59l-15.5,24.6c-1.4,10.3,1.6,24,1.6,24l12,14.9s31.7,10.2,44.7-18.3c0,0,1.5-10.7,2-21.6l-44.7-23.6Z"/>
      <path class="st6" d="M140.6,107.6s7.5,8.8,27.5,8.8,29.1-12.2,29.1-12.2c0,0-3.6,31-27.1,35.1,0,0-24.8-1.1-29.5-31.7Z"/>
      <path class="st11" d="M160.3,103.3c-.3,0-.6,0-.8-.1-1.5-.4-3-.6-3-.6-1.6-.2-2.8-1.7-2.6-3.3s1.7-2.8,3.3-2.6c0,0,2,.2,4,.8,1.6.5,2.5,2.1,2,3.7-.4,1.3-1.6,2.2-2.9,2.2Z"/>
      <path class="st11" d="M176.1,103.3c-1.3,0-2.5-.8-2.9-2.2-.5-1.6.4-3.3,2-3.7,2-.6,3.9-.8,4-.8,1.6-.2,3.1,1,3.3,2.6.2,1.7-1,3.1-2.6,3.3h0s-1.5.2-3,.6c-.3,0-.6.1-.8.1Z"/>
      <path class="st5" d="M120.3,255.8s51.5,33.1,119.7,45.4c0,0,4.8,8.5,6.2,20.4,0,0-94.8-20.3-129.9-47.3,0,0-2.1-10.7,4.1-18.4Z"/>
      <path class="st11" d="M197.1,92.6c.5-.1,1-.2,1.5-.3.3-3,.5-6.3.7-9.6l-44.7-23.6-15.5,24.6c-.6,4.5-.4,9.7,0,14.1,4.4-2.6,10.3-7,16.5-14.3,0,0,13.7,15.1,41.5,9.2Z"/>
      <path class="st0" d="M155,67.5s-5.2,14.1-16.2,21.1c-2.6,1.7-6.2.1-6.7-2.9-1.5-8.9-2.3-26.6,10.9-38.8,11.1-10.4,28.1-12.7,41.7-5.7,11.4,5.8,22.1,18.5,17.1,46.4-.4,2.2-2.4,3.9-4.7,3.8-9.2,0-31.9-2.5-42.1-24Z"/>
      <path class="st10" d="M246.8,291.4l11.8,26.4c2.3,5.2,1.4,11.4-2.6,15.4-5.5,5.5-13.2,7-27.2,6.7l-4.2-30.2,22.2-18.4Z"/>
      <path class="st6" d="M243.2,227.1s-13.2-7.6-27.1-4.2c0,0-1.6,55.3,8.4,86.9,0,0,15.1-3,22.2-18.4,0,0-5.8-31.6-3.5-64.3Z"/>
      <path class="st10" d="M93,291.4l-11.8,26.4c-2.3,5.2-1.4,11.4,2.6,15.4,5.5,5.5,13.2,7,27.2,6.7l4.2-30.2-22.2-18.4Z"/>
      <path class="st6" d="M96.5,227.1s13.2-7.6,27.1-4.2c0,0,1.6,55.3-8.4,86.9,0,0-15.1-3-22.2-18.4,0,0,4.3-31.7,3.5-64.3Z"/>
      <path class="st2" d="M96.6,237.2c0,2.4,0,4.7,0,7.1.1,0,.2,0,.4,0,.1,0,12.2-2.2,26,5.3.2,0,.4.2.5.2.1-2.7.2-5.3.2-7.7-12.7-6.1-23.6-5.3-27-4.9Z"/>
      <path class="st2" d="M95.9,259.8c-.2,2.5-.3,5-.5,7.3,5.1-1.3,16.1-3.5,27.2-2.9.2-2.4.3-4.7.4-7-10.7-.6-21.1,1.2-27.2,2.6Z"/>
      <path class="st2" d="M119.7,290.1c.4-2.6.8-5.2,1.1-7.9-9.2-6.1-20.4-8.1-25.9-8.8-.2,2.6-.4,4.9-.7,7,5.5.7,17.4,2.9,25.5,9.7Z"/>
      <path class="st2" d="M216,232.5c0,2.1,0,4.4,0,7,6-.2,17.8.5,26.6,7.4,0-2.8,0-5.6,0-8.4-9.7-5.6-20.6-6.2-26.7-6Z"/>
      <path class="st2" d="M217.1,263.1c5.2-2.2,15.3-5.8,26-5.3-.1-2.3-.2-4.6-.3-7-10.4-.4-20.1,2.5-26.2,4.9.1,2.4.3,4.9.4,7.4Z"/>
      <path class="st2" d="M218.2,276.3c6.9.8,18.1,2.8,27.5,8.3-.3-2.3-.7-5.2-1.1-8.5-10-4.7-20.7-6.4-27.1-7,.2,2.4.4,4.7.7,7.1Z"/>
    </g>
  </g>
</svg>