<?xml version="1.0" encoding="UTF-8"?>
<svg id="Layer_1" data-name="Layer 1" xmlns="http://www.w3.org/2000/svg" viewBox="0 0 64 64">
  <path d="M21.16,41.98c-.78-3.93-1.51-7.8-2.35-11.65-.22-.98-.17-1.83.12-2.76,1.11-3.48,2.18-6.98,3.28-10.47.09-.3.32-.58.55-.81,1.52-1.48,3.06-2.94,4.59-4.4,1.03-.98,2.07-1.96,3.09-2.95.44-.43.85-.89,1.28-1.32.21-.21.44-.4.69-.63.2.19.35.3.47.45,3.43,4.44,6.86,8.89,10.28,13.34.21.27.36.64.4.98.46,3.97.88,7.94,1.32,11.9.12,1.11.31,2.21.43,3.32.04.38.02.78-.08,1.14-.24.83-.53,1.65-.82,2.46-.6,1.65-1.22,3.3-1.81,4.95-.42,1.16-.83,2.31-1.21,3.48-.16.47-.39.84-.79,1.14-2.04,1.51-4.07,3.05-6.1,4.58-.76.57-1.51,1.15-2.27,1.72-.22.17-.45.33-.7.46-.34.17-.63.09-.88-.23-2.61-3.46-5.52-6.66-8.42-9.87-.21-.23-.37-.56-.42-.87-.23-1.29-.42-2.59-.63-3.96ZM26.47,24.95c-1.76,1.13-3.65,2.07-5.32,3.4.52,0,1.02-.05,1.47-.21,1.6-.58,3.19-1.2,4.78-1.79.6-.23.71-.19.97.38.24.51.45,1.02.67,1.54,1.47,3.44,2.94,6.88,4.39,10.33.11.27.16.6.11.89-.32,2.01-.7,4.02-1.01,6.03-.39,2.51-.74,5.03-1.11,7.54-.03.24-.12.5.27.73.14-.17.33-.32.42-.51.16-.33.26-.68.37-1.02,1.23-4.06,2.45-8.13,3.68-12.19.07-.24.2-.46.33-.67,1.63-2.73,3.28-5.46,4.91-8.19.37-.62.7-1.27,1.04-1.91.15-.29.33-.59-.09-.88-.12.14-.23.26-.33.39-2.1,2.75-4.2,5.51-6.3,8.26-.1.13-.18.29-.31.4-.2.17-.42.15-.57-.08-.07-.11-.11-.26-.16-.39-1.43-3.96-2.87-7.93-4.29-11.9-.13-.38-.18-.83-.12-1.23.66-4.36,1.35-8.72,2.04-13.08.02-.14.11-.3.06-.41-.07-.19-.2-.4-.36-.49-.07-.04-.37.13-.43.27-.19.4-.35.82-.47,1.25-.43,1.47-.83,2.96-1.25,4.43-.69,2.45-1.43,4.88-2.04,7.34-.2.81-.51,1.38-1.38,1.76Z"/>
</svg>