<?xml version="1.0" encoding="UTF-8"?>
<svg id="Layer_1" data-name="Layer 1" xmlns="http://www.w3.org/2000/svg" viewBox="0 0 64 64">
  <path d="M32.42,44.04c.31-1.13.93-2.01,1.68-2.8.55-.58.7-1.23.54-1.99-.06-.3-.11-.61-.12-.92-.02-.51.21-.69.72-.63.15.02.31.04.45.1.68.26,1.2,0,1.65-.5.44-.51.88-1.01,1.29-1.54.13-.17.2-.42.25-.64.34-1.58.14-3.15-.24-4.67-.18-.71-.71-1.37-1.17-1.98-.67-.89-.95-1.93-1.34-2.94-.03-.09,0-.2.02-.3,0-.04.07-.07.17-.16.14.07.34.12.47.25.61.56,1.19,1.14,1.79,1.71.06.05.1.12.15.17.61.66,1.34,1.25,1.78,2.01.43.74.57,1.65.84,2.48.06.19.15.36.29.69.21-.34.36-.56.49-.79.67-1.24.9-2.62,1.23-3.97.32-1.31-.15-2.29-.93-3.26-.32-.39-.58-.85-.76-1.32-.39-1.06-.73-2.14-1.06-3.22-.1-.33-.14-.7.15-1.14.19.17.37.29.5.46.41.56.81,1.13,1.2,1.71.38.58.94.92,1.6,1.31.29-.84.42-1.62.33-2.42-.12-1.13-.2-2.27-.48-3.36-.21-.8-.66-1.56-1.1-2.28-.5-.83-.84-1.71-1.08-2.63-.03-.12-.06-.25-.05-.38.02-.37.27-.5.58-.31.04.03.08.06.12.1.82.89,1.7,1.71,2.41,2.71.93,1.3,1.4,2.69,1.54,4.28.16,1.79.5,3.57.76,5.36.01.09.06.18.15.4.63-.79,1.02-1.54,1.08-2.48.06-1.03.18-2.05.3-3.07.02-.14.11-.27.17-.39.36-.04.45.2.49.42.26,1.21.61,2.41.71,3.64.07.9-.21,1.83-.33,2.75-.14,1.05-.53,1.95-1.29,2.73-1.5,1.52-1.94,3.53-2.37,5.53-.02.09.03.19.06.39.9-.15,1.63-.54,2.22-1.16.69-.73,1.32-1.51,1.98-2.27.18-.21.37-.4.69-.74.07.36.17.56.12.71-.31,1-.57,2.04-1.02,2.98-.49,1.04-1.18,1.99-1.77,2.99-.32.54-.76.89-1.35,1.07-.91.29-1.8.63-2.72.88-2.25.63-3.74,2.15-4.96,4.02.5.88.82,1.05,1.7.88.53-.1,1.06-.24,1.59-.35.23-.05.48-.05.72-.07.03.06.07.11.1.17-.16.24-.3.51-.5.71-.57.56-1.14,1.12-1.76,1.62-.6.48-1.28.76-2.09.5-.39-.12-.8-.21-1.21-.25-.27-.03-.58,0-.8.11-.53.28-1.03,1.67-.85,2.25.07.22.17.43.25.65.19.5.2.63-.28.89-.69.38-1.02.98-1.26,1.68-.25.73-.55,1.45-.79,2.18-.15.47-.41.82-.8,1.1-.06.05-.11.11-.18.14-.61.25-1.28-.17-1.89.15-.49-.3-.94-.61-1.15-1.19-.32-.9-.68-1.78-.99-2.68-.19-.54-.51-.93-1-1.23-.58-.36-.58-.4-.4-1.06,0-.02.01-.05.02-.07.53-.98.04-1.78-.47-2.56-.22-.33-.53-.46-.94-.33-.37.12-.74.21-1.12.31-.72.18-1.38.08-1.95-.44-.67-.6-1.35-1.19-2.02-1.8-.14-.13-.23-.3-.42-.55.3-.03.47-.09.63-.06.51.07,1.02.15,1.52.27.79.2,1.36-.06,1.81-.81-.36-.73-.86-1.41-1.47-1.99-1.06-1.01-2.32-1.71-3.73-2.13-.69-.21-1.38-.41-2.08-.61-.77-.22-1.39-.61-1.81-1.33-.61-1.05-1.33-2.03-1.89-3.1-.37-.7-.55-1.49-.78-2.25-.04-.14.05-.32.11-.6.26.22.45.35.6.51.58.59,1.18,1.16,1.7,1.79.51.61,1.2.87,1.87,1.19.17.08.39.04.63.06.02-.2.08-.36.04-.5-.31-1.06-.57-2.15-1-3.17-.26-.62-.75-1.18-1.24-1.67-.78-.78-1.23-1.69-1.45-2.75-.06-.28-.15-.55-.25-.81-.23-.62-.27-1.25-.19-1.9.13-1.05.21-2.1.32-3.16.07-.64.09-.7.41-1.13.38.02.42.33.49.59.26.94.53,1.89.52,2.88-.01.97.43,1.71,1.23,2.44.09-.31.17-.51.2-.72.3-2.35.6-4.7.88-7.06.06-.53.19-1,.47-1.45.47-.74.86-1.53,1.39-2.23.74-.98,1.61-1.86,2.46-2.69.47.16.45.45.34.73-.4,1.06-.71,2.17-1.25,3.15-.68,1.24-1.27,2.45-1.34,3.9-.06,1.1-.29,2.2-.09,3.31.04.25.09.49.17.86.81-.45,1.61-.7,2.08-1.49.43-.73.9-1.44,1.37-2.15.13-.2.31-.38.47-.56.06.02.11.04.17.05.02.24.08.49.04.72-.17,1.02-.38,2.01-.86,2.95-.61,1.19-1.17,2.39-2.13,3.37-.6.61-.77,1.42-.64,2.3.23,1.51.5,3,1.27,4.35.09.16.18.31.28.46.04.06.12.09.25.18.46-.64.78-1.34.98-2.08.15-.52.43-.91.79-1.29.55-.58,1.05-1.2,1.58-1.8.25-.28.53-.52.8-.78l.17.07c0,.21.04.43,0,.63-.28,1.31-.61,2.6-1.38,3.75-.26.38-.35.9-.45,1.37-.16.74-.07,1.57-.87,2.04.04.14.05.26.11.33.84.97,1.68,1.94,2.52,2.9.15.17.35.3.53.45.3.25.63.33,1.01.19.19-.07.4-.11.6-.15.55-.11.77.06.75.63-.02.46-.09.92-.14,1.38-.05.43.04.8.33,1.14.38.45.77.91,1.09,1.4.29.45.5.95.73,1.43.18.36.35.73.6,1.26.18-.42.29-.67.42-.97Z"/>
</svg>