<?xml version="1.0" encoding="UTF-8"?>
<svg id="Layer_1" data-name="Layer 1" xmlns="http://www.w3.org/2000/svg" viewBox="0 0 64 64">
  <path d="M34.23,31.13c.21-.54.6-.68,1.05-.79,2.41-.62,4.75-1.42,7.04-2.4.68-.29,1-.68.95-1.41-.04-.59,0-1.18,0-1.91-3.8.88-7.54,1.59-11.32,1.58-3.77,0-7.5-.56-11.17-1.57-.4.42-.18.92-.24,1.36-.17,1.19.37,1.81,1.48,2.23,2.21.83,4.44,1.59,6.73,2.14.88.21,1.04.4,1.08,1.27.21,5.18.42,10.36.63,15.54.06,1.41.12,2.83.15,4.24.01.65.15,1.25.54,1.77.37.49.35.97.04,1.49-.38.62-.71,1.26-1.09,1.87-.3.49-.51.57-1.02.33-1.85-.87-3.75-1.64-5.51-2.67-2.78-1.63-5.22-3.7-7.37-6.11-.59-.66-1.2-1.29-1.81-1.92-.7-.72-.8-1.67-.18-2.42.35-.41.47-.88.55-1.37.51-3.2,1-6.39,1.52-9.59.17-1.05.38-2.1.59-3.15.11-.53.07-.97-.44-1.31-.68-.46-.86-1.09-.59-1.89.16-.47.2-.98.26-1.48.43-3.57,1.29-7.04,2.1-10.53.15-.63.2-1.15-.33-1.62-.34-.31-.35-.67.01-.97.38-.31.76-.66,1.21-.85,1.81-.79,3.68-1.46,5.47-2.29,1.8-.83,3.7-1.14,5.62-1.5,2.12-.39,4.17-.12,6.26.28,2.23.42,4.26,1.26,6.22,2.36.76.43,1.58.77,2.34,1.2.93.52,1.02.87.38,1.69-.36.47-.47.92-.34,1.48.49,2.14.98,4.29,1.45,6.44.44,1.99.84,4,1.29,5.99.11.49,0,.86-.35,1.19-.18.17-.35.36-.53.53-.27.26-.35.55-.27.93.88,4.5,1.73,9.01,2.61,13.51.06.3.21.58.33.86.17.37.37.73.54,1.1.18.41.13.8-.16,1.14-1.34,1.58-2.63,3.2-4.03,4.73-1.54,1.69-3.41,2.94-5.48,3.92-1.31.62-2.58,1.29-3.87,1.94-.28.14-.56.3-.85.4-.59.21-.87.12-1.22-.37-.47-.66-.92-1.35-1.4-2.01-.3-.42-.29-.84.02-1.21.52-.63.59-1.34.6-2.12.03-2.55.09-5.09.16-7.63.1-4.11.22-8.23.36-12.42Z"/>
</svg>