<?xml version="1.0" encoding="UTF-8"?>
<svg id="Layer_1" data-name="Layer 1" xmlns="http://www.w3.org/2000/svg" viewBox="0 0 64 64">
  <path d="M34.79,37.59c-1.95,1.51-3.86,2.98-5.81,4.49-.21-.15-.4-.26-.55-.41-1.13-1.15-2.26-2.31-3.38-3.47-.39-.4-.4-.55,0-1.01,1.23-1.45,2.46-2.9,3.7-4.33,2.76-3.17,5.54-6.3,8.28-9.49,3.29-3.83,6.55-7.69,9.81-11.53.29-.35.56-.71.85-1.06.17-.21.37-.4.58-.62.34.24.32.53.33.8.08,4.73-.59,9.33-2.45,13.72-.31.73-.56,1.48-.86,2.22-.1.26-.22.52-.39.75-.9,1.2-1.81,2.4-2.75,3.58-.31.39-.72.71-1.11,1.05-2.06,1.77-4.13,3.54-6.25,5.35ZM17.4,25.91c-.73-2.19-1.44-4.32-2.15-6.44-.69-2.07-.81-4.23-.87-6.39-.02-.79-.02-1.59,0-2.38,0-.18.11-.35.23-.7,5.18,6.31,10.65,12.16,16.14,18.12-1.95,2.31-3.84,4.55-5.77,6.84-.25-.17-.44-.28-.61-.42-2.43-2-4.38-4.44-6.24-6.95-.34-.46-.48-1.08-.73-1.69ZM45.05,37.29c.4.58.28,1.06-.1,1.53-.52.64-1.04,1.27-1.55,1.92-.21.26-.38.55-.59.85.17.22.29.41.43.57,1.24,1.4,2.49,2.79,3.74,4.19.09.11.19.21.28.32.35.44.76.6,1.34.43.82-.24,1.39.23,1.54,1.08.38,2.13-.86,3.46-2.3,4.69-.34.29-.79.45-1.17.69-.82.53-1.64.34-2.43-.03-.69-.32-.9-.83-.58-1.53.32-.67.24-1.17-.34-1.64-.53-.43-1.02-.9-1.51-1.37-.63-.61-1.23-1.25-1.85-1.87-.43-.44-.88-.86-1.39-1.36-.49.4-.9.73-1.3,1.08-1.03.89-2.65.64-3.39-.51-.25-.39-.23-.75.04-1.1.4-.51.82-1.01,1.24-1.52.21-.26.41-.52.67-.85-.91-.7-1.75-1.35-2.69-2.08,1.65-1.37,3.27-2.62,4.96-3.93.64.63,1.25,1.23,1.9,1.87.79-.73,1.54-1.42,2.28-2.11.89-.82,1.29-.82,2.16,0,.2.19.38.42.6.68ZM21.13,41.55c-.69-.96-1.36-1.88-2.06-2.77-.42-.53-.51-.72-.15-1.29.32-.49.73-.94,1.16-1.34.32-.3.72-.29,1.09,0,.16.12.32.24.46.38,2.3,2.31,4.61,4.62,6.9,6.94.44.44.81.95,1.21,1.43.57.69.55,1.3-.04,1.96-.78.86-1.8.94-2.69.21-.35-.29-.68-.6-1.03-.89-.51-.41-.63-.4-1.07.04-1.52,1.49-3.02,2.99-4.55,4.47-.32.31-.37.56-.18.97.51,1.09.45,1.06-.46,1.88-.63.56-1.18.56-1.93.28-1.9-.7-3.14-2.04-3.82-3.87-.24-.64-.15-1.45-.03-2.16.1-.58.81-.88,1.43-.71.62.17,1.04.04,1.48-.47,1.25-1.47,2.57-2.88,3.85-4.32.18-.21.32-.46.47-.75Z"/>
</svg>