<?xml version="1.0" encoding="UTF-8"?>
<svg id="Layer_1" data-name="Layer 1" xmlns="http://www.w3.org/2000/svg" viewBox="0 0 64 64">
  <path d="M48.81,20.9c-.16-.63-.33-1.29-.45-1.94-.08-.43-.19-.86-.29-1.28-.14-.55-.28-1.13-.36-1.7-.11-.78-.43-1.35-1.05-1.87-.56-.47-1.11-.97-1.63-1.45-.22-.2-.43-.4-.65-.59l-.34-.31c-.46-.42-.93-.84-1.43-1.29-.34-.19-.67-.38-1.01-.56-1.2-.67-2.33-1.31-3.5-1.92-.44-.23-1.01-.5-1.55-.55-1.8-.17-3.74-.3-6.1-.41-.06,0-.13,0-.19,0-.71,0-1.42.19-2.17.57-1.01.51-2.04,1.02-3.04,1.51-.95.47-1.94.95-2.9,1.44-.38.19-.77.47-1.19.86-.43.39-.85.81-1.26,1.22-.3.3-.62.61-.93.91-.79.75-1.35,1.54-1.7,2.42-.62,1.56-1.33,3.22-2.15,5.08-.3.67-.4,1.4-.32,2.3.07.76.12,1.53.17,2.27.06.82.12,1.67.2,2.5.06.62.17,1.12.33,1.52.52,1.24,1.11,2.47,1.62,3.51.36.73.77,1.48,1.21,2.22.27.45.58.9.87,1.33.16.23.32.47.47.7l1.25,1.89c1.49,2.25,3.02,4.58,4.52,6.88.19.29.34.6.48.9.13.27.26.55.42.8.6.96,1.25,1.99,1.95,2.96,1.18,1.63,2.39,3.42,3.26,5.45.19.44.49.71.85.74.38.04.77-.19,1.07-.63.04-.07.08-.14.12-.23.03-.07.07-.15.11-.22.13-.22.26-.45.39-.67.34-.59.7-1.2,1.08-1.78.34-.53.71-1.07,1.06-1.58.35-.51.7-1.03,1.04-1.55.81-1.26,1.62-2.52,2.43-3.79.84-1.32,1.72-2.68,2.58-4.02.57-.87,1.15-1.75,1.72-2.61.56-.85,1.14-1.72,1.7-2.59.34-.52.62-1.1.86-1.6.26-.54.51-1.09.76-1.62.4-.87.81-1.76,1.25-2.62.84-1.65,1.15-3,1.01-4.41-.06-.57-.06-1.05,0-1.47.22-1.63-.17-3.2-.56-4.72ZM41.84,25.51c-.25.52-.68.65-1.06.77-.11.03-.21.07-.3.1-.64.26-1.27.52-1.91.78-1.01.41-2.06.83-3.07,1.27-.24.11-.48.45-.57.72-.31.94-.6,1.91-.88,2.85-.16.54-.33,1.09-.49,1.63-.18.59-.38,1.17-.6,1.83-.1.31-.22.65-.33,1l-.13.38-.2-.35c-.09-.15-.16-.27-.23-.38-.12-.2-.21-.34-.27-.51l-.29-.84c-.6-1.75-1.22-3.55-1.78-5.34-.2-.64-.51-.96-1.15-1.18-1.3-.46-2.6-.99-3.85-1.5-.42-.17-.85-.35-1.27-.52-.14-.06-.26-.13-.39-.21-.06-.04-.12-.07-.18-.11l-.13-.08.06-.14c.19-.46.56-.58.87-.68.08-.02.15-.05.23-.08,1.4-.58,3.03-1.25,4.64-1.86.63-.24.94-.58,1.12-1.21.29-1.03.65-2.07,1-3.06.17-.5.35-.99.51-1.49.18-.53.35-1.08.51-1.6.07-.24.15-.48.23-.73l.02-.05.04-.03c.16-.13.4-.29.62-.22.21.07.26.3.29.46,0,.04.02.07.02.1.17.53.32,1.08.47,1.6.09.32.18.63.27.95.17.58.34,1.15.52,1.73.26.87.53,1.78.79,2.67.14.48.47.68.96.86,1.64.59,3.3,1.2,4.91,1.8l.26.09c.16.06.3.13.46.22.07.04.15.08.23.12l.16.08-.08.16Z"/>
</svg>