<?xml version="1.0" encoding="UTF-8"?>
<svg id="Layer_1" data-name="Layer 1" xmlns="http://www.w3.org/2000/svg" viewBox="0 0 64 64">
  <path d="M45.67,18.41c.1.04.2.09.3.13.14.07.28.13.42.17.48.12,1.02-.05,1.17-.37.45-.94.44-1.85,0-2.7-.25-.47-.73-.48-.99-.44-.22.03-.44.12-.66.21l-.06.03c-.6.24-1.08.19-1.57-.16-.16-.11-.4-.14-.65-.17-.13-.01-.26-.03-.38-.06-.08-.02-.16-.03-.25-.04-.23-.03-.47-.05-.64-.2-.64-.59-1.41-1.01-2.16-1.42-.3-.16-.61-.33-.9-.51-.75-.45-1.5-.92-2.23-1.38-.66-.42-1.34-.85-2.02-1.26-.87-.53-1.29-1.28-1.29-2.32,0-.4-.05-.62-.17-.74-.12-.12-.33-.17-.71-.17h-.13c-.14,0-.27,0-.41,0-.43-.01-.66.04-.79.17-.12.12-.17.36-.15.76.04.94-.51,1.65-1.04,2-1.78,1.19-3.69,2.25-5.38,3.19-.12.07-.24.13-.37.2-.51.27-.98.52-1.39.92-.22.22-.49.38-.74.54-.15.09-.3.19-.44.29-.32.24-.62.26-.97.08-.35-.18-.84-.26-1.19.04-.67.58-1.39.44-1.97.32-.31-.06-.59-.09-.85-.08-.57.03-.76.18-.86.69-.1.51-.1,1.05-.02,1.52.09.48.26.8.52.95.27.16.67.16,1.17-.02l.13-.04c.25-.09.5-.18.77-.19.31-.01.57.07.76.25.2.19.32.48.33.84,0,.24.02.48.04.72.02.35.04.71.04,1.07.01,4.61.01,8.45,0,12.07,0,.52-.02,1.04-.04,1.55-.03.93-.07,1.89,0,2.82.14,1.65.08,3.26,0,4.96-.04.83-.07,1.69-.08,2.55,0,.33.02.63.04.92.01.29.03.57.03.85v.27c.03.94.06,1.9.06,2.86,0,.39-.01.78-.03,1.16-.02.5-.04,1.01-.02,1.52.01.44.16.75.41.87.26.13.63.06,1.01-.19.09-.06.17-.13.26-.21.07-.06.14-.12.21-.18.35-.26.69-.55,1.02-.82.8-.66,1.62-1.33,2.59-1.83.49-.25.93-.64,1.36-1.02.21-.18,1.9,2.51,2.25,3.08.63,1.01,1.24,2.06,1.83,3.07.19.33.39.66.58,1,.22.37.38.56.64.49.21-.06.48-.27.62-.51.46-.78.91-1.58,1.34-2.36.35-.63.72-1.28,1.08-1.91.22-.38,1.62-3.12,1.74-3.04,1.03.7,2.06,1.4,3.1,2.1.79.54,1.58,1.07,2.37,1.61.04.03.09.06.13.09.18.12.34.24.52.31.24.09.45.09.63,0,.19-.09.32-.28.4-.54.06-.2.09-.4.09-.58,0-.37.02-.73.02-1.1.03-1.19.06-2.42.04-3.63,0-.73-.04-1.46-.07-2.18-.04-.81-.07-1.65-.07-2.47,0-1.99.03-4.01.05-5.97.01-.99.03-1.98.04-2.97,0-.58,0-1.18-.02-1.78-.01-.39-.03-.77-.04-1.16-.03-.61-.05-1.25-.05-1.87,0-.83,0-1.67.02-2.49,0-.57.02-1.14.02-1.71,0-.7,0-1.41,0-2.11,0-1.07,0-2.17.01-3.25,0-.44.17-.79.47-.99.31-.21.71-.23,1.15-.06ZM33.61,11.31c.02-.05.05-.11.08-.18l.07-.18,1.1.66c2,1.25,3.69,2.32,5.32,3.34.06.04.09.1.13.17.02.03.04.07.07.13l.12.2-.23.03c-.1.01-.19.03-.29.05-.19.03-.38.07-.56.07-.01,0-.02,0-.03,0-1.32-.03-2.66-.07-3.96-.1l-1.11-.03c-.24,0-.69-.02-.7-.56,0-.43-.02-.85-.02-1.28-.01-.67-.03-1.34-.03-2.02,0-.1.04-.18.09-.29ZM24.5,15.04l6.96-4.24.04.23c.02.11.04.21.05.29.03.17.06.3.06.44,0,.44-.02.88-.03,1.31-.01.53-.03,1.08-.03,1.62,0,.53-.25.77-.81.77-.43,0-.87.04-1.29.07-.19.01-.37.03-.56.04h0c-.32,0-.63,0-.94,0-1.16,0-2.24,0-3.3-.02h-.12s-.13-.47-.13-.47l.1-.06ZM41.52,18.76c-.59.55-1.31.72-2.01.88-.21.05-.43.1-.63.16-.87.4-1.69.52-2.47.52-.42,0-.83-.03-1.22-.07-1.53-.15-3.09-.21-4.44-.25-.55-.02-1.13.04-1.73.17-.89.19-1.75.14-2.62-.15-.55-.18-1.13-.32-1.69-.45-.32-.08-.65-.15-.97-.24-.26-.07-.51-.16-.76-.24-.11-.04-.22-.08-.33-.12l-.11-.04v-.46s.15,0,.15,0c.13,0,.25-.02.38-.03.28-.02.57-.04.86-.05.67-.01,1.46-.03,2.23-.01.76.01,1.52.04,2.27.07l.58.02c.44.02.89.04,1.33.06.88.04,1.78.08,2.68.1,1.4.02,2.73-.05,4.06-.22,1.18-.15,2.41-.06,3.6.04.25.02.51.04.76.06l.36.03-.27.25Z"/>
</svg>