<?xml version="1.0" encoding="UTF-8"?>
<svg id="Camada_2" data-name="Camada 2" xmlns="http://www.w3.org/2000/svg" xmlns:xlink="http://www.w3.org/1999/xlink" viewBox="0 0 405.86 475.87">
  <defs>
    <style>
      .cls-1 {
        fill: url(#Gradiente_sem_nome-2);
      }

      .cls-2 {
        fill: url(#Gradiente_sem_nome);
      }

      .cls-3 {
        fill: url(#Gradiente_sem_nome-3);
      }

      .cls-4 {
        fill: url(#Gradiente_sem_nome-4);
      }
    </style>
    <linearGradient id="Gradiente_sem_nome" data-name="Gradiente sem nome" x1="172.19" y1=".02" x2="172.19" y2="475.89" gradientTransform="translate(0 475.89) scale(1 -1)" gradientUnits="userSpaceOnUse">
      <stop offset=".19" stop-color="#7f4e16"/>
      <stop offset=".69" stop-color="#ceae74"/>
    </linearGradient>
    <linearGradient id="Gradiente_sem_nome-2" data-name="Gradiente sem nome" x1="965.78" y1="59.25" x2="965.78" y2="384.66" gradientTransform="translate(1301.0317 475.8898) rotate(-180)" xlink:href="#Gradiente_sem_nome"/>
    <linearGradient id="Gradiente_sem_nome-3" data-name="Gradiente sem nome" x1="978.15" y1="59.25" x2="978.15" y2="384.66" gradientTransform="translate(1301.0317 475.8898) rotate(-180)" xlink:href="#Gradiente_sem_nome"/>
    <linearGradient id="Gradiente_sem_nome-4" data-name="Gradiente sem nome" x1="997.42" y1="59.25" x2="997.42" y2="384.66" gradientTransform="translate(1301.0317 475.8898) rotate(-180)" xlink:href="#Gradiente_sem_nome"/>
  </defs>
  <g id="Camada_2-2" data-name="Camada 2">
    <g>
      <g id="Camada_1-2" data-name="Camada 1-2">
        <path class="cls-2" d="M135.8,332.08l.28,3.19h56.61l-.38-3.77c-.11-1.05-16.47.08-17.57-16.2l-.81-11.94.14-27.99-20.47-11.84.04,41.76-1.41,11.4c-1.89,15.36-16.51,14.54-16.43,15.4h0ZM194.82,43.88c-7.62-3.6-14.71-4.85-23.01-7.22l23.3-7.07,7.8-29.59c2.36,10.11,4.31,19.06,7.55,28.79,7.17,3.57,14.66,5.4,23.01,7.7-8.35,2.44-15.7,4.12-22.94,7.84l-6.43,20.26c4.71,15,13.7,26.91,24.66,37.79,5.36,5.32,10.81,9.33,17.81,12.25,12.79,5.33,23.61,13.02,34.12,21.8l6.14,5.9c18.88,20.77,32.36,43.67,37.34,72.61l-6.28.17c-4.59-23.35-14.12-45.25-30.45-62.41l-9.74-10.25c-11.39-11.98-25.86-19.43-41.24-25.83l-7.25-6.94-12-.21-5.59,4.95-8.47,8.82-13.78-13.65c-11-1.31-13.93.53-21.51,8.04-43.78,17.49-74.62,56.78-80.66,103.91,2.8,7.36,7.07,13.48,12.56,18.67-5.26,4.58-9.47,9.76-12.88,15.64,3.5,39.93,22.23,67.95,49.65,95.7l32.49,32.88,16.52,2.96c7.25-4.59,13.27-10.9,17.44-17.69,3.98,6.94,9.75,12.81,15.61,17.95l16.39-2.73,22.09-21.24,4.99,3.84-36.87,36.31-8.37,7.67c.34-3.41,1.37-6.42,3.09-8.57l8.53-10.66-11.79,1.16-5.65,22.73-8.04,23.32-5.87-16.32-5.48-19.75c-2.7-9.73-4.84-10.63-15.11-12.02l7,9c1.15,1.47,1.51,5.68,1.38,7.54l-66.02-66.46c-8.61-8.66-14.96-18.76-20.93-29.1-10.17-17.6-15.57-36.33-17.54-56.46-6.7-8.21-15.65-12.46-26.44-15.56,10.47-4.03,18.89-8.89,26.57-16.06,5.02-50.87,39.23-95.29,86.84-112.83,13.33-12.84,32.11-30.49,33.61-47.7.57-6.59-3.58-14.75-6.15-19.88h0ZM193.67,390.48l8.99,22.03c2.03-4.1,2.86-8.3,2.86-12.25,1.78-1.39,3.92-4.93,4.39-7.47.38-2.07-2.08-6.1-4.24-7.45-3.84-2.41-10.03,1.43-11.99,5.14h0ZM83.1,230.06l-13.2,9.9,13.29,9.65,8.42-9.75-8.51-9.81h0ZM197.03,101.51c1.18-4.4,1.87-8.54,1.8-11.7l-4.52,1.48-10.6,11.87,8.56.66,11.05,9.39c3.92-3.37,6.22-6.02,8.48-9.62l10.22-.23-16.12-20.27c-1.72,5.99.51,12.14,2.91,18.3l-5.61,6.03-6.16-5.92h0ZM81.02,237.6c-.68.4-1.86,2.69-1.37,3.31.48.62,2.36,1.55,3.18,1.62,4.36.37,4.07-2.8,2.67-4.45-.78-.92-3.03-1.33-4.47-.48h0ZM205.04,390.77l-3.85-3.22c-2.09,3.07-.67,7,2.18,8.47,1.25-1.8,2.6-4.48,1.67-5.25h0ZM204.62,186.8l-.13-16.08c-5.11-.49-3.28-.98-2.99,9.81.03,1.24.04,4.69-.15,6.05l3.28.22h0ZM214.67,53c-3.15,1.59-3.21,5.29-1.49,7.9l9.1,13.81,12.65,15.46c2.29,2.8,5.05,5,8.77,6.36,18,6.54,33.85,16,47.83,29.11,25.36,23.79,42.8,54.35,48.07,88.84.42,2.73,1.79,5.05,4.78,4.26-4.32-37.77-22.97-70.75-49.99-96.07-15.02-14.07-32.48-24.09-52.1-30.85l-12.53-14.41c-6.39-7.34-11.36-14.99-15.09-24.43v.02ZM198.16,131.52c-1.23,2.22.09,4.6,1.86,6.82l1.1,8.87c.08.65.79,1.94,1.1,2.46,2.39,3.99,1.53-6.28,5.26-15.15,1.18-2.8-1.2-5.44-3.56-5.95-1.77-.38-4.75,1.14-5.76,2.95h0ZM199.07,352.95c-.43,1.8-2.62,5.07-2.41,6.75.21,1.67,2.72,4.53,4.78,5.24,3.62,1.25,6.53-1.96,7.07-4.29.7-3.07-.96-5.01-2.15-7.91-.95-2.31-1.23-7.32-1.74-10.16l-.53-2.91c-.11-.58-2.14-.15-2.22.43l-.32,2.4-2.49,10.45h.01ZM277.04,373.85l-58.17,57.7-6.96,6.07-8.78,8.68-9.11-8.2-29.93-29.16-54.93-54.85c-9.5-9.49-16.7-20.22-23.51-31.61-12.06-20.16-18.71-42.02-20.47-65.16l-29.92-17.17c10.3-5.03,20.28-10.56,29.99-17.02,2.88-32.17,16.35-60.91,36.92-85.22,17.26-19.98,39.15-34.16,64.13-42.67,10.58-11.87,19.58-23.7,28.28-36.86l-1.82-6.63-4.92,8.92c-6.29,11.41-14.83,20.62-23.45,30.92-48.05,16.26-84.34,55.2-98.54,104.05-2.5,8.59-3.92,16.47-4.52,25.23-13.11,8.08-27.16,13.29-42.13,16.02l-19.2,3.5c21.75,4.39,40.91,6.82,60.54,18.6,2.96,33.13,20.11,72.03,43.33,95.41l62.17,62.6c17.75,13.95,29.61,36.71,36.84,58.87,6.17-17.57,13.78-33.6,25.85-47.55l26.9-26.94,26.41-26.01c-1.38-1.18-4.21-2.13-4.98-1.56l-.02.04ZM204.51,327.88l.11-32.06c-1.02-.14-2.68-.38-2.69.22l-.04,2.35-.11,28.13c-.12,2.19.08,1.26,2.73,1.37h0ZM334.61,348.7c-10.29,10.1-24.31,12.75-37.24,12.1-8.84-.45-16.63-2.97-24.39-6.55-33.25-15.33-44.24-50.62-52.09-58.63l-11.72-11.85-10.58-8.02.11-.07-10.67-5.98-23.16-13.94c-.85-2.48-.68-5.92-.66-8.81l.08-12.6.21-16.53,34.67-21.05,33.36,20.76.68,37.27c1.83-.66,9.18-3.76,15.49-13.14h0c2.32-5.21,4.03-11.94,3.66-23.8-.95-30.17-21.75-53.68-52.71-52.65-7.16.24-14.05.5-19.89,5.63-2.31,2.03-4.92,7.22-5.03,10.46l-.57,16.54-20.61,12.83-.02-17.9-1.07-16.95c-.37-8.74-6.14-14.79-15.09-15.03-.63-.16-3.15-1.28-2.68-1.85l2.03-2.45,83.41.19c34.3,3.36,58.7,32.01,54.88,66.05-2.48,22.13-15.3,41.64-35.66,50.78h0l-9.74,4.43c3.34,1.17,7.18,3.13,10.32,6.16,3.3,3.19,10.7,14.9,10.7,14.9l12.98,22.28c7.56,15.32,20.02,25.55,36.82,29.7,11.57,2.85,22.04,1.44,34.15-2.27h.03ZM229.38,247.99l.29-26.84-12.63,1,12.34,25.84h0ZM202.77,256.02c-.98,4.71-1.43,9.01-.89,14.18,8.38-4.91,13.95-7.55,20.88-13.76l-19.99-.43h0ZM207.28,206.89l8.28,11.54,10.26-.29c-6.69-4.84-11.17-8.43-18.53-11.25h0ZM185.55,222.19l13.9,29.33,13.97-29.06-27.87-.27ZM171.16,218.02l10.69.69,10.31-13.61-21,12.93h0ZM196.08,252.51l-13.23-27.22-12.91,26.71,26.14.51Z"/>
      </g>
      <g id="Camada_1-2-2" data-name="Camada 1-2">
        <path class="cls-1" d="M386.66,236.53c-14.97-2.73-29.02-7.94-42.13-16.02-.6-8.76-2.02-16.64-4.52-25.23-11.66-40.12-38.24-73.55-73.98-93.22-.43,1.31-.89,2.61-1.38,3.91,14.68,8.12,27.84,18.62,39.04,31.59,20.57,24.31,34.04,53.05,36.92,85.22,9.71,6.46,19.69,11.99,29.99,17.02l-29.92,17.17c-1.76,23.14-8.41,45-20.47,65.16-4.1,6.85-8.35,13.46-13.14,19.71,0,0,.02,0,.03,0,1.58.21,3.07.64,4.45,1.26,18.27-23.47,31.24-56.08,33.77-84.48,19.63-11.78,38.79-14.21,60.54-18.6l-19.2-3.5Z"/>
        <path class="cls-3" d="M323.03,242.17c.82-.07,2.7-1,3.18-1.62.49-.62-.69-2.91-1.37-3.31h-.01c-1.44-.85-3.69-.44-4.47.48-1.4,1.65-1.69,4.82,2.67,4.45Z"/>
        <path class="cls-4" d="M325.34,223.93c-4.3-43.54-29.98-82.33-67.15-103.61-.93,1.82-1.89,3.62-2.87,5.41,34.47,20.03,58.13,54.82,63.33,95.46-2.8,7.36-7.07,13.48-12.56,18.67,5.26,4.58,9.47,9.76,12.88,15.64-2.7,30.75-14.43,54.44-32.2,76.38.76.46,1.47.99,2.14,1.56,1.04.69,2.01,1.5,2.87,2.41,6.27-7.38,11.34-15.52,16.14-23.83,10.17-17.6,15.57-36.33,17.54-56.46,6.7-8.21,15.65-12.46,26.44-15.56-10.47-4.03-18.89-8.89-26.57-16.06ZM322.67,249.25l-8.42-9.75,8.51-9.81h0s13.2,9.91,13.2,9.91l-13.29,9.65Z"/>
      </g>
    </g>
  </g>
</svg>