<?xml version="1.0" encoding="UTF-8"?>
<svg id="Camada_1" xmlns="http://www.w3.org/2000/svg" version="1.1" viewBox="0 0 340 340">
  <!-- Generator: Adobe Illustrator 30.4.0, SVG Export Plug-In . SVG Version: 2.1.4 Build 226)  -->
  <defs>
    <style>
      .st0 {
        fill: #b63131;
      }

      .st1 {
        fill: #b26059;
      }

      .st2 {
        fill: #edb352;
      }

      .st3 {
        fill: #5e89e6;
      }

      .st4 {
        fill: #ed6960;
      }

      .st5 {
        fill: #e7eded;
      }

      .st6 {
        fill: #863131;
      }

      .st7 {
        fill: #a4bdce;
      }

      .st8 {
        fill: #d57370;
      }

      .st9 {
        fill: #403c73;
      }

      .st10 {
        fill: #ededed;
      }

      .st11 {
        fill: #ebc8b5;
      }
    </style>
  </defs>
  <g id="brilho_cajado">
    <path class="st10" d="M284.9,41.1l-12.2,17.7c-.6.9-.2,2.2.9,2.4l14,3.7c1.1.3,2.1-.6,2-1.7l-1.8-21.3c0-1.5-2-2-2.9-.8Z"/>
  </g>
  <g id="cor_roupa">
    <path class="st5" d="M143,308.9c-5.8,6.8-14.4,7.9-21.2,2.9-31.2-22.7-41.1-47-43.3-53.4,2.6,3.4,17.2,21.8,41.4,37.5,6.6,4.3,14.3,3.1,20.1-3,8.8-9.3,21.8-25.3,32.3-47.7,0,0,0,0,0,0,0,0,0,0,0,0h0s0,0,0-.1v-39.8c-12.3,9.7-54.7,30.6-94.2,36.1,0,0,0-.2-.1-.3v16.7s0,0,0,0h0s0,0,0,0c0,0,0,4.5-.8,19.9-.5,8.8-1.2,21.2-2.4,38.4-.5,7.1-1,15-1.7,23.9h102.9s-2.4-48.6-3.7-93.8c-5.2,30.1-19.5,51.2-29.4,62.7Z"/>
  </g>
  <g id="sombra_roupa">
    <path class="st7" d="M78.1,257.1v-.4s0,0,0,0c0,0,0,.1,0,.4Z"/>
    <path class="st7" d="M140,292.9c-5.8,6.1-13.5,7.3-20.1,3-24.2-15.7-38.8-34.1-41.4-37.5,2.2,6.4,12,30.7,43.3,53.4,6.8,5,15.4,3.9,21.2-2.9,9.9-11.6,24.2-32.7,29.4-62.7,0-.3.1-.6.2-1,0,0-.2,0-.2,0,0,0,0,0,0,0-10.5,22.3-23.6,38.4-32.3,47.7Z"/>
    <path class="st7" d="M172.9,193.3c-1.8,2.2-4.2,3.8-7.1,4.7l-.9.2c-3.3.9-6.6.7-9.6-.6-11.8,8.2-40.4,25.1-78.4,28.4,1,1.5.5,12.9,1.1,15,0,.1,0,.2.1.3,39.5-5.5,81.9-26.4,94.2-36.1,0,0,0,0,0,0,0-.1,0-.3,0-.4-.2-2.9.4-7.2.4-11.4Z"/>
  </g>
  <g id="cor_capa">
    <path class="st3" d="M294.4,75.3c.3-2.1,1.7-3.8,3.7-4.5l18.8-6.3c1.2-.4,2.3,1,1.5,2.1l-4,5.4s0,0,.1,0l5.1-6.9c.8-1.1.8-2.7,0-3.8l-25.5-35.1c-1.7-2.3-5-2.3-6.6,0l-24.1,34.9c-.9,1.3-1,3-.2,4.3l4.5,7.9,23.5,25,3.2-23.1ZM287.6,64.9l-14-3.7c-1.1-.2-1.5-1.5-.9-2.4l12.2-17.7c.9-1.2,2.8-.7,2.9.8l1.8,21.3c.1,1.1-.9,2-2,1.7Z"/>
    <path class="st3" d="M208.7,182.6c.4.4.7.8,1.1,1.2-.4-.4-.7-.8-1.1-1.2Z"/>
    <path class="st3" d="M185.9,200.3s0,0,0,0h0c9.7,12,21.7,24.8,28.2,31.6,3,3.1,7.1,5,11.4,5.1l19.6.7c-7.9-17.6-19-35.7-34.5-53.1-6.2,12.7-18.3,15.2-24.6,15.7Z"/>
    <path class="st3" d="M223,263c9.5,21.6,15.4,47.6,12.5,77h28.3s4-34-9.2-77h-31.6Z"/>
    <path class="st3" d="M42.9,277c-4.1-3.8-7.9-7.5-10.8-10.5-4-4.1-6.1-9.6-5.8-15.2.2-3.8.5-7.4.8-10.8-4.6,23.4-10.2,63.2-5.4,99.5h24.8s-6.4-30.7-3.6-63Z"/>
    <path class="st3" d="M37.6,224.3c8.4,1.5,16.6,2.2,24.4,2.3,5.1,0,10.1-.1,15-.5,38-3.3,66.5-20.3,78.4-28.4-2.9-1.2-5.4-3.3-7-6.2-53,17.2-107.3-10.1-107.3-10.1,0,0,.2-5.5,1.4-12.6,35.1,23.8,80.7,22.3,104.5,19.4-1.1-3.8-1.6-8.3-1-13.7.3-2.4,1.2-4.6,2.5-6.5-2.1,0-4.2-.2-6.2-.3-10.7-.8-20.2-2.6-28.4-4.8-24.7-6.7-37.6-17.4-37.6-17.4h0c-4.1-2.4-9.4-.5-11.1,4-1.8,4.9-1.9,8-1.9,8.4,0-.4.1-3.5,2-8.4.4-1.1,1-2,1.8-2.8,7.2,8,19.1,15.3,29.8,20.9,3,1.6,1.1,6.1-2.2,5.1-19.3-6.2-31.4-14.8-31.4-14.8l-7.7-1.1c-5.8-.8-11.3,3-12.5,8.7-1.8,8.6-2,15.8-2,15.8l-2.1-.6c-5.3-1.5-10.8,1.9-11.6,7.4-1.4,9.4-1.5,17.3-1.2,23.2.2,3.5,1.6,6.6,3.9,8.9,2,2.1,4.6,3.5,7.6,4.1Z"/>
    <path class="st3" d="M165.6,162.9c3.9,1.5,7,4.6,8.4,8.6,1.1,3.2,2,7.1,2.2,11.7.2,2.9-.5,5.7-1.9,8.1l4.5-.4,4.7-.4c6.4-.6,11.5-5.7,11.9-12.1.2-3.3.1-6.4,0-9.3-.6-7.3-2.3-13.5-3.9-18.1-1.2-3.4-5.4-4.5-8.2-2.7-.3.2-.7.5-1,.8-5.7,6-11.6,10.4-16.6,13.7Z"/>
  </g>
  <g id="sombra_cajado">
    <path class="st0" d="M314.5,72.1s0,0-.1,0c0,0,0,0,0,0l-22.2,27.5,13,13.9c1.6,1.8,2.7,3.9,3.2,6.2l10.2-25.9c1-2.4,1.5-5,1.5-7.6,0-4.3-.7-10.2-5.6-13.9Z"/>
    <path class="st0" d="M314.3,71.9s0,0,0,0h0s0,0,0,0Z"/>
    <path class="st0" d="M281.8,140.4h-.1c.2.3.5.6.7.9,0,0,7.8,7.4,12.5,16.1,1.5,2.7,3.4,4.1,5.6,4.8,0,0,0,0,.1,0v-26h-.1c0,0-23.9-23.8-23.9-23.8-5,12.5.8,22.7,5.2,28Z"/>
  </g>
  <g id="sombra_capa">
    <path class="st9" d="M316.9,64.5l-18.8,6.3c-2,.7-3.4,2.4-3.7,4.5l-3.2,23.1.9,1,22.2-27.5s0,0,0,0h0,0c0,0,0,0,0,0l4-5.4c.8-1.1-.3-2.5-1.5-2.1Z"/>
    <path class="st9" d="M62,226.6l-4.2,14.9h0c0-.1,0-.1,0-.1l-3,10.5c4.7,7.2,14.5,17.7,22.5,25.8.8-15.4.8-19.9.8-19.9v-.7c0-.2,0-.4,0-.4,0,0,0,0,0,0v-15.5c-.6-2.2-.2-13.6-1.1-15-4.8.4-9.9.6-15,.5Z"/>
    <path class="st9" d="M72.7,320.3l-4.1-1.8c-5.5-2.4-8.5-8.3-7.3-14.1l2.3-11c-6.6-4-14.1-10.3-20.7-16.4-2.8,32.3,3.6,63,3.6,63h26.7c.6-8.8,1.2-16.8,1.7-23.9l-2.2,4.2Z"/>
    <path class="st9" d="M78.2,257.9c0,0,0,0,0,0h0c0,0,0,0,0,0Z"/>
    <path class="st9" d="M223,263h-5.4c-5.4,0-10.7-1.6-15.2-4.6-12-7.8-22.7-16.7-30-23.1v9.8s0,0,0,.1h0s0,0,0,0c0,0,.2,0,.2,0,0,.3-.1.6-.2,1,1.3,45.2,3.7,93.8,3.7,93.8h59.4c2.9-29.4-3.1-55.4-12.5-77Z"/>
    <path class="st9" d="M113.9,150.9v-1.7c-22.8-1.3-37.6-3.7-37.6-3.7,0,0,12.9,10.7,37.6,17.4v-12Z"/>
    <path class="st9" d="M157.9,153.4c-2.6,3.5-7.1,5.1-11.3,4-1.5-.4-2.9-.8-4.3-1.2v6.3h0v5.1c2,.2,4.1.3,6.2.3,2.6-3.8,7-6.2,11.9-6.1,1.8,0,3.5.3,5.2,1,5-3.2,10.9-7.7,16.6-13.7.3-.3.6-.6,1-.8-7.9.7-15.6,1.2-23.1,1.4-.6,1.2-1.3,2.3-2.1,3.4,0,0,0,.2,0,.2Z"/>
    <path class="st9" d="M195.4,178.5c-.4,6.4-5.5,11.5-11.9,12.1l-4.7.4c2.1,3,4.5,6.1,7.1,9.3,6.3-.4,18.4-3,24.6-15.7,0,0,0,0,0,0-.2-.3-.5-.5-.7-.8-.3-.4-.7-.8-1.1-1.2-4.1-4.5-8.6-9.1-13.3-13.4h0c.2,2.9.3,6,0,9.3Z"/>
    <path class="st9" d="M96.8,167.6c-10.7-5.6-22.6-12.9-29.8-20.9-.8.8-1.4,1.7-1.8,2.8-1.9,4.9-2,8-2,8.4,0,0,0,0,0,0,0,0,12.1,8.6,31.4,14.8,3.3,1,5.2-3.5,2.2-5.1Z"/>
    <path class="st9" d="M147,188.3s0,0,0-.1c-23.7,2.9-69.4,4.4-104.5-19.4-1.2,7.1-1.4,12.6-1.4,12.6,0,0,54.2,27.3,107.3,10.1-.6-1-1-2-1.4-3.2Z"/>
  </g>
  <g id="cor_cajado">
    <path class="st4" d="M288.4,272.7c-1,0-1.9-.1-2.8-.3v67.6h14.9v-67.9c-1.2.4-2.4.6-3.7.6h-8.4Z"/>
    <path class="st4" d="M294.9,157.4c-4.7-8.7-12.5-16.1-12.5-16.1-.2-.3-.5-.6-.7-.9,2.5,3.1,3.9,7,3.9,11v78.8c.9-.2,1.8-.3,2.8-.3h8.4c1.3,0,2.5.2,3.7.6v-68.3c-2.2-.7-4.1-2.1-5.6-4.8Z"/>
    <path class="st4" d="M292.2,99.4l-.9-1-23.5-25h0c-5.6,3-8,6.9-9.1,10.7-1.7,6,.2,12.4,4.7,16.6l13,12.4c-4.4,12.2,1.1,22.1,5.5,27.3h.1c-4.4-5.3-10.2-15.5-5.2-28l23.9,23.7h0c4.5-3.5,6.7-7.3,7.7-10.6.6-2,.6-4.1.2-6-.5-2.3-1.6-4.4-3.2-6.2l-13-13.9Z"/>
    <path class="st4" d="M288.4,229.9c-1,0-1.9.1-2.8.3v42.1c.9.2,1.8.3,2.8.3h8.4c1.3,0,2.5-.2,3.7-.6v-41.6c-1.2-.4-2.4-.6-3.7-.6h-8.4Z"/>
  </g>
  <g id="sombra_cabelo">
    <path class="st6" d="M110.2,124.9c-1.7,1.9-3.4,3-5,3.6-.4,2.1-2.3,3.7-4.5,3.7s-4.5-1.9-4.6-4.4c-7.9-5-4.8-19.8-4.8-19.8h0,0c-1.8,2-3.8,3.8-5.6,5.1,3,9.3,8.3,19.7,17.2,30.6,0,0,4.3-4.5,7.5-11.8-.4-3.9-.2-7-.2-7Z"/>
    <path class="st6" d="M165.8,103.3s0,0-.1,0c-.3,11.3-1.2,23.1-1.8,30.6,6.3,4.3,12,5.8,12,5.8,3.1-20.3-.1-35.8-4.6-46.9-1.8-.3-3.6-.7-5.4-1.2,0,3.7,0,7.6-.1,11.7Z"/>
  </g>
  <g id="sombra_pele">
    <path class="st8" d="M185.9,200.3c-2.6-3.2-5-6.3-7.1-9.3l-4.5.4c-.4.7-.9,1.4-1.4,2,0,4.2-.6,8.5-.4,11.4.6-.5,1.1-.9,1.6-1.4,2.4-2,5.4-3.1,8.5-3.1h3.3s0,0,0,0Z"/>
    <path class="st8" d="M57.8,241.4s0,0,0,0h0c0,.1,4.2-14.8,4.2-14.8-7.8-.1-16-.8-24.4-2.3-3-.5-5.6-2-7.6-4.1-.8,4.1-1.7,9.7-2.5,16.4,0,0,0,0,0,0,10.5,2.6,20.5,4.2,30.2,4.8Z"/>
    <path class="st8" d="M276.7,262.9c-.1-.7-.2-1.4-.2-2.1v-19c0-1,.1-2,.4-3l-12.5-.4h0s1.9,24.5,1.9,24.5h10.4Z"/>
    <path class="st8" d="M276.5,241.8v19c0,.7,0,1.4.2,2.1h6.6v-23.8h0c0,0-6.4-.3-6.4-.3-.2,1-.4,2-.4,3Z"/>
    <path class="st8" d="M142.3,162.5v-6.3c-11.6-3.6-20-8.6-24.8-12-1.4-1-2.6-2.1-3.6-3.4v10.1c10.9,9,22.3,11.2,28.4,11.6Z"/>
    <path class="st8" d="M134,116.1c.9.2,2.1.5,3.2.8h.8v.2c1.3,0,2.6-.9,2.9-2.2.4-1.6-.5-3.3-2.1-3.7-1.1-.4-2.4-.7-3.4-.9-1.6-.4-3.2.6-3.6,2.2-.4,1.6.6,3.2,2.2,3.6Z"/>
    <path class="st8" d="M156.5,117h0c.3-.1.6-.3.9-.3,0,0,1.3-.4,3-.9,1.6-.4,2.5-2.1,2-3.7-.4-1.6-2.1-2.5-3.7-2-1.8.5-3.2,1-3.2,1-1.6.5-2.4,2.2-1.9,3.8.5,1.3,1.6,2.1,2.9,2.1Z"/>
    <path class="st8" d="M165.9,91.6c-16.6-4.6-29.5-16.2-29.5-16.2,2.5,16.2-4.9,22.8-8.1,24.9-.8.5-1.8.4-2.5-.2l-4-3.6c-1.1,6.4-4.1,10-6.7,12.1.4-.1,4.9-1.7,8.1-6.4l2.6,3.1c.8,1,2.2,1.3,3.4.8,2.9-1.4,8.2-4.8,12.6-12.9,0,0,10.3,8.6,23.9,10.1,0,0,0,0,.1,0,.1-4,.2-8,.1-11.7Z"/>
  </g>
  <g id="cor_cabelo">
    <path class="st1" d="M91.3,107.9s0,0,0,0c.2-.5,1-2.5,2.8-4.3,4.2-4.2,11.4-3.6,14.8,1.3,1,1.5,1.8,3.5,1.8,6.1,0,0,2.1-.5,4.4-2.4,2.6-2.1,5.6-5.7,6.7-12.1l4,3.6c.7.6,1.7.7,2.5.2,3.2-2.1,10.6-8.7,8.1-24.9,0,0,12.9,11.6,29.5,16.2,1.8.5,3.5.9,5.4,1.2,4.3.7,8.8.9,13.3.3h0c0,.1.9-19.8-2.7-28.1-3.5-8-11.6-18.2-25.3-21,0,0,6.6-1.7,11.2-9.6,0,0-10.1.2-16.5-2.5,0,0-30.7-10.2-44.8,21.4,0,0-10.7.2-18.7,10.1,0,0-17.7,18.4-9.5,53.9,0,0,3.4-1.3,7.4-4.2,1.9-1.4,3.8-3.1,5.6-5.2Z"/>
  </g>
  <g id="acessorios">
    <path class="st2" d="M164.9,198.2l.9-.2c2.9-.8,5.3-2.5,7.1-4.7.5-.6,1-1.3,1.4-2,1.4-2.4,2.1-5.2,1.9-8.1-.2-4.6-1.1-8.5-2.2-11.7-1.4-4-4.6-7.1-8.4-8.6-1.6-.6-3.4-1-5.2-1-4.9,0-9.2,2.3-11.9,6.1-1.3,1.9-2.2,4.1-2.5,6.5-.6,5.3-.1,9.9,1,13.7,0,0,0,0,0,.1.3,1.1.8,2.2,1.4,3.2,1.6,2.8,4.1,5,7,6.2,2.9,1.2,6.3,1.5,9.6.6Z"/>
    <path class="st2" d="M100.7,132.2c2.2,0,4.1-1.6,4.5-3.7,0-.3,0-.6,0-.9,0-2.5-2.1-4.6-4.6-4.6s-4.6,2.1-4.6,4.6,0,.2,0,.2c.1,2.4,2.1,4.4,4.6,4.4Z"/>
  </g>
  <g id="cor_pele">
    <path class="st11" d="M113.9,162.9c8.2,2.2,17.7,4,28.4,4.8v-5h0c-6.1-.5-17.5-2.7-28.4-11.7v12Z"/>
    <path class="st11" d="M57.8,241.4c-9.7-.6-19.8-2.2-30.2-4.8-.1,1.3-.3,2.5-.4,3.9-.3,3.4-.6,7-.8,10.8-.3,5.6,1.8,11.1,5.8,15.2,2.9,3,6.7,6.7,10.8,10.5,6.6,6.1,14.1,12.4,20.7,16.4l-2.3,11c-1.2,5.8,1.8,11.7,7.3,14.1l4.1,1.8,2.2-4.2c1.2-17.2,1.9-29.6,2.4-38.4-7.9-8-17.8-18.6-22.5-25.8l3-10.5Z"/>
    <path class="st11" d="M300.5,230.5c-1.2-.4-2.4-.6-3.7-.6h-8.4c-1,0-1.9.1-2.8.3-4.3,1-7.6,4.3-8.7,8.6-.2,1-.4,2-.4,3v19c0,.7,0,1.4.2,2.1h-10.4l-1.9-24.5-19.4-.7-19.6-.7c-4.3-.1-8.4-2-11.4-5.1-6.5-6.8-18.5-19.6-28.2-31.6h-3.2c-3.1,0-6.1,1.1-8.5,3.1-.5.4-1,.9-1.6,1.4,0,.1,0,.3,0,.4,0,0,0,0,0,0v30.1c7.3,6.4,18,15.2,30,23.1,4.5,3,9.8,4.6,15.2,4.6h59.1c.9,4.6,4.4,8.3,8.9,9.4.9.2,1.8.3,2.8.3h8.4c1.3,0,2.5-.2,3.7-.6,4.8-1.6,8.2-6.1,8.2-11.3v-19c0-5.3-3.4-9.8-8.2-11.3Z"/>
    <path class="st11" d="M129.2,106.1c-1.2.5-2.6.2-3.4-.8l-2.6-3.1c-3.2,4.7-7.7,6.3-8.1,6.4-2.4,1.9-4.4,2.4-4.4,2.4,0-2.6-.8-4.6-1.8-6.1-3.4-4.9-10.6-5.5-14.8-1.3s-2.6,3.8-2.8,4.3c0,0,0,0,0,0h0q0,0,0,0s-3.1,14.8,4.8,19.8c0,0,0-.2,0-.2,0-2.5,2.1-4.6,4.6-4.6s4.6,2.1,4.6,4.6,0,.6,0,.9c1.6-.6,3.3-1.8,5-3.6,0,0-.2,3.1.2,7,0,.4,0,.8.2,1.3.4,2.8,1.6,5.4,3.3,7.6,1,1.3,2.2,2.4,3.6,3.4,4.8,3.4,13.2,8.4,24.8,12,1.4.4,2.8.8,4.3,1.2,4.2,1.1,8.7-.5,11.3-4,0,0,0-.1,0-.2.8-1.1,1.5-2.2,2.1-3.4,2-3.7,3.1-7.8,3.5-12,0-1.1.2-2.4.3-3.9.6-7.5,1.4-19.3,1.8-30.6-13.5-1.5-23.9-10.1-23.9-10.1-4.4,8.1-9.7,11.5-12.6,12.9ZM140.9,114.9c-.3,1.3-1.6,2.2-2.9,2.2v-.2h-.8c-1.1-.3-2.3-.6-3.2-.8-1.6-.4-2.6-2-2.2-3.6.4-1.6,2-2.6,3.6-2.2,1,.2,2.3.5,3.4.9,1.6.4,2.5,2.1,2.1,3.7ZM155.5,111.1s1.4-.5,3.2-1c1.6-.5,3.3.4,3.7,2,.5,1.6-.4,3.3-2,3.7-1.7.5-3,.9-3,.9-.3,0-.6.2-.9.2h0c-1.3.1-2.4-.7-2.9-2-.5-1.6.3-3.3,1.9-3.8Z"/>
  </g>
</svg>
