<?xml version="1.0" encoding="UTF-8"?>
<svg id="Camada_1" xmlns="http://www.w3.org/2000/svg" version="1.1" viewBox="0 0 340 340">
  <!-- Generator: Adobe Illustrator 30.4.0, SVG Export Plug-In . SVG Version: 2.1.4 Build 226)  -->
  <defs>
    <style>
      .st0 {
        fill: #b26059;
      }

      .st1 {
        fill: #ffc72e;
      }

      .st2 {
        fill: #ecb3aa;
      }

      .st3 {
        fill: #9eb7cb;
      }

      .st4 {
        fill: #ffd43b;
      }

      .st5 {
        fill: #863131;
      }

      .st6 {
        fill: #c43d3d;
      }

      .st7 {
        fill: #d57370;
      }

      .st8 {
        fill: #e2e9ea;
      }
    </style>
  </defs>
  <g id="pena">
    <path class="st6" d="M203.2,22.5l-32.8,57.1c-6.9-4-10.1-11.3-1.1-27.1,9-15.8,18.7-21.8,33.9-30.1Z"/>
  </g>
  <g id="sombra_roupa">
    <path class="st3" d="M64.8,203.8c-.9-1.9-1.8-4-2.8-6.3-3,4.2-10,12.4-21.5,15.3,0,0,0,0,0,0,0,.1,0,.3,0,.4.3,1.5.6,3.1,1,4.7,0,.3.1.5.2.8,0,0,0,0,0,0,11.4-2.7,18.9-9.7,23.1-14.9Z"/>
    <path class="st3" d="M74.5,210.8s0,0,0,0c-1.2.9-3.6,2.6-4.6,3.3,0,0-1.3,28.4-18.1,40.6,0,0,6.5-2.8,13.4-6.2,11.7-13.6,9.9-32.3,9.3-37.7Z"/>
    <path class="st3" d="M214.1,203.4s0,0,0,0c-1.1-4.2-2.4-7.1-3.3-8.7-.9.6-1.7,1.3-2.6,2-15.4,11.9-30.4,20.6-38.7,25.1-4.2,2.2-9.2,2.2-13.4,0-16.9-8.9-29.4-17.7-38.4-25.2-.8,1.8-1.7,4.2-2.5,7.3,0,0,0,0,0,0,1.6,1.4,3.1,2.8,4.7,4.1,0,0,0,0,0,0,14.5,11.9,30.4,20.1,40.1,24.5,5.5,2.5,11.8,1.7,16.6-2h-.1c10.3-8,20.2-15.2,29-21.3,3-2.1,5.8-4,8.4-5.8Z"/>
  </g>
  <g id="cabelo">
    <path class="st1" d="M129.7,75.7s3.9,26.7,37,30.8c0,0,.5-3.2,2.7-6.1,3.7-4.7,11-4.5,14.1.5,1.3,2.1,2.2,5.1,2.2,9.5,0,0,0,3.6-2.1,6.5,4.3-1.7,11.3-6.3,14.9-18,1.9-6.4,2.4-12.9,1.6-19.3-1-8.2-4.2-15.9-9.1-22.5-2.6-3.4-5.6-6.5-9.1-9.2-.9-.7-1.8-1.3-2.7-1.9-2.2-1.4-4.5-2.7-6.9-3.7-1.7-.8-3.6-1.5-5.5-2.1-7.9-2.6-16.5-3-24.5-.6-4.9,1.5-10.6,5.9-13.1,10.2,0,0-20.9,3.4-20.2,31.1.3,10.7,4.8,17.9,10.5,22.6,0-9.4,2.1-20.7,10.1-27.8Z"/>
  </g>
  <g id="sombra_pele">
    <path class="st7" d="M38.1,169.1c-.6-.8-1.9-.4-1.9.6v5.1c0,3.8-2.6,7-6.3,7.6l-1.2.2s0,.1,0,.3c0,.7,0,2.6.5,4.9,0,0,0,0,0,0,9-.8,11.1-6.3,11.3-11.6h0c0-2.6-.8-5.1-2.3-7.1Z"/>
    <path class="st7" d="M214.2,203.3s0,0,0,0c-2.7,1.8-.6,30,1,32.8.4.7.8,1.4,1.1,2.1.4.8.8,1.6,1.2,2.4,0,0,0,0,0,0,9.1-13.8,6.8-33.3,4.9-42.8,4.7-3,8.5-5.5,11.4-7.3,0,0,0,0,0,0,0-.5.1-1,.2-1.5.6-4.3,1.5-7.9,2.1-10.3-5.6,2.7-14.1,7.5-25.3,15.9.9,1.6,2.2,4.5,3.3,8.7Z"/>
    <path class="st7" d="M115.3,203.8c.8-3.1,1.7-5.5,2.5-7.3-4.7-3.9-8.5-7.5-11.4-10.6-1.4,1.2-3.2,2.6-5.2,4.1,0,0,0,0,0,0,2.2,5,8.1,21.4.3,36.9,4.1-3,8.1-6.2,11.7-9.5,1.8-1.7,3.6-12.3,2.1-13.7,0,0,0,0,0,0Z"/>
    <path class="st7" d="M261.5,278.9l-8.5,8.1c0,.2-.1.4-.2.6-.3,1.1-.6,2.1-.9,3.2-.2.6-.2,1.3-.4,2-.5,0-1.1,0-1.7-.2.2-1.1.5-2.1.7-3.3l-3.1,3c.8.1,1.5.3,2.3.4.7.1,1.2.2,1.8.2,1.5.2,3.1.3,4.6.3.7-.9,1.5-1.9,2.3-2.8.8-3.2,1.7-6.4,2.6-9.6.2-.6.3-1.2.5-1.8Z"/>
    <path class="st7" d="M265.9,274.7l-2.2,2.1c-.2.6-.3,1.2-.5,1.8-.9,3.2-1.7,6.3-2.5,9.4,2.1-2,4.5-3.9,7.2-5.3,1.1-.6,2.4-1,3.6-1.1-1.5-1.7-3.3-3.9-5.6-6.9Z"/>
    <path class="st7" d="M176.8,125.7c0,3.3-1.3,6.5-3.6,8.8-4,4.1-11.2,10.3-21.5,14.5-.3.1-.6.2-1,.3l1,9c13.6-3.3,22.3-11.8,27.1-18.2,0,0,0,0,0-.1h0l-2.1-19.7v5.4Z"/>
    <path class="st7" d="M131.3,108.9c-.8-.1-1.8-.4-2.1-.5-1.6-.6-3.3.2-3.9,1.7-.6,1.5.2,3.3,1.7,3.9.2,0,1.9.7,3.8.9h.2c1.6,0,2.9-1.2,3-2.8.2-1.6-1.1-3.1-2.7-3.2Z"/>
    <path class="st7" d="M145.5,108.5c-.3,0-1.3.5-2.1.5-1.6,0-2.8,1.5-2.7,3.2,0,1.6,1.5,2.8,3,2.8h.2c1.9,0,3.6-.9,3.8-.9,1.6-.6,2.3-2.4,1.7-3.9-.6-1.5-2.4-2.3-3.9-1.7Z"/>
  </g>
  <g id="sombra_acessorios">
    <path class="st5" d="M191.1,57.1c4.9,6.6,8,14.3,9.1,22.5,5.9-4.2,11.5-10.6,8.4-20.1-7.5,1.9-13.5,0-17.4-2.4Z"/>
    <path class="st5" d="M151.4,156.8c-9.6,0-15.9-3.9-17.2-4.8l.2.3,17.8,13-.9-8.5Z"/>
    <path class="st5" d="M134,151.8s.1,0,.3.2l-.3-.3h0Z"/>
    <path class="st5" d="M154.2,166.7c-1.2,1.1-2.4,2-3.6,2.7-2.9,1.6-8.3,1.3-12.2.8-.9-.1-1.3,1.1-.5,1.5l5.4,3c3.4,1.9,7.5,1.4,10.4-1.2l4.3-4-3.8-2.8s0,0,0,0Z"/>
    <path class="st5" d="M135.8,188.3c1,.8,2.2-.5,1.5-1.5-5.8-7.4-14.9-20-18.6-30.5h-.1c0,0-.2.2-.2.3-.2.3-.4.5-.7.8-.2.3-.5.6-.7.9,0,.1-.2.2-.3.3-1.6,2.1-3,4.5-4,7.2,0,0,10,12,23.1,22.5Z"/>
    <path class="st5" d="M193.2,156.1c-7.9,11.6-17.3,22.9-28.1,34.1-.9,1,.4,2.4,1.4,1.6,8.8-6.6,18.4-15.2,28-25.6,0,0,16.4-16.7,26.9-1.7,0,0,7.6,9.4,5.9,18.8,4.1-2.5,7.6-4.2,10.2-5.4,3.3-1.5,5.2-4.8,5.1-8.1,0-.9-.2-1.7-.4-2.6h0c-1.9-5.9-5.8-13.8-13.7-20.8-4.4-3.9-10.9-4.1-15.4-.4-2.1,1.7-4.5,3.9-7,6.6l-7.8-8c-3.5-3.5-9.4-3.6-13-.3l-2.8,2.6c2.2.6,6.3,2.6,10.6,9.2Z"/>
    <path class="st5" d="M251,234.3s0,0,0,0h.2c0,0-.1,0-.2,0,0,0,0,.1,0,.2,0,0,0,0,0,0,1.6.2,3.1.5,4.6.7.5,0,.9,0,1.5.2,0,0,0,0,0,0,0,0,0,0,0-.1.5,0,1,0,1.5.1,0,0,0,.1,0,.2,0,0,0,0,0,0,1.5.2,3,.5,4.5.7.5,0,1,.2,1.5.3h0c.5,0,1.1,0,1.7.2h.2c0,0,0,.1,0,.2,0,0,0,0,.1,0,.4,0,.7,0,1.1,0h.4c.2.2.5.2.8.2h.4c.1,0,.2,0,.4,0h.4c.2.1.4.1.6.1h.7-.1c.2,0,.4,0,.6,0,.5,0,1.1.2,1.8.3.1,0,.3,0,.4,0,1.2.2,2.4.4,3.6.6.6.1,1.3.2,2,.3,0-.2,0-.5,0-.7-.1-2.5-.3-4.1-.3-5.4-1.6-.2-3.3-.5-4.9-.7-.3,0-.6-.2-1.1-.2-.3-.1-.5-.1-.7-.1-.5,0-1-.2-1.6-.2-.4-.1-.7-.2-.9-.2-.8-.1-1.5-.2-2.3-.3h-.3c-.6,0-1.1-.1-1.8-.2-.4-.2-.7-.2-.9-.2-.7-.2-1.5-.3-2.4-.4-.2-.1-.4-.1-.5-.1-.6,0-1.1,0-1.8-.2-.2,0-.4,0-.5,0-.7-.1-1.3-.2-2.1-.3-.3-.1-.4-.1-.4-.1-.7,0-1.5-.2-2.4-.3-.4-.2-.7-.2-.9-.2-.9,0-1.7-.2-2.5-.3-.7-.1-1.4-.2-2.2-.3-1.6.4-2.9,2-2.9,3.4,0,.8.3,1.4.5,2,.9.1,1.7.3,2.6.5,0,0,.1,0,.2,0,0,0,0,0,0-.1.4,0,.9,0,1.3,0ZM270.3,237.3h-.3.3ZM269.4,237.2h-.3.3ZM268.2,237h-.3.3Z"/>
  </g>
  <g id="cor_acessorios">
    <path class="st0" d="M191.1,57.1c4,2.3,10,4.3,17.4,2.4-.7-1.9-1.7-4-3.1-6.2-4.3-6.6-9.7-8.2-14.3-8-4,.2-7.4,1.7-9.1,2.6,3.5,2.6,6.5,5.7,9.1,9.2Z"/>
    <path class="st0" d="M117,158.2c.2-.3.5-.6.7-.9-.2.3-.5.6-.7.9Z"/>
    <path class="st0" d="M117.8,196.5c9,7.5,21.5,16.3,38.4,25.2,4.2,2.2,9.2,2.2,13.4,0,8.3-4.5,23.3-13.2,38.7-25.1.9-.7,1.7-1.3,2.6-2,11.1-8.4,19.7-13.2,25.3-15.9,0,0,0,0,0,0,.5-.2.9-.4,1.3-.6,3.3-1.5,5.3-4.9,5.1-8.3,0,3.4-1.9,6.6-5.1,8.1-2.6,1.2-6.1,2.9-10.2,5.4,1.7-9.4-5.9-18.8-5.9-18.8-10.5-15-26.9,1.7-26.9,1.7-9.6,10.4-19.2,19-28,25.6-1,.8-2.3-.6-1.4-1.6,10.8-11.2,20.2-22.5,28.1-34.1-4.3-6.6-8.4-8.6-10.6-9.2l2.8-2.6-5.6,5.2-21.8,20-4.3,4c-2.9,2.6-7,3.1-10.4,1.2l-5.4-3c-.8-.4-.4-1.6.5-1.5,3.9.5,9.3.8,12.2-.8,1.2-.7,2.4-1.6,3.6-2.7l-1.9-1.4-17.8-13-.6-.4c-3.3-2.4-7.7-2.3-10.9.3-1.5,1.2-3.1,2.7-4.6,4.5,0,0,.2-.2.2-.3h.1c3.7,10.5,12.8,23.1,18.6,30.5.7,1-.5,2.3-1.5,1.5-13.1-10.5-23.1-22.5-23.1-22.5,1.1-2.7,2.5-5.1,4-7.2-1.6,2.1-3,4.5-4.1,7.3,0,0-4.3.6-8.7,3.6-4,2.8-4.6,8.4-1.5,12.1,1.1,1.3,2.4,2.7,4,4.4,2.9,3,6.7,6.6,11.4,10.6Z"/>
    <path class="st0" d="M255.7,309.3c-3.7-3.9-4.1-9.8-1.1-14.2h0c.5-.6,1-1.3,1.5-2-1.6,0-3.1,0-4.6-.3-.6,0-1.1,0-1.8-.2-.8-.1-1.5-.3-2.3-.4-.9-.2-1.9-.3-2.8-.5-.1,0-.3,0-.4,0-.2,0-.5,0-.8-.2-.7-.1-1.2-.2-1.9-.4-1.9-.3-3.6-1.1-5.5-1.6,0,0-.2,0-.3,0-.1,0-.3,0-.4-.1-.2,0-.4-.2-.7-.3,0,0-.2,0-.3-.1,0,0-.1,0-.2,0-2.4-.9-4.6-2-6.5-3.6-.5-.5-2.2-3.3-2.4-4.2-.4-1.6-.5-3.2-.4-4.8.2-2.6.8-5,1.6-7.4.2-.5.4-.9.5-1.4,1.2-3.2,2.7-6.3,4.4-9.3,2.1-3.8,4.5-7.4,6.9-11,1.5-2.3,3-4.6,4.4-6.9.7-1.1,1.3-2.1,2-3.2.7-1.1,1.2-2.2,1.9-3.4-.2-.7-.5-1.3-.5-2,0-1.4,1.3-3,2.8-3.4,0-.2,0-.5.2-.8q0-.2.1-.3v-.7c0-.6,0-1.1.2-1.8v-2.9c0-.2-.1-.4-.2-.7v-.5c-.1-.2-.2-.5-.3-.9v-.4s-.1-.2-.2-.4c-.4-.9-.8-1.8-1.2-2.6-1.6-2.5-3.8-4.1-6.6-4.8h-.5q-.2,0-.3,0h-2.5c-.2,0-.4,0-.7,0h-.4c-.3.1-.6.2-1,.3h-.6c-.1,0-.2.2-.4.3-.4,0-.6.2-.9.4-.3.2-.7.5-1,.7-2,1.5-3.1,3.5-3.6,5.9v2.6s.1.2.1.4v.5c0,.2,0,.4.2.7.2.5.4.9.6,1.2.4.6.7,1.3,1.3,1.7.8.5,1.4,1.4,2.5,1.4s2.2,0,3.3-.1c.6,0,1.2-.2,1.6-.5,0,.2,0,.5-.2.6-.3.5-.6,1-.9,1.5-.4.6-.8,1.3-1.2,1.9-1.2,1.8-2.4,3.6-3.6,5.3,0,.1-.1.2-.3.4-.2.3-.4.6-.6.8,0,.2-.3.4-.5.7-.3.3-.5.6-.7.9,0,.2-.3.4-.5.8-.2.3-.4.6-.6.8l-.6.9c-.2.3-.4.5-.5.7-.2.3-.4.6-.6.9-.7.9-1.3,1.7-1.9,2.5,0,.2-.2.3-.4.6-.7.9-1.3,1.7-1.9,2.6,0,.2-.2.3-.3.6-.5.7-1,1.5-1.5,2.2-.5.7-1,1.5-1.5,2.2-.7,1.1-1.4,2.1-2.2,3.1,0,.1-.2.2-.2.4-.7,1.1-1.3,2.3-1.9,3.4-.7,1.2-1.4,2.5-2,3.8-.3.6-.6,1.3-.9,1.9-1.1,2.8-2.4,5.6-3.1,8.5,0,.1,0,.2-.2.4,0,.3,0,.6,0,.8v.4q0,.2-.1.3c0,.3,0,.6-.2,1.1-.1.4-.2.7-.3,1v.4c0,.2,0,.4,0,.5v.5c0,.3-.1.5-.1.7v.4c0,.2,0,.4,0,.5v.6c0,.4,0,.6-.1.8v1.1c0,.5,0,1,0,1.4,0,1.1.3,7.3,1.3,11.8,0,.3,0,.4.1.5.2.6.4,1.2.7,1.9,0,.2,0,.4.1.5.2.5.5,1,.7,1.6,0,.2,0,.4.2.5.8,1.3,1.5,2.6,2.3,4,0,.2,0,.3.2.4.3.4.6.8,1,1.2.1.2.2.4.3.5.2.2.4.5.6.7,0,0,2.4,2.3,2.8,2.5,2.1,1.8,4.4,3.3,6.9,4.5,1.5.7,3,1.4,4.5,1.9,3.2,1.1,6.5,1.8,9.9,2.1,1.5,0,3,.3,4.5.2,4.6-.1,9-1,13.3-2.9,1.5-.7,2.9-1.4,4.3-2.2-2-1.6-4.3-3.7-6.6-6.2ZM250,304.9v-.2c-.3,2-1.3,3.5-2.9,4.2-.9.5-2,.7-3.2.5-1.3-.2-2.5,0-3.5.5-.6.4-1.2.9-1.7,1.5-.3.4-.6.8-.9,1.2-.2.2-.4.4-.6.5-.2.1-.4.2-.7.1-.4,0-.6-.5-.6-.8s-.1-.6-.1-.9c-.2-2.1-1.1-3.7-3.1-4.5-.5-.2-1.1-.3-1.6-.5v-.2c-1.1-.5-1.9-1.2-2.3-2.3-.5-1.4-.3-2.8.4-4.1.2-.3.4-.4.6-.2.1,0,.3.1.3.3.3.7.7,1.1,1.3,1.4.3.1.6.2.9.3.3,0,.6.2.8.3,1.4.6,2.4,1.7,2.9,3.3,0,.2,0,.4.2.7,0,.1.1.2.2.3,0,0,.1,0,.2,0,.2,0,.3-.3.4-.5v-.5c0-1.2-.1-2.4-.2-3.5,0-1.2.3-2.3,1.1-3.2.7-.9,1.6-1.6,2.5-2.3.3-.2.6-.2.8,0,.2,0,.5.2.6.5.8,1.5,1.2,3.1,1,4.8-.2,1.1-.9,1.9-1.4,2.7-.5.7-.9,1.4-1.3,2,0,.2-.3.5,0,.8s0,0,0,0c.2,0,.4-.2.6-.3.3-.3.6-.5.9-.8,1.3-1,2.8-1.5,4.5-1.2,1,0,1.9,0,2.8-.5.2-.1.4-.1.6,0,.3,0,.6.3.5.7Z"/>
    <path class="st0" d="M296.5,218.1c0,0-.2,0-.5-.2-.5,0-.9-.2-1.3-.3,0,0-.2,0-.4,0h-3.7c0,0-.3,0-.5,0h-.5c0,0-.3.1-.5.2-.7.2-1.3.4-1.9.6-.1.1-.3.2-.5.3-.2,0-.3.2-.4.2-1.1.5-2,1.4-2.8,2.2-.5.4-3.6,3.9-3.6,6.6s-.4,2.8-.4,3.1c0,.7,0,1.3,0,2,0,1.3.2,2.9.3,5.4.1,2.5.3,5.8.3,10.7,0,12.5,0,4.6-.2,6.9-.3,4.7-.9,9.3-2,13.8-1,4.1-2.4,8-4.4,11.7,0,0,0,.1,0,.2,2.5,0,4.9,1,6.9,2.5,1.4,1.1,2.9,2.4,4.5,3.8,1.3-3.5,2.4-7,3.2-10.6,1.5-6.8,2-13.8,2.2-20.7,0-3.6,0-7.1-.1-10.7,0-1.2-.5-12.3-.6-13.1l.5.5c1.5,1.4,3.4,2.2,5.4,2.3h.2c1.8-.2,3.2-.9,4.3-2s1.9-2.5,2.3-4.1v-3.3l.2-.4v-.4c-.3-.8-.6-1.6-.9-2.6-1.2-2.2-2.9-3.6-5-4.6ZM282.5,224.4c.1,0,.2-.2.3-.2,0,0-.2.2-.3.2Z"/>
  </g>
  <g id="cor_roupa">
    <path class="st8" d="M74.5,210.8c.6,5.3,2.4,24.1-9.3,37.7-6.9,3.4-13.4,6.2-13.4,6.2,0,0,20-8.2,39.9-21.1-5.9-7.4-10.1-16.2-13.5-25.5-1.3,1-2.5,1.9-3.7,2.7Z"/>
    <path class="st8" d="M69.9,214.1s-6.6-12.3-11.7-26.2c-7.5,11.5-20.2,10.4-20.2,10.4,0,0,0,0,0,0h0s.9,6,2.6,14.5c11.5-2.9,18.5-11.1,21.5-15.3,1,2.3,1.9,4.4,2.8,6.3-4.2,5.2-11.7,12.2-23.1,14.9,2.4,11.3,5.8,25.2,10.1,36,16.8-12.2,18.1-40.6,18.1-40.6Z"/>
    <path class="st8" d="M228.8,340l-3-23.6c-2.4-1.2-4.7-2.7-6.9-4.5-.4-.2-2.8-2.5-2.8-2.5-.2-.2-.4-.5-.6-.7-.1-.1-.2-.3-.3-.5-.4-.4-.7-.8-1-1.2,0-.1,0-.2-.2-.4-.8-1.4-1.5-2.7-2.3-4,0,0-.2-.3-.2-.5-.2-.6-.5-1.1-.7-1.6-.1-.1-.1-.3-.1-.5-.3-.7-.5-1.3-.7-1.9-.1,0-.1-.2-.1-.5-1-4.5-1.3-10.7-1.3-11.8,0-.4,0-.9,0-1.4v-1.1c.1-.2.1-.4.1-.8v-.6c0-.1,0-.3,0-.5v-.4c0-.2.1-.4.1-.7v-.5c0,0,0-.3,0-.5v-.4c.1-.3.2-.6.3-1,0-.5.2-.8.2-1.1q.1,0,.1-.3v-.4c0-.2,0-.5,0-.8.1-.2.2-.3.2-.4.7-2.9,2-5.7,3.1-8.5.3-.6.6-1.3.9-1.9.6-1.3,1.3-2.6,2-3.8.6-1.1,1.2-2.3,1.9-3.4,0-.1.2-.2.2-.4l-1.9-15.1v-19.4c.2-8-.8-14.3-2.1-19-2.7,1.8-5.5,3.7-8.4,5.8-8.8,6.1-18.7,13.3-29,21.4h.1c-4.8,3.6-11.1,4.4-16.6,1.9-9.7-4.4-25.9-12.9-40.3-24.7-1.5-1.3-3.1-2.6-4.6-3.9,0,0,0,0,0,0h-.1c-.9,3.6-1.7,8.2-2,13.7,0,1.5,0,3.2,0,4.9,0,4.5,1.5,16.3,5.3,27.2-1.8,22.4-5.8,71.9-5.8,90.4h116.1Z"/>
  </g>
  <g id="cor_cordas">
    <path class="st4" d="M323.8,200.2v-.5h0v-.3h0c0,0-.2-.9-.2-.9-.2-.7-.3-1.3-.4-2,0-.5-.2-1.1-.3-1.6v-.6c0-.2,0-.4,0-.5l-.3-1.2c-.1-.6-.3-1.3-.4-1.9v-.9c0-.3-.2-.5-.3-.8v-.3l-.2-1.1c-.1-.6-.3-1.3-.4-2,0,0,0-.2,0-.2-.2-.3-.4-.5-.6-.6,0,0-.3,0-.4,0h-.7c0,0-.7.4-.7.4-.3.1-.7.2-1,.4h-.4c-.5.2-1,.4-1.6.6h-.2c-.3.1-.6.2-1,.4,0,0-.2,0-.3,0h-.6c-.2,0-.3,0-.4.2h-.5c0,.1-.2.2-.3.2h-.8s-.2,0-.3,0c0,0-.2,0-.3.1h-.3c-.4,0-.8.3-1.2.5l-.5.2h-.4c-.1,0-.3,0-.5.2h-.6c-.2.1-.3.2-.5.3h-.3c-.9.6-1,1-.8,2v.6h0c.1.6.2,1,.4,1.5v.2h0c0,0,.2.9.2.9,0,.5.3,1.1.4,1.6,0,.3,0,.5.1.8,0,.4.2.7.3,1.1v.5c0,.3.2.6.3,1,0,.3,0,.5,0,.8.1.5.3,1,.4,1.6,0,.6.3,1.2.4,1.8h-.5c-1.1,0-2.2.3-3.2,1-.4.3-.8.7-1.2,1-.2,0-.3.3-.5.5s-.2.2-.2.3h0v.4c-.2.4-.4.8-.5,1.4v.6h0v.2c.1.9.6,1.7,1.3,2.2.7.5,1.5.7,2.4.7s.5,0,.7,0c1.9-.3,3.4-1.3,4.3-2.9.6-1.1.8-2.2.5-3.4l-2.5-11.4v-.3c.9-.3,1.9-.6,2.8-1h.4s.2,0,.3,0h.2c.1-.1.2-.1.4-.2.6-.2,1.2-.5,1.9-.7.2,0,.3,0,.5,0,.1,0,.2-.1.4-.2l.6-.2c.8-.3,1.5-.6,2.4-.9.2,1.1.4,2.1.6,3.2v.5c.2.6.3,1.1.4,1.7v.5c0,.3.2.6.2,1s0,.5,0,.8l.2.7v.2c-2.2,0-4,.7-5.3,2.3,0,.1,0,.2,0,.2v.4c-.3.3-.4.6-.5,1h0v1.5l.3,1h0c1.5,1.9,3.8,2.2,6.2.8.2-.1.4-.3.6-.4l.2-.2c.2-.2.4-.4.6-.6l.6-1c0-.1.1-.2.2-.3h0c0-.6.2-1.1.3-1.8v-.6l.5.8h0v-.6c-.2-.2-.2-.4-.3-.6Z"/>
    <path class="st4" d="M263.8,219.5c1.1.3,2.1.2,3.1-.4.6-.4,1-1,1.2-1.7.3-1.1.6-2.2.9-3.3l.8-2.9,1.4.2h1.8c0,.2.2.2.4.2h.5c.4,0,.8,0,1.2.1l-.4,1.4h0v.6c-.2.2-.2.4-.3.5v.4c-.2.1-.2.3-.2.4v.7c-1.2-.5-2.2-.5-3.2,0h-.3l-.2.2c0,.1-.2.2-.4.3-.2.2-.2.4-.3.6v.9c.3,1.5,1.7,2.1,2.9,2.1h.8c.2,0,.3,0,.5-.1h0c.2,0,.3-.2.6-.3,0,0,.2,0,.2-.2l.2-.2c0-.2.2-.3.4-.6,0,0,0-.2.1-.3h0v-.3c0-.1,0-.3,0-.3v-1.1c.2-.3.3-.7.4-1,0-.4.2-.8.4-1.2h0v-.3c.1-.5.3-1.1.4-1.7,0,0,0-.2,0-.3,0-.2,0-.4.1-.6v-.3l.4-1.6v-.2c0-.2,0-.3-.2-.5,0,0-.2-.2-.3-.3l-.8-.3h-.2s0,0-.2,0c-.3,0-.7,0-1.1-.1h-.2c-.3,0-.6,0-.9,0h-4.7c-.7,0-.9.3-1.1,1h0c0,0,.5.3.5.3h-.5c0,.2,0,.4,0,.7v.3c0,.4-.2.8-.3,1.2l-.2.8v.7c0,0,0,.3-.1.5l-.3,1.3c0,.2,0,.5-.2.7-.6-.2-1.2-.4-1.9-.3-.3,0-.6,0-.9.2h-.4c0,.1-.2.2-.2.2,0,0-.1,0-.1.1l-.2.2c0,.1-.3.3-.5.5v.2c-.2,0-.2.1-.2.2h0c-.2.6,0,1.2.1,1.7.3.6.8,1,1.5,1.2Z"/>
    <path class="st4" d="M281.1,193.9c.3.3.5.6.7.9h.2c.6.4,1.3.6,2.1.6h.6c.8-.2,1.7-.5,2.5-1.1h0s.1,0,.2-.1c0,0,.1,0,.2-.3l.7-.8.2-.3c0,0,.1-.2.2-.4l.2-.3h0v-.9c.2-1.1,0-2.1-.4-3.2-.1-.4-.3-.8-.4-1.2v-.4c0,0,0,0-.2.3.1-.2,0-.5,0-.7,0-.4-.3-.8-.4-1.2l-.3-.9v-.2h0c-.3-.9-.6-1.7-.9-2.5h0c0-.2,0-.3,0-.4h.3c1.1,0,1.9.5,2.5,1.4,0,.2.2.3.2.5v.4c0,.3,0,.5.2.8v.8c0,.1,0,.3.3.3.3.1.5.2.7.2s.3,0,.4,0h.1c.2-.3.3-.5.5-.8h0c0-.4,0-.7.2-1.1v-.3h0v-.5c0-.4,0-.8-.2-1.3l.3.3c-.2-1.1-.7-2-1.6-2.8-.2-.2-.3-.3-.6-.5l-.5-.4c-.6-.2-1.1-.5-1.7-.8,0,0,0,0-.2,0-1.4-.5-2.4-1.1-3.1-1.9-.3-.4-.8-.6-1.4-.4h0c-.7.4-.7,1.1-.6,1.4v.4c.4,1,.7,2,1.1,3v.4c.5,1,.9,1.9,1.2,2.9l1.2,3.3v.4c0,.4.3.8.5,1.2h-.3c-1.2,0-2.1.6-3,1.1,0,0-.1,0-.2,0-.1.2-.3.3-.4.5l-.4.4s-.1,0-.1.2,0,.2-.2.3c0,0,0,0,0,.2-.1.4-.3.7-.5,1.2v.9h0v.7h0c0,0,.3.7.3.7h0Z"/>
    <path class="st4" d="M262.2,246.5c-1,3.6-2,7.3-3,10.9-.5,2.1-1.1,4.2-1.7,6.3-.3,1-.5,1.9-.8,2.9-1,3.6-2,7.2-3,10.8-1,3.7-2,7.4-3,11.1,0,.3-.1.5-.2.7-.2,1.1-.5,2.2-.7,3.3.6.2,1.2.2,1.7.2.2-.7.2-1.4.4-2,.3-1.1.6-2.1.9-3.2,0-.2.1-.4.2-.6.8-3.1,1.7-6.2,2.5-9.3,1-3.8,2.1-7.5,3.1-11.3,0-.3.1-.5.2-.8,1-3.5,1.9-7,2.9-10.5,1.3-4.9,2.7-9.8,4-14.7.3-1,.7-2.2.9-3.3,0,0,0-.1,0-.2h-.2c-.6-.2-1.2-.3-1.7-.3h0v.9c-.8,3-1.7,6.1-2.5,9.1Z"/>
    <path class="st4" d="M272.9,243.1c.4-1.7.8-3.4,1.2-5.1-.1,0-.2,0-.3,0-.7-.2-1.3-.3-1.8-.3.2.1.3.3.5.3v.3l-2.4,9c-1.5,5.7-3.1,11.3-4.6,16.9-.7,2.5-1.3,5-2,7.5-.7,2.4-1.3,4.9-2,7.3-.2.6-.3,1.2-.5,1.8-.9,3.2-1.8,6.4-2.6,9.6.7-.8,1.5-1.6,2.3-2.3.8-3.1,1.7-6.2,2.5-9.4.2-.6.3-1.2.5-1.8.3-1.2.7-2.5,1-3.7,1-3.6,2-7.2,3-10.9,1.7-6.4,3.5-12.7,5.2-19.1Z"/>
    <path class="st4" d="M251.7,255.3c-.3.9-.5,1.8-.8,2.8-.8,3-1.7,6.1-2.5,9.1-1.2,4-2.3,8.1-3.4,12.1-.9,3.4-1.9,6.8-2.8,10.2,0,.2-.1.4-.2.7,0,.3-.3.5-.3.8h0c.7,0,1.3.2,1.9.2,0,0,0,0,0,0,0-.4,0-.8,0-1,.4-1.6.8-3.1,1.2-4.7,1.1-4.1,2.3-8.3,3.4-12.4,1.4-5,2.8-10,4.2-15,0-.3.2-.6.2-.9.9-3.5,1.9-6.9,2.9-10.3.8-2.7,1.5-5.4,2.3-8.2.3-1,.5-2,.7-3,0,0,0-.1,0-.2-.5-.1-1-.1-1.5-.1,0,0,0,0,0,.1-.8,2.9-1.6,5.7-2.4,8.6-1,3.8-2.1,7.6-3.1,11.3Z"/>
    <path class="st4" d="M242.9,258.7c-1.3,4.6-2.6,9.1-3.8,13.7-1,3.4-1.9,6.8-2.8,10.1-.3,1.2-.7,2.4-1,3.6-.3.9-.6,1.8-.9,2.8,0,0,.2,0,.3.1.2,0,.4.2.7.3.1,0,.3,0,.4.1.1,0,.2,0,.4,0,0-.4,0-.7,0-1,.4-1.5.8-3,1.2-4.5.1-.4.2-.9.4-1.3,1.2-4.1,2.3-8.1,3.4-12.1.8-2.9,1.6-5.8,2.4-8.7,1.1-4,2.2-8,3.3-12,.1-.5.3-1,.4-1.5.9-3.4,1.8-6.7,2.8-10.1.3-1.3.6-2.5.8-3.8,0,0,0-.1,0-.2-.4,0-.9,0-1.3,0,0,0,0,0,0,.1-.6,2.3-1.2,4.5-1.8,6.7-.5,1.9-1.1,3.8-1.6,5.7,0,.2-.1.5-.2.7-1.1,3.7-2.1,7.5-3.2,11.3Z"/>
    <path class="st4" d="M251,234.2s0,0,0,0c0,0,.1,0,.2,0h-.2Z"/>
    <path class="st4" d="M249.8,304.8c0-.3-.1-.5-.3-.6-.2,0-.4,0-.6,0-.9.5-1.8.6-2.8.5-1.7-.3-3.2.2-4.5,1.2-.3.3-.6.5-.9.8-.2.1-.4.3-.6.3-.1,0-.2,0-.3-.1-.3-.3,0-.6,0-.8.4-.6.8-1.3,1.3-2,.5-.8,1.2-1.6,1.4-2.7.2-1.7-.2-3.3-1-4.8,0-.2-.2-.3-.3-.3-.2-.2-.5-.2-.8,0-.9.7-1.8,1.4-2.5,2.3-.8.9-1.1,2-1.1,3.2,0,1.1.2,2.3.2,3.5v.5c0,.2-.2.5-.4.5,0,0-.1,0-.2,0-.2,0-.3-.2-.4-.4,0-.3-.2-.5-.2-.7-.4-1.5-1.3-2.5-2.7-3.2-.3-.1-.5-.2-.8-.3-.3,0-.6-.2-.9-.3-.6-.3-1.1-.7-1.5-1.5,0,0,0-.1-.1-.2-.2-.2-.4-.1-.6.2-.7,1.3-.9,2.7-.4,4.1.4,1.1,1.2,1.8,2.2,2.3v.2c.6.2,1.2.3,1.7.5,2,.8,2.9,2.4,3.1,4.5,0,.3.1.6.1.9s.2.8.6.8c.3,0,.5,0,.7-.1.1,0,.3-.2.4-.4.3-.4.6-.8.9-1.2.6-.7,1.2-1.2,1.9-1.6,1-.5,2.2-.7,3.5-.5,1.2.2,2.3,0,3.2-.5,1.4-.7,2.4-2.2,2.7-4.1Z"/>
  </g>
  <g id="cor_pele">
    <path class="st2" d="M78.3,208.1s0,0,0,0c3.5,9.4,7.7,18.1,13.5,25.5,0,0,0,0,0,0l9.7-6.7c7.8-15.5,1.9-31.9-.3-36.9-6.6,5.3-15.6,12.5-22.9,18Z"/>
    <path class="st2" d="M51.8,135.8h0c-3.4.3-5.8,3.3-5.4,6.6.5,4,.6,8.3.5,12.2-3.8-8.9-10.7-12.7-15.2-14.3-2.4-.8-5.1,0-6.6,2.1-1.9,2.6-1,6.4,1.8,7.9,4.8,2.6,7.9,6.5,9.6,9.3-1.1.4-2.2,1-3.3,1.6h0c0,0-5.5-.4-10.5,2.4-2.8,1.6-4.5,4.5-4.6,7.7,0,1.9,0,4.3.5,6.6.5,2.9,3.2,5,6.2,5s2.5-.1,3.9-.4c0,0,0,.2,0,.4,0-.2,0-.3,0-.3l1.2-.2c3.7-.6,6.3-3.8,6.3-7.6v-5.1c0-1,1.3-1.4,1.9-.6,1.5,2,2.3,4.5,2.3,7.1h0c-.2,5.3-2.3,10.8-11.3,11.6.9,3.7,3.1,8.3,8.7,10.5,0,0,0,0,0,0,0,0,12.7,1.1,20.2-10.4,0,0,0,0,0,0l1-27.5c.7-7.7-.3-15.1-1.2-19.6-.5-3-3.3-5.1-6.3-4.9Z"/>
    <path class="st2" d="M228.4,242.2c.1-.2.3-.4.5-.7l.6-.9c.2-.2.4-.5.6-.8.2-.4.4-.6.5-.8.2-.3.4-.6.7-.9.2-.3.4-.5.5-.7.2-.2.4-.5.6-.8.2-.2.3-.3.3-.4,1.2-1.7,2.4-3.5,3.6-5.3.4-.7.8-1.3,1.2-1.9-.2-.5-.4-1.1-.6-1.6-1,.1-2.2.1-3.3.1s-1.7-.9-2.5-1.4c-.6-.4-.9-1.1-1.3-1.7-.2-.3-.4-.7-.6-1.2,0-.3-.2-.5-.2-.7v-.5c0-.2-.1-.4-.1-.4v-2.6c.5-2.4,1.6-4.4,3.6-5.9.3-.2.6-.5,1-.7-1-8.1-.6-15.7.2-21.8-2.9,1.8-6.8,4.2-11.4,7.3,1.9,9.6,4.1,29.1-4.9,42.8,1.1,2.4,2.1,4.9,3,7.2h.1c.5,1.2.9,2.5,1.3,3.7.5-.7,1-1.4,1.5-2.2.1-.3.3-.4.3-.6.6-.9,1.2-1.7,1.9-2.6.2-.3.4-.4.4-.6.6-.8,1.2-1.6,1.9-2.5.2-.3.4-.6.6-.9Z"/>
    <path class="st2" d="M236.1,178.7c-.7,2.5-1.5,6-2.1,10.3.6-4.3,1.5-7.9,2.1-10.3,0,0,0,0,0,0Z"/>
    <path class="st2" d="M183.5,100.9c-3.1-5-10.4-5.2-14.1-.5-2.2,2.9-2.7,6.1-2.7,6.1-33.1-4.1-37-30.8-37-30.8-8,7.2-10.1,18.5-10.1,27.8,0,9,1.6,16.2,1.6,16.2,3.6,15.6,13.6,24.2,19.9,28.3,2.8,1.8,6.3,2.3,9.6,1.3l.7,7.4.9,8.5,1.9,1.4s0,0,0,0l3.8,2.8,21.8-20-1-9.4c-4.8,6.4-13.5,14.9-27.1,18.2l-1-9c.3,0,.6-.2,1-.3,10.3-4.2,17.5-10.4,21.5-14.5,2.3-2.3,3.6-5.5,3.6-8.8v-5.4c3.4-.2,5.6-1.7,6.8-3.4,2.1-2.9,2.1-6.5,2.1-6.5,0-4.4-.9-7.4-2.2-9.5ZM134,112.1c0,1.6-1.4,2.8-3,2.8h-.2c-1.9-.2-3.6-.8-3.8-.9-1.5-.6-2.3-2.4-1.7-3.9.6-1.5,2.3-2.3,3.9-1.7.3,0,1.3.4,2.1.5,1.6,0,2.9,1.6,2.7,3.2ZM147.7,114.1c-.2,0-1.9.8-3.8.9h-.2c-1.5,0-2.9-1.2-3-2.8-.1-1.7,1.1-3.1,2.7-3.2.8,0,1.8-.4,2.1-.5,1.5-.6,3.3.2,3.9,1.7.6,1.5-.1,3.3-1.7,3.9Z"/>
    <path class="st2" d="M253,286.9l8.5-8.1c.7-2.4,1.3-4.9,2-7.3-1.5-1.9-3.1-3.9-4.7-6,0,.3-.1.5-.2.8-1,3.8-2.1,7.5-3.1,11.3-.8,3.1-1.7,6.2-2.5,9.3Z"/>
    <path class="st2" d="M248.4,267.2c.8-3,1.7-6.1,2.5-9.1.3-.9.5-1.8.8-2.8-1.5-2.2-2.9-4.6-4.4-6.9-.1.5-.3,1-.4,1.5-1.1,4-2.2,8-3.3,12-.8,2.9-1.6,5.8-2.4,8.7-1.1,4-2.2,8-3.4,12.1-.1.4-.2.9-.4,1.3,1.6,2,3.2,3.8,4.7,5.5.9-3.4,1.9-6.9,2.8-10.2,1.1-4,2.2-8.1,3.4-12.1Z"/>
    <path class="st2" d="M256.7,266.6c.3-1,.5-1.9.8-2.9-1.5-2.1-3.1-4.3-4.6-6.6,0,.3-.2.6-.2.9-1.4,5-2.8,10-4.2,15-1.1,4.1-2.3,8.3-3.4,12.4-.4,1.6-.8,3.1-1.2,4.7,0,.3,0,.7,0,1,.2.2.3.3.5.5.1,0,.3,0,.4,0,.9.2,1.9.3,2.8.5l3.1-3c0-.2.1-.5.2-.7,1-3.7,2-7.4,3-11.1,1-3.6,2-7.2,3-10.8Z"/>
    <path class="st2" d="M242.9,258.7c1.1-3.8,2.1-7.6,3.2-11.3,0-.2.1-.5.2-.7-1.2-2.1-2.4-4.3-3.6-6.5-1.5,2.3-2.9,4.7-4.4,6.9-2.4,3.6-4.8,7.2-6.9,11-1.7,3-3.2,6.1-4.4,9.3,2.6,5.6,5.9,10.7,9.3,15.1.9-3.4,1.8-6.7,2.8-10.1,1.2-4.6,2.5-9.1,3.8-13.7Z"/>
    <path class="st2" d="M288,290.7c-1.1-1-2.2-2-3.2-2.9-1.6-1.4-3.1-2.7-4.5-3.8-2-1.6-4.4-2.5-6.9-2.5-.5,0-1.1,0-1.6,0-1.9-2.2-4.4-5-7.1-8.4-.3,1.2-.7,2.4-1,3.7l2.2-2.1c2.3,3,4.2,5.2,5.6,6.9-1.2.2-2.5.5-3.6,1.1-2.7,1.4-5.1,3.3-7.2,5.3-.8.8-1.6,1.5-2.3,2.3-.8.9-1.6,1.9-2.3,2.8-.5.7-1.1,1.4-1.5,2.1h0c-3,4.3-2.6,10.2,1.1,14.1,2.4,2.5,4.6,4.6,6.6,6.2.5.4,1.1.8,1.6,1.2,4,2.9,9.4,3.1,13.4.2,4.5-3.2,8.4-7.1,11.4-10.6,3.9-4.6,3.7-11.4-.7-15.6Z"/>
  </g>
</svg>