<?xml version="1.0" encoding="UTF-8"?>
<svg id="Camada_1" xmlns="http://www.w3.org/2000/svg" version="1.1" viewBox="0 0 340 340">
  <!-- Generator: Adobe Illustrator 30.4.0, SVG Export Plug-In . SVG Version: 2.1.4 Build 226)  -->
  <defs>
    <style>
      .st0 {
        fill: #ecad4e;
      }

      .st1 {
        fill: #454557;
      }

      .st2 {
        fill: #ccdbe0;
      }

      .st3 {
        fill: #b45353;
      }

      .st4 {
        fill: #edb9b0;
      }

      .st5 {
        fill: #d57370;
      }

      .st6 {
        fill: #6c849c;
      }
    </style>
  </defs>
  <g id="Layer_20">
    <g>
      <polygon class="st2" points="78.6 340 193.1 340 187.3 301.5 85.7 301.5 78.6 340"/>
      <path class="st2" d="M326.9,20.7s-7.3,6.1-15.2,21.9c0,0-27.5,115.8-33.2,203.8l15.3,10.7s24.3-96.5,33.6-166.7c0,0,6-40.5-.6-69.8Z"/>
      <path class="st6" d="M313.1,59.3l-1.6-16.3c-4.6,9.5-9.4,22.4-13,39.6,0,0-19.8,82.8-25.4,170.9l20.7,3.7s1.5-5.8,3.8-15.6l-6.8-5.9c-2.2-1.9-3.3-4.9-2.8-7.9l23.8-135.6c1.9-10.8,2.3-21.9,1.3-32.8Z"/>
      <path class="st1" d="M266,293.2l-3.1,18.5c-.4,2.6,1.2,5.1,3.9,5.7l6,1.3c2.7.6,5.5-1.2,6-3.9l4-20.7-16.8-.9Z"/>
      <path class="st0" d="M258.7,248.5l26.1-2.7,23.2,13c2.4,1.4,3.7,4.1,3.3,6.8l-1.5,9.6-59.5-10.2,2.6-11.4c.6-2.8,3-4.8,5.8-5.1Z"/>
      <path class="st4" d="M210.9,166.5s-7.2,39.5,4.6,72.4l-13.4,23.4s-24.5-20.8-24.5-56.2l8.3-33.6,25-5.9Z"/>
      <path class="st5" d="M185.9,172.4l-8.3,33.6c0,14.6,4.2,26.8,9.1,36,1.8-7.4,7.1-19.4,23-29.1-2.8-24.7,1.2-46.4,1.2-46.4l-25,5.9Z"/>
      <path class="st1" d="M181.2,256.9s-2.2,21,2.4,41.4l-28.4,12.8s-30.9,6.4-60.7-17.6l14-36.5h72.7Z"/>
      <path class="st2" d="M182.6,239.9c-.5,4.4-1,9.1-1.3,13.5-.2,3.2-1.6,6.3-3.8,8.7-4.2,4.6-12.1,12-22.1,17.6-.4.2-.8.4-1.2.6l-6.2,1.2c-1.7,0-3.4-.4-5-1.1-2-.8-4.4-1.9-7.1-3.2,0,0-22.1-12.3-35.5-24.8l4.8-44.5s78.8,19.8,77.4,31.9Z"/>
      <path class="st6" d="M100.4,252.5c13.4,12.5,26.3,20.2,35.5,24.8,7.8-22.1,9.1-44.3,8.9-57.7-19.7-6.5-39.6-11.5-39.6-11.5l-4.8,44.5Z"/>
      <path class="st6" d="M102.4,234.3c12.5,10.5,31.5,24.3,48.8,28.7,0,0,17-1.4,31.4-23.1,1.4-12.1,3.3-22.6,3.3-22.6l-80.7-9.3-2.8,26.3Z"/>
      <path class="st2" d="M195.7,162.7l2.3,25.9c-.3,10.1-3.3,20-8.7,28.5-6.4,10.1-17,24.9-29,33.2-3.4,2.3-7.6,2.8-11.5,1.3-1.7-.6-3.8-1.5-6-2.5,0,0-46.5-28.1-57.9-76.2l11-12.6c50.2-9.8,99.8,2.3,99.8,2.3Z"/>
      <path class="st6" d="M116.6,175.7l1.4-18.3c-7.3.6-14.7,1.6-22.1,3l-11,12.6c11.4,48.1,41.1,68.4,58,76.2,2-13.1,2.2-24.8,1.9-32.5-.2-6.7-2.6-13.2-6.8-18.5-9.7-12.1-21.4-22.5-21.4-22.5Z"/>
      <path class="st6" d="M178.5,159.5l-2,7s4.3,23.1,21.6,22.1c0-.1,0-.3,0-.4.3-13.9-2.4-25.6-2.4-25.6,0,0-6.5-1.6-17.2-3.2Z"/>
      <path class="st6" d="M144.1,130.7c-17.4,3.1-34.2,6.4-50.5,11.5l6.8,21.2s12.8,19.5,42.8,30.2c5.9,2.1,12.6.9,17.4-3.2,5-4.3,11.8-10.4,18.1-17.1,4.8-5,12.6-34.5,12.6-34.5-16.2-4.3-32-6.6-47.1-8.2Z"/>
      <path class="st6" d="M122.6,134.8c-9.8,2.1-19.5,4.4-29,7.4l6.8,21.2s2.9,4.4,9.2,10.2c5.4-11.6,3.4-23.1,3.4-23.1,8.1-5.3,9.4-12.8,9.6-15.7Z"/>
      <path class="st4" d="M158.8,139c0,7.9-6.4,14.2-14.2,14.2h0c-7.9,0-14.2-6.4-14.2-14.2v-11.8c10.6,3.1,20.9,6.5,28.4,11.8Z"/>
      <path class="st5" d="M158.8,138.9c-5.9,3.7-17.6,6.1-28.4-3v-27.8s28.4,6.5,28.4,6.5v24.3Z"/>
      <path class="st2" d="M91.4,125.9c-9.5-2.9-19.8-1.9-28.2,3.4-6.5,4.1-12.5,11.1-14.6,23,0,0-1.5,8.4,4.1,17.1,3.2,4.9,8.8,7.5,14.4,6.7,4.2-.6,9.9-.8,16,.9,5.9,1.6,18.4-9.9,18.4-9.9.3-.7.7-1.4,1-2.1,2.4-5.6,2.9-11.9,2-17.9l-1.2-7.6c-1-6.4-5.6-11.6-11.8-13.5h0Z"/>
      <path class="st6" d="M67.1,176.2c4.2-.6,9.9-.8,16,.9,5.9,1.6,12.2-.5,15.8-5.6.9-1.3,1.8-2.7,2.6-4.3-7.2-4-13.7-6.5-18.6-8.1-6.6-2.1-13.8-1.3-19.8,2.1-4.3,2.5-8.3,5.2-11.1,7.1.2.4.5.8.7,1.2,3.2,4.9,8.8,7.5,14.4,6.7Z"/>
      <path class="st3" d="M185.4,292.9c-1.6-2.9-5.4-3.7-7.9-1.5-5.8,4.9-14.7,14.6-31.9,14.6s-33.1-9.7-40.7-14.5c-2.5-1.6-5.8-.9-7.5,1.6l-3.6,5.5c-1.6,2.5-1.1,5.8,1.2,7.7,7.1,5.6,23.8,15.9,50.1,15.9s35.2-9.6,40.9-15.7c2.5-2.6,3-6.6,1.3-9.8l-2-3.8Z"/>
      <path class="st0" d="M162.1,317.3c-.2-3.2-.5-7-1.1-11-.5-3-3.2-5.1-6.2-4.7-5.4.6-13.2,1-18.6,1-2.9,0-5.4,2.1-5.7,5.1-.3,3.7-.4,7.4,0,11,.2,2.5,2.1,4.5,4.5,5,7.5,1.5,16.9.8,22.8-.5,2.6-.6,4.5-3,4.3-5.8Z"/>
      <path class="st2" d="M132.1,208.8c-5.6-7.9-20.2-24.9-51.3-40.3-5.2-2.6-11.3-2.6-16.5,0-31,15.4-45.7,32.4-51.3,40.3-1.9,2.7-2.9,5.9-3,9.1-1.4,71.3,36.9,94.7,54.2,101.7,5.3,2.1,11.3,2.1,16.6,0,17.3-6.9,55.6-30.4,54.2-101.7,0-3.3-1.1-6.4-3-9.1Z"/>
      <path class="st2" d="M213.5,232.6s-16.2,10.9-19.3,39.1c-.4,3.7,1.5,7.3,4.9,8.9,10,4.8,33.4,13.9,66.3,13l6.7-26.4s-40.1-5.8-58.5-34.6Z"/>
      <path class="st6" d="M265.3,293.5l6.7-26.4s-6.1-.9-14.7-3.7c-3.6,8.1-13.5,23-38.2,24.5,11.9,3.3,27.5,6.1,46.2,5.6Z"/>
      <path class="st4" d="M265.4,268.4l-3.8,22.3c-.6,3.4,1.7,6.6,5.1,7.1l13.1,2c4.1.6,8-2,9-6.1l4.3-19.6c1.1-4.9-2-9.8-6.9-10.9-3.6-.8-8.1-1.4-13.3-1.3-3.7,0-6.9,2.8-7.5,6.4Z"/>
      <path class="st6" d="M178.6,173.4c4.8-5,9.3-10.4,12.6-15.5v-19c-4.2-1.1-8.3-2.1-12.5-3-10.4,11.3-.1,37.4-.1,37.5Z"/>
      <path class="st2" d="M216.6,123.2c-7.9-1.8-16.3-.3-23.3,3.8-6.1,3.6-12.5,9.9-12.2,20.2,0,0-.3,14.9,10,25.5,3.1,3.1,7.9,3.8,11.8,1.8,4.7-2.4,12.2-5.3,21-5.9,4.8-.3,8.8-3.7,9.6-8.5,2-12,2.5-32.7-16.9-37Z"/>
      <path class="st6" d="M134.9,216.4c-.3-2.5-1.1-4.9-2.5-7.1-4.6,4.3-14.6,10.6-23,13.7-3.7-5-12.4-14.7-29.8-23.7-4.4-2.3-9.7-2.3-14.1,0-18.2,9.4-27,19.6-30.3,24.4-7.6-2.4-17.3-8.7-23.3-13.1-1.2,2.2-1.8,4.7-1.9,7.3h0c6.4,4.6,15.5,10.2,23.3,12.6-.5,43.6,23,58.1,33.8,62.5.6.2,1.2.4,1.9.6v27.3c2.3.4,4.7.4,7,0v-27.3c.6-.2,1.3-.4,1.9-.6,10.9-4.4,34.6-19.2,33.8-63.4,8.1-2.9,17.3-8.3,23.2-13.2Z"/>
      <path class="st4" d="M175,78.7c-5.1-9.7-12.7-19.3-23.9-28.1.8,8-10.6,8-9.8,0-11.2,8.8-18.8,18.4-23.9,28.1-.1,5.2,0,11.8.7,18,.7,6.2,3,12.2,6.6,17.3.9,1.5,1.8,2.9,2.9,4.2,4.2,5.2,9.1,8.8,12.6,10.9,1.8,1.1,3.8,1.6,5.8,1.4,2.1.2,4.3-.3,6.2-1.4,3.5-2.2,8.4-5.7,12.6-10.9,1.1-1.4,2.1-2.8,3-4.3,3.6-5.1,5.8-11,6.5-17.2.7-6.3.8-12.8.6-18.1Z"/>
      <path class="st5" d="M138.1,97.4c-.2,0-.5,0-.7,0-1.8-.4-3.3-.6-4.2-.7-1.6-.1-2.9-1.6-2.7-3.2s1.6-2.9,3.2-2.7c1.2,0,3,.3,5.2.9,1.6.4,2.6,2,2.2,3.6-.4,1.4-1.6,2.3-2.9,2.3Z"/>
      <path class="st5" d="M153.8,97.4c-1.3,0-2.6-.9-2.9-2.3-.4-1.6.6-3.2,2.2-3.6,2.1-.5,4-.8,5.2-.9,1.6-.2,3.1,1.1,3.2,2.7s-1.1,3.1-2.7,3.2c-1,0-2.5.3-4.2.7-.2,0-.5,0-.7,0Z"/>
      <g>
        <path class="st2" d="M167.9,130.9c-1.9,1.6-4.1,2.6-6.4,3.7-1.2.5-2.4,0-3-1.1-.4-.8-.6-1.7-.6-2.6,0-3.1,0-6.1,0-9.2,0-.7,0-2,0-2.2.1-.5,0-1,0-1.4,0-5.7,0-11.5,0-17.2,0-2.5.7-3.3,3.1-4,3.3-.9,6.4-2.3,9.1-4.2,1.1-.7,2.2-1.6,2.4-2.9.4-2.1.8-4.2,1-6.3.1-1.5-.4-1.8-2-1.6-4.1.6-8.2,1.2-12.2,1.8-1.4.2-2.9.4-4.3.6-1,.2-1.4.6-1.5,1.6,0,.5,0,1,0,1.4,0,3.1,0,6.2,0,9.3,0,.9,0,1.9-.8,2.5-1.5,1.1-3.1,2.1-4.7,3.1-.7.5-1.5.5-2.3,0-1.6-1-3.3-1.9-4.8-3-.6-.4-.8-1.3-1.1-2.1-.2-.5,0-1.2,0-1.8,0-2.9.2-5.8.2-8.7,0-1.9-.5-2.3-2.3-2.5-2.4-.2-4.8-.6-7.2-.9-3.1-.4-6.2-1-9.4-1.4-1.5-.2-1.9,0-1.8,1.6,0,1.8.4,3.5.6,5.3.2,1.5,1,2.6,2.2,3.6,2.8,2.2,6.1,3.6,9.5,4.5,2.1.6,3.2,2.1,3.2,4.2-.1,5.6,0,11.2,0,16.8,0,.7,0,4.3,0,5.1,0,2.6,0,5.3,0,7.9,0,1.2-.3,2.2-1,3.1-.9,1.2-1.8,1.4-3.1.7-2-1.1-4-2.2-6-3.4.7,0,.8-.4.8-.9.2-3.3.5-6.6.6-9.9.1-4.5,0-9,.1-13.5,0-1.9-.7-2.8-2.3-3.5-3.2-1.3-6.2-3-8.8-5.2-1.4-1.2-2.5-2.6-2.8-4.4-.4-2.7-.7-5.4-1-8.1-.1-1.3,0-2.6,0-3.9,0-.6,0-1.2-.7-1.5-1.1-.4-2.3-.8-3.5-1.1-1.3-.8-1.6-1.9-1.6-3.4-.1-4.6.8-9,2.1-13.4.3-1.1.8-2.5,2.7-2.5,1.1,1,1.9,1.8,2.8,2.7,2.2,2.2,4.9,3.7,7.7,4.9,3.3,1.5,6.9,2.4,10.5,3.1,2.4.5,4.8.8,7.1,1,1.7.2,1.9,0,1.9-1.7,0-6.4-.1-12.8-.3-19.1,0-2.2-.4-4.5-.6-6.7-.1-1.3-.4-2.5-.6-3.8,0-.6-.5-.8-1-.9.3-.7.8-1.4,1-2.1.8-3.4,2.6-6.2,5.2-8.5.7-.6,1.6-1.1,2.5-1.4.9-.3,1.8,0,2.5.6,3,2.6,4.9,5.8,5.6,9.7,0,.5.2.9.2,1.6-.4,3.7-1,7.1-1.2,10.6-.3,4.5-.3,9-.4,13.5,0,2.3,0,4.6,0,6.9,0,1.1.4,1.4,1.5,1.3,3-.5,5.9-.9,8.9-1.5,5.8-1.3,11.5-3.1,16.1-7.1.9-.8,1.9-1.4,2.3-2.6,1.4,0,2.2.8,2.5,2,.6,2.5,1.1,5.1,1.6,7.7.2,1.2.3,2.3.5,3.5.4,2,.4,3.9-1.6,5.5-.8.2-1.4.4-2,.6-1.4.4-1.8,1.3-1.8,2.6-.1,2.9-.4,5.8-.6,8.6-.3,3.6-1.6,6.5-4.9,8.4-2.6,1.5-5.1,2.9-7.7,4.3-1.1.6-1.7,1.4-1.6,2.6.1,7.8.3,15.5.4,23.3,0,.3,0,.5,0,.8,0,.5.4.7.9.7Z"/>
        <path class="st6" d="M137.8,39.2c.6,0,1,.2,1.1.9.1,1.3.4,2.5.6,3.8.2,2.2.6,4.5.6,6.7.2,6.4.2,12.8.3,19.1,0,1.7-.2,1.9-1.9,1.7-2.4-.2-4.8-.6-7.1-1-3.6-.7-7.1-1.6-10.5-3.1-2.8-1.2-5.5-2.7-7.7-4.9-.9-.8-1.7-1.8-2.6-2.7,0-.2,0-.3.1-.6.2-.5.4-.8.5-1.1.1-.1.2-.3.5-.5.3-.6.6-1,.8-1.4,0,0,0-.1.2-.2.3-.5.6-1,.8-1.4.1-.1.2-.3.4-.5.3-.3.4-.5.5-.8.1-.1.2-.3.5-.5.3-.3.4-.5.5-.8.5-.6,1-1.1,1.7-1.8.6-.6,1.1-1.2,1.6-1.7.4-.3.7-.6,1.2-1,.5-.4.7-.7,1-1,.2,0,.3-.2.6-.3.3-.2.5-.4.7-.6.2,0,.3-.2.6-.3.3-.2.5-.4.7-.6.2-.1.5-.2.9-.4.4-.2.6-.4.7-.6,0,0,.1,0,.3,0,1-.5,1.8-1,2.7-1.5.2,0,.4-.1.8-.2,1.6-.5,2.9-1,4.3-1.4.8-.3,1.7-.5,2.5-.8.1,0,.3,0,.6,0,.5,0,.7-.2,1-.3.1,0,.3,0,.5,0Z"/>
        <path class="st6" d="M182.1,60.2c-.3,1.3-1.4,2-2.2,2.7-4.7,4-10.3,5.8-16.1,7.1-2.9.6-5.9,1-8.9,1.5-1.1.2-1.5-.2-1.5-1.3,0-2.3,0-4.6,0-6.9,0-4.5.1-9,.4-13.5.2-3.5.7-6.9,1.2-10.5,10.5,1.8,18.8,7,24.7,15.9,1,1.5,1.7,3.2,2.5,5Z"/>
        <path class="st6" d="M107.2,79.1c1.2.2,2.3.6,3.5,1,.6.2.7.8.7,1.5,0,1.3,0,2.6,0,3.9.3,2.7.6,5.4,1,8.1.3,1.8,1.3,3.2,2.8,4.4,2.7,2.2,5.7,3.9,8.8,5.2,1.7.7,2.4,1.6,2.3,3.5-.1,4.5,0,9-.1,13.5,0,3.3-.4,6.6-.6,9.9,0,.5-.2.8-.9.8-5-2.8-9.5-6.1-13.3-10.2-2.1-2.3-3.9-4.8-5.7-7.3-.6-.8-1-1.8-.7-3.1,0-.4,0-.6.1-.8.2-.7.3-1.3.5-2.2,0-.4,0-.6,0-.8,0-.2.1-.4.2-.9,0-.4,0-.6,0-.7,0-.2,0-.5.2-.9,0-.4,0-.6,0-.8.2-.8.3-1.5.6-2.5,0-.4,0-.6,0-.8,0-.2,0-.5.2-.9,0-.6,0-1,0-1.4,0-.2,0-.4,0-.9,0-1.3,0-2.3,0-3.3,0-.7,0-1.5,0-2.5,0-1.6-.1-2.9-.2-4.2,0-2.6,0-5.2,0-7.9Z"/>
        <path class="st6" d="M168,130.8c-.6,0-.9,0-1-.6,0-.3,0-.5,0-.8-.1-7.8-.2-15.5-.4-23.3,0-1.3.5-2.1,1.6-2.6,2.6-1.4,5.2-2.8,7.7-4.3,3.2-1.9,4.6-4.8,4.9-8.4.2-2.9.5-5.8.6-8.6,0-1.4.5-2.3,1.8-2.6.6-.2,1.2-.3,1.9-.5,0,5.5-.2,11-.4,16.4,0,2.2.2,4.4.7,6.5.6,2.6,1.1,5.1,1.8,7.7.3,1.2.2,2.3-.4,3.2-1.5,2.2-2.9,4.4-4.6,6.4-4,4.6-8.8,8.3-14.2,11.5Z"/>
      </g>
    </g>
  </g>
</svg>