<?xml version="1.0" encoding="UTF-8"?>
<svg id="Camada_1" xmlns="http://www.w3.org/2000/svg" version="1.1" viewBox="0 0 340 340">
  <!-- Generator: Adobe Illustrator 30.4.0, SVG Export Plug-In . SVG Version: 2.1.4 Build 226)  -->
  <defs>
    <style>
      .st0 {
        fill: #ecad4e;
      }

      .st1 {
        fill: #454557;
      }

      .st2 {
        fill: #ccdbe0;
      }

      .st3 {
        fill: #b45353;
      }

      .st4 {
        fill: #edb9b0;
      }

      .st5 {
        fill: #d57370;
      }

      .st6 {
        fill: #6c849c;
      }
    </style>
  </defs>
  <g id="base_armadura">
    <path class="st1" d="M279.8,299.8l-13.1-2c-.5,0-1-.2-1.4-.4l-2.4,14.3c-.4,2.6,1.2,5.1,3.9,5.7l6,1.3c2.7.6,5.5-1.2,6-3.9l2.9-15c-.6,0-1.3,0-1.9,0Z"/>
    <path class="st1" d="M155.4,279.7c-.4.2-.8.4-1.2.6l-6.2,1.2c-1.7,0-3.4-.4-5-1.1-2-.8-4.4-1.9-7.1-3.2,0,0,0,0,0,0-2.9-1.4-6.1-3.1-9.5-5.2-3.9,9.7-8.7,17.6-13.9,24,5.4,3,12.2,6.2,19.7,8.2,1-1,2.5-1.6,4-1.6,5.4,0,13.2-.4,18.6-1,1.9-.3,3.7.5,4.9,1.9,8.5-3.2,13.8-8.8,17.8-12.1,1.3-1.2,3.1-1.5,4.6-1.1-2.5-16.8-1.1-32-.9-33.3h-.6c-.7,1.9-1.7,3.6-3.1,5.1-4.2,4.6-12.1,12-22.1,17.6Z"/>
    <path class="st1" d="M181.2,256.9s0,0,0,0h0Z"/>
  </g>
  <g id="cinto">
    <path class="st3" d="M177.5,291.4c-3.9,3.3-9.3,8.9-17.8,12.1.7.8,1.1,1.7,1.3,2.8.6,4,.9,7.8,1.1,11h0c0,1.3-.2,2.5-.8,3.4,14.2-2.9,20.4-9.6,24.7-14.2.7-.8,1.3-1.7,1.7-2.6.9-2.3.8-4.9-.4-7.2l-2-3.8h.1c-.7-1.3-1.9-2.2-3.3-2.6-1.6-.4-3.3-.1-4.6,1.1Z"/>
    <path class="st3" d="M99,309.2c6.6,4.4,17.4,9.8,32.4,12-.5-.7-.8-1.6-.9-2.5-.4-3.6-.3-7.3,0-11,.1-1.4.8-2.6,1.7-3.5-7.5-1.9-14.3-5.2-19.7-8.2-4.4,5.4-9,9.7-13.5,13.1Z"/>
  </g>
  <g id="cor_acessorios">
    <path class="st0" d="M284.8,245.8l-11.3,1.2-14.8,1.5h0c-2.8.3-5.2,2.3-5.8,5.1l-1.7,7.7c2.1.8,4.2,1.6,6.1,2.2,0,0,0,0,0,0,3.5,1.1,6.5,1.9,8.9,2.5,1.3-2.4,3.8-4,6.7-4,5.2,0,9.7.5,13.3,1.3,4.3,1,7.2,4.9,7.1,9.2l16.5,2.8,1.5-9.6c.4-2.7-.9-5.4-3.3-6.8l-12.8-7.2-10.4-5.8Z"/>
    <path class="st0" d="M130.5,318.7c0,.9.4,1.8.9,2.5.8,1.3,2.1,2.2,3.6,2.5,7.5,1.5,16.9.8,22.8-.5,1.5-.3,2.7-1.3,3.5-2.5.6-1,.9-2.1.8-3.3h0c-.2-3.3-.5-7.1-1.1-11.1-.2-1.1-.6-2-1.3-2.8-1.2-1.4-3-2.2-4.9-1.9-5.4.6-13.2,1-18.6,1s-2.9.6-4,1.6c-.9.9-1.6,2.1-1.7,3.5-.3,3.7-.4,7.4,0,11Z"/>
  </g>
  <g id="cor_pele">
    <path class="st4" d="M213.5,232.6c-6.9-24.3-4.7-50.5-3.3-61.2h0c-1,7.8-2.5,23.9-.5,41.5-15.9,9.7-21.2,21.7-23,29.1-1.2-2.3-2.4-4.7-3.5-7.4,0,0,0,0,0,0,4.2,10.4,10,18,14,22.6,5.6-17.4,16.1-24.6,16.3-24.7Z"/>
    <path class="st4" d="M130.4,135.9v3.1c0,7.8,6.3,14.2,14.2,14.2s14.2-6.3,14.2-14.2c0,0,0,0,0,0-5.9,3.7-17.6,6-28.3-3Z"/>
    <path class="st4" d="M286.2,263.2c-3.6-.8-8.1-1.4-13.3-1.3-2.8,0-5.4,1.6-6.7,4-.4.7-.7,1.5-.8,2.4h0c0,0-3.8,22.4-3.8,22.4-.2,1,0,2,.2,2.9,0,0,0,0,0,0,.5,1.7,1.8,3.1,3.5,3.8.4.2.9.3,1.4.4l13.1,2c.6,0,1.3.1,1.9,0,3.4-.3,6.3-2.7,7.1-6.1l4.3-19.6c.1-.6.2-1.2.2-1.7.1-4.3-2.8-8.2-7.1-9.2Z"/>
    <path class="st4" d="M153.2,70.3c0,1.1.4,1.4,1.5,1.3,3-.5,5.9-.9,8.9-1.5,1.7-.4,3.5-.8,5.2-1.4,0,0,0,0,0,0-1.6.5-3.3.9-5,1.3-2.9.6-5.9,1-8.9,1.5-1.1.2-1.5-.2-1.5-1.3v-6.9c0-3.5,0-7.1.2-10.6,0,0-.1,0-.2-.1-.2,3.6-.2,7.3-.3,10.9v6.9Z"/>
    <path class="st4" d="M138.4,71.6c1.1.1,1.6,0,1.8-.5-.2.3-.7.4-1.7.3-2.4-.2-4.8-.6-7.1-1-2.6-.5-5.1-1.1-7.6-2,0,0,0,.1-.1.2,2.5.9,5,1.5,7.6,2,2.4.5,4.8.8,7.1,1Z"/>
    <path class="st4" d="M168.2,103.5c1.8-1,3.7-2,5.5-3,0,0,0,0,0,0-1.9,1.1-3.8,2.1-5.7,3.1-1.1.6-1.7,1.4-1.6,2.6,0,3.2.1,6.4.2,9.6,0-.1.1-.2.2-.3,0-3.1-.1-6.2-.2-9.3,0-1.3.5-2.1,1.6-2.6Z"/>
    <path class="st4" d="M146,130.5c2.1.2,4.3-.3,6.2-1.4,1.7-1,3.6-2.4,5.7-4.1v-5.5c0-.5,0-1,0-1.4v-17.2c0-2.5.7-3.3,3.1-4,3.3-.9,6.4-2.3,9.1-4.2,1.1-.7,2.2-1.6,2.4-2.9.4-2.1.8-4.2,1-6.3.1-1.5-.4-1.8-2-1.6-4.1.6-8.2,1.2-12.2,1.8-1.4.2-2.9.4-4.3.6-1,.2-1.4.6-1.5,1.6v5.5c1.9-.4,3.7-.7,4.8-.8,1.6-.2,3.1,1.1,3.2,2.7s-1.1,3.1-2.7,3.2c-1,0-2.5.3-4.2.7h-.7v.2c-.2,0-.3,0-.4,0,0,.7-.2,1.3-.8,1.7-1.5,1.1-3.1,2.1-4.7,3.1-.7.5-1.5.5-2.3,0-1.6-1-3.3-1.9-4.8-3-.6-.4-.8-1.3-1.1-2.1,0,0,0,0,0,0-.5.3-1,.5-1.6.5v-.2h-.8c-1.8-.4-3.3-.6-4.2-.7-1.6-.1-2.9-1.6-2.7-3.2.2-1.6,1.6-2.9,3.2-2.7,1.2,0,3,.3,5.2.9.4,0,.7.2,1,.4,0-1.8.1-3.7.1-5.5s-.5-2.3-2.3-2.5c-2.4-.2-4.8-.6-7.2-.9-3.1-.4-6.2-1-9.4-1.4-1.5-.2-1.9,0-1.8,1.6,0,1.8.4,3.5.6,5.3.2,1.5,1,2.6,2.2,3.6,2.8,2.2,6.1,3.6,9.5,4.5,2.1.6,3.2,2.1,3.2,4.2-.1,5.6,0,11.2,0,16.8v7.5c2,1.6,3.8,2.8,5.4,3.8,1.8,1.1,3.8,1.6,5.8,1.4Z"/>
  </g>
  <g id="sombra_pele">
    <path class="st5" d="M197.6,175.6c.3,3.7.6,8,.5,12.6v.4s0,0-.1,0c-.3,10.1-3.3,20-8.7,28.5-1.3,2.1-2.8,4.4-4.5,6.8-.5,2.9-1,6.7-1.6,10.8,1.1,2.6,2.2,5.1,3.5,7.4,1.8-7.4,7.1-19.4,23-29.1-2-17.6-.5-33.7.5-41.5-2.8,1-5.3,2.1-7.3,3.1-1.7.9-3.5,1.2-5.3,1.1Z"/>
    <path class="st5" d="M157.9,130.9v-5.9c-2.1,1.7-4,3-5.7,4.1-1.9,1.1-4.1,1.6-6.2,1.4-2,.2-4-.3-5.8-1.4-1.6-.9-3.4-2.2-5.4-3.8v5.5c0,1.2-.3,2.2-1,3.1-.9,1.2-1.8,1.4-3.1.7,0,0-.2-.1-.3-.2v1.5c10.8,9.1,22.4,6.7,28.3,3,0,0,0,0,0,0v-5c-.1-.1-.2-.3-.3-.4-.4-.8-.6-1.7-.6-2.6Z"/>
    <path class="st5" d="M133.7,90.8c-1.6-.2-3,1.1-3.2,2.7-.2,1.6,1.1,3.1,2.7,3.2.9,0,2.4.3,4.2.7h.7v.2c.7,0,1.2-.2,1.7-.5-.2-.5,0-1.2,0-1.8,0-1.1,0-2.1,0-3.2-.3-.2-.6-.3-1-.4-2.2-.6-4-.9-5.2-.9Z"/>
    <path class="st5" d="M153.9,97.2h.7c1.7-.4,3.2-.7,4.2-.7,1.6-.1,2.8-1.6,2.7-3.2s-1.6-2.9-3.2-2.7c-1.1,0-2.9.4-4.8.8v5.2c0,.3,0,.5,0,.8.1,0,.2,0,.3,0v-.2Z"/>
  </g>
  <g id="cor_armadura">
    <path class="st2" d="M161.3,320.7c-.8,1.2-2,2.2-3.5,2.5-5.9,1.3-15.3,2-22.8.5-1.5-.3-2.8-1.2-3.6-2.5-15-2.2-25.7-7.6-32.4-12,4.5-3.5,9.1-7.8,13.5-13.1,5.2-6.4,10-14.3,13.9-24,5.6-14,9.1-31.7,8.6-54.2,0-2.3-.5-4.4-1.5-6.4.7,1.6,1.2,3.2,1.4,4.9h0c-5.9,4.9-15.1,10.3-23.2,13.2.8,44.2-22.9,59-33.8,63.4-.6.2-1.3.4-1.9.6v27.3c1.6-.3,3.2-.7,4.8-1.3.5-.2,1.1-.5,1.7-.7l-3.9,21.1h114.5l-5.4-36.1c-.4,1-.9,1.8-1.7,2.6-4.3,4.6-10.5,11.3-24.7,14.2Z"/>
    <path class="st2" d="M326.8,20.6c0,0,0,.1,0,.2,0,0,0,0,0,0h-.1Z"/>
    <path class="st2" d="M326.8,20.8c-.7.6-7.7,6.9-15.1,21.8,0,0,0,.2-.2.7l1.6,16h0c1,11,.6,22.1-1.3,32.9l-23.8,135.6c-.5,3,.6,6,2.8,7.9l6.8,5.9c7.2-30.1,22.8-98.1,29.8-151.2,0,0,6-40.4-.6-69.6Z"/>
    <path class="st2" d="M151.2,263c-3.4-.9-6.8-2.1-10.3-3.6-1.3,5.8-2.9,11.8-5,17.8,2.7,1.3,5.1,2.4,7.1,3.2,1.6.7,3.3,1.1,5,1.1l6.2-1.2c.4-.2.8-.4,1.2-.6,10-5.6,17.9-13,22.1-17.6,1.4-1.5,2.4-3.2,3.1-5.1.4-1.2.7-2.4.7-3.6.3-4.4.8-9.1,1.3-13.5h0s0,0,0,0c-14.4,21.7-31.4,23.1-31.4,23.1Z"/>
    <path class="st2" d="M198,188.6c-11,.6-16.7-8.5-19.4-15.2-6.3,6.7-13,12.7-18,17-4.8,4.1-11.5,5.3-17.4,3.2-5.7-2-10.8-4.4-15.3-6.9,3.2,3.4,6.8,7.3,10.1,11.5,4.2,5.3,6.6,11.8,6.8,18.5.3,7.7.1,19.4-1.9,32.4,2.2,1,4.2,1.9,5.9,2.5,3.9,1.5,8.1,1,11.5-1.3,9.5-6.6,18.1-17.2,24.5-26.4,1.7-2.4,3.2-4.7,4.5-6.8,5.4-8.5,8.4-18.4,8.7-28.5Z"/>
    <path class="st2" d="M82.9,159.1c4.9,1.6,11.4,4.1,18.5,8.1,0,0,0,0,0,0,.3-.7.7-1.4,1-2.1,2.4-5.6,2.9-11.9,2-17.9l-1.2-7.6s0,0,0-.1c-1-6.3-5.6-11.5-11.8-13.4h0c-9.5-3-19.8-2-28.2,3.3-6.5,4.1-12.5,11.1-14.6,23,0,0-1.4,7.7,3.4,16,2.8-1.9,6.8-4.6,11.1-7.1,6-3.4,13.2-4.2,19.8-2.1Z"/>
    <path class="st2" d="M10.2,215.8c0-.5.2-1,.3-1.5-.1.5-.2,1-.3,1.5Z"/>
    <path class="st2" d="M10,217.9c0-.6,0-1.2.2-1.7,0,.6-.1,1.2-.2,1.7Z"/>
    <path class="st2" d="M65.5,199.3c4.4-2.3,9.7-2.3,14.1,0,17.4,9,26.1,18.7,29.8,23.7,8.4-3.1,18.3-9.4,23-13.7-.1-.2-.2-.4-.4-.5h.1c-5.6-7.9-20.2-24.9-51.3-40.3-5.2-2.6-11.3-2.6-16.5,0-3,1.5-5.8,3-8.5,4.5-25.3,14.1-37.8,28.7-42.8,35.8-.4.6-.8,1.2-1.1,1.8,6,4.4,15.7,10.7,23.3,13.1,3.3-4.8,12.1-15,30.3-24.4Z"/>
    <path class="st2" d="M10.7,213.5c0-.2.1-.4.2-.6,0,.2-.1.4-.2.6Z"/>
    <path class="st2" d="M67.1,293c-10.8-4.4-34.3-18.9-33.8-62.5-7.8-2.4-16.9-8-23.3-12.6h0c-1.4,71.3,36.9,94.7,54.2,101.7,1.6.6,3.2,1,4.8,1.3v-27.3c-.7-.2-1.3-.4-1.9-.6Z"/>
    <path class="st2" d="M11.3,211.9c.2-.4.3-.8.5-1.2-.2.4-.4.8-.5,1.2Z"/>
    <path class="st2" d="M219.1,287.9c24.6-1.5,34.5-16.3,38.2-24.4-1.9-.6-4-1.4-6.1-2.2-12.6-5-28-13.7-37.6-28.7h-.1s0,0,0,0c-.2.1-10.6,7.3-16.3,24.7-1.4,4.2-2.4,9-3,14.4-.4,3.7,1.5,7.3,4.9,8.9,9.6,4.6,31.7,13.2,62.7,13.1,0,0,0,0,0,0-17.1,0-31.5-2.6-42.7-5.7Z"/>
    <path class="st2" d="M181.1,147.2s-.3,14.9,10,25.5c1.8,1.8,4.1,2.8,6.5,2.9,1.8.1,3.6-.3,5.3-1.1,2-1,4.4-2.1,7.3-3.1h0c3.9-1.4,8.6-2.5,13.7-2.8,4.8-.3,8.8-3.7,9.6-8.5,2-12,2.5-32.7-16.9-37h0c-7.9-1.7-16.3-.2-23.3,3.9-3.7,2.2-7.5,5.4-9.9,9.9-1.5,2.9-2.4,6.3-2.3,10.3Z"/>
    <polygon class="st2" points="137.8 39.4 137.8 39.4 137.8 39.4 137.8 39.4"/>
    <path class="st2" d="M130.7,134.6c1.3.7,2.2.5,3.1-.7.7-.9,1-1.9,1-3.1v-13c0-5.6-.1-11.2,0-16.8,0-2.1-1.1-3.6-3.2-4.2-3.4-.9-6.7-2.3-9.5-4.5-1.2-1-2-2.1-2.2-3.6-.2-1.8-.6-3.5-.6-5.3,0-1.6.3-1.8,1.8-1.6,3.2.4,6.3,1,9.4,1.4,2.4.3,4.8.7,7.2.9,1.8.2,2.3.6,2.3,2.5s0,3.7-.1,5.5c0,1.1,0,2.1,0,3.2s-.2,1.3,0,1.8c0,0,0,0,0,0,.3.8.5,1.7,1.1,2.1,1.5,1.1,3.2,2,4.8,3,.8.5,1.6.5,2.3,0,1.6-1,3.2-2,4.7-3.1.6-.4.7-1.1.8-1.7,0-.3,0-.5,0-.8v-10.7c.1-1,.5-1.4,1.5-1.6,1.4-.2,2.9-.4,4.3-.6,4-.6,8.1-1.2,12.2-1.8,1.6-.2,2.1.1,2,1.6-.2,2.1-.6,4.2-1,6.3-.2,1.3-1.3,2.2-2.4,2.9-2.7,1.9-5.8,3.3-9.1,4.2-2.4.7-3.1,1.5-3.1,4v17.2c0,.4,0,.9,0,1.4v11.4c0,.9.2,1.8.6,2.6,0,.2.2.3.3.4.7.8,1.7,1.1,2.7.7,1-.5,1.9-.9,2.8-1.4,1.3-.7,2.5-1.4,3.6-2.3h-.2c-.5.1-.9,0-.9-.6v-.8c0-4.6-.1-9.1-.2-13.7,0-3.2-.1-6.4-.2-9.6,0-1.2.5-2,1.6-2.6,1.9-1,3.8-2.1,5.7-3.1.7-.4,1.3-.8,2-1.2,3.3-1.9,4.6-4.8,4.9-8.4.2-2.8.5-5.7.6-8.6,0-1,.3-1.8,1.1-2.3.2-.2.5-.3.9-.4.2,0,.5-.1.7-.2.3-.1.7-.2,1.1-.3,2-1.6,2-3.5,1.6-5.5-.2-1.2-.3-2.3-.5-3.5-.5-2.6-1-5.2-1.6-7.7-.3-1.2-1.1-2-2.5-2-.4,1.2-1.4,1.8-2.1,2.5-1.2,1-2.4,1.9-3.7,2.6-2.3,1.4-4.8,2.4-7.4,3.2-1.7.5-3.4,1-5.2,1.4-3,.6-5.9,1-8.9,1.5-1.1.1-1.5-.2-1.5-1.3v-6.9c0-3.6.1-7.3.3-10.9,0-.9,0-1.7.1-2.6.2-3.5.8-6.9,1.2-10.6,0-.7-.2-1.1-.2-1.6-.7-3.9-2.6-7.1-5.6-9.7-.7-.6-1.6-.9-2.5-.6-.9.3-1.8.8-2.5,1.4-2.6,2.3-4.4,5.1-5.2,8.5-.2.6-.6,1.3-.9,1.9.5,0,.9.2,1,.9,0,1.3.4,2.5.6,3.8.2,2.2.6,4.5.6,6.7.2,6.4.2,12.8.3,19.1,0,.7,0,1.2-.2,1.4-.2.5-.6.6-1.8.5-2.3-.2-4.7-.5-7.1-1-2.6-.5-5.1-1.1-7.6-2-1-.3-2-.7-2.9-1.1-2.8-1.2-5.5-2.7-7.7-4.9s-1.7-1.7-2.8-2.7c-1.9,0-2.4,1.4-2.7,2.5-1.3,4.4-2.2,8.8-2.1,13.4,0,1.3.2,2.3,1.1,3h0s.6.3.6.3c1.2.2,2.3.6,3.5,1,.6.2.7.8.7,1.5v3.9c.3,2.7.6,5.4,1,8.1.3,1.8,1.3,3.2,2.8,4.4,2.7,2.2,5.7,3.9,8.8,5.2,1.7.7,2.4,1.6,2.3,3.5,0,4.5,0,9,0,13.5,0,3.3-.4,6.6-.6,9.9,0,.2,0,.3-.1.5,0,.4-.2.6-.8.6,1.4.8,2.7,1.6,4.1,2.4.5.3,1.1.6,1.6.9,0,0,.2.1.3.2Z"/>
  </g>
  <g id="sombra_armadura">
    <path class="st6" d="M288,227.8l23.8-135.6c1.9-10.8,2.3-21.9,1.3-32.8h0c0-.1-1.6-16.1-1.6-16.1v-.3c-4.6,9.5-9.4,22.4-13,39.6,0,0-18.8,78.7-25,164.4l11.3-1.2,10.4,5.8c.6-2.6,1.4-5.9,2.4-10h0s-6.8-5.9-6.8-5.9c-2.2-1.9-3.3-4.9-2.8-7.9Z"/>
    <path class="st6" d="M184.8,223.9c-6.4,9.2-15,19.8-24.5,26.4-3.4,2.3-7.6,2.8-11.5,1.3-1.7-.6-3.7-1.5-5.9-2.5,2-13.1,2.2-24.8,1.9-32.4-.2-6.7-2.6-13.2-6.8-18.5-3.3-4.1-6.9-8.1-10.1-11.5,4.5,2.5,9.6,4.9,15.3,6.9,5.9,2.1,12.6.9,17.4-3.2,5-4.3,11.7-10.4,18-17,2.7,6.7,8.4,15.8,19.4,15.2,0,0,0,0,.1,0v-.4c0-4.5-.1-8.9-.5-12.6-2.4-.1-4.8-1.1-6.5-2.9-10.3-10.6-10-25.5-10-25.5-.1-4,.8-7.4,2.3-10.3-6.4-1.5-12.8-2.7-19.1-3.7-.9.5-1.9.9-2.8,1.4-1,.4-2,.1-2.7-.7v5s0,0,0,0c0,0,0,0,0,0,0,7.9-6.4,14.2-14.2,14.2s-14.2-6.4-14.2-14.2v-4.6c-.5-.3-1.1-.6-1.6-.9-2.1.4-4.2.8-6.2,1.3,0,0,0,0,0,0-1.1.2-2.2.5-3.2.7-1,.2-2,.5-3,.7-.6.1-1.3.3-1.9.4-1.2.3-2.5.6-3.7.9-1.3.3-2.7.7-4,1-.4.1-.8.2-1.3.3-.7.2-1.5.4-2.2.6,0,0,0,0,0,.1l1.2,7.6c.9,6,.4,12.3-2,17.9-.3.7-.7,1.4-1,2.1,0,0,0,0,0,0-7.2-4-13.6-6.5-18.5-8.1-6.6-2.1-13.8-1.3-19.8,2.1-4.3,2.5-8.3,5.2-11.1,7.1,0,0,0,0,0,0,.2.4.5.8.7,1.2.9,1.3,1.9,2.5,3.1,3.5,2.7-1.5,5.5-3,8.5-4.5,5.2-2.6,11.3-2.6,16.5,0,31.1,15.4,45.7,32.4,51.3,40.3h-.1c.1.2.2.4.4.5-4.6,4.3-14.6,10.6-23,13.7-3.7-5-12.4-14.7-29.8-23.7-4.4-2.3-9.7-2.3-14.1,0-18.2,9.4-27,19.6-30.3,24.4-7.6-2.4-17.3-8.7-23.3-13.1,0,0,0,0,0,0,0,0,0,.1,0,.2-.2.4-.4.8-.5,1.2-.1.3-.3.6-.4,1,0,.2-.1.4-.2.6,0,.3-.2.5-.2.8-.1.5-.2,1-.3,1.5,0,.1,0,.2,0,.4,0,.6-.1,1.1-.2,1.7h0c6.4,4.6,15.5,10.2,23.3,12.6-.5,43.6,23,58.1,33.8,62.5.6.2,1.2.4,1.9.6v27.3h0c2.3.4,4.7.4,7,0h0v-27.3c.6-.2,1.3-.4,1.9-.6,10.9-4.4,34.6-19.2,33.8-63.4,8.1-2.9,17.3-8.3,23.2-13.2h0c-.2-1.7-.7-3.3-1.4-4.9.9,2,1.5,4.2,1.5,6.4.4,22.5-3.1,40.2-8.6,54.2,3.5,2.1,6.7,3.8,9.5,5.2,0,0,0,0,0,0,2.1-6,3.7-12,5-17.8,3.5,1.5,6.9,2.7,10.3,3.6,0,0,17-1.4,31.4-23.1,0,0,0,0,0,0,.2-1.8.4-3.5.6-5.2,0,0,0,0,0,0,.5-4.1,1.1-7.8,1.6-10.8Z"/>
    <path class="st6" d="M219.1,287.9c11.1,3.1,25.5,5.7,42.7,5.7-.3-.9-.4-1.9-.2-2.9l3.8-22.3h0c.1-.9.4-1.7.8-2.5-2.4-.6-5.5-1.4-8.9-2.5,0,0,0,0,0,0-3.6,8.1-13.5,22.9-38.2,24.4Z"/>
    <path class="st6" d="M138.5,71.4c1,.1,1.4,0,1.7-.3.2-.3.2-.7.2-1.4,0-6.3,0-12.7-.3-19.1,0-2.2-.4-4.5-.6-6.7-.2-1.3-.5-2.5-.6-3.8,0-.7-.5-.9-1-.9,0,0,0,0,0,0v.2s0,0,0,0h-.5c-.3,0-.5.3-1,.3h-.6c-.8.3-1.7.5-2.5.8-1.4.4-2.7.9-4.3,1.4-.4,0-.6.2-.8.2-.9.5-1.7,1-2.7,1.5h-.3c-.1.2-.3.4-.7.6s-.7.3-.9.4c-.2.2-.4.4-.7.6-.3,0-.4.3-.6.3-.2.2-.4.4-.7.6-.3.1-.4.3-.6.3-.3.3-.5.6-1,1-.5.4-.8.7-1.2,1-.5.5-1,1.1-1.6,1.7s-1.2,1.2-1.7,1.8c0,.3-.2.5-.5.8-.3.2-.4.4-.5.5,0,.3-.2.5-.5.8s-.3.4-.4.5c-.2.4-.5.9-.8,1.4-.2,0-.2.2-.2.2-.2.4-.5.8-.8,1.4-.3.2-.4.4-.5.5,0,.3-.3.6-.5,1.1,0,.3,0,.4,0,.6.9.9,1.7,1.9,2.6,2.7,2.2,2.2,4.9,3.7,7.7,4.9,1,.4,1.9.8,2.9,1.1,2.5.9,5,1.5,7.6,2,2.3.4,4.7.8,7.1,1Z"/>
    <path class="st6" d="M153.4,70.2c0,1.1.4,1.5,1.5,1.3,3-.5,6-.9,8.9-1.5,1.7-.4,3.3-.8,5-1.3,2.6-.8,5.1-1.8,7.4-3.2,1.3-.8,2.5-1.6,3.7-2.6.8-.7,1.8-1.3,2.1-2.5,0,0,0-.1,0-.2h0c-.8-1.8-1.5-3.5-2.5-5-5.9-8.9-14.2-14.1-24.7-15.9-.5,3.6-1,7-1.2,10.5,0,1-.1,1.9-.2,2.9-.2,3.5-.2,7.1-.2,10.6v6.9Z"/>
    <path class="st6" d="M126.2,120.2c0-4.5,0-9,0-13.5.1-1.9-.6-2.8-2.3-3.5-3.1-1.3-6.1-3-8.8-5.2-1.5-1.2-2.5-2.6-2.8-4.4-.4-2.7-.7-5.4-1-8.1v-3.9c0-.7-.1-1.3-.7-1.5-1.2-.4-2.3-.8-3.5-1l-.6-.3h0v7.9c.1,1.3.2,2.6.2,4.2v8.1c-.2.4-.2.7-.2.9v.8c-.3,1-.4,1.7-.6,2.5v.8c-.2.4-.2.7-.2.9v.7c0,.5-.2.7-.2.9v.8c-.2.9-.3,1.5-.5,2.2-.1.2-.1.4-.1.8-.3,1.3.1,2.3.7,3.1,1.8,2.5,3.6,5,5.7,7.3,3.8,4.1,8.3,7.4,13.3,10.2.4,0,.7-.1.8-.3,0-.1.1-.3.1-.5.2-3.3.6-6.6.6-9.9Z"/>
    <path class="st6" d="M182.3,80c-.6.5-.9,1.2-.9,2.2-.1,2.8-.4,5.7-.6,8.6-.3,3.6-1.7,6.5-4.9,8.4-.7.4-1.5.9-2.2,1.3-1.8,1-3.6,2-5.5,3-1.1.5-1.6,1.3-1.6,2.6,0,3.1.1,6.2.2,9.3,0,4.6.1,9.3.2,14v.8c.1.6.4.6,1,.6,5.4-3.2,10.2-6.9,14.2-11.5,1.7-2,3.1-4.2,4.6-6.4.6-.9.7-2,.4-3.2-.7-2.6-1.2-5.1-1.8-7.7-.5-2.1-.7-4.3-.7-6.5.2-5.4.4-10.9.4-16.4-.4.1-.8.2-1.2.3-.2,0-.5.1-.7.2-.4,0-.7.2-.9.4Z"/>
  </g>
</svg>