<?xml version="1.0" encoding="UTF-8"?>
<svg id="Camada_1" xmlns="http://www.w3.org/2000/svg" version="1.1" xmlns:xlink="http://www.w3.org/1999/xlink" viewBox="0 0 340 340">
  <!-- Generator: Adobe Illustrator 30.4.0, SVG Export Plug-In . SVG Version: 2.1.4 Build 226)  -->
  <defs>
    <style>
      .st0 {
        fill: url(#Gradiente_sem_nome_21);
      }

      .st1 {
        fill: #4d3482;
      }

      .st2 {
        fill: url(#Gradiente_sem_nome_2);
      }

      .st3 {
        fill: #39394d;
      }

      .st4 {
        fill: #9370b8;
      }

      .st5 {
        fill: #222230;
      }

      .st6 {
        fill: #d7e2ed;
      }

      .st7 {
        fill: #e8b8ae;
      }

      .st8 {
        fill: #d57370;
      }
    </style>
    <linearGradient id="Gradiente_sem_nome_2" data-name="Gradiente sem nome 2" x1="80.9" y1="298" x2="7.7" y2="277.1" gradientUnits="userSpaceOnUse">
      <stop offset="0" stop-color="#9eb7ec"/>
      <stop offset="1" stop-color="#87a2d5"/>
    </linearGradient>
    <linearGradient id="Gradiente_sem_nome_21" data-name="Gradiente sem nome 2" x1="289.3" y1="296" x2="241.3" y2="282.3" xlink:href="#Gradiente_sem_nome_2"/>
  </defs>
  <g id="cor_lamina">
    <path class="st6" d="M284.9,159.9s7.5,64.6-22.9,121.8c-3.3,6.2-7.1,12.4-11.3,18.3l7.9,17.8s0,0,0,.1c4.5-9.2,14.3-22.7,34.6-28,0,0,0,0,0,0,0,0,0,0,0,0,0,0,0-.1.2-.2,0,0,0,0,0,0,0,0,.1-.2.2-.3,0,0,0,0,.1-.2,0-.1.2-.3.3-.4,0,0,0-.1.1-.2,0-.1.2-.3.2-.4,0,0,.1-.2.2-.3.1-.2.3-.4.4-.6,0-.1.2-.3.2-.4,0-.1.2-.3.3-.5.1-.2.3-.5.4-.8,0-.2.2-.3.3-.5.1-.2.2-.4.3-.6,0-.1.2-.3.2-.5.2-.4.4-.8.6-1.3,0-.1.1-.3.2-.4.1-.3.3-.6.4-.9,0,0,0-.1,0-.2.3-.6.6-1.3.9-1.9,0,0,0-.2.1-.2,1.2-2.7,2.4-6,3.5-9.7,6.4-21.3,9.3-58.6-18-109.3Z"/>
    <path class="st6" d="M44.1,161.4c-21.5,48.7-18.1,83.9-11.2,105.3,5.4,16.5,12.9,24.8,12.9,24.8,20.1,3.6,30.9,15.7,36.2,24.4l7.6-16.9h0c-47-55.5-45.7-132.6-45.5-137.5Z"/>
    <path class="st6" d="M44.1,161.2s0,0,0,.2c0,0,0-.2.1-.2h-.1Z"/>
  </g>
  <g id="sombra_lamina">
    <path class="st2" d="M32.9,266.7c0-.1-.2-.2-.2-.3,5.4,16.8,13,25.2,13,25.2,20.1,3.6,30.9,15.7,36.3,24.5v-.2c0,0,7.6-16.9,7.6-16.9-4.7-5.6-9-11.4-12.8-17.3-25.4,5-38.3-7.1-43.9-15Z"/>
    <path class="st0" d="M262,281.7c-3.3,6.2-7.1,12.4-11.3,18.3l7.9,17.8s0,0,0,.1c4.5-9.2,14.3-22.7,34.6-28,0,0,0,0,0,0,0,0,0,0,0,0,0,0,0-.1.2-.2,0,0,0,0,0,0,0,0,.1-.2.2-.3,0,0,0,0,.1-.2,0-.1.2-.3.3-.4,0,0,0-.1.1-.2,0-.1.2-.3.2-.4,0,0,.1-.2.2-.3.1-.2.3-.4.4-.6,0-.1.2-.3.2-.4,0-.1.2-.3.3-.5.1-.2.3-.5.4-.8,0-.2.2-.3.3-.5.1-.2.2-.4.3-.6,0-.1.2-.3.2-.5.2-.4.4-.8.6-1.3,0-.1.1-.3.2-.4.1-.3.3-.6.4-.9,0,0,0-.1,0-.2.3-.6.6-1.3.9-1.9,0,0,0-.2.1-.2,1.2-2.7,2.4-6,3.5-9.7-6.3,7.6-18.9,16.5-40.9,12.5Z"/>
  </g>
  <g id="sombra_roupa">
    <path class="st5" d="M122.7,182.4c10.2,7.1,27.5,19.5,37.8,28.1,6.4,5.4,15.8,5.6,22.5.5,7.5-5.8,20.6-14.9,31.8-21.6,0,0,0,0,0,0,0,0,0,0,0,0,0-3.7,0-6.8,0-9.4-14.6,7.1-27.8,15.7-35.7,21.1-4.6,3.2-10.6,3.1-15.1,0-13.1-9.5-28.5-18.6-41.3-25.7,0,1.8,0,4.2.1,7.1Z"/>
    <path class="st5" d="M162.5,297.4c-8.5-3.2-16.8-6.6-24.3-10.2-3.7.8-7.3,1.1-10.8.7-2.4.4-4.9.7-7.4,1,0,.4-.1.8-.2,1.2h0s0,0,0,0c-.9,5.4-1.9,10.5-3.2,15.3,8.1-.7,19.5-2,32.5-4.6l13.5-3.4Z"/>
    <path class="st5" d="M191.1,288.4c9-3.6,18.1-7.9,27-13.1,0-.6-.1-1.2-.2-1.9-.1-1.5-.3-2.9-.4-4.4,0,0,0,0,0,0-.2-2-.3-4-.5-6h0c0-2.5-.3-5-.4-7.4,0,0,0,0,0,0,0-1.1-.1-2.1-.1-3.2-5.7,3.7-26.4,16.6-51.9,25.8,8,3.4,16.9,6.9,26.5,10.1Z"/>
    <path class="st5" d="M226.5,323.3c-57.1,1.8-93.8-6.5-111.5-11.9l-4,28.6s0,0,0,0c0,0,.1,0,.1,0h117.7s0,0,0,0c0,0,0,0,0,0l-2.3-16.6Z"/>
    <path class="st5" d="M221.3,297.2c-10.7-2.6-20.8-5.6-30.2-8.8-9.6-3.3-18.5-6.7-26.5-10.1-20.9-8.9-35.8-17.4-41.6-20.8,0,.4,0,.7,0,1.1,0,1.9-.2,3.7-.3,5.6,0,0,0,0,0,0-.3,4.5-.7,9.1-1.2,13.7,4.9,3.2,10.6,6.3,16.8,9.3,7.5,3.6,15.8,7,24.3,10.2,22.4,8.4,46.5,15.1,63.1,19.3l-1-6.9c0,0-.1,0-.1,0-1.2-3.9-2.3-8.1-3.2-12.6Z"/>
  </g>
  <g id="sombra_pele">
    <path class="st8" d="M234.3,171.8c-6.6,2.2-13.2,5.1-19.6,8.2,0,2.6.1,5.7,0,9.4,7.3-4.2,14.8-8,22-10.7,0,0,0,0,0,0-.8-2.7-1.7-4.9-2.6-6.8Z"/>
    <path class="st8" d="M107.9,167.4c-.6,1.1-1.3,2.3-2,3.8,3.1,1.9,9.2,5.9,16.8,11.1-.1-2.8-.3-5.3-.4-7.1-5.4-3-10.3-5.6-14.4-7.7Z"/>
    <path class="st8" d="M105.9,171.2s0,0,0,0c0,0,0,0-.1,0h.1Z"/>
    <path class="st8" d="M161.2,97.5c-2-.6-4-.8-4-.8-1.6-.2-3.1,1-3.3,2.6-.2,1.6,1,3.1,2.6,3.3,0,0,1.5.2,3,.6.2,0,.5,0,.8,0h0c1.3.1,2.5-.8,2.9-2.1.5-1.6-.4-3.2-2-3.7Z"/>
    <path class="st8" d="M179.2,96.6c0,0-2,.2-4,.8-1.6.4-2.5,2.1-2,3.7.4,1.4,1.6,2.2,2.9,2.2h0c.2,0,.5-.2.8-.2,1.5-.4,3-.6,3-.6,1.6-.2,2.8-1.6,2.6-3.3-.2-1.6-1.7-2.8-3.3-2.6Z"/>
    <path class="st8" d="M155,67.4h0c0,0-5.2,14.2-16.2,21.2,0,0,0,0,0,0,0,3.1,0,6.3.4,9.2,4.4-2.6,10.3-7,16.5-14.3,0,0,13.7,15.1,41.5,9.2h0c.5-.2,1-.3,1.5-.4,0-.4,0-.8.1-1.1-.5.2-1,.3-1.6.2-9.2,0-31.9-2.5-42.1-24Z"/>
  </g>
  <g id="cor_roupa">
    <path class="st3" d="M225.6,316.7c-16.6-4.2-40.7-10.9-63.1-19.3l-13.5,3.4c-13.1,2.6-24.4,3.9-32.5,4.6-.4,1.5-.8,3-1.3,4.4,0,0,0,0,0,0l-.2,1.5c17.7,5.5,54.4,13.7,111.5,11.9l-.9-6.6Z"/>
    <path class="st3" d="M221.3,297.2c-1.4-7-2.5-14.4-3.2-21.9-8.8,5.2-17.9,9.5-27,13.1,9.4,3.2,19.5,6.2,30.2,8.8Z"/>
    <path class="st3" d="M138.1,287.2c-6.2-3-11.9-6.1-16.8-9.3-.3,2.5-.6,5.1-1,7.6-.2,1.2-.3,2.3-.5,3.5,2.5-.3,5-.6,7.4-1,3.5.4,7.1.1,10.8-.7Z"/>
    <path class="st3" d="M123.8,217.4c0,5,0,9.6-.1,13.1,0,3.1,0,7-.1,11.5,0,0,0,0,.1,0,0,2.4-.1,5-.2,7.7,0,0,0,0-.1,0,0,2.5-.2,5.1-.4,7.7,5.8,3.5,20.6,11.9,41.6,20.8,25.4-9.2,46.2-22.1,51.9-25.8-.2-4.7-.3-9.1-.4-13,0,0,0,0,0,0v-7h0s0,0,.1,0c0-5,0-8.4,0-9.3,0-1.7-.1-3.5-.2-5.4-.3-9-.7-19.5-1.1-28.4-11.2,6.7-24.3,15.8-31.8,21.6-6.7,5.1-16.1,4.9-22.5-.5-10.3-8.6-27.6-21-37.8-28.1-.2-3-.2-5.3-.1-7.1,0,0-.2-.1-.3-.2,0,1.9.2,4.3.4,7.1.5,9.5,1,23.5,1.2,35.2Z"/>
  </g>
  <g id="cor_pele">
    <path class="st7" d="M236.8,178.6c-7.2,2.7-14.7,6.4-22,10.7,0,0,0,0,0,0,0,0,0,0,0,0,.4,8.9.8,19.4,1.1,28.4.2,3,.2,5.1.2,5.1,13.9-3.4,27.1,4.2,27.1,4.2-.5-23.6-3.3-38.7-6.4-48.5Z"/>
    <path class="st7" d="M105.9,171.2s0,0,0,0h-.1c0,0,0,0,.1,0,.7-1.5,1.4-2.7,2-3.8,0,0,0,0-.1,0-4.3,7.2-10.5,23.6-11.3,59.8,0,0,13.2-7.6,27.1-4.2,0,0,0-2.2.2-5.5-.1-11.6-.7-25.6-1.2-35.2-7.6-5.2-13.7-9.1-16.8-11.1Z"/>
    <path class="st7" d="M198.6,92.3c-.5.1-1,.2-1.5.3h0c-27.8,6-41.5-9.1-41.5-9.1-6.2,7.3-12.1,11.7-16.5,14.3-.3-2.9-.4-6-.4-9.2,0,0,0,0-.1,0-.2,9.2,2,18.9,2,18.9,0,0,7.5,8.8,27.5,8.8s29.1-12.2,29.1-12.2c0,0,0,.1,0,.3,0,0,0-.2.1-.3,0,0,.8-5.7,1.4-13,0,0,0,0,0,0,0,.4,0,.8-.1,1.1ZM163.2,101.2c-.4,1.3-1.6,2.2-2.9,2.2h0c-.3-.1-.6-.1-.8-.2-1.5-.4-3-.6-3-.6-1.6-.2-2.8-1.7-2.6-3.3.2-1.6,1.7-2.8,3.3-2.6,0,0,2,.2,4,.8,1.6.5,2.5,2.1,2,3.7ZM179.9,102.5s-1.5.2-3,.6c-.3,0-.6.1-.8.1h0c-1.3,0-2.5-.7-2.9-2.1-.5-1.6.4-3.3,2-3.7,2-.6,3.9-.8,4-.8,1.6-.2,3.1,1,3.3,2.6.2,1.7-1,3.1-2.6,3.3Z"/>
    <path class="st7" d="M258.7,317.9s0,0,0-.1l-7.9-17.8h0s-3.8-8.6-3.8-8.6h0c0,0-.1,0-.1,0,0,0,0,0,0,0-6.8,14.7-20.8,18.1-22.1,18.4l1,6.9.9,6.6,2.3,16.6s0,0,0,0c14,.3,21.7-1.2,27.2-6.7s4.9-10.1,2.7-15.3Z"/>
    <path class="st7" d="M93,291.4s0,0,0,0h0s0,0,0,0l-3.4,7.5h0c0,0-7.6,17-7.6,17v.2c0,0-.8,1.7-.8,1.7-2.3,5.2-1.4,11.4,2.6,15.4s13.2,7,27.2,6.7c0,0,0,0,0,0l4-28.6.2-1.5c-.3,0-15.2-3.1-22.2-18.4Z"/>
  </g>
  <g id="cor_acessorio">
    <path class="st4" d="M145.7,123.1h0s0,0,0,0c.2.3.5.6.7.9,5.3,8.7,12.7,12.4,17.9,14,3.5,1.1,5.9,1.2,5.9,1.2,9.3-1.6,15.4-7.4,19.5-13.8,5.7-9,7.3-19.3,7.6-21,0-.2,0-.3,0-.3,0,0-9.1,12.2-29.1,12.2s-27.5-8.8-27.5-8.8c1,6.5,2.9,11.7,5.3,15.9,0-.1-.2-.2-.2-.4Z"/>
    <path class="st4" d="M238.8,170.4c5.6-1.6,7.5-8.4,3.6-12.7-2.8-3.1-7.3-5.9-14.2-7.2,0,0,0,0,0,0-7.4,1.8-14.3,4.4-20.7,7.1-8.6,3.7-18.7,10.2-24.8,14.5-3.7,2.6-8.6,3-12.7,1-15.3-7.5-29.4-19.3-29.4-19.3-1.6-1.4-3.2-2.6-4.7-3.6-1.9-1.3-.5-4.3,1.7-3.6,2.3.8,4.5,1.8,6.6,3.2,6.8,4.6,20.9,12,27.7,15.5,2.2,1.2,4.9,1,7-.4,7.4-5.1,26.4-16.7,46.1-18.4-3.3-2.7-9.8-5.6-22.1-4.3,0,0-.7.1-1.8.3-1,.2-2.5.4-4.2.6-11.8,2.1-23.7,7.8-23.7,7.8-21.6-5.4-29.7-20.4-31.9-25.8-1.5.7-3,1.6-4.5,2.5C127.3,109.1,88.9,44.1,7.6,23.3c0,0-1.6,20.1,14.6,42.2,4,5.5,9.8,9.5,16.3,11.4,12.3,3.6,36.5,12.4,61.1,32,7.3,5.8,14.6,12.5,21.7,20.3,1.9,2.1,3.8,4.3,5.7,6.5-2.4,2.8-4.4,5.9-5.4,9.4,0,0-9.3,1.2-19.2,9.4-3.5,2.9-2.8,8.5,1.2,10.6,1.3.7,2.7,1.4,4.3,2.2,0,0,0,0,.1,0,4.1,2.1,9,4.8,14.4,7.7,0,0,.2.1.3.2,12.8,7.1,28.2,16.3,41.3,25.7,4.5,3.2,10.5,3.3,15.1,0,7.9-5.5,21.1-14,35.7-21.1,6.4-3.1,13-6,19.6-8.2,1.5-.5,3-1,4.5-1.4Z"/>
    <path class="st4" d="M243.1,257.8c-10.7-.5-20.8,3.1-26,5.3h0c.1,2,.3,4,.5,6,6.4.6,17.1,2.3,27.1,7-.6-5.2-1.1-11.4-1.5-18.3Z"/>
    <path class="st4" d="M242.8,250.8c-.2-7.5-.1-15.6.4-23.7h0s-13.2-7.6-27.1-4.2c0,0,0,0,0,.3,0,.9,0,4.3,0,9.3,6.1-.2,16.9.4,26.6,6v8.4c-8.8-6.9-20.5-7.6-26.5-7.4,0,3.9.2,8.3.4,13,0,1,0,2.1.1,3.2,6.1-2.4,15.8-5.3,26.2-4.9Z"/>
    <path class="st4" d="M246.7,291.4c0,0-.5-2.6-1.1-6.8-9.4-5.5-20.5-7.5-27.4-8.3h0c-.1-1-.2-1.9-.3-2.8,0,.6.1,1.2.2,1.9.8,7.4,1.8,14.9,3.2,21.9.9,4.4,2,8.7,3.2,12.6,0,0,0,0,.1,0,1.3-.3,15.3-3.7,22.1-18.4,0,0,0,0,0,0Z"/>
    <path class="st4" d="M120.8,282.2s0,0,0,0c-.1,1.1-.3,2.2-.4,3.3.1-1.1.3-2.2.4-3.3Z"/>
    <path class="st4" d="M95.4,267.1c.2-2.3.3-4.8.5-7.3h0c-.4,7.4-1,14-1.5,19.2.2-1.7.4-3.6.5-5.6,5.5.7,16.7,2.7,25.9,8.8.2-1.4.4-2.9.5-4.3.5-4.6.9-9.2,1.2-13.7-11.1-.6-22.1,1.6-27.2,2.9Z"/>
    <path class="st4" d="M123.6,222.9c-13.9-3.4-27.1,4.2-27.1,4.2h0c.3,11.5,0,22.8-.6,32.7,6.1-1.4,16.5-3.2,27.1-2.6,0,.5,0,.9,0,1.4,0-.4,0-.7,0-1.1.1-2.7.3-5.2.4-7.7-.1,0-.2-.1-.4-.1-13.8-7.5-25.9-5.3-26-5.3h-.4v-7.1h.1c3.4-.4,14.2-1.2,26.9,4.8,0-4.5.1-8.4.1-11.5,0-4.8,0-7.6,0-7.6Z"/>
    <path class="st4" d="M93,291.3c0,0,0,0,0,0,7,15.3,21.9,18.3,22.2,18.4,0,0,0,0,0,0,.4-1.4.9-2.9,1.3-4.4,1.3-4.8,2.3-10,3.2-15.3-8.1-6.8-19.9-9-25.4-9.7-.6,6.3-1.1,10.3-1.2,10.9Z"/>
  </g>
  <g id="sombra_acessorio">
    <path class="st1" d="M104,124.6c5.5.7,11.5,2.1,17.3,4.6-7.1-7.8-14.4-14.5-21.7-20.3-7.9-1.3-21-1.6-35.6,5.7-8.2,4.1-17.7,4.8-26.3,1.7-3.1-1.1-6.1-2.6-8.7-4.7-1.4-1.2-3.5.1-3.2,1.9h.1c.8,4.5,2.7,10.7,6.7,16.7,7.4,10.8,21.8,14.2,33.4,8.1,3.3-1.7,6.9-3.9,10.7-6.6,7.9-5.7,17.7-8.3,27.3-7.1Z"/>
    <path class="st1" d="M228.3,150.4s-.6-2-3.1-4h0s0,0,0,0c-19.8,1.7-38.7,13.3-46.1,18.4-2.1,1.4-4.8,1.6-7,.4-6.8-3.5-20.9-10.9-27.7-15.5-2.1-1.4-4.3-2.4-6.6-3.2-2.2-.7-3.6,2.3-1.7,3.6,1.5,1,3.1,2.2,4.7,3.6,0,0,14.1,11.8,29.4,19.3,4.1,2,9,1.6,12.7-1,6.1-4.3,16.2-10.8,24.8-14.5,6.4-2.7,13.3-5.3,20.7-7.1,0,0,0,0,.1,0Z"/>
    <path class="st1" d="M173.1,150.8s11.9-5.7,23.7-7.8c1.8-.2,3.2-.4,4.2-.6-3.4-2.3-9.7-7.9-11.5-17-4.1,6.4-10.2,12.2-19.5,13.8,0,0-2.4-.1-5.9-1.2-5.1-1.6-12.6-5.4-17.9-14-.2-.3-.5-.6-.7-.9,0,0,0,0,0,0-1.3.5-2.9,1.1-4.4,1.9,0,0,0,0,0,0,2.2,5.3,10.2,20.4,31.9,25.8Z"/>
    <path class="st1" d="M96.7,237.2h-.1v7.1h.4c0,0,12.2-2.2,26,5.3.1,0,.3,0,.4.1,0,0,.1,0,.1,0,0-2.7.2-5.3.2-7.7,0,0,0,0-.1,0-12.6-6-23.5-5.2-26.9-4.8Z"/>
    <path class="st1" d="M95.9,259.8s0,0,0,0h.1c-.2,2.5-.3,5-.5,7.3,5.1-1.3,16.1-3.5,27.2-2.9,0,0,0,0,0,0,.2-1.9.3-3.8.3-5.6,0-.5,0-.9,0-1.4-10.7-.6-21,1.2-27.1,2.6Z"/>
    <path class="st1" d="M94.4,279c0,.5-.1,1-.2,1.4,0,0,0,0,0,0,5.5.7,17.4,2.9,25.4,9.7,0,0,0,0,0,0h0c0-.4.1-.8.2-1.2.2-1.1.3-2.3.5-3.5.1-1.1.3-2.2.4-3.3-9.2-6.1-20.4-8.1-25.9-8.8-.2,2-.3,3.9-.5,5.6Z"/>
    <path class="st1" d="M242.6,246.9v-8.4c-9.6-5.6-20.5-6.2-26.6-6,0,0,0,0-.1,0h0v7s0,0,0,0c6-.2,17.8.5,26.5,7.4Z"/>
    <path class="st1" d="M243.1,257.8s0,0,0,0c-.1-2.3-.2-4.6-.3-7,0,0,0,0,0,0-10.4-.4-20.1,2.5-26.2,4.9,0,0,0,0,0,0,0,2.4.3,4.9.4,7.4h.1c5.2-2.2,15.3-5.8,26-5.3Z"/>
    <path class="st1" d="M244.6,276.1s0,0,0,0c-10-4.7-20.7-6.4-27.1-7,0,0,0,0,0,0,.1,1.5.3,2.9.4,4.4,0,.9.2,1.8.3,2.7h0c6.9.9,18,2.9,27.4,8.4,0,0,0,0,0,0-.3-2.3-.7-5.2-1.1-8.5Z"/>
  </g>
  <path id="cabelo" class="st3" d="M138.6,88.7s0,0,.1,0c0,0,0,0,0,0,11-7,16.2-21.1,16.2-21.1h0c10.2,21.4,32.9,23.9,42.1,23.9.6,0,1.1,0,1.6-.2,0,0,0,0,0,0,1.6-.5,2.8-1.9,3.1-3.6,5-27.9-5.7-40.6-17.1-46.4-13.6-7-30.6-4.7-41.7,5.7-13.2,12.2-12.4,29.9-10.9,38.8.5,2.9,4,4.5,6.5,3Z"/>
</svg>