<?xml version="1.0" encoding="UTF-8"?>
<svg id="Camada_1" xmlns="http://www.w3.org/2000/svg" version="1.1" xmlns:xlink="http://www.w3.org/1999/xlink" viewBox="0 0 340 340">
  <!-- Generator: Adobe Illustrator 30.4.0, SVG Export Plug-In . SVG Version: 2.1.4 Build 226)  -->
  <defs>
    <style>
      .st0 {
        fill: url(#Gradiente_sem_nome_2);
      }

      .st1 {
        fill: #939fad;
      }

      .st2 {
        fill: url(#Gradiente_sem_nome);
      }

      .st3 {
        fill: #cad4db;
      }

      .st4 {
        fill: #61758d;
      }

      .st5 {
        fill: #63c9cf;
      }

      .st6 {
        fill: #943434;
      }

      .st7 {
        fill: #bd5151;
      }

      .st8 {
        fill: #e3d4d1;
      }

      .st9 {
        fill: #a68786;
      }

      .st10 {
        fill: #434356;
      }

      .st11 {
        fill: #559fa3;
      }
    </style>
    <linearGradient id="Gradiente_sem_nome" data-name="Gradiente sem nome" x1="4870.8" y1="34.3" x2="4846.6" y2="1.2" gradientTransform="translate(4856.5031 696.6134) rotate(-172.5765)" gradientUnits="userSpaceOnUse">
      <stop offset="0" stop-color="#7f91ac"/>
      <stop offset="1" stop-color="#5d7189"/>
    </linearGradient>
    <linearGradient id="Gradiente_sem_nome_2" data-name="Gradiente sem nome 2" x1="4871.4" y1="33.4" x2="4845.1" y2="-4.9" gradientTransform="translate(4856.5031 696.6134) rotate(-172.5765)" gradientUnits="userSpaceOnUse">
      <stop offset="0" stop-color="#535365"/>
      <stop offset="1" stop-color="#39394c"/>
    </linearGradient>
  </defs>
  <g id="Layer_20">
    <g>
      <g>
        <path class="st3" d="M30.6,221.4c.8-4.7,1.4-9.5,1.8-14.4.5-5.3,1.4-6.8-1.2-10.9-2-3-4.2-4.5-5.6-5.2-.8-.4-1.3-1.5-1.2-2.6l1.1-13.9c0-.9.5-1.6,1.1-2,1.5-1,2.8-2.1,3.9-3.2,3.4-3.6,3.2-13.2,3-19-1.1-25.2-.7-27.8-.7-27.8-2.7-30.6,1.3-47.1,4-61.8.8-4.5,3.9-7.6,7.4-7.6h3.7c2.6,0,4.6,3.2,4,6.6-2.6,14.1-7,31.5-4.2,62.8,0,0,5.8,48.4-2.2,99-1.5,9.5-2.7,19.1-3.4,28.9-1.5,21.4-2.7,56.5,1.9,89.8h-14.9c-4.6-33-3.4-67.8-1.9-89.2.7-9.8,1.9-19.6,3.5-29.3Z"/>
        <path class="st1" d="M32.1,97.1c1.4-26,3.4-20.2,6.9-20.2h3.7c2.6,0,4.5,13.5,3.9,25.4"/>
        <g>
          <path class="st3" d="M29.5,77.9c.6-3.8,1.3-9.2,2.3-16.9l31.9,7.4c5.3,6.7,5,11.2,14.8,18.6,1.4,1.1,2.3,2.8,2.3,4.5l1.2,8.7c0,1.4.5,2.8,1.4,4l2.2,2.9c.5.6,0,1.5-.7,1.6-5.1.6-20.9,1.6-33.8-7.5l-15-9.2c-4.8-3-7.3-8.5-6.5-14Z"/>
          <path class="st11" d="M61.8,88.1c.9.1,1.8-.2,2.4-.9.9-1.1.8-2.8-.4-3.8l-1.9-1.5c-1.2-.9-2.9-.8-3.8.3-1,1.1-.8,2.8.4,3.8l1.9,1.5c.4.3.9.5,1.4.6Z"/>
          <path class="st1" d="M31.9,60.9l19.5,4.5,6,6.8c-.2.2-11.9,9.7-27.3,1.7.5-4.3,1.3-8.7,1.7-13Z"/>
          <path class="st2" d="M25.7,22.7c-.5,2.6-1.1,6.1-1.6,9.7,1.8,25.7,13.6,36.5,36.2,31.1-3.4-4.4-9.4-11.3-18.4-18.9-1.8-1.5-3.2-3.3-4.5-5.2-2.5-3.7-6.8-10.4-9.5-16.9-.4-1-1.9-.9-2.1.2Z"/>
          <path class="st0" d="M24,32.3c.2.9.4,1.9.6,3,.7,3,3.4,5.2,6.5,5.2,2.8,0,4.8-.7,6.1-1.4,0,0,0,.1.1.2,1,1.4,2,2.8,3.2,4-2.1,1.3-6.9,2.8-12.3,2.2,1.2,2.4,2.7,4.8,4.5,7,2.3,2.7,5.9,4,9.5,3.3,3.8-.7,6.7-2.2,8.4-3.2,1.4,1.4,2.6,2.7,3.8,3.9-1.9,1.3-5.4,3.3-10.2,4.3,4.3,1.8,9.6,2.7,15.9,2.5,2.4,3.1,3.5,4.9,3.5,4.9-3,2.8-8,4.4-8,4.4-15.9,2.8-33.1-9.8-32.4-30,0,0,.5-8.7.8-10.5Z"/>
        </g>
      </g>
      <g>
        <path class="st8" d="M311,176.1h-9.7c-1.7,0-3.1,1.3-3.3,3l-2,25h0c-2.4,0-4.4,1.9-4.4,4.4,0,3.8.6,8.5,1.2,11.5.4,2.3,0,4.7-1.6,6.6-.9,1.1-1.9,2.1-3.1,2.9-12.4,9-27.9,14-27.9,14-6.2-14.6-21.2-27.4-21.2-27.4,7.1-21.4,1.1-37.5,1.1-37.5l-33.3,24.1v41.7c8.3,12.8,33.8,29.6,45.4,36.9,3.7,2.3,8.3,2.5,12.1.5,29-14.6,47.8-37.8,55.5-48.8,2.6-3.7,4-8.1,4-12.6l-.6-15.1c-.2-3.9-3.2-7-7.1-7.2h-2c0-.1,0-18.6,0-18.6,0-1.8-1.5-3.3-3.3-3.3Z"/>
        <path class="st9" d="M315.3,204.6c-.4-2.7-2.7-4.8-5.5-5l-13.2-1.2-.5,5.7h9.8c4.2,0,4.7,5.6,1.3,7.9-.5.4-1.2.8-1.8,1.3-.9.6-.7,2.1.4,2.4,2.1.6,4.5,2.1,4.8,5.3,0,.9,1.2,1.1,1.6.3,1-2,1.4-4.8-1.1-7.6,0,0,5-3.1,4.2-9.1Z"/>
        <path class="st9" d="M303.2,176.1l-.7,17c0,1.7,1.2,3.1,2.9,3.1h.1c1.6,0,2.9-1.3,3-2.9l.7-17.2h-6Z"/>
        <path class="st9" d="M225.5,262.6c-4.6-28.2,13.7-46.6,13.7-46.6,7.1-21.4,1.1-37.5,1.1-37.5l-33.3,24.1v41.7c3.7,5.7,10.8,12.2,18.6,18.3Z"/>
        <path class="st10" d="M101.9,283.1s-19.2,50.9-22.1,56.9h84.2l-62.1-56.9Z"/>
        <path class="st4" d="M106.3,299.6c3.4,6.5,9.1,15.6,18,25.2,8.9,9.7,21.6,15.2,34.7,15.2h65.3s-5.9-38.4-20.3-60.5l-97.8,20.1Z"/>
        <path class="st10" d="M181,340h30.7c-24.7-7.2-58.1-22.2-71.9-51.9-.3-.7-.7-1.4-1-2.1l-15.1,1.5v5.7s16,28.3,57.3,46.8Z"/>
        <path class="st10" d="M167.7,290.7s22.1,29.6,54.2,36.3c-.5-1.8-1.8-8.5-2.5-10-14-5.3-26.7-12.6-43.9-33.3l-21,.6,13.2,6.3Z"/>
        <path class="st10" d="M208.1,286.5c-.1-.3-3.6-6.7-4.1-7l-102.1,10.3s1.2,3.8,4.3,9.8c15.7,4.9,68.9,17.8,101.8-13.1Z"/>
        <circle class="st6" cx="241.3" cy="160.6" r="14.2"/>
        <circle class="st6" cx="187.1" cy="117.3" r="13.2"/>
        <path class="st8" d="M214.4,96.9s1.1,13.4-7.4,19.5c-5.6,4-15.6,9.7-30.8,10.1,0,0-10-12.9-34.3-5.1,0,0-27.8,7-51.4,18.2-5.9,2.8-10.8,7.2-14.3,12.7-7.2,11.3-20.4,32.9-30.4,55.6l-12.5.6c-6.3.3-11.2,5.4-11.4,11.7l-.2,10.4c-.1,6.2,5.1,11.2,11.3,10.8,4.8-.3,10.7-.9,17-1.9,6.6-1.1,12.4-5,15.8-10.7,8.5-14.2,26.1-45.7,34.1-54.9,0,0,21.9-1.4,38.6-6.1,0,0-17.1,23.3-28.6,60.7l127.8-60.8s-3.3-15.7.9-25.3c1.4-3.3,4.1-5.9,7.6-6.9,1.6-.5,3.4-.7,5.6-.5l-20.8-36-16.4-2.2Z"/>
        <path class="st9" d="M179.1,154.1c0,0,.1,0,.2,0,0,0-4.1,9.6,2.7,19.2l15.9-8.3-.9-20.8-22.3-16.9s-5.7,3.9-6.4,11.5c-.6,7.1,4,13.7,10.9,15.4Z"/>
        <path class="st4" d="M181.9,173.4c-15.2,15.3-40.9,35.9-74.4,43.4-3.9.9-6.9,4.1-7.4,8.1-.4,3.2-1,7.5-1.7,12.4h-5c-3.8,0-6.9,3.1-6.9,7,0,6.6,1.2,16.6,7.2,23.7,0,0-1.9,13.8,8.2,21.8,0,0,63.1,12.6,102.1-10.3,0,0,6.7-11.5,6-45.4,0,0,16-14.6,26.1-37.8l-1.6-31.5c-8.9-.2-52.7,8.6-52.7,8.6Z"/>
        <path class="st10" d="M197.7,155.2s-5.5,7.9-15.8,18.2c2.9,4.1,9.7,9.8,23.3,5.6,0,0-2.9,13.2,12.1,19.2,6.5,2.6,13.3.9,18.9-2,2.7-6.1,4.9-12.9,6.4-20.1l-8-11.4c-8.9-.1-23-1.9-36.9-9.6Z"/>
        <path class="st10" d="M123.8,233.2c28.5-6.7,73.8-23.7,96.1-66.2l-9.4-6.3s-22.6,46.3-87.6,69.6c-1.8.6-1,3.4.9,3Z"/>
        <circle class="st6" cx="187.1" cy="134.2" r="14.2"/>
        <circle class="st6" cx="202.7" cy="154.2" r="15.6"/>
        <circle class="st6" cx="227.2" cy="170.9" r="18.8"/>
        <circle class="st7" cx="224.4" cy="166.2" r="6"/>
        <circle class="st7" cx="199.2" cy="148.5" r="4.8"/>
        <circle class="st7" cx="185.5" cy="127.3" r="4.1"/>
        <circle class="st7" cx="185.9" cy="110.7" r="2.9"/>
        <path class="st9" d="M155.7,162c.5-.8-.5-1.8-1.3-1.3-6.7,4.3-16.1,7-16.1,7,0,0-3.1,4.2-7.6,12,15-4.9,22-13.1,25-17.8Z"/>
        <path class="st10" d="M109.5,271.5c19.7,2.7,56.3,2.4,100.4-22.9.5-5.6.2-14.5.2-14.5,0,0-45.6,33.8-100.4,34.7-1.7,0-1.9,2.6-.2,2.8Z"/>
        <path class="st9" d="M251.5,135.1l-20.8-36-16.4-2.2s1.1,12.9-6.9,19.1c9.9,17.2,22.7,23.5,31.3,25.8,1.5-2.9,4-5.2,7.2-6.1,1.6-.4,3.4-.7,5.6-.5Z"/>
        <path class="st8" d="M210.2,80.5s-1.4,1.8-2,3.2c-2.8,6.4.1,14.1,6.4,17.2,2.4,1.2,5.5,2.1,9.6,2.2v5.7c0,4.8,1.9,9.4,5.3,12.8,4.8,4.7,12.5,11.1,22.4,14.9,2.5.9,5.1,1.4,7.7,1.4h6.4c3.5,0,6.7-1.9,8.4-5.1,2.4-4.6,5.9-12.3,8.3-22.3,1.1-4.4,1.6-9,1.6-13.5v-28.2c0-8.1-2.1-16.2-6.3-23.2-5.3-8.6-14.7-17.2-31.6-17.2,0,0-19.5-1.4-32.4,10.8-8.1,7.6-11.6,19-9.1,29.8.9,3.7,2.5,7.7,5.4,11.4Z"/>
        <circle class="st6" cx="266.4" cy="52.3" r="3.8"/>
        <circle class="st6" cx="269.1" cy="64.8" r="3.8"/>
        <path class="st9" d="M218.4,68.6c-8.5-2.2-12.5-8.4-12.9-15.7-1.6,5.2-1.9,10.7-.6,16.2.9,3.7,2.5,7.7,5.4,11.4,0,0,5.3-5.6,11.5-2.3,2,1.1,3.5,2.6,4.3,4.3.5,1.1,2,.9,2.2-.2.9-4.4.3-11.1-10-13.7Z"/>
        <path class="st5" d="M258,91.5c-.4,0-.9,0-1.3-.3-1.4-.7-2.8-1.2-3.8-1.5-1.6-.5-2.5-2.2-2-3.8s2.2-2.5,3.8-2c1.2.4,2.9,1,4.6,1.8,1.5.7,2.1,2.5,1.4,4-.5,1.1-1.6,1.7-2.7,1.7Z"/>
        <path class="st5" d="M274.2,91.5c-1,0-2-.5-2.6-1.4-.9-1.4-.4-3.2,1-4.1,0,0,1.8-1.1,4.1-2,1.5-.6,3.3.2,3.9,1.7s-.2,3.3-1.7,3.9c-1.8.7-3.1,1.5-3.1,1.5-.5.3-1,.4-1.6.4Z"/>
      </g>
    </g>
  </g>
</svg>