<?xml version="1.0" encoding="UTF-8"?>
<svg id="Camada_1" xmlns="http://www.w3.org/2000/svg" version="1.1" viewBox="0 0 340 340">
  <!-- Generator: Adobe Illustrator 30.4.0, SVG Export Plug-In . SVG Version: 2.1.4 Build 226)  -->
  <defs>
    <style>
      .st0 {
        fill: #387275;
      }

      .st1 {
        fill: #939fad;
      }

      .st2 {
        fill: #cad4db;
      }

      .st3 {
        fill: #61758d;
      }

      .st4 {
        fill: #63c9cf;
      }

      .st5 {
        fill: #e3d4d1;
      }

      .st6 {
        fill: #a68786;
      }

      .st7 {
        fill: #434356;
      }
    </style>
  </defs>
  <g id="cajado">
    <path class="st2" d="M45.8,207.9c.7-1.5,1.3-3,2-4.4,4.4-43.5-.1-81.1-.1-81.1-.8-9-1-16.8-.8-23.8l4.2,2.6c12.9,9.1,28.7,8.1,33.8,7.5.7-.1,1.2-1,.7-1.6l-2.2-2.9c-.9-1.2-1.4-2.6-1.4-4l-1.2-8.7c0-1.7-.9-3.4-2.3-4.5-9.8-7.4-9.5-11.9-14.8-18.6h-.3c-1.9,1.7-4.5,2.9-6.2,3.6l.2.2c-.2.2-11.9,9.7-27.3,1.7,0-.3,0-.7.1-1-.3,1.9-.5,3.6-.7,5h0c-.6,4,.5,7.8,2.9,10.8-.8,9.1-.9,20,.3,33.7,0,0-.4,2.6.7,27.8.2,5.8.4,15.4-3,19-1.1,1.1-2.4,2.2-3.9,3.2-.6.4-1.1,1.1-1.1,2l-1.1,13.9c-.1,1.1.4,2.2,1.2,2.6,1.4.7,3.6,2.2,5.6,5.2,2.6,4.1,1.7,5.6,1.2,10.9,0,.5,0,1.1-.1,1.6.3,0,.7,0,1-.1l12.5-.6ZM58.1,82.2c.9-1.1,2.6-1.2,3.8-.3l1.9,1.5c1.2,1,1.3,2.7.4,3.8-.6.7-1.5,1-2.4.9-.5,0-1-.3-1.4-.6l-1.9-1.5c-1.2-1-1.4-2.7-.4-3.8ZM32.1,97.1c.2-3.2.4-5.9.5-8.2,1,1.2,2.1,2.2,3.5,3.1l10.6,6.5c0,1.3,0,2.5-.1,3.8l-14.5-5.2Z"/>
    <path class="st2" d="M28.1,240.6c-.4,3.4-.7,6.9-.9,10.3-1.5,21.4-2.7,56.2,1.9,89.2h14.9c-4.6-33.3-3.4-68.4-1.9-89.8.2-3.3.5-6.6.9-9.8-3.6.4-7,.7-10,.9-1.7.1-3.4-.2-4.9-.8Z"/>
    <path class="st2" d="M31.3,64.5c-.2,1.7-.4,3.3-.6,4.8.2-1.6.5-3.2.7-4.8,0,0,0,0,0,0Z"/>
  </g>
  <g id="sombra_cajado">
    <path class="st1" d="M46.7,98.5l-10.6-6.5c-1.3-.8-2.5-1.9-3.5-3.1-.2,2.3-.4,5-.5,8.2l14.5,5.2c0-1.3,0-2.5.1-3.8Z"/>
    <path class="st1" d="M57.4,72.2l-.2-.2c-1,.4-1.6.6-1.6.6-8.7,1.5-17.9-1.6-24.2-8.1-.2,1.6-.4,3.2-.7,4.8-.2,1.2-.3,2.4-.5,3.5,0,.3,0,.7-.1,1,15.4,8,27.1-1.5,27.3-1.7Z"/>
  </g>
  <g id="cor_roupa">
    <path class="st3" d="M31.1,40.5c2.8,0,4.8-.7,6.1-1.4-2.5-3.8-6.7-10.3-9.3-16.6-.4-1-1.9-.9-2.1.2h0c-.5,2.6-1.1,6.1-1.6,9.7,0,.2,0,.4,0,.6.1.7.3,1.5.4,2.3.7,3,3.4,5.2,6.5,5.2Z"/>
    <path class="st3" d="M40.5,43.3c-2.1,1.3-6.9,2.8-12.3,2.2,1.2,2.4,2.7,4.8,4.5,7,2.3,2.7,5.9,4,9.5,3.3,3.8-.7,6.7-2.2,8.4-3.2,1.1,1.1,2.2,2.2,3.1,3.2-3.1-3.4-7.1-7.2-11.8-11.2-1.8-1.5-3.2-3.3-4.5-5.2,0,0-.1-.2-.2-.3,0,0,0,0,0,.2,1,1.4,2,2.8,3.2,4Z"/>
    <path class="st3" d="M44.2,60.8c4.3,1.8,9.6,2.7,15.9,2.5,0,0,.1.1.2.2,0,0,0,0,0,0-1.5-1.9-3.4-4.3-5.9-7-1.9,1.3-5.4,3.3-10.2,4.3Z"/>
    <path class="st3" d="M189.6,298.8c10.6,9.7,19.8,14.4,29.6,18.2-2.6-9.7-6.3-20.9-11.2-30.4h0c-5.6,5.3-11.8,9.3-18.4,12.3Z"/>
    <path class="st3" d="M132.8,305.3c-11.6-1.5-21.2-4-26.5-5.7,3.4,6.5,9.1,15.6,18,25.2,8.9,9.7,21.6,15.2,34.7,15.2h22c-24-10.7-39.4-24.8-48.2-34.7Z"/>
    <path class="st3" d="M152.2,306.5c16.4,17.9,40.5,28,59.5,33.5h12.6s-.8-5.3-2.6-13c-18.4-3.9-33.4-15.2-42.9-24.2-8.8,2.5-17.9,3.6-26.6,3.7Z"/>
    <polygon class="st3" points="106.2 299.6 106.2 299.6 106.2 299.6 106.2 299.6"/>
    <path class="st3" d="M109.5,271.5h0c-1.7,0-1.5-2.7.2-2.7,53.4-.9,98-33,100.3-34.6,0,0,0,0,0,0,0,0,16-14.6,26.1-37.8h0c-5.6,2.8-12.3,4.5-18.8,1.9-6.9-2.7-10-7-11.3-10.8-24,27.8-58.8,40.3-82.2,45.8h0c-1.9.5-2.7-2.3-.9-2.9,37.4-13.4,60.7-34.4,73.8-49.8-8.1.2-12.6-3.9-14.8-7.1-14.1,14.2-37.3,33-67.4,41.6-2.3.7-4.6,1.3-7,1.8-3.9.9-6.9,4.1-7.4,8.1-.4,3.2-1,7.5-1.7,12.4h-5c-3.8,0-6.9,3.1-6.9,7,0,6.6,1.2,16.6,7.2,23.7,0,0-1.6,12,6.3,20.1.6.6,1.2,1.2,1.9,1.7,0,0,63.1,12.6,102.1-10.3,0,0,4.7-8.1,5.8-30.9-44.1,25.3-80.6,25.6-100.3,22.9Z"/>
    <path class="st3" d="M181.8,173.4h.1s0,0,0,0c0,0-.1,0-.1,0Z"/>
  </g>
  <g id="sombra_roupa">
    <path class="st7" d="M55.6,72.6s.7-.2,1.6-.6c1.7-.7,4.3-1.9,6.2-3.7,0,0,.1,0,.2-.1,0,0-1.1-1.7-3.3-4.7,0,0-.1-.1-.2-.2-6.3.2-11.6-.7-15.9-2.5,4.8-1,8.3-3,10.2-4.3,0,0,0,0,0,0-.2-.2-.4-.4-.7-.7-1-1-2-2.1-3.1-3.2-1.7,1-4.6,2.5-8.4,3.2-3.6.7-7.2-.6-9.5-3.3-1.8-2.2-3.3-4.6-4.5-7,5.4.6,10.2-.9,12.3-2.2-1.2-1.2-2.2-2.6-3.2-4,0,0,0-.2,0-.2,0,0,0,0,0,0h0c-1.3.7-3.3,1.4-6.1,1.4s-5.8-2.2-6.5-5.2c-.1-.8-.3-1.6-.4-2.3,0-.2-.1-.5-.2-.7v-.2c-.3,1.8-.8,10.5-.8,10.5-.3,9.1,3,16.6,8.1,21.9,0,0,0,0,0,0,6.3,6.5,15.5,9.6,24.2,8.1Z"/>
    <path class="st7" d="M101.9,289.8c-.7-.5-1.3-1.1-1.9-1.7-4.9,13-17.9,47.1-20.2,51.9h79.2c-13.1,0-25.8-5.5-34.7-15.2-8.9-9.6-14.6-18.7-18-25.2,5.3,1.7,14.9,4.2,26.5,5.7,8.7,9.9,24.2,23.9,48.2,34.7h30.7c-19-5.5-43.1-15.7-59.5-33.5,8.7-.1,17.8-1.2,26.6-3.7,9.5,9,24.6,20.3,42.9,24.2,0,0,.1,0,.2,0-.5-1.8-1.8-8.5-2.5-10,0,0,0,0-.1,0-9.8-3.7-19-8.5-29.6-18.2,6.5-3,12.7-7,18.4-12.3h.1c-.1-.3-3.6-6.7-4.1-7-39,22.9-102.1,10.3-102.1,10.3ZM106.2,299.6h0,0Z"/>
    <path class="st7" d="M240.6,184.1c-3.4,3.5-8.2,5.6-13.4,5.6-10.4,0-18.8-8.4-18.8-18.8s0-1.5.1-2.2c-1.8.7-3.8,1.1-5.8,1.1-4.9,0-9.2-2.2-12.1-5.7-2.3,2.7-5.2,5.8-8.6,9.2,0,0,0,0,0,0s0,0,0,0c2.2,3.1,6.7,7.2,14.8,7.1-13.1,15.4-36.5,36.4-73.8,49.8-1.8.6-1,3.4.9,3h0c23.4-5.6,58.1-18.1,82.2-45.9,1.4,3.8,4.5,8.1,11.3,10.8,6.5,2.6,13.2.9,18.8-1.9,0,0,0,0,.1,0,1.7-3.8,3.2-7.9,4.4-12.1Z"/>
    <path class="st7" d="M210.1,234.1s0,0,0,0c-2.3,1.7-46.9,33.8-100.3,34.6-1.7,0-1.9,2.6-.2,2.8h0c19.7,2.6,56.3,2.3,100.3-23,0,0,0,0,0,0,0,0,0,0,0-.1,0,0,0-.2,0-.3.5-5.6.2-14.1.2-14.1Z"/>
  </g>
  <g id="cor_pele">
    <path class="st5" d="M323.2,205.3c-.2-3.9-3.2-7-7.1-7.2h-2v-18.6c0-1.8-1.5-3.3-3.3-3.3h.2c0-.1-7.8-.1-7.8-.1h0s6,0,6,0l-.7,17.2c0,1.6-1.4,2.9-3,2.9h0c-1.7,0-2.9-1.4-2.9-3.1l.7-17h-1.9c-1.7,0-3.1,1.3-3.3,3l-2,25c-2.4,0-4.4,1.9-4.4,4.4,0,3.8.6,8.5,1.2,11.5.4,2.3,0,4.7-1.6,6.6-.9,1.1-1.9,2.1-3.1,2.9-12.4,9-27.9,14-27.9,14-6-14.1-20.2-26.5-21.1-27.4-1.6,1.7-17.9,19.6-13.6,46.4,0,0,0,0,.1,0h-.1s0,0,0,0c-6-4.7-11.6-9.7-15.6-14.3,0,.1,0,.2,0,.3,10.3,12.1,31.9,26.3,42.3,32.8,3.7,2.3,8.3,2.5,12.1.5,29-14.6,47.8-37.8,55.5-48.8,2.6-3.7,4-8.1,4-12.6l-.6-15.1ZM312.2,221.3c-.4.8-1.6.6-1.6-.3-.3-3.2-2.7-4.7-4.8-5.3-1.1-.3-1.3-1.8-.4-2.4.6-.5,1.3-.9,1.8-1.3,3.4-2.3,2.9-7.9-1.3-7.9h-9.8l.5-5.7,13.2,1.2c2.8.2,5.1,2.3,5.5,5,.8,6-4.2,9.1-4.2,9.1,2.5,2.8,2.1,5.6,1.1,7.6Z"/>
    <path class="st5" d="M181.8,173.4s0,0,.1,0c0,0,0,0,0,0-6.8-9.6-2.7-19.2-2.7-19.2h-.2,0c-6.9-1.6-11.5-8.2-10.9-15.3.7-7.5,6.3-11.4,6.4-11.5.3-.5.6-1,.9-1.4-2.4-2.5-12.7-11.2-33.7-4.5,0,0-27.8,7-51.4,18.2-5.9,2.8-10.8,7.2-14.3,12.7-6.7,10.6-18.7,30.1-28.4,51.2-.7,1.5-1.4,3-2,4.4l-12.5.6c-.4,0-.7,0-1,.1-5.8.8-10.2,5.7-10.4,11.6l-.2,10.4c0,4.5,2.6,8.3,6.4,10,1.5.6,3.1,1,4.9.8,3-.2,6.3-.5,10-.9,2.3-.3,4.6-.6,7-1,6.6-1.1,12.4-5,15.8-10.7,8.5-14.2,26.1-45.7,34.1-54.9,0,0,21.6-1.4,38.3-6,0-.1.1-.2.1-.2,0,0,9.4-2.7,16.1-7,.8-.5,1.8.5,1.3,1.3h0c-3,4.6-9.9,12.7-24.6,17.6-4.7,8.1-10.9,20.2-16.6,35.4,30.1-8.6,53.3-27.4,67.4-41.6h-.1Z"/>
    <path class="st5" d="M201.3,134.2c0,1.6-.3,3.1-.8,4.6.7,0,1.4-.2,2.2-.2,8.6,0,15.6,7,15.6,15.6s0,0,0,.1c2.7-1.4,5.7-2.2,8.9-2.2s6.5.9,9.3,2.5c0-2.5.2-5.1.7-7.5.3-1.6.8-3.2,1.4-4.6.9-2.1,2.3-3.9,4.1-5.2-1.7,1.2-3,2.7-4,4.6-8.6-2.3-21.4-8.6-31.3-25.7-.1.1-.3.2-.4.3-1.9,1.3-4.3,2.9-7.2,4.3-1.4.7-2.8,1.4-4.4,2,3.6,2.6,5.9,6.8,5.9,11.5Z"/>
    <path class="st5" d="M214.6,100.9c2.4,1.2,5.5,2.1,9.6,2.2v5.7c0,4.8,1.9,9.4,5.3,12.8,4.3,4.2,10.9,9.8,19.3,13.6,1,.5,2,.9,3.1,1.3,2.5.9,5.1,1.4,7.7,1.4h6.4c3.5,0,6.7-1.9,8.4-5.1,2.4-4.6,5.9-12.3,8.3-22.3,1.1-4.4,1.6-9,1.6-13.5v-28.2c0-8.1-2.1-16.2-6.3-23.2-5.3-8.6-14.7-17.2-31.6-17.2,0,0-19.5-1.4-32.4,10.8-5.4,5.1-8.7,11.8-9.6,19,.2-1.8.6-3.6,1.1-5.3.4,7.3,4.4,13.5,12.9,15.7h-.1c10.3,2.6,10.9,9.3,10,13.7-.2,1.1-1.7,1.3-2.2.2-.8-1.7-2.3-3.2-4.3-4.3-6.2-3.3-11.5,2.3-11.5,2.3,0,0,0,0,0,0h0c0,0-1.4,1.9-2,3.3-2.7,6.3,0,13.8,6.1,17,.1,0,.2.1.3.2ZM280.6,85.7c.6,1.5-.2,3.3-1.7,3.9-1.8.7-3.1,1.5-3.1,1.5-.5.3-1,.4-1.6.4-1,0-2-.5-2.6-1.4-.9-1.4-.4-3.2,1-4.1,0,0,1.8-1.1,4.1-2,1.5-.6,3.3.2,3.9,1.7ZM272.9,64.8c0,2.1-1.7,3.8-3.8,3.8s-3.8-1.7-3.8-3.8,1.7-3.8,3.8-3.8,3.8,1.7,3.8,3.8ZM266.4,48.5c2.1,0,3.8,1.7,3.8,3.8s-1.7,3.8-3.8,3.8-3.8-1.7-3.8-3.8,1.7-3.8,3.8-3.8ZM250.9,85.9c.5-1.6,2.2-2.5,3.8-2,1.2.4,2.9,1,4.6,1.8,1.5.7,2.1,2.5,1.4,4-.5,1.1-1.6,1.7-2.7,1.7h0c-.4.1-.9.1-1.3-.2-1.4-.7-2.8-1.2-3.8-1.5-1.6-.5-2.5-2.2-2-3.8Z"/>
  </g>
  <g id="sombra_acessorios">
    <path class="st0" d="M172.9,134.2c0,7.8,6.4,14.2,14.2,14.2s.8,0,1.1,0c-.7,1.8-1.1,3.8-1.1,5.9,0,3.7,1.3,7.2,3.5,9.9,2.9,3.5,7.2,5.7,12.1,5.7s4-.4,5.8-1.1c0,.7-.1,1.5-.1,2.2,0,10.4,8.4,18.8,18.8,18.8s10-2.2,13.4-5.6c.3-.3.6-.6.9-1,2.1-2.5,3.6-5.6,4.2-9,5.7-1.9,9.8-7.2,9.8-13.5s-6.4-14.2-14.2-14.2-2.8.2-4.1.6c-.5,2.5-.7,5.1-.7,7.5-2.7-1.6-5.9-2.5-9.3-2.5s-6.3.8-8.9,2.2c0,0,0,0,0-.1,0-8.6-7-15.6-15.6-15.6s-1.5,0-2.2.2c.5-1.4.8-3,.8-4.6,0-4.7-2.3-8.9-5.9-11.5,1.6-.6,3.1-1.3,4.4-2,.3-1.1.5-2.2.5-3.4,0-7.3-5.9-13.2-13.2-13.2s-13.2,5.9-13.2,13.2.9,5.5,2.4,7.6c-.3.3-.5.6-.7.9-.3.5-.7.9-.9,1.4-1.1,2-1.8,4.4-1.8,6.9ZM224.4,160.2c3.3,0,6,2.7,6,6s-2.7,6-6,6-6-2.7-6-6,2.7-6,6-6ZM199.2,143.7c2.7,0,4.8,2.1,4.8,4.8s-2.1,4.8-4.8,4.8-4.8-2.1-4.8-4.8,2.1-4.8,4.8-4.8ZM189.6,127.3c0,2.3-1.8,4.1-4.1,4.1s-4.1-1.8-4.1-4.1,1.8-4.1,4.1-4.1,4.1,1.8,4.1,4.1ZM185.9,107.8c1.6,0,2.9,1.3,2.9,2.9s-1.3,2.9-2.9,2.9-2.9-1.3-2.9-2.9,1.3-2.9,2.9-2.9Z"/>
    <circle class="st0" cx="266.4" cy="52.3" r="3.8"/>
    <circle class="st0" cx="269.1" cy="64.8" r="3.8"/>
  </g>
  <g id="sombra_pele">
    <path class="st6" d="M315.3,204.6c-.4-2.7-2.7-4.8-5.5-5l-13.2-1.2-.5,5.7h9.8c4.2,0,4.7,5.6,1.3,7.9-.5.4-1.2.8-1.8,1.3-.9.6-.7,2.1.4,2.4,2.1.6,4.5,2.1,4.8,5.3,0,.9,1.2,1.1,1.6.3,1-2,1.4-4.8-1.1-7.6,0,0,5-3.1,4.2-9.1Z"/>
    <path class="st6" d="M305.4,196.2h0c1.6,0,2.9-1.3,3-2.9l.7-17.2h-6s-.7,17-.7,17c0,1.7,1.2,3.1,2.9,3.1Z"/>
    <path class="st6" d="M240.6,184.1c-1.2,4.3-2.7,8.3-4.4,12.1,0,0,0,0-.1,0h0c-10.1,23.2-26.1,37.8-26.1,37.8,0,0,0,0,0,0,0,0,0,0,0,0,0,0,.3,8.5-.2,14.1,3.9,4.6,9.5,9.6,15.6,14.3-4.3-26.7,11.9-44.6,13.6-46.4,0,0,.1-.1.1-.1,4.8-14.6,3.6-26.7,2.3-32.9-.3.3-.6.7-.9,1Z"/>
    <path class="st6" d="M225.6,262.6s0,0-.1,0c0,0,0,0,0,0h.1Z"/>
    <path class="st6" d="M187.1,154.2c0-2.1.4-4,1.1-5.9-.4,0-.8,0-1.1,0-7.8,0-14.2-6.4-14.2-14.2s.7-4.9,1.8-6.9c-.1,0-5.7,4-6.4,11.5-.6,7.1,4,13.7,10.9,15.4h0c0,0,0,0,.2,0,0,0-4.1,9.6,2.7,19.2,3.4-3.4,6.3-6.6,8.6-9.2-2.2-2.7-3.5-6.1-3.5-9.9Z"/>
    <path class="st6" d="M155.7,161.9h0c.5-.7-.5-1.7-1.3-1.2-6.7,4.3-16.1,7-16.1,7,0,0,0,0-.1.2-.6.9-3.5,5-7.5,11.8.1,0,.2,0,.4-.1,14.7-4.9,21.7-13,24.6-17.7Z"/>
    <path class="st6" d="M238.7,141.8c.9-1.8,2.3-3.4,4-4.6,1-.7,2.1-1.2,3.2-1.5.9-.2,1.9-.4,2.9-.5-8.4-3.8-15-9.4-19.3-13.6-3.4-3.4-5.3-8-5.3-12.8v-5.7c-4.1,0-7.2-1-9.6-2.2-.1,0-.2-.1-.3-.2-.3,4.3-1.6,11.2-6.9,15.3,0,0,0,0,0,0,9.9,17.2,22.7,23.4,31.3,25.7Z"/>
    <path class="st6" d="M221.8,78.2c2,1.1,3.5,2.6,4.3,4.3.5,1.1,2,.9,2.2-.2.9-4.4.3-11.1-10-13.7h.1c-8.5-2.2-12.5-8.4-12.9-15.7-.5,1.7-.9,3.5-1.1,5.3-.5,3.6-.3,7.2.5,10.9.9,3.7,2.5,7.7,5.4,11.3,0,0,0,0,0,0,0,0,5.3-5.6,11.5-2.3Z"/>
  </g>
  <g id="brilho_acessorios">
    <path class="st4" d="M60.4,87.5c.4.3.9.5,1.4.6.9.1,1.8-.2,2.4-.9.9-1.1.8-2.8-.4-3.8l-1.9-1.5c-1.2-.9-2.9-.8-3.8.3-1,1.1-.8,2.8.4,3.8l1.9,1.5Z"/>
    <circle class="st4" cx="224.4" cy="166.2" r="6"/>
    <circle class="st4" cx="199.2" cy="148.5" r="4.8"/>
    <path class="st4" d="M185.5,123.2c-2.3,0-4.1,1.8-4.1,4.1s1.8,4.1,4.1,4.1,4.1-1.8,4.1-4.1-1.8-4.1-4.1-4.1Z"/>
    <path class="st4" d="M185.9,113.6c1.6,0,2.9-1.3,2.9-2.9s-1.3-2.9-2.9-2.9-2.9,1.3-2.9,2.9,1.3,2.9,2.9,2.9Z"/>
    <path class="st4" d="M252.9,89.7c1,.3,2.4.8,3.8,1.5.4.3.9.3,1.3.3h0c1.1-.1,2.2-.7,2.7-1.8.7-1.5.1-3.3-1.4-4-1.7-.8-3.4-1.4-4.6-1.8-1.6-.5-3.3.4-3.8,2-.5,1.6.4,3.3,2,3.8Z"/>
    <path class="st4" d="M271.6,90.1c.6.9,1.6,1.4,2.6,1.4s1.1,0,1.6-.4c0,0,1.3-.8,3.1-1.5,1.5-.6,2.3-2.4,1.7-3.9-.6-1.5-2.4-2.3-3.9-1.7-2.3.9-4.1,2-4.1,2-1.4.9-1.9,2.7-1,4.1Z"/>
  </g>
</svg>