<?xml version="1.0" encoding="UTF-8"?>
<svg id="Layer_1" data-name="Layer 1" xmlns="http://www.w3.org/2000/svg" viewBox="0 0 64 64">
  <path d="M49.96,15.53c.61-2.44.8-4.51.62-6.5-.01-.15-.05-.3-.1-.5,0-.04-.02-.08-.03-.12-.05.03-.09.06-.14.09-.19.13-.35.22-.49.33-.28.21-.55.43-.82.64-.48.38-.97.78-1.48,1.13-1.8,1.25-3.63,2.52-5.4,3.74-1.52,1.05-3.03,2.09-4.54,3.14-.27.18-.51.43-.69.69-.6.87-1.21,1.76-1.8,2.62-.69,1.02-1.41,2.07-2.13,3.09-.25.35-.33.68-.26,1.09.05.36.1.72.14,1.08.04.33.08.67.13,1,.13.89.05,1.58-.26,2.21-.13.27-.24.56-.34.84-.12.32-.24.64-.4.95-.27.52-.27.99,0,1.62.7,1.61,1.37,3.26,2.03,4.86.16.39.32.78.48,1.17.05.13.07.27.09.41,0,.06.02.13.03.2l.03.18h-.18c-.55.04-.72-.3-.83-.53-.01-.03-.03-.06-.04-.09-.46-.85-.92-1.7-1.37-2.56-.66-1.24-1.34-2.51-2.03-3.76-.23-.42-.24-.8-.04-1.28.14-.34.27-.68.39-1.02.15-.41.31-.83.49-1.23.22-.51.29-1.04.21-1.72-.1-.85-.16-1.72-.18-2.59,0-.32.1-.69.28-.98.38-.6.78-1.2,1.18-1.78.17-.26.35-.51.52-.77l.3-.45c.56-.84,1.14-1.71,1.7-2.57.06-.1.11-.26.11-.32-.08-.07-.25-.12-.39-.12,0,0-.01,0-.02,0-.39.02-.78.05-1.16.07-.52.04-1.05.08-1.58.09-3.16.04-6.04.39-8.81,1.08h0c-.21.05-.41.09-.6.14-.41.09-.8.18-1.19.29-.43.12-.53.27-.46.72.02.12.05.25.09.37.23.81.46,1.61.68,2.42.53,1.88,1.07,3.82,1.65,5.71.17.56.36,1.13.54,1.68.6,1.82,1.22,3.69,1.33,5.68.02.28.16.45.47.55.24.08.47.19.72.3.11.05.23.1.36.16l.21.09-.15.16c-.06.06-.1.11-.14.16-.08.09-.14.16-.22.22-.76.6-1.13,1.15-1.26,1.86-.04.26-.21.49-.36.69l-.05.07c-.63.88-1.26,1.76-1.9,2.64-.87,1.22-1.78,2.47-2.66,3.72-.27.38-.6.59-1.09.68-.57.11-1.15.23-1.71.35-.5.11-1.01.21-1.52.31-.82.16-1.4.57-1.73,1.22-.3.59-.54,1.26-.73,2-.21.85-.09.97.69,1.27,2.07.8,4.27,1.28,6.7,1.49,2.8.24,5.61-.11,8.35-1.05.28-.1.54-.33.71-.51.51-.54,1.02-1.1,1.52-1.64.45-.49.92-1,1.38-1.49.51-.54,1.14-.96,1.91-1.28,1.24-.51,2.47-1.06,3.66-1.65.61-.3,1.24-.68,2.05-1.24.59-.4.76-.92.52-1.57-.3-.82-.55-1.63-.8-2.46-.26-.86-.64-1.71-1.22-2.77-.3-.55-.51-1.13-.72-1.75-.09-.27-.19-.55-.3-.82l-.06-.16.17-.04c.21-.05.41-.11.6-.16.42-.11.81-.22,1.2-.31.52-.13.84-.51,1.18-.91.05-.06.1-.12.15-.18.08-.1.17-.19.26-.28.28-.28.55-.55.64-.99h-2.22l-.07-.42.11-.05c.07-.03.14-.06.22-.1.16-.07.33-.15.5-.21.33-.11.66-.22.98-.33.53-.17,1.08-.36,1.61-.55.24-.09.58-.23.72-.44.66-.97,1.28-2.01,1.83-2.92.05-.08.06-.19.08-.34,0-.02,0-.05,0-.07l-4.23,1.12-.18-.43.12-.07c.05-.03.11-.07.16-.1.12-.07.24-.15.36-.21.45-.24.9-.49,1.34-.73,1.04-.57,2.12-1.16,3.18-1.75.24-.13.53-.32.65-.54.84-1.52,1.41-3.16,1.71-4.87.02-.11,0-.24-.03-.4,0-.03,0-.05-.01-.08-.52.3-1.03.6-1.52.89-1.5.89-2.91,1.73-4.49,2.35l-.33.13.12-.33c.07-.19.21-.29.32-.37.03-.02.07-.05.1-.08.86-.73,1.71-1.45,2.57-2.18,1.23-1.05,2.47-2.1,3.7-3.14.34-.29.52-.55.61-.89Z"/>
</svg>