<?xml version="1.0" encoding="UTF-8"?>
<svg id="Layer_1" data-name="Layer 1" xmlns="http://www.w3.org/2000/svg" viewBox="0 0 64 64">
  <path d="M27.48,32.92c.31.16.57.27.8.42.57.38.92.89.91,1.62-.01.99.04,1.98.02,2.97-.01.5.1.94.51,1.23,1.33.97,1.72,2.22,1.61,3.87-.16,2.5-.05,5.01-.05,7.52,0,1.99-1.96,3.7-3.92,3.41-.7-.1-1.4-.25-2.09-.4-1.18-.25-2.1-.87-2.66-1.96-.26-.51-.63-.8-1.22-.83-1.42-.06-2.41-.84-3.15-2-.12-.18-.23-.38-.39-.52-.87-.77-.54-1.68-.33-2.58.09-.37.4-.44.71-.5.88-.16,1.77-.32,2.65-.49,1.1-.21,1.95-1.14,2.14-2.25.06-.39-.04-.66-.46-.88-.44.33-.92.65-1.37,1.02-.57.47-1.2.72-1.95.72-1.14,0-2.29.04-3.43.12-.59.04-1.04-.16-1.39-.58-.89-1.06-1.44-2.31-1.91-3.59-.1-.27-.07-.62-.02-.92.22-1.25.48-2.49.7-3.73.04-.25.02-.54-.05-.79-.25-.86-.56-1.7-.8-2.57-.09-.34-.12-.75-.02-1.08.27-.98.55-1.98.96-2.9.24-.54.72-1,1.17-1.41.41-.38.56-.73.47-1.29-.34-2.13-.32-2.14.57-4.09.21-.45.46-.88.68-1.32.56-1.11,1.28-2.02,2.52-2.44.77-.26,1.46-.67,1.61-1.6.19-1.2.97-1.95,1.93-2.59.95-.63,1.85-1.35,2.8-1.99,1.34-.9,3.03-.62,4.07.62.64.76.96,1.58.91,2.62-.11,2.35-.1,4.71-.1,7.06,0,.48.12.98.28,1.44.11.29.36.56.62.75.44.33.93.61,1.41.9,1.14.68,1.52,1.71,1.43,2.98-.03.37-.06.74-.04,1.11.07,1.03-.49,1.65-1.29,2.18-.72.48-1.46.67-2.34.69-1.07.01-1.73-.61-2.39-1.23-.24-.23-.37-.66-.42-1.01-.21-1.34-1.1-2.13-2.14-2.87-.76-.54-1.51-.55-2.36-.48-1.07.08-1.65.8-2.14,1.57-.38.58-.42,1.28.16,1.92.2-.13.4-.21.54-.35.65-.64,1.46-.68,2.26-.53.67.12,1.1.64,1.38,1.26.11.25.19.53.24.8.26,1.4,1.17,2.27,2.39,2.98ZM45.42,17c1.02.49,1.7,1.2,2.12,2.19.41.97.89,1.91,1.34,2.86.28.58.34,1.17.24,1.81-.12.73-.36,1.53-.16,2.19.18.62.84,1.11,1.32,1.63.35.38.57.79.64,1.3.26,1.77.56,3.54.82,5.32.04.29,0,.62-.08.91-.16.63-.36,1.25-.53,1.88-.3,1.13-.76,2.16-1.71,2.9-.42.33-.52.76-.56,1.3-.07,1.14-.22,2.28-.39,3.41-.04.29-.2.6-.39.82-.8.9-1.57,1.84-2.48,2.62-.46.39-1.17.56-1.79.68-.77.14-1.19.5-1.35,1.27-.29,1.44-1.16,2.42-2.51,2.98-.26.11-.51.24-.74.39-1.12.71-2.33.47-3.52.33-.25-.03-.48-.25-.71-.4-.08-.05-.12-.14-.19-.2-1.5-1.59-1.48-1.59-1.39-3.76.07-1.7.09-3.4.12-5.11.02-1.15.6-1.91,1.72-2.19.63-.16,1.26-.31,1.9-.42.51-.09.93-.32,1.27-.71.08-.09.16-.19.26-.27,1.03-.87,1.68-1.96,1.88-3.31.08-.55.37-.94.79-1.3.87-.76,1.75-.61,2.49.06.23.2.44.42.68.64.55-.34.66-.85.66-1.37,0-1.01-.88-2.01-1.87-2.22q-1.85-.4-3.31.85c-1.54,1.32-1.57,1.31-1.95,3.29-.11.55-.41.82-.77,1.18-.89.88-1.95.98-3.1.87-.09,0-.19,0-.28-.02-.68-.14-2.05-1.71-2.07-2.42-.02-.77,0-1.55-.01-2.32,0-.83.43-1.4,1.08-1.82.57-.37,1.16-.71,1.76-1.04.45-.25.77-.58.96-1.08.31-.81.67-1.6,1.01-2.4.3-.71.34-1.44.08-2.17-.3-.84-.61-1.69-.97-2.51-.13-.29-.38-.56-.64-.75-.67-.5-1.36-.97-2.07-1.41-.56-.35-.77-.82-.78-1.47-.01-2.23-.06-4.46-.11-6.68-.04-1.97,1.97-3.71,3.86-3.21,1.34.36,2.64.87,3.93,1.4,1.05.44,1.53,1.49,2.18,2.34.09.12.17.27.21.41.34,1.24,1.21,1.96,2.37,2.38.23.08.44.22.72.37Z"/>
</svg>