<?xml version="1.0" encoding="UTF-8"?>
<svg id="mapa-auren" xmlns="http://www.w3.org/2000/svg" version="1.1" viewBox="0 0 1591.7 916.3">
  <!-- Generator: Adobe Illustrator 30.4.0, SVG Export Plug-In . SVG Version: 2.1.4 Build 226)  -->
  <defs>
    <style>
      .st0 {
        fill: #c6b482;
      }

      .st1 {
        fill: #7a6869;
      }

      .st2 {
        fill: #2d2e2b;
      }

      .st3 {
        fill: #5c5b48;
      }

      .st4 {
        fill: #a87b85;
      }

      .st5 {
        fill: #867d5d;
      }

      .st6 {
        fill: #92887f;
      }

      .st7 {
        fill: #a4ad91;
      }

      .st8 {
        fill: #779780;
      }

      .st9 {
        fill: #b16767;
      }

      .st10 {
        fill: #f0d9a8;
      }

      .st11 {
        fill: #d0dee3;
      }

      .st12 {
        fill: #6482b8;
      }

      .st13 {
        fill: #9eb67d;
      }

      .st14 {
        fill: #64825e;
      }
    </style>
  </defs>
  <g id="regioes-auren">
    <g>
      <path id="mar-de-cinzas" class="st1" d="M856.5,616.7c.5,0,1.2.7,1.4,1.1.2.9.6,1.8,1.3,2.1,1,.4,2.5.3,3.2,0l.7.2c0,1.6,1.4,2.8,3.5,3l17.6,2.2c6.9.9,25.4-12.8,34.1-2.7,7.3,8.6,11.8,19.7,29,14.2,5.5-1.8,11.1,1.3,12.5,7.4,3.8,16.3,14.5,29.2,30,36.5,15.1-1.8,25.6-14.8,39.9-16,5.9-.5,11.3,3.6,16.4,5.7l29.6,11.9c9.2,3.7,25.8-.7,41.5,8.7l11.9,9.6c.3,7.3-14.6,10-15.3,21.2-.3,5.3-4.4,8-7.8,11.7,2.2,4.2,5.6,12.8-.4,15.5-3.7,1.7-6.7,4.3-9.8,6.3-4.4,2.8-5.1,3.9-6.6,9.4-4.8,4.7-14.3-1.2-18.5,2.7-3.6,3.2-1.1,9.7-4.2,11-4.2,1.8-7.8-3.9-10.9-3.6-4.8.5-10,8.1-7.9,15.8-20.7,3.2-16.9,20.7-27.3,19.2-7.7,0-13,4-14.7,11.3-9.5,13.8-35.1,16.9-38.3,12.8-3.7-4.8,2.8-13,12.1-16.3l4.2-9.5c5.2-11.9-18.7-27.5-29.7-22-2.7,1.3-2.4,6.6-3.5,8.7l-2.2,4.2c-2.3-.6-3,2.6-3.5,4.3-4.5.7-8.5,3.9-12,6.5-5.4,4-11.4,6.6-14.2,13.6l-17.1,3.3c-4.8.9-12.9,4.1-16-1.2s-6.7-5.8-11.2-9.5l-12.3-10c-3.6-2.9-2.4-10.1-3.3-14l-9.8-6c-4.8,2.2-9.5,2-13.8-1.3l-11.4,1.8c-2.5-3.8-2.2-8.4-2.4-12.7,0-3.4-5-4.4-6-6.3-3.8-7.3-9-12.3-17.3-12.3s-3.9,4.3-5.8,5.4c-7.4,4.5-17.1.4-22.1-5.6s-10.9-7.1-19-6.5c-4,.3-10.2-.9-12,4.3-.5,1.4.6,4.4,0,5.7-2.4,4.3-10.1-2.7-20.4,2l-9.2-3.9c-4.5-12.9,1.6-26.6-7-39.1-1.8-2.6-5.1-4-7.7-3.6s-4.6,2.7-6,4.8h-1.3c.2-1.2-.3-2.7-2-3.2-9-2.4-2-12.6-9.8-15.6-1.4-.5-1.3-2-.8-2.8,3-4.5,6.9-9.8,6-16.2-.5-4.3-.2-9,4.1-11.3,5-2.7,7.5-8.8,12-11.7,15.5-10.2,39.3.3,58.7-19.3,4.2-4.3,9.5-9.4,15.5-10.6l33.4-6.8c8.2-6.2,14-13.5,20-21.9,10.1-3.6,21.1,1.5,26,11.2,1.9,2.6,3.5,5.8,6.2,6.4h0l-.2-.2Z"/>
      <g id="deserto-de-sal">
        <path class="st10" d="M1101.1,459.9c8.1,6.9,8,18,18.7,16.8.8,6.8-2.2,11.4-7.7,15.4-2.6,1.9-1.4,9.1,1.1,10.9,9.5,6.8,3.7,16.9,8.5,25.4l3.3,5.8c1.8,7.6,8.7,11.6,16.4,10.6,4.2-.9,8,0,10.5,3.6,5.3-1.6,8.9.5,11.2,5.3,3.6,2.4,11.1,4.9,11.5,9.5l1.4,14.2c.5,4.7,1,12.5-3.6,15.3-3.2,2-9.5.6-11.5,4.6-5.2,10.2-13.4,9.3-13.8,17.3-.5,8.5-13.2,23.4-.5,50,1.8,3.9,5.3,8.8,2,13.5-2.1,3-7,5.3-10.2,7.2-8.8,5.2-2.8,14.5-9.3,14.8-17.8-23.3-38.3-13.6-58.1-21.8l-30.1-12.5c-6.4-2.7-12.7-5.1-19.1-1.6l-18.8,10.3c-3.7,2-10,5.3-14.4,3.4-14.3-6-23.2-18.9-27-33.3-2-7.7-7.9-11.1-15.5-9.6-21.9,4.3-22.1-11.3-29.6-15.7-5.7-3.4-12.9-2.9-18.7.2-7.4,3.9-14.6,3.8-22.8,2.5l-12.2-1.9-.7-.2-4.4-2.2c0-.4-.9-1-1.4-1.1l-8.1-11.9c-4.4-6.3-11.6-8.7-19.4-8.2l.2-13.5c0-6.4,6.1-8.8,9.5-13.1,3-3.9,4.8-11.3,3.8-15.9l-3.1-14.3c1.9-2.8,5-4.5,7.4-5.9,11.3-6.6,2.3-20.6,7.5-21.2l12.2-1.5c3.4-2.5,3.3-8,3.6-11.3.6-6.9,2.3-13.7,7.4-15,2.1-.6,4.3.4,6,1.5,8.2,5.1,16,2.6,21.3-4.9,5.3-7.6,20,0,25.4-5.8,9.3-9.8,17.5-.7,23.1-6.3,6.6-6.6,1.8-23.9,20.5-28.1,3.1-.7,5.8-2.3,8.5-4.7,8.6,8,19.1,5.6,29.5,12.9,8.2,5.8,16.4,5.4,25.7,3,10.7-2.7,26.7,15,35,10,12.6-7.5,15.5-1.8,28.4-2.7h0l.4.2Z"/>
      </g>
      <g id="ilhas-cinzentas">
        <path class="st5" d="M409.5,776.1c-.3,0-.8,0-.9.5-.7-.9-3.4-1.7-3.6-3.2-.5-2.9-.8-7.1,0-10,9.3-7,10.1,5.4,23.9,9.6-1.9,13,11.1,9.4,8.6,17.5-16.6,1.4-17.2-15.7-28.1-14.5h.1Z"/>
        <path class="st5" d="M449.9,796.3v11c-5.7-2.6-7.9-7-5.6-10,.8-1,2.2-1.9,5.6-1h0Z"/>
        <path class="st5" d="M303.4,728.4c-2.1-4.6-4.8-6.3-9.9-8.2,4.5-4.5,3.8-8.5,1.5-12.3-2.6-4.5,1.7-8.9,2.3-12.7,1.1-6.8,1.8-11.4,6.8-16.5l2.4-7.1c5.7.5,8.9,4.4,9.2,8.4.5,5.6-2.7,7.5-6.9,9.7-3.2,13.4,4.9,16.5,5.4,19.5.3,2-.4,4-1.8,5.8-3.6,4.5,1.9,9.8-1.9,13.9-1.4,1.5-6.1,1.6-7.1-.4h0Z"/>
        <path class="st5" d="M323.4,757.2c-7.7-.5-14.3-6.3-10.5-9.2,2-1.5,6.9-1.3,8.3,1s1.6,5.4,2.2,8.2h0Z"/>
        <path class="st5" d="M345.8,777.8c1.1,2.9,3.1,4.8,1.5,6.7-2.4,3-12.3-.4-13.9-3.8-2.4-5.2-6.9-9.6-6.6-16.4,5.4,1.9,9.9,3.6,15.4,4.1l3.5,9.5h.1Z"/>
        <path class="st5" d="M586,869.6c-12.3,6-18.1-4.4-29.9,1.2-2.3,1.1-6.8-3.3-6.1-5.7,9.8-5.9,10.7-11.9,18.4-6.9l8.6-2.2,9.1,13.5h0Z"/>
        <path class="st5" d="M388.6,749.1c1.6.6,2.8,10.3-2,10.8-2.1.2-3.6-1.1-5.6-3l-4.4-1.2c-.9-.2-2.5-9.7,1.6-11.8,2.2-1.1,3.3,1,5.3,3.3l5,1.9h.1Z"/>
        <path class="st5" d="M532.8,869.8c-6.2,2.7-13.9,3.5-17,10.9l-1,11c-2.3,2.4-6.2,2.9-8.8,3-2.8,0-4.2-3.2-6.3-5.2-6-5.5-11.9-9.5-16.9-16.1-2.5-3.4-9.8-2.4-12,1-1.4,2.1-2.4,3.1-4,3.6-1.9.6-4.6-1-5.4-2.5-2.8-5.2-8.7-2.3-11.5-3.8-3.8-2-5.6-6.3-11.4-3.5-4-4.1-9.7-4.2-13.7,0-12-3.2-17.8-15.5-13.5-26.7,3.1-9-10.5-16.7-13.9-16.2-1.9.3-3.7,1.1-5.3.5-5-1.9-.5-16.1-15.8-22.5-2.4-1-3.6-3.2-3.7-5.3-.1-2.7,2.3-4.2,4.7-5.7,2-1.3,4.4-6.8,7.6-5.8l9,4.3c5.5,2.6,9.8,10,17.1,10.1,3.4,0,7.5-1.2,10.7,1,2.2,1.6,5,5,4.5,9.1-.6,4.6,1.8,5.5,4,8.6,2.1,2.8,2.2,7,6.6,6.6,7.4-.7,5.8-7.6,7.7-8.5,3.2-1.5,5.3,6.4,9.1,8.4,3.5,1.8,9.5,2,13.2.5l2.4-4.6c1.3-2.5,12.1.8,14.8-1.9s2.2-4.4,4-5.4c2.1-1.2,4.4-.4,6.7.2,5.3,1.3,4.9,8,7.1,10.4,4.5,4.8,7.1,6.5,7.6,13.5.4,4.8,7.5,9.3,11.5,11.3,6.1,3,17.3,17.1,11.7,19.6h.2Z"/>
        <path class="st5" d="M649.3,909.5c.2-3.4,1-6,1.9-8.3,1.8-4.9-1-6.4-4-8.6-4.6-3.3-7.8-6.1-14.2-5.3-1.6.2-4-1.6-5-2.5s-2-3.7-.6-5.1c6.3-6.2,3.9-9.8,5.9-12.5.8-1.2,3.5-.5,4.7-.9,17.1-5.1,22.1,7.3,32.8,4.6,2.2-.5,3.3-4.2,5.9-6.1,4-2.9,20.2,12,33-2.1,2.3-2.5,5.1-4.8,8.7-5.2,10.8-1.3,9.2-12.1,15.7-11.2,1.9.2,2.8,2.6,3.5,5,0,5.9,2.7,10.4,8.4,13,0,6,2.2,11,6.9,14.1,7.1,3.8,9,16.4,6.2,20.6-1.3,2-5,.9-6.8,1.6-18.2,7.3-31.4-7.1-37.3-2.6-5.2,3.9-8.4,3.8-13.9,6.2l-15.4,6.6c-2.2.9-4.8,6.8-8.3,2.6-9.2-10.7-16.4,3.1-28.4-3.8h.3Z"/>
        <path class="st5" d="M633.2,852.4l4.3.2c.8,0,1.4,2.8.4,3.5-11,7.2-24.3,8.7-25.4,2.1-.5-2.8-.2-6.7,2.5-7.9,3.3-1.4,6.4,0,9,2.7,2.1,2,6.7-.7,9.1-.6h.1Z"/>
        <path class="st5" d="M660.1,856.9l-8.9-.9c-2.2-.2-2.8-1.4-3.1-2.7-.6-3.3,1.6-2.8,3.2-3.6,9-4.6,24.7-3.4,22.9,5.8-1.8,3.3-10.3,1.8-14.1,1.4h0Z"/>
        <path class="st5" d="M830.2,892.3c-4.8,1.2-6.7,5.8-9.4,8.5s-8.4,1.2-10.7-1.7c-2.8-3.5-6.4-4.1-10.5-1.6-3,1.8-11.4,2.5-11.6-2.4s1.3-8.7,0-13.9c-1-3.8,2.8-9.1,4.6-12.6l12,5.5c8.5,3.9,16.9-.5,24.3-5.4,3.3-2.2,8.4.5,10.9,3.1l9.4,2.9c4.2,4.1,8.2,2,12.9,2.5,4,.5,7.2,4.8,13.7,3.1,2.1-.5,3,5.7,2.1,7.7-3.3,7-10.6,2.5-19,7-9.5,5.1-16.8-5.8-28.8-2.7h0Z"/>
        <path class="st5" d="M934.8,873.8c-2.3,7-19.4.3-27.3,7.1-1.9,1.7-4.4,2-6.4,2.3-1.9.3-6.9-1.4-5.9-4.5,2.3-7.2,11.3-10.8,17.6-13.5l6.9-8.8c19.6.9,24.7-13.9,30.1-11.9,7.7,2.8.3,18-4.5,19.6-6.2,2.2-8.6,3.1-10.7,9.6h.2Z"/>
      </g>
      <g id="cordilheira-de-ferro">
        <path class="st6" d="M800.2,183.7c.2-2.2,2.3-2.7,3.4-3.9l9.3-3.5c6.1-2.5,12.4,1.7,18.6,1.9,5.5.2,10,1.4,12.3,6.9,4.3,10.3,14,15.9,25.4,14.8,9.7-.9,27.6,12.4,41-4.1,4-4.9,9.9-5.7,14.9-1.7,7.6,6.1,10,14.3,15.9,15.9,1.2,1.4,2,2.1,3.3,3.9l12.9,18c4.2,12.3,13.2,15.9,22.9,21.6,7.2,4.2,11.5,14.4,20.7,16.9-.3,6.2,2.8,11,4.7,16.3,2.5,7,3,14.5,7.1,21l-3.5,7.7c-12.2,9.5-19.5-1-25.2,7.5-5.3,7.9,8.6,15.5,10.2,22.6,1,4.8-3.5,8.4-4.6,12.7-2.3,8.8-11.2,16.6-20.5,12.5-8.5-3.8-16.9-6.9-26.6-7.1-26.7-.6-26.3-21.1-40.5-29.6-12.2-7.2-31.1,0-36.8-7.3l-13.7-17.7c-4.8-3.8-7.8-7.6-11.7-12.3-7.8-9.3-27.8,7.4-45.9-5.4-3.9-2.7-8.1-1.1-11.8-2-14.4-3.7-23-23.6-44.8-8-11.2,8-23.7-12.1-33.1-6.5-3.5,2.1-5.5,7.4-10.9,7-10.1-.8-20.7-2-30.4-5.1-5-1.6-9.3-2.6-14.3.2-14.4,8-28.8,3.6-40.6,26-6.8,4.2-19.4-5.4-23.3-2.8l-9.2,6.2c-4.2-6.9-9.2-11.7-14.1-17.3-1.2-1.4-1.8-2.9-3.7-2.5v-1.1c0,0,.5-16.1.5-16.1l7-13c2.3-4.3,3.4-8.5,6.7-12.2,4.6-5.1,5.9-12,3.5-17.9l7.1-3c11.8-2.7,22.3-7.3,31.9-14.6,5.9-4.4,12.1-4.9,19-3.7,7.3,1.3,14.2-6.9,26.1-2.5,23.8,8.7,27.8-13.7,45.3-12.8,20.9,1,20.7-22.7,41.4-23.4l10.2,1.7c5.9,8.2,14.1,12.2,22.7,16.5,5.8,2.8,10.6,5.4,17.3,2.7,1.6-.7,3.5-1.6,3.7-3.5h.2Z"/>
      </g>
      <g id="estepes-do-norte">
        <path class="st11" d="M991,38.4l-10.2-.3-2.6-.7c-1.2-.3-2.6-3.5-.9-4.1,6.1-2.1,13-1.8,19.2-1,1.7.5,3.2,5.8,1.8,6.7-2.2,1.3-5.5-.5-7.2-.6h0Z"/>
        <path class="st11" d="M1008.2,48.5c-.3,1.5-5,.3-4.4-2.6.9-.6,4.4-.5,4.4,2.6Z"/>
        <path class="st11" d="M1174.8,187.4c-2.2,3.4-5.3,5.3-9.3,3.9-3.7-1.3-9.1-4.4-13.4-3.2l-11.2,6.3c-15.5,8.7-9.8,23.2-20.6,34.6l-3.3,7.6c-9.2-1.5-18,1.7-24.2,8.8-4.4,5.1-9.9,0-17.9-1.6-3-4.9-10.9-4.1-15.5-.5l-10.3,12.4c-4.3,5.2-18.1-1.7-28.1,9.4l-13.8,3.5-2.6,1.4c-7.3-2.2-14.1-7.1-18.5-13.8-3.1-4.7-6.9-6.6-12-8.2-8.3-2.6-12.4-10.8-15.8-18.2l-9.5-13c-1.3-1.8-3.2-2.6-4.5-3-1.3-1.8-2.1-2.5-3.3-3.9l-15.4-17.4c-4.4-5-11.8-3.7-16,1.5-6.4,7.9-16.6,10.4-26,6.4-15.7-6.7-28.5,3.1-37.4-14.1-3-7.1-9.4-11.4-17.2-10.2-8.9-4.3-19-3-25.4,3.6-1.1,1.2-3.2,1.7-3.4,3.9-5.5,3.5-11.8,3.3-17.8,0-9.7-3.6-18.5-8.3-24.8-16.4-12.3-5.5-25.7-1.1-33.1,9.9-10.4,17.1-26,6-36,16.7-7.8,8.3-18.5,10-29,7-3.6-1-7.6-3.3-12.2-1.6s-9,4.9-13.8,4.2c-6.8-1-13-.8-18.8,3.4-9.4,6.9-19.8,11.4-31.3,13.8l-9.4,4.5c-11.2-1.3-20.2-7.1-28.5-14-4.5-3.8-11.6-2-16.6-2.3-6.8-.3-.8-10.1-6.7-13.9-1.9-1.2-4.5-2.1-6.9-2.7l-9-2.3c-2.6-4.7-1.5-9.7,2.1-14.2,2.6-3.3,3.8-10.1-.2-12.5l-10.9-1.5c-11.2-5.8-4.1-18.3-17.5-23.7-4.9-2-9.1.7-13.6,2.2-4.6,1.5-10-.7-14.1,3.2-1.7,1.6-3.6,5.3-6,5.1l-15-1c-5.2.9-9.1,2.8-12.6,7.5-2.3,3.1-7.9,3-10.6,1.4-8.1-4.7-3.5-13.9-5.6-16.5-2.5-3-4.8-5.7-5.4-9.8-.8-5.6-7.3-5.6-8.7-9.8-.8-2.6.9-4.6,1.6-6.6,5-14.3,17.2-3.1,29.4-11.1,8.1-5.3,2.7-18,10.2-18s9.7,10.6,23.6,6.5c3.5-1,7.2-2.2,7.5-6.4.4-4.7-5.2-7.3-7.4-9.7.7-4.5,7-5.9,10.6-5.7l11.9.7c8.2-15.5,14,5.9,27.9,1.5,6.4-2,7.9-9,12.2-13,7.6-7,20.3-6.7,29-2.2,7.1,3.7,12.4,3.3,19.8,2.5,8.8-1,18.2-1.3,26.1-6,1.5-.9,5.1,0,6.1-2.3,1.8-4,5.3-7.3,7.8-10.8,4.7-6.6,10.4-9.7,19-9.2,2.7.1,7.3-2.7,10.3-.2l8.7,7.4c9.7,8.3,22.5,6.1,25.4,1.8.9-1.4,3-5.9.7-6.4l-16.7-3.7c0-6.8,6.2-10.9,13-9.6,6.4-1.9,11.8-5.8,16.1-11.2,6.3.7,11.3-1.1,16.2-4.7l14.7.9c7.8-3.3,15.1-4.1,23.3-.4,5.3,3.9,11.7,4.7,18.6,3.1,4.2,4.4,9.2,6.2,15.2,5.3,6.3,1.9,13,4.5,17.7,8.5,5.3,4.5,3.3,9.3,1.6,14.3-.5,4.6,6.8,6.8,8.8,9.2s1.9,6,3.6,7.4c2.3,1.9,20,4.6,24.2,3.2,6.2-2.1,10.3-.2,15.7,2.8,8.4,4.6,19.9,7.4,29.4,5.8,5.7-.9,8.3-1.9,13.7,1.1,6.4,3.6,16,0,21-5.2,3.7-3.9,5.6-4,10.7-5.4,4.8-1.3,11.5-4,15.6-7.2,6.2-5,13.8-9.3,21.7-4.5,2.1,1.3,3.9,5,7.8,3.4,6.5-2.7,11.4,9.1,14.6,13.2,4.8,6.2,18.3-8.8,19.7-2.7.8,3.5,4.4,4.9,5.5,6.8,2.7,4.6,4.8,4.8,8.9,6.8,9.6,4.6,20.1,6.6,29.8.9,1.8-4.6,5.4-8.2,10.1-9.7,6.2-7.2,14.5-8.6,23.4-8.3,7.6.3,12.9,1.5,18.1,7.5,2.7,3.1,9.8,7.5,14,6.1,10.5-3.5,23.4-6.4,29.2-1.5,6.9,5.8,2.2,16.3,16.8,18.8,5.3.9,8.2,2.5,12.8,4.9,2.7,1.4,9.6,1.4,12.8.3,6.5-2.4,15.1-.9,17.1,6.6.8,3,.8,5.8,5.4,5.9l1.5,16c.2,2.5,3.3,4.7,1.5,7.5-1.1,1.6-3.6,1.7-6.2,2.7-6,2.3-6.1,12.9-1.2,16.4,2,1.5,3.2,2.2,3.6,3.9.5,2-.4,3.2-1.7,5-2.9,4,2.1,10.1-1,15.9-2.7,5-20.4,3.1-20.3,18.3h0Z"/>
      </g>
      <g id="ormara">
        <path class="st7" d="M1548.6,495.7c-4.3-4.8-12.6-4.5-17.9-8.6-5,6.4-13.4,9.6-19.6,6l-1.9-5.3c-.8-2.1-7.7-1.3-9.4-3.1-2.7-2.8,2.6-7.6-.8-14.1-1.5-3-5.3-2.3-8.7-2.9-2.6-5.6,12.1-11.5,6.7-21l-7.1-3.8c-1.4-4-4.5-6-6.4-9-2.8-4.1,3.3-9.2,4.1-12.8l3.2-14.2c15.2,2.2,17.2-10,24.5-7.9,6.5,1.8,10.4-2.3,11.8-7.7s0-8.2-.6-13.5c-.4-3.6,6.5-7.6,10.3-7.4,5.1,10.4,8.4,19.5,17.9,25.7,6.3,4.1,11.8,10.8,10.6,16.8-1.6,4.9,1,9.2,6.3,10.7.4,8.9,8.4,7.4,11.1,13.1.6,1.3-1.4,4.3-1.4,5.7.2,6.7-1.8,11.7-3.7,17.9-3.1,10.3,14.2,17.6,11.1,22.8-1.4,2.3-5.9,4.1-5.1,8,1.7,7.9-1.4,18.8-5.8,20.8-3.7,1.7-8.3,2.2-11.1-.7-1.5-1.6-1.4-5.2-2.5-7.5-7.3,1-10.9-2.9-15.6-8h0Z"/>
      </g>
      <g id="peninsula-da-aurora">
        <path class="st9" d="M1234.4,408.1c.7-2.4.9-5,.2-7.4h0l-1.4-4.2c-.2.6-.4,1.3-.4,1.9,0-.7,0-1.3.4-1.9-3.2-9.4-11.9-1.2-16.4-12.4-2.6-6.4-10.8-10.7-16.9-6.4l-7.2,8.9c-8,3.8-17.5-3.6-24.3-1.3-13.4,4.5-6.7-8.1-24.6-19.6-4.4-2.8-7.4-9.6-3.4-13.4,3.7-3.4,7.1-6.5,6.9-11.3-.3-8.1-9.3-12.5-9.7-15.2-.4-2.2.7-4.1,1.9-6l9.2-14.5c1.3-2,3.5-3.2,3.3-5.7-.2-1.9-1.8-3.7-3.8-5-4.6-3-8.4-6.5-11.1-11.5-5.7-.6-8-5.1-8.1-10.5l.7-10.5c-5.6-2.5-7.6-6.7-9.9-12-1.3-3.1-4.7-6.6-4.3-9.8h0c-4.1-3.9-17.4,1-20,4-3.9,4.5-7.2,6.8-13.2,4.4-3-1.2-6-2.2-7.7-4.9l-8.7-1.5c-8.9-1.6-11.1,19.3-28.9,18-6.7-.5-13.1,2.9-16.7,8.1l-10.4,1.1c-.9,0-1.5.5-2.2.5s-1-.5-.7-1.3l-2.6,1.4c-5,2.7,1.9,10.7,4.2,18.5l5.3,18.4c2.2,7.4-10.3,18-22.2,14.8-2.1-.6-5.3-.5-6.5,1.5-1,1.7-1.4,4.9.3,7.2l10.4,13.9c-1,10.7-6.5,19.9-13.8,27.5l5.6,10.6c4,7.6-11.3,12.1-6.3,30v18.4c.2,7.5,9.9,9.7,16.3,10.4,10.8,1.3,20.8,15.6,34.5,9.9,6.7-2.8,12.3-.7,18.5,2.4l14.3,7.1c3.5,1.7,6.7.8,9.4-1.1,6.6-4.6,22.5-3.1,26.7-1.3,7.8,3.5,7.3,18.8,20,16.5,4.3-8.4-5.1-16,.8-29.2,2.1-4.7,7.1-6.5,11.5-5.5,6,1.3,7.5-1.9,10.8-5l9-8.6c5.2-5,13.6-3.7,18.9-.5l13.4,8h0l8.2,1.9c0,5,2.4,6.2,6.2,8,4.8,2.3,8,9.2,8.9,14.2l3.2,17,11.1.2c2.9,13.6,22.1.2,29.6,14.2l1.9,11.9c.7,4.3.3,5.7-1.6,8.6-3.8,5.8-3,13.7-2.2,20.6,5.8-2.7,9.3-4.3,13.4-1.5,11.2,7.7,1.2,16.9,7.4,18.1,5.4,1,4.9,5.3,6.7,8.4,2.9,4.8,4.5,7.2,3.5,13.3.5,2.4,6.1,4.1,8.9,2.6,2.2-1.2,6.1-2.2,6.4-6.1.4-6,3.3-9.9,7.8-13.7l6-10.1,5.6-2.8c3.9-1.9-.7-11,2.5-21.4.5-1.8-2.1-6.3.4-7.6,6.3-3.1,11.5-13.2,9.6-20.5-.6-2.4,1-5.7,2.4-7,2.1-2,5,0,8,0s1.6-4.1.7-5.1h.4c-1.2-1.4-3.1-1.1-5.4-2.1-6.3-2.6-9.3-12.1-7.3-18.5l7-12.2v-13.6c0-2.5,2.8-4.4,2.3-6.3-.8-3.2-2.3-4.3-4.9-6.6-2.6-2.4-3.6-9.4-1.8-12.2,3.5-5.6,1.8-8.5-1-13.4l-7.7-13.5c-8.7-15.2,2.4-20.6.2-24.7-2.1-4-12.9-1-14.9-12.3l-1.6-8.8c-4.2,1-7.5-1.7-11.2-2.3-23.7-3.5-24-20.5-25.7-21.4-1.9-1.1-4.3-.5-6.8-1.4l-7.9-2.9c-5.6,18.7,15.2,22.2,13.4,32.5-.8,4.8-2.4,11.5-.9,16.3,1,2.9,4.8,4.3,2.2,8.8-4.8,8.5,8.4,13.5,11.1,22.4,1.6,5.2-3.8,9.1-5.5,12.6-2.6,5.4-5.2,7.3-10,10.8-1.9,1.4-2.7,6-4.7,6.8-6.7,2.7-19.5-1.5-25-7.1"/>
        <path class="st4" d="M1326.9,547c-2.3-.2-7.7,1.7-8.2,4.2l-2.4,14.1c-.5,2.9,8.3,2.8,8.8-1.4h0c1.1-8.1,7.9-9.6,5.9-14.3-.5-1.2-1.9-2.5-4.2-2.7h0Z"/>
        <path class="st4" d="M1329.6,539.1c.3,1.4,3.9,1.7,4.4.2h0c1.4-4.4,4.1-6.5,3.8-11.1-6.3-.3-9.6,5.2-8.2,11h0Z"/>
        <path class="st4" d="M1286.2,579c-2.7,0-8.9,3.6-9.8,6.6-.6,2-1.2,5.1,1.2,6.7,2,1.3,5.3.8,7.9.4h0c-.3-4.5,3.1-6.7,5-10.4,1-2-2.9-3.2-4.3-3.2h0Z"/>
      </g>
      <g id="arquipelago-de-vesper">
        <path class="st0" d="M166.3,411.4c.3.3.7.7,1.1.8,1.2,1.8,2.9,3.1,3,6.2-3.3-.8-4.4-4.3-7.2-4.8l-5.4-.9c.2-2.6-.7-4.1,1.6-5.5,1.9,2.8,4.4,4.3,7,4.2h-.1Z"/>
        <path class="st6" d="M133.7,413.4v-1.3c.9-1.7,1.1-3.6,1.7-6.4,1.8,2.6,1.1,6.6-1.7,7.7h0Z"/>
        <path class="st0" d="M57.6,335.5c2.9,0,7.1-2.1,9.6.7l-1.8,15.1c-.5,4.3-2.9,4.9-.4,9.3,2,3.4-.5,10.4-3.1,13.5l3.1,7.8c-3.9,2-5.9-1.1-8.4-2-4.8-1.7-8.7-3.7-12.2-7l-1.5-1.4c.8-2,.2-4.4-1.7-6.5-1.1-3.4-.2-6.6,1.6-9.5,3.7-.3,3.6-5,4.4-7.6.6.4,2,.2,2.3-.5.5-1.5,0-2.6-1.1-3.6.9-3.1,2.4-6.4,4.5-8.7,1.6-1.8,3.5.4,4.6.3h.1Z"/>
        <path class="st0" d="M33.4,364.3c-.9,1.8-2.7,2.9-4.3,2.5-3.3-.9-6.1-7.1-4.8-10,2-1.5,1.6-4.3,1.4-6.5,1-1,2.2-1.9,3.8-2.5l3.9,16.6h0Z"/>
        <path class="st5" d="M24.4,356.8c.6-1.3,0-3.5.1-4.9l.3-1.8,1,.2c.3,2.2.6,5.1-1.4,6.5h0Z"/>
        <path class="st0" d="M159.9,497.3c-1.7-1.5-2.9-2.9-4.2-2.8-1.6,0-3,1.7-4.2,3.4-1-2.8-1.8-5.4-3.3-5.7-5-1-7.4,6.5-10,14.5-2.8-.8-3.2-2.5-3.3-3.6-.1-1.5,1.1-2.6,1.6-4.2l2.7-9.8,12.7-2.8c1.4-6,7.9-10.4,14.1-8.3,2.7.9,2.5,6,2.3,7.8,10.4-.6,8.4-6.2,10.6-7.9.9-.7,3.5.7,4.9.2,2-.7,2.1-4.6,2.1-7,3.6,1.2,4.7,0,7.6-.7l5.7-1.4c.3-4.6-.9-7.5-1.6-12,7.8,1,15.9,12.3,15.4,14.8-.3,1.6-1.3,2.9-3.7,5.1,5.4,1.9,7.2,6.2,5.7,11.8,3.7,4.5,4.7,10.2,1.9,15.2-2.2.5-4,1.8-4.1,3.1-.1,2.1.8,4.5-.8,6.9-2.3-5.2-2.8-10.6-7.9-14.9l-5.5,7.9c-3.4,4.8,4.3,6.2,4.5,13.8,0,2.8-3.1,7.5-6.5,7-.5-2,.3-5.9-2.4-6.9-3,3.8-5.9,2.4-9.3,1-4.8-2-9.3-3.6-10.7-7.7-2.1-6.2-.7-9.4,1.9-14.6.9-5.9-11.6-10-13.3-9-2.5,1.5-2.8,3.6-2.8,6.6h0v.2Z"/>
        <path class="st6" d="M200.7,452.3c-.9-1.9-.6-3.9-.5-5.7.3-.4.6-.6.6-.7,1,2.1,1,5.3-.2,6.4h0Z"/>
        <path class="st0" d="M156.9,463c.9,1.4.5,3-.3,3.9-.7.8-1.9,1.4-3.5,1.5-1.1,0-1.6-3.2-3.1-4-2.8-1.5-9.1-5-6.5-9.2,1.2-2,7.1-1.7,7.4-6.1.3-3.6.4-9.3,2.2-12.6,1.1-1.5,7.1-.8,7.7,1,.3,9.7-9.8,16.5-4,25.4h.1Z"/>
        <path class="st0" d="M148.9,434.9l-4,4.8c-3.9.3-7.1,1-10.3,4.5-2.1-3.4.6-5.9.9-9l1.3-14.5c6,4.2,10.6,5.8,17.9,4.9,0,4-3.2,6.2-5.7,9.2h0Z"/>
        <rect class="st0" x="133.9" y="419.8" width=".9" height=".9" transform="translate(-257.8 218.1) rotate(-45)"/>
        <path class="st0" d="M187.7,422.9v-2.6c0-4.9-12.7-4.7-9.5-12.8,4.2-1.3,9.7-.3,14.5-.5,1.2,1.4,3.2,3.5,3.4,5.3.6,6.5,1.1,12.4,4.4,18.7-4.8,1.2-7.2-.5-11.6-2.9l1,11c.2,2,4.7,5.2,2.6,7.6h-3c-.4-.1-.8,1.6-1.2,3.7-5.4-2.7-1.4-10-2.9-12.8-.9-1.6-3.2-1.5-4.8-2.2-2.7-1.4-2.1-6-1.2-7.9,2.3,2.5,4.4,2.3,7.3.7,1.7-.9.9-2.5.9-5.3h.1Z"/>
        <path class="st0" d="M172.6,397v6.3c0,.8-.9,2-1.8,2.1-.7,0-2.2-1.8-2-2.6.2-.7,1.5-1.3,2.5-3.2-15.9,1.8-12-7.2-20-12.8-2.7-1.9-4.5-6-9.5-6.2l4.5,13.5c-1.1,1-3.3.6-3.8,0-.4-.6-.2-3.1-.8-3.8-3.6-4.1-8.8-8.1-14-9-3-.5-4.5,4.1-5.9,5.3-5.7,1.5-9.2-6.2-14-3.1-3.7-9.1,7.7-11.1,5.5-14.7-2-3.2-5.7-4.1-9.6-3.8l-.2,7.4c-3-.8-4.1-4-5.1-6.5-5-.9-4.4-5-5.6-8.4-1.6-4.5-2.8-7.8-4.1-12.5-1-3.6-5.4-7.6-.4-11.3,1.1,3.3,3,4.4,3.9,5.4,1.6,1.7,6.7,0,6.1-2-1.7-5.5-3.4-10.5-.6-15.7s-.8-9.2-.9-13.5c-.3-5.9,1.9-14.9,3.7-20,11.7-9.8,17.7,2.9,27.5,2.9s5.2-1.9,6.7-5.6c3.6,4.1,1,6.3-.4,9.9-1.2,3.1-1.1,10.9,1.4,13.3,5.1,5.1,7.7,10,3.4,17l-4,9.6c-2.4,3.5-7.9,3.8-11.8,7.6,3.2,3.9-1.5,8.9-1.8,12,6.2,12.4,5.3,28.6,15.1,26.2,1.6-.4,2-2.4,3.1-4.1,1.4-2.4,5.5-2.5,8.1-1.7,5.7,1.7,6.1,16.8,11.1,5.9l7.9,3.5c-2,1.2-3.3,1.8-3.7,2.6-.8,1.6.9,2.9,2.1,4.2,1.1,1.2.9,4.1,1.8,5.1,1.2,1.4,3.9,1.1,5.7,1h0v-.3Z"/>
        <path class="st0" d="M104,392.3c-1.1-.5-.7-1.9.5-1.7.6.7,1.2.5,1.4.5,5.9-1.1,15.9,2.1,17.7,5.4,2.3,4.1,0,15.7-3.6,17.1-5.7-2.7-7.6-9.6-9.5-14.7-1-2.7-4.1-3.8-5.7-5.6l-.8-.9h0Z"/>
        <path class="st0" d="M185,423.6l.6.2c.5.9.9,3.1,0,3.4s-3.1,0-3.9-.4c.5-1.8,1.6-2.9,3.3-3.1h0Z"/>
        <path class="st0" d="M160.6,461.2c-1.3-7.3,2.3-13.2,5.8-18.9l4.7-10.3c.1,4.4-.3,9.6-1.7,13.4-3.9,5-7.8,9.3-8.8,15.8h0Z"/>
        <path class="st0" d="M177.5,385.6c0,1.9-3.5,2.6-4.4,1-.9-1.5-.7-5.8,1.2-7,1.5-.4,3.1,2.8,3.2,6h0Z"/>
        <path class="st6" d="M133.5,366.5c-2.5-1.8-3.3-4.6-.8-6.5,1.8,2.5,1.2,4.4.8,6.5Z"/>
        <path class="st0" d="M135.2,511.6c.9-.4,2.6-.3,3.4.4.8.6.6,2.1-.6,2.9-.8.5-1.6.7-3-.3-.8-.6-2.5-1.7.2-2.9h0Z"/>
        <path class="st0" d="M180.1,451.1c.9,3.9-1.4,5.8-3.9,6.8-2.6,1-5.3,1.4-7.9-.2,2.5-3.1,4.3-5.4,6.9-6.5,1.2-.5,3.8,0,4.9,0h0Z"/>
        <path class="st6" d="M134.7,393.7c-1.1,1.8-2.5.3-2.9-.4-.6-.8-1.3-2.5,0-3.6s4.5,1.5,3,4h-.1Z"/>
        <path class="st0" d="M35.7,317.8c4.3-4.1-11.2-16.3-1.5-20.7,1.3-.6,4.3.8,5.1,0,1.2-1.1,2.1-2.7,2.7-4.4,1.2-3.5,5.7-2.8,7.6-4.8l10.8-10.6c2.9,7.6,1.9,14.8-4.3,19.1,2.8,8.9-1.4,16.5-8.8,20.4-2,6.4-11.6,9.3-12.1,9-1.3-.9-2.4-2.2-2.5-3.6,0-1.6,1.1-2.7,3.1-4.5h0Z"/>
        <path class="st0" d="M28.7,347.1c-4,.9-5.1-2.4-5.5-4.7-.6-3,2.8-10.6,3.1-10.7,4.5-1.6,1.6,6.7,2.3,15.4h.1Z"/>
        <path class="st0" d="M23.1,520.3c-3.1,4-8.8-10.9-14.2-6-1.6,1.4-3.2,2.1-4.7,1.5-5.4-2.1.7-9,2.2-20.3.4-3.5,7.6-4,8.7-7.9.8-3-3.9-5.4-2.8-8.1,1.3-3.2,5.5.3,9.9-2.6,2-1.3,2.1-4.5,2.8-6.4,3.1-1.1,7.4-2,10.9-1.8l2.3,3.5c.6.8,3.7.5,4.4-.3,3.2-3.4,5.6-2.6,9.5-2.5,2.3,0,5.8-4.4,6.5-6.5,2.2-6.2,7.4-7.2,12.4-9.4,3.9-1.7,6.4-7.5,11.3-8.6,1.9-5.1.8-10,4.8-14.1-.7,5.3-.6,9,3.6,12.6-2.1,2.6-5.6,2.7-7.1,3.9-1.8,4-5.3,5-7.4,7.8l-3.9,16.2c-5.7,5.9-9,16.5-7.2,25.3l-5.5,7.8c-6.5-1.4-12.9-2.5-18.7,1.1-3.1,2-2.4,7.6-4.5,10.4-1.6,2.2-6.3-.3-7.8-2.6l-5.6,7.3h0v-.3Z"/>
        <path class="st0" d="M100.6,418.3c-4.2,1-5.8-1.8-7-5.2,2.9.5,5.5,1.1,7,5.2Z"/>
        <path class="st0" d="M123.8,523.3c-1.9.9-3.9.6-5.7.5-.4-.3-.7-.6-.7-.7,2.1-1,5.3-1,6.4.2h0Z"/>
        <path class="st0" d="M112.2,273.3l.5-3.1c1.1,0,1.7.2,2.2.7.6.7-.2,1.6-.7,1.7-.5,0-1.8.3-2,.7h0Z"/>
        <path class="st0" d="M149.9,395.8c.4,3.9,3.7,7,8.2,7.4-.6-5.1-4-7.9-8.2-7.4Z"/>
        <path class="st0" d="M174.2,396.9h-1.6v6.4h2.4c0-2,.9-4.8-.8-6.4h0Z"/>
        <path class="st0" d="M38.9,358.1c-.3,1.5,0,3.2-1.1,5.1-1.2-1.4-.7-2.6-.7-3.1s-1.2-1.1-1.9-.7c-1.6,1.1,1,5.6,1.2,5.7.7.3,2.7-.4,3.3,0,2.5,1.7,1.7,5.1,3.2,6.5.8-2,.2-4.4-1.7-6.5-1.1-3.4-.2-6.6,1.6-9.5-2.2.2-3.6.5-4,2.5h.1Z"/>
        <path class="st0" d="M47.2,340.2c-.4,1.4-.4,3.3,1.2,3.7.9-3.1,2.4-6.4,4.5-8.7,1.6-1.8,3.5.4,4.6.3l-.3-1.2c-2-3.2-8.9,2.5-10,5.9h0Z"/>
        <path class="st0" d="M93.8,445.3c.5-.3.8-1.7.5-2.2-.5-1-1.5-1.4-2.8-2l-.5,4.6c.5-.3,2.2,0,2.7-.4h.1Z"/>
        <path class="st0" d="M127.4,236.9c1.1-.8,2-2.6,1-4.3-.4-.7-2.5-.9-2.9.1-.3.8-1.7,1.7-1.2,3.8.2.9,2.4.9,3.1.4h0Z"/>
      </g>
      <g id="costa-quebrada">
        <path class="st0" d="M339.7,371.6l-1.9-9.2c-.3-1.4-.9-2.5-1.5-3-4.4-3.5-2.3,3.5-1.8,12.4,2,.3,3.1.4,5.3-.2h-.1Z"/>
        <polygon class="st12" points="339.8 371.6 339.7 371.6 339.8 371.6 339.8 371.6"/>
        <rect class="st0" x="438.2" y="233.7" width="5.4" height="3.2" transform="translate(-58.2 260.7) rotate(-31)"/>
        <path class="st0" d="M334.3,226.2c6.7-.7,12.2-3.9,11.4-7.8-.3-1.5-1.8-2-3-2-2.8,0-12.8,6.2-8.4,9.9h0Z"/>
        <path class="st0" d="M338.9,314.7c3.7-12.8,9.2-14.5,9.2-17.4h0c0-1.4-1.6-3.5-1.7-5.1l5.7-8.1c5.6-7.8,21.1.9,21.8-4.9.4-3.2-1.9-6.1-3-9.2l-24.1-9.7c-1.2-2.6-3.2-5.5-6-7.6-1.1-.8-1.9-4.7-3.2-4.8-.4,0-10.9,2.4-12.3,3.9-4,4.4-2,19.3-9.2,29.6,12.7,6.1-1,17.1,7.7,26.9.6,4.4-.8,10,1,14.5,1.1,2.7,7,4.5,9.2,3.1,4.1-2.6,3.8-7.3,4.9-11.2h0Z"/>
        <path class="st0" d="M355.6,396.1h0l-2.6-15.2c-1.4-.2-2.9-.3-4.8,0,.3,5.2.8,10.2,2.3,15.2.5,1.8,5.4,1.3,5.1,0Z"/>
        <path class="st0" d="M349.7,404.5c-2.5.2-1.7,5.3-.3,5,2.8-.7,1.7-5.1.3-5Z"/>
        <path class="st0" d="M373.5,321.4c-2.2-.4-5.3-5.1-9-3,.4,1.3.4,6-1.2,6.7-3.4,1.4-11,9.9-13.8,15.1,3.2,2.5,6.5-1.8,8.6-1.8,6,0,10,6.2,11,11.4,3.4-.5,9.4-.6,9,2.3l-1,8.6c2.2.3,5.7-.2,7.2,1.7h0c1.4,1.8,1.7,3.7,2.6,4.3,1,.7,3.9.7,4.9,0,6.2-3.9,5.6-10.6,7.7-16.5,1.8-5.3,5-11.9-1.7-15.6-2.2-1.2-5.4-1.7-5-6.2l-7.8-4.2c-3.5-4.1-6.8-3.1-11.5-2.9h0Z"/>
        <path class="st0" d="M389,303c-.5-.1-2.2-.4-3.4,0-2.5.9-3.1,4.6-1.8,7.5l5.5-4.1h0c1-.8.5-3.2-.3-3.4h0Z"/>
        <path class="st0" d="M417.8,468.5l2.6-.2h0c2-.1,5.5,1.4,6.9,3.8,1.4,2.5.9,5.6,1.4,8.7,13.6,8.3,20.6,25.2,10.7,35.7-4,4.2-9,7.6-10.3,13.5-1.2,5.3,3,8.5,5.7,12.5,1.3,1.9.8,6,4.1,6,6.5-4.5,14.9-5.4,23.3-5,7.8-5.2,15.8-7.8,25.1-9,.8-6.9,3.6-11.7,8.7-15.4l22.5-16.4c8.2-6,12-15.8,16.9-24.6l6.6-5.8c.6-5.6-4.7-9.2-5.9-13.5.4-6,4.8-12.9,9.6-16.6,6.3-4.8,23.6,3.7,20.6-8l-3.6-14.3c-7.8-3.8-8.4-10.9-5.9-18.2,7-21-.5-34.3,4-41.4l13.4-21.5c3.5-5.7,4.7-10.4,4-17.8-.2-2.1,2.6-6.4.7-8.9l-.3.3-16.6-21.2c-1.2-1.5-4-2.4-4.2-4.5v-1.1c-5.8-8.6-1-17.4,4-26.5,2.5-4.6,3.7-9.8,7.5-13.8,5.1-5.3,6.1-12.2,4.9-18.9h0c-11-.6-18.5-4-27.4-12.7-2.1-2-14.8-5.4-18.1-.8,1.5,6.3-.7,11.2-3.8,17-2,3.6-2.2,9.8-7.4,11.3-4.7,1.3-9.7,1.5-14.1,5.6l-14.8-8.7c-2.8-1.7-3.6-5-7.1-5.2-2.9-.2-7.6-.3-8.8,4-.7,2.6,1,9.1-2.5,10.7-5.6,2.7-8.3,6.7-11.7,11.1-3.7,4.8-11.2-.6-15-1.4-17.3-3.8-13.4-13.9-19.3-15-1.7-.3-3.4.5-5.3,2.1l-7.1,1.2c-6.9,4.5-17.5.5-24.1-6.1-1.8-1.8-7.5-.6-10.4-.3l1.8,10.1c.9,5,1.8,6.9-1,11.5-1.5,2.4,3.4,5.2,5.9,5.5,5,.5,10.8-.7,15.2,1,3.2,2.2,4.6,3.8,9.7,3.5,3.2-.2,7,6.5,6.1,9.4-.6,1.7-2.7,3.3-2.6,4.6,0,2.6,5.1,7.2,1.4,11.1-1.2,1.3-3.6,2-6.2.8-1.2,2.2-.7,5,1,6.3,3.9,3,8.7,2.7,13,3.7,8.4,1.8,2.5,11.3,6.7,19.1-4.7,4.2-4.3,10.3-6.8,15-2.1,4-4.5,6.2-4,11.5l-2.7,7.2c2.2.4,3.8-1.8,5.3-2.1,4.5,2,11.1,3.8,13.6,8.1,2.2,3.7,2.8,6.5,6.8,8.8,5,2.9-.2,16.6-11.2,18.6-8.1,6.8-6.4,13.3-16.5,17.4-4.8,1.9-10.6,6.9-16.6,5.1-3.9-1.2-7.2-3.4-11.7-3.2-2.1-.8-1.6-5.6-1.7-7.4-.8-7.4-14.4-3.3-24,9-1.2,1.5-4.1,2.5-4.3,4-.2,2.3.5,5.5,2.2,7.3,7.4,7.5-.3,11,1.2,16.4.3,1.2,9.4,6.2,14.1,2.9,1-.7,3-.5,3.8,0,1.9,1.5,2.3,6.9.8,10.1-.6,1.4-3.7,1.6-5.2,2.7-4.5,3.5-7.8,2.8-12.5.8-7-3.1-15.2-2.2-23.7-1.9-1.7.7,0,4.8,1.4,5.9,4.6,3.6,17.5-2.9,27.7-.6,7.1,3,12.9,6.7,21.1,8,3.1.5,7.8,5.5,11.9,3.2,6.5-3.5,13.5-5,20.5-4.1"/>
      </g>
      <path id="pantanos-de-varg" class="st8" d="M602.4,626h0c-.5-.6-2.5-.7-3.2-.5h0c-2.7.9-7.3,1.8-10.9.9l-13.7-3.4-7.8,5.2-1.2,1-3.5,3.3c-12,2.9-27.8-5.9-27.8-19.5l7.2-25.1-6.9-14.4c-2.7-5.7-9.9-6.6-15.5-8.6-9.6-3.3-16.1-10.8-23-17.2-1.2-1.1-2.5-2.8-3.6-3.7h0c-2.2-1.7-3.9-5.5-6-7.6l-11.1,3-14.5,6.4c-7.8.5-15.7,1.5-22.2,4.4-.3,0-1.3,0-1.5-.2v1.2c1.1,3.8-2.3,5.5-4.3,8.2-5.7,7.3,2,20.6-13.3,22.8-3,.4-5.4,2.8-6.5,4.6-1.6,2.5-.4,5.1.7,8.1,1.3,3.6,5.2,6.7,8.9,4.7,4.4-2.4,8.4-1.3,11.1,3.2,3.6,6.1,11.9,9.1,17.3,3.9,4.3-4.2,8.5-4.6,14.3-3,3.6,1,6.8,1.4,10,3.9l8.2,3.1c.6,15-9.6,15.7-18.7,21.2l-21.8,13.1-13.9,2.4c-1.2,3-1,5.8-1.4,8.8-5.3,5.6-12,8.6-18,14-2.4,2.2,0,10.7,2.9,12.4,6.7,4.1,12.2,9.2,15.1,16.5l14.9,4.8c5.9,4.6,13,2,19.8,3.5,12,2.6,19.4,15.2,21.9,26.2.9,4.1,4.3,5.1,6.7,7.5,5.3,5.2,12,8.2,19.4,4.8,6.5,1.7,13.4,1.9,20.2.7l12.2-2.2c1.8-4.6,6.9-11.3,5.9-17-3-9.3-4.6-20.1,4.4-27.8l6.5,23.3,7.3,7.7c.4,7.4,4.2,14.9,10.6,18.4,9,.7,14.4-5.9,21.1-9.6,10.3-5.6,18.5-12.3,23.1-23.9,6.1-15.2,13.8-7.3,27.2-16.4,1.4-.9,14.5-1.4,23-1.8,11.2-10.8,2-22.6,11.4-28.8,4.6-3,8-6.3,10.7-11.7-9.4-2-15.6-6.8-21.5-13v-.2c.1,0-22.6-23.9-22.6-23.9-5.4,4.6-8.7,10.2-14.3,13.2s-26.1,1.4-33.3-6.9"/>
      <g id="divisoes-internas">
        <path class="st3" d="M1116.9,236.6c-.8.6-1,2.8-1.2,3.8-4.1-3.9-17.4,1-20,4-3.9,4.5-7.2,6.8-13.2,4.4-3.1-1.2-6-2.2-7.7-4.9,8.1,1.5,13.5,6.6,17.9,1.6,6.2-7.1,15-10.3,24.2-8.8h0Z"/>
        <path class="st3" d="M1174.8,187.4c-2.2,3.4-5.3,5.3-9.3,3.9v1.5c4.2,1.1,9.3-.3,10.7-5.4-.2.2-.8.2-1.3,0h0ZM1071.1,678.2l-30.1-12.5c-6.4-2.7-12.7-5.1-19.1-1.6l-18.8,10.3c-3.7,2-10,5.3-14.4,3.4-14.3-6-23.2-18.9-27-33.3-2-7.7-7.9-11.1-15.5-9.6-21.9,4.3-22.1-11.3-29.6-15.7-5.7-3.4-12.9-2.9-18.7.2-7.4,3.9-14.6,3.8-22.8,2.5l-12.2-1.9c0,1.6,1.4,2.8,3.5,3l17.6,2.2c6.9.9,25.4-12.8,34.1-2.7,7.3,8.6,11.8,19.7,29,14.2,5.5-1.8,11.1,1.3,12.5,7.4,3.8,16.3,14.5,29.2,30,36.5,15.1-1.8,25.6-14.8,39.9-16,5.9-.5,11.3,3.6,16.4,5.7l29.6,11.9c9.2,3.7,25.8-.7,41.5,8.7l11.9,9.6c0-.2,0-.5,0-.7-17.8-23.3-38.3-13.6-58.1-21.8h0l.2.2ZM857.8,617.8c.2.9.6,1.8,1.3,2.1,1,.4,2.5.3,3.2,0l-4.4-2.2h0ZM986,256.4c-3.1-4.7-6.9-6.6-12-8.2-8.3-2.6-12.4-10.8-15.8-18.2l-9.5-13c-1.3-1.8-3.2-2.6-4.5-3l12.9,18c4.2,12.3,13.2,15.9,22.9,21.6,7.2,4.2,11.5,14.4,20.7,16.9-.3,6.2,2.8,11,4.7,16.3,2.5,7,3,14.5,7.1,21l-3.5,7.7c-12.2,9.5-19.5-1-25.2,7.5-5.3,7.9,8.6,15.5,10.2,22.6,1,4.8-3.5,8.4-4.6,12.7-2.3,8.8-11.2,16.6-20.5,12.5-8.5-3.8-16.9-6.9-26.6-7.1-26.7-.6-26.3-21.1-40.5-29.6-12.2-7.2-31.1,0-36.8-7.3l-13.7-17.7c-4.8-3.8-7.8-7.6-11.7-12.3-7.8-9.3-27.8,7.4-45.9-5.4-3.9-2.7-8.1-1.1-11.8-2-14.4-3.7-23-23.6-44.8-8-11.2,8-23.7-12.1-33.1-6.5-3.5,2.1-5.5,7.4-10.9,7-10.1-.8-20.7-2-30.4-5.1-5-1.6-9.3-2.6-14.3.2-14.4,8-28.8,3.6-40.6,26-6.8,4.2-19.4-5.4-23.3-2.8l-9.2,6.2c-4.2-6.9-9.2-11.7-14.1-17.3-1.2-1.4-1.8-2.9-3.7-2.5.2,2.1,3,3,4.2,4.5l16.6,21.2c2,2.5-.9,6.9-.7,8.9.7,7.3-.4,12.1-4,17.8l-13.4,21.5c-4.4,7.1,3.1,20.5-4,41.4-2.5,7.4-1.9,14.4,5.9,18.2l3.6,14.3c3,11.8-14.3,3.3-20.6,8-4.9,3.6-9.2,10.6-9.6,16.6,1.3,4.3,6.5,7.9,5.9,13.5l-6.6,5.8c-4.9,8.8-8.6,18.6-16.9,24.6l-22.5,16.4c-5,3.7-7.9,8.5-8.7,15.4-9.4,1.2-17.4,3.7-25.1,9-8.4-.3-16.8.5-23.3,5v1.4c6.6-2.9,14.6-3.8,22.3-4.4l14.5-6.4,11.1-3c2,2,3.8,5.9,6,7.6l-3.2-8.1c-1.2-16.3,22.3-22,35.3-36.7l13.2-20.9c1.4-2.2,5.7-2.8,5.6-6-.4-10.2-10.2-11.6-2.8-21.3,2.2-2.9,3.8-7.5,8.7-8.3,4.7-.7,12.6,2.2,16.6-1.4,5.5-4.9-2.3-16.8-.8-20s14.5,7,24.4-7.8l21.4-1c6.6-2.2,9-1.2,14.1,2.6,4.8,3.6,12.6-1.3,16.6-4.5,4.4-3.6,9.9-3.6,15.4-3.9l5.8,8.1c1,1.5,1.9,1.9,3.2,2-2.4-4.9-7.1-11.5-10.1-12.2-7.5-1.7-17.1,8.1-28.9,10.3-2.7-1.9-4.5-4.5-7.6-5.5l-23.7,2.3c-5,.5-7.9.6-10.8,4.7-3.4,4.7-9.7,3-14.7,2.8-4.6-.2-8.5.6-11.3-3.7-4.7-7.1,2.6-15.5,2.5-23.7v-18.7c0-4.7-1.7-8.6,1.1-13l14.1-22.2c3.6-5.7,4-11,4.2-17.7,0-4.6,1.4-8.7-3.5-12.3l8-6.6,15.5,5.1c11.5,3.8,9.3-17.8,34.1-22.4l20.9-6.8c11.9,3.9,23.8,6.3,36.3,6.4,10.5,0,11.7-11.1,17.8-7.9l12.7,6.7c3.4,1.8,10,4.6,13.5,1.7,21.1-17.3,34.5,4.6,45.1,6.7,5.1,1,9.1.4,13.4,3.4,17.5,12,36-3.9,44.2,4.5,4.3,4.4,8.6,7.4,12.1,12l12,15.6c3.1,4,6.9,6.5,12.5,6.6h16.1c7.4,0,12.8,3.8,17.2,9.4l12.8,16.1c7.9,9.9,32.2,4.5,50.3,16.2,2.1-1.6,6.8-3.2,8.4-1.5,3.3,3.6,4.8,8.3,7.3,12.6-4.3,6.1-9.5,12.3-8.9,19.9l1,12.7.9,17.4c-.6,2.7-6,3.6-8.1,4.2-19.3,6-14.3,22.9-20.2,28.3-5,4.7-16.4-4.5-23.4,7.6l-19.5.5c-5.3.1-9.7,16.4-23.2,8.8-3.1-1.7-7-2.9-10.2-1.5-2.7,1.1-5.1,3.7-5.8,7.1l-1.5,7.2c0,.6.2,1.4.3,2h1c.6-6.8,2.3-13.7,7.4-15,2.1-.6,4.3.4,6,1.5,8.2,5.1,16,2.6,21.3-4.9,5.3-7.6,20,0,25.4-5.8,9.3-9.8,17.5-.7,23.1-6.3,6.6-6.6,1.8-23.9,20.5-28.1,3.1-.7,5.8-2.3,8.5-4.7,8.6,8,19.1,5.6,29.5,12.9,8.2,5.8,16.3,5.4,25.7,3,10.7-2.7,26.7,15,35,10,12.6-7.5,15.5-1.8,28.4-2.7.2-.5,0-1,.2-1.6-4.2-1.9-20.1-3.4-26.7,1.3-2.7,1.9-5.9,2.8-9.4,1.1l-14.3-7.1c-6.2-3.1-11.8-5.1-18.5-2.4-13.7,5.7-23.8-8.6-34.5-9.9-6.4-.8-16.1-3-16.2-10.4v-18.4c-5.1-18,10.1-22.5,6.2-30l-5.6-10.6c7.3-7.6,12.9-16.7,13.8-27.5l-10.4-13.9c-1.7-2.3-1.4-5.5-.3-7.2,1.2-2,4.5-2.1,6.5-1.5,11.9,3.2,24.3-7.4,22.2-14.8l-5.3-18.4c-2.3-7.8-9.2-15.8-4.2-18.5-7.3-2.2-14.1-7.1-18.5-13.8h0l.6.3ZM437.4,550.1c-1.3,0-1.3,1.3,0,1.2v-1.2ZM925.6,192.7c-4.4-5-11.8-3.7-16,1.5-6.4,7.9-16.6,10.4-26,6.4-15.7-6.7-28.5,3.1-37.4-14.1-3-7.1-9.4-11.4-17.2-10.2-8.9-4.3-19-3-25.4,3.6l9.3-3.5c6.1-2.5,12.4,1.7,18.6,1.9,5.5.2,10,1.4,12.3,6.9,4.3,10.3,14,15.9,25.4,14.8,9.7-.9,27.6,12.4,41-4.1,4-4.9,9.9-5.7,14.9-1.7,7.6,6.1,10,14.3,15.9,15.9l-15.4-17.4h0ZM782.4,183.7c-9.7-3.6-18.5-8.3-24.8-16.4-12.3-5.5-25.7-1.1-33.1,9.9-10.4,17.1-26,6-36,16.7-7.8,8.3-18.5,10-29,7v1.8c23.8,8.7,27.8-13.7,45.3-12.8,20.9,1,20.7-22.7,41.4-23.4l10.2,1.7c5.9,8.2,14.1,12.2,22.7,16.5,5.8,2.8,10.6,5.4,17.3,2.7,1.6-.7,3.5-1.6,3.7-3.5-5.5,3.5-11.8,3.3-17.8,0h0v-.2ZM431,147.5l-.2,2.3c3.7,0,7.6,0,11.8,1.4,1.8.6,2.9-.9,3.9-1.1l-.3-1.5-15-1h-.2ZM506.4,190c.7,4,5.3,4.2,8.8,3.7v-1.4c0,0-8.8-2.3-8.8-2.3h0ZM647.4,199.2c-4.3,1.5-9,4.9-13.8,4.2-6.8-1-13-.8-18.8,3.4-9.4,6.9-19.8,11.4-31.3,13.8l-9.4,4.5c-11.2-1.3-20.2-7.1-28.5-14-4.5-3.8-11.6-2-16.6-2.3,0,1.1-.6,2.9-.3,4,3.3-4.6,16-1.2,18.1.8,9,8.7,16.5,12,27.4,12.7h1.3l7.1-2.9c11.8-2.7,22.3-7.3,31.9-14.6,5.9-4.4,12.1-4.9,19-3.7,7.3,1.3,14.2-6.9,26.1-2.5v-1.8c-3.6-1-7.6-3.3-12.1-1.6h-.1ZM1101.3,458.4c0,.6,0,1-.2,1.6,8.1,6.9,8,18,18.7,16.8.6-.4,1.2-1.2,1.5-1.8-12.7,2.3-12.2-13-20-16.5h0ZM1059.3,243.4l-10.3,12.4c-4.3,5.2-18.1-1.7-28.1,9.4l-13.8,3.5c-.3.8,0,1.3.7,1.3s1.3-.4,2.2-.5l10.4-1.1c3.6-5.3,10-8.6,16.7-8.1,17.8,1.3,20-19.6,28.9-18l8.7,1.5c-3-4.9-10.9-4.1-15.5-.5h0ZM558.3,269.5l7-13c2.3-4.3,3.4-8.5,6.7-12.2,4.6-5.1,5.9-12,3.5-17.9h-1.3c1.2,6.7.2,13.5-4.9,18.9-3.9,4-5,9.2-7.5,13.8-5,9.1-9.8,18-4.1,26.5l.6-16.1h0ZM600.8,623.3c-16.2,4.9-27.3-9-34,4.9l7.8-5.2,13.7,3.4c3.6.9,8.2,0,10.9-.9.8-.3,2.7,0,3.2.5,7.2,8.3,27.7,10,33.3,6.9,5.6-3,8.9-8.6,14.3-13.2l22.7,23.9c5.9,6.2,12.1,11,21.5,13-2.6,5.4-6.1,8.7-10.7,11.7-9.4,6.2-.2,18-11.4,28.8l2.5-.2c3-4.5,6.9-9.8,6-16.2-.5-4.3-.2-9,4.1-11.3,5-2.7,7.5-8.8,12-11.7,15.5-10.2,39.3.3,58.7-19.3,4.2-4.3,9.5-9.4,15.5-10.6l33.4-6.8c8.2-6.2,14-13.5,20-21.9,10.1-3.6,21.1,1.5,26,11.2,1.9,2.6,3.5,5.8,6.2,6.4l-8.1-11.9c-4.4-6.3-11.6-8.7-19.4-8.2l.2-13.5c0-6.4,6.1-8.8,9.5-13.1,3-3.9,4.8-11.3,3.8-15.9l-3.1-14.3c1.9-2.8,5-4.5,7.4-5.9l-1.5-.4c-1.7,1-3.8,2.4-5.5,2.5-2.4.2-4.2-2.1-6-3.1-11.6-6.7-9.3-18.6-14.3-22.2-6.2-4.5-14.2-4.6-20.8-8.1l-22-11.8-14.3-13.4c-5.2-4.9,2.1-16.7-14.7-20.3l-20.4-4.4c-5.5-1.2-9.1-.7-11.2-7.5-1.8-5.6-4-15.8-10.6-18.5-9.2-3.8-19.8-2-29.3-4.7l-8.2-2.3c.7,3.3,4.3,3.2,7.1,4,17.4,5.1,29.8-2.3,35.4,11.5l5.7,14.2c1.9,4.7,5.7,4.3,9.8,5.1l23.2,4.6c4.5.9,8.6,4.8,8.6,9.4,0,7,3.6,11,8.5,15.2,5.9,5.2,11,10.9,18.4,14.2,8.8,3.9,17,8.9,26.5,10.8,15.3,3.1,6.3,19.9,26.2,28l1.3,9.2c2.9,9,2.5,20.8-5,27.6-4.7,4.2-8.6,8.2-7,15.6.9,4.4-1,6.9-3.7,10.1l-13.3,15.6c-4,4.7-10.9,4.5-16.7,5.8l-12.1,2.9c-6.5,1.5-13.4,2.3-18.6,6.6l-17.2,14.1c-8.1,4.5-18.2,4.8-27.1,5.3-7.7.5-13.5,3.7-21.1,4.7-5.4.7-13.9-3.2-17.6-6.9l-12.1-12.1c-5.9-5.9-10.3-12.8-17.2-17.5l-12.4,12c-3.3,3.2-7.9,3.3-12.4,2.5l-15.9-3c-3.2-.6-5.3-4.3-8-6.4M558,631.7c-9.7-2.7-19.2-4.8-21.1-12.6-3.7-15.3,12.4-24.1,2.7-40.6-11.4-19.3-26-12.6-38.4-28.2-1.3-1.6-3.2-2.6-5.1-2.5,6.9,6.3,13.4,13.8,23,17.2,5.6,2,12.7,2.8,15.5,8.6l6.9,14.4-7.2,25.1c0,13.6,15.8,22.4,27.8,19.5l3.5-3.3-7.6,2.4h0ZM869.1,499.9h-1.3c.7,2.7.5,6.3-.9,8.5-2.9,4.7-11.7,0-15.1,3.8-3.4,3.8,3.6,15.1-6.6,21.3l1.5.4c11.3-6.6,2.3-20.6,7.5-21.2l12.2-1.5c3.4-2.5,3.3-8,3.6-11.3h-1,0Z"/>
      </g>
      <path id="vale-de-ardan" class="st13" d="M867.6,499.9h1.3c0-.5-.4-1.3-.3-1.9h0l1.4-7.1c.7-3.4,3.1-6,5.8-7.1,3.2-1.3,7.1-.2,10.2,1.5,13.4,7.6,17.9-8.7,23.2-8.8l19.5-.5c7-12.1,18.4-2.9,23.4-7.6,5.9-5.5.9-22.4,20.2-28.3,2.1-.7,7.5-1.5,8.1-4.2l-.9-17.3-1-12.7h0c-.6-7.7,4.6-13.9,8.9-20-2.5-4.3-3.9-9-7.3-12.6-1.6-1.7-6.3,0-8.4,1.5-18.1-11.7-42.4-6.3-50.3-16.2l-12.8-16.1c-4.4-5.6-9.8-9.3-17.2-9.3h-16.1c-5.6,0-9.3-2.6-12.5-6.6l-12-15.6c-3.5-4.5-7.8-7.5-12.1-12-8.2-8.4-26.7,7.5-44.2-4.5-4.3-3-8.3-2.4-13.4-3.3-10.6-2.1-24-24-45.1-6.7-3.5,2.8-10.1,0-13.5-1.7l-12.7-6.7c-6.1-3.2-7.4,7.9-17.8,7.8-12.5-.1-24.4-2.5-36.3-6.4l-20.9,6.8c-24.8,4.6-22.6,26.1-34.1,22.3l-15.5-5.1-8,6.6c4.8,3.7,3.6,7.7,3.5,12.3-.2,6.6-.6,12-4.2,17.7l-14.1,22.2c-2.8,4.4-1.2,8.4-1.2,13v18.7c0,8.2-7.2,16.6-2.5,23.7,2.8,4.3,6.8,3.5,11.3,3.7,5,.2,11.2,2,14.7-2.8,2.9-4.1,5.8-4.2,10.8-4.7l23.7-2.3c3,1,4.9,3.6,7.6,5.5,11.8-2.2,21.5-12,28.9-10.3,3.1.7,7.7,7.3,10.1,12.2,1.4.1,1.7,1.6,1.9,2.7l8.2,2.3c9.4,2.7,20.1.9,29.3,4.7,6.6,2.7,8.9,12.9,10.6,18.5,2.1,6.8,5.7,6.3,11.2,7.5l20.4,4.4c16.8,3.6,9.5,15.4,14.7,20.3l14.3,13.4,22,11.8c6.6,3.5,14.6,3.7,20.8,8.1,5,3.6,2.6,15.5,14.3,22.2,1.8,1,3.5,3.3,6,3.1,1.8,0,3.9-1.5,5.5-2.5,10.2-6.2,3.1-17.6,6.6-21.3s12.2.9,15.1-3.8c1.4-2.2,1.6-5.8.9-8.5M739,370c-.2-.1-.3-.2-.5-.4.2.1.3.2.5.4Z"/>
      <path id="floresta-de-nhalor" class="st14" d="M838.6,545.9l-1.3-9.2c-19.9-8.1-10.9-24.9-26.2-28-9.5-1.9-17.7-7-26.5-10.8-7.4-3.3-12.5-9-18.4-14.2-4.9-4.3-8.6-8.2-8.5-15.2,0-4.6-4-8.5-8.6-9.4l-23.2-4.6c-4.1-.8-7.9-.4-9.8-5.1l-5.7-14.2c-5.5-13.8-18-6.4-35.4-11.5-2.8-.8-6.5-.8-7.1-4-.2-1-.5-2.5-1.9-2.7-1.3-.1-2.1-.5-3.2-2l-5.8-8.1c-5.5.3-11,.3-15.4,3.9-4,3.2-11.8,8.2-16.6,4.5-5.1-3.9-7.5-4.8-14.1-2.6l-21.4,1c-9.9,14.8-22.9,4.6-24.4,7.8s6.3,15.1.8,20c-4,3.5-12,.6-16.6,1.3-4.9.8-6.5,5.3-8.7,8.3-7.4,9.7,2.4,11.1,2.8,21.3,0,3.1-4.2,3.8-5.6,6l-13.2,20.9c-13,14.7-36.4,20.3-35.3,36.7l3.2,8.1c1.1.9,2.4,2.6,3.6,3.7,1.9-.2,3.8.8,5.1,2.5,12.4,15.6,27,8.9,38.4,28.2,9.7,16.5-6.4,25.3-2.7,40.6,1.9,7.8,11.5,9.9,21.1,12.6l7.6-2.4,1.2-1c6.8-14,17.8,0,34-4.9h0l.3-.5h0v-.2.2h0c2.8,2.1,4.8,5.8,8,6.4l15.9,3c4.5.9,9.1.8,12.4-2.5l12.4-12c6.9,4.7,11.4,11.7,17.2,17.5l12.1,12.1c3.7,3.7,12.2,7.6,17.6,6.9,7.6-1.1,13.4-4.2,21.1-4.7,8.9-.6,19-.8,27.1-5.3l17.2-14.1c5.2-4.3,12-5,18.6-6.6l12.1-2.9c5.7-1.4,12.7-1.2,16.7-5.8l13.3-15.6c2.7-3.2,4.6-5.7,3.7-10.1-1.5-7.4,2.4-11.4,7-15.6,7.6-6.8,7.9-18.6,5-27.6h.1Z"/>
      <path id="contorno-geral" class="st2" d="M180.1,451.1c-1.2,0-3.7-.5-4.9,0v-1.7c1.5-1.1,2.9-1.6,3.7-.4l1.2,2h0ZM980.8,38.1l-.7,1.8c3.5.9,6.8,1.1,10.5.8l.5-2.2-10.2-.3h0ZM334.5,357.5c5.5,1.3,8.6,11.1,4.7,16.1-1.7,2.1-5,0-6.2-1.1-1.1-1-3.8-16.2,1.5-15h0ZM336.3,359.4c-4.4-3.5-2.3,3.5-1.8,12.4,2,.3,3.1.4,5.3-.2l-1.9-9.2c-.3-1.4-.9-2.5-1.5-3h-.1ZM445.9,235.3c0,3.6-8.3,5.3-9.5,2.7-1.7-3.7,1.5-4.3,3.4-4.9,2-.6,6-1.3,6.1,2.2h0ZM444,235.6l-1.7-2.8-4.6,2.8,1.7,2.8,4.6-2.8ZM216.7,487.6c3.5,4.7,4.8,10.5,2.4,16-6.8,4.9-3.6,13.7-6.9,13.8-3,.2-2.7-7.3-6-13.7l-1.6,1c.1.9.2,1.8-.1,2.9-1.8-1.8-3.4-1.7-4.3-.9-4.1,3.9,4.6,7,4.8,12.8.1,5.7-5.9,11.8-9,10.4-1.3-.6-2.4-2.6-1.8-6.1-4.2,2.5-7.6,1.3-12-1-8.5-4.4-10.5-4.6-11.5-18.4,1.1-1,2.7-2.3,3.1-3.2,2.3-4.7-3.9-5.7-10-10.2-1.6,3-1.1,4.8-1.1,7.4-3.2.7-5.1-.4-7.2-2.7-1.5,2.9-2.4,5.1-5.6,5.7l-1.9-7.1c-5.8-2.3-3.6,12-11.4,13.1-2.9.4-3.3-2.4-3.8-3.5-.9-2.2,1.1-4,1.6-6.1,1.2-4.6,1.7-10,7.4-11.7,2.1-.6,7.3.4,8.7-2.2,3.3-6,9.9-10.1,16.9-7.4,1.9.8,2.3,4.1,2.9,5.9.6,1.6,2.6.6,3.4.2,1.2-.5,2.4-2.5,2.6-4.5.3-2.8,4-3.7,6.9-1.7,1.6-3,1-6.2-.8-9.4-.6-1.1,1.7-3,2.7-1.7l3.9,5.1c2.6-2.9,5.1-3.3,8.7-2.8l-2.2-11.6c.7-1,3.1-1.3,5.2-1.5-1.7-2-2.6-4.2-2.4-6.3.1-1.6,1.7-4.9,4.2-4.4,1.9,3.5,1.3,8.7-.8,12.7l6.9,4.9c5.8,4.1,8.7,11.4,4,14.2,4.3,2.3,6.2,6.9,4.1,12h0ZM200.7,452.3c1.2-1.1,1.2-4.3.2-6.4,0,0-.3.3-.6.7-.1,1.8-.4,3.8.5,5.7h0ZM204.1,503.2l1.3-.2c.3-2.5-2.5-1.4-1.3.2ZM214.9,488.7c1.5-5.6-.2-9.9-5.7-11.8,2.4-2.3,3.4-3.6,3.7-5.1.4-2.5-7.6-13.7-15.4-14.8.7,4.5,1.9,7.5,1.6,12l-5.7,1.4c-2.9.7-3.9,1.9-7.6.7,0,2.3,0,6.3-2.1,7-1.4.5-4-.9-4.9-.2-2.2,1.6-.2,7.2-10.6,7.9.2-1.8.4-6.9-2.3-7.8-6.2-2.1-12.7,2.3-14.1,8.3l-12.7,2.8-2.7,9.8c-.5,1.7-1.7,2.7-1.6,4.2.1,1.1.5,2.8,3.3,3.6,2.6-8,5-15.5,10-14.5,1.5.3,2.4,2.8,3.3,5.7,1.2-1.6,2.6-3.3,4.2-3.4,1.3,0,2.4,1.4,4.2,2.8,0-3,.4-5,2.8-6.6,1.7-1,14.1,3,13.3,9-2.6,5.1-4,8.4-1.9,14.6,1.4,4.1,5.9,5.7,10.7,7.7,3.4,1.4,6.3,2.8,9.3-1,2.8,1.1,1.9,5,2.4,6.9,3.4.5,6.5-4.2,6.5-7-.2-7.6-7.8-9-4.5-13.8l5.5-7.9c5.1,4.3,5.6,9.8,7.9,14.9,1.6-2.3.6-4.8.8-6.9,0-1.3,1.9-2.6,4.1-3.1,2.8-5,1.9-10.7-1.9-15.2h0v-.2ZM130.6,419.7c7.1-5.6,13.3,7.8,25.5,3.5.6,4,0,6.8-1.3,10.3,2.7.2,4.3.4,5.9,1.1,1.9.8,1.8,3.2,1.8,5.2l.3,5.4c-3.6.2-3.4,3.9-4.6,6.7-1.4,3.2-4,6.5.2,9.5,0-5.7,1.4-10.8,4.4-16.2.8-1.5,1.6-2.4,2.5-5l2.6-7.4c.7-2,1.2-3.1,2.7-3.1,4.4-.2,2.9,8.2-.4,16.7-4.2,5-7.2,9.6-8.5,16.5l.2.9c1.3-.2,3.2.1,4,.8,1,.8,1.7,3,.9,4.3-.8,1.4-3.4,1.1-4.4.4-1.2-.8-1.5-3.3-1.1-4.8l-.7-.8c-2.4,2-2.9,8.4-8.5,6.5-1.2-.4-1.7-2.8-3.2-4.1-2.2-1.9-5.1-2.9-6.4-4.5-1.8-2.2-2.5-6.2-.3-8,1.7-1.4,4.9-1.4,5.7-2.7,1.1-1.8,1.2-4.9.2-6.3-1.2,2.1-3.3,2.5-4.4,2.1-1.1-.4-.9-2.8,0-4-4.2-.8-7.2.7-10.1,4.2-6.5-6.5,5.7-16.2-3.1-27h0v-.2ZM160.6,461.2c1-6.4,5-10.8,8.8-15.8,1.4-3.8,1.8-9,1.7-13.4l-4.7,10.3c-3.5,5.7-7.1,11.6-5.8,18.9h0ZM152,434.8c-3.9,1.7-4.1,4.8-6.6,7.2,1.5-.2,2.4.4,3.3,0l3.3-7.3h0ZM153.2,436.6c-1.9,3.3-2,9-2.2,12.6-.4,4.4-6.2,4.1-7.4,6.1-2.6,4.2,3.7,7.8,6.5,9.2,1.5.8,1.9,4,3.1,4s2.8-.7,3.5-1.5c.9-.9,1.2-2.6.3-3.9-5.8-8.9,4.3-15.7,4-25.4-.6-1.9-6.6-2.6-7.7-1h-.1ZM135.5,435.2c-.3,3.1-2.9,5.6-.9,9,3.2-3.5,6.4-4.2,10.3-4.5l4-4.8c2.6-3.1,5.8-5.3,5.7-9.2-7.2.9-11.9-.8-17.9-4.9l-1.3,14.5h0ZM134.3,420.9l.6-.6-.6-.6-.6.6.6.6ZM174.9,405.6c.4,7.6,5.4,11.1,10.3,14.9l2.4-.2c0-4.9-12.7-4.7-9.5-12.8,4.2-1.3,9.7-.3,14.5-.5,1.2,1.4,3.2,3.5,3.4,5.3.6,6.5,1.1,12.4,4.4,18.7-4.8,1.2-7.2-.5-11.6-2.9l1,11c.2,2,4.7,5.2,2.6,7.6h-3c-.4-.1-.8,1.6-1.2,3.7-5.4-2.7-1.4-10-2.9-12.8-.9-1.6-3.2-1.5-4.8-2.2-2.7-1.4-2.1-6-1.2-7.9,2.3,2.5,4.4,2.3,7.3.7,1.7-.9.9-2.5.9-5.3l-2,.9c.5.9.9,3.1,0,3.4-.9.2-3.1,0-3.9-.4.5-1.8,1.6-2.9,3.3-3.1l.2-3.1c-2.6,2.5-5,2.6-9.7.9l1.7,15.1,7.1,1.5c-.9,5-1.4,9.1.6,13.2l9.7,2.2c.5-1,.2-2.2-.1-2.5-.5-.3-2.3,0-3-1.9,9-2.7-1.7-6.9,0-17.2,4,1.8,7.6,2.3,12.4.6-4.1-6.6-4.9-12.3-5.2-19.4-.1-3-5.4-8.3-8.5-8.2-5.3,0-9.6,2-15.2.7h0ZM133.5,385.8c-2.7-1.8-6.7-4.5-9.5-.8-1,1.3-1.8,4.1-3.7,4.3-4,.4-7.4-7.1-13.7-3.1-.4-2.7-1.6-6-.9-9,1-2.5,5-4.2,5.4-8.1-1.4-1.2-3.6-2.9-6.3-2.8.2,2.9.3,4.4,0,6.2-.2,1.1-2.9,1.2-3.9.5-2.7-2-2.4-5.7-8.1-7.8-1-4-.9-8-3.8-11.6l-1.5-8.1c-2.9-3.6-3.8-6.6-2.4-11.1.5-1.5,1.4-2.5,2.8-2.4,3.2.1,3.7,7.7,8.7,5.3-5.1-11.3,2.3-17.5-2.2-30.1-1.2-3.4,2.1-8.5,2.4-12.1l.8-8.4c3.5-3.1,9.9-7.1,14.5-4.7l12.2,6.4c3.9,2.1,6.6-.6,8.8-3.8,1.1-1.6,4.3-.4,4.7,1.2,1.8,7.2-4.9,14.5-.5,21.4,2.3,3.6,8.1,7.6,5.9,12.9-2.3,5.6-5.9,10.8-6.3,17.2l-10.9,4.8c1.9,4.6-1.4,9.9-2.3,13.6,6.3,8,3.1,14.5,8.2,21.8.1-1,1.3-2.6,2.2-2.5.7,0,2.4,1.3,3.2.8,3.8-2.5,7.9-3.7,12.3-1.3,2.7,1.5,4.9,4.7,6.2,8.2.7-2.7,2.2-4.4,3.6-4.2.3,0,8.9,3.8,10.7,6.9l.7.2,1.5-7.7c3.6-.8,6.2,2.1,6.6,5.6.4,3-1,5-3.5,5.8-2.1.6-4.4-.5-5.3-2.7-.1-.3-.3-.6-.6-.7l-5,2.5c2.9,2.3,3.9,4.2,4.8,7.3,1.9.3,3.9.6,4.9,1.5h-1.6c-1.8.2-4.5.5-5.7-.9-.8-1-.6-3.9-1.8-5.1-1.3-1.3-3-2.6-2.1-4.2.5-.9,1.8-1.4,3.7-2.6l-7.9-3.5c-5,10.9-5.4-4.1-11.1-5.9-2.7-.8-6.7-.7-8.1,1.7-1.1,1.8-1.5,3.7-3.1,4.1-9.8,2.4-8.9-13.8-15.1-26.2.3-3.1,5-8.1,1.8-12,3.9-3.8,9.4-4.1,11.8-7.6l4-9.6c4.3-7,1.6-11.9-3.4-17-2.4-2.5-2.6-10.2-1.4-13.3,1.4-3.6,4-5.8.4-9.9-1.5,3.7-3.9,5.6-6.7,5.6-9.7,0-15.8-12.7-27.4-2.9-1.8,5.1-3.9,14.1-3.7,20,.2,4.2,3.6,8.4.9,13.5-2.8,5.3-1.1,10.2.6,15.7.6,2-4.6,3.7-6.1,2-1-1.1-2.8-2.2-3.9-5.4-5,3.8-.6,7.7.4,11.3,1.3,4.8,2.4,8,4.1,12.5,1.2,3.4.6,7.5,5.6,8.4,1,2.5,2,5.7,5.1,6.5l.2-7.4c3.8-.3,7.6.6,9.6,3.8,2.2,3.5-9.2,5.6-5.5,14.7,4.8-3.1,8.3,4.6,14,3.1,1.4-1.1,2.9-5.8,5.9-5.3,5.2.9,10.4,4.9,14,9,.6.7.3,3.1.8,3.8.5.7,2.7,1.1,3.8,0l-4.5-13.5c5,.2,6.8,4.2,9.5,6.2,8.1,5.7,4.1,14.6,20,12.8-1,1.9-2.3,2.5-2.5,3.2-.2.8,1.2,2.6,2,2.6s1.8-1.3,1.8-2.1h2.4c0,1.8-2.6,5.3-4.6,3.7-3.7-2.9-6.8-6-11.2-7.9-3-1.3-2.9-5.8-4.9-7.5l-7.3-6-1.1,1,1.5,6.8c.5,2.1-1.2,3.8-3,3.8-2.9,0-1.2-5.1-10.9-11.4h0ZM145.3,386.2l1.2-1.4c-1.2-1.5-2.6.6-1.2,1.4ZM173.1,386.6c.9,1.6,4.5.9,4.4-1,0-3.1-1.7-6.4-3.2-6-1.9,1.2-2.1,5.5-1.2,7h0ZM120.1,414.8c-7.2,0-9-11.3-11.8-15.8-2-3.3-6.8-3.9-7.1-8.9l11.1-.6c6.4-.3,11.3,4.1,13.2,9.1,1.9,4.9.8,15.2-5.5,16.3h.1ZM104.6,390.7c-1.2-.2-1.6,1.2-.5,1.7l.5-1.7ZM120.1,413.6c3.7-1.4,5.9-13,3.6-17.1-1.8-3.2-11.8-6.5-17.7-5.4l-1.1,2.1c1.6,1.8,4.7,2.9,5.7,5.6,1.9,5.1,3.9,12,9.5,14.7h0ZM160.2,415.1c3.6.2,7,5.6,11,5.1,1.7-.2,1.6-4,.6-5.2-1.1-1.3-2.4-2.3-4.3-2.8,1.2,1.8,2.9,3.1,3,6.2-3.3-.8-4.4-4.3-7.2-4.8l-5.4-.9c.2-2.6-.7-4.1,1.6-5.5,1.9,2.8,4.4,4.3,7,4.2.8-1.3.1-3.5-.9-4.8-.8-1-2.8-3.7-3.7-.3l-5.5-1c1.1,4.8-2.1,8.2-3.1,11.7,2,3.4,5.6-1,7-2h-.1ZM208.3,458.6c3.8-.8,4.4-3.3,4.4-4.5s-1.3-3.7-3.9-3.1c-3.5.9-3.1,8.1-.6,7.5h.1ZM141.8,407.4c-1.7,2.6.7,4.7,2.6,4.8,1.9.1,4.3-1.3,3.2-4-.6-1.6-5.1-2.1-5.9-.9h0ZM134.8,359.4v10.3c-3.3-.4-4.7-3.4-4.9-6.6-.1-2.1,1.1-4.5,4.9-3.7h0ZM133.5,366.5c.4-2.1,1-4-.8-6.5-2.5,2-1.7,4.7.8,6.5ZM100.2,388c1.4-.1,1.6-3.4.3-4.8-.9-.9-3-2.6-4.8.2-1,1.7,1.6,4.8,4.5,4.5h0ZM118.1,269.5c1.2.3,3.6,0,2.6-2.4-.3-.9-2.5-2.9-3.3-3-1.7-.3-3.1,1.9-2.5,3.1.8,1.8,1.8,2,3.2,2.3ZM140.7,512.5c.7,2-3.2,4.9-4.8,4.3-1.8-.7-5.6-2.8-4.2-5,1.6-2.6,7.6-3.1,9,.7ZM138.6,511.9c-.8-.6-2.5-.8-3.4-.4-2.7,1.2-1,2.4-.2,2.9,1.4,1,2.1.8,3,.3,1.2-.8,1.4-2.2.6-2.9h0ZM126.7,273.8c-.4.8-.9,1.2-.6,3,.2,1,2.3,1.5,3.2,1,.8-.4,1.3-2.5.3-4.4-1.1-2-2.5-.7-3,.3h0ZM133.7,413.4c0,.7.3,1.2.8,1.3,1.8.2,6.3-7.4,2.5-9.9-1.5-1-3,1.2-3.6,2.6-.7,1.5-1.8,3.5.3,4.7.9-1.7,1.1-3.6,1.7-6.4,1.8,2.6,1.1,6.6-1.7,7.7h0ZM175.1,451.1v-1.7c-2.5,1.8-7.9,4.9-7.5,9.4,4.6,3.4,14.7-2.3,14.9-3.5.3-1.4-1.2-2.8-2.5-4.2.9,3.9-1.4,5.8-3.9,6.8-2.6,1-5.3,1.4-7.9-.2,2.5-3.1,4.3-5.4,6.9-6.5h0ZM128.4,259.2l-2.2,3.7,3,1.8,2.2-3.7-3-1.8h0ZM130.7,394.3c-1.5-1.6-1.4-4.6,1.1-5.9,1.6-.8,5.1,2.6,4.2,5-1.2,3.6-4.3,2-5.4.8h0ZM131.8,393.3c.5.7,1.9,2.2,2.9.4,1.5-2.5-1.8-5-3-4s-.6,2.8,0,3.6h.1ZM536.3,867c-.7,8.1-18.5,4.5-19.1,16.9,0,2.7,1.3,5.8-.5,8.2-1.1,1.5-3.5,2.9-5.8,3.7-5.8,1.9-8.2-.7-12.1-4.3l-14.2-13.2c-2.4-2.2-3.5-5-6.4-5.1-3.7-.2-6,1.5-8.1,4.8-2.1,3.2-7.2,1.8-9.4-.6-3.4-3.9-7.5-2.6-12.1-3.9-2-.5-3.3-5-7.7-3.2-2.4,1-5.1-1.7-6.6-3-3-2.6-6.6,1.5-8.8,2.8-6.7-.4-12.5-6.9-15.2-11.1-3.5-7.9-3.8-14,0-21.4-7-15.8-23.6-5.6-23.1-15,.2-3.6-1.3-6-2.5-8.8-4.1-9.9-14.3-8-14.1-15.6,0-4,2.6-5.2,6.1-7.7,2.3-1.6,4.9-7.1,9.1-5.4,2.5,1,6.7,3.2,9.5,4,5.4,7.2,12.9,10.6,21.9,10.1,7.4-.4,12,8,10.5,14.5l4.6,6.1c1.6,2.1,1.7,4.9,4.3,5,5.8.2,3.5-7.8,7.6-8.6,2.3-.5,4.4.7,5.3,3,2.7,6.5,12.2,7.6,15,6.5,1.9-.8,2.4-3.2,3.6-4.8,3.1-4.1,9.6-.9,13.5-1.2,2.4-2.8,3.7-6.3,6.9-6.8,11.4-1.9,13.1,10.2,15.2,12.5,2.8,3.2,6.2,4.4,6.8,9.8.3,2.7,1.8,8.5,4.5,10,9.6,5.3,21.8,15.3,21.2,22.2h0v-.4ZM521.1,850.2c-4-2-11.1-6.5-11.5-11.3-.6-7.1-3.1-8.8-7.6-13.5-2.2-2.4-1.8-9-7.1-10.4-2.3-.6-4.6-1.4-6.7-.2-1.8,1-2.3,3.8-4,5.4-2.7,2.7-13.4-.6-14.8,1.9l-2.4,4.6c-3.6,1.5-9.7,1.3-13.2-.5-3.9-2-6-9.9-9.1-8.4-1.9.9-.3,7.9-7.7,8.5-4.4.4-4.6-3.8-6.6-6.6-2.2-3.1-4.6-4-4-8.6.5-4.1-2.3-7.5-4.5-9.1-3.2-2.3-7.4-1-10.7-1-7.2,0-11.5-7.4-17.1-10.1l-9-4.3c-3.3-1-5.6,4.5-7.6,5.8-2.4,1.5-4.9,2.9-4.7,5.7.1,2.1,1.3,4.3,3.7,5.3,15.3,6.4,10.8,20.6,15.8,22.5,1.6.6,3.4-.2,5.3-.5,3.3-.5,17,7.3,13.9,16.2-4.3,11.2,1.6,23.6,13.5,26.7,4-4.3,9.6-4.2,13.7,0,5.8-2.8,7.6,1.5,11.4,3.5,2.8,1.5,8.7-1.5,11.5,3.8.8,1.5,3.5,3.1,5.4,2.5,1.5-.5,2.6-1.5,4-3.6,2.2-3.4,9.5-4.3,12-1,5,6.6,10.9,10.7,16.9,16.1,2.1,2,3.5,5.3,6.3,5.2,2.6,0,6.5-.6,8.8-3l1-11c3.1-7.5,10.8-8.2,17-10.9,5.7-2.5-5.6-16.5-11.7-19.6h-.2ZM409.5,776.1c5.5,2,8.5,5.7,12.6,10.3,3.2,3.5,10.2,6.2,14.5,6.6,3,.2,3.6-4.3,2.9-5.9-.9-2.1-1.8-4-4.8-4.9-6.9-2-1.1-11.5-8.6-12.7-10.7-1.7-8.2-13-19.3-9.5-3,.9-4.6,4.5-4.9,8.5-.4,4.4,2.6,9.3,6.6,8-.7-.9-3.4-1.7-3.6-3.2-.5-2.9-.8-7.1,0-10,9.3-7,10.1,5.4,23.9,9.6-1.9,13,11.1,9.4,8.6,17.5-16.6,1.4-17.2-15.7-28.1-14.5l.2.2ZM441.1,801c-.9-3.6,5.5-7.8,8.3-5.6,3.4,2.6,4,8.7,2.1,13.2-4.4-.5-9.3-3.2-10.4-7.7h0ZM449.8,807.3v-11c-3.3-.9-4.8,0-5.5,1-2.3,3,0,7.5,5.5,10h0ZM612.2,862.1c-2.3-2-2.3-8.8-.5-11,2.6-3.3,8.7-2.8,12.2-.8,5.9,3.4,13-3.7,16.7,3.4-5,9.8-18.5,12.7-28.4,8.4h0ZM637.9,856.1c1.1-.7.5-3.5-.4-3.5l-4.3-.2c-2.3,0-7,2.6-9.1.6-2.7-2.6-5.8-4.1-9-2.7-2.7,1.2-3,5.2-2.5,7.9,1.1,6.6,14.4,5.1,25.4-2.1h-.1ZM57.3,334.3l.3,1.2c2.9,0,7.1-2.1,9.6.7l-1.8,15.1c-.5,4.3-2.9,4.9-.4,9.3,2,3.4-.5,10.4-3.1,13.5l3.1,7.8c-3.9,2-5.9-1.1-8.4-2-4.8-1.7-8.7-3.7-12.2-7,0,.7-.7,2.6-.3,3.3,3.4,3.2,7.7,3.6,12,5.6,2.9,1.3,6.8,4.5,9.8,1.1,1.6-1.7.6-5.8-2.2-7.6,5.6-6.7,3.2-13,2.9-19.8-.2-3.9,4.6-10,.7-14.8,2-1.2,2.9-3.2,2.3-4.4-2.1-4.2-6.7-4.2-12.2-2.2h0v.2ZM35,316.3c-2.1-6.8-7.9-10.8-5-17.4,1.7-3.8,4.7-3.9,8.3-3.4,2.4-5,5.2-7.1,10.2-9.3l13.1-11c1.7,4.2,2.8,9.4,2.2,13.4l-4.9,9.4c-1.7,3.3.4,8.2-1.2,11.9-1.5,3.4-7,5.5-8.8,8.8-3.8,6.6-12.6,9.9-14.5,8.9-2-1-3.5-2.9-3.6-5.2-.1-2.3,1.5-4.4,4.2-6h0ZM35.7,317.8c-2,1.9-3.2,2.9-3.1,4.5,0,1.4,1.2,2.8,2.5,3.6.5.3,10.1-2.6,12.1-9,7.4-3.9,11.7-11.5,8.8-20.4,6.2-4.4,7.2-11.6,4.3-19.1l-10.8,10.6c-2,1.9-6.5,1.3-7.6,4.8-.6,1.7-1.5,3.3-2.7,4.4-.9.8-3.9-.5-5.1,0-9.6,4.4,5.9,16.6,1.5,20.7h0ZM24.8,350.1c-5.6-8.2-3.4-10.6-.2-19.9,1.6-1.1,4.8.4,5.6,1.9,1,1.8.2,4.6,0,6.5l-.8,9.2c-1.6.6-2.8,1.5-3.8,2.5l-1-.2h.2ZM23.2,342.4c.4,2.3,1.5,5.6,5.5,4.7-.8-8.8,2.2-17-2.3-15.4-.4.1-3.7,7.7-3.1,10.7h-.1ZM23.9,363.8c1.4,2.6,1.3,4.8,5,4.6,2.5-.1,5.1-1.1,4.4-4.1-.9,1.8-2.7,2.9-4.3,2.5-3.3-.9-6.1-7.1-4.8-10,.6-1.3,0-3.5.1-4.9-3.2,3.5-3,7.5-.6,11.9h.2ZM49.6,347.5c.5-1.5,0-2.6-1.1-3.6l-1.2,4.1c.6.4,2,.2,2.3-.5ZM91.5,441l-.5,4.6-5.8,3.1-7.3,7.6c-3.5,3.7-1.4,10.3-2.5,14.9-7.3,5.5-8.2,13.7-8.3,22.5,0,4.2-5.4,11.6-9.3,12.1-5.8-.8-13.4-2.8-17.6,2.1-1.1,2.7.7,9.6-4.6,10.7l-8.2-2.8c-.6,3.5-2.1,6.3-4.6,6.5-6.4.4-6.9-7.2-11.5-7.4-2.5,1.9-5.3,3.5-8.2,2.3-6.7-2.8.3-11.8.3-17.5,0-9.8,10.1-9.9,9.9-13-.1-2.1-4.3-5.4-2.8-8.2,2.4-4.4,10.9-.6,11.5-3.7,1.9-9,12.4-9.3,13.9-8.4,1.2.8,2.7,2.5,4.3,4.6,3.3-2.9,6.4-4.5,11-4,5.9.6,4.9-12.5,19.6-15.6,2.6-1.9,6.8-6.8,10.2-8.2,1.4-5.8.7-12.9,6.5-16.9,3.7,5.4-.8,12,4.3,14.5h0l-.3.2ZM90.8,443.3c-4.2-3.6-4.2-7.4-3.6-12.6-4,4.1-2.9,9-4.8,14.1-4.9,1.2-7.4,6.9-11.3,8.6-5,2.2-10.2,3.2-12.4,9.4-.8,2.2-4.2,6.5-6.5,6.5-4,0-6.4-.9-9.5,2.5-.7.8-3.8,1.1-4.4.3l-2.3-3.5c-3.5-.2-7.8.7-10.9,1.8-.7,1.9-.9,5.1-2.8,6.4-4.4,2.9-8.6-.6-9.9,2.6-1.1,2.7,3.6,5.1,2.8,8.1-1.1,4-8.2,4.5-8.7,7.9-1.5,11.4-7.6,18.2-2.2,20.3,1.5.6,3.1,0,4.7-1.5,5.3-4.9,11.1,10,14.2,6l5.6-7.3c1.5,2.3,6.1,4.7,7.8,2.6,2.1-2.8,1.4-8.4,4.5-10.4,5.8-3.7,12.2-2.5,18.6-1.1l5.5-7.8c-1.8-8.8,1.5-19.4,7.2-25.3l3.9-16.2c2.1-2.7,5.7-3.8,7.4-7.8,1.5-1.1,5-1.2,7.1-3.9h0v.3ZM98.9,420l-5.2,5.1c-1.5-.7-1.3-2.6-.8-3s1.9-.5,3.1-2.2c-2.6-1.7-5.5-5.7-3.2-8.4,1.1-1.3,9,2.1,9.3,5,.2,1.8-1,2.8-3.3,3.5h0ZM100.6,418.3c-1.5-4-4.1-4.7-7-5.2,1.2,3.4,2.8,6.2,7,5.2ZM310.6,731.5c-7.1,3.9-8.2-5.8-17.8-10.4l1.3-9c-6-9.7,2.1-12.6,1.4-21.3-.4-5.2,3-7.3,5.6-11,1.7-2.3.9-7.4,5-8.9,3.2-1.2,6.4,1,8.4,2.7,3.4,3,3.1,10.8,1.5,14.3-.5,1.1-3.5,1-4.9,2.3-6.3,5.8,4.2,15.9,4.6,18.7.5,2.9-1.2,4.4-2.4,7.2l.5,8.8c.1,2.8-1.3,5.4-3.2,6.5h0ZM310.4,728.8c3.8-4-1.7-9.4,1.9-13.9,1.4-1.7,2.1-3.8,1.8-5.8-.5-2.9-8.6-6.1-5.4-19.5,4.1-2.2,7.3-4.2,6.9-9.7-.3-4-3.5-7.9-9.2-8.4l-2.4,7.1c-5,5-5.6,9.7-6.8,16.5-.6,3.8-5,8.2-2.3,12.7,2.3,3.8,3,7.9-1.5,12.3,5.1,1.9,7.8,3.7,9.9,8.2.9,2,5.6,1.9,7.1.4h0ZM310.2,752.2c-.9-2.6,3.6-7.9,7.3-7.6,6,.5,8.6,11.5,7.1,13.5-2.7,3.5-13.5-3.5-14.4-5.9h0ZM323.4,757.2c-.6-2.7-.7-5.8-2.2-8.2-1.5-2.3-6.3-2.6-8.3-1-3.8,2.8,2.9,8.7,10.5,9.2h0ZM347.9,776.6c.7,2.8,4.5,7.8-.4,10-4,1.8-10.2,0-13.8-2.7-3.4-2.6-4.7-7.7-6.1-12.5l-3-2.7c-.9-.8-.5-3.5.6-4.3,2.9-2.1,6.5-.3,9.3,0,7.6.8,11.1,4.4,13.2,12.3h.2ZM345.8,777.8l-3.5-9.5c-5.5-.5-10.1-2.3-15.4-4.1-.2,6.9,4.2,11.2,6.6,16.4,1.6,3.4,11.4,6.8,13.9,3.8,1.5-1.9-.4-3.8-1.5-6.7h-.1ZM577.4,854.2l11.4,15.8c-6.6,5.2-14.3,5.1-20.9,1.2-6.1-3.6-9.1,3.5-14.8.6-2.2-1.1-6.7-3.8-4.6-7.4l9.6-6.5c1.8-1.2,2.9-3.4,4.4-4,2.3-1,4.8,2.6,6.6,2.2l8.2-2h0ZM586,869.6l-9.1-13.5-8.6,2.2c-7.7-5-8.6,1-18.4,6.9-.7,2.4,3.8,6.8,6.1,5.7,11.8-5.7,17.6,4.7,29.9-1.2h0ZM980,39.9l.7-1.8-2.6-.7c-1.2-.3-2.6-3.5-.9-4.1,6.1-2.1,13-1.8,19.2-1,1.7.5,3.2,5.8,1.8,6.7-2.2,1.3-5.5-.5-7.2-.6l-.5,2.2c3.2-.2,5.8.4,9.6,1.5,1.2-2.9.9-6.7-1-9-2-2.4-5.6-4.2-9.4-3.7l-10.1,1.4c-3.1.4-5,1.6-5,4.1s2.4,4.1,5.5,4.9h0ZM1002.5,44.7c1.7-2.4,8-.7,8.1,2.8,0,3.7-3.3,3.7-5.2,3s-4.7-3.3-2.9-5.8h0ZM1008.2,48.5c0-3.1-3.5-3.3-4.4-2.6-.6,3,4.2,4.2,4.4,2.6ZM373.2,750.9c-.7-4.8,2.6-9.8,7.4-9.7,3.1,5.4,11.8,4.5,11.8,13.8s-2.3,6.4-4.8,7.1c-3,.9-4.5-1.8-7.5-2.9l-4.9-1.9c-2-.8-1.6-3.8-2-6.4h0ZM376.6,755.6l4.4,1.2c2,1.9,3.5,3.2,5.6,3,4.8-.5,3.6-10.2,2-10.8l-5-1.9c-2-2.3-3.1-4.5-5.3-3.3-4.1,2.1-2.5,11.6-1.6,11.8h-.1ZM331.2,225.8c-1.8-3.4,11.5-14.9,14.8-10.3,2.9,4,.5,7.7-3.5,9.8-3.3,1.7-9,4.7-11.3.5h0ZM334.3,226.2c6.7-.6,12.2-3.9,11.4-7.9-.3-1.5-1.8-2.1-3-2-2.8,0-12.8,6.2-8.4,9.9ZM126.7,246.4c.5.3,1.5,0,2-.4l2-2.1c1.4-1.5.2-3.6-1.3-3.7-1.1-.1-2.4.8-3.3,2.5-.9,1.6-.6,2.9.6,3.8h0ZM126.4,523.3c1.6,3.2-10.2,2.9-10.9,1.8-.6-1-.4-3.2,1.8-4.2,2.1-.9,7.4-1,9.1,2.4h0ZM123.8,523.3c-1.1-1.2-4.3-1.2-6.4-.2,0,0,.3.3.7.7,1.8,0,3.8.4,5.7-.5h0ZM314.7,280.8c-.2-1.5.8-2.4,1.5-3.9,5.1-10.9,2.7-20.3,8.1-26.9.9-1.1,12.9-4.8,14-4.4,3.1,1,5.4,12.1,16.7,16.2,3.3.6,5.4,1.4,8.6,3.4,2.9,1.9,7.8,1.5,9.6,4.9,1.5,2.8,4.3,8.6,1.6,11.3-4.7,4.7-17.5-1.5-20.7,3.3s-3.7,5.1-5.3,7.1c2.8,9.2-1,9.5-3,12.4-3.9,5.3-4.6,15.5-8.6,22.3-1.6,2.8-7.6,2.2-10.5.3-5.6-3.6-5.6-10.4-4.9-18.5-3.8-4.5-4.9-10.1-2.4-15.8,3.2-7-4.1-8.2-4.6-11.8h-.1ZM316.1,281.3c12.7,6.1-1,17.1,7.7,26.9.6,4.4-.9,10,1,14.5,1.1,2.7,7,4.5,9.2,3.1,4.1-2.6,3.8-7.3,4.9-11.2,3.7-12.9,9.2-14.5,9.2-17.4s-1.6-3.5-1.7-5.1l5.7-8.1c5.6-7.8,21.1.9,21.8-4.9.4-3.2-1.9-6.1-3-9.2l-24.1-9.7c-1.2-2.6-3.2-5.5-6-7.6-1.1-.8-1.9-4.7-3.2-4.8-.4,0-10.9,2.4-12.3,3.9-4,4.4-2,19.3-9.2,29.6h0ZM348.6,397c-1.6-1.9-3.1-13.9-2.7-15.2.4-1.5,2.5-4.6,5.1-3.3,6,2.9,8.5,14.3,4.7,20.1-1.9,2.9-5.9-.1-7.1-1.6h0ZM355.6,396.1l-2.6-15.2c-1.4-.2-2.9-.3-4.9,0,.3,5.2.8,10.2,2.3,15.2.5,1.8,5.4,1.3,5.1,0h.1ZM353.4,406.5c.1,1.9-.8,3.8-2.6,5.1-1.8,1.2-3.6-.6-4.4-2-1.3-2.2-1.2-4.6,1.9-5.8,3.1-1.2,5.1.5,5.2,2.8h-.1ZM349.7,404.5c-2.5.2-1.7,5.3-.3,5,2.8-.7,1.7-5.1.3-5ZM758.6,880.5c3.9,4,4.3,12.7,3.1,17.7-1,4.3-6.8,3.1-9.2,4.2-6,2.9-10.5,4-16.9,1.8l-11.7-4.1c-7.3-2.5-10.1,1.4-15.3,4-3.8,2-8.4.3-12.2,4.6l-11.3,4.6c-2,.8-3.2,3.1-5,3.1-4.4,0-7.9-9.2-14.1-4.8-6.4,4.5-17.1,3.3-19-4.7-.3-2.3,4.8-7.7,2-10l-8.3-6.8c-2.7-2.2-13.8,1.2-15.4-6.7-.6-2.9,1.1-4.5,3-6.8s1.6-8.5,4.5-10.2c17.3-10.5,29,4.2,36.4,3.4,3.4-.4,3.6-4.1,5.4-5.7,6.7-6,22.3,12.8,35.8-4.4,2.5-3.2,6.5-3.7,10.4-4.5,6-1.2,6-10,12.4-10.8,1.7-.2,4.8,1.4,5.5,3.6l3.9,12.1c3.1,3.3,6,5.2,6.5,10.1.5,5.4,6.3,7.1,9.6,10.5h0v-.2ZM753.1,878.2c-4.8-3.1-6.9-8.1-6.9-14.1-5.7-2.5-8.3-7-8.4-13-.8-2.4-1.7-4.7-3.5-5-6.5-.9-4.9,9.9-15.7,11.2-3.7.5-6.4,2.7-8.7,5.2-12.8,14.2-29-.7-33,2.1-2.6,1.9-3.8,5.6-5.9,6.1-10.7,2.7-15.7-9.7-32.8-4.6-1.3.4-3.9-.3-4.7.9-2,2.7.4,6.2-5.9,12.5-1.4,1.4-.4,4.2.6,5.1.9.9,3.4,2.7,5,2.5,6.5-.8,9.6,2,14.2,5.3,3,2.2,5.8,3.8,4,8.6-.8,2.3-1.8,4.9-1.9,8.3,12,6.9,19.2-6.9,28.4,3.8,3.6,4.1,6.1-1.7,8.3-2.6l15.4-6.6c5.5-2.3,8.7-2.2,13.9-6.2,5.9-4.5,19.1,9.8,37.3,2.6,1.8-.7,5.5.4,6.8-1.6,2.8-4.2.8-16.8-6.2-20.6h-.3ZM668.3,845.4c2.6.8,7.7,5.2,7.4,8.3-.5,5.8-8.5,7.5-12.8,5.8-8.8-3.5-16.3.3-17.2-6.3-.6-3.9,2.4-4.1,5.6-5.3,5.2-2,11.1-4.3,17.1-2.5h0ZM651.3,849.7c-1.7.8-3.9.3-3.2,3.6.2,1.2.8,2.5,3.1,2.7l8.9.9c3.8.4,12.4,1.9,14.1-1.4,1.7-9.1-13.9-10.4-22.9-5.8h0ZM876.1,893l-10.4,1.5c-4.8.7-10.1,6-15.3,4.1l-13.3-4.9c-9.8-3.7-13.8,10.5-20.2,10.3-9,0-9-9.5-16.9-5.1-6,3.4-12.6,1.5-15.4-4.8,2-5.1,1.7-9.9,1.3-15.4,1.5-3.2,2.3-8,4.6-10.3,4.6-4.7,13.6,6.9,21.9,5.3,11.3-2.1,16.1-10.2,23.2-6.5,5.9,3,11.7,6.1,18.3,8l8.4.2c5.3,3,11.1,2.2,16,4.7,3.8,1.8,1.4,12.5-2.3,13h.1ZM875.8,880.4c-6.5,1.6-9.7-2.7-13.7-3.1-4.7-.5-8.8,1.5-12.9-2.5l-9.4-2.9c-2.5-2.6-7.5-5.3-10.9-3.1-7.3,4.9-15.8,9.3-24.3,5.4l-12-5.5c-1.9,3.5-5.6,8.8-4.6,12.6,1.3,5.1,0,9.1,0,13.9.2,4.8,8.6,4.2,11.6,2.4,4.2-2.5,7.8-1.9,10.5,1.6,2.3,2.9,7.6,4.8,10.7,1.7,2.7-2.7,4.6-7.2,9.4-8.5,12-3.1,19.2,7.8,28.8,2.7,8.4-4.5,15.7,0,19-7,.9-2,0-8.2-2.1-7.7h0ZM378.7,318.5l10.3,6.1c3.7,2.2,4.7,3.5,6.9,6.3,2.3,2.9,6.5,4.4,7.3,7.2,1.4,4.9-.1,8.3-1.2,12.4-2.9,10.4-6.9,21.8-15.9,18.3-1.4-.5-1.9-4.1-3.6-5.1-1.9-1-4.5-.4-5.4-1-3.1-2.2.4-8.3-.6-10.1-1.3-2.4-6.2-.4-8.8-1.8-2.5-1.4-.5-6.4-6-9.2-4.2-2.1-12.7,4.1-13.4-.9-.6-4.8,5-7.4,6.9-10.4,2.1-3.3,3.8-5.2,7.2-7.2.9-1,.5-4.3,1.5-5.2,4.2-4,8.1,3.2,14.8.7h0ZM373.5,321.4c-2.2-.4-5.3-5.1-9-3,.4,1.3.4,6.1-1.2,6.7-3.4,1.4-11,9.9-13.8,15.1,3.2,2.5,6.5-1.8,8.6-1.8,6,0,10,6.2,11,11.4,3.4-.5,9.4-.6,9,2.3l-1,8.6c2.2.3,5.7-.1,7.2,1.7,1.4,1.8,1.7,3.7,2.6,4.3,1,.7,3.9.7,4.9,0,6.2-3.9,5.6-10.6,7.7-16.5,1.8-5.3,5-11.9-1.7-15.6-2.2-1.2-5.4-1.7-5-6.2l-7.9-4.2c-3.5-4.1-6.8-3.1-11.5-2.9h0ZM382.1,311.5c-3.1-1.5-.5-7.2,2-9,1.8-1.2,2.9-2.5,4.6-2,1.3.4,4.2,2.5,3,4.4-1.6,2.4-6.3,6.8-9.6,6.5h0ZM383.9,310.4l5.5-4.1c1-.8.5-3.2-.3-3.4-.5-.1-2.2-.4-3.4,0-2.5.9-3.1,4.6-1.8,7.5h0ZM944.9,866.8c-1.4.8-5.7,0-6.3,2.6-1.5,6.8-5.8,10.6-13.2,9.7-16.8-2.1-17.1,7.2-26.2,5.8-3.4-.5-5.6-2.7-6.1-5.4-1-5.3,10.6-12.3,18.8-16.3,5.1-6.8,8.5-10,17.7-9.7,8.7.3,14.4-14.5,22-10.3,7,3.9,2.5,18.5-6.7,23.6h0ZM949.9,844.6c-5.4-2-10.5,12.8-30.1,11.9l-6.9,8.8c-6.4,2.7-15.3,6.4-17.6,13.5-1,3.1,4,4.8,5.9,4.5,2-.4,4.5-.7,6.4-2.3,7.9-6.8,25,0,27.3-7.1,2.1-6.5,4.4-7.4,10.7-9.6,4.8-1.7,12.2-16.8,4.5-19.6h-.2ZM389.6,124.7c4.9,2,4.8,5.9,6.8,9.9,2.2,4.4,6.1,6.8,4.9,12.9-.9,4.3,2.5,8.8,5.9,10.5,3.7,1.8,9.8,1.8,12.5-1.9,3.1-4.1,6.4-6.4,11.1-6.4l.2-2.3c-5.2.9-9.1,2.8-12.6,7.5-2.3,3.1-7.9,3-10.6,1.4-8.1-4.7-3.5-13.9-5.6-16.5-2.5-3-4.8-5.7-5.4-9.8-.8-5.6-7.3-5.6-8.7-9.8-.8-2.6.9-4.6,1.6-6.6,5-14.3,17.2-3.1,29.4-11.1,8.1-5.3,2.7-18,10.2-18s9.7,10.6,23.6,6.5c3.5-1,7.2-2.2,7.5-6.4.4-4.7-5.2-7.3-7.4-9.7.7-4.5,7-5.9,10.6-5.7l11.9.7c8.2-15.5,14,5.9,27.9,1.5,6.4-2,7.9-9,12.2-13,7.6-7,20.3-6.7,29-2.2,7.1,3.7,12.4,3.3,19.8,2.5,8.8-1,18.2-1.3,26.1-6,1.5-.9,5.1,0,6.1-2.3,1.8-4,5.3-7.3,7.8-10.8,4.7-6.6,10.4-9.7,19-9.2,2.7.1,7.3-2.7,10.3-.2l8.7,7.4c9.7,8.3,22.5,6.1,25.4,1.8.9-1.4,3-5.9.7-6.4l-16.7-3.7c0-6.8,6.2-10.9,13-9.6,6.4-1.9,11.8-5.8,16.1-11.2,6.3.7,11.3-1.1,16.2-4.7l14.7.9c7.8-3.3,15.1-4.1,23.3-.4,5.3,3.9,11.7,4.7,18.6,3.1,4.2,4.4,9.2,6.2,15.2,5.3,6.3,1.9,13,4.5,17.7,8.5,5.3,4.5,3.3,9.3,1.6,14.3-.5,4.6,6.8,6.8,8.8,9.2,2,2.6,1.9,6,3.6,7.4,2.3,1.9,20,4.6,24.2,3.2,6.2-2.1,10.3-.2,15.7,2.8,8.4,4.6,19.9,7.4,29.4,5.8,5.7-.9,8.3-1.9,13.7,1.1,6.4,3.6,16,0,21-5.2,3.7-3.9,5.6-4,10.7-5.4,4.8-1.3,11.5-4,15.6-7.2,6.2-5,13.8-9.3,21.7-4.5,2.1,1.3,3.9,5,7.8,3.4,6.5-2.7,11.4,9.1,14.6,13.2,4.8,6.2,18.3-8.8,19.7-2.7.8,3.5,4.4,4.9,5.5,6.8,2.7,4.6,4.8,4.8,8.9,6.8,9.6,4.6,20.1,6.6,29.8.9,1.8-4.6,5.4-8.2,10.1-9.7,6.2-7.2,14.5-8.6,23.4-8.3,7.6.3,12.9,1.5,18.1,7.5,2.7,3.1,9.8,7.5,14,6.1,10.5-3.5,23.4-6.4,29.2-1.5,6.9,5.8,2.2,16.3,16.8,18.8,5.3.9,8.2,2.5,12.8,4.9,2.7,1.4,9.6,1.4,12.8.3,6.5-2.4,15.1-.9,17.1,6.6.8,3,.8,5.8,5.4,5.9l1.5,16c.2,2.5,3.3,4.7,1.5,7.5-1.1,1.6-3.6,1.7-6.2,2.7-6,2.3-6.1,12.9-1.2,16.4,2,1.5,3.2,2.2,3.6,3.9.5,2-.4,3.2-1.7,5-2.9,4,2.1,10.1-1,15.9-2.7,5-20.4,3.1-20.3,18.3.5.2,1.1.2,1.3,0,1.5-5.7,3.9-10.5,11-12.3,5.1-1.3,11.6-5.4,11.3-11.5-.2-4.4-1.6-8.4.5-13,2.4-5.4-5.6-5.9-6.3-14.1-.8-8.7,8.5-6.5,10.7-10.8,1.8-3.3-.2-6-1.4-9.1-1.7-4,0-8.8-.2-13.1-4.8-2.6-5.8-6.3-7.7-10.5-3.3-7.2-13-8.2-19.7-6.1-6.6,2.1-10.2.4-15.2-2.4l-14.3-4.6c-3.5-1.2-4.3-5.4-5.1-8.8-2.9-12.2-20.2-13.2-34.2-7.3-5.4,2.3-12.5-2.3-15.7-6.4-3.2-4-6.9-4.5-10.8-5.7-12.5-3.7-22,.4-31.8,7.7-4.1,3.1-7.2,6.9-11,10.2-7,6.1-18.8.9-26-1.2-4.6-1.3-5.5-2-8.2-5.5l-6.6-8.2c-4.6-5.7-9.4,4.5-19.4,4.6-.8-5.6-3.7-7.7-6.7-11-2-2.3-3.5-4.8-7.3-3.8-4.5,1.1-6-1.3-9.3-3.7-3.6-2.6-12.6-2.2-16.2.5-8.9,6.7-18,11.7-28.6,13.1-5.7,6.2-14.3,13.1-23,9.2-5.7-2.6-9.7-3.1-16.2-2-17.8,3-34.5-10-38.4-9.3-10.4,1.7-27.2-.2-28.4-1.3-1.4-1.3-1.4-4.7-3.1-7-2.3-3-7.9-3.8-9.2-8.6,3.4-4.9,3.5-11-2-15.3-4.5-3.5-12.5-9.5-18.5-8.9-6.9.8-9.3-2.7-14.2-4-6.8-1.8-13.4-1-20.3-5.2-7.2-4.4-17.1-.2-24.8.9-4.4.6-10-3.5-14.2,0-4.3,3.5-10.7,3.5-15.4,4.7-5.6,4.6-10,10.1-18.7,10.3-5.7.1-13.4,5.6-10.8,12,4.3,4.6,14.7,1.8,16.7,5.3,2,3.5-7,9.2-17.7,5-3.9-1.5-9.2-5.5-11.8-8.5-4.3-5-7-4.7-12.7-4.2-9.4.8-17.1,4.4-23.1,12.5l-7.4,10c-.8,1.1-4.9.6-6.1,1.3-7.4,4.4-16.1,4.2-24,5.1-7.4.9-12.9,1.2-19.8-2.4-10.3-5.4-23.7-4.2-31.6,4.7-2.8,3.2-3.7,7.8-7.9,10-4.1,2.1-11.2,1.8-14.7-1.6-2.6-2.4-4.2-4.7-7.3-4.6-3,0-5.7,1.3-7.5,4.1-3.2,4.9-15.2-4.2-24,6-4.2,4.9,8.2,6.1,6.3,13.6-7.2,6.1-17.6,4.5-23.9-1.8-2.1-2.1-5.6-1.8-7.4-1-6.3,2.9-2,13.4-9,18-8.8,5.9-22.5-4.7-30.4,12.5-1.7,3.7-2.6,9,2.2,11h0v-.2ZM508.2,163.3l-10.9-1.5c-11.2-5.8-4.1-18.3-17.5-23.7-4.9-2-9.1.7-13.6,2.2-4.6,1.5-10-.7-14.1,3.2-1.7,1.6-3.6,5.3-6,5.1l.3,1.5c2.1-.5,4.4-4.9,7.1-5.5l17.4-3.7c3.8-.8,7.3-2.1,10.9,0,7.9,4.7,4.6,20.3,16.4,23.2,2.6.6,8-1.9,9.9,1.7,2.5,4.6-1.5,10.2-4.1,13.9-1.8,4.6-1.7,8.8,2.3,10.4-2.6-4.7-1.5-9.7,2.1-14.2,2.6-3.3,3.8-10.1-.2-12.5h0ZM1336,473.6c-8.1-4-8.6-15.4-3.3-22,3.7-4.6,5.3-9.7,4.3-15.6-.7-4.1,1.2-6.9,2-10,1.5-6.2-12.4-8-5.2-24.4,2-4.5-1.3-7.3-3.1-10.4l-7.8-13.4c-3.7-6.4-3.4-13.7,1.3-19.2.4-7.2-6.1-11-13.2-10.6-1.8-5.2-1.6-12.2-5.7-15.8-5.7-4.8-27.4-2.5-32-16.8-1-3.1-.9-7.9-5.4-8.5-3.3-.5-6.9-.3-9.9-2.6-2.1-1.6-5.7-.5-6,2.6-.3,3.5-1.2,8.6.6,11.8,6.5,11.6,15.2,10.3,11.8,22.1-.7,2.4,1.8,7.1-1.1,10.1-.6.6-.4,3.3.2,3.6l3.7,2.4c0,5.1-2.4,10.9.8,15.4,2.9,4,8.2,7.5,10,12.4s-3.3,8.4-5.3,11.5c-2.4,3.8-2.8,7.2-7.8,9-2.3.8-3.4,4.6-4.5,6.3-3.1,4.7-7.5,2.8-11.6,1.1-3.9-1.6-8.8-1-11.9-4.8.2-6.7-.4-14.3-7-17.8-2-1.1-7-.7-8.4-2.4l-8.6-10.6c-2.4-2.9-5.1-3.1-9.2-2.8-6.8.6-8,9.7-13.1,11.3-3.3,1-6.8-.9-10-1.3l-11.2-1.3c-2.3-.3-6.9,3.9-8.7-.2-3-6.9-7.2-13.3-14.3-17.1-4.5-2.4-7-9.5-3.3-13.3,3.2-3.3,6-6.1,6.2-10,.4-8.6-5.7-11.4-10.1-18.2l11.1-17.5c1.7-2.6,4.2-3.4,3.8-6.9-.3-2.6-1.5-4.7-4.4-6.3-4.5-3.1-8.6-6.5-11.1-11.6-5.5-.8-8.1-4.6-7.3-10.7,0-2.3,1.8-8.3-.6-9.9-5-3.4-6.7-7.6-9.4-12.4-3-5.2-4.1-8.1-1.4-14.1,1.9-4.2,3.8-7.9,7-12,4.4-5.6.9-21.6,18.7-29,2.5-1.1,5.6-4.6,9.4-3.6l10.5,2.7v-1.5c-3.7-1.3-9.1-4.4-13.4-3.2l-11.2,6.3c-15.5,8.7-9.8,23.2-20.6,34.6l-3.3,7.6c-.8.6-1,2.8-1.2,3.8-.4,3.2,3,6.7,4.3,9.8,2.3,5.3,4.3,9.5,9.9,12l-.7,10.5c0,5.4,2.4,9.9,8.1,10.5,2.6,5,6.4,8.5,11.1,11.5,2,1.3,3.6,3.1,3.8,5,.2,2.4-2,3.7-3.3,5.7l-9.2,14.5c-1.2,1.9-2.3,3.8-1.9,6,.5,2.7,9.4,7.1,9.7,15.2.2,4.8-3.2,7.9-6.9,11.3-4.1,3.7-1,10.6,3.4,13.4,17.9,11.4,11.2,24,24.6,19.6,6.8-2.3,16.3,5.1,24.3,1.3l7.2-8.9c6.1-4.3,14.3,0,16.9,6.4,4.4,11.1,13.2,2.9,16.4,12.4l1.4,4.2c.8,2.3.5,4.9-.2,7.4,5.6,5.5,18.3,9.8,25,7.1,2.1-.8,2.8-5.4,4.7-6.8,4.8-3.5,7.4-5.4,10-10.8,1.7-3.5,7.1-7.4,5.5-12.6-2.7-8.9-15.9-13.9-11.1-22.4,2.6-4.5-1.2-5.9-2.2-8.8-1.5-4.8,0-11.5.9-16.3,1.7-10.3-19-13.8-13.4-32.5l7.9,2.9c2.5.9,4.8.3,6.8,1.4,1.7,1,2,17.9,25.7,21.4,3.8.6,7.1,3.3,11.2,2.3l1.6,8.8c2,11.4,12.8,8.3,14.9,12.3,2.2,4.2-9,9.5-.2,24.7l7.7,13.5c2.8,4.9,4.5,7.8,1,13.4-1.8,2.9-.8,9.9,1.8,12.2,2.5,2.3,4.1,3.4,4.9,6.6.5,2-2.3,3.8-2.3,6.3v13.6l-7,12.2c-2,6.5.9,16,7.3,18.5,2.3.9,4.2.7,5.4,2.1.9,1,1.1,5.1-.7,5.1-3,0-5.9-2-8,0-1.4,1.4-3.1,4.6-2.4,7,1.9,7.3-3.2,17.4-9.6,20.5-2.6,1.3,0,5.8-.4,7.5-3.1,10.4,1.4,19.5-2.5,21.4l-5.6,2.8-6,10.1c-4.4,3.8-7.4,7.6-7.8,13.7-.3,3.9-4.2,5-6.4,6.1-2.7,1.5-8.4,0-8.9-2.6,1.1-6.1-.6-8.5-3.5-13.3-1.9-3.1-1.3-7.4-6.7-8.4-6.2-1.2,3.8-10.4-7.4-18.1-4.1-2.8-7.6-1.1-13.4,1.5-.8-6.9-1.6-14.8,2.2-20.6,1.9-3,2.3-4.3,1.6-8.6l-1.9-11.9c-7.5-14-26.7-.6-29.6-14.2l-11.1-.2-3.2-17c-1-5.1-4.2-11.9-8.9-14.2-3.8-1.8-6.1-3.1-6.2-8l-8.2-1.9-13.4-8c-5.3-3.2-13.7-4.5-18.9.5l-9,8.6c-3.3,3.1-4.8,6.3-10.8,5-4.4-1-9.4.8-11.5,5.5-5.9,13.2,3.5,20.8-.8,29.2-.3.6-.9,1.4-1.5,1.8.8,6.8-2.2,11.4-7.7,15.4-2.6,1.9-1.4,9.1,1.1,10.9,9.5,6.8,3.7,16.9,8.5,25.4l3.3,5.8c1.8,7.6,8.7,11.6,16.4,10.6,4.2-.9,8,0,10.5,3.6,5.3-1.6,8.9.5,11.2,5.3,3.6,2.4,11.1,4.9,11.5,9.5l1.4,14.2c.5,4.7,1,12.5-3.6,15.3-3.2,2-9.5.6-11.5,4.6-5.2,10.2-13.4,9.3-13.8,17.3-.5,8.5-13.2,23.4-.5,50,1.8,3.9,5.3,8.8,2,13.5-2.1,3-7,5.3-10.2,7.2-8.8,5.2-2.8,14.5-9.3,14.8-.2.2,0,.5,0,.7.3,7.3-14.6,10-15.3,21.2-.3,5.3-4.4,8-7.8,11.7,2.2,4.2,5.6,12.8-.4,15.5-3.7,1.7-6.7,4.3-9.8,6.3-4.4,2.8-5.1,3.9-6.6,9.4-4.8,4.7-14.3-1.2-18.5,2.7-3.6,3.2-1.1,9.7-4.2,11-4.2,1.8-7.8-3.9-10.9-3.6-4.8.5-10,8.1-7.9,15.8-20.7,3.2-16.9,20.7-27.3,19.2-7.7,0-13,4-14.7,11.3-9.5,13.8-35.1,16.9-38.3,12.8-3.7-4.8,2.8-13,12.1-16.3l4.2-9.5c5.2-11.9-18.7-27.5-29.7-22-2.7,1.3-2.5,6.6-3.5,8.6s-2.5,4.8-2.2,4.2c-2.3-.6-3,2.6-3.5,4.3-4.5.7-8.5,3.9-12,6.5-5.4,4-11.4,6.6-14.2,13.6l-17.1,3.3c-4.8.9-12.9,4.1-16-1.2s-6.7-5.8-11.2-9.5l-12.3-10c-3.6-2.9-2.4-10.1-3.3-14l-9.8-6c-4.8,2.2-9.5,2-13.8-1.3l-11.4,1.8c-2.5-3.8-2.2-8.4-2.4-12.7,0-3.4-5-4.4-6-6.3-3.8-7.3-9-12.3-17.3-12.3s-3.9,4.3-5.8,5.4c-7.4,4.5-17.1.4-22.1-5.6-5.2-6.3-10.9-7.1-19-6.5-4,.3-10.2-.9-12,4.3-.5,1.4.6,4.4,0,5.7-2.4,4.3-10.1-2.7-20.4,2l-9.2-3.9c-4.5-12.9,1.6-26.6-7-39.1-1.8-2.6-5.1-4-7.7-3.6-2.5.4-4.6,2.7-6,4.8l7.3-3.2c6.2,1,8.1,7.2,8.3,12.4l.9,21.4c.3,6.6,4.5,11.4,11.3,11.7l13.1.5c3.7,0,6.8,1.7,9.3-.9,2.4-2.4,2.9-5.2,2.2-9.9,6.3,1.5,11.9-.7,17.5-.8,5.9,0,8.8,5.7,12.7,8.8,4,3.3,10.8,6.3,16.1,5.8l10.7-6.8c7.5-1.7,12,4.5,15.9,9.9,1.9,2.7,6.9,3.6,5.7,8.7-.9,3.9-.5,10.5,4.6,12.2l10.9-1c2.8-.3,5.5,3.4,8.7,2.1,3.4-1.3,6.3-1,9.5.5,7,3.3,1.9,17.2,11.7,20.3,3.6,1.1,5.4,5.5,7.7,7,5.3,2.3,8.8,3.9,11.6,9.3,2.2,4.3,9.1,5.2,13.4,3.2,6.2-2.9,12.3-2.9,18.7-4.2,4-.8,5.9-5.2,8.1-8l9.2-6c3.7-2.4,7.2-6.4,11.8-6l4.2-2.2c.4.3,1.5-1,2.5-2.4,3.7-5-.2-9.3,2.5-12.8,1.1-1.5,9.7-2.8,19,3.8,3.4,2.4,6.5,3.7,7.6,7.3,2.1,7.2-2.7,16-3.4,16.5-9.2,5.3-16.4,13.2-11.8,19.7,4.9,7,36.1-.8,42.2-15.5,4.7-11.3,11.8-6.2,19.7-10.4,6.7-16.9,18.1-15.5,21.3-18.8,1.7-1.8-.6-7.8,2.9-11.9,4.8-5.8,8.3,2.7,14.2,1.5,5.5-1.1,3.4-9.1,5.8-11.5,3.1-3.2,16.9,3,19-3.6,1.6-4.9,2.4-5.8,6.2-8.5,2.9-2.1,4.4-4.1,8.7-5.4,6.6-2,6.8-12.7,2.1-17.5,2.3-3.1,4.6-3.7,7-5.7-1.8-20,21.2-17.8,20.3-38,7.2-6.8,14.7-6.6,17.1-15.4,1.2-4.6-1.5-6.6-3.5-10.4-6.2-11.7-7.9-21.9-4.3-34.4l4.8-16.6c1.2-4,6.2-6,8.6-8.7l7.1-8c3.7-1.7,7.9-1.1,10.3-4.3,2.2-2.9,3.4-7.5,2.9-12l-1.9-17.8c-.6-5.4-9.6-7.5-12-10.8-3.9-5.2-6.1-5.2-12-6.3-3.3-.6-6.7-3.8-11.1-2.7-8.2,2.1-12.6-3.6-15.4-9.8-2.4-5.2-4.5-9.1-4.7-15.6-.4-14.7-7.9-13-8.5-20.4-.3-3.8,2.6-5.1,5.4-7.4,3.8-3,2.7-9.3,4.4-12.9,5.4-11.6-1.8-13.7,0-27.7.8-5.5,6-8,10.8-7,6.3,1.3,8.5-1.9,12.1-5.4l8.9-8.6c4.7-4.5,12.7-1.7,17.6.7l14.8,7.5c3.6,1.8,6.3,2.2,6.6,7,8.3,2.1,13,9,13.4,17.9l2.6,12.3c.6,2.9,4.3,4.7,6.6,4.2,5.1-1.1,5.9,1.7,8.2,4.6,5.2,6.8,27.2-2.7,27.4,11.6,0,4.3-.6,7.8,2.7,11.6-6.2,6.9-7.9,16.7-6,25.3,5.8,2.8,9.5-2.1,15.8,1.3,7.4,4.1,1.4,9.5,3.4,14.1.7,1.6,3.1,3.4,5.2,3.9,3.7.9,2.3,5.7,3.5,7,3.5,3.6,3.9,7.3,3.7,12.1-.2,4.9,7.7,5.9,11.4,4.4,10.4-4,6-13,12.2-17.6,4.1-3.1,6.3-7.9,7.5-12.8,2.3-1,6-.9,7.2-3.1,3.7-6.7-1.7-12.6,2.9-22.1,0-1.6-2.6-5.7,0-6.7,5.2-2,11.7-13.7,9.7-20.6-.6-2.1.3-7.1,3.1-6.7,2.9.4,4.9,1.2,6.6-.7,1.7-1.9,2.5-3.9,2-5.7-.9-3.6-4.6-2.5-7-3.7h0l-.2-.3ZM1332.4,547.9c1.1,1.8,1.1,5.4-.4,7.2-5.8,6.8-4.7,13-11.9,14.1-2.8.4-7.1-1.5-6.3-5.3l2.7-12c.9-4.2,12.3-10,15.9-4h0ZM1331,549.7c-.5-1.2-1.8-2.5-4.2-2.7-2.3-.2-7.7,1.7-8.2,4.2l-2.4,14.1c-.5,2.9,8.3,2.8,8.8-1.4,1.1-8.2,7.9-9.7,5.9-14.3h0ZM1339.2,528.6c1,2.4-2.8,11.8-5.5,12.6-2.1.6-5.4,0-6-2.9-1.1-4.9,2.3-10.3,7-11.7,2.1-.6,4,.8,4.5,2h0ZM1337.8,528.2c-6.3-.3-9.6,5.2-8.2,11,.3,1.5,3.9,1.7,4.4.2,1.4-4.4,4.1-6.5,3.8-11.2h0ZM1292.1,583.3c-.2,1.3-2.1,1.9-3.4,4-.8,1.3.5,5-2.6,7.1-3.4,2.4-12.6-.3-12.5-5.6.2-7.4,10.1-12.8,16.6-10.8,2.3.7,2.3,3.5,2,5.2h0ZM1286.2,579c-2.7,0-8.9,3.6-9.8,6.6-.6,2-1.2,5.1,1.2,6.7,2.1,1.3,5.3.8,7.9.4-.3-4.5,3.1-6.7,5-10.4,1-2-2.8-3.2-4.3-3.2h0ZM1584.9,490.1c3.9,10.3-.9,22.3-11.6,24.9-2.6.7-6.4-.5-7.7-1.8-1.4-1.4-2.6-3.9-2.4-7.5-7.8.3-11.4-4-16.6-9-3.9-3.8-11.2-4.6-15.9-7.2-5.4,5.7-13.5,9.6-20.3,5-2.1-1.4-2-7.3-6.8-6.8-1.8.2-4.9-.7-5.9-2-3.2-4.1,2.1-9.2-.8-14.4-1-1.8-5-.9-7.4-2.1s-2-7.1,1.5-9c3.2-1.8,7.3-9.5,4.1-12-4.2-3.1-7.7-4.4-10-9.7-.7-1.5-4.2-3.1-4.2-4.7.3-8.9,6.6-10.9,6.3-21.3,0-2.7,2.2-5,3.3-6.4,2.5-3.1,9.8,2.5,19.4-8.8l10.7-.2c4.7-1.8,6.1-9.1,4.7-13.4-1.8-5.6-.5-8.7,3.9-12.1,2.5-1.9,5-2.9,8.2-2.4,3.5.5,2.8,4,4.3,6.6l6.5,11.5c3.6,6.4,23.6,13.3,19.1,29.8-.6,2.2,4.4,4.1,5.7,5.4,1.7,8.6,7.9,7.3,11.6,13.3.3.5-1.1,16.2-4.2,22.5-4.7,9.5,8.3,15,11.6,24.1l-6.8,7.7h-.3ZM1583.6,491.2c-.8-3.8,3.7-5.6,5.1-8,3.1-5.2-14.3-12.5-11.1-22.8,1.9-6.2,3.9-11.2,3.7-17.9,0-1.4,2-4.4,1.4-5.7-2.7-5.7-10.7-4.2-11.1-13.1-5.2-1.5-7.9-5.8-6.3-10.7,1.2-6-4.3-12.7-10.6-16.8-9.5-6.2-12.8-15.3-17.9-25.7-3.7-.2-10.7,3.8-10.3,7.4.6,5.2,2,8.4.6,13.5-1.5,5.4-5.3,9.5-11.8,7.7-7.3-2-9.3,10.1-24.5,7.9l-3.2,14.2c-.8,3.6-6.9,8.6-4.1,12.8,1.9,2.9,5,5,6.4,9l7.1,3.8c5.4,9.5-9.3,15.3-6.7,21,3.4.6,7.2-.1,8.7,2.9,3.3,6.6-1.9,11.4.8,14.1,1.8,1.8,8.6.9,9.4,3.1l1.9,5.3c6.2,3.5,14.5.4,19.6-6,5.3,4.1,13.7,3.8,17.9,8.6,4.6,5.1,8.3,9,15.6,8,1.1,2.3.9,5.9,2.5,7.5,2.8,3,7.4,2.4,11.1.7,4.4-2,7.5-12.9,5.8-20.8h0ZM625.4,711.8c1.4-4.2,6-5.5,9.9-5.5s9.7-4.1,14.6-4.9l13.4-2.2c5.6-.9,13.1.4,14.8,6.8.7,2.5-.7,6.5,1.6,8.8,1.5,1.6,4.6,3.7,7.4,3.7.2-1.1-.3-2.7-2-3.2-9-2.4-2-12.6-9.8-15.6-1.4-.5-1.3-2-.8-2.8l-2.5.2c-8.5.5-21.6.9-23,1.8-13.5,9.1-21.1,1.2-27.2,16.4-4.6,11.6-12.8,18.3-23.1,23.9-6.7,3.7-12.1,10.2-21.1,9.6-6.4-3.5-10.2-11-10.6-18.4l-7.3-7.7-6.5-23.3c-9,7.7-7.4,18.5-4.4,27.8,1,5.7-4.1,12.3-5.9,17l-12.2,2.2c-6.7,1.2-13.7,1-20.2-.7-7.4,3.4-14.1.4-19.4-4.8-2.4-2.4-5.8-3.4-6.7-7.5-2.5-11.1-9.9-23.7-21.9-26.2-6.8-1.4-13.9,1.2-19.8-3.5l-14.9-4.8c-3-7.4-8.4-12.5-15.1-16.5-2.8-1.7-5.3-10.2-2.9-12.4,5.9-5.4,12.7-8.4,18-14,.4-3,.2-5.8,1.4-8.8l13.9-2.4,21.8-13.1c9.1-5.5,19.3-6.2,18.7-21.2l-8.2-3.1c-3.2-2.5-6.4-2.9-10-3.9-5.8-1.6-10-1.1-14.3,3-5.4,5.2-13.7,2.2-17.3-3.9-2.7-4.5-6.7-5.6-11.1-3.2-3.7,2-7.6-1.1-8.9-4.7-1.1-3-2.2-5.6-.7-8.1,1.1-1.8,3.5-4.2,6.5-4.6,15.4-2.1,7.6-15.4,13.4-22.8,2.1-2.7,5.5-4.3,4.3-8.2-1.2,0-1.3-1.3,0-1.2.2,0,1.2.3,1.5.2v-1.4c-3.5,0-3-4.1-4.2-6-2.8-4.1-6.9-7.2-5.7-12.5,1.4-5.9,6.4-9.3,10.3-13.5,9.9-10.5,3-27.4-10.6-35.7-.4-3,0-6.2-1.4-8.7-1.3-2.4-4.9-4-6.9-3.9l-2.6.2c-7-.9-14,.6-20.5,4.1-4.1,2.2-8.8-2.7-11.9-3.2-8.2-1.3-14-5-21.1-8-10.2-2.3-23.1,4.1-27.7.6-1.5-1.1-3.1-5.2-1.4-5.9,8.5-.3,16.7-1.2,23.7,1.9,4.6,2,8,2.7,12.5-.8,1.5-1.1,4.5-1.3,5.2-2.7,1.5-3.2,1.1-8.6-.8-10.1-.8-.6-2.8-.8-3.8,0-4.6,3.3-13.7-1.7-14.1-2.9-1.5-5.4,6.1-8.9-1.2-16.4-1.7-1.7-2.4-4.9-2.2-7.3.2-1.5,3.1-2.5,4.3-4,9.6-12.3,23.3-16.5,24-9,.2,1.8-.4,6.5,1.7,7.4,4.5-.2,7.8,2,11.7,3.1,6,1.8,11.7-3.2,16.6-5.1,10.1-4.1,8.4-10.6,16.5-17.4,10.9-2,16.2-15.6,11.1-18.6-4-2.3-4.6-5.1-6.8-8.8-2.5-4.3-9.1-6.1-13.6-8.1-1.5.3-3.1,2.5-5.3,2.1l2.7-7.2c-.5-5.4,1.9-7.5,4-11.5,2.5-4.7,2.1-10.8,6.8-15-4.2-7.8,1.7-17.3-6.7-19.1-4.3-.9-9.1-.7-13-3.7-1.7-1.3-2.2-4.1-1-6.3,2.6,1.1,5,.4,6.2-.8,3.7-3.9-1.3-8.5-1.4-11.1,0-1.3,2-2.8,2.6-4.6.9-2.9-2.9-9.6-6.1-9.4-5,.3-6.5-1.3-9.6-3.5-4.5-1.8-10.2-.5-15.2-1-2.5-.2-7.4-3.1-5.9-5.5,2.8-4.5,1.9-6.5,1-11.5l-1.8-10.1c2.9-.3,8.6-1.6,10.4.3,6.5,6.6,17.2,10.6,24.1,6.1l7.1-1.2c1.9-1.6,3.6-2.4,5.3-2.1,5.9,1.1,2,11.2,19.3,15,3.8.8,11.3,6.2,15,1.4,3.4-4.4,6.2-8.4,11.7-11.1,3.4-1.7,1.7-8.1,2.5-10.7,1.2-4.4,6-4.2,8.8-4.1,3.5.2,4.2,3.6,7.1,5.2l14.8,8.7c4.4-4.1,9.4-4.3,14.1-5.6,5.2-1.4,5.5-7.6,7.4-11.3,3.1-5.8,5.3-10.7,3.8-17-.3-1.1.2-2.9.3-4-6.8-.3-.8-10.1-6.7-13.9-1.9-1.2-4.5-2.1-6.9-2.7v1.4c2.7.9,7.4,1.6,7.7,5.2l.7,8.8c4.6,7.2,4.1,13.8-.4,20.8-2,3.3-2.1,10.1-7.5,11.2-4.5,1-9.2,1-13.2,4.5l-13.4-8.1c-3.2-2-5.4-5.2-9-5.8-3.5-.5-8.4,1.2-9.8,5.3-.8,2.3.9,8.4-.9,9.9-5.5,3.2-8.9,7.3-12.7,11.6-3.3,3.8-9.5-1.2-12.8-1.9-15.8-3.1-10.8-10.2-19.1-14.8-3.8-2.1-23.6,12.6-36.3-3l-12.5-1.2c-1.1,7,1.3,13.2,2.4,19.6-1,1.6-3.3,4.1-2.8,6.1,1.7,6.3,12.2,7.7,21.8,6.1l4.9,4.8c2.8-1.1,6.3-1.1,8.1.9,5.9,6.3-3.5,9.1,1.5,14.7,1.2,1.3,1,4.6.1,6.1-.7,1.2-4.2.2-5.8,1.2-2.8,1.8-1.4,6.4.2,8.4,4.9,6,20.4,1.5,17.9,9.7-1.2,4,.2,8.1,1.3,11.3-2.7,4.2-5.3,8-5.4,13.6l-4.3,6.7c.1,11.2-6.4,13.4-4.4,15.3.7.7,2.3,1.5,4.4.5,4.2-2,14.2.6,15.9,5.3,1.7,4.7,4.5,5.8,6.8,9,4.7,6.5-3.9,13.7-9.7,15.6-6.3,2-7.9,9.6-11.6,13.5-3.7,4-10,5.5-14.5,8-4.3,2.4-7.6.4-11.3-1.5-2-1-5.4-.2-7.2-1.6,1-5.1,0-8.6-4.1-10.1-3.7-1.4-6.6-.6-10.3,2-3.1,2.2-7.2,3.1-9.3,7-1.6,3.1-5.7,4.5-7.6,7.2-2.2,3.2,0,8.9,2.3,11.3,5.3,5.8-2.4,10.6.8,16.2.4.7,12.7,7.7,17.1,1.8,2.7,2.2,2,4.7,1.5,7.5-.4,2.2-3.8,2.1-5,3.2-4.3,3.8-6.6,3.2-11.2.7-6.8-3.7-18.7-5.3-25.1-.3-1.9,3.1,3.8,9.7,6.8,9.4,9.5-2.6,22.6-4.5,28.6-.2,4.7,3.4,11,4.4,15.8,6.6,7.5,3.6,12.3,3.7,19.8-.3,4.1-2.2,12.7-.5,17-.4,6.4.2,3.9,6.6,5.2,9.1,3,5.5,10.1,7.7,12.4,13.9,1.4,3.7,3.2,8.6,2.8,12.7-1,8.5-12.4,13.3-14.9,22.3-2.7,10,17.8,18.7,1.8,32.4-.4,5.1,0,10.5-2.3,15.3-8,4.8-18.3,5-15.3,16.7.8,3.2,2.3,6,4.7,7.2,7.2,3.7,12.1-4.7,16,2,2.4,4.2,6.3,7,9.8,7.4,11.3,1.4,12.7-8.4,19.9-5.8,3.5,1.3,7.5,1.1,10.7,3.2,2.4,1.6,5.8,3.2,8.5,4.1,2.3,5.4-2,10.8-7.1,13.3-9,4.4-17,9.4-25.3,14.8-10.4,6.7-23.7,1.2-22,10.2,1.6,8.5-13.1,13-17.9,18.5-4.1,4.8.2,13.1,4.6,15.6,12.7,7.4,10.7,18.7,22.4,19.1,4.1.2,7.2,3.5,10.8,4.2,7,1.3,14.5-.8,21.2,3,7.1,4.1,11.7,11.9,13.9,19.8,1.6,5.9,4.1,9.1,9.4,12.3,3.4,2,7.1,6.8,11.7,6.1,5.3-.7,9.9-.9,15.3.4,5.8,1.4,12.2-1.3,17.8-1.7,7.8-.5,11.4-5,13.8-11.7,1.7-4.8,2.9-7.6.8-12.8-2.5-6.3-2.1-15.4,2-20.6l5.3,19.7,8.1,9c.3,7,4.3,16.5,11.5,18.8,7.6,2.4,13.8-4.5,19.6-7.5,13.3-7,23.9-16.3,28.7-30.6h0v.5Z"/>
    </g>
  </g>
</svg>