<?xml version="1.0" encoding="UTF-8"?>
<svg id="Layer_1" data-name="Layer 1" xmlns="http://www.w3.org/2000/svg" viewBox="0 0 64 64">
  <path d="M49.43,43.6c-.66,1-1.43,2.19-2.14,3.41-.21.36-.33.85-.34,1.35,0,.7.03,1.4.07,2.08.02.27.03.54.04.81.04.88-.13,1.14-.94,1.46-.33.13-.66.26-.99.38-.97.37-1.97.75-2.93,1.19-1.32.59-2.7.66-3.75.65-.7,0-1.02-.3-1.11-1.02-.03-.23-.04-.46-.06-.69-.02-.32-.04-.64-.1-.96-.35-1.79-.75-3.88-1.22-5.95-.26-1.16-.26-2.14-.02-3.07.13-.49.24-1,.35-1.49.12-.53.24-1.08.39-1.62.11-.41.32-.85.62-1.34l.15-.24c.52-.84,1.05-1.71,1.66-2.49.94-1.21,1.36-2.62,1.78-3.99.11-.35.21-.71.33-1.06.25-.77.5-1.53.75-2.3.26-.82.53-1.66.81-2.49.19-.58.59-.98,1.22-1.25.23-.1.46-.14.67-.14.18,0,.35.03.51.1.34.14.6.43.76.84.14.36.22.76.23,1.14v.4c.05,1.32.08,2.68.02,4.02-.02.51-.19,1.04-.34,1.55-.05.16-.1.32-.14.48-.04.13-.09.25-.15.38-.17.41-.37.87-.09,1.47l.09.19.17-.11c.07-.04.14-.08.21-.12.16-.09.31-.17.42-.3.53-.65,1.04-1.3,1.5-1.99.18-.27.29-.66.3-1.06v-.3c.04-1.56.08-3.17.04-4.76-.03-1.19-.57-2.29-1.55-3.18-.65-.6-.93-1.12-.96-1.8-.04-.95-.26-1.89-.66-2.85-.15-.35-.22-.73-.29-1.13-.05-.28-.11-.56-.19-.84-.22-.76-.47-1.5-.72-2.29-.12-.37-.24-.74-.36-1.12-.3-1.35.03-2.06,1.1-2.36.72-.2,1.13-.06,1.61.55.49.62.98,1.24,1.47,1.87.51.64,1.02,1.28,1.52,1.92.23.3.42.63.6.93.38.65.75,1.31,1.12,1.96.79,1.38,1.6,2.8,2.43,4.18.5.82.71,1.54.69,2.31-.04,1.77-.08,3.56-.11,5.3-.03,1.74-.06,3.53-.11,5.3-.01.43-.13.91-.33,1.3-.95,1.85-1.83,3.48-2.69,4.97-.2.36-.46.68-.73,1.02-.2.26-.41.52-.6.8ZM16.95,51.34c-.08,1.08-.02,1.16,1.02,1.54l.39.14c.67.24,1.36.49,2.02.79,1.41.63,2.92.98,4.62,1.09,1.27.08,1.44-.07,1.58-1.33.02-.22.04-.44.06-.66.07-.77.14-1.57.38-2.32.44-1.36.69-2.73.87-3.77.22-1.34.21-2.71-.06-4.34-.32-2-1-3.61-2.12-5.06-.9-1.17-1.57-2.32-1.97-3.41-.63-1.69-1.15-3.45-1.66-5.16-.21-.7-.42-1.41-.64-2.11-.29-.92-.81-1.51-1.61-1.8-.76-.28-1.37-.06-1.69.6-.22.47-.36,1.04-.39,1.6-.03.62-.02,1.25-.01,1.87,0,.47.01.95,0,1.42-.03,1.25.16,2.28.59,3.23.17.38.17.82.17,1.25v.38s-.25-.1-.25-.1c-.69-.29-1.05-.83-1.39-1.35-.14-.21-.26-.4-.41-.58-.45-.55-.66-1.2-.65-2.02,0-.69,0-1.4,0-2.08,0-.7-.01-1.43,0-2.14.01-1.31.58-2.51,1.69-3.55.49-.46.72-.94.82-1.66.11-.79.29-1.58.47-2.35.06-.26.12-.52.18-.77.06-.29.14-.58.21-.86.13-.5.27-1.01.34-1.52.08-.58.13-1.18.17-1.76.04-.53.08-1.07.15-1.6.08-.63-.07-1.13-.47-1.55-.19-.2-.41-.31-.63-.31h0c-.22,0-.44.11-.64.31-.2.21-.37.46-.54.71-.28.41-.56.82-.84,1.22-.72,1.04-1.46,2.12-2.15,3.21-1.54,2.42-2.89,4.62-4.14,6.75-.24.4-.38.99-.37,1.57,0,1.32.03,2.66.06,3.95.04,1.78.07,3.61.06,5.42-.02,1.62.39,3,1.27,4.34.43.66.83,1.36,1.21,2.03.33.59.68,1.2,1.05,1.78.48.75.99,1.51,1.49,2.24.51.75,1.03,1.52,1.53,2.3.24.39.4.93.41,1.45.02.97-.05,1.96-.12,2.91v.09ZM31.69,29.85c-.07,2.29-.18,4.58-.3,6.88-.04.89-.17,1.78-.2,2.67-.03.63.31,1.01.78,1.01.47,0,.77-.35.84-.98.01-.1,0-.21,0-.31.05-.65.12-1.3.17-1.95.03-.42.25-.67.59-.9.62-.42,1.25-.85,1.81-1.34,1.76-1.53,2.66-3.46,2.52-5.82-.06-.99-.13-1.99-.26-2.97-.08-.57-.23-1.15-.45-1.68-1.27-3.01-2.77-5.9-4.53-8.65-.5-.78-.99-.78-1.46,0-.8,1.36-1.64,2.7-2.4,4.08-1.26,2.29-2.44,4.62-2.59,7.31-.03.51-.12,1.03-.13,1.54-.03,2.03.09,4,1.91,5.38.21.16.36.41.56.6.19.19.39.39.62.54.52.35.92.21,1.1-.38.06-.19.09-.41.07-.61-.2-1.9.06-3.77.31-5.64.07-.57.11-1.15.56-1.68.12.2.2.33.3.55.08.83.21,1.59.18,2.34Z"/>
</svg>