<?xml version="1.0" encoding="UTF-8"?>
<svg id="Layer_1" data-name="Layer 1" xmlns="http://www.w3.org/2000/svg" viewBox="0 0 64 64">
  <path d="M15.15,16.8c.28-.87.54-1.67.81-2.47.18-.53.56-.82,1.11-.94,1.06-.23,2.15-.4,3.17-.77.99-.36,1.9-.35,2.9-.13.97.21,1.98.23,2.96.39.86.14,1.7.35,2.65.55.46-.9,1.39-.97,2.28-1.12,1.01-.18,2.02-.36,3.03-.55.92-.17,1.78.24,1.94,1.13.15.82.57,1.36,1.14,1.87.24.22.43.51.67.81,1.36-.09,2.77-.15,4.17-.29.52-.05.95-.04,1.33.34.17.17.39.28.59.41.45.3.72.7.82,1.24.12.65.32,1.29.46,1.93.13.58.27,1.17.34,1.76.08.68.51,1.05,1.09,1.18.94.2,1.3.87,1.44,1.66.33,1.88.6,3.76.29,5.68-.15.94.14,1.28,1.11,1.33.5.02.87.19,1.19.53.04.04.08.09.13.13,2.08,1.33,2.02,3.37,1.79,5.45-.04.38.06.63.24.92.76,1.2,1.15,2.51,1.18,3.94.02,1-.34,1.84-1,2.54-.26.28-.31.52-.27.88.15,1.23.28,2.46.35,3.7.06,1.02-.44,1.51-1.45,1.55-.42.02-.85-.06-1.27-.02-.56.05-1.15.09-1.68.27-1.02.35-2.02.54-3.1.3-.85-.18-1.74-.23-2.6-.34-.49-.07-.85.06-1.19.45-.31.35-.72.64-1.13.89-.6.35-1.24.4-1.92.19-.42-.13-.9-.2-1.33-.14-1.36.18-2.08-.22-2.42-1.89-.03-.15-.04-.29-.07-.49-.75-.17-1.5-.18-2.24-.05-1.17.2-2.38.39-3.5.03-.99-.32-1.96-.29-2.95-.28-.93,0-1.87.1-2.8.14-.32.01-.51.13-.61.43-.2.64-.68.88-1.31.92-.21.01-.43.1-.63.07-1.48-.22-2.95.02-4.43.04-1.18.01-1.32-.09-1.9-1.04-.69-.19-1.37-.34-2.11-.08-.41.15-.9.12-1.35.1-.64-.02-1.03-.36-.91-.97.26-1.32-.13-2.58-.19-3.87-.03-.74.29-1.53.57-2.25.23-.58.61-1.11.98-1.63.21-.3.24-.58.17-.93-.42-2.04-.83-4.08-1.21-6.13-.14-.77.14-1.49.48-2.17.11-.21.28-.39.39-.61.33-.66.84-1.32.91-2.01.08-.71-.3-1.46-.43-2.2-.3-1.79-.61-3.57-.82-5.37-.11-.91.06-1.82,1.03-2.32.64-.33,1.23-.76,1.88-1.05.72-.32,1.25-.7,1.2-1.64ZM36.77,26.8c1.53.12,3.04-.35,4.58-.17.49.06.7-.22.73-.72.03-.39-.07-.8,0-1.17.11-.63.21-1.2-.45-1.6-.06-.04-.09-.15-.11-.24-.24-.93-.24-.92-1.13-.96-1.08-.05-2.17-.13-3.25-.18-.51-.02-1.04-.05-1.54.03-2.02.33-4.04.24-6.06.14-.69-.03-1.38-.17-2.07-.2-1.98-.09-3.99.24-5.95-.31-.06-.02-.12-.01-.18,0-1.39.07-2.77.13-4.16.2-.59.03-.79.18-.76.76.02.5.19.99.32,1.58-.52.53-.44,1.27-.28,2.03.09.44.34.68.82.66.41-.01.83.03,1.34.05-.04.68-.05,1.27-.11,1.86-.26,2.28-.56,4.56-.81,6.84-.25,2.28-.45,4.57-.66,6.85-.14,1.53-.3,3.06-.41,4.59-.05.62-.18,1.26.1,1.83.87.31,1.49.05,1.91-.75.52,1.18.97,1.31,2.55.75.11-1.23.32-2.52.29-3.81-.02-.79-.03-1.56.09-2.33.06-.39.09-.78.12-1.17.19-2.5.38-5,.58-7.49.02-.22.13-.47.28-.63.88-.99,1.77-1.98,2.68-2.95.99-1.06,1.98-2.11,2.99-3.14.17-.17.46-.32.69-.32,2.56.09,5.12-.47,7.86-.02ZM41.51,43.21c-1.06,1.43-2.11,2.86-3.17,4.29-.25.34-.55.66-.74,1.03-.1.2-.13.63,0,.73.49.39,1.02.77,1.59.99.5.19.99-.02,1.31-.54.51-.82,1.06-1.61,1.6-2.42,1.1-1.65,2.2-3.31,3.3-4.96.7-1.05,1.43-2.09,2.14-3.14.32-.48.53-.52,1.03-.16.39.28.77.57,1.16.84.26.19.57.32.79.55.47.49.89,1.03,1.32,1.53.08-.04.13-.05.14-.07.03-.05.05-.11.06-.16.26-1.39-.14-2.66-.9-3.78-1-1.49-2.38-2.59-3.91-3.53-1.4-.85-2.82-1.34-4.46-1.01-.81.17-1.6.39-2.34.87,1.91.67,3.7,1.46,5.35,2.68-.13.29-.21.56-.36.77-.35.49-.74.94-1.09,1.43-.92,1.3-1.83,2.62-2.82,4.04ZM36.81,40.38c-.06,1.29.17,3.3.47,3.84.32-.43.61-.85.91-1.25.3-.41.58-.85.93-1.22.38-.4.44-.8.34-1.32-.14-.68-.27-1.37-.27-2.06,0-.76-.13-1.42-.73-1.95-.27-.23-.47-.55-.65-.87-.27-.48-.51-1.04-.26-1.55.47-.96.9-2.01,2.07-2.39.22-.07.4-.23.64-.38-.11-.99-.2-1.95-.34-2.9-.03-.19-.24-.43-.42-.49-.92-.3-1.84-.51-2.82-.14-.6.22-.68.24-.63.87.05.69.13,1.38.15,2.07.06,1.66.05,3.32.16,4.97.1,1.53.3,3.06.45,4.76ZM35.32,31.73c0-.45.05-.91.01-1.35-.02-.28-.11-.6-.27-.82-.33-.43-.72-.81-1.11-1.19-.14-.13-.36-.25-.54-.26-.52-.02-1.05.02-1.62.04.07.17.08.27.14.33.99,1.09,1.98,2.19,2.98,3.27.08.08.25.07.42-.02ZM22.73,27.06c-.06.67-.09,1.35-.13,2.07-.01.2-.02.41-.03.63.09-.05.15-.09.22-.14l.27-.25c.79-.75,1.54-1.45,2.11-2.37-.16-.02-.32-.03-.47-.05-.54-.06-1.05-.11-1.55-.16-.02,0-.04,0-.06,0-.11,0-.21.03-.27.08-.06.05-.09.11-.09.19Z"/>
</svg>