<?xml version="1.0" encoding="UTF-8"?>
<svg id="Layer_1" data-name="Layer 1" xmlns="http://www.w3.org/2000/svg" viewBox="0 0 64 64">
  <path d="M16.63,51.51c.04.64.11.66.66.71.3.03.6.06.9.08.83.08,1.69.16,2.54.23.37.03.74.02,1.19,0,.3-.02.6-.04.9-.07.26-.02.52-.04.78-.06,1-.06,1.79.11,2.47.55.65.41,1.32.57,2.05.47.39-.05.76-.08,1.1-.08.58,0,1.1.08,1.59.23.21.07.41.1.59.11,1.86.04,4.31.02,6.78-.44.12-.02.24-.08.41-.16.04-.02.08-.04.12-.06-.07-.05-.13-.09-.19-.14-.22-.16-.39-.28-.58-.38-1.14-.61-2.13-1.52-3.04-2.8-.4-.56-.76-.75-1.32-.71-.66.04-1-.2-1.2-.86v-.04c-.3-.96-.6-1.96-.28-3.03.06-.19.07-.39.09-.6.01-.19.03-.39.07-.58.17-.69.36-1.44.62-2.17.2-.57.62-.86,1.18-.81.11.01.19,0,.24-.06.06-.06.09-.19.07-.37-.04-.48-.08-.95-.12-1.43-.09-1.05-.18-2.14-.3-3.21-.01-.11-.02-.22-.04-.33-.1-.95-.2-1.94-.7-2.8-.1-.18-.1-.49.01-.66.33-.51.29-1.08.25-1.63l-.03-.42c-.04-.65-.09-1.32-.18-1.97-.11-.78.2-1.32.92-1.6.43-.17.59-.45.6-1.01,0-.61.02-1.23.03-1.83,0-.36.02-.71.02-1.07,0-.6-.09-.72-.69-.77-.05,0-.11,0-.16,0-.14,0-.29-.01-.43-.05-.6-.18-1.07-.07-1.47.34-.07.07-.16.05-.24.02-.03,0-.07-.02-.11-.03l-.12-.03.23-5.36.08-.04c.06-.03.11-.05.17-.07.11-.05.21-.09.31-.13.35-.13.57-.32.64-.55.07-.21,0-.46-.19-.73-.26-.37-.59-.71-.97-1-.71-.55-1.45-1.08-2.17-1.6-.29-.21-.58-.42-.87-.63l-.06-.05v-.08c0-.07.01-.13.02-.19.01-.13.02-.25.02-.37,0-.66-.47-1.18-1.08-1.2-.55-.02-1.04.48-1.1,1.11v.02c0,.06-.01.13,0,.18.09.42-.15.65-.38.81-.18.13-.37.26-.55.39-.68.48-1.38.97-2.03,1.5-.43.35-.83.82-1.16,1.34-.13.2-.16.4-.09.59.08.23.3.41.59.51.11.04.22.07.35.1.07.02.15.04.23.07l.13.04-.03.13c-.18.8-.1,1.6-.02,2.38.08.73.15,1.48.02,2.22l-.02.1h-.11c-.24.04-.48.06-.7.08-.5.05-.97.09-1.43.16-.77.1-.89.25-.86,1.08.01.29.03.58.04.87.03.61.07,1.25.06,1.87,0,.46.18.74.6.94.2.09.39.19.6.3.1.05.2.1.3.16l.09.04v.1c-.04.29-.08.58-.11.87-.08.67-.15,1.3-.2,1.94-.04.56-.05,1.14-.05,1.7,0,.21,0,.41,0,.62,0,.11,0,.23,0,.35,0,.2.02.4,0,.6-.09.77-.19,1.55-.29,2.32-.17,1.33-.35,2.7-.49,4.06-.05.44-.14.85-.68,1.04l-.09.03c-.16.05-.33.11-.44.21-.04.03-.08.07-.12.11-.2.18-.45.4-.46.56-.02.41-.08.82-.13,1.22-.1.73-.21,1.49-.06,2.26.08.42.33,1.69-.99,2.13-.38.13-.62.47-.64.94-.02.31-.1.6-.19.89-.12.41-.24.79-.15,1.2.03.14-.05.29-.12.41-.02.04-.04.08-.06.12-.05.1-.09.2-.14.3-.07.16-.15.33-.24.52ZM24.42,49.44c-.07.28-.18.55-.31.85-.06.14-.12.28-.18.44l-.12.3-.95-1.96.87-.05c.25-.13.45-.15.58-.04.12.09.16.26.11.46ZM28.56,46.77s-.03.06-.04.08c-.03.07-.08.15-.18.15h-.09c-.69.03-1.34.06-1.94.39-.15.08-.35.08-.49.06-.66-.13-1.1.12-1.37.79l-.14.34-.12-.34c-.37-1-.28-1.22.69-1.63h.03s.24-.06.24-.06c.21-.04.36-.08.52-.1.67-.12.84-.31.9-.98,0-.06,0-.13.01-.19.02-.34.04-.72.39-1.04l.13-.12.09.15c.19.32.18.66.17.95,0,.1,0,.19,0,.28v.03c.02.34.03.52.1.61.07.09.26.15.61.25.11.03.2.08.3.12.04.02.09.04.13.06l.15.07-.09.14ZM28.28,17.33v-.07s.08-.03.08-.03c.69-.34,1.32-.19,1.9.03l.09.03v.09c.01.14.02.29.03.44.02.34.04.69.04,1.04,0,.58,0,1.16,0,1.73v.08c0,.19,0,.52-.39.59h-.02c-.59,0-1.04,0-1.56,0h-.13v-.13c-.17-1.44-.17-2.65-.02-3.8ZM25,18.05c.05-.67.36-.97.97-.94.19.01.38,0,.61,0,.11,0,.23,0,.37,0h.14v.14c-.02.5.03,1,.07,1.49.07.75.14,1.52,0,2.33l-.02.12h-2.01l-.13-3.13h0ZM23.91,26.17c.37-.06.73-.13,1.1-.19.12-.02.25-.04.37-.07.39-.07.8-.14,1.19-.24.67-.17,1.34-.19,2.12-.08.72.11,1.46.15,2.18.19.33.02.67.04,1,.06.21.02.42.04.64.06.11.01.22.02.35.04l.24.02-.13.2c-.4.6-.81.81-1.35.73-.1-.01-.24-.04-.32,0-.27.11-.53.15-.78.15-.31,0-.62-.06-.92-.12-.27-.05-.53-.1-.79-.11-.53-.02-1.07,0-1.6,0-.23,0-.46,0-.69,0-.88.26-1.65.12-2.39-.01-.23-.04-.46-.08-.68-.11h-.11s-.04-.42-.04-.42l.62-.11ZM29.36,36.07v.14h-1.37l-.03-.11s-.02-.06-.03-.1c-.03-.1-.07-.22-.07-.34,0-.81,0-1.65,0-2.49,0-.48.22-.79.61-.87.4-.08.72.12.83.52v.03c.04,1.14.04,2.14.04,3.21ZM22.36,40.64c.22-.4.59-.41.89-.43.16,0,.3-.01.42-.07h.03c.69-.16,1.25-.23,1.88-.12.7.12,1.44.14,2.16.16.34,0,.68.02,1.02.04.31.02.58.09.86.22l.31.15-.32.11c-.07.02-.14.05-.21.08-.16.07-.32.13-.5.16-.85.13-1.72.25-2.56.36l-.85.12s-.02,0-.03,0c-.03,0-.07.01-.1.01s-.07,0-.11-.03c-.46-.25-.96-.28-1.49-.31-.41-.02-.83-.05-1.23-.18-.04-.01-.07-.03-.09-.06-.01-.01-.03-.02-.05-.04l-.1-.07.06-.11ZM47.47,37.54c-.69.04-1.3.07-1.92.11-.44.03-.67.25-.66.72.01.75-.03,1.49,0,2.24.06,1.69.14,3.37.22,5.06.02.45.06.91.13,1.36.14.84.81,1.28,1.63,1.08,1.14-.28,2.15-.8,2.88-1.73-.03-.07-.04-.1-.05-.12-.83-.74-.85-.8.05-1.46.76-.56,1.4-1.24,1.97-1.99.03-.04.06-.1.1-.13.21-.15.44-.42.63-.39.17.02.38.35.43.58.19.86.35,1.73.46,2.61.06.5.01,1.02-.05,1.52-.12.95-.31,1.03-1.1.56-.09-.05-.19-.09-.31-.15-.1.12-.19.2-.26.31-1.2,2.03-2.99,3.33-5.16,4.15-.9.34-1.63.89-2.3,1.56-.09.1-.18.2-.28.28-.41.35-.72.4-1.04-.03-.87-1.16-2.17-1.6-3.41-2.17-1.65-.75-2.98-1.89-3.98-3.41-.15-.22-.3-.44-.46-.66-.01-.02-.05-.02-.15-.07-.18.11-.38.27-.61.39-.31.16-.52.08-.6-.27-.34-1.64-.22-3.26.28-4.84.18-.57.55-.6.92-.09.67.92,1.46,1.71,2.38,2.37.63.45.61.65-.02,1.13-.06.05-.11.11-.24.22.87,1.07,1.95,1.73,3.32,1.83.55.04.94-.29,1.07-.8.16-.62.29-1.26.32-1.89.07-1.55.08-3.11.12-4.66.02-.78.07-1.55.07-2.33,0-.61-.02-.64-.61-.72-.74-.1-1.48-.18-2.23-.23-.7-.04-.83-.14-.85-.86,0-.13,0-.27,0-.4.03-.68.25-.88.94-.92.8-.05,1.59-.13,2.39-.2.1,0,.2-.06.29-.09.26-.67.04-1.08-.52-1.49-1.46-1.09-1.72-2.95-.6-4.57,1-1.44,2.88-1.78,4.3-.95,2.05,1.2,2.32,3.69.67,5.32-.08.08-.17.13-.25.2q-.66.53-.54,1.45c.64.24,1.3.43,2.01.3.16-.03.32-.03.48-.03.44,0,.9.01,1.08.51.19.52.21,1.08-.17,1.52-.14.17-.47.17-.79.25ZM43.55,32.13c.21-.11.45-.18.63-.33.47-.38.57-.93.31-1.44-.26-.49-.85-.8-1.33-.7-.56.12-1,.61-1.05,1.18-.05.55.25,1,.84,1.22.15.06.31.06.6.07Z"/>
</svg>