<?xml version="1.0" encoding="UTF-8"?>
<svg id="Layer_1" data-name="Layer 1" xmlns="http://www.w3.org/2000/svg" viewBox="0 0 64 64">
  <path d="M50.37,38.75c-.05-.93-.09-1.88-.13-2.8-.06-1.33-.12-2.7-.21-4.05-.02-.32-.16-.63-.31-.96-.06-.13-.12-.27-.17-.4-.04-.11-.1-.21-.16-.33-.11-.21-.23-.42-.25-.66-.12-1.25-.23-2.48-.24-3.72,0-.99-.19-1.78-1.07-2.43-.52-.38-1.18-1.11-1.36-1.9-.31-1.34-.36-2.73-.37-3.92,0-.19,0-.36,0-.52q0-1.76-1.15-3.31c-.11-.15-.23-.31-.36-.5-.02-.03-.04-.05-.06-.07-.04-.05-.09-.11-.13-.18-.06-.12-.12-.23-.19-.35-.16-.3-.33-.61-.43-.94-.21-.73-.4-1.49-.58-2.22-.13-.51-.26-1.04-.4-1.56-.08-.29-.22-.48-.4-.56-.18-.08-.41-.04-.67.11-.19.11-.36.24-.55.39l-.13.1c-.27.2-.53.41-.8.62-.53.41-1.08.84-1.63,1.24-.3.22-.65.48-1.01.49-.15,0-.3.01-.45.02-.82.03-1.66.07-2.44-.14-1.12-.31-2.3-.36-3.8-.16-.78.1-1.57.07-2.35.03h-.05c-.31-.02-.66-.18-.86-.39-.47-.52-.9-1.08-1.36-1.66l-.31-.39c-.36-.43-.59-.61-.76-.61h0c-.16,0-.35.16-.63.51-.14.18-.29.35-.43.53-.37.45-.76.92-1.08,1.41-.65,1.02-1.3,1.67-2.12,2.11-.99.53-1.58,1.42-1.75,2.62-.06.41-.1.83-.15,1.23-.06.56-.12,1.13-.22,1.7-.02.13-.04.25-.06.38-.13.77-.26,1.56-.62,2.23-.38.72-1.12,1.3-1.72,1.71-.64.44-.95,1.03-1,1.89-.03.45-.04.91-.05,1.35,0,.25,0,.5-.02.74-.02.47-.03.94-.05,1.42-.04,1.41-.09,2.87-.17,4.3-.02.35-.15.69-.27,1.02-.05.12-.09.24-.13.37-.06.2-.14.39-.22.58-.15.37-.29.72-.33,1.09-.21,1.79-.39,3.72-.59,6.25-.05.6,0,1.11.12,1.53.46,1.53.71,3.04.77,4.64v.11c.04,1.21.08,2.35.98,3.24.09.09.14.22.18.33.02.05.04.09.06.14.2.38.45.62.75.68.27.06.57-.04.87-.28,1.13-.92,2.13-1.64,3.31-2.13.41-.17.5-.39.4-.9-.03-.13-.05-.25-.07-.38-.05-.27-.1-.55-.18-.81-.02-.06-.04-.13-.06-.2-.09-.32-.19-.64-.38-.82-1.07-.96-1.46-2.23-1.7-3.34v-.05c-.26-1.13-.54-2.4.4-3.37.74-.76,1.01-1.63.91-2.91-.02-.22,0-.45,0-.67,0-.1,0-.2,0-.3,0-.73.2-1.41.59-2.07.45-.77.89-1.59,1.32-2.51.43-.91,1.02-1.91,2.16-2.47.32-.15.6-.35.83-.56,1.13-1.05,2.54-1.38,3.88-1.62.44-.08.87-.12,1.29-.12,1.92,0,3.63.79,5.35,1.67.1.05.17.12.25.18.03.02.05.05.08.07.21.17.41.34.62.5.5.4,1.03.82,1.51,1.27.32.29.61.68.86,1.17.5.95.88,1.75,1.19,2.51.23.57.43,1.23.6,2.02.09.41.08.83.08,1.24v.13c0,.79.24,1.33.81,1.77.65.49,1,1.06,1.04,1.7.14,1.81-.29,3.49-1.28,4.98-.21.31-.43.67-.51,1.03-.08.36-.1.75-.13,1.12-.01.19-.02.37-.04.56-.04.42.14.71.55.87.14.06.3.1.46.14.18.05.37.1.54.18l.18.08c.49.21,1,.43,1.45.73.45.29.89.62,1.32.93.4.3.82.6,1.24.88.35.23.68.3.96.22.29-.09.53-.36.7-.77.05-.13.1-.26.15-.4.11-.32.23-.66.43-.94.64-.94.84-2,.63-3.34-.16-1.04-.03-2.04.41-3.07.65-1.53.93-2.93.86-4.28ZM30.81,20.4c-.59.39-1.23.58-1.96.58-.33,0-.67-.04-1.03-.12-.41-.09-.78-.47-1.05-.79-.44-.52-.86-1.07-1.27-1.6-.16-.22-.33-.43-.5-.65-.01-.02-.03-.04-.05-.06-.06-.07-.14-.15-.15-.26v-.05c-.02-.21-.03-.45.07-.64.11-.19.53-.21.71-.11.86.45,1.77.93,2.67,1.47.67.4,1.31.86,1.9,1.29.18.13.33.31.48.47.06.07.12.14.19.21l.14.14-.17.11ZM41.31,17.76c-.35.59-.74,1.17-1.11,1.73-.16.25-.33.5-.49.74-.33.51-.8.77-1.4.77,0,0-.01,0-.02,0h-.17c-.73,0-1.49-.01-2.22-.4l-.12-.07.04-.13c.2-.58.59-.84.97-1.09l.09-.06c.29-.19.57-.4.84-.6.12-.09.25-.18.37-.27h0c.82-.55,1.55-1.01,2.35-1.52.18-.11.39-.25.61-.19.12.03.21.11.28.23.13.24.08.64-.04.85ZM46.96,56.98c.24,0,.49,0,.7-.07.27-.08.45-.23.53-.42.07-.18.05-.38-.07-.6-.31-.57-.59-1.07-.99-1.4-.73-.59-1.56-1.09-2.36-1.57l-.23-.14c-1.32-.8-2.71-1.61-4.27-2.5-.61-.35-1.2-.42-1.78-.2-.56.2-1.05.04-1.38-.47l-.06-.09.05-.09c.3-.5.6-1.01.91-1.58.04-.25.07-.49.1-.73.07-.52.13-1.01.23-1.5.07-.33.23-.73.51-.89.52-.3.8-.72.94-1.4.06-.29.16-.56.25-.83.09-.25.17-.48.23-.72.11-.49.15-.95.12-1.36-.04-.52-.31-.9-.8-1.1-.13-.05-.25-.12-.35-.17-.04-.02-.08-.04-.11-.06l-.08-.04v-.09c-.06-.36-.1-.72-.14-1.08-.12-.95-.22-1.84-.35-2.75-.05-.33-.14-.65-.27-.95-.17-.38-.35-.76-.52-1.13-.2-.42-.41-.86-.6-1.29-.28-.67-.75-1.16-1.46-1.54-.71-.38-1.4-.81-2.07-1.22-.32-.2-.64-.4-.96-.59-.06-.03-.11-.07-.17-.11-.15-.1-.3-.2-.45-.23-1.83-.39-3.31-.28-4.65.34-.49.22-.97.5-1.44.76-.22.12-.43.24-.65.36-.69.37-1.22.93-1.62,1.69l-.08.15c-.43.81-.87,1.64-1.32,2.45-.28.5-.42,1.04-.43,1.65,0,.85-.05,1.71-.08,2.54-.01.35-.03.69-.04,1.04v.09s-.09.05-.09.05c-1.18.65-1.42,1.19-1.09,2.4.24.88.58,1.75.89,2.49.1.25.32.5.54.6.64.32.85.83.96,1.49v.06c.22,1.21.42,2.35,1.37,3.18.1.09.15.22.2.33.02.04.03.08.05.12l.04.08-.05.08c-.39.65-.91.55-1.27.41-.28-.1-.66-.24-.89-.17-.69.22-1.39.45-1.91.87-1.28,1.04-2.54,1.86-3.84,2.53-.66.34-1.21.85-1.72,1.62-.2.31-.27.58-.17.76.09.18.36.29.74.3.72.02,1.45.02,2.15.02.52,0,1.04,0,1.55.01.42,0,.85.02,1.27.04.43.02.87.03,1.3.04.96.01,1.99.02,3.13,0,.61,0,1.23-.02,1.84-.03.65-.01,1.31-.03,1.96-.03.43,0,.87,0,1.3,0,.7,0,1.42.02,2.12-.01.5-.02,1.03-.04,1.57-.04.79,0,1.62.04,2.45.18,1.08.18,2.36.37,3.67.41,1.76.05,3.56.03,5.3.02.62,0,1.23,0,1.85-.01ZM28.89,41.37c-.29.83-.84,1.31-1.63,1.4-.06,0-.11.01-.17.01-.65,0-1.28-.45-1.64-1.18-.04-.09-.07-.18-.1-.27-.01-.04-.02-.07-.03-.11h0c-.24-.85-.23-1.58.04-2.32.28-.77.98-1.32,1.69-1.34.75-.02,1.37.44,1.72,1.28.36.85.4,1.7.11,2.53ZM35.72,41.45c-.33.83-.84,1.26-1.57,1.32-.03,0-.06,0-.1,0-.7,0-1.45-.56-1.75-1.3-.4-1-.33-2.01.19-2.98l.03-.04c.6-.64,1.27-.92,1.87-.8.56.11,1.02.56,1.3,1.27.34.87.34,1.72.02,2.53Z"/>
</svg>