<?xml version="1.0" encoding="UTF-8"?>
<svg id="Layer_1" data-name="Layer 1" xmlns="http://www.w3.org/2000/svg" viewBox="0 0 64 64">
  <path d="M29.22,8.49c-.52-.66-.83-.97-1.4-.97-.19,0-.41.03-.67.1-1.17.29-2.36.62-3.51.94h-.02c-2.96.83-5.48,2.52-7.49,5.05-.11.14-.23.28-.35.43-.59.72-1.2,1.46-1.46,2.27-.52,1.62-1.13,3.75-1.27,5.86-.15,2.26.02,4.34.49,6.16.47,1.85,1.27,4.16,3.25,5.7.26.2.47.45.67.69.13.16.27.32.42.46.12.11.24.23.35.35.47.46.95.93,1.47,1.33.59.44,1.24.83,1.88,1.2.13.08.27.16.4.24.68.4.95.92.88,1.63-.05.44-.05.89-.05,1.33v.22c-.01.88.19,1.11,1.2,1.35.71.17,1.31-.11,1.59-.75.04-.09.06-.19.09-.29.01-.06.03-.12.04-.18.23-.84.68-1.81,2.04-1.92.39-.03.9-.21,1.04-.45.52-.89.91-1.8,1.17-2.71.09-.3-.06-.72-.21-1.12-.03-.09-.06-.18-.09-.26-.06-.19-.16-.36-.27-.55-.1-.18-.21-.37-.28-.57-.26-.7-.75-1.1-1.56-1.24l-.25-.05c-.6-.11-1.23-.22-1.81-.43-2.24-.8-3.78-2.04-4.7-3.79-.28-.54-.56-1.09-.85-1.66l-.3-.59v-.03c-.03-.26-.05-.51-.08-.76-.09-.85-.17-1.64-.15-2.45.06-2.3,1-4.38,2.8-6.16,1.56-1.55,3.65-2.49,6.2-2.78,1.24-.14,1.29-.31,1.62-1.57.4-1.52.15-2.75-.83-4ZM24.51,35.03c.63-.4,1.49-.31,1.95.2.16.17.25.38.35.59.04.09.08.17.12.25l.04.07-.02.07c-.32,1.02-.83,1.52-1.54,1.52-.03,0-.05,0-.08,0-.65-.03-1.31-.55-1.47-1.16-.14-.52.17-1.22.67-1.54ZM41.49,41.39v-.19c.05-.58.1-1.19.08-1.77-.01-.67.26-1.17.89-1.62.19-.13.37-.26.56-.4.88-.62,1.79-1.25,2.57-2,.99-.94,1.99-1.97,2.63-3.13.8-1.43,1.44-3,2.06-4.51.16-.4.33-.79.49-1.19.15-.35.22-.8.21-1.35,0-.87-.06-1.79-.16-2.9v-.1c-.08-.81-.16-1.66-.34-2.45-.2-.87-.54-1.12-1.47-1.09-.21,0-.43.09-.69.18-.1.04-.2.07-.3.11-.28.13-.55.26-.81.39-.66.32-1.27.62-1.94.83-1.32.41-1.58.79-1.42,2.03.34,2.64-.4,5.02-2.29,7.27-1.4,1.67-3.15,2.77-5.21,3.29-.63.16-1.06.51-1.36,1.11-.1.21-.2.43-.29.64-.07.17-.15.34-.22.5-.3.64-.31,1.29,0,1.97.21.49.41,1.02.57,1.59.15.5.44.78.93.91.09.02.19.05.28.08.21.06.4.12.58.12.01,0,.02,0,.03,0,.72,0,1.24.36,1.58,1.09.04.08.07.15.11.23.11.24.23.48.32.73.27.76.6,1,1.25.9.94-.14,1.29-.47,1.34-1.26ZM40.37,36.27c-.1.63-.53,1.07-1.22,1.27-.14.04-.29.06-.43.06-.6,0-1.16-.37-1.4-.96-.29-.75.05-1.57.79-1.87.24-.1.49-.11.74-.12.1,0,.21,0,.31-.02h.05s.04.01.04.01c.56.23,1.29.64,1.12,1.62ZM36.84,55.1c.37-.23.79-.4,1.19-.57.15-.06.3-.12.45-.19.42-.19.67-.39.75-.63.08-.23,0-.54-.21-.93-.14-.25-.29-.5-.44-.75-.29-.5-.59-1.01-.85-1.53-.17-.35-.36-.86-.28-1.3.25-1.33.13-2.69.01-4-.07-.83-.15-1.69-.13-2.54.01-.67-.38-1.02-1.2-1.09-.42-.03-.85-.08-1.26-.13-.54-.06-1.09-.12-1.64-.16-.77-.05-1.54-.02-2.26.02-.36.02-.74.06-1.1.09-.42.04-.86.09-1.29.1-.8.03-1.33.5-1.35,1.21-.06,1.94-.09,3.87-.08,5.74,0,.66-.05,1.36-.62,1.96-.18.19-.31.43-.47.71-.07.12-.13.25-.21.37l-.16.33c-.1.21-.19.39-.28.58-.25.5-.32.81-.23,1.04.08.23.34.43.86.66.57.25,1.15.5,1.72.75.98.42,1.99.86,2.97,1.31.7.32,1.46.41,2.24.26,1.29-.25,2.66-.55,3.87-1.31ZM32.32,43.72h.04s.04,0,.04,0c.78.21,1.14.67,1.1,1.4v.13c-.07,1.12-.14,2.27-.24,3.41-.06.63-.47,1.07-1.01,1.08,0,0-.01,0-.02,0-.54,0-.9-.4-.97-1.08-.14-1.35-.22-2.44-.27-3.44-.05-1.1.25-1.32,1.33-1.5ZM31.11,53.33c-.52-.63-.46-1.2.19-1.78.29-.26.69-.62,1.28-.45l.05.02c.68.43,1.03.86,1.05,1.32.02.39-.21.78-.69,1.14-.28.21-.56.32-.84.32-.37,0-.73-.19-1.04-.57ZM36.29,12.43c.26-1.14.31-2.21.15-3.27-.06-.38-.04-.6.05-.71.11-.13.38-.2.92-.22.56.15,1.11.29,1.66.43,1.33.33,2.58.65,3.78,1.14.99.41,1.87,1.18,2.72,1.92.11.1.22.19.33.29.21.18.25.42.25.59,0,.33-.16.68-.42.9-1.28,1.11-2.34,2-3.34,2.81-.26.21-.56.31-.83.28-.26-.03-.49-.17-.68-.4-.98-1.24-2.35-1.8-3.67-2.27-.95-.34-1.13-.63-.93-1.48Z"/>
</svg>