<?xml version="1.0" encoding="UTF-8"?>
<svg id="Layer_1" data-name="Layer 1" xmlns="http://www.w3.org/2000/svg" viewBox="0 0 64 64">
  <path d="M17.15,34.16c-.16.38-.32.73-.34,1.08-.22,2.77-.42,5.59-.62,8.32-.09,1.22-.17,2.43-.26,3.65-.04.5-.09,1.01-.13,1.49-.03.26-.05.52-.07.78-.06.65.11,1.09.54,1.39l.35.25c.74.52,1.51,1.06,2.29,1.56,1.73,1.11,3.79,2.41,5.88,3.66.5.3,1.01.48,1.45.5,1.78.1,3.71.15,5.88.16,1.01,0,2.05-.01,3.04-.03.93-.02,1.9-.03,2.85-.03h.01c.75,0,1.39-.2,2-.64l.37-.27c2.25-1.62,4.57-3.29,6.91-4.86.77-.52,1.06-1.04,1.01-1.87-.11-2.24-.18-4.46-.25-6.61l-.03-.79c-.07-2.08-.14-4.23-.17-6.35,0-.71-.23-1.28-.71-1.85-2.56-3.05-5.04-6.06-7.13-8.61-.21-.26-.48-.66-.53-1.08-.2-1.52-.36-3.07-.5-4.74-.1-1.2.05-1.31,1.18-1.56.73-.16.98-.42,1.09-1.16.09-.56.18-1.07.28-1.53.21-.96-.26-1.9-1.11-2.26-1.22-.5-2.24-.6-3.21-.3-1.32.4-2.68.52-4.06.36-.71-.08-1.46-.09-2.24-.04-.97.07-1.9-.11-2.8-.28l-.11-.02c-.68-.13-1.44-.17-2.19-.11-.57.04-1.14.2-1.7.34-.13.03-.26.07-.4.1-.59.15-.8.49-.68,1.1.05.27.11.54.16.81.13.63.26,1.28.38,1.93.14.74.33.94,1.03,1.08,1.09.22,1.22.38,1.18,1.46-.01.27-.04.54-.08.84l-.09.77c-.12.99-.24,2.02-.38,3.03-.06.4-.17.71-.34.94-.14.18-.28.37-.42.56-.56.75-1.14,1.52-1.81,2.19-1.87,1.85-3.46,3.83-5.33,6.22-.06.15-.12.3-.18.44ZM22.75,44.7c.05-.66.09-1.32.13-1.98.08-1.35.17-2.74.32-4.11.07-.65.37-1.38.8-1.97.66-.9,1.38-1.79,2.06-2.65.54-.67,1.1-1.37,1.63-2.07.31-.41.56-.89.8-1.36.07-.14.14-.27.21-.41.35-.67.65-1.27.91-1.84.28-.62.56-1.24.82-1.85.24-.55.48-1.09.73-1.64.09-.2.2-.39.34-.63.07-.13.15-.26.24-.43l.13-.24.17.21c.11.13.2.25.29.35.17.2.32.37.42.57.32.62.63,1.26.93,1.88.55,1.12,1.11,2.27,1.73,3.37.52.93,1.2,1.88,2.13,3l.11.13c2.65,3.18,2.7,3.24,3.94,7.35.05.18.1.36.14.54.06.25.13.51.21.75.54,1.51.37,2.99-.51,4.39-.38.93-.88,1.59-1.62,2.13-.88.65-1.73,1.36-2.55,2.05l-.41.35c-.61.51-1.3.76-2.11.78-.45.01-.9.02-1.35.03-.95.02-1.92.04-2.89.07-.04,0-.08,0-.12,0-.78,0-1.47-.24-2.11-.74-.48-.38-.97-.75-1.46-1.12-.92-.71-1.87-1.44-2.79-2.17-.94-.74-1.37-1.67-1.29-2.76ZM29.13,11.18c-1.77.09-1.95.1-2.04-1.67-.01-.21-.04-.41-.07-.61-.03-.18-.06-.35-.07-.52-.03-.4.05-.71.22-.91.16-.18.41-.29.75-.31,1.68-.1,3.4-.16,5.26-.17.63,0,1.27.04,1.9.09.39.03.79.06,1.19.07.59.02.94.14,1.13.35.18.21.23.57.16,1.12-.05.35-.08.71-.11,1.06-.02.23-.04.46-.07.7-.07.61-.28.81-.9.84-.39.02-.77.04-1.16.06-1.04.05-2.11.11-3.17.11-.63,0-1.25-.06-1.92-.12-.34-.03-.69-.06-1.05-.09h-.01s-.04,0-.04,0ZM26.11,43.38c-.42-1.78-.4-3.53.4-5.03,1.22-2.27,3.53-3.84,6.4-3.48,1.55.2,2.77.86,3.96,1.96,1.35,1.26,1.71,2.74,1.94,4.38.06.44.05.89.04,1.34-.02,1.27-.6,2.1-1.83,2.42-.84.21-1.22.68-1.28,1.5-.02.34-.05.72-.21,1-.13.23-.46.48-.71.47-.23,0-.52-.28-.65-.51-.16-.26-.02-.71-.62-.79-.08.27-.12.58-.27.81-.15.23-.39.49-.65.56-.37.1-.64-.17-.79-.52-.13-.29.02-.72-.45-.87-.39.09-.37.42-.42.72-.06.38-.29.7-.67.65-.3-.04-.62-.26-.82-.49-.15-.18-.18-.52-.18-.78,0-1.05-.59-1.58-1.54-1.77-.86-.17-1.45-.61-1.67-1.57ZM34.33,42.8c.26.07.53.19.79.19.69,0,1.37-.59,1.55-1.29.19-.75-.18-1.57-.86-1.91-.64-.32-1.38-.17-1.87.38-.66.74-.56,1.67.39,2.63ZM30.46,42.72c.22-.25.5-.47.65-.77.31-.61.18-1.2-.29-1.71-.44-.47-.93-.84-1.62-.61-.65.22-1,.72-1.12,1.36-.26,1.37.77,2.19,2.38,1.72Z"/>
</svg>