<?xml version="1.0" encoding="UTF-8"?>
<svg id="Layer_1" data-name="Layer 1" xmlns="http://www.w3.org/2000/svg" viewBox="0 0 64 64">
  <path d="M39.27,52.37h0s0,0,0,0c-1.95.13-3.87.04-5.72-.05-.71-.03-1.44-.07-2.16-.09-1.36-.04-2.74.04-4.08.12-.55.03-1.12.06-1.67.09-.2,0-.4.03-.59.05-.29.03-.56.06-.83.05-.65-.02-1.31-.04-1.95-.05-2.11-.04-4.29-.09-6.41-.52-1.03-.21-2.11-.27-3.15-.33-.42-.02-.85-.05-1.27-.08-.98-.08-1.13-.24-1.18-1.22-.03-.54-.06-1.08-.09-1.62-.08-1.32-.17-2.68-.14-4.01.04-1.53.19-3.09.34-4.6.05-.51.1-1.02.15-1.52.03-.37.09-.74.15-1.11.05-.3.1-.61.13-.92.07-.65.36-1.19.88-1.66.38-.34.75-.69,1.12-1.04,1.01-.94,2.06-1.91,3.13-2.82.61-.52,1.36-1,2.29-1.47.26-.13.48-.2.66-.2.09,0,.18.02.25.05.24.11.42.4.54.9.22.85.49,1.68.83,2.66.09.27.29.55.53.73.61.47.92,1.09.92,1.9,0,.28.05.55.12.85.25,1.23.7,2.05,1.45,2.66.32.26.59.58.86.9.06.07.11.13.17.2.58.67,1.24,1.11,2.03,1.34.84.24,1.44.76,1.85,1.58.34.68.83,1.28,1.27,1.79.52.6,1.2.95,1.93.99.75.04,1.48-.24,2.06-.79.6-.56,1.08-1.04,1.51-1.58.59-.74,1.24-1.06,2.05-1.02.96.05,1.75-.28,2.41-1.04.25-.28.51-.55.76-.82.37-.4.76-.8,1.11-1.23.26-.31.48-.72.65-1.22.21-.62.41-1.26.6-1.88.13-.42.26-.84.39-1.26.02-.07.04-.14.07-.22.08-.28.17-.57.33-.75.83-.92,1.17-2.06,1.5-3.15.05-.18.11-.36.17-.54.15-.47.3-.71.48-.79.18-.07.44-.01.84.19,1.29.66,2.5,1.59,3.94,3.01.43.43.85.9,1.25,1.35.36.41.73.83,1.11,1.22.47.48.68,1.01.67,1.72,0,.61,0,1.24.01,1.84.02,1.01.03,2.06-.02,3.08-.07,1.54-.21,3.1-.34,4.62-.06.68-.12,1.36-.17,2.03-.01.18-.03.36-.04.54-.02.32-.04.66-.08.99-.07.6-.31.83-.89.89-1.24.13-2.5.25-3.72.37-.91.09-1.81.18-2.72.27-.14.01-.28.03-.42.04-.54.05-1.1.1-1.63.22-1.25.28-2.6.39-4.25.36ZM27.15,38.41c.61.17,1,.51,1.28,1.1l.26.55c.42.92.86,1.86,1.33,2.77.38.74,1.03,1.24,1.64,1.27.53.03,1.03-.28,1.43-.9.48-.74.98-1.57,1.55-2.63.26-.49.64-.98,1.45-.94h.11s.05.1.05.1c.02.04.04.09.06.13.04.08.07.16.11.24.26.47.73.95,1.55.51.21-.11.39-.28.58-.45.06-.06.12-.11.18-.16.15-.13.29-.26.43-.4.28-.26.57-.54.89-.76.39-.27.6-.59.75-1.12.31-1.16.68-2.32,1.04-3.44.1-.3.19-.59.29-.89.06-.2.2-.37.31-.49.8-.93,1.16-2.07,1.46-3.17.2-.73.09-1.44-.34-2.12-.19-.3-.35-.67-.46-1.06-.18-.66-.36-1.33-.53-1.98-.32-1.24-.66-2.52-1.06-3.75-.33-1.01-1.01-1.75-1.91-2.09-1.13-.42-2.31-.82-3.59-1.21-.57-.17-1.16-.29-1.77-.35-1.11-.1-2.21-.16-3.27-.18h-.2c-.55-.02-1.11-.03-1.54.17-2.49,1.16-4.81,2.44-5.75,5.25l-.25.78c-.36,1.1-.7,2.14-1,3.2-.14.49-.27.95-.72,1.32-.47.38-.69.9-.63,1.48.12,1.16.33,2.35,1.12,3.24.73.82,1.1,1.71,1.14,2.7.06,1.58.76,2.82,2.14,3.79.13.09.24.19.35.3.14.13.28.26.43.33.22.11.52.15.69.08.05-.04.12-.3.15-.42.01-.04.02-.08.03-.12.02-.07.02-.17,0-.29,0-.07,0-.14,0-.23v-.24l.23.07ZM50.75,22.71c.04,1.71.05,3.42.08,5.13.02,1.21.39,1.58,1.59,1.66.79.05,1.26-.3,1.34-1.08.09-.88.17-1.77.18-2.66.04-3.25.04-6.49.06-9.74,0-.5-.09-.98-.59-1.22-.37-.18-.76-.31-1.16-.41-.55-.13-1.05.08-1.29.59-.15.33-.22.71-.24,1.08-.06.95-.07,1.91-.11,2.97.04,1.29.11,2.48.13,3.68ZM14.08,20.96c0-1.26-.11-2.53-.13-3.79-.02-1.71-.03-1.74-1.67-2.12-1.03-.24-1.56.18-1.59,1.24-.01.51,0,1.03-.01,1.54-.04,1.02-.16,2.05-.14,3.07.05,2.32.18,4.64.25,6.97.04,1.39.25,1.62,1.61,1.62.96,0,1.31-.3,1.37-1.25.08-1.33.13-2.66.2-4.09.04-1.13.11-2.15.1-3.18ZM48.86,13.37c0-1.86-.07-1.86-1.91-1.9-.07,0-.14-.02-.2-.01-.71.03-1.02.35-1.12,1.07-.41,3.08.1,6.14.1,9.21,0,.13.04.27.08.4.2.56,1.07,1,1.79.91.58-.08,1.01-.53,1.07-1.2.04-.37.02-.75.04-1.22.06-2.48.16-4.87.15-7.26ZM19.16,21.07c-.03-.75.04-1.5.05-2.25.03-2.05.06-4.09.06-6.14,0-.58-.33-.85-.92-.87-.34-.01-.68.02-1.02.03-.98.04-1.18.31-1.29,1.31-.33,2.9.19,5.79.13,8.69-.01.61.24,1.06.99,1.18,1.55.14,2.08-.21,2.01-1.95Z"/>
</svg>