<?xml version="1.0" encoding="UTF-8"?>
<svg id="Layer_1" data-name="Layer 1" xmlns="http://www.w3.org/2000/svg" viewBox="0 0 64 64">
  <path d="M45.55,45.79c1.19-.11,2.33.17,3.48.85.67.4,1.41.76,2.22.72.37-.02.66-.18.79-.43.12-.23.09-.5-.08-.78-.15-.25-.42-.45-.68-.64-.09-.07-.18-.14-.27-.21-.16-.13-.33-.24-.5-.36-.33-.23-.68-.46-.93-.77-.56-.68-1.28-1.03-2.26-1.1-.14,0-.29-.02-.43-.03-.37-.02-.74-.05-1.12-.08-.56-.05-1.04-.32-1.43-.78-.3-.36-.62-.72-.95-1.11-.15-.18-.31-.36-.48-.55l-.16-.18.23-.07c.14-.04.28-.09.43-.13.93-.27,1.9-.56,2.41-1.57l.02-.03.03-.02c.49-.4.73-.89.69-1.42-.04-.59-.44-1.15-1.07-1.52-.31-.18-.66-.31-1.05-.45h-.03c-.62-.22-1.26-.45-1.42-1.37-.05-.28-.25-.54-.46-.82-.14-.19-.29-.39-.4-.61-.26-.51-.56-.82-.98-.99-.1-.04-.21-.09-.31-.13-.28-.12-.57-.24-.86-.33-.32-.1-.68-.29-.69-.85v-.36c-.02-1.11-.04-2.27.26-3.4.18-.67.32-1.39.43-2.21.12-.93.24-1.89.34-2.81.16-1.33.32-2.71.52-4.06.14-.96.36-1.92.57-2.85.07-.3.14-.6.2-.9.17-.76,0-1.13-.66-1.45-.2-.1-.4-.21-.6-.31-.36-.19-.72-.38-1.1-.54l-.07-.03c-.41-.18-.84-.36-1.24-.35-1.83.04-3.64-.26-5.39-.55-.38-.06-.76-.12-1.14-.18-.24-.04-.48-.06-.71-.06-.48,0-.93.08-1.36.25-1.65.63-3.33,1.26-4.96,1.86l-1.26.47c-.62.23-.83.6-.72,1.23.03.16.07.31.11.47.03.1.06.21.08.31.15.64.3,1.28.45,1.91.29,1.26.6,2.56.9,3.84.14.58.26,1.16.37,1.73.23,1.15.47,2.33.88,3.46.5,1.39.73,2.99.7,4.89v.12s-.12.03-.12.03c-.2.05-.4.1-.6.15-.43.11-.84.21-1.24.35-.53.19-.91.53-1.09.96-.18.44-.16.94.07,1.46.07.16.16.32.24.49.04.08.09.17.13.25l.04.09-.06.08c-.04.05-.08.11-.11.17-.08.12-.17.25-.27.36-.62.66-.92,1.43-.85,2.21.08.9.64,1.81,1.54,2.48.24.18.49.35.75.54.12.08.24.16.35.25l.1.07-.05.12c-.03.08-.06.15-.08.21-.05.14-.09.28-.18.39-.5.61-.59,1.36-.64,2.14-.02.32.02.65.06.98.01.09.02.17.03.26.09.81-.17,1.46-.79,1.99-.6.52-1.3.75-1.84.9-1.28.35-2.04.96-2.39,1.94-.16.44-.46.72-.93.87-.44.13-.79.43-1.05.9-.21.37-.27.66-.17.86.09.2.34.33.73.41,1.83.35,3.34.38,4.73.09.44-.09.71-.24.83-.45.11-.21.1-.5-.05-.89-.29-.76-.31-1.3.43-1.83.47-.34,1.03-.66,1.67-.96,1.17-.54,1.71-1.17,1.83-2.1.07-.53.14-1.08.06-1.58-.2-1.37.57-2.24,1.16-2.78l.07-.06.08.02c.26.07.51.15.75.22.54.16,1.04.32,1.56.42.47.09.97.15,1.45.2.35.04.71.08,1.07.14,1.39.22,2.62-.14,3.65-1.08.29-.26.62-.47,1.14-.23.47.22,1,.21,1.64-.04.58-.22,1.18-.4,1.75-.56.13-.04.27-.01.39.01.05,0,.1.02.14.02l.17.02-.04.17s-.01.08-.02.11c-.01.08-.02.17-.1.22-.15.1-.31.19-.46.28h-.01c-.16.1-.36.25-.4.46-.03.17.05.35.22.55.06.07.13.13.21.19.04.03.08.06.12.1.1.09.21.18.32.27.48.4.98.81,1.24,1.46.04.09.19.19.3.27l.03.02c.78.51,1.43.71,2.12.65ZM33.58,39.67c-.29.07-.57.09-.85.09-.74,0-1.44-.19-2.13-.38l-.23-.06-.02-.1c-.03-.14-.04-.29-.05-.43-.03-.28-.05-.55-.17-.68-.22-.24-.54-.39-.88-.55-.13-.06-.26-.12-.38-.19-.05-.03-.12-.04-.19-.06-.08-.02-.15-.04-.23-.07-.74-.34-1.38-.17-1.97.51l-.08.1-.11-.06c-.57-.31-.91-.55-1-.88-.08-.29.05-.58.27-.95l.04-.07h.08c.14-.01.28-.02.42-.03.35-.02.68-.04,1.02-.04h0c.17,0,.33.06.49.11l.08.03c.72.24,1.43.49,2.15.73l.75.26c.33.08.64.16.95.23.55.13,1.06.26,1.57.39.43.11.61.39.55.84-.03.22,0,.45.03.7.01.12.03.25.04.38v.14s-.12.03-.12.03ZM36.01,34.25c-.2.52-.4.79-.67.9-.09.04-.18.05-.28.05-.2,0-.45-.07-.77-.22-.42-.19-.88-.33-1.32-.47-.15-.05-.3-.09-.45-.14l-.38-.12c-1.15-.37-2.34-.74-3.52-1.09-.34-.1-.69-.19-1-.14-.91.15-1.46-.34-1.91-.9l-.04-.05v-.07c.04-.21.12-.36.25-.45.13-.08.28-.09.47-.04.09.03.17.07.25.1.1.05.21.1.28.09,1.07-.13,1.99.28,2.87.68.11.05.22.1.33.15.33.15.73.21,1.1.25.34.04.59-.01.73-.15.14-.14.2-.38.17-.72-.04-.5-.17-.99-.37-1.44-.4-.9-.43-1.83-.43-2.64,0-1.23.55-2.24,1.07-3.23l.04-.08c.07-.12.21-.17.33-.21.04-.01.08-.03.12-.04l.16-.08.05.17c.14.45.22.79.16,1.13-.13.84-.3,1.67-.48,2.5-.16.74,0,1.43.47,2.11.4.59.57,1.19.53,1.89-.05.73.06,1.2.33,1.49.28.3.79.44,1.59.45.07,0,.14.03.18.05.01,0,.03.01.04.02l.15.06-.06.15ZM41.54,37.3c-.21.11-.41.21-.6.31-.52.27-1.02.53-1.53.76-.06.03-.14.04-.21.04-.21,0-.44-.09-.59-.2-.2-.16-.37-.36-.56-.59-.08-.1-.18-.21-.28-.33l-.12-.14,2.97-1.9.09.05c.13.08.35.22.27.4-.25.55-.08.95.58,1.32l.26.15-.26.13ZM28.16,47.41c.51-.57.73-1.18.68-1.85,0-.12,0-.25.02-.39v-.04c.12-1.16.48-1.46,1.68-1.36.46.04.96-.01,1.39-.13.45-.13.98-.23,1.52-.07.72.22,1.44.16,2.15-.17.76-.36,1.58-.48,2.67-.4.43.03.8.03,1.12-.02.45-.07.78.1,1.05.54.03.04.05.09.07.13.02.03.04.07.05.1.14.26.28.53.42.79.49.97,1,1.97,1.93,2.69.11.08.21.25.28.46.09.25.18.5.26.75.34.96.69,1.96.98,2.95.15.51.16.84.03,1.07-.14.24-.45.41-1.03.56-.33.08-.65.17-.98.26-.66.17-1.34.35-2.01.52-.45.11-.81.16-1.13.16-.66,0-1.33-.02-1.98-.04-.66-.02-1.35-.04-2.02-.04h-.28c-.96,0-1.95-.01-2.92.08-1.5.14-2.93-.07-4.38-.65-.17-.07-.32-.22-.5-.39-.05-.05-.1-.09-.15-.14,0-.06-.02-.12-.03-.19-.05-.35-.09-.65-.05-.94.05-.42.13-.84.21-1.25.08-.44.17-.9.22-1.35.08-.67.31-1.2.7-1.64ZM22.87,43.13c-.03.35-.03.69-.02,1.02.02.34-.04.59-.18.72-.12.11-.31.16-.56.14-.73-.05-1.32.19-1.89.79-.05.06-.12.11-.19.16-.08.06-.15.12-.22.19-.61.63-1.32.88-2.17.78-.11-.01-.23,0-.36,0-.06,0-.12,0-.2,0h0c-1.45.07-2.42.51-3.16,1.41-.41.5-1.05.48-1.52.37-.22-.05-.39-.18-.47-.35-.07-.16-.05-.35.06-.53.83-1.39,1.72-2.64,3.51-2.73.27-.01.53-.08.78-.14.16-.04.33-.08.49-.11.72-.11,1.32-.42,1.84-.93.81-.8,1.51-1.14,2.35-1.15.26,0,.5-.11.74-.21.09-.04.17-.07.26-.11.23-.08.41-.12.55-.12.1,0,.18.02.23.06.13.1.17.34.14.73Z"/>
</svg>