<?xml version="1.0" encoding="UTF-8"?>
<svg id="Layer_1" data-name="Layer 1" xmlns="http://www.w3.org/2000/svg" viewBox="0 0 64 64">
  <path d="M47.62,44.57c-2.2,3.51-5.23,6.16-8.96,7.7-1.25.52-2.34,1.04-3.73,1.19l-4.38.5c-1.31.15-2.54-.13-3.76-.54-1.65-.55-3.69-.77-5.06-1.91l-3.48-2.9c-.92-.77-1.64-2.06-2.11-3.2l-1.8-4.33c-.58-1.39-.58-3.57-.32-5.05l.6-3.42c.43-2.48,1.82-4.58,3.31-6.51.89-1.15,1.7-2.29,2.9-3.08l2.57-1.72,2.19,2.37c1.01,1.11,2.39,2,3.97,1.71,2.25.92,4.53.42,6.79.09,2.86-.42,5.36-.68,6.19-4.19,1.86,1.11,3.63,2.44,4.81,4.23l1.04,1.59c.63.96,1.34,2.24,1.48,3.42l.33,2.85-.04,4.93-1,3.26c-.36,1.19-.86,1.98-1.5,3.01ZM31.49,44.63c3.84-.71,6.91-2.94,8.79-6.32,2.02-3.64.85-5.16,1.24-5.81.49-.84,2.3,2.6,2.9,4.64l.13,1.33.08,2.59c.45-1.18,1.05-2.54.8-3.72l-.56-2.7c-.48-1.09-1.4-2.31-2.31-3.17-2.46-2.33-6.73-3.11-9.64-2.23l-2.41.73c-1.45.66-2.88,1.42-4.11,2.44-.69.57-1.71,1.59-2.12,2.32l-1.63,2.85-.74,2.03c-.15.41-.23,1.25-.24,1.65l.63,3.78,1.3,1.87c.39.55,1.25,1.36,1.84,1.61l2.24.92-1.7-1.57c-1.16-1.07-1.95-2.16-2.47-3.72-.12-.35-.3-.93.04-1.04,2.52,1.6,5.08,2.07,7.94,1.53ZM37.02,16.65l2.64-3.36.39-.5c.09-.11-.19-.46-.31-.54l-3.33-2.25-8.17.32-2.43,2.21c-.16.15-.31.66-.15.76l.63.36,4.06,3.26,4.59-.11,2.06-.14ZM37.91,23.98c.59-.04,1.34-.41,1.1-1.08l-.68-1.93-1.05-2.8-3.1.03-3.8.19c-.39.02-.65.95-.78,1.34l-1.02,2.97c-.11.32-.21.84-.08,1.07.11.2.61.45.85.45l5.55-.06,3.02-.18ZM27.18,23.14c.11-.15.33-.53.39-.71l1.45-4.44-3.73-3.58c-.48-.47-1.15-.14-1.48.28l-1.78,2.24c-.41.52-.23,1.23.19,1.76l1.38,1.76c.99.8,1.89,1.58,2.73,2.55.14.16.75.3.86.15ZM41.67,21.26l1.39-2.39c1.06-1.82.12-2.02-.73-4.54-.11-.32-.89-.49-1.28-.35-.28.1-.6.51-.82.85l-1.9,2.91.37,1.69c1.02,1.3.91,2.53,1.54,3.15.11.11.62-.03.7-.16l.73-1.16Z"/>
</svg>