<?xml version="1.0" encoding="UTF-8"?>
<svg id="Layer_1" data-name="Layer 1" xmlns="http://www.w3.org/2000/svg" viewBox="0 0 64 64">
  <path d="M44.13,47.04c.34-.23,1.16-.39,1.66-.29.29.06.24.89.3,1.18l.79,3.7c.31,1.48-1.55,2.51-2.9,2.36-4.21-.48-8.26-.32-12.49-.2l-4.32.12-8.45-.03-2.73-1.75-1.7-2.99.1-3.27.53-9.79.29-5.03c.1-1.76.18-3.41.26-5.21l.43-9.79c.09-2.02.85-3.56,2.7-4.28l3.72-1.45c.4-.16,1.1-.08,1.35.18.69.74-.63,1.6,0,5.15.38,2.16.1,4.16.03,6.33l-.14,4.68-.06,11.04-.35,5.11c-.05.77.19,1.66-.14,2.35l-2.99.31c-1.25.13-2.69,2.4-2.58,2.81.57,2.05,2.77,3.17,4.88,2.69,1.8-.41,3.38-.46,5.28-.44l6.73.07,5.75-.1h4.19c-.67-1.31-.83-2.43-.15-3.47ZM40.96,46.97l-9.48-.17-5.27-.03h-4.68c-.94-.02-2.17.95-2.17,1.46,0,.86,1.1,1.51,2.73,1.48l9.4-.13,9.5-.09c-.38-.8-1.07-.68-1.72-.76l-4.43-.57c2.15-.66,4.21.28,6.13-1.19ZM47.12,34.83c-.02-.93,0-2.17-.35-2.84l-3.67-.34c-1.23-.12-2.75-.11-3.98.06l-2.53.34c-.74.1-1.78-.1-2.29-.57l-1.85-1.68c-.3-1.35-.27-3.1.12-4.39.68-.45,1.2-.88,1.73-1.46,1.4-1.54,4.62-.41,5.18-.4l6.04.18c.32,0,.67.02.85-.06s.3-.63.29-.85l-.27-4.65c-.71-.7-.92-1.61-.16-2.38l-.05-3.95-1.73-1.83-6.84.22-3.84-.14-8.52.93-.03,2.58.07,4.08v6.14c.02,1.81-.47,3.69-.27,5.5.18,1.67.4,3.19.07,4.87-.46,2.35-.58,4.6-.11,6.97.53,2.67-.99,4.08.97,4.18l4,.21,4.42-.06,2.83.28,4.77-.04,3.48.16c.86.04,2.54-1.07,2.47-2.04l-.35-4.71-.62-1.66c.21-1.05.19-1.78.18-2.66ZM47.98,34.14c.09.32,1.07-.04,1.17-.44.17-.69.56-1.64.55-2.28l-.03-5.13c0-1.2-1.1-1.52-2.01-1.48l-3.29.16-4.67.09c.07.41.4.72.56.99l.83,1.47c-.44,1-.87,1.64-1.66,2.8l5.95.1c.69.01,1.54.44,2.37.73l.24,2.98ZM38.7,25.82c-.95-.89-2.06-1.09-3.15-.5-.96.53-1.75,1.48-1.44,2.81.18.79.98,1.61,1.6,1.83.82.3,2.15.4,2.65-.25l1.5-1.97c-.08-.75-.69-1.49-1.16-1.93Z"/>
</svg>