<?xml version="1.0" encoding="UTF-8"?>
<svg id="Layer_1" data-name="Layer 1" xmlns="http://www.w3.org/2000/svg" viewBox="0 0 64 64">
  <path d="M45.87,49.23l-.66-2.34-.73-1.45h0s0-.02,0-.02l-.9-2.16v-.03s-.02-.03-.02-.03l-.89-4.14c-.11-.49-1.01-.68-1.66-.76l.04.26.08.57-.56-.15-3-.79c-.32-.09-.65-.2-.96-.31-.63-.22-1.27-.44-1.9-.44-.16,0-.33.02-.48.05l-3.65.73h-.01s-.01,0-.01,0l-2.81.36-.29.04-.11-.27-.22-.53-.13-.31.28-.17,1.5-.89c.67-.4,1.51-.55,2.31-.7.35-.06.68-.12.99-.2.68-.18,1.5-.36,2.34-.36.45,0,.86.05,1.28.15l3.3.79h.03s.03.02.03.02l1.72.71c.15.06.29.15.45.25.13.08.38.24.48.25.18-.09.53-.45.56-.59l.34-2.89v-.03s.01-.03.01-.03l.73-2.76v-.03s.02-.03.02-.03l.72-1.6.28-2.28c.02-.19-.12-.62-.22-.72-.09-.05-.25-.09-.44-.13-.68-.14-1.69-.36-2.9-1.89-.04,0-.08,0-.12,0-1.32,0-2.54-.5-3.83-1.58-.13.01-.28.03-.43.04-.38.04-.82.09-1.23.09-.64,0-1.09-.1-1.44-.33-.56-.37-1.08-.55-1.57-.55-.46,0-.94.16-1.46.49l-.03.02h-.03c-.55.25-1.13.36-1.81.36-.29,0-.57-.02-.81-.04-.21-.01-.4-.03-.57-.03-.49,0-.73.09-.88.61-.15.52-.22,1.54-.19,2.21,1.27,2.96.59,4.1-.65,6.16-.22.36-.46.77-.72,1.23l-.24.42-.36-.33c-.99-.91-.41-2.19-.13-2.8l.89-1.97c.13-.28.18-.85.23-1.36.02-.18.03-.35.05-.51-.3-.33-.89-.64-1.46-.77l-.16-.03-.09-.14-.58-.93-.05-.08v-.1c-.09-1.25-.66-2.3-1.83-3.41-.7-.67-1.24-.97-1.74-.97-.34,0-.7.14-1.08.44-.59.45-.49,1.08-.24,2.23.2.92.43,1.97.13,3.12-.03.1-.06.2-.09.31-.1.33-.22.74-.13.94.15.35.99.94,1.47,1.09.08-.08.22-.23.34-.37.54-.62,1.43-1.65,2.79-1.65.02,0,.05,0,.07,0l.92.02-.67.64c-1.32,1.26-2,2.48-2.29,4.08-.15.84-.01.94.5,1.3.31.22.69.49,1.11.98.25.29.66.49,1.22.59l.22.04.07.21c.19.57.4,1,.58,1.17.59.57.8,1.08.98,1.49.19.44.31.74.82,1.03l.75.44-.83.26c-.84.27-.95.79-1.1,1.51-.05.22-.09.46-.17.69l-1.55,4.98c-.08.25-.21.48-.33.69-.16.28-.31.55-.33.83-.06.84-.39,1.6-.68,2.16-.12.24-.14.47-.06.69.15.41.62.72,1.01.87l2.01.8.15.06.06.15c.4,1,.26,1.85.16,2.48-.08.48-.11.72-.01.87l2.84.7,3.48.52c.38.06.75.12,1.1.19.8.14,1.55.28,2.36.28.23,0,.46-.01.69-.03h.15c2.26-.24,4.59-.46,6.74-1.1.11-.08.26-.5.24-.64l-.26-2.82-.02-.26.23-.12,1.99-1c.89-.44,1.18-1,.95-1.8ZM43.75,49.49l-2.97,1.56-.06.03h-.06s-4.5.69-4.5.69c-.09.01-.17.03-.25.04-.44.07-.86.13-1.3.13-.36,0-.7-.04-1.05-.14-1.49-.4-3.08-.62-4.98-.71h-.08s-.07-.04-.07-.04c-.96-.46-1.91-.76-3.16-1l-.26-.05-.04-.26c-.18-1.14.11-2.25.39-3.32.11-.43.23-.88.32-1.32l.24-1.3v-.03s.02-.03.02-.03l.68-1.82.64-1.73.1,1.84.16,2.94v.19c.07,1.07.12,1.99-.28,3.11,0,.08.15.29.24.31l3.54.58c.39.06.78.16,1.2.26.73.17,1.48.35,2.18.35.26,0,.5-.02.72-.08,1.66-.38,3.23-.6,5.11-.72l3.3-.2,1.78-.11-1.58.83ZM41.09,21.43c-.04.49-.09,1.22-.23,1.31,0,0,0,0-.02,0-.04,0-.18-.02-.45-.18-.85-.5-1.6-.64-2.09-.74-.18-.03-.39-.07-.47-.11,0-.09.03-.27.05-.39.02-.1.03-.21.04-.31l.42-3.98.39-.6.03-.05.02.02c.79.9,1.55,1.07,2.11,1.2.45.1.72.17.92.52l-.18.46c-.39.98-.47,2.01-.53,2.84ZM45.59,16.3l-.02,3.42c-.05.14-.45.47-.69.56l-.5.2.35.41c.42.49.37.81.2,1.51l-.56,2.38c-.02.09-.13.28-.2.33-.02,0-.02,0-.02,0-.04,0-.2-.16-.29-.25-.28-.28-.66-.67-1.37-.91-.25-.08-.54-.35-.59-.47l.71-3.27c.07-.34.22-1.02-.2-1.57l.14-.48c.28-.94.35-1.91.18-2.59l-.17-.67c.34-.29.66-.43,1.01-.43s.72.14,1.07.28c.76.31.95.61.94,1.54ZM33.46,7.16c.26-.11.49-.16.73-.16.37,0,.74.13,1.09.27.71.28.87.47,1.06,1.25l.5,1.98.1.4v.02c-.15.65-.04,1.35.05,1.97.06.42.16,1.06.01,1.09-.02,0-.03,0-.05,0-.12,0-.3-.08-.51-.17-.36-.16-.81-.35-1.42-.35-.55,0-1.11.16-1.73.49l-.52.27-.08-.09c-.42-.45-.38-.83-.32-1.53.07-.67.15-1.51-.17-2.72-.33-1.25.12-2.25,1.25-2.74ZM36.98,15.53c.14.18.11.4.02.82-.04.19-.08.38-.09.58l-.11,3.93c0,.09-.08.27-.14.35,0,0-.02,0-.03,0-.15,0-.32-.05-.36-.07-.48-.29-.97-.43-1.48-.43-.4,0-.74.08-1.05.16-.22.06-.42.1-.58.1-.1,0-.18-.02-.25-.06-.18-.1-.37-.61-.31-.83.4-1.43.19-2.46.01-3.29-.17-.83-.3-1.43.13-2.21l.06-.12.53.19,2.26.81.06.02h.06s1.26.05,1.26.05ZM41.46,11.77c0,.69,0,1.64.43,3.01l.18.58.05-.05-.09.18-.47.92c-.09-.05-.21-.13-.3-.19-.41-.27-.98-.64-1.59-.64-.29,0-.57.08-.82.25l-.18.12h0c-.44-.41-.43-.74-.3-1.47.22-1.17-.06-2.58-.73-3.68l-.11-.18c.46-.52.96-.76,1.55-.76.33,0,.69.07,1.12.22,1.26.44,1.26.68,1.27,1.68ZM31.31,19.66c.08.83.02,1.13-.24,1.2-.39-.08-.77-.12-1.15-.12-1.11,0-2.14.34-3.09,1.01-.09,0-.15-.04-.2-.09-.18-.2-.27-.69-.22-1.32.06-.89-.06-1.69-.16-2.4-.15-1.04-.28-1.87.16-2.6l.17-.28-.25-.21c-.42-.36-.44-.7-.49-1.32,0-.13-.02-.26-.03-.4l-.31-3.22c-.05-.55.52-1.26.93-1.49.38-.22.84-.33,1.32-.33.96,0,1.78.46,1.89,1.07.26,1.38.62,2.54,1.17,3.78.08.17-.1.66-.24.78-.47-.13-.98-.25-1.51-.25-.45,0-.88.08-1.31.26l-.49.2c-.38.15-.34.6-.31,1.02v.1s.04.39.04.39l.39-.04,2.72-.29h.02s.02,0,.02,0l.73-.14c.07.09.15.26.16.32l.26,4.13c0,.08.01.17.02.27Z"/>
</svg>