<?xml version="1.0" encoding="UTF-8"?>
<svg id="Layer_1" data-name="Layer 1" xmlns="http://www.w3.org/2000/svg" viewBox="0 0 64 64">
  <path d="M37.01,56.69c.55.03,1.12.06,1.71.06h4.39s.01,0,.01,0h.01s3.73.24,3.73.24c.02,0,.04,0,.05,0,.52,0,1.07-.26,1.08-.38.07-.99-.06-1.83-.2-2.81-.03-.21-.06-.42-.09-.64-.02-.18-.03-.4-.04-.63-.02-.38-.03-.84-.14-1.09-.14-.09-.65-.19-1.04-.19h-.02s-.38,0-.38,0l-.04-.37-.53-5.09c0-.08-.02-.17-.02-.27-.01-.2-.05-.66-.13-.78-.12-.06-.45-.16-1.31-.16h-.03s-.37,0-.37,0l-.04-.36-.25-2.16c-.03-.28-.07-.56-.1-.83-.16-1.28-.31-2.5-.22-3.88,0-.15-.1-.41-.18-.5l-3.24-.05c-.11.11-.22.57-.17.82l.11.55c.03.15,0,.3-.1.42-.21.26-.58.27-1.25.3-.62.02-1.44.05-2.1.3-.05.56-.11,1-.44,1.23-.12.08-.27.12-.46.12-.4,0-1.02-.17-1.05-.65-.02-.31-.1-.71-.21-.97l-4.63.05c-.09.26-.18.6-.23.94-.07.45-.63.66-1.14.66-.21,0-.49-.04-.69-.21-.23-.2-.26-.53-.3-.85-.01-.12-.03-.33-.06-.39-.13-.2-.99-.2-1.27-.2h-.12s-.12,0-.12,0c-.55,0-.9-.02-1.12-.24-.1-.1-.15-.24-.15-.38l.02-.75c0-.32-.06-.69-.13-.78-.02-.02-.06-.04-.18-.04-.13,0-.31.03-.51.06-.31.05-.69.11-1.14.11-.37,0-.73-.04-1.1-.13-.04,0-.12-.02-.22-.02-.15,0-.26.02-.31.03-.04.09-.1.32-.11.6l-.21,3.71-.17,3.1-.03.49-.47-.11c-.15-.04-.3-.05-.44-.05-.27,0-.72.06-.74.48l-.18,2.88c-.02.24,0,.51.01.8.04.85.09,1.81-.59,2.45l-.11.11h-.16c-.44.02-.9.11-1.16.22l-.21,4.65c-.01.26.04.48.13.57.03.03.08.07.2.07h.02s6.04-.22,6.04-.22c.42-.02.67-.09.73-.13.1-.14.08-.42.05-.69-.04-.43-.09-.95.36-1.28.35-.26,1.11-.36,1.14-.36l1.27-.16.09-1.08v-.1s.06-.09.06-.09l.83-1.3.12-.2h.23s5.5.15,5.5.15l1.34.04-1.13.72c-1.44.92-2.88,1-3.93,1.06-.6.04-1.17.07-1.32.27-.07.09-.08.25-.06.47.13.02.25.04.37.06.55.08,1.06.16,1.71.49l1.13.58-1.25.19-4.27.66c-.13.19-.22.49-.26.78l4.74.07,3.81.05c.53-.09,1.08-.13,1.72-.13.54,0,1.07.03,1.63.06ZM33.86,50.22h-4.36s-.41-.01-.41-.01v-.41s.02-4.82.02-4.82c0-1.12,1.65-2.41,2.72-2.41h.03c1.29.02,2.85,1.14,2.93,2.53l.21,3.7s.09,0,.13,0c.82,0,1.6,0,2.49.6l.94.64-1.13.11-1.52.15h-.03s-.03,0-.03,0l-1.98-.07ZM37.75,37.17c.03-.1.06-.2.09-.3.13-.44.25-.86.49-1.12.27-.28.78-.39,1.34-.46l-.2-1.53h0s0-.03,0-.03l-.24-3.9-.02-.31.3-.1,1.21-.41c.18-.75,0-1.27-.24-1.97-.03-.09-.06-.18-.09-.27-.39-1.18-.35-2.31-.31-3.14.02-.51.04-1.09-.09-1.23-.04-.04-.14-.05-.22-.05-.01,0-.02,0-.03,0l-2.63.08s-.11,0-.2.13c-.21.32-.23,1-.1,1.35l.21.57-.61-.03-2.11-.09h-.02c-.31,0-.8.17-.9.28l-.38,1.41-.29,1.09-.48-1.02c-.06-.11-.46-.33-.71-.34l-.32.64c-.16.32-.56.32-.74.32-.11,0-.22,0-.29-.01l-.34-.03-.03-.34-.18-1.81c-.5-.13-1.01-.15-1.37-.15-.2,0-.38,0-.55.01-.14,0-.27,0-.39,0-.23,0-.78,0-.86-.46l-.14-.83c-.12-.7-.17-.7-.48-.7-.09,0-.2,0-.32,0-.16,0-.35.01-.56.01-.53,0-1.05-.05-1.59-.15-.01,0-.02,0-.03,0-.05,0-.1.03-.15.09-.11.14-.16.38-.12.56.23,1.05.26,2.05.1,3.25l-.24,1.69c-.02.11-.05.24-.08.37-.04.16-.11.49-.09.61.09.08.39.25,1.04.42l.36.1-.06.37c-.34,2.14-.45,3.84-.33,5.32l1.53.31.27.06.05.27.24,1.28,6.22.02,4.63.09c.1,0,.22.01.35.03.17.02.35.03.52.03.09,0,.15,0,.19-.01ZM33.06,36.34h-2.5s-.41-.01-.41-.01v-.41s.07-4.03.07-4.03c0-.58.83-1.31,1.3-1.41.05-.01.11-.02.17-.02.56,0,1.51.6,1.55,1.28l.24,4.17.03.43h-.44ZM35.18,22.77l.1-.55c.14-.74.72-1.2,1.61-1.29l-.13-1.86-.29-5.31-.02-.39.39-.04c.65-.07,1.05-.24,1.17-.34l.02-2.56-.22-2.67-2.26-.04-.21,1.59-.04.35h-.35s-1.8.07-1.8.07h-.39s-.03-.38-.03-.38l-.12-1.77-2.4-.04c-.12.19-.08.59-.05.91.05.46.11,1.09-.46,1.22l-.83.2c-.15.04-.32.04-.43.04-.19,0-.55-.02-.8-.16-.51-.3-.49-.91-.47-1.5.01-.4.02-.84-.11-1.22l-1.46-.02h0c-.15,0-.42.04-.58.08-.04.1-.09.32-.09.44l-.03,3.1v.02s0,.02,0,.02l-.22,1.84c-.03.23-.01.55.02.7l1.07.32.16.05.08.14c.23.39.18,1.47.12,1.86-.21,1.42-.15,2.61-.07,3.82l.1,1.38c.54.14,1.05.28,1.28.62.2.29.28.76.36,1.31l6.86.07s.06,0,.11,0c.06,0,.13,0,.2,0,.09,0,.16,0,.21,0ZM32.65,22.03h-2.02s-.41-.02-.41-.02v-.41s.02-2.84.02-2.84c0-.56.1-1.88.87-2.15.17-.06.33-.09.49-.09.77,0,1.27.69,1.32,1.8l.14,3.27.02.43h-.43Z"/>
</svg>