<?xml version="1.0" encoding="UTF-8"?>
<svg id="Layer_1" data-name="Layer 1" xmlns="http://www.w3.org/2000/svg" viewBox="0 0 64 64">
  <path d="M46.24,14.48c1.02,1.63,2,3.19,2.97,4.77.15.24.26.53.32.81.54,2.77,1,5.54.95,8.4-.04,2.08-.12,4.13-.56,6.17-.08.35,0,.77.09,1.13.25.91.55,1.8.84,2.69.18.54.22,1.07-.05,1.6-.12.23-.22.47-.29.72-.46,1.82-1.55,3.16-3.04,4.24-.46.33-.87.55-1.42.31-.03-.01-.06-.02-.09-.03-2.24-.51-2.18-.38-3.57,1.37-.2.25-.29.65-.29.98,0,1.43.03,2.86.09,4.29.02.5-.14.85-.5,1.19-1.1,1.04-2.32,1.85-3.79,2.29-.62.19-1.22.45-1.79.76-.66.36-1.33.46-2.07.41-1.52-.1-3.05-.13-4.57-.26-1.49-.13-2.95-.34-4.24-1.23-.8-.55-1.68-.97-2.54-1.43-.55-.29-.82-.71-.81-1.32.02-1.33-.04-2.66.06-3.99.08-1.13-.52-1.93-1.18-2.67-.26-.29-.8-.37-1.23-.48-.24-.06-.53-.04-.77.02-1.09.27-1.93-.17-2.76-.83-1.79-1.42-1.7-1.43-2.55-3.61-.61-1.57-.67-2.96.2-4.43.57-.97.63-2.05.51-3.2-.25-2.39-.38-4.79-.5-7.19-.03-.54.08-1.11.26-1.62.98-2.75,2.07-5.47,2.97-8.25.48-1.49,1.29-2.57,2.63-3.32.37-.2.7-.47,1.03-.74,2.44-1.97,5.28-3.17,8.17-4.24.72-.26,1.52-.37,2.29-.39,2.38-.06,4.75.21,7.06.73,1.88.42,3.63,1.25,4.99,2.69,1.09,1.16,2.1,2.38,3.19,3.64ZM24.61,26.57c-.34-.08-.7-.28-1-.21-1.35.33-2.69.71-4.01,1.14-.29.1-.61.41-.73.69-.53,1.25-1.03,2.52-1.47,3.81-.14.4-.12.9-.05,1.32.14.8.43,1.57.56,2.36.08.5.27.84.71,1.06,1.04.52,2.08,1.06,3.13,1.57.16.08.39.12.55.07,1.37-.48,2.74-.97,4.11-1.48.39-.15.74-.47,1.14-.53.76-.12.99-.62,1.15-1.25.05-.22.09-.46.21-.64.55-.74.68-1.51.23-2.34-.04-.08-.05-.19-.05-.29,0-.52-.26-.91-.56-1.31-1.11-1.46-2.45-2.68-3.91-3.99ZM44.88,27.62c-.5-.3-1-.6-1.49-.91-.52-.34-1.05-.43-1.66-.21-.7.25-1.43.41-2.15.63-.24.07-.52.16-.68.34-.96,1.1-1.89,2.22-2.83,3.34-.29.34-.34.74-.28,1.19.07.58.1,1.17.06,1.74-.07.88.43,1.92,1.27,2.27,1.58.67,3.19,1.29,4.79,1.91.22.08.53.1.74.01,1-.45,1.98-.95,2.97-1.44.47-.23.72-.6.8-1.13.22-1.34.45-2.69.73-4.02.12-.57-.03-1.01-.38-1.44-.6-.73-1.19-1.46-1.89-2.28ZM30.84,38.72c-.65,1.66-1.27,3.32-1.95,4.97-.22.53-.12.93.24,1.32.2.21.39.44.6.63.46.42.63.41,1.03-.06.37-.45.7-.94,1.08-1.37.33-.38.65-.37.98,0,.2.21.33.48.52.7.32.39.66.76,1.06,1.23.41-.41.73-.72,1.04-1.03.43-.44.49-.92.26-1.5-.72-1.83-1.39-3.69-2.11-5.52-.12-.31-.38-.57-.48-.71h-1.58c-.17.32-.41.77-.69,1.37Z"/>
</svg>