<?xml version="1.0" encoding="UTF-8"?>
<svg id="Layer_1" data-name="Layer 1" xmlns="http://www.w3.org/2000/svg" viewBox="0 0 64 64">
  <path d="M38.03,56.95c-4.92.02-9.75.04-14.57.05-1.09,0-2.18-.05-3.27-.08-.89-.03-1.51-.59-1.56-1.46-.07-1.13.08-2.25.52-3.3.27-.66.77-1.05,1.49-1.15.69-.09,1.37-.18,2.15-.28-.09-.24-.13-.45-.23-.64-1.25-2.55-2.61-5.05-3.74-7.65-.98-2.25-1.36-4.69-1.59-7.13-.27-2.93-.26-5.87-.12-8.81.09-1.88.09-3.77-.06-5.64-.08-1.03-.48-2.05-.85-3.03-.26-.69-.75-1.21-1.55-1.39-.94-.21-1.33-.95-1.36-1.84-.02-.59.04-1.2.18-1.77.69-2.68,3-5.69,6.81-5.82.95-.03,1.84.19,2.68.6.69.34,1.16.91,1.31,1.65.14.68.55.99,1.16,1.18,1.02.33,1.9.9,2.76,1.52,1.9,1.38,3.89,2.63,6.11,3.45,1.96.72,3.96,1.01,6.04.74,1.48-.19,2.96-.3,4.45-.08,1.83.27,3.4,1.02,4.64,2.43.6.68,1.05,1.44,1.23,2.34.2,1.01-.07,1.8-.96,2.28-.57.3-.78.74-.92,1.31-.98,4.12-2.06,8.21-3.41,12.22-1.33,3.98-2.84,7.9-4.72,11.66-.38.76-.81,1.5-1.28,2.37.75.12,1.42.24,2.09.34,1.12.16,1.48.58,1.5,1.68.01.89.05,1.78.07,2.68.02,1.13-.32,1.5-1.43,1.53-1.16.03-2.31.04-3.57.07ZM25.3,40.42c.77,1.55,1.62,3.04,3.09,4.26,0-.42.02-.68,0-.94-.38-4.41-.79-8.82-1.15-13.23-.34-4.18-.65-8.37-.95-12.55-.09-1.22-.29-1.49-1.46-1.69-.74-.13-1.07.04-1.48.68-.48.76-.65,1.58-.61,2.46.07,1.62.17,3.23.23,4.85.09,2.81.09,5.62.24,8.42.15,2.66.83,5.21,2.09,7.74ZM30.41,45c.02.26.04.53.08.79.08.6.43.86,1,.79,1.1-.14,1.69-.81,1.65-1.9-.19-4.98-.38-9.96-.58-14.94-.13-3.13-.28-6.27-.43-9.4-.01-.23-.11-.58-.28-.67-1.09-.58-2.22-1.11-3.51-1.74.48,9.1,1.45,17.98,2.07,27.07ZM34.92,39.96c.05,1.27.1,2.54.16,3.99.87-.7,1.4-1.43,1.99-2.12.34-.4.47-.83.48-1.35.04-2.44.11-4.88.17-7.33.08-3.7.16-7.39.24-11.09,0-.31-.04-.63-.05-.9-1.31-.19-2.5-.36-3.79-.54.12,6.45.56,12.8.81,19.35ZM44.52,25.65c.25-1.13.54-2.25.74-3.38.16-.95-.3-1.62-1.23-1.84-.44-.11-.92-.15-1.37-.12-.66.05-1.3.22-1.95.29-.53.06-.75.34-.76.84-.03.96-.07,1.91-.1,2.87-.12,4.26-.24,8.51-.36,12.77,0,.27.03.54.05.81,2.27-3.81,3.71-7.91,4.98-12.24Z"/>
</svg>