<?xml version="1.0" encoding="UTF-8"?>
<svg id="Layer_1" data-name="Layer 1" xmlns="http://www.w3.org/2000/svg" viewBox="0 0 64 64">
  <path d="M49.16,25.38c.1-.38-.03-.67-.38-.84l-.09-.05c-.64-.32-1.3-.65-1.97-.93-.59-.25-.91.11-1.08.45-.05.1-.1.21-.14.33-.04.11-.09.21-.14.32-.3.63-.6,1.25-.9,1.87l-.52,1.08-.13-.41c-.1-.3-.03-.54.02-.73.09-.32.18-.65.28-.97.21-.74.43-1.5.63-2.26.15-.58-.08-1.06-.58-1.2-1.04-.29-2.07-.57-3.06-.83-.69-.18-1.06.03-1.26.71-.15.51-.3,1.04-.43,1.54-.09.34-.18.67-.28,1.01-.08.27-.16.54-.24.8-.04.12-.08.24-.11.36l-.13.43-.19-.4c-.14-.31-.13-.57-.1-.8.05-.43.11-.87.17-1.3.09-.69.18-1.41.27-2.11.05-.41-.01-.73-.18-.94-.14-.18-.37-.29-.68-.32-1.76-.17-3.12-.29-4.39-.38-.5-.04-.85.05-1.08.26-.24.22-.35.59-.36,1.12,0,.66,0,1.33,0,1.99,0,.57,0,1.14,0,1.72,0,.21-.01.43-.03.64,0,.1-.01.19-.02.29l-.02.4-.28-.29c-.18-.18-.28-.39-.32-.66-.19-1.3-.39-2.7-.57-4.11-.09-.7-.55-1.11-1.17-1.05-1.12.12-2.27.25-3.37.38-1.08.13-2.2.26-3.29.37-.59.06-.8.48-.87.73-.23.81-.22,1.53.03,2.13.18.42.39.84.6,1.24.16.32.33.64.48.98.34.74.66,1.5.98,2.24.14.32.27.64.41.96l.1.23h-.25c-.15.02-.35,0-.46-.16-.27-.39-.53-.78-.79-1.17-.57-.84-1.15-1.7-1.74-2.54-.21-.3-.43-.5-.57-.51-.59-.03-1.06-.03-1.4.38l-.02.03-.03.02s-.04.02-.08.06l-.05.03c-.52.51-1.01,1.02-1.48,1.5-.24.25-.48.5-.72.74q-1.08,1.1-.14,2.35c.1.13.2.26.3.4.23.31.47.63.71.94.22.28.43.5.64.67.12.1.24.21.36.31.49.42,1,.86,1.54,1.23.97.66,1.57,1.59,1.85,2.84,0,.02.01.03.02.05.01.04.03.09.04.14.04.44.27.76.8,1.11.18.12.34.26.52.42.08.08.17.16.27.24l.16.14-.17.13c-.14.1-.28.2-.4.28-.26.18-.48.33-.67.51-.2.19-.52.5-.51.69.02.58-.16,1.1-.33,1.6-.05.14-.09.28-.14.42-.06.18-.11.37-.17.55-.26.88-.54,1.78-.87,2.65-.25.65-.12,1.07.45,1.45.17.11.31.26.46.41.07.07.13.14.2.21l.12.11-.11.12c-.08.09-.16.18-.23.25-.13.15-.25.27-.33.41-.07.1-.14.2-.2.3-.3.45-.61.91-.86,1.39-.27.52-.2.78.3,1.14.24.18.48.36.7.53,2.2,1.71,4.17,2.78,6.2,3.36,3.93,1.12,7.78,1.36,11.46.73,3.59-.62,6.2-1.91,8.22-4.05.52-.55.53-.63.2-1.27-.27-.52-.55-1.02-.84-1.55-.13-.23-.26-.46-.39-.7l-.06-.12.1-.09c.07-.07.14-.13.21-.2.15-.14.3-.29.46-.42.53-.42.66-.88.43-1.51-.52-1.43-.97-2.86-1.29-3.95-.15-.5-.23-1.02-.22-1.52,0-.48-.16-.78-.55-1.01-.2-.12-.39-.24-.61-.39-.11-.07-.22-.15-.34-.23l-.22-.14.21-.15c.85-.58,1.22-1.27,1.17-2.16,0-.14.04-.26.09-.37l.02-.04c.16-.42.32-.85.48-1.27.36-.97.73-1.97,1.18-2.92.69-1.45,1.04-3.02,1.37-4.54.14-.62.27-1.25.44-1.87ZM25.88,39.19l.56.07c.13.02.24.03.34.04.19.02.33.03.48.07,3.26.78,6.9,1,11.45.67,1.04-.07,2.09-.24,3.11-.39.47-.07.95-.14,1.42-.21h.09s.06.05.06.05c.1.11.15.26.13.39-.01.08-.06.14-.12.18-.78.41-1.61.85-2.45,1.24-.24.11-.53.19-.9.22-2.18.22-4.28.33-6.35.33-1.13,0-2.25-.03-3.37-.1-1.42-.08-2.67-.48-4.05-.95-.08-.03-.14-.08-.21-.15-.03-.03-.08-.07-.13-.12l-.31-.27,1.34-.11-1.09-.95ZM44.58,49.1l-.25.36c-.05.06-.08.12-.11.16-.06.09-.1.15-.16.2l-.2.15c-.39.31-.79.62-1.2.91-.69.5-1.48.98-2.5,1.18-1.61.31-3.24.47-4.93.47-2.06,0-4.19-.23-6.43-.69h-.07c-.16-.04-.33-.08-.49-.17-1.39-.78-2.65-1.5-3.83-2.18-.15-.09-.27-.2-.39-.32-.05-.05-.1-.1-.15-.14l-.09-.08.19-.43.14.04c.2.06.41.12.61.18.45.13.91.26,1.37.4.37.11.63.17.77.1.13-.07.22-.31.33-.67.26-.89.54-1.78.82-2.64l.2-.65c.03-.09.08-.18.14-.29.03-.06.07-.14.12-.23l.21-.41.26,1.02c.14,1.35.28,2.74.39,4.09.05.56.29.84.8.93,3,.55,6.17.6,9.43.15.62-.09.86-.39.89-1.11.04-1.03.11-2.08.17-3.1.03-.43.05-.86.08-1.28v-.14s.47-.07.47-.07l.06.11s.05.09.08.14c.07.11.14.23.18.37.29,1,.59,2.03.86,3.06.26,1.01.27,1.02,1.24.8.09-.02.18-.04.3-.07l.69-.15ZM30.86,17.15c-.02-.39-.06-.78-.1-1.17-.07-.78-.15-1.58-.12-2.37.07-1.67-.4-3.12-1.45-4.43-.04-.05-.07-.1-.09-.15v-.03c-.22-.39-.51-.58-.87-.58-.09,0-.17.01-.27.03-1.01.23-1.98.48-2.89.74-.16.05-.34.19-.45.34-.69,1.02-1.35,2.03-2.08,3.16-.22.34-.21.61.04.93.2.25.27.61.32.96.03.21.02.43.01.66,0,.11-.01.22-.01.34h0c-.01.32-.03.62-.04.91-.02.54-.05,1.04-.06,1.55-.01.46.05.73.2.87.15.14.44.18.93.13,1.74-.18,3.61-.34,5.71-.51.81-.06,1.27-.58,1.22-1.38ZM38.42,10.75c-.46-1.44-1.33-2.22-2.79-2.53h0c-.14-.04-.28-.08-.42-.11-.35-.09-.68-.18-1.01-.25-.18-.04-.36-.06-.52-.06-.5,0-.9.19-1.23.58-.16.19-.34.35-.52.51-.11.09-.22.19-.32.29-.5.5-.5,1.1,0,1.67.16.19.27.42.3.63l.09.8c.17,1.52.34,3.09.46,4.64.07.9.31,1.17,1.14,1.26,1.19.13,2.59.28,4.04.46.43.05.77-.03,1-.23.22-.2.33-.51.32-.9,0-.34-.01-.68-.02-1.03-.01-.94-.03-1.9-.06-2.86-.03-.85-.11-1.86-.44-2.88ZM45.07,19.85c.02-.07.02-.16.02-.26,0-.07,0-.15,0-.24h0c.24-2.87.1-5.03-.44-7.01-.12-.45-.29-.75-.47-.86-1.2-.69-2.28-1.23-3.28-1.65-.1-.04-.19-.06-.27-.06-.2,0-.35.09-.43.15-.25.2-.39.54-.35.87.02.15.04.29.06.44.05.31.09.64.12.96.05.54.12,1.09.19,1.62.2,1.54.41,3.13.12,4.74-.09.48.19.87.75,1.07.94.32,1.88.64,2.75.92.29.09.55.08.77-.05.22-.13.37-.36.44-.66ZM16.85,26.27c.51-.65,1.14-1.4,2.03-2l.37-.25-.32,1.29c.11-.05.21-.1.29-.14.03-.03.07-.05.15-.1.08-.1.14-.19.21-.28.07-.1.13-.2.22-.28.65-.67.82-1.44.53-2.35-.15-.46-.11-.93.11-1.41.51-1.13.66-2.37.8-3.58.04-.34.08-.69.13-1.03.02-.13-.08-.37-.14-.4,0,0-.02,0-.04,0-.09,0-.27.06-.4.16-.38.3-.78.64-1.25,1.09-.86.83-1.7,1.26-2.63,1.35-.4.04-.7.28-.93.74-.15.3-.29.61-.43.92-.24.52-.48,1.05-.76,1.56-.53.96-.53,1.61-.02,2.26.11.14.16.31.21.46l.02.08c.08.24.15.47.22.71.15.48.3.98.48,1.46.07.19.26.39.38.42.11.02.37-.17.49-.27h.01c.05-.05.1-.13.15-.21.04-.06.07-.13.12-.19ZM46.29,20.91c.48-1.58.28-3.16.09-4.7-.02-.15-.04-.3-.06-.45-.02-.14-.04-.28-.06-.43-.05-.32-.09-.64-.1-.96,0-.26.08-.46.25-.55.06-.03.13-.05.2-.05.11,0,.23.04.35.12.53.34,1.03.77,1.52,1.17l.07.06c.12.1.23.27.26.42.08.4.18.81.27,1.2.28,1.18.56,2.39.53,3.63-.01.39-.06.79-.11,1.21-.02.16-.04.33-.06.51-.02.09-.03.18-.04.25-.02.15-.04.28-.09.38-.09.21-.21.34-.36.38-.19.06-.4-.02-.55-.1-.61-.35-1.15-.67-1.66-1-.3-.19-.63-.54-.46-1.09Z"/>
</svg>