<?xml version="1.0" encoding="UTF-8"?>
<svg id="Layer_1" data-name="Layer 1" xmlns="http://www.w3.org/2000/svg" viewBox="0 0 64 64">
  <path d="M48.58,52.65c.21.51.42.95.58,1.41.2.56.14.7-.44.84-1.33.3-2.66.62-4.01.81-2.79.38-5.61.64-8.4,1.04-2.7.38-5.39.3-8.08.05-2.57-.24-5.13-.5-7.69-.84-1.74-.24-3.46-.63-5.18-.97-.23-.04-.44-.16-.65-.24.1-1.47,1.18-3.43,2.32-4.06,1.62-.89,3.28-1.71,4.92-2.55.84-.43,1.7-.81,2.5-1.3.97-.6,1.68-1.5,2.2-2.48.32-.61.32-1.35-.15-1.99-.16-.22-.28-.47-.37-.73-.21-.62-.5-1.11-1.14-1.43-.37-.18-.7-.62-.85-1.01-.39-1.04-.74-2.12-.99-3.2-.28-1.2,0-1.5,1.31-1.69,0-.25-.01-.51,0-.77.07-1.42.14-2.85.23-4.27.01-.21.06-.43.15-.61,1.68-3.17,4.69-5.38,8.43-4.64,1.44.28,2.76.76,3.8,1.79.91.9,1.74,1.93,2.08,3.16.28,1,.21,2.1.26,3.16.03.72,0,1.45,0,2.21.25.02.39.03.54.05.63.09.96.43.88,1.03-.19,1.41-.43,2.83-1.2,4.07-.22.35-.52.7-.87.9-.43.24-.69.54-.84,1-.14.43-.38.83-.55,1.25-.32.78-.3,1.51.24,2.22.83,1.09,1.73,2.05,3.06,2.61,1.67.71,3.25,1.64,4.91,2.38,1.33.59,2.4,1.4,2.98,2.84ZM33.59,7.09c.5.16.94.29,1.37.45.81.31.96.54.84,1.46-.19,1.47-.39,2.95-.62,4.41-.38,2.39-.78,4.79-1.18,7.18-.11.63-.33.85-.95.89-.57.03-1.15.03-1.73,0-.61-.03-.78-.2-.89-.82-.52-2.89-1.03-5.79-1.54-8.69-.15-.87-.3-1.73-.47-2.59-.16-.82-.05-1.25.69-1.55,1.41-.57,2.86-1.02,4.49-.73ZM22.63,27.59c.12.25.22.44.32.63.22.4.16.76-.17,1.07-.37.35-.75.7-1.14,1.04-.35.3-.71.28-1.06-.03-.05-.04-.09-.08-.13-.13-2.36-2.31-4.72-4.62-7.08-6.92-.32-.31-.43-.68-.23-1.07.24-.45.47-.94.84-1.27.87-.79,1.8-1.53,2.74-2.24.7-.54,1.01-.46,1.44.31.85,1.54,1.67,3.09,2.48,4.65.67,1.29,1.32,2.59,2,3.96ZM45.77,19.29c.14-.24.23-.44.37-.6.34-.37.74-.46,1.12-.14,1.09.92,2.14,1.87,3.19,2.83.15.14.25.34.35.53.28.54.24.87-.21,1.3-2.35,2.32-4.7,4.64-7.06,6.95-.54.53-.81.53-1.39.02-.27-.24-.54-.49-.79-.75-.58-.58-.61-.69-.22-1.42,1.1-2.12,2.21-4.24,3.33-6.36.41-.78.85-1.54,1.31-2.36Z"/>
</svg>