<?xml version="1.0" encoding="UTF-8"?>
<svg id="Layer_1" data-name="Layer 1" xmlns="http://www.w3.org/2000/svg" viewBox="0 0 64 64">
  <path d="M48.93,31.65c-.52,1.27-1,2.47-1.51,3.66-.19.44-.07.82.1,1.21.73,1.68.87,3.45.82,5.24,0,.29-.06.58-.11.87-.01.08-.1.14-.21.28-.74-1.37-1.27-2.86-2.87-3.44-.43.18-.46.53-.43.95.05.77.07,1.55.04,2.33-.1,2.47-1.44,4.4-2.88,6.25-.61.79-1.39,1.45-2.12,2.13-.32.3-.72.52-1.22.66.13-.28.24-.56.38-.83.78-1.42,1.19-2.94,1.35-4.54.1-.96-.02-1.87-.86-2.6-.5.2-.98.38-1.46.58-2.82,1.13-5.75,1.55-8.77,1.33-1.75-.13-3.44-.6-5.1-1.2-1.99-.73-3.88-1.64-5.52-3.01-.5-.42-1.08-.74-1.55-1.18-1.08-1.01-2.37-1.45-3.8-1.49-.69-.02-1.25-.25-1.74-.73-.3-.3-.65-.54-.95-.83-.66-.61-.71-.82-.16-1.57.59-.81,1.28-1.55,1.89-2.35.33-.43.6-.91.88-1.37.08-.14.14-.29.2-.44,1.37-3.83,3.92-6.81,6.77-9.62,1.64-1.62,3.6-2.65,5.66-3.52,1.52-.64,3.09-1.2,4.68-1.64,2.39-.66,4.62-1.69,6.87-2.71,2.08-.94,4.22-1.76,6.52-1.83,1.87-.05,3.76.09,5.63.24.62.05,1.21.37,2.04.64-.38.2-.52.31-.67.35-1.51.36-3.03.69-4.54,1.07-.43.11-.84.33-1.22.57-1.15.72-2.33,1.4-3.35,2.36.25.4.64.34.96.41,2.07.43,4.12.98,5.99,1.96,2.13,1.11,3.8,2.8,5.2,4.74.05.07.06.18.12.38-.25-.02-.45-.01-.64-.06-.79-.18-1.58-.37-2.36-.57-.71-.18-1.33.04-2.09.35.26.35.47.62.68.89.7.85,1.4,1.7,2.1,2.56.12.15.24.31.34.48.3.52.23.74-.37.92-1.18.34-2.08,1.03-2.73,2.15ZM38.18,24.3c-2.34-.82-4.73-1.25-7.36-1.06.38.89.72,1.65,1.03,2.42,1.1,2.76,1.62,5.59,1.18,8.57-.26,1.72-.73,3.36-1.41,4.94-.27.62-.52,1.25-.78,1.89.17.06.26.12.35.12.16,0,.33,0,.49-.02,1.57-.2,3.05-.76,4.36-1.59,2.4-1.52,4.08-3.7,5.14-6.32.82-2.01,1.26-4.09.88-6.28-.09-.49-.23-.87-.68-1.09-1.01-.51-2.02-1.02-3.18-1.58ZM26.86,31.05c.13-2.62,1.11-5,2.08-7.44-.83.22-1.63.43-2.29.86-1.39.89-2.77,1.82-4.06,2.85-2.26,1.81-3.66,4.26-4.73,6.91-.18.44-.21.92.11,1.3.78.91,1.49,1.93,2.43,2.63,2.41,1.8,5.19,2.78,8.19,3.06.2.02.4-.06.64-.09-.38-.89-.75-1.68-1.07-2.5-.93-2.38-1.5-4.83-1.31-7.58Z"/>
</svg>