<?xml version="1.0" encoding="UTF-8"?>
<svg id="Layer_1" data-name="Layer 1" xmlns="http://www.w3.org/2000/svg" viewBox="0 0 64 64">
  <path d="M50.61,22.73c-2.15-1.79-4.32-3.62-6.42-5.39-1.79-1.51-3.65-3.07-5.48-4.6-.48-.4-1-.78-1.5-1.15-.43-.31-.87-.64-1.29-.98-.51-.41-1.02-.61-1.58-.61-.42,0-.88.11-1.4.34-5.73,2.48-11.11,5.43-16.58,8.49-.91.51-1.38,1.21-1.57,2.33-.73,4.25-1.23,8.61-1.72,12.82-.17,1.48-.35,3.01-.53,4.51-.17,1.37.22,2.34,1.26,3.16,1.16.91,2.32,1.83,3.48,2.75,1.75,1.38,3.55,2.82,5.34,4.2,1.22.94,2.47,1.87,3.69,2.77.92.68,1.87,1.38,2.8,2.09.85.64,1.68.71,2.61.22.69-.36,1.4-.72,2.08-1.06.92-.46,1.87-.94,2.79-1.43,2.51-1.35,5.06-2.76,7.53-4.12.76-.42,1.52-.84,2.29-1.26.2-.13.4-.25.6-.38.44-.28.86-.54,1.26-.82.6-.42.92-.88,1-1.43.08-.62.17-1.25.26-1.87.24-1.73.49-3.53.7-5.29.2-1.66.38-3.35.56-4.99.22-1.99.44-4.05.69-6.07.12-.96-.14-1.63-.85-2.23ZM48.83,24.39c-.11.03-.23.06-.34.09-.25.07-.5.14-.76.18-1.47.25-2.94.5-4.41.75-1.13.19-2.26.38-3.4.57-.59.1-.9.23-1.02.43-.12.2-.08.54.13,1.12,1.99,5.51,3.64,10.1,5.2,14.43.24.67.45,1.37.63,2.07.14.54.19,1.18-.43,1.82l-.21.22-.1-.29c-.16-.44-.31-.87-.47-1.29-.34-.94-.65-1.82-.99-2.7-.34-.89-.7-1.78-1.05-2.65-.16-.39-.31-.77-.47-1.16h0c-1.03-2.73-2.29-5.93-3.86-9.01-.28-.54-.54-.82-.81-.85-.26-.03-.6.19-1,.66-2.39,2.85-4.72,5.63-6.98,8.43-.97,1.21-1.92,2.47-2.84,3.69-.4.53-.79,1.06-1.19,1.59-.13.17-.27.35-.37.54-.14.26-.17.5-.08.68.09.18.28.29.56.33,3.39.5,6.69.97,9.48,1.36,1.36.19,2.73.38,4.09.57.86.12,1.73.24,2.59.36.17.02.31.1.44.23l.22.24-.32.08c-.57.14-1.14.18-1.76.18-.18,0-.38,0-.57-.01-5.27-.16-10.65-.57-15.99-1.19-.21-.02-.42-.02-.66-.02-1.34.02-2.16-.67-2.44-2.06-.21-1.02-.45-2.05-.69-3.05-.19-.78-.38-1.58-.55-2.38-.97-4.49-1.77-8.22-2.5-11.76-.17-.8-.21-1.67-.14-2.59l.08-1.08.78,2.79c.37,1.32.74,2.65,1.11,3.97,1.02,3.64,2.04,7.28,3.07,10.91.01.05.03.09.04.14.05.17.09.33.16.47.15.29.36.48.6.52.23.04.47-.06.7-.28.44-.43.89-.92,1.36-1.5,3.27-4.02,6.53-8.05,9.29-11.47.23-.29.47-.62.73-1.02.28-.43.38-.75.29-.98-.08-.22-.35-.4-.82-.54-1.34-.4-2.68-.8-4.01-1.2-1.94-.58-3.88-1.15-5.82-1.74-1.8-.54-3.7-1.12-5.98-1.84-.21-.06-.4-.16-.6-.27-.09-.05-.19-.1-.29-.14l-.19-.09.11-.18c.38-.63.86-.64,1.29-.56.22.04.45.08.67.12.7.12,1.42.24,2.12.42,2.85.7,5.74,1.42,8.54,2.12,1.42.35,2.84.71,4.26,1.06.45.11.94.23,1.42.31.29.05.54,0,.73-.15.19-.15.3-.38.32-.67.03-.38,0-.78-.04-1.14-.24-2.51-.48-5.03-.72-7.54l-.25-2.57c0-.08-.01-.16-.02-.26l-.04-.52.29.13c.61.27.96.73,1.09,1.44.52,2.7.99,5.14,1.43,7.58.1.53.16,1.08.23,1.61.04.34.08.68.13,1.01.11.75.56,1.12,1.35,1.11.72-.02,1.44-.04,2.16-.07.96-.03,1.95-.07,2.92-.08,1.31-.02,2.88-.02,4.54.18l1.02.12-1,.25Z"/>
</svg>