<?xml version="1.0" encoding="UTF-8"?>
<svg id="Layer_1" data-name="Layer 1" xmlns="http://www.w3.org/2000/svg" viewBox="0 0 64 64">
  <path d="M25.99,36.23c-.19-.35-.36-.72-.53-1.08-.37-.77-.75-1.57-1.27-2.21-.74-.9-1.13-1.87-1.54-2.89l-.14-.34c-.27-.66-.61-1.3-.95-1.93-.27-.5-.55-1.02-.79-1.55l-.09-.19c-.3-.65-.64-1.39-.54-2.05.07-.47-.02-.89-.11-1.35-.07-.38-.15-.77-.13-1.19.02-.32-.16-.56-.55-.76-.1-.05-.22-.09-.34-.09s-.25.04-.36.17c-.1.12-.23.23-.35.34-.41.37-.65.63-.51,1.03.31.88-.08,1.39-.5,1.85-.2.21-.38.45-.56.68-.18.24-.38.48-.59.7l-.13.14c-.97,1.05-1.98,2.13-3.54,2.49-.68.16-1.06,1.03-.98,1.72,0,.06.02.13.03.19.04.21.08.45,0,.66-.07.18-.15.36-.22.53-.62,1.49-1.26,3.04-2.25,4.39-.77,1.05-1.35,1.95-1.82,2.82-.22.41-.28.71-.18.91.1.21.38.35.87.43.62.11.88.43.85,1.05-.04.7-.06,1.4-.09,2.09-.03.84-.07,1.72-.12,2.57-.04.66.06.83.53.99.88.29,1.75.58,2.68.87l1,.32c.6.24,1.12.2,1.73.06.65-.14,1.32-.23,1.97-.32.39-.05.79-.11,1.18-.17.46-.08.93-.19,1.38-.31l.14-.04c.19-.05.39-.12.58-.18.42-.15.85-.3,1.29-.26.88.07,1.74-.03,2.54-.13.4-.05.65-.09.73-.17.08-.08.09-.29.12-.65v-.1c.04-.53.09-1.19.43-1.6.38-.45.48-.87.35-1.5-.05-.24-.05-.48-.05-.72v-.11c0-.6-.02-1.16-.42-1.68-.37-.48-.3-1.01.22-1.56l.1-.11c.28-.31.57-.61.85-.92.25-.27.28-.55.09-.9ZM13.41,43.07c0,.23,0,.47,0,.71v.19l-.19-.02c-.12-.01-.25,0-.37.02-.09.01-.18.02-.28.02-.26,0-.53-.08-.71-.47l-.02-.04v-.04c.04-.75.05-1.31.05-1.87,0-.58.22-.89.64-.93.22-.02.42.04.58.18.18.16.28.4.3.68.03.51.02,1.02.02,1.56ZM16.57,36.37c-.16.29-.3.57-.44.84-.25.49-.49.95-.75,1.4-.2.35-.33.46-.58.46-.13,0-.3-.03-.54-.09l-.28-.06,3.41-6.43.4.14-1.21,3.73ZM19.73,41.38c-.03.31-.13.52-.28.65-.12.1-.26.12-.41.12-.11,0-.22-.02-.32-.03l-.21-.03-.02-.13c-.01-.07-.03-.14-.04-.21-.08-.4-.19-.94.42-1.18.26-.1.44-.04.54.02.19.12.3.38.32.75h0s0,.03,0,.03ZM20.04,38.53c-.01.24-.09.47-.17.69-.04.12-.08.22-.1.33l-.02.08-.1.05c-.24.12-.5.24-.75.24-.2,0-.38-.08-.54-.32-.23-.36-.12-1.48.18-1.74.28-.24.66-.31.98-.17.29.12.48.38.5.71,0,.04,0,.08,0,.11,0-.13.03-.25.08-.36.08-.17.33-.49.57-.46.24.03.53.23.63.44.09.18.11.39.13.59,0,.08.01.15.02.23v.02c0,.26-.01.63-.25.77-.23.14-.51-.02-.6-.08-.37-.22-.6-.7-.59-1.13ZM21.48,41.83l-.05.15-.16-.03c-.6-.13-.6-.6-.61-.83v-.03s.01-.03.01-.03c.11-.3.21-.44.34-.61l.13-.17.15.16c.48.52.32,1.01.19,1.41ZM39.9,42.53c1.27.43,1.93,1.29,1.96,2.55,0,0,0,0,0,0,0,0,0,.01.01.02.04,0,.08,0,.12.01.17.02.35.04.54.07.22.04.44.06.68.07.71.05,1.44.1,1.97.82.03.04.22.08.31.09.05,0,.1.02.14.03,1.63.34,3.21.57,4.69-.38.05-.04.11-.04.17-.04.02,0,.05,0,.09,0h.01c1.31-.03,2.57-.3,3.78-.56.68-.15,1.38-.3,2.07-.4.27-.04.44-.13.49-.25.06-.15-.05-.4-.29-.7-1.09-1.33-1.06-2.82-1.03-4.27,0-.27.01-.56,0-.83v-.14s.13-.03.13-.03c.71-.17,1.06-.36,1.19-.61.11-.22.06-.55-.16-1.07-.35-.81-.9-1.58-1.39-2.22-.85-1.12-1.71-2.34-1.95-3.85-.13-.84-.42-1.2-1.07-1.33-.6-.12-.88-.51-.83-1.11.03-.29.02-.6.02-.9,0-.6-.02-1.21.22-1.82.05-.14.03-.33,0-.53-.01-.1-.02-.19-.03-.28,0-.16-.02-.31-.03-.47-.03-.3-.05-.61-.04-.93.01-.44-.06-.72-.22-.83-.16-.11-.43-.09-.81.07-.43.18-.8.21-1.25-.15-.26-.21-.57-.28-.83-.17-.25.1-.41.35-.44.67v.1c-.1.78-.18,1.59.21,2.33.09.18.08.39.06.65-.01.13-.02.28-.02.44v.37l-.78-.65c-.31-.26-.56-.47-.82-.68-.1-.08-.19-.17-.28-.26-.15-.14-.3-.28-.46-.39-.63-.45-1.16-.61-1.62-.51-.45.1-.84.46-1.2,1.09-.59,1.06-1.14,2.17-1.66,3.25-.19.4-.39.79-.58,1.19-.07.13-.15.32-.14.49.02.48-.22.82-.44,1.15-.05.07-.09.13-.14.2-.49.74-1.05,1.63-1.53,2.54-.16.3-.19.67-.09,1,.09.29.28.53.54.65.85.43,1.3,1.17,1.73,1.88.07.11.13.22.2.32.22.35.27.75.15,1.11-.14.4-.49.72-.95.89-.22.08-.44.16-.66.24l-.22.08c0,.12,0,.24,0,.35,0,.32,0,.62-.01.92-.03.4.11.6.48.73ZM51.9,40.08c.01-.25.26-.58.48-.65.21-.06.36,0,.45.05.15.1.25.3.28.56.02.17,0,.34,0,.51,0,.07-.01.13-.01.2.02.51.02.83.02,1.2v.12l-.11.04c-.16.07-.31.1-.43.1-.11,0-.21-.02-.29-.07-.17-.1-.27-.28-.3-.55-.07-.56-.1-1.05-.07-1.52ZM50.76,39.47c.18,0,.32.04.43.13.18.17.2.44.2.66,0,.19,0,.38,0,.56,0,.08,0,.16,0,.24h0c0,.5,0,.83,0,1.26v.15l-1.2.16v-.19c-.02-.24-.03-.46-.04-.68-.03-.52-.05-1-.06-1.49-.01-.47.25-.79.67-.81ZM45.67,32.56l.31.51c.94,1.54,1.84,3.08,2.43,4.87l.07.21-.22.02s-.07,0-.1,0c-.48,0-.73-.28-.94-.51-.06-.07-.12-.13-.18-.19l-.03-.02v-.03c-.08-.14-.15-.27-.21-.4-.6-1.23-1.17-2.38-1.14-3.86v-.6ZM42.22,40.3c.06-.97.12-1.76.18-2.47.03-.34.18-.62.42-.79.25-.17.57-.21.91-.12,1.05.29,1.19.61,1.15,1.66-.02.47,0,.95.03,1.42.01.22.02.43.03.65h0s0,.01,0,.01c-.01.29-.03.42-.05.57l-.02.17-.17-.02c-.54-.07-.7-.44-.85-.76-.08-.18-.16-.35-.29-.48l-1.25,1.26-.03-.38c0-.09-.02-.18-.03-.25-.02-.17-.04-.31-.03-.47ZM37.69,33.13c.12-.21.24-.42.36-.62.37-.64.72-1.24,1.05-1.85.03-.06.07-.12.1-.18.19-.33.38-.68.46-1.03.1-.43.23-.74.65-1.05.75-.56.85-1.23.31-2.11-.18-.29-.36-.58-.54-.86-.26-.41-.53-.83-.78-1.26-.07-.12-.14-.23-.21-.35-.47-.79-.96-1.62-.97-2.66,0-.54-.53-.87-1.06-.93-.87-.1-1.08-.34-.99-1.18.05-.44.11-.88.18-1.31.06-.41.13-.83.17-1.25l.02-.15c.05-.4.1-.82-.01-1.16-.23-.73-.33-1.37-.09-2.11.17-.52-.05-.87-.34-.98-.3-.12-.55-.07-.99.54-.06.09-.17.1-.23.11-.01,0-.03,0-.04,0l-.11.03-.07-.08c-.27-.32-.54-.65-.87-.97-.4.04-.63.23-.7.55l-.02.08c-.24,1.15-.48,2.23-.02,3.34.24.58.21,1.17-.08,1.92l-.09.22-.18-.14c-.13-.1-.25-.19-.37-.28-.25-.19-.49-.37-.72-.57-.34-.3-.69-.64-1.08-1.05-.64-.67-1.11-.96-1.59-.97-.47,0-.99.27-1.62.89l-.02.02s-.07.07-.09.1c-.81,1.22-1.36,2.6-1.88,3.94-.12.3-.23.6-.35.89,0,0,0,0,0,0,0,0,0,.01,0,.02,0,.04,0,.1,0,.16-.03.1-.05.19-.07.29-.06.25-.13.51-.25.75-.28.54-.58,1.08-.86,1.6-.39.71-.79,1.44-1.15,2.18-.15.31-.18.63-.06.93.12.31.37.56.72.7.09.04.19.06.29.09.05.01.1.03.15.04l.12.04v.13c0,.12,0,.24,0,.35,0,.24-.01.46.01.67v.06c.04.29.07.59.19.81.65,1.17,1.34,2.35,1.99,3.49.33.56.65,1.13.98,1.7.04.07.07.14.1.22.53-.61.93-1.16,1.3-1.78.57-.95,1.46-1.34,2.64-1.17.35.05.69.13,1.02.2.3.07.61.13.91.18.33.05.7.1,1.02.02,1.26-.31,2.59-.42,3.76.79ZM27.48,30.65c-.06.31-.25.4-.36.43-.04.01-.08.02-.13.02-.19,0-.39-.1-.56-.3l-.05-.06v-.07c.02-.14.02-.27.02-.39,0-.46.02-.9.38-1.29l.08-.09c-.6-.42-.43-.91-.24-1.24l.1-.17.54.41v.1c-.03.35-.06.54-.1.81l-.04.27c.38.38.49.9.35,1.58ZM28.61,28.51l-.13.18-.14-.17c-.2-.23-.23-.47-.28-.79l-.06-.38.32.2c.26.16.39.32.43.49.03.15-.01.3-.13.46ZM33.45,28.67c-.8.17-1.37-.22-1.93-.58l-.1-.07c-.38-.25-.77-.59-.85-1.22-.02-.18-.05-.45-.15-.54-.57-.52-.67-1.16-.76-1.79-.08-.51-.15-.98-.47-1.38l-.15-.18.64-.27.08.14c.21.39.43.77.65,1.16.5.89,1.01,1.8,1.47,2.73.48.98.78,1.15,1.84,1.13.56-.01,1.13.06,1.67.13l.31.04c.27.03.53.1.8.16.13.03.26.06.39.09l.24.05-.13.21c-.18.3-.42.37-.64.37-.1,0-.2-.01-.29-.02h-.08c-.35-.05-.71-.04-1.07-.03-.16,0-.31,0-.47,0h-.02c-.2-.02-.38-.06-.53-.09-.19-.04-.34-.08-.46-.05ZM40.39,50.02c-.05-.5-.15-1-.26-1.54-.03-.16-.06-.32-.1-.48v-.02s0-.02,0-.02c.02-.7.06-1.34.1-1.97l.02-.3c.07-1.08-.08-1.32-1.09-1.68-.46-.16-.94-.29-1.44-.43-.24-.07-.49-.13-.75-.21l-.13-.04v-.13c0-.32,0-.64,0-.96,0-.79,0-1.6.01-2.4.01-.49.35-.77.93-.77h.02c.13,0,.27,0,.4.01.23.01.45.02.67,0,.37-.03.66-.09.81-.45-.04-.05-.08-.11-.12-.17-.13-.19-.27-.39-.42-.58-.3-.37-.6-.74-.91-1.11-.29-.35-.58-.7-.86-1.05l-.02-.02c-.27-.33-.55-.68-.55-1.23,0-.19-.23-.48-.44-.65-.5-.39-1.09-.42-1.68-.09-.28.15-.53.3-.95.2-.74-.17-1.51-.3-2.25-.42-.19-.03-.39-.06-.58-.1-.5-.08-.86.07-1.1.47-.1.17-.2.35-.3.52-.21.37-.42.75-.67,1.1-.35.49-.71.98-1.07,1.46-.31.42-.63.85-.94,1.28-.13.18-.26.46-.29.57.17.14.42.24.65.33.05.02.11.04.16.06.08.03.2.03.27,0,.18-.07.35-.1.51-.1.46,0,.86.24,1.24.47l.17.1v.11c-.06.44.02.89.1,1.33.12.71.25,1.44-.12,2.17l-.03.06-.07.02c-.26.09-.51.17-.76.25-.58.19-1.15.38-1.72.58-.68.23-.82.79-.81,1.22,0,.4.05.82.09,1.22.03.25.05.5.07.75.02.25.03.58-.02.9-.03.23-.08.46-.13.68-.05.26-.11.52-.14.78-.11.95.04,1.17.93,1.4.2.05.41.11.61.16,1.25.33,2.54.67,3.82.81,3.09.36,5.95-.06,8.48-1.25.47-.22.67-.5.63-.89ZM29.97,49.45l-1.62-.4.73-.16c.21-.05.49-.05.76-.05h.19l-.06.61ZM33.31,46.66c-.17.03-.34.04-.52.04-.73,0-1.49-.22-2.23-.43-.25-.07-.51-.15-.77-.21l-.71-.18.71-.16c.24-.05.48-.13.71-.2.67-.21,1.36-.42,2.12-.22.08.02.17.02.27.03h.09c.65.04.97.03,1.12-.09.14-.13.18-.44.22-1.09,0-.06,0-.12.01-.18,0-.04,0-.08,0-.12.02-.33,0-.5-.07-.58-.07-.08-.24-.12-.56-.12-.25,0-.5,0-.75,0-.15,0-.29,0-.44,0-.27,0-.54,0-.82,0h-.56s-.02-.15-.02-.15c0-.06-.02-.12-.03-.17-.03-.13-.05-.27-.02-.4.13-.47.13-.92,0-1.46-.07-.3-.16-.68.03-.98.11-.17.31-.29.58-.34h.03s.06,0,.06,0c.4.08.69.14.9.32.59.49.6.5,1.26.08.18-.12.38-.2.6-.31.11-.05.23-.1.36-.17l.23-.11.04.66c.02.25.03.45.04.65,0,.08,0,.15,0,.23,0,.11-.02.23.02.29.48.87.37,1.76.26,2.62-.02.13-.03.27-.05.4-.04.35-.06.72.06.83.13.12.53.06.9-.02l.08-.02c.41-.08.91-.19,1.19.46l.06.13-.12.08c-.95.63-2.01.7-3.04.76-.41.03-.84.05-1.25.12ZM36.83,49.81h-.05c-.14.02-.26.03-.39.03-.24,0-.47-.03-.73-.06l-.27-.03.14-.23c.54-.9,1.3-.87,2.1-.84l.59.02-1.39,1.12Z"/>
</svg>