<?xml version="1.0" encoding="UTF-8"?>
<svg id="Layer_1" data-name="Layer 1" xmlns="http://www.w3.org/2000/svg" viewBox="0 0 64 64">
  <path d="M35.45,56.96c.45.06.96.06,1.51,0,.28-.03.57-.08.85-.12.76-.12,1.55-.25,2.37-.08.12.02.25,0,.4-.03.07-.01.14-.02.2-.03.52-.06,1.04-.12,1.56-.18l.55-.06c.07,0,.14-.01.22-.01.14,0,.28,0,.37-.06.14-.09.31-.29.33-.36-.07-.19-.13-.39-.2-.58-.22-.67-.45-1.37-.87-1.88-.49-.6-.69-1.32-.56-2.07.13-.75.1-1.51.07-2.24-.02-.49-.04-1-.01-1.5.02-.39-.13-.67-.49-.89-.21-.13-.39-.22-.56-.29-.51-.21-.73-.58-.76-1.21-.04-1.09-.14-2.23-.3-3.49-.04-.28-.14-.55-.25-.83-.07-.17-.13-.35-.19-.53-.07-.24-.15-.52-.04-.71.28-.45.25-.9.19-1.49-.04-.34-.07-.7-.1-1.03-.05-.52-.09-1.05-.17-1.57-.08-.52.05-.92.43-1.29.32-.32.57-.6.59-1.01.02-.56.05-1.13.07-1.68.03-.74.07-1.5.09-2.24.01-.57.02-.88-.1-1.01-.11-.13-.42-.16-.96-.21-.06,0-.11-.01-.16-.02h-.09c-.58-.08-.9-.12-1.07-.01-.17.1-.28.41-.48.95-.02.06-.07.09-.1.11l-.13.1-.09-.13c-.38-.64-.51-2.44-.22-2.97.07-.12.17-.23.28-.28.15-.08.3-.15.44-.22.24-.12.47-.23.69-.36.34-.22.64-.47.89-.74.13-.14.23-.32.33-.51.05-.1.11-.2.17-.29.13-.21.18-.4.14-.56-.04-.16-.16-.3-.36-.41-.17-.1-.34-.19-.52-.29-.09-.05-.18-.1-.27-.15l-.12-.07.22-.44c.13-.26.24-.48.35-.71.86-1.73,1.21-3.11,1.13-4.48-.11-1.96-.85-3.79-2.19-5.45-.1-.12-.2-.25-.31-.4-.06-.07-.12-.15-.18-.24l-.08-.11.1-.09c.07-.06.13-.12.19-.18.13-.12.25-.24.4-.33.85-.49.98-.76.78-1.69-.15-.74-.73-1.26-1.45-1.29-.72-.04-1.16.33-1.4,1.16-.1.36-.24.57-.44.66-.2.1-.46.07-.83-.08-1.88-.77-3.6-.94-5.26-.5-2.23.58-3.78,1.59-4.88,3.16-.22.31-.5.58-.78.83-.1.09-.2.19-.3.29-.59.58-.82,1.08-.73,1.6.09.53,0,.97-.11,1.49-.34,1.45-.2,2.84.39,4.14.29.64.6,1.27.93,1.93.15.3.3.6.45.92l.05.1-.28.26c-.16.15-.32.3-.49.45-.18.17-.56.6-.31.98.41.65.95,1.32,1.85,1.37.52.03.85.34.89.83.07.85-.05,1.69-.36,2.52l-.07.2-.16-.15c-.13-.12-.21-.25-.25-.41-.17-.62-.24-.67-.88-.61-.16.02-.32.04-.48.06-.19.03-.38.05-.58.07-.76.06-.82.12-.78.85.02.52.07,1.05.11,1.57.06.72.11,1.46.13,2.2.01.73.22,1.24.69,1.63.37.31.5.71.41,1.23-.03.19-.07.41-.08.63-.01.25-.03.51-.04.76-.04.82-.09,1.66-.09,2.49,0,.08,0,.16,0,.24.01.27.03.55-.1.85-.08.18-.14.4-.17.67-.04.33-.09.67-.14,1-.13.92-.26,1.87-.29,2.8-.02.74-.31,1.21-.94,1.53-.41.2-.63.5-.67.88-.02.22-.05.43-.07.65-.1.82-.19,1.68-.14,2.5,0,.1.01.2.02.3.07.98.15,1.91-.56,2.8-.23.29-.38.63-.53,1-.09.22-.19.44-.31.65-.18.33-.23.57-.15.71.08.15.31.24.68.27,1.33.12,2.66.24,3.99.35.14.01.3.02.48.02.57,0,1.15-.01,1.72-.02.49,0,.98,0,1.47-.01.47,0,.6-.14.61-.59,0-.19-.02-.37-.05-.54-.24-1.18-.27-2.26-.1-3.31.08-.47.07-.94.06-1.43-.01-.61-.02-1.25.15-1.89.36-1.35,1.13-2.25,2.43-2.82.09-.04.18-.05.28-.05.16,0,.32.04.44.08.86.33,1.51.9,1.99,1.73v.02c.45,1.09.62,1.96.56,2.81-.03.39-.05.76.04,1.1.2.79.14,1.57.08,2.33v.08c-.05.59-.12,1.19-.18,1.79-.06.57.05.73.59.79ZM36.93,34.12c-.28.23-.43.34-.6.34-.16,0-.34-.09-.66-.27l-.35-.2,1.08-.18h.02c.22.01.33.04.45.06l.29.06-.23.19ZM36.6,12.27l.1-.09.09.1c.73.78,1.48,1.77,1.58,3.11.01.14.01.29-.06.4-.56.94-.67,2.01-.78,3.05-.02.19-.04.38-.06.58-.03.23,0,.46,0,.7.01.14.02.28.02.42,0,.12,0,.24-.02.4,0,.08-.02.18-.02.3l-.02.23-4.67-2.82c-.34.26-.61.6-.9.95-.22.27-.45.55-.72.81.71.64,1.53,1.13,2.32,1.61.54.32,1.09.66,1.62,1.04l.15.11-.15.12c-.97.77-2.06.82-3.12.82-.08,0-.15,0-.23,0h-.1c-1.51-.13-2.49-.48-3.29-1.17l-.1-.08.07-.1c1-1.53,6.75-9.16,8.27-10.47ZM26.23,13.47c.45-1.26,1.77-2.42,3.46-3.04,1.7-.62,3.37-.56,4.58.16l.14.08-3.1,3.87c-.48.62-.88,1.14-1.33,1.74l-.11.14-3.69-2.86.03-.1ZM26.45,21.14l-.12-.16c-1.07-1.38-1.22-2.86-1.12-4.66l.02-.28,1.62,1.32c.45.36.82.66,1.25,1.01l.14.11-1.79,2.66ZM33.05,39.86c-.02.63-.05,1.11-.07,1.62v.16h-1.8l-.03-.1s-.03-.08-.05-.12c-.04-.1-.09-.22-.09-.35v-.06c0-1-.01-2.02.02-3.04.01-.36.11-.72.28-.98.17-.28.41-.44.67-.45.25-.01.51.12.7.38.17.23.29.56.32.89.04.49.04.98.05,1.46,0,.19,0,.39,0,.58h0ZM30.46,34.28l.16-.22c.22-.31.51-.3.74-.29.05,0,.09,0,.14,0,.19,0,.39,0,.58,0,.08,0,.16,0,.24,0h.03s.03.01.03.01c.19.08.26.15.35.26l.2.23h-2.45ZM34.98,28.09c-.47-.05-.85-.07-1.2-.06-.52.02-.62.11-.7.65-.02.12-.04.25-.06.38l-.05.33h-2.18l-.02-.12c0-.06-.02-.11-.02-.17-.02-.12-.04-.25-.05-.38-.04-.6-.13-.69-.69-.7-.52,0-1.03.02-1.57.05-.23.01-.46.03-.7.04h-.16s0-.15,0-.15c0,0,0-.02,0-.03,0-.06-.01-.15.04-.23.17-.28.38-.53.58-.77.22-.27.46-.55.63-.86.15-.28.44-.37.81-.26.26.08.53.13.79.18.1.02.21.04.31.06,1.28.28,2.56.02,3.65-.25h.03s.03,0,.03,0c.58.13,1.13.35,1.13,1.1,0,.06.09.18.2.26.7.47.63,1.14.51,1.73l-.03.14-.14-.03s-.05-.01-.08-.01c-.07-.01-.17-.03-.2-.13-.09-.36-.14-.54-.23-.62-.09-.08-.27-.1-.64-.14ZM30.18,56.2c-.09-.09-.09-.34-.06-.69.07-.83.09-1.67.1-2.46,0-.37,0-.74,0-1.11-.01-.55-.02-1.11.01-1.66.05-.86.34-1.58.85-2.15.31-.34.63-.52.95-.52,0,0,0,0,.01,0,.31,0,.62.18.92.52.58.67.87,1.47.88,2.38,0,.22,0,.45,0,.68,0,.22,0,.45,0,.7l.02.65c.04,1.1.07,2.15.1,3.2,0,.18-.02.29-.08.35-.06.06-.17.09-.36.09h-.49c-.72.03-1.47.04-2.2.08-.33.02-.56,0-.65-.08Z"/>
</svg>