<?xml version="1.0" encoding="UTF-8"?>
<svg id="Layer_1" data-name="Layer 1" xmlns="http://www.w3.org/2000/svg" viewBox="0 0 64 64">
  <path d="M43.44,34.96c-1.56.41-1.65.53-1.69,2.13,0,.34-.06.68-.1,1.02-.04.28-.08.57-.1.85-.02.29-.02.72.14,1.06.2.43.29.86.28,1.35,0,.35,0,.71.02,1.05,0,.2.01.4.02.6.01.71-.02.75-.71.94-.46.13-.94.24-1.42.32-.56.1-.83.41-.82.97,0,.14-.03.28-.05.44-.03.13-.05.27-.06.41-.02.42-.02.82,0,1.2.01.18.04.35.07.52.03.17.05.34.06.5.05.86-.28,1.32-1.05,1.47-.5.1-.86.41-1.1.97-.09.2-.19.39-.28.56-.02.05-.05.09-.07.13-.19.01-.38.03-.57.04-.46.04-.89.07-1.32.08-.26,0-.41-.02-.49-.1-.08-.08-.11-.24-.1-.52,0-.23.02-.45.02-.68.01-.38.03-.76.04-1.14,0-.06,0-.12,0-.19,0-.2,0-.38.07-.54.3-.76.32-1.56.33-2.33,0-.15,0-.3,0-.46.07-2.14.08-4.01.04-5.72-.02-1.13-.13-2.35-.32-3.72-.11-.8-.13-1.65.48-2.43.19-.24.15-.64.14-.76-.26-2.12-.51-4.03-.76-5.83-.03-.24-.14-.47-.25-.69-.02-.05-.04-.09-.07-.14-.09-.2-.19-.4-.29-.59-.16-.31-.32-.63-.45-.95-.21-.52-.41-1.11-.61-1.79-.07-.24-.1-.5-.14-.76-.01-.1-.03-.2-.04-.3,0-.05,0-.11-.01-.17,0-.12,0-.25-.06-.38-.49-1.05-1.25-1.91-2.06-2.82l-.19-.22-.52.72c-.34.47-.66.9-.97,1.33-.06.09-.11.18-.16.27-.05.09-.09.17-.15.25l-.07.09c-.31.41-.66.88-.36,1.54.03.08-.02.25-.06.38-.01.03-.02.07-.03.1-.34,1.18-.71,2.44-1.17,3.69-.53,1.47-.73,2.89-.59,4.24.06.59.11,1.2.16,1.79.03.41.07.82.11,1.23.07.73-.02,1.25-.68,1.53l-.12.05.03.13c.02.07.03.14.04.21.03.16.05.31.14.44.47.74.51,1.57.54,2.44v.25c.05.86.08,1.75.11,2.6.04,1.05.08,2.13.13,3.2.03.61.1,1.21.17,1.84.03.29.07.58.09.87v.13s.14,0,.14,0c.08,0,.17,0,.25,0,.17,0,.34,0,.5.04.34.06.7.15,1.14.27.11.03.22.08.33.12.13.05.25.11.39.14.65.17.81.38.73.91-.13.82.12,1.24.9,1.5.63.21.93,1,.85,1.62-.04.28-.17.42-.41.42-.78,0-1.62,0-2.67-.03-.2,0-.41-.02-.61-.04-.14-.01-.28-.03-.42-.04-.26-.02-.51-.03-.78-.04h-.25s-.01-.07-.02-.1c-.03-.11-.05-.21-.05-.3,0-.55-.01-1.18-.31-1.83-.14-.31-.17-.69-.2-1.08-.01-.16-.03-.33-.05-.49-.13-.94-.49-1.29-1.41-1.36-.44-.03-.89-.02-1.33,0-.11,0-.22,0-.33,0-.31,0-.52,0-.61-.09-.08-.07-.11-.25-.1-.59,0-.3.03-.6.05-.89.03-.3.05-.61.05-.91,0-.39-.03-.79-.06-1.18-.01-.19-.03-.37-.04-.56,0-.15-.02-.29-.03-.44-.03-.36-.05-.73-.05-1.09.01-.69-.1-1.01-.83-1.12-.52-.08-1.1-.08-1.74,0-.22.03-.44.05-.5-.01-.04-.04-.07-.15-.07-.34,0-.27-.02-.55-.03-.83-.04-.84-.07-1.71.09-2.51.22-1.04.38-2.08.05-3.22-.16-.54-.14-1.16-.12-1.76,0-.23.01-.47.01-.7,0-.5-.13-.94-.39-1.45-.4-.77-.82-1.57-.39-2.49.2-.43.41-.65.71-.78.54-.22.77-.61.69-1.17-.13-.9.02-1.81.16-2.69.03-.18.06-.36.08-.54.06-.43.06-.87.06-1.29v-.02c0-.95.1-1.1,1.01-1.37.28-.08.55-.17.86-.28.15-.05.31-.1.49-.16l.08-.03.02-.08c.03-.12.07-.26.12-.4.1-.34.22-.74.3-1.14.15-.74.26-1.49.37-2.22.09-.61.29-.81.92-.94.14-.03.27-.07.4-.12.14-.05.28-.09.42-.12.15-.03.32-.02.52-.01.1,0,.21,0,.33,0h.08l.05-.06c.22-.3.45-.61.68-.92.54-.73,1.1-1.48,1.63-2.23.49-.7.69-.78,1.48-.63.15.03.31.03.46.02.84-.02,1.2.25,1.33.97.12.71.46,1.24.92,1.8.23.28.43.59.65.91.09.14.19.29.29.43l.06.08.3-.05c.12-.02.23-.04.34-.06.39-.07.65-.04.82.09.17.13.27.39.3.81.05.59.12,1.2.21,1.81.02.13.09.25.15.36.03.05.06.1.08.16l.06.12.26-.07c.08-.02.15-.04.22-.07.41-.13.65-.15.79-.07.13.09.22.32.27.75v.11c.08.52.14,1.07.18,1.6.03.45.28.7.74.74.15.01.28.02.4.06.68.17.89.45.88,1.15,0,.29-.02.57-.08.83-.25.98-.4,1.87.15,2.79.08.13.07.33.07.55,0,.13,0,.27,0,.41.03.22.07.44.12.7.02.12.05.25.07.38l.04.22.19-.12c.2-.12.38-.24.56-.35.41-.25.77-.47,1.14-.68.21-.12.48-.25.74-.3.17-.03.23.06.35.3.03.05.06.11.09.16.07.11.19.17.29.23.06.03.11.05.15.08.18.14.35.3.52.49.02.23.06.46.09.68.08.52.16,1.02.01,1.41-.4,1.06-.23,2.06-.07,3.02.02.11.04.23.06.34.07.42.09.87.08,1.35-.01.49-.11.61-.64.74ZM42.85,44.66c-.23.05-.44.09-.65.14-.45.1-.88.19-1.3.26-.73.12-.75.12-.8.83-.05.78-.03,1.58-.01,2.35v.3c.01.27.04.42.11.48.07.07.22.09.54.08.44-.01.88,0,1.31.01.19,0,.37.01.55.01h.1s.04.09.04.09c.03.07.06.13.08.18.05.1.08.17.1.26.12.51.32.84.95.93.63.09,1.05.59,1.19,1.45.02.13.04.26.05.41,0,.03,0,.07.01.1.1,0,.21-.01.31-.02.3-.01.58-.03.85-.09.34-.08.67-.12.99-.12.66,0,1.27.15,1.81.31.5.15,1.05.18,1.58.18.97,0,1.02-.03,1.09-1.11-.01-.31-.03-.62-.04-.92-.02-.51-.04-1-.06-1.49-.02-.54-.21-.78-.72-.88-.18-.04-.37-.06-.55-.08-.13-.02-.26-.03-.39-.05-.38-.06-.59-.3-.59-.68,0-.2,0-.4,0-.6,0-.43-.01-.87.03-1.3.1-.92-.11-1.26-.92-1.54-.67-.23-.84-.46-.89-1.2-.02-.28-.04-.56-.07-.84-.03-.38-.07-.76-.09-1.15-.01-.2.03-.39.07-.58,0-.04.02-.08.02-.12.02-.13.06-.26.09-.39.06-.23.11-.45.12-.66,0-.42,0-.85-.01-1.26-.01-.47-.02-.95,0-1.42.04-1.07-.09-1.22-1.13-1.26h-.08s-.04-.08-.04-.08c-.23-.4-.41-.59-.55-.6h0c-.12,0-.26.12-.45.37h.04s-.21.26-.21.26c-.12.18-.17.19-.23.18h-.03c-.2.05-.38.11-.56.16-.45.13-.85.24-1.24.36-.3.09-.44.31-.44.65,0,.13,0,.25,0,.38,0,.19-.01.38,0,.57.01.34-.03.68-.07,1.01-.09.71-.17,1.39.24,2.03l.02.04v4.04l-.12.03ZM13.07,53.14c.36,0,.73-.03,1.12-.08.18-.02.37-.04.57-.06.84-.13,1.54-.24,2.2-.34.05,0,.09-.02.14-.02.15-.03.32-.06.48-.06.24,0,.48.07.67.3.42.55.98.57,1.67.55.9-.03,1.8-.07,2.69-.11.8-.04,1.6-.07,2.4-.1.36-.01.52-.15.54-.47,0-.06.01-.11.02-.17.02-.16.04-.33-.01-.41-.43-.67-.39-1.39-.36-2.07,0-.14.01-.29.02-.43,0-.13,0-.26-.03-.4-.04-.27-.13-.45-.26-.54-.11-.07-.25-.09-.43-.06-.59.11-1.13-.03-1.65-.17-.44-.12-.86-.24-1.31-.2h-.16s0-.15,0-.15c0-.28,0-.55,0-.81.02-.79.04-1.54-.28-2.24-.05-.11-.04-.25.02-.45.22-.69.18-1.41.12-2.08-.08-.86-.17-.94-1.01-.94-.09,0-.18,0-.28.01-.05,0-.1,0-.15,0-.28.02-.69,0-.97-.41-.33-.47-.76-.58-1.45-.37-.36.11-.71.18-1.04.21-.67.05-.9.3-.89.93.02,1.11.07,2.26.16,3.52.02.35.02.7-.19.92-.16.17-.41.24-.86.23-.45,0-.91-.01-1.36.03-.55.05-.83.31-.92.84-.02.11-.02.23-.01.36,0,.07,0,.15,0,.22-.01.55.07,1.11.15,1.65.13.89.27,1.81,0,2.75-.04.15-.03.27.05.37.11.14.32.23.59.24ZM44.43,53.33c.08-.14.06-.34-.03-.63-.07-.2-.17-.38-.3-.6-.03-.06-.07-.12-.1-.18-.38-.42-.83-.55-1.46-.43l-.16.03-.02-.17c-.07-.61-.25-1.02-.55-1.22-.16-.11-.36-.17-.61-.17-.19,0-.41.03-.65.1-.51.14-1.03.31-1.53.48-.18.06-.35.11-.53.17-.37.12-.58.36-.64.75-.1.58-.19,1.1-.29,1.6-.08.44-.01.56.37.67.28.07.58.11.86.14.07,0,.15.02.22.03,1.64.2,3.27.11,4.84-.26.31-.07.49-.17.56-.31Z"/>
</svg>