<?xml version="1.0" encoding="UTF-8"?>
<svg id="Layer_1" data-name="Layer 1" xmlns="http://www.w3.org/2000/svg" viewBox="0 0 64 64">
  <path d="M49.21,54.61c-.78,0-1.59,0-2.38.33-.18.07-.46.08-.74.02-1.36-.28-2.74-.29-4.08-.29-.65,0-1.33,0-1.99-.04-.16,0-.32-.01-.48-.02-.37-.01-.75-.03-1.12-.07-.12-.01-.25-.07-.43-.14-.04-.02-.08-.03-.12-.05,1.32-1.57,2.83-2.81,4.71-3.89l.13-.07-.06-.14c-.57-1.27-.94-2.57-1.19-4.23-.05-.31-.27-.58-.47-.83l-.04-.05c-.5-.61-1.02-1.22-1.55-1.8-.5-.55-.79-1.24-.94-2.23-.27-1.77-.57-3.57-.86-5.31-.11-.66-.22-1.32-.33-1.98,0-.04-.02-.08-.03-.12-.01-.04-.03-.09-.02-.11.14-1.38-.78-2-1.59-2.39-.39-.18-.78-.39-1.16-.59-.47-.25-.96-.5-1.46-.73-.57-.25-.85-.66-1.09-1.19-.49-1.05-1.03-2.1-1.55-3.11-.15-.29-.3-.58-.45-.86-.07-.14-.17-.27-.27-.4-.04-.06-.09-.11-.13-.17l-.13-.18-.14.17c-.55.69-.95,2.24-.86,3.35-.04.12-.07.25-.11.36-.11.39-.22.76-.39,1.08-.44.85-.9,1.7-1.35,2.53-.2.37-.41.75-.61,1.13-.05.1-.12.24-.16.38-.13.46-.26.93-.39,1.39-.34,1.19-.69,2.41-.97,3.64-.23,1-.58,1.73-1.14,2.35-.37.4-.69.85-1,1.29-.13.18-.26.36-.39.53-.07.09-.13.19-.19.29-.11.17-.2.34-.34.43-.88.61-.85,1.45-.74,2.33.11.8.19,1.62.27,2.41.09.84.18,1.72.29,2.57.1.71-.09,1.11-.69,1.47-.56.34-1.09.72-1.61,1.1-.44.32-.89.65-1.36.94-.35.22-.82.37-1.22.37-.84.01-1.7-.04-2.53-.1-.19-.01-.38-.03-.57-.04-.41-.03-.58-.21-.56-.63,0-.24.06-.48.12-.73.03-.15.07-.3.09-.46.04-.28.09-.56.13-.84.13-.83.27-1.68.37-2.53.17-1.41.33-2.85.49-4.24.11-.97.22-1.94.33-2.91.02-.17.08-.34.16-.45.28-.37.57-.75.85-1.11.29-.37.58-.76.87-1.14.22-.29.35-.55.39-.79.21-1.05.42-2.11.62-3.14.25-1.29.51-2.62.77-3.92.18-.86.64-1.46,1.4-1.81.61-.28,1.26-.67,1.97-1.18.28-.2.53-.58.6-.93.31-1.45.6-2.93.89-4.36.22-1.08.43-2.17.65-3.25.18-.89.62-1.5,1.34-1.88l.09-.05c.82-.44,1.67-.89,2.49-1.36.21-.12.37-.33.5-.52l.45-.6c.71-.94,1.45-1.92,2.15-2.89.32-.45.7-.72,1.18-.84.24-.06.46-.15.68-.25l.14-.06c.37-.15.68-.17.95-.05.26.12.46.37.59.75.07.2.12.41.18.62.05.18.1.38.16.56.31.96.66,2.04,1.4,2.94.21.25.31.62.42.97.04.12.07.25.11.36.33.96.64,1.92.97,2.93l.46,1.39.17-.09c.22-.11.43-.22.64-.33.47-.24.91-.47,1.35-.69.07-.03.14-.07.21-.11.27-.16.43-.24.67-.08.06.04.11.08.17.12.38.26.7.48.78.94.14.81.3,1.55.48,2.24.11.4.24.8.37,1.18.09.26.18.53.26.79.04.13.06.27.08.41.02.1.03.21.05.31.45,2.06.91,4.13,1.37,6.19.02.08.06.15.11.23.02.04.05.08.08.12l.07.12.56-.17c.36-.11.71-.21,1.07-.32.43-.13.88-.08,1.24.13.33.2.55.53.62.92.26,1.37.56,2.99.79,4.66.14.97.2,1.97.26,2.94l.02.35c.05.77.19,1.37.76,2.02,1.01,1.15,1.51,2.42,1.48,3.76-.02,1.07,0,2.16.03,3.21.02.75.03,1.52.04,2.28,0,1.33-.51,1.86-1.84,1.87-.1,0-.2,0-.3,0ZM22.11,53.69c.06,0,.12.02.19.03.25.04.49.08.73.08,1.44.04,2.87.07,4.31.1,2.03.05,4.12.09,6.19.15.74.02,1.25-.17,1.67-.61l.22-.23c.38-.41.76-.83,1.2-1.19.63-.52,1.29-1.01,1.93-1.49.18-.13.36-.26.54-.4.26-.19.33-.33.27-.54-.07-.26-.12-.53-.17-.79-.11-.56-.23-1.14-.46-1.64-.27-.59-.62-1.17-.97-1.72-.21-.34-.43-.69-.63-1.04-.22-.4-.44-.83-.49-1.26-.13-1.14-.17-2.3-.22-3.42-.06-1.48-.12-3-.36-4.49-.09-.52-.25-.84-.58-1.1-1.2-.95-2.29-1.82-3.32-2.67-.29-.24-.48-.46-.59-.69-.28-.61-.56-1.24-.82-1.84-.23-.53-.47-1.08-.71-1.61-.07-.15-.18-.29-.32-.47-.03-.04-.06-.08-.1-.12-.26.48-.4.96-.53,1.43-.08.3-.17.61-.29.92-.1.34-.19.68-.29,1.01-.24.83-.46,1.62-.66,2.42-.62,2.53-1.21,5.1-1.72,7.27-.16.67-.41,1.25-.79,1.77-.28.38-.54.78-.79,1.17-.27.42-.55.85-.85,1.26-.55.73-.66,1.51-.38,2.63.29,1.18.56,2.39.82,3.56.11.5.22,1,.33,1.5l.02.1-.08.06c-.14.11-.27.21-.41.31-.29.22-.57.42-.83.64-.11.09-.24.17-.36.25-.27.17-.53.34-.69.65Z"/>
</svg>