<?xml version="1.0" encoding="UTF-8"?>
<svg id="Layer_1" data-name="Layer 1" xmlns="http://www.w3.org/2000/svg" viewBox="0 0 64 64">
  <path d="M7.01,44.67c.03-.33.08-.65.12-.99.03-.21.06-.43.09-.65h0s0-.02,0-.02c-.1-1.5.18-2.93.89-4.49.09-.19.13-.42.13-.72,0-.31,0-.62,0-.93,0-1.24.02-2.52-.02-3.78-.04-1.32-.15-2.66-.25-3.79-.08-.84.11-1.33.63-1.68.05-.03.08-.07.12-.1.02-.02.04-.04.06-.06.52-.41.77-.92.8-1.64.07-1.51.21-3.05.35-4.54.04-.4.07-.8.11-1.2.09-1.01,1.27-2.25,2.3-2.41.68-.1,1.33-.22,1.95-.36.48-.1.82.02,1.13.42.14.18.28.35.42.52.21.25.42.51.61.78.2.3.33.67.41.92.07.21.12.43.16.65.04.2.09.4.14.6.17.59.36.7.97.61.44-.07.72-.04.89.1.17.13.25.39.27.81.01.23,0,.46,0,.69,0,.15-.01.3-.01.44v.17c0,.39,0,.8.02,1.2.02.37.04.73.06,1.1.03.53.07,1.08.08,1.62.01.39.07.78.62.91.41.09.61.36.6.81,0,.2,0,.41.02.6.01.2.02.41.02.61-.01.61.23,1.02.71,1.23.54.24.79.63.85,1.33.04.43.12.86.2,1.27.05.25.1.51.14.76.05.35.21.61.52.82l.13.09q1.28.91,1.38,2.2c.01.13.02.28.04.44.12,1.34.32,2.66.6,4.22.07.38.21.74.34,1.09.07.19.15.39.21.58.13.4.13.67.01.84-.12.17-.37.26-.78.27h-.07c-.45.02-.91.04-1.35,0-1.05-.06-2.1.07-3.19.41-1.26.39-2.32.43-3.36.13-.28-.08-.57-.14-.86-.2-.28-.06-.57-.12-.84-.2-.54-.16-1.03-.23-1.5-.23-.31,0-.6.03-.89.1-.78.18-1.59.17-2.57-.03-.65-.14-1.31-.27-1.95-.39-.32-.06-.64-.13-.95-.19-.41-.08-.55-.28-.51-.74ZM52.56,45.43c.69-.25,1.29-.36,1.89-.36h.17c.52,0,1.05,0,1.57-.05.38-.04.62-.14.73-.3.11-.17.12-.43.01-.82-.03-.1-.06-.2-.08-.31-.15-.53-.3-1.08-.35-1.63-.11-1.22-.19-2.47-.27-3.67-.04-.54-.07-1.09-.11-1.63-.03-.49-.23-.88-.63-1.21-.44-.38-.84-.82-1.22-1.24l-.11-.12c-.15-.16-.2-.42-.22-.55-.19-1.34-.38-3.1-.25-4.87.06-.75-.04-1.36-.7-1.9-.56-.46-1.09-1-1.16-1.83-.06-.74-.14-1.49-.22-2.22-.09-.86-.19-1.74-.25-2.62-.1-1.36-.18-1.37-1.13-1.45-.11,0-.22-.02-.35-.03-.55-.05-.95.04-1.33.32-.36.26-.76.51-1.25.76-.36.19-.55.44-.61.83-.04.28-.11.55-.17.82-.03.15-.07.3-.1.45-.07.32-.25.5-.59.59-.81.22-.94.38-.96,1.19-.02.66-.08,1.33-.14,1.98-.11,1.13-.21,2.3-.07,3.45,0,.06,0,.11,0,.16,0,.03,0,.06,0,.08.01.37-.14.6-.47.71-.34.11-.51.38-.54.82,0,.09-.01.18-.02.28-.02.16-.03.32-.02.47.02.4-.13.68-.5.85-.29.14-.43.39-.46.82-.03.39-.07.79-.12,1.18-.04.31-.07.63-.1.94-.04.45-.23.74-.58.89-.46.21-.69.57-.76,1.23-.05.47-.13.95-.2,1.42-.04.23-.07.46-.1.69-.04.28-.13.62-.51.77-.69.29-.9.9-1.02,1.51-.04.18-.07.37-.11.55-.15.78-.3,1.58-.65,2.33-.12.25-.14.45-.07.6.08.16.3.27.63.33.18.03.37.05.55.08.34.04.7.09,1.04.18,1.5.39,2.86.37,4.18-.07.17-.06.36-.08.59-.08s.46.03.74.08c.58.11,1.15.25,1.75.41.29.07.59.15.89.22.07,0,.14,0,.21,0,.19,0,.35,0,.48-.04l.33-.1c.92-.27,1.86-.55,2.77-.88ZM43.33,22.97c-.28-.24-.35-.49-.36-.82,0-.25-.05-.4-.13-.47-.08-.08-.25-.11-.55-.1-.47.02-1.01.04-1.52.02-.69-.03-.76.03-.86.68-.09.6-.15.71-.78.74-.33.02-.66,0-.99,0-.22,0-.46-.01-.68-.01,0,0-.01,0-.02,0-.31,0-.62-.07-.67-.56-.04-.38-.32-.45-.55-.44-.56.02-1.12.04-1.67.06l-.37.02c-.21,0-.45.11-.46.36-.02.73-.59.77-.94.8-.45.04-.89.03-1.37.03-.42,0-.65-.2-.74-.63-.09-.45-.19-.52-.73-.52-.74,0-1.3,0-1.82-.02-.61-.02-.69.04-.78.6-.04.25-.15.57-.59.59-.68.02-1.29.04-1.88.04-.39,0-.83-.09-.84-.79,0-.39-.1-.48-.55-.49-.5-.02-1.04-.02-1.66-.02h-.08c-.5,0-.58.07-.68.57-.05.28-.11.5-.26.55-.35.09-.35.26-.31.65v.05c.1.91.2,1.98.28,3.09.05.7.05.73.67.9.5.14.72.43.73.93,0,.23.02.46.03.69.02.4.04.81.02,1.22-.02.39.13.64.45.78.51.21.79.58.85,1.13.02.16.05.33.09.5.03.13.06.26.08.39.04.23.07.46.1.69.04.31.09.64.14.96.03.16.15.34.3.44.08.05.16.08.21.07.17-.03.2-.13.24-.37,0-.04.01-.08.02-.12.02-.08.04-.17.06-.25.02-.09.04-.18.06-.26.16-.83.39-1.77,1.03-2.56.1-.13.18-.31.21-.49.07-.42.29-.76.71-1.07.17-.13.34-.26.51-.39.7-.54,1.42-1.11,2.28-1.48.6-.26,1.21-.52,1.94-.48.33.02.67,0,1-.02.29-.02.59-.03.89-.02.44.01.91.05,1.3.24.61.28,1.21.61,1.78.93.28.15.56.31.84.46.53.28.96.72,1.32,1.33.3.52.58,1.07.84,1.6l.18.35c.09.17.14.36.18.53.07.28.13.56.19.84.06.26.12.53.18.79.05.22.12.29.16.3.04.01.12.01.31-.12.3-.24.38-.53.39-.89.02-.45.05-.97.05-1.51,0-.5.19-.83.57-.99.47-.19.54-.53.51-1.04-.05-.71-.07-1.43-.1-2.13v-.23c-.02-.27-.04-.91.67-1.06.34-.07.47-.27.48-.71,0-.21,0-.41,0-.62,0-.9,0-1.82.23-2.73.04-.14-.03-.39-.12-.47Z"/>
</svg>