<?xml version="1.0" encoding="UTF-8"?>
<svg id="Layer_1" data-name="Layer 1" xmlns="http://www.w3.org/2000/svg" viewBox="0 0 64 64">
  <path d="M41.09,52.44c-.72.24-1.51.38-2.27.4-2.37.05-5.06.12-7.71.03-2.48-.08-4.91-.2-7.22-.83-1.34-.36-2.43-.73-3.43-1.37-.27-.17-.57-.29-.86-.4l-.06-.02c-.67-.26-1.23-.71-1.68-1.34-.89-1.24-.86-2.24.1-3.67.14-.11.27-.22.4-.32.34-.28.67-.55,1.02-.74,1.91-1,3.51-1.8,5.03-2.51.44-.21.93-.36,1.4-.51.33-.1.67-.21,1.01-.34,1.93-.74,3.87-1.51,5.78-2.29.3-.12.56-.33.81-.53l.06-.05c.44-.36.67-.76.65-1.15-.01-.26-.15-.64-.69-.99-.68-.44-1.41-.8-2.12-1.16-.28-.14-.57-.28-.85-.43-.34-.18-.69-.35-1.03-.52-.7-.35-1.43-.71-2.1-1.12-.5-.31-.78-.72-.75-1.12.03-.42.37-.8.94-1.06.61-.27,1.25-.5,1.87-.72.35-.13.72-.26,1.08-.4h.02c.45-.18.92-.37,1.35-.61.38-.21.45-.44.45-.6,0-.16-.09-.39-.46-.58-.5-.26-1.04-.43-1.56-.6h-.04c-.65-.22-1.31-.42-1.95-.61-.39-.12-.78-.24-1.17-.36-.13-.04-.27-.1-.43-.18-.45-.23-.72-.57-.72-.93,0-.33.2-.63.59-.85,1.58-.9,3.09-1.32,4.62-1.29.11,0,.23.04.4.09,0,0,.01,0,.02,0-.14.1-.23.18-.34.23-.22.1-.44.2-.66.3-.35.15-.71.31-1.05.5-.34.19-.5.39-.5.62,0,.23.19.42.54.59.37.18.78.29,1.17.4.15.04.3.08.45.13.65.2,1.3.4,1.95.59.83.25,1.66.51,2.48.76l.17.05c.28.09.57.17.83.3.56.27.81.6.81,1.04,0,.41-.27.72-.78.93-.59.24-1.19.47-1.77.7-.39.15-.78.3-1.17.45-.06.02-.12.05-.19.07-.38.14-.9.32-.9.93,0,.59.56.79.96.94l.07.02c1.01.37,2.05.74,3.05,1.1.38.13.76.27,1.13.4.06.02.13.04.19.06.12.04.24.07.34.13.37.21.74.42,1.12.63.96.54,1.95,1.09,2.88,1.7.79.52,1.22,1.22,1.26,2.04.04.89-.43,1.83-1.21,2.46-.72.57-1.48,1.11-2.22,1.63-.25.17-.49.35-.74.52-.67.48-1.04,1.03-1.08,1.61-.04.55.23,1.12.78,1.63.4.38.89.65,1.36.92.16.09.32.18.48.28.84.51,1.73,1.04,2.64,1.55.51.29,1.05.55,1.56.8l.39.19c.13.06.27.12.4.17.18.07.34.14.5.23.42.23.6.56.53.96-.06.37-.32.58-.86.69-.16.03-.34.03-.52.03h-.37c-.41,0-.83,0-1.24-.03-.95-.05-1.9.09-2.88.42ZM24.13,38.47c.42.03.86.02,1.36-.02.42-.03.7-.14.86-.34.16-.2.2-.52.13-.98-.27-1.63-.82-2.62-1.85-3.31-.2-.14-.36-.42-.46-.84-.3-1.22-.16-2.4.03-3.49.11-.62.2-1.09.27-1.48q.3-1.56-.18-3.3c-.08-.3-.18-.64-.29-1.06-.1-.36-.2-.72-.3-1.07-.35-1.18-.71-2.41-.76-3.69-.01-.29-.03-.58-.04-.87-.02-.47-.05-.94-.06-1.4-.02-.51-.17-.9-.48-1.23-.37-.4-.71-.82-1.07-1.27-.12-.15-.24-.3-.37-.46h0c-.08-.1-.16-.2-.23-.3-.17-.22-.31-.41-.49-.56-.27-.23-.54-.32-.79-.28-.25.05-.48.25-.66.57-.08.15-.13.32-.18.49v.04c-.13.4-.26.8-.38,1.2-.25.82-.5,1.66-.77,2.49-.11.34-.27.77-.55,1.1-1.61,1.96-2.31,3.78-2.21,5.73.01.19,0,.39,0,.57,0,.21-.01.41,0,.61.11,1.53-.32,2.92-1.32,4.27-.53.72-.76,1.5-.69,2.4.05.59.08,1.09.07,1.6,0,.42-.03.85-.06,1.27-.01.2-.03.41-.04.61-.03.52-.28.82-.77.91-.77.14-1.23.71-1.6,1.31-.21.33-.28.61-.21.83.07.22.3.4.68.55.8.31,1.42.36,2.01.16.16-.05.32-.11.48-.16.46-.15.93-.31,1.38-.48.21-.08.46-.15.73-.15.32,0,.67.11,1,.44.41.42.97.53,1.52.58.93.09,1.9-.07,3.03-.48,1.12-.41,2.19-.57,3.27-.51ZM53.97,35.73c.09-.4-.05-.74-.38-.93-.84-.47-1.01-1.25-1.1-1.94-.05-.35-.15-.71-.24-1.05l-.02-.08c-.23-.86-.92-1.32-1.8-1.21-.36.05-.58.05-.74-.09-.16-.13-.19-.36-.2-.65-.02-.67.03-1.34.14-2,.27-1.61.03-3.25-.72-5.03-.43-1.02-.55-1.9-.37-2.86.08-.41.12-.84.17-1.3.01-.14.03-.27.04-.42-.02-.1-.04-.2-.06-.3-.07-.36-.14-.67-.26-.96-.74-1.75-1.52-3.52-2.2-5.07-.21-.47-.45-.73-.7-.77-.31-.04-.63.28-.85.56-.47.6-.9,1.24-1.32,1.87-.32.48-.65.97-1,1.44-.84,1.14-1.16,2.35-.99,3.68.02.16.01.31,0,.46v.06c-.06.85-.12,1.92-.9,2.77-.24.27-.42.6-.61.94-.07.12-.13.25-.2.37-.4.69-.56,1.4-.49,2.18.08.83.12,1.68.17,2.5v.18c.06.89-.03,1.57-.27,2.21-.19.49-.31,1.03-.42,1.55-.04.18-.08.35-.12.53-.08.33-.09.75.31.9.13.05.26.1.4.16.57.23,1.16.47,1.67.4,1.19-.16,1.94.44,2.67,1.02l.11.08c.18.14.25.41.29.6.13.66.33.87.9.96.38.06.78.06,1.15.05.09,0,.18,0,.27,0,.96,0,1.77.11,2.52.34.79.24,1.63.23,2.43-.03.65-.21,1.32-.4,1.91-.55.46-.12.75-.22.83-.6ZM50.66,41.58c-.43-.26-.75-.58-1.04-1.05-.18-.28-.52-.47-.77-.59-1.13-.5-2.46-.12-3.32.95-.12.1-.25.2-.37.29-.22.17-.43.32-.6.52-.24.27-.34.6-.25.89.08.29.33.52.69.63.89.26,1.8.4,2.72.4.87,0,1.75-.12,2.63-.36.27-.07.7-.38.74-.68.04-.31-.14-.82-.42-.99ZM35.17,23.02c-.5-.22-.97-.25-1.26-.07-.36.22-.62.57-.9.93l-.18.23.1.11c.41.45.86.57,1.31.57.29,0,.58-.05.86-.11.2-.04.4-.07.59-.09.09,0,.17-.06.25-.16.08-.1.2-.31.17-.48-.07-.41-.52-.75-.92-.93Z"/>
</svg>