<?xml version="1.0" encoding="UTF-8"?>
<svg id="Layer_1" data-name="Layer 1" xmlns="http://www.w3.org/2000/svg" viewBox="0 0 64 64">
  <path d="M29.73,7.43c-2.44.3-4.3.98-5.83,2.16-1.14.88-2.37,1.67-3.56,2.43-.33.22-.67.43-1,.65-.64.42-1.11.97-1.5,1.75-.29.57-.61,1.14-.92,1.68-.28.49-.58,1.01-.84,1.52-.05.1-.11.21-.16.32-.34.66-.7,1.35-.84,2.05-.19,1-.33,2.04-.46,3.04-.11.85-.22,1.73-.37,2.59-.24,1.36-.07,2.5.51,3.6v.03c1.19,3.44,2.88,6.57,4.66,9.74.1.17.22.33.34.5.08.11.16.21.23.32.61.91,1.22,1.82,1.83,2.73l.43.65c.1.15.2.31.3.46.21.32.42.65.65.96.24.33.5.66.75.98.26.34.54.69.79,1.04,1.82,2.5,3.3,4.54,4.65,6.42.68.95,1.48,2.08,2.25,3.26.29.45.66.69,1.05.69,0,0,.02,0,.03,0,.39-.01.76-.28,1.03-.76.35-.62.74-1.22,1.11-1.81l.17-.27c.51-.8,1.05-1.65,1.6-2.48.55-.82,1.11-1.65,1.65-2.46l.62-.91c.1-.15.21-.3.31-.45.2-.29.41-.59.6-.89.36-.58.71-1.16,1.06-1.74.5-.82,1.01-1.68,1.53-2.51.34-.54.7-1.07,1.05-1.59.58-.86,1.19-1.76,1.69-2.68.56-1.03,1.06-2.11,1.55-3.16.35-.76.72-1.55,1.11-2.32l.13-.25c1.63-3.22,1.66-3.28,1.91-7,.05-.72.07-1.65-.17-2.46-.19-.63-.37-1.28-.54-1.9-.82-2.98-1.67-6.07-3.77-8.56-.05-.06-.09-.13-.12-.2-.03-.05-.05-.11-.08-.14-.1-.1-.19-.21-.29-.32-.24-.28-.47-.54-.75-.71-1.44-.86-2.71-1.57-3.89-2.17-1.37-.69-2.77-1.32-4.15-1.87-.47-.19-1.16-.41-1.86-.41-.04,0-.08,0-.12,0-1.27.05-2.56.21-3.82.36l-.52.06ZM34.28,27.45c.51-.02,1.05-.2,1.56-.37.18-.06.36-.12.54-.18.3-.09.61-.22.9-.34.13-.05.27-.11.4-.16l.09-.05c.91-.47,1.69-.87,2.46-1.3.9-.5,2.2-.18,2.74.66.27.43.15.96-.3,1.3-.68.51-1.43,1.06-2.3,1.68q-.58.41-.33,1.03c.08.2.16.39.25.59.15.36.31.73.45,1.11.34.9-.1,1.3-.38,1.46-.33.19-.85.25-1.41-.53-.36-.49-.73-.99-1.06-1.5-.27-.4-.57-.51-1.03-.39-.89.23-1.79.44-2.69.61-.57.11-.78.32-.83.81-.04.45-.12.91-.2,1.34-.04.22-.08.45-.12.67-.11.68-.53,1.11-1.07,1.11-.03,0-.05,0-.08,0-.73-.06-.89-.7-.94-1.17-.03-.27-.07-.54-.11-.81-.06-.43-.12-.87-.16-1.31-.03-.38-.21-.56-.62-.66l-.37-.08c-.79-.18-1.6-.36-2.4-.56-.38-.1-.65,0-.87.32-.16.22-.31.44-.46.66-.14.2-.27.39-.41.59l-.07.1c-.12.17-.24.34-.39.48-.23.2-.7.63-1.3.27-.45-.27-.59-.79-.37-1.38.14-.37.3-.74.45-1.09.07-.17.15-.34.22-.51.17-.41.27-.64.23-.77-.04-.14-.24-.29-.61-.58l-.44-.34c-.47-.36-.95-.72-1.41-1.1-.34-.28-.51-.56-.5-.86,0-.29.18-.57.53-.82.09-.07.18-.12.27-.17.09-.05.17-.1.24-.16.66-.49,1.32-.49,1.99-.01,1,.73,2.17,1.18,3.3,1.62.41.16.84.33,1.26.51.2.09.45.14.73.15.36.01.73.03,1.09.05,1.17.05,2.38.11,3.57.07Z"/>
</svg>