<?xml version="1.0" encoding="UTF-8"?>
<svg id="Layer_1" data-name="Layer 1" xmlns="http://www.w3.org/2000/svg" viewBox="0 0 64 64">
  <path d="M43.36,24.52c.62-.65.64-1.03.08-1.62-.32-.34-.64-.69-.95-1.04-1.17-1.29-2.39-2.62-3.78-3.74-3.28-2.62-6.96-4.61-10.93-5.93-.33-.11-.68-.21-.98-.18-1.16.14-2.32.33-3.53.53l-.59.1c-.25.08-.5.16-.74.24-.57.19-1.11.37-1.67.53-.54.16-.85.52-.95,1.14-.05.31-.06.63-.02.93.13,1.03.06,2.14-.2,3.47-.08.41-.16.82-.24,1.23-.25,1.34-.51,2.72-.84,4.06-.51,2.07-.92,4.11-.3,6.2.17.57,0,1.12-.51,1.59-.38.36-.74.76-1.09,1.14l-.18.2c-2.59,2.84-4.43,5.62-5.63,8.5-.32.77-.39,1.49-.22,2.28.21.99.33,1.98.42,2.83.1.91.38,1.14,1.29,1.08l.47-.03c.71-.05,1.45-.09,2.16-.16.83-.08,1.47.19,1.95.83.6.79,1.41,1.09,2.54.94,1.6-.21,2.91-.34,4.12-.39.23-.01.47-.02.71-.02.6,0,1.22.05,1.78.26,2.42.89,4.93,1.68,7.47,2.33,1.18.3,2.19.21,3.11-.28.94-.5,1.88-.64,2.87-.41.12.03.25.04.39.06.06,0,.12.01.18.02.56.07,1,.04,1.28-.34.3-.4.1-.79-.12-1.24l-.03-.05c-.1-.2-.2-.4-.31-.6-.3-.56-.6-1.13-.77-1.75-.44-1.59-1.29-2.88-2.59-3.93-.59-.47-1.03-1.09-1.28-1.8l-.06-.18.19-.04c1.43-.32,1.79-.78,1.74-2.24,0-.26.04-.52.13-.73.07-.14.16-.28.25-.41.13-.18.26-.36.25-.5,0-.14-.2-.31-.38-.48-.1-.1-.21-.2-.31-.31l-.18-.21.44-.12c.11-.03.21-.06.31-.08.62-.15.65-.19.71-.83.08-.88.14-.94,1.04-1.07.46-.06.77-.22.92-.45.15-.24.15-.59,0-1.05-.11-.34-.21-.68-.3-1.02-.1-.38-.21-.77-.34-1.14-.49-1.46-.25-2.52.81-3.44.53-.46,1-1.03,1.45-1.58.3-.37.62-.75.96-1.11ZM36.18,47.22l.22.58-.48-.36c-.13-.1-.24-.17-.33-.23-.17-.11-.29-.2-.38-.31-.4-.48-.8-.96-1.2-1.44-.37-.45-.74-.89-1.11-1.34-.18-.21-.39-.42-.67-.67-.34-.3-.69-.59-1.03-.89-.37-.32-.75-.64-1.12-.96-.24-.21-.38-.45-.45-.76l-.08-.34.88.42c.07.04.15.08.22.13.08.05.23.14.27.13.88-.27,1.29.27,1.66.74.06.07.11.15.17.22.2.25.49.44.79.64.16.11.33.22.49.34.2.16.38.33.56.49.08.07.16.15.24.22l.03.03v.04c.46,1.11.83,2.08,1.3,3.31ZM39.31,25.57l-.6.48c-.94.75-1.84,1.45-2.72,2.17-.23.18-.42.39-.55.61-1.02,1.59-2.04,3.21-3.03,4.77l-.75,1.18c-.1.15-.19.3-.29.46-.11.18-.22.36-.34.54-.55.86-.64,1.58-.31,2.33l.03.06c.16.36.35.8.12,1.36l-.08.2-.18-.13c-.88-.65-1.43-1.31-1.75-2.08-.13-.32-.13-.77,0-1.07.3-.67.64-1.38,1.09-2l.15-.21c.77-1.05,1.5-2.05,2.09-3.2.63-1.22,1.39-2.46,2.75-3.24.29-.17.52-.44.77-.73.1-.11.19-.23.29-.33l.28-.29c.44-.46.89-.94,1.3-1.43.48-.57,1.11-.86,1.72-1.15h.03c.66-.32,1.24-.25,1.88.21l.21.15-2.12,1.36ZM53.96,34.58c-.27,1.87-1.26,3.18-2.7,3.57-.69.19-1.4.34-2.09.49l-.44.09c-.65.14-1.3.04-2.07-.32-.54-.25-1.09-.3-1.69-.17-.06.01-.13.03-.19.04-.47.09-.76.18-.91.68-.03.12-.12.2-.19.26l-.04.03c-.33.31-.78.45-1.16.39-.15-.02-.29-.08-.4-.17-.34-.25-.48-.66-.4-1.17.09-.57.63-1.27,1.19-1.31.35-.02.62-.18.91-.42.82-.65,1.71-.83,2.73-.58.63.16,1.13.21,1.57.15.35-.05.77-.27,1.12-.59.14-.13.21-.27.2-.39-.02-.15-.15-.29-.35-.36-.23-.08-.44-.2-.73-.37l-.04-.02-.02-.05c-.25-.63-.28-1.27-.09-1.79.16-.43.46-.76.88-.95.99-.44,2.29-.85,3.55-.12,1.1.64,1.57,1.7,1.37,3.07Z"/>
</svg>