<?xml version="1.0" encoding="UTF-8"?>
<svg id="Layer_1" data-name="Layer 1" xmlns="http://www.w3.org/2000/svg" viewBox="0 0 64 64">
  <path d="M53.45,18.37c-.17-.42-.35-.86-.45-1.31-.38-1.83-1.64-2.93-3.01-3.98-1.37-1.05-2.86-1.75-4.57-2.15-.42-.1-.64-.03-.78.23-.12.23-.06.44.23.7,1.46,1.33,2.31,2.78,2.61,4.44.13.72.21,1.41.25,2.07.01.25-.09.57-.29.84-.23.33-.48.66-.73.97-.19.25-.39.5-.58.76-.27.37-.59.59-1.01.7-.59.16-1.19.34-1.77.51-.29.09-.58.17-.86.25-.83.24-.95.44-.79,1.29.01.08.03.15.05.23l.02.09c.05.2.1.4.14.6.12.49.24,1,.38,1.49.08.29.18.58.35.75.7.68.89,1.55,1.07,2.39.03.16.07.31.11.47.03.14.03.28.02.46,0,.1,0,.21,0,.34v.46l-.26-.38c-.07-.09-.12-.16-.16-.22-.07-.09-.11-.15-.14-.21l-.32-.53c-.54-.9-1.1-1.83-1.64-2.75-.12-.2-.19-.41-.2-.6-.03-.52-.06-1.05-.09-1.56-.02-.49-.05-1-.08-1.5v-.03c-.01-.2-.03-.47-.13-.57-.34-.35-.7-.7-1.11-.88-1.14-.51-2.32-.99-3.46-1.45-.54-.22-1.07-.44-1.61-.66-.41-.17-.84-.22-1.39-.16-.64.07-1.28.13-1.91.18-.59.05-1.21.1-1.81.17-.5.06-1.15.15-1.74.36-.61.22-1.21.49-1.79.75-.34.15-.69.31-1.04.45l-.23.1c-.64.26-1.25.51-1.75.99-.42.41-.89.32-1.3.19-.85-.28-1.73-.48-2.56-.65-.79-.17-1.32-.5-1.67-1.05-.14-.21-.27-.44-.39-.65-.22-.37-.45-.75-.7-1.11-.31-.44-.4-.85-.27-1.29.13-.44.26-.87.39-1.3.15-.49.3-.99.44-1.48.31-1.09,1-2.01,2.15-2.89.33-.25.41-.42.31-.66-.12-.28-.34-.37-.75-.29-.14.03-.29.05-.43.08-.29.05-.58.1-.86.18-.36.1-.72.22-1.02.41-.83.56-1.71,1.18-2.77,1.97-.36.27-.62.52-.79.77-.74,1.1-1.43,2.18-2.05,3.22-.19.32-.33.72-.39,1.11-.31,2.15-.41,3.93-.33,5.61.02.5.19.89.52,1.24.88.94,1.62,1.78,2.24,2.58.4.51.87.88,1.5,1.16.51.23,1.01.49,1.5.74.34.18.68.36,1.03.52.08.04.15.08.23.11.36.18.73.37,1.1.42.73.11,1.16.5,1.43,1.29.23.67.15,1.3-.26,2.02-.87,1.53-.84,1.55.22,2.93v.02c.63.8,1.27,1.63,1.5,2.71.11.52.49.74,1.12.66.12-.01.24-.03.35-.06.15-.03.32-.06.48-.07,1.26-.1,2.01.42,2.35,1.63.03.11.06.21.09.31.61,1.7.68,3.25.24,4.75-.12.41-.06.79.21,1.23.25.41.46.84.66,1.25.1.2.2.4.3.59.04.08.09.17.13.25.14.28.29.57.45.84.2.33.35.42.56.34.21-.08.29-.25.28-.62,0-.14,0-.28-.01-.43-.02-.39-.03-.79.03-1.18.08-.54.25-1.08.41-1.59l.06-.18c.05-.16.25-.35.36-.4.03-.01.06-.02.08-.02.03,0,.05,0,.07.02.18.09.39.26.46.46.09.29.15.6.21.89.03.16.07.33.1.49.02.08.03.15.05.23.05.25.1.48.2.69.34.74.74,1.51,1.17,2.29.08.15.27.3.33.3h0c.15-.02.35-.17.45-.33.15-.26.28-.54.4-.82.08-.17.15-.35.24-.52.4-.8.81-1.63.72-2.61-.04-.43.16-.82.57-1.15l.11-.09.09.11s.08.09.11.13c.07.08.13.15.18.23.58.9.65,1.91.68,2.96,0,.06,0,.12,0,.18,0,.4.02.58.3.63.31.05.45-.19.63-.56l.03-.07c.16-.34.33-.69.48-1.03.22-.48.45-.98.69-1.46.23-.46.29-.91.18-1.51-.14-.78-.25-1.53-.16-2.26.12-.91.38-1.81.64-2.68l.07-.25c.09-.32.38-.6.61-.76.6-.41,1.3-.51,2.19-.31.8.18,1.03-.01,1.34-.7.18-.39.4-.78.69-1.25.33-.52.68-1.05,1.02-1.55.12-.18.24-.35.36-.53.23-.35.25-.67.06-1.02-.08-.14-.15-.28-.22-.42-.05-.11-.11-.21-.16-.32-.45-.85-.49-1.76-.11-2.78.2-.53.54-.82,1.07-.89.4-.06.77-.18,1.02-.35.94-.63,1.99-1.15,3.31-1.62.62-.22,1.13-.61,1.56-1.19.18-.24.36-.48.54-.73.46-.62.93-1.26,1.43-1.86.65-.79.91-1.53.87-2.41h0s0-.02,0-.02c.03-.27.05-.53.08-.79.06-.58.12-1.13.14-1.68.01-.52-.05-1.04-.19-1.51-.09-.33-.23-.66-.36-.97ZM20.06,29.55l-.24.11.26-1.62v-.02c.11-.17.21-.33.29-.46.11-.18.21-.33.29-.5.26-.53.44-.94.58-1.33.05-.14.09-.29.13-.45.12-.47.24-.95.73-1.28l.16-.11.06.18c.54,1.65-.78,4.82-2.27,5.47ZM29.23,36.31c-.21.42-.55.65-.87.88-.2.14-.39.27-.54.43-.36.4-.74.6-1.16.6-.23,0-.48-.06-.74-.18-.64-.3-1.31-.59-1.95-.87-.34-.15-.67-.29-1.01-.44-.7-.31-1.06-1-.93-1.77.11-.65.21-1.31.3-1.94.04-.25.07-.51.11-.76.07-.49.38-.89.82-1.08.42-.18.9-.12,1.28.15.33.24.64.51.94.77.21.19.43.38.66.56l.14.11c.83.65,1.68,1.33,2.55,1.95.78.56.82.73.39,1.59ZM33.19,42.51c-.07.31-.2.5-.39.59-.2.1-.46.07-.78-.09-.24-.12-.43-.1-.7.08-.19.12-.35.18-.5.18-.05,0-.1,0-.15-.02-.17-.06-.3-.21-.4-.46-.08-.21-.26-.75-.12-1.21.22-.73.54-1.52.98-2.48.15-.32.34-.39.47-.4.15,0,.37.06.59.41.11.18.21.38.3.57.04.08.08.17.12.25h0c.05.15.11.28.16.4.16.39.3.72.38,1.07.09.39.1.79.03,1.12ZM41.08,35.57c-.18.67-.52,1.07-1.09,1.31-.77.32-1.55.68-2.3,1.02l-.2.09c-.3.14-.58.21-.84.21-.42,0-.79-.18-1.13-.55-.2-.22-.43-.41-.68-.61-.17-.13-.34-.27-.5-.42-.53-.49-.6-.85-.33-1.55l.02-.04.04-.03c1.56-1.05,2.85-2.16,3.89-3.12.16-.15.41-.36.7-.51.57-.28,1.16-.29,1.62-.02.47.27.76.79.81,1.44.01.21.04.42.06.63.07.69.15,1.41-.05,2.15Z"/>
</svg>