<?xml version="1.0" encoding="UTF-8"?>
<svg id="Layer_1" data-name="Layer 1" xmlns="http://www.w3.org/2000/svg" viewBox="0 0 64 64">
  <path d="M53.03,52.4c-1.51.45-2.93.24-4.25-.05-.57-.13-1.14-.19-1.71-.19-.65,0-1.3.08-1.94.25-1.24.32-2.46.31-3.75-.03-.32-.09-.65-.14-.97-.19-.23-.03-.46-.07-.68-.12-.32-.07-.54-.21-.59-.39-.05-.16.03-.35.23-.54.62-.61,1.34-1.2,2.21-1.79.39-.26.67-.48.85-.93.36-.92.77-1.89,1.33-3.15.34-.77.46-.82,1.32-.61.17.04.33.01.5-.02.06-.01.13-.02.19-.03l.18-.02-.04-.17c-.02-.06-.03-.12-.04-.19-.03-.16-.06-.33-.15-.48-.16-.26-.37-.55-.64-.7-.72-.41-.97-1.06-1.13-1.93-.17-.91-.59-1.48-1.31-1.8-.2-.09-.38-.24-.56-.4-.06-.05-.12-.1-.17-.15-.47-.38-.71-.83-.76-1.39-.13-1.33-.26-2.64-.49-3.94-.21-1.19-.5-2.39-.78-3.55l-.14-.57c-.04-.16-.17-.28-.29-.38-.05-.04-.09-.08-.13-.12l-.13-.14-.11.16s-.06.08-.1.12c-.09.1-.18.21-.22.35-.07.2-.15.41-.26.46-.07.03-.21,0-.42-.1-.84-.38-1.63-.78-2.34-1.18-.19-.11-.34-.34-.48-.55l-.03-.04c-.24-.37-.48-.74-.71-1.11-.22-.34-.44-.7-.66-1.04-.09-.14-.2-.25-.33-.38-.06-.06-.11-.11-.17-.18l-.14-.15-.17.29c-.04.06-.06.11-.09.15-.14.25-.27.38-.38.39-.11.01-.25-.09-.42-.29-.13-.15-.23-.34-.3-.49-.16-.31-.31-.63-.46-.94-.14-.29-.28-.58-.43-.87-.09-.17-.18-.34-.3-.55-.06-.1-.12-.22-.2-.35l-.13-.23-.14.22c-.09.15-.18.28-.26.41-.17.26-.32.49-.44.73-.42.86-.82,1.48-1.49,1.93-.24.16-.4.42-.55.67-.03.04-.05.09-.08.13-.21.34-.45.74-.65,1.17-.47,1.02-1.15,1.6-2.15,1.81-.38.08-.75.44-.95.75-.5.79-1.15,1.44-1.92,1.93-.43.27-.6.59-.62,1.13-.01.54-.07,1.08-.13,1.61-.03.28-.06.55-.08.83l-.02.2c-.03.34-.06.7-.05,1.05.03,1.07.09,2.16.15,3.16.02.44-.08.75-.34,1-.12.12-.24.23-.36.35-.35.34-.72.69-1.07,1.05-.15.16-.34.37-.43.61-.41,1.1-.83,2.29-1.3,3.64-.06.17-.08.48.06.63.18.18.6.06.62.05.92-.28,1.12-.19,1.52.67.17.37.34.73.51,1.1.14.3.28.59.42.89.13.28.15.52.07.69-.11.22-.4.32-.63.37-.95.18-2.07.33-3.25.04-.41-.1-.86-.12-1.28-.05-1.51.25-3.02,0-4.48-.24l-.45-.07c-.24-.04-.4-.12-.49-.25-.1-.15-.13-.37-.07-.67.16-.82.33-1.63.49-2.45.13-.65.27-1.3.4-1.95.12-.6.24-1.23.37-1.99.08-.48.28-.81.64-1.07.43-.31.81-.68,1.13-1.01.15-.15.26-.4.28-.63.07-.78.11-1.42.12-2.02,0-.48,0-.96,0-1.43,0-.54-.01-1.1,0-1.64,0-.26.08-.56.21-.88.56-1.31,1.13-2.61,1.7-3.86.37-.81.52-.89,1.4-.72.8.15,1.12-.09,1.29-.99.19-.99.34-2,.48-2.98.04-.25.07-.51.11-.76.03-.19.03-.38.04-.56,0-.11,0-.22.01-.33.06-.82.3-1.09,1.14-1.28.38-.09.76-.21,1.16-.35.14-.05.28-.09.42-.14,1.25-.24,1.89-1.12,2.39-2.03.36-.66.64-1.37.9-2.03.23-.61.59-.96,1.1-1.08,1.13-.27,1.99-.94,2.78-2.16.58-.89,1.2-1.76,1.8-2.61.2-.28.4-.57.6-.85.24-.34.52-.53.8-.55.23-.01.46.1.67.32.66.73,1.48,1.23,2.28,1.72.61.37,1.24.75,1.78,1.23.31.28.71.44,1.1.6.09.04.18.07.27.11.55.23.88.62,1.07,1.24.43,1.38.92,2.77,1.35,4,.22.62.48.8,1.14.77.3-.01.61-.06.9-.11l.16-.02c.62-.09.99.1,1.26.66.13.27.27.55.41.82.35.68.7,1.39.98,2.1.46,1.2,1.41,1.81,2.18,2.21.69.36,1.03.86,1.12,1.67.14,1.21.31,2.44.47,3.62.1.74.2,1.48.3,2.22.09.72.42,1.24.98,1.55.7.38,1.07.96,1.24,1.94.24,1.36.27,2.7.27,4.18,0,.74.09,1.48.18,2.2.02.17.04.35.06.52.03.24.17.47.28.62.34.48.63.86.92,1.19.34.4.52.9.57,1.62.06.83.14,1.81.25,2.81.09.88-.04.99-.94,1.26ZM21.4,42.05c.1-.11.19-.22.29-.32.46-.51.64-1.01.59-1.62.1-2.3.19-4.53.29-6.75.02-.41.21-.68.63-.89l.13-.07c.94-.47,1.9-.96,2.83-1.49.34-.19.59-.55.74-.82.42-.75.85-1.52,1.25-2.26.42-.77.86-1.58,1.3-2.36.09-.16.33-.59.47-.59,0,0,0,0,0,0,.14,0,.41.41.52.57.63.94,1.44,1.77,2.47,2.55.26.2.52.5.75.88.28.46.61.76,1.09.97.74.34,1.47.71,2.19,1.06.43.21.86.43,1.29.63.34.17.5.4.57.84.1.63.23,1.26.36,1.86.08.35.15.71.22,1.07l.05.28c.16.81.32,1.65.44,2.48.09.64.36,1.14.82,1.52.2.17.41.35.61.52.15.13.3.27.46.4.41.35.54.72.45,1.25-.28,1.61-.5,3.17-.77,5.04-.09.63-.28,1.09-.91,1.24-.05.01-.09.03-.12.05-.02,0-.03.02-.05.02-1.35.46-2.25,1.13-2.83,2.1-.2.34-.53.52-1.07.57-.6.06-1.21.18-1.79.29-.13.03-.26.05-.39.08-.93.18-1.75.05-2.53-.38-.47-.27-1.02-.35-1.4-.38-.32-.02-.64-.03-.96-.03-.18,0-.35,0-.53,0-.32,0-.65,0-.98,0-.56-.01-1.11-.07-1.57-.12-.5-.05-1.01-.11-1.51-.17-.65-.08-1.32-.16-1.98-.22-.71-.07-.76-.12-.88-.8-.12-.71-.38-1.26-.81-1.72-.18-.19-.32-.49-.37-.76-.08-.43-.13-.88-.19-1.31-.05-.43-.11-.87-.19-1.3-.09-.53,0-.9.35-1.22.24-.23.46-.48.67-.72ZM33.29,42.74c.03.24.29.39.51.49.27.13.57.19.88.19.84,0,1.73-.44,2.17-1.16.29-.47.46-1.02.63-1.55.05-.14.09-.28.14-.42.06-.19-.02-.54-.19-.64-.18-.1-.48,0-.63.09-.43.28-.84.58-1.31.94l-.22.16c-.16.13-.33.26-.49.39-.38.3-.77.6-1.14.92-.17.15-.37.35-.34.58ZM25.26,40.3c.03.1.06.2.09.3.13.43.26.88.47,1.29.5.99,1.21,1.45,2.22,1.45.28,0,.59-.04.92-.11h.02s.05-.04.05-.04c.22-.13.46-.27.49-.51.02-.16-.06-.32-.24-.49-.98-.93-2.1-1.76-3.33-2.47-.13-.08-.43-.11-.57.02-.13.12-.17.38-.12.55Z"/>
</svg>