<?xml version="1.0" encoding="UTF-8"?>
<svg id="Layer_1" data-name="Layer 1" xmlns="http://www.w3.org/2000/svg" viewBox="0 0 64 64">
  <path d="M47.3,48.01c.17-.06.37-.24.47-.44.26-.5.5-1.01.73-1.51.15-.32.3-.64.46-.96.21-.43.23-.84.05-1.29-.18-.48-.36-.97-.53-1.45-.19-.53-.39-1.08-.59-1.61-.23-.6-.7-1.01-1.48-1.29-.32-.12-.64-.23-.96-.33-.3-.1-.6-.2-.9-.31-.19-.07-.39-.15-.51-.31-.56-.8-.99-1.47-1.37-2.09-.13-.21-.14-.5-.13-.75,0-.17,0-.34,0-.5,0-.6.02-1.23.11-1.83.11-.74-.07-1.33-.61-1.91-.33-.36-.62-.76-.9-1.17-.3-.43-.16-.77,0-.97.51-.63,1.03-.78,1.74-.5.31.12.61.36.78.63.27.42.51.9.74,1.48.15.37.39.62.79.81,1.1.51,2.13.59,3.14.23.27-.1.52-.22.73-.36.16-.11.31-.29.17-.56-.11-.21-.3-.3-.57-.24-.09.02-.18.05-.27.08-.1.03-.2.07-.31.09-.83.17-2.05-.44-2.33-1.16-.31-.8-.55-1.52-.74-2.21-.17-.6-.49-1-1.01-1.26-.1-.05-.2-.1-.3-.15-.36-.17-.74-.36-1.08-.58-.61-.41-1.18-.41-1.83,0-.52.33-1.09.57-1.72.84-.74.31-1.22-.11-1.65-.49-.1-.09-.2-.17-.3-.25-.41-.31-.19-.65-.05-.86.06-.09.12-.19.13-.27.03-.23.12-.45.2-.66l.04-.11c.23-.62.5-1.21,1.16-1.56.18-.09.32-.32.45-.53l.04-.06c.08-.12.14-.25.2-.39.08-.18.17-.37.3-.53.42-.55.48-1.11.18-1.79-.05-.12-.09-.24-.12-.36-.04-.13-.07-.25-.12-.36-.4-.84-.37-1.58.09-2.26.14-.2.11-.41-.09-.58-.17-.15-.33-.14-.59.04-.54.36-.82.9-.86,1.64-.01.23-.01.48-.02.71,0,.11,0,.22,0,.33v.38s-.26-.29-.26-.29c-.46-.52-.87-1.08-1.31-1.81-.11-.19-.19-.4-.26-.6-.03-.07-.05-.14-.08-.21-.17-.43-.45-.72-.9-.9l-.04-.02c-.71-.59-1.49-.92-2.43-1.23-.57-.19-1.29-.47-1.78-.95-1.31-1.28-1.31-1.44-.91-3.19l.03-.14c.19-.83.59-1.36,1.31-1.71.49-.24,1.02-.44,1.66-.3.21.05.48.04.58-.29.08-.27-.02-.5-.27-.59-.29-.1-.71-.23-1.08-.18-.36.05-.73.14-1.08.23-.33.08-.67.17-1.02.22-.65.1-1.06.43-1.4,1.14-.54,1.11-1.16,2.17-1.7,3.09-.34.58-.33,1,.06,1.48.11.14.22.27.33.41.44.55.9,1.12,1.27,1.73.5.84,1.11,1.33,1.99,1.59,1.41.43,2.26,1.32,2.52,2.64.23,1.18-.28,2.38-1.25,2.94-.25.15-.52.27-.78.39-.28.13-.57.26-.83.41-.49.3-.97.6-1.31.99-.35.4-.63.86-.91,1.32-.09.15-.18.3-.27.44-.52.82-1.35,1.16-2.35.97-.16-.03-.33-.07-.49-.1-.61-.13-1.25-.26-1.83-.18-1.98.29-2.25.27-3.91-1.18-.12-.1-.22-.18-.32-.26-.39-.26-.56-.64-.52-1.17.04-.49.03-.98-.03-1.43-.18-1.55.32-2.61,1.58-3.32.98-.56,1.63-.69,2.67.07.81.6.97,1.19.55,2.1-.16.34-.19.51.02.66.24.18.43.07.71-.2.49-.47.7-1.95.35-2.47-.6-.89-1.26-1.54-2.02-1.98-.48-.28-.94-.32-1.42-.11l-.23.1c-.85.37-1.74.76-2.62,1.1-.53.2-.86.57-.99,1.13-.4,1.65-.82,3.43-1.28,5.43-.12.54,0,1.01.4,1.45.51.57,1.03,1.17,1.45,1.82.55.86,1.12,1.34,1.84,1.55.76.22,1.19.74,1.26,1.56.06.68.32,1.33.8,1.97.61.82.7,1.72.27,2.74-.06.15-.16.33-.33.39-.13.05-.28.03-.46-.07-.14-.07-.29-.14-.43-.21-.27-.13-.55-.26-.8-.43-.52-.34-.99-.31-1.57.11-.61.44-1.26.83-1.89,1.21l-.15.09c-.51.31-.81.74-.92,1.33-.07.35-.13.7-.2,1.06-.1.54-.21,1.1-.32,1.65-.1.49-.02.89.26,1.26.28.38.54.77.8,1.15.14.21.28.41.42.62.42.61,2.01,1.09,2.7.83.04-.01.07-.03.11-.05l.03-.02c.3-.15.4-.29.35-.49-.06-.28-.25-.41-.54-.38-.79.09-1.38-.16-1.71-.73l-.04-.07c-.29-.52-.63-1.1-.61-1.67.02-.57.25-1.21.71-1.98.16-.27.51-.38.85-.5.09-.03.18-.06.26-.09.7-.27,1-.2,1.44.36.39.49.74.99,1.04,1.5.32.53.67.85,1.11,1,1.12.38,1.66,1.29,2.01,2.04.2.44.23.83.07,1.27-.2.56-.33,1.14-.43,1.64-.2.97-.67,1.35-1.63,1.34-.28,0-.57-.03-.85-.05-.2-.01-.41-.03-.61-.04-.46-.02-.81.13-1.09.46-.35.41-.75.78-1.11,1.11-.81.75-.73,1.69-.64,2.69,0,.08.01.16.02.25.01.16.09.29.22.37.12.08.27.1.4.06.29-.1.39-.29.36-.66-.02-.26-.02-.64.12-.97.4-.94,1.45-1.43,2.45-1.14.35.1.69.22,1.02.34.15.05.3.11.45.16.44.15.9.26,1.3.04.15-.08.31-.17.46-.25.79-.41,1.55-.8,1.94-1.7.18-.41.79-.92,1.24-.92h0c.76,0,1.53.26,2.28.78l.14.1-.12.13c-.13.14-.25.28-.37.41-.25.28-.48.54-.72.79-.63.64-.7,1.02-.32,1.83.08.17.16.35.24.52.13.29.27.59.4.88.23.49.13.92-.29,1.33-.58.55-1.23.77-1.93.64-.17-.03-.33-.04-.49-.04-.61,0-1.18.2-1.81.5-.39.19-.49.33-.4.59.05.14.14.24.26.3.12.05.26.05.4,0,.76-.26,1.5-.17,2.22-.08.19.02.38.05.57.07.62.06,1.08.03,1.45-.1.7-.24,1.37-.6,2.02-.94l.13-.07c.67-.36.88-.83.73-1.63-.08-.41-.14-.82-.19-1.22v-.06c-.1-.66.15-1.15.73-1.43l.22-.11c.61-.3,1.24-.61,1.88-.88.27-.11.51-.2.7-.11.18.08.26.28.36.61.27.92.86,1.42,1.66,1.89,1.18.7,2.2.92,3.3.7.61-.12,1.23.02,1.9.43.56.34.88.77,1,1.36.05.24.23.36.48.32.33-.05.36-.34.36-.47,0-.3-.08-.62-.15-.89-.04-.13-.09-.26-.14-.4-.06-.16-.13-.32-.17-.49-.19-.84-.75-1.33-1.75-1.56-.33-.08-.68-.11-1.01-.14-.14-.01-.28-.03-.42-.04-.71-.09-1.27-.42-1.57-.94-.3-.51-.31-1.15-.04-1.78.02-.04.03-.08.05-.11.04-.09.08-.17.09-.25.1-.66.56-.95,1-1.16.71-.33,1.45-.67,2.13-1.08.26-.15.52-.43.76-.8.25-.39.48-.84.67-1.34.31-.82.94-.89,1.51-.84.45.03.8.14,1.04.56.15.26.34.53.58.82.3.37.41.78.33,1.24-.03.17-.05.34-.07.51-.01.11-.03.22-.04.34-.14.95-.69,1.49-1.65,1.6-.06,0-.11,0-.16,0-.04,0-.1,0-.12,0l-.06.04c-.09.06-.32.2-.33.27,0,.14.11.38.25.5.12.1.35.16.52.13.59-.11,1.14-.25,1.63-.42ZM24.94,30.5c-.09.23-.19.44-.32.72-.06.14-.13.29-.21.46l-.12.27-1.42-2.6h1.3c.56.13.81.2.91.39.1.19,0,.43-.13.75ZM36.87,38.93c-.19.5-.4,1.01-.63,1.51-.24.5-.62.95-1.02,1.21-.86.55-1.51,1.24-1.98,2.11-.04.07-.1.12-.17.17-.04.03-.08.06-.13.1l-.12.1-.1-.13c-.05-.07-.11-.14-.16-.21-.12-.15-.24-.3-.34-.46-.45-.69-1-1.2-1.68-1.58-.66-.37-1.53-.87-2.36-1.41-.49-.32-.72-.85-.72-1.63,0-1.04.02-2.1.04-3.13,0-.33.01-.66.02-.99.01-.82.3-1.38.87-1.74l.89-.55c1.12-.69,2.28-1.41,3.43-2.09.23-.14.59-.13.84-.05.24.07.47.19.68.31.09.05.18.1.27.14l.03.02c.07.06.13.12.19.17.18.15.32.27.41.43.33.55.66,1.12.98,1.67.46.79.93,1.6,1.42,2.39.41.66.42,1.26.06,1.99-.26.53-.49,1.1-.7,1.65ZM39.64,42.33c-.19.2-.47.32-.69.41-.19.07-.4.12-.6.16-.08.02-.17.03-.25.05l-.1.02-.06-.09c-.27-.42-.04-.74.12-.96.06-.09.12-.17.16-.26.19-.46.46-.9.73-1.32.1-.15.19-.31.29-.47.04-.07.1-.12.16-.16.02-.01.04-.03.06-.04l.13-.11.1.14c.72,1.06.71,1.85-.03,2.63Z"/>
</svg>