<?xml version="1.0" encoding="UTF-8"?>
<svg id="Layer_1" data-name="Layer 1" xmlns="http://www.w3.org/2000/svg" viewBox="0 0 64 64">
  <path d="M54.08,48.97c-.66.08-1.37-.06-1.97-.21-.4-.1-.82-.18-1.25-.18-.31,0-.62.04-.95.15-1.23.4-2.3-.09-3.42-.61-.11-.05-.21-.1-.32-.15-.08-.04-.11-.06-.12-.07-.17-.64-.68-.84-1.13-1.03-.13-.05-.25-.1-.36-.16-3.37-1.7-6.96-3.51-10.59-5.31-.67-.33-1.36-.64-2.03-.94-.33-.15-.66-.3-.99-.45-.03-.02-.07-.03-.1-.04-.1-.04-.19-.08-.26-.14-.13-.11-.24-.23-.36-.37-.01-.01-.03-.03-.04-.04.01-.01.03-.02.04-.03.12-.1.23-.19.36-.26.14-.07.28-.15.43-.22.67-.34,1.36-.7,2.01-1.11l.65-.41-.76.13c-1.25.21-2.37.68-3.56,1.17-.44.18-.89.37-1.35.55l-1.76.77c-2.19.96-4.26,1.87-6.37,2.8-.41.18-.83.38-1.23.57-.37.18-.75.36-1.13.53-.35.16-.57.2-.71.13-.13-.06-.23-.25-.32-.58-.1-.39-.34-.49-.58-.59l-.05-.02c-.28-.11-.43-.23-.49-.37-.06-.14-.03-.33.09-.61.13-.31.28-.55.44-.72.3-.33.29-.7.28-1.03,0-.12,0-.23,0-.34.02-.19-.17-.33-.44-.51l-.04-.03c-.25-.17-.39-.34-.38-.48.01-.12.15-.25.39-.35.79-.34,1.6-.68,2.39-1,.79-.33,1.61-.67,2.41-1.01.92-.4,1.85-.83,2.75-1.24.58-.27,1.16-.53,1.75-.79.15-.07.3-.13.45-.2.91-.41,1.85-.84,2.87-1.02.72-.13,1.41-.42,2.07-.69.58-.24,1.16-.51,1.73-.76.61-.28,1.25-.57,1.88-.83,2.15-.88,4.43-1.8,7.41-2.98.58-.23.6-.22.95.36.06.11.12.22.18.33.08.15.16.3.25.45.11.17.26.37.47.46.65.28.88.69.73,1.25-.12.43-.2.83.06,1.3.06.11.08.22.04.32-.04.13-.17.25-.35.33-.18.08-.38.15-.57.21-.17.06-.35.12-.52.19-1.88.79-4.11,1.73-6.36,2.7-.23.1-.45.22-.7.37-.13.07-.27.15-.42.24l-.34.19.37.1c.11.03.19.06.25.08.12.04.21.07.3.03.65-.34,1.22-.11,1.91.21,1,.48,2.03.95,3.02,1.4l.97.45c.69.32,1.38.64,2.07.95.86.4,1.72.79,2.58,1.19l.11.05c.2.09.41.19.59.3.23.15.35.27.36.37,0,.1-.09.23-.3.41-.72.61-.77.85-.33,1.67.09.17.17.35.26.56.1.24.18.45.14.52-.03.07-.21.16-.47.27-.13.06-.47.27-.52.4l-.03.07.03.06c.16.35.32.69.57.95.09.09.18.13.28.13h0c.16,0,.27-.11.37-.21.04-.04.08-.08.12-.11.26-.17.55-.32.91-.47.25-.1.51-.24.6-.48.08-.25-.05-.52-.19-.76-.19-.31-.36-.64-.52-.96-.06-.12-.13-.24-.19-.36-.18-.34-.12-.62.22-.93.19-.17.4-.38.57-.62.17-.25.22-.5.16-.73-.06-.23-.23-.41-.5-.53-.66-.31-1.32-.61-1.98-.87-.61-.24-1.23-.56-1.94-1.02-.53-.34-1.14-.57-1.72-.8-.25-.09-.5-.19-.75-.3-.09-.04-.18-.07-.26-.11-.11-.04-.21-.09-.32-.13-.53-.23-.65-.45-.6-1.09.08-1.02.32-1.58,1.37-1.79.66-.13,1.29-.45,1.89-.76.2-.1.41-.21.61-.3.42-.2.63-.39.71-.63.08-.25,0-.52-.23-.92-.28-.47-.33-.95-.16-1.51.31-1.04.28-1.13-.63-1.64l-.03-.02c-.44-.25-.71-.49-.76-.95-.04-.37-.27-.72-.64-.94-.4-.24-.86-.3-1.24-.15-.17.07-.35.15-.51.22-.21.1-.42.19-.64.27-.27.09-.49.09-.6,0-.12-.1-.11-.31-.08-.47.21-1.16.48-2.42.84-3.85.12-.48.46-.79.93-.86.4-.06.61-.27.7-.69l.08-.38c.29-1.32.59-2.69.58-4.09,0-.18.03-.37.05-.56l.02-.13c.11-.76.3-.97,1.04-1.09,1.23-.21,2.54-.41,3.99-.61.28-.04.52.01.69.15.17.14.28.36.31.64.03.26.03.52.03.78,0,.24,0,.49.02.74.14,1.61.29,3.22.44,4.83.09.92.17,1.85.26,2.77.01.12.02.24.04.36.04.35.08.71.05,1.05-.05.7.26,1.21.87,1.44.93.35,1.23,1.02,1.38,1.92.27,1.57.41,3.06.42,4.53,0,.46.04.92.08,1.36.03.41.07.83.08,1.24.02.8.52,1.18,1.01,1.44.09.05.18.1.27.14.2.1.4.2.57.32.41.27.65.65.74,1.14.06.34.13.67.2,1.01.32,1.62.65,3.3.56,5-.02.38.1.76.22,1.13.04.13.08.26.12.39.04.14.09.27.14.39.05.13.1.25.13.37.11.42-.02.67-.42.79-.17.05-.33.1-.5.16-.62.2-1.26.41-1.9.48ZM17.67,50.97c.42,0,.84,0,1.25.02.59.01,1.19.02,1.78.01.71-.02,1.48-.08,2.29-.21.36-.05.56-.3.62-.75.05-.35.2-.73.42-1.03.47-.65.47-1.1.01-1.66-.16-.2-.36-.38-.57-.58-.09-.09-.19-.18-.29-.28l-.25-.24c-.24-.24-.47-.46-.69-.7-.42-.45-.85-.63-1.38-.59-.56.05-1.09.03-1.56-.05-.58-.09-1.04.09-1.43.57-.11.14-.22.3-.33.44-.1.14-.2.28-.31.42-.03.04-.07.09-.1.14-.14.19-.29.39-.5.49-.42.2-.84.35-1.29.52-.18.06-.36.13-.54.2l-.15.06-.05-.15c-.18-.55.1-.88.37-1.14.08-.07.17-.12.25-.17.05-.03.1-.05.14-.08.41-.3.65-.64.67-.99.02-.34-.16-.69-.51-1.01-.38-.35-.83-.64-1.28-.84-.4-.17-.67-.34-.75-.61-.06-.23.03-.48.31-.88.04-.05.08-.1.12-.15.03-.04.07-.09.1-.13.74-1.03.73-1.36-.05-2.35-.28-.35-.38-.68-.31-.97.07-.28.32-.51.72-.67,1.74-.71,3.49-1.42,5.23-2.12l.06-.02c.31-.13.51-.21.51-.47,0-.29-.17-.51-.51-.67-.77-.35-1.56-.74-2.42-1.18-.44-.23-.72-.62-.75-1.05-.03-.42.18-.81.57-1.08.38-.26.46-.52.33-.98-.06-.19-.12-.38-.18-.57-.11-.35-.22-.71-.32-1.06-.14-.46-.03-.71.08-.84.1-.12.31-.25.71-.19.72.11,1.17-.1,1.49-.68.13-.23.3-.37.5-.42.22-.05.46,0,.71.16l.04.03c.08.05.15.1.22.12.15.04.3.06.45.08.02,0,.03,0,.05,0,0-.02.01-.05.02-.07.04-.15.07-.28.05-.4-.1-.54-.22-1.09-.33-1.62-.05-.25-.11-.5-.16-.75-.2-.97-.39-1.14-1.4-1.28-.88-.12-1.11-.38-1.16-1.32v-.25c-.05-.68-.09-1.38-.19-2.07-.16-1.09-.34-2.2-.51-3.27-.09-.53-.17-1.07-.26-1.6-.09-.55-.3-.76-.85-.84-.24-.04-.49-.07-.73-.09-.17-.02-.34-.04-.51-.06-.46-.06-.72-.04-.85.07-.14.12-.21.37-.24.86-.1,1.87-.43,3.84-1.01,6.04-.23.86-.62,1.28-1.36,1.43-.59.12-.89.52-.94,1.22,0,.17-.02.33-.02.5,0,.25-.02.51-.04.76-.09,1.06-.21,2.13-.33,3.17-.26,2.26-.53,4.6-.47,6.92.02.63-.28,1.1-.86,1.35-.78.34-1.12.95-1.1,1.96,0,.51,0,1.04-.02,1.54,0,.3-.02.59-.02.89v.42c-.01.74-.02,1.51-.01,2.26,0,.13,0,.25,0,.38.02.86.04,1.75-.38,2.6-.13.26-.21.56-.28.84-.02.08-.04.16-.06.24-.11.39-.11.67,0,.83.11.17.36.27.75.31.27.03.54.05.81.06.26.02.53.03.8.06h.1c.31.04.63.07.91.21.66.33,1.34.44,2.08.32.24-.04.48-.06.72-.08.2-.02.42-.03.62-.06.32-.05.48.05.56.15.07.08.15.23.08.48-.15.58.04.96.64,1.27.22.11.4.28.53.42.4.42.9.5,1.53.49.12,0,.25,0,.37,0ZM18.31,32.45c.34.19.7.36,1.05.52.56.26,1.14.53,1.66.89.9.62,1.72.61,2.81-.02.58-.34,1.2-.55,1.74-.59.84-.06,1.54-.42,2.29-.79.21-.11.43-.22.65-.32.15-.07.24-.15.24-.22,0-.08-.09-.2-.26-.3-.05-.03-.11-.05-.17-.08-.05-.02-.1-.04-.14-.07-2.23-1.15-4.46-2.29-6.75-3.47h0c-.06-.03-.11-.06-.16-.09-.11-.06-.21-.11-.3-.17-.28-.18-.52-.27-.74-.27-.26,0-.49.13-.72.4-.14.16-.36.23-.56.29-.05.02-.1.03-.15.05-.27.09-.42.2-.46.32-.04.12.02.29.18.5.16.21.34.4.49.55.06.06.11.11.15.16l.07.08-.04.09c-.06.14-.13.27-.2.39-.13.24-.23.44-.25.64-.03.4-.21.54-.47.72-.23.15-.35.29-.35.41,0,.11.14.25.38.38ZM39.77,49.19c.24-.39.29-.86.14-1.3-.15-.42-.46-.75-.86-.9-.61-.23-.98-.58-1.2-1.17-.26-.7-.77-1.08-1.48-1.12-.87-.04-1.62-.02-2.29.06-.25.03-.53.32-.76.54-.12.13-.21.29-.32.47-.06.1-.11.21-.18.31l-.02.03-.13.08c-.29.19-.54.35-.82.45-1.07.41-1.52,1.23-1.37,2.49.02.18.17.42.34.54.91.66,1.72.9,2.64.77.44-.06.88-.08,1.32-.08.25,0,.5,0,.75.01.18,0,.36,0,.54,0,.27,0,.53.04.79.07.16.02.32.04.47.05,1.03.08,1.82-.35,2.44-1.34ZM24.67,43.14c-.72.16-1.33,1.05-1.23,1.8.02.17.27.39.4.5.04.03.25.01.32,0,.09,0,.18-.01.26-.01.59,0,1.02.24,1.33.76.11.18.43.35.69.38.57.05,1.16.05,1.74.06.29,0,.57,0,.86.01.45.01.74-.13.91-.45.27-.53.74-.68,1.2-.75.67-.11,1.08-.48,1.08-.95,0-.78-.36-1.24-1.08-1.37-.37-.07-.78-.18-.98-.63-.3-.69-.82-.99-1.65-.95-.2,0-.4,0-.61-.01-.12,0-.24-.01-.38-.02h0c-.73-.02-1.24.24-1.6.81-.28.44-.67.71-1.25.84ZM41.06,49.07c-.17.25-.22.48-.15.66.07.17.27.29.55.34.64.11,1.3.2,1.99.3.1-.02.19-.03.29-.04.26-.04.48-.07.67-.16.19-.1.34-.28.39-.48.04-.18,0-.36-.1-.5-.35-.46-.75-.86-1.16-1.16-.16-.12-.44-.14-.64-.14-.08,0-.15,0-.19,0-.71.04-1.17.5-1.63,1.17ZM29.14,48.98l-.48-.58c-.3-.35-.7-.57-1.14-.6-.04,0-.07,0-.11,0-.39,0-.77.15-1.07.43-.28.25-.49.47-.67.69-.17.21-.23.45-.16.66.06.19.21.33.42.39.94.28,1.79.49,2.7.11.62-.26.72-.3.51-1.11Z"/>
</svg>