<?xml version="1.0" encoding="UTF-8"?>
<svg id="Layer_1" data-name="Layer 1" xmlns="http://www.w3.org/2000/svg" viewBox="0 0 64 64">
  <path d="M32.71,53.76c.25-.21.5-.43.75-.64,1.04-.88,2.12-1.79,3.12-2.74,2.2-2.08,4.41-4.22,6.55-6.28.61-.59,1.22-1.18,1.82-1.76.25-.24.42-.45.55-.66.48-.81.95-1.62,1.42-2.43.5-.86,1.02-1.76,1.54-2.63,1.5-2.53,2.92-4.88,4.32-7.18.28-.47.39-.92.32-1.42l-.19-1.47c-.18-1.42-.38-2.89-.55-4.34-.07-.59-.3-.86-.81-.95-.14.1-.28.19-.41.29-.53.37-1.04.71-1.42,1.15-.67.77-1.4,1.4-2.23,1.95-.59.39-1.14.84-1.66,1.27-.35.29-.7.6-1.04.9-.3.27-.62.55-.94.81-.13.11-.31.24-.53.21-.18-.02-.34-.13-.49-.34l-.08-.1.08-.1c.08-.1.15-.21.23-.32.18-.25.37-.52.58-.76.25-.27.49-.57.72-.85.59-.72,1.19-1.46,2.03-2,.72-.46,1.45-1.06,2.32-1.88.67-.64,1.33-1.33,1.96-1.99.31-.32.61-.65.92-.96.27-.28.41-.55.4-.8-.01-.25-.16-.5-.45-.75-.79-.69-1.6-1.38-2.39-2.05-.43-.37-.86-.73-1.29-1.1-.24-.21-.49-.42-.74-.63-.64-.55-1.31-1.11-1.94-1.69-.98-.91-1.38-.99-2.52-.48-.45.2-.9.43-1.34.65-.69.35-1.41.71-2.15.98-2.39.88-2.51,1.03-3.31,2.04-.25.31-.56.71-1.02,1.22-.49.55-1,1.09-1.49,1.61-.73.77-1.49,1.58-2.18,2.41-1.52,1.83-3.26,3.68-5.48,5.82-.19.19-.41.41-.6.65-.34.46-.35.65-.03,1.18.58.94,1.48,1.51,2.37,1.99.59.31,1.25.69,1.79,1.19.72.68,1.42,1.4,2.1,2.09.55.56,1.11,1.14,1.68,1.69.5.48.64.97.49,1.69-.18.85-.31,1.73-.44,2.59-.07.49-.15.99-.23,1.48-.35,2.05-.65,3.75-.96,5.36-.04.21-.14.39-.25.56-.04.07-.08.14-.12.22l-.06.12-.47-.1-.02-.11c-.02-.07-.04-.15-.06-.22-.05-.18-.1-.36-.1-.55,0-.18,0-.36,0-.53-.01-.6-.03-1.22.07-1.82.29-1.74.26-3.52.19-5.2-.02-.44-.02-.78-.01-1.06q0-1.06-1.28-2.51c-.98-1.11-2.11-2.25-3.65-3-1.16-.56-1.99-1.34-2.55-2.37-.2-.37-.46-.72-.7-1.06-.12-.17-.25-.34-.36-.51-.5-.73-.46-.96.21-1.47.34-.26.69-.52,1.04-.79.9-.68,1.83-1.38,2.72-2.1.43-.35.8-.79,1.05-1.23.57-1.02,1.07-2.12,1.49-3.07.59-1.32,1.19-2.72,1.83-4.26.18-.44.04-.82-.4-1.06-.11-.06-.24-.11-.38-.16-.09-.03-.18-.06-.26-.1-.63-.27-1.26-.54-1.88-.8-1.67-.71-3.39-1.44-5.07-2.2-.38-.17-.73-.26-1.06-.26-.39,0-.76.12-1.15.38-1.94,1.27-3.93,2.54-5.85,3.77l-.77.5c-.5.32-.8.79-.99,1.54-.73,2.93-1.4,5.49-2.02,7.82-.18.68-.14,1.28.12,1.94,1.24,3.13,2.41,6.23,3.29,8.58.23.6.6,1.07,1.1,1.57l1.02,1.04c2.4,2.45,4.88,4.98,7.27,7.52.65.69,1.25,1.45,1.83,2.18.71.9,1.45,1.84,2.29,2.65.78.75,1.47,1.61,2.14,2.44.27.33.55.68.83,1.01.09.11.17.23.24.35.07.11.14.22.22.32.4.46.92.52,1.36.15Z"/>
</svg>