<?xml version="1.0" encoding="UTF-8"?>
<svg id="Layer_1" data-name="Layer 1" xmlns="http://www.w3.org/2000/svg" viewBox="0 0 64 64">
  <path d="M47.74,44.88c-.09-1.62-.2-3.26-.31-4.84l-.1-1.51c-.03-.38-.12-.85-.61-1.05-.49-.2-.8.12-1.04.37l-.07.08c-.2.2-.4.39-.64.61-.05.05-.11.1-.17.16-.01-.04-.03-.08-.04-.12-.06-.2-.11-.34-.13-.49-.13-1.06-.31-2.12-.5-3.15-.26-1.44-.52-2.93-.61-4.41-.08-1.35-.32-2.72-.55-4.04-.11-.62-.22-1.25-.31-1.88-.06-.41-.19-.85-.72-.98-.58-.14-.85.33-1.02.64-.21.37-.41.74-.62,1.11-.34.61-.68,1.23-1.03,1.84-.07.12-.16.24-.29.39-.03.03-.06.07-.09.1l-.14-.28c-.15-.32-.29-.58-.41-.85-.09-.19-.17-.39-.25-.58-.18-.42-.36-.85-.62-1.23-.49-.7-.75-1.46-.78-2.31-.04-.93-.32-1.85-.88-2.8-.24-.42-.44-.86-.58-1.32-.15-.47-.28-.97-.41-1.44-.13-.47-.26-.96-.4-1.43-.19-.62-.33-1.28-.47-1.91-.22-1.03-.45-2.09-.92-3.09-.25-.54-.43-1.12-.61-1.69-.07-.21-.13-.42-.2-.63-.02-.06-.04-.12-.06-.19-.12-.41-.27-.92-.88-.96-.67-.04-.87.54-1.04,1.05l-.03.08c-.2.65-.4,1.29-.59,1.93-.5,1.62-.97,3.14-1.41,4.71-.27.97-.77,1.69-1.53,2.22-.8.56-1.15,1.31-1.14,2.46,0,1.22-.05,2.45-.11,3.65v.31c-.05.7-.34,1.34-.67,2.08-.02.03-.03.07-.05.1-.04-.06-.07-.12-.1-.17-.15-.25-.27-.46-.37-.66-.18-.37-.35-.75-.52-1.12-.1-.23-.21-.46-.32-.69-.12-.26-.41-.88-1-.68-.31.11-.6.52-.67.85-.28,1.23-.54,2.49-.79,3.7-.16.78-.32,1.56-.49,2.33-.12.57-.28,1.15-.44,1.71l-.05.2c-.09.31-.18.61-.27.92-.11.35-.22.72-.31,1.08-.17.63-.34,1.26-.5,1.88-.18.69-.36,1.37-.55,2.06-.12.44-.23.64-.69.55-.5-.09-.87-.03-1.12.21-.24.23-.32.58-.25,1.06.33,2.25.35,4.52.37,6.72,0,.71.28,1.35.8,1.91.56.59,1.13,1.2,1.67,1.79.32.35.64.7.97,1.05.58.63,1.24,1.08,2.01,1.38.35.14.71.37,1.01.65.57.54.98,1,1.3,1.45.52.73,1.22,1.19,2.21,1.44,1.8.45,3.68.97,5.75,1.56.49.14.97.21,1.44.21.58,0,1.14-.11,1.69-.33l.39-.15c.96-.38,1.95-.78,2.96-1.07,1.01-.29,1.76-.84,2.36-1.73,1-1.49,1.91-2.68,3.08-3.7.37-.32.67-.71.96-1.09.09-.12.19-.25.29-.37.22-.27.42-.54.63-.81.31-.4.63-.82.96-1.21.44-.52.64-1.07.61-1.67ZM37.94,45.29c-.54,1-1.06,2.03-1.56,3.03-.24.47-.47.93-.71,1.4-.3.58-.73,1.02-1.3,1.32-.08.04-.17.08-.25.12-.22.11-.44.22-.64.36-.82.58-1.68.65-2.94.24-2.34-.76-3.83-2.48-5.41-4.47-.27-.34-.36-.75-.28-1.27.17-1.2.34-2.42.5-3.59.13-.97.26-1.93.4-2.9.03-.18.09-.36.17-.6.02-.06.04-.11.06-.17.07.07.13.14.19.2.24.25.42.45.63.65.25.23.48.34.7.3.21-.03.39-.17.55-.43.18-.29.29-.61.4-.93.03-.1.07-.2.1-.29l.15-.41c.31-.84.64-1.7.93-2.56.21-.61.35-1.09.44-1.55.11-.55.2-1.1.29-1.64.09-.55.19-1.12.3-1.68.03-.17.12-.34.22-.53.02-.04.04-.08.06-.12.34.27.47.6.6.95.02.05.04.1.06.15.22.56.44,1.13.66,1.69.48,1.24.97,2.52,1.5,3.76.2.48.6.97,1.09,1.36.92.73,1.44,1.43,1.67,2.26v.02c.17.38.33.75.48,1.1.34.81.66,1.57,1,2.32.31.7.3,1.29-.04,1.93Z"/>
</svg>