<?xml version="1.0" encoding="UTF-8"?>
<svg id="Layer_1" data-name="Layer 1" xmlns="http://www.w3.org/2000/svg" viewBox="0 0 64 64">
  <path d="M49.07,14.44l-.89-.22c-1.59-.39-3.23-.79-4.84-1.23-.23-.06-.47-.12-.7-.18-.93-.24-1.9-.48-2.73-.96-2.18-1.25-4.32-2.66-6.38-4.03l-.56-.37c-.44-.29-.75-.45-1.06-.45-.29,0-.59.14-1,.43-.86.6-1.76,1.22-2.75,1.9-.19.11-.35.22-.5.32-.19.12-.37.23-.55.34-.3.18-.6.38-.89.58-.67.45-1.37.91-2.13,1.18-2.49.88-5.05,1.69-7.52,2.46-.63.2-1.27.4-1.9.6-.72.23-.99.57-.99,1.25,0,.2.03.41.06.6.68,4.1.75,8.35.81,12.1.07,4.31.67,8.19,1.85,11.87.15.48.42.97.76,1.42,1.56,2.04,3,3.89,4.41,5.63,1.18,1.46,2.38,2.87,3.52,4.19.45.52.91,1.05,1.45,1.46,1.15.87,2.35,1.71,3.51,2.53.4.28.8.56,1.19.85.55.39,1.08.4,1.65.02.6-.4,1.2-.8,1.8-1.19.68-.45,1.38-.91,2.06-1.37.31-.21.66-.46.93-.77,1.51-1.72,3.13-3.56,4.69-5.41,1.25-1.47,2.54-3.05,4.07-4.96.32-.4.6-.87.84-1.39.33-.74.71-1.62.99-2.53.26-.84.54-1.83.66-2.83.16-1.32.22-2.67.28-3.97.09-1.83.17-3.73.53-5.58.04-.21.03-.44.02-.67,0-.15-.01-.3,0-.46.05-.97.04-1.96.04-2.92,0-2.12-.02-4.31.5-6.46.23-.94-.16-1.5-1.21-1.76ZM46.6,26.74c-.2.52-.56.53-.8.53-.04,0-.07,0-.11,0-.75.05-1.5.09-2.25.14-1.25.07-2.54.15-3.81.24-.41.03-.83.09-1.23.15-.59.09-1.2.18-1.8.17-1.26,0-2.53-.04-3.65-.08,0,.14,0,.27,0,.41,0,.71.01,1.43.02,2.14.02,1.99.04,4.05-.02,6.07-.07,2.57-.15,5.23.06,7.87.17,2.05.15,4.1.12,6.02-.01.52-.2,1.03-.38,1.53-.06.18-.13.36-.19.54-.04.14-.17.21-.27.27-.03.02-.06.04-.09.06l-.09.07-.11-.06c-.5-.27-.51-.71-.51-1.03,0-.05,0-.11,0-.16-.05-1.05-.09-2.09-.14-3.14-.07-1.73-.15-3.51-.24-5.27-.03-.57-.09-1.15-.15-1.72-.09-.81-.18-1.65-.17-2.48,0-2.07.06-4.17.11-6.21.03-1.38.07-2.81.09-4.21,0-.23,0-.48,0-.77-.63-.02-1.26-.04-1.89-.05-.41,0-.84.02-1.25.06-.33.03-.68.05-1.02.06-.99.02-2.08.01-3.33-.02-.77-.02-1.54-.04-2.31-.06-.72-.02-1.44-.04-2.16-.06-.18,0-.36,0-.55.02-.24.02-.49.04-.75.02h-.05c-.34-.03-.8-.06-1.06-.73l-.03-.07.02-.07c.25-.65.74-.76,1.13-.84l.07-.02c1.65-.47,3.23-.37,4.76-.26.21.01.42.03.62.04,1.26.07,2.55.04,3.8,0,.61-.02,1.24-.03,1.87-.04.52,0,1.04-.01,1.55-.02h.45c0-.12,0-.23,0-.34-.02-1.39-.01-2.86.02-4.62.02-1.07.04-2.13.06-3.2.02-1,.04-2,.06-3,0-.26-.01-.52-.02-.78-.02-.33-.04-.68-.02-1.02v-.06c.03-.47.06-1.05.71-1.41l.09-.05.09.05c.64.33.74.96.82,1.52l.02.1c.47,2.28.36,4.46.26,6.57-.01.29-.03.58-.04.87-.08,1.76-.04,3.55,0,5.29v.06c.71,0,1.31.01,1.89.04,1.85.07,3.76.15,5.65-.06,1.48-.17,2.96-.16,4.35-.12.4.01.77.2,1.13.39.13.07.26.13.38.19.12.05.17.17.22.28.01.03.03.07.04.09l.04.08-.03.08Z"/>
</svg>