<?xml version="1.0" encoding="UTF-8"?>
<svg id="Layer_1" data-name="Layer 1" xmlns="http://www.w3.org/2000/svg" viewBox="0 0 64 64">
  <path d="M27.9,48.04c-.28.25-.54.49-.84.67-.24.14-.63.2-.89.13-.17-.05-.32-.17-.26-.75.04-.42.07-.84.1-1.26.04-.55.08-1.11.14-1.67.07-.67-.19-1.14-.8-1.49-1.13-.63-2.27-1.29-3.37-1.92-.52-.3-1.04-.6-1.56-.89-.06-.04-.13-.06-.19-.09-.06-.03-.12-.05-.17-.08-.2-.12-.51-.38-.36-.7.1-.21.37-.43.6-.49.48-.12.99-.21,1.48-.29.36-.06.74-.13,1.1-.2.77-.16,1.54-.35,2.29-.53.32-.08.64-.15.95-.23.21-.05.5-.14.61-.39.12-.26-.01-.54-.12-.74-.13-.24-.27-.48-.41-.7-.2-.34-.41-.69-.58-1.05-.95-2.03-2.22-3.84-3.34-5.35-.2-.27-.4-.58-.59-.92-1.18-2.09-2.6-4.21-4.44-6.68-.88-1.17-1.69-2.42-2.48-3.62-.2-.3-.39-.6-.59-.9-.4-.61-.26-1.22.4-1.7,1.08-.79,2.21-1.54,3.17-2.17.58-.38,1.17-.75,1.75-1.11.92-.58,1.86-1.17,2.77-1.8.78-.54,1.52-.81,2.34-.86.52-.03,1.05-.08,1.56-.12.52-.05,1.05-.09,1.58-.12.9-.06,1.11.12,1.19,1.01.16,1.75.43,3.49.82,5.32.28,1.28.43,2.61.57,3.9.08.69.16,1.41.26,2.11.12.83.25,1.66.39,2.47.11.67.22,1.35.32,2.03.05.31.06.63.07.94,0,.15.01.31.02.46v.04c.03.48.06,1.02.7,1.44l.13.09.1-.12c.06-.07.12-.14.19-.21.15-.16.31-.33.42-.53.71-1.34,1.45-2.77,2.33-4.5.03-.06.06-.13.09-.19.19-.41.31-.64.68-.57.37.06.43.35.48.82,0,.05.01.1.02.15.29,2.15.62,4.65.98,7.12.19,1.31.41,1.42,1.65,1.47.91.04,1.86.1,2.82.19.37.03.63.16.72.37.1.21.02.51-.21.83-.49.67-.98,1.33-1.48,1.99-.37.5-.74.99-1.11,1.49-.09.12-.15.24-.22.37-.03.06-.07.12-.1.19l-.06.1.07.09c.43.6,1.02.93,1.6,1.24.11.06.22.12.33.18.64.36,1.3.69,1.94,1.01.29.14.58.29.86.43.04.02.08.04.12.05.05.02.14.06.15.08.03.05.07.1.1.16.14.21.28.43.27.61,0,.35-.39.47-.62.51-.15.03-.3.05-.45.07-.38.06-.78.12-1.16.23-.85.25-1.72.53-2.55.8-.44.14-.87.28-1.31.42-.12.04-.24.08-.35.12-.33.12-.65.23-.97.26-.77.09-1.22.48-1.45,1.29-.11.28-.22.56-.33.83-.32.81-.63,1.57-.9,2.36v.04c-.17.45-.27.71-.66.75-.4.04-.59-.22-.84-.62-.46-.76-.94-1.53-1.41-2.27-.21-.33-.42-.67-.63-1-.07-.11-.14-.22-.22-.36l-.24-.41-.16.12c-.28.22-.54.42-.79.62-.55.43-1.07.84-1.57,1.24-.16.13-.32.27-.47.41ZM45.04,36.99c.15-.07.3-.14.45-.21.34-.16.69-.33,1.05-.45,1.23-.41,2.47-1.05,3.92-2.01.64-.43,1.36-.86,2.27-1.35.77-.42.99-.83.85-1.63-.03-.19-.06-.38-.1-.57-.18-1.08-.36-2.19-.86-3.2-.16-.31-.25-.65-.33-.98-.05-.19-.1-.39-.17-.58-.08-.23-.15-.46-.21-.69-.2-.68-.4-1.39-.92-1.98-.25-.19-.5-.29-.75-.29-.23,0-.45.08-.68.24-.61.42-1.21.87-1.77,1.33-1.79,1.49-3.6,3.02-5.36,4.49l-1.35,1.14c-.14.12-.28.24-.39.37-.24.29-.34.58-.28.83.06.25.27.45.61.59.19.08.42.1.65.12h.09c.21.03.43.04.64.05.29.02.59.03.89.07.5.06.83.22.99.49.16.26.16.6,0,1.05-.15.44-.34.87-.52,1.28-.06.14-.12.28-.18.42-.19.43-.11,1.15.16,1.42.28.28.77.31,1.31.06ZM19.73,36.73h0c.35,0,.75-.14.8-.55.04-.28-.11-.62-.23-.93l-.04-.09c-.03-.06-.12-.13-.21-.19-.07-.05-.13-.1-.19-.16-1.04-1.01-2.08-2.03-3.12-3.05-.33-.33-.66-.66-.99-.99-.63-.64-1.29-1.3-1.96-1.92-.26-.24-.57-.34-.86-.28-.32.07-.59.32-.74.7-.28.66-.52,1.35-.78,2.07l-.13.35c-.08.44-.16.86-.24,1.29-.2,1.09-.4,2.12-.61,3.16-.1.49-.08.8.07.97.14.17.45.24.94.23.18,0,.37-.02.56-.04.32-.03.65-.06.98-.04,1.23.09,2.47-.09,3.66-.26,1-.14,2.05-.29,3.08-.29ZM40.37,11.26l-.07.31c-.5,2.06-1.02,4.19-1.53,6.28-.21.87-.4,1.76-.58,2.62v.05c-.1.43.02.75.35.96.35.22.71.21,1.04-.03.1-.08.21-.15.32-.23.38-.27.77-.55,1.05-.89,1.53-1.89,3.32-3.54,5.05-5.15.47-.44.58-.84.37-1.35-1.35-1.05-2.65-2.04-3.96-3.01-.17-.13-.39-.23-.68-.33-.19-.06-.36-.1-.51-.1s-.26.03-.37.09c-.22.12-.37.37-.47.77ZM21.3,51.66c.96-1.76,1.89-3.54,2.78-5.28.19-.38.19-.77,0-1.07-.19-.29-.52-.45-.91-.45-.03,0-.05,0-.08,0-.35.02-.72.17-1.07.34-.96.45-1.94.92-2.89,1.37-1.18.56-2.4,1.15-3.6,1.71-.62.29-.95.6-1,.93-.04.32.19.69.7,1.09.05.04.1.08.15.12l1.07.78c.79.58,1.58,1.15,2.36,1.73.48.35.89.46,1.37.34l.11-.14c.38-.5.75-.97,1.02-1.47ZM45.75,49.74l-.07-.05c-.45-.35-.91-.69-1.37-1.05-.62-.48-1.26-.96-1.91-1.46h0c-.08-.08-.16-.15-.23-.21-.15-.14-.29-.26-.43-.37-.59-.46-.88-.7-1.15-.72-.02,0-.03,0-.05,0-.26,0-.59.18-1.2.52-.9.5-1.03.9-.56,1.81.89,1.7,1.78,3.4,2.66,5.11.19.36.43.59.69.66.24.06.51,0,.8-.2.97-.65,2.02-1.41,3.18-2.31.21-.17.34-.37.36-.59.02-.25-.08-.51-.29-.76-.12-.14-.28-.26-.44-.38Z"/>
</svg>