<?xml version="1.0" encoding="UTF-8"?>
<svg id="Layer_1" data-name="Layer 1" xmlns="http://www.w3.org/2000/svg" viewBox="0 0 64 64">
  <path d="M50.98,27c.03-1.7.02-3.44.01-5.12v-1.06c0-.59-.29-.98-.87-1.19-.56-.21-1.12-.42-1.68-.64-.64-.25-1.3-.5-1.96-.74-.83-.31-1.12-.19-1.56.62-.71,1.34-1.42,2.32-2.25,3.1-.57.54-1.15,1.1-1.71,1.64-.39.37-.78.75-1.17,1.12-.43.41-.56.77-.47,1.25.08.38.13.77.17,1.14.07.53.14,1.08.28,1.59.29,1.02-.27,1.43-.88,1.76-1.1.6-2.21,1.22-3.28,1.82l-1.16.65c-.63.35-.73.61-.49,1.25.17.44.36.88.54,1.31.06.14.12.29.19.43.33.78.31.88-.32,1.46-.78.72-1.55,1.44-2.33,2.16-.86.79-1.71,1.59-2.57,2.38-.11.1-.21.2-.32.3-.38.36-.77.73-1.21,1.02-1.19.77-2.13,1.83-3.05,2.85-.12.14-.25.28-.37.41-.6.67-1.27,1.31-1.91,1.92l-.21.2c-.12.11-.27.17-.43.23-.07.03-.14.05-.22.09l-.23.11v-.25c-.02-.08-.03-.14-.03-.19-.01-.11-.03-.21.02-.31.53-.95,1.1-1.96,1.85-3.29.79-1.39,1.79-2.98,3.29-4.26,0,0,.02-.02.03-.04.01-.02.03-.04.06-.07h0c.58-.67,1.13-1.37,1.65-2.05.87-1.13,1.76-2.29,2.86-3.26.52-.46.57-.88.19-1.58-.21-.38-.45-.74-.68-1.1l-.1-.15c-.21-.32-.33-.56-.27-.8.06-.23.27-.38.56-.54,1.55-.84,3.3-1.78,5.01-2.68,1.26-.66,1.31-.8.7-2.11-.14-.3-.28-.59-.43-.88-.11-.21-.21-.43-.31-.64-.22-.47-.15-.87.22-1.19,1.38-1.19,2.67-2.3,3.92-3.39.06-.05.12-.1.18-.15.26-.22.53-.45.72-.72.7-.94,1.42-1.92,2.5-2.62.24-.16.39-.37.41-.61.03-.26-.09-.53-.32-.75-.16-.16-.48-.28-.74-.28,0,0,0,0-.01,0-.57,0-1.16.05-1.73.09-.38.03-.77.05-1.15.07-1.32.06-2.49-.95-2.59-2.27-.03-.34-.05-.69-.06-1.02-.02-.42-.05-.85-.09-1.27v-.06c-.03-.28-.06-.62-.21-.77-.58-.59-1.23-1.25-2.13-1.33-.46-.04-.93-.09-1.39-.14-2.1-.22-4.26-.45-6.41-.1-.72.12-1.16.33-1.36.66-.19.31-.18.75,0,1.34.02.06.04.11.06.17.03.07.05.14.07.21.31,1.01.17,1.38-.72,1.92-2.03,1.23-4.12,2.5-5.93,4.14-.35.32-.8.52-1.24.71h-.02c-1.26.56-2.5,1.08-3.68,1.55-.7.28-1.03.77-1.05,1.53-.02.83-.05,1.66-.07,2.5-.04,1.4-.07,2.85-.13,4.28-.03.88.3,1.68,1.07,2.58.24.28.51.41.8.39.31-.03.59-.24.81-.6.09-.16.19-.31.32-.51.07-.11.15-.23.24-.38l.17-.27.14.28c.13.27.24.51.34.75.21.48.39.9.65,1.24.28.37.65.68,1.05,1.01.19.16.38.32.58.5l.21.19-.26.1c-.83.33-.87.96-.83,1.69.05.98.17,2,.65,2.92.72,1.35,1.02,2.76.94,4.32-.04.83.02,1.68.08,2.5.01.16.02.31.03.47.09,1.27-.04,2.41-.38,3.5-.33,1.02-.54,2.1-.75,3.15-.05.24-.09.47-.14.71-.12.57.08.93.62,1.18.3.14.61.29.91.43,1.01.49,2.06,1,3.2,1.21.81.15,1.59.37,2.33.65.92.35,1.82.48,2.76.41.86-.07,1.72-.1,2.58-.1,1.06,0,2.11.04,3.15.08,1.33.05,2.7.1,4.05.07.74-.02,1.3-.16,1.82-.45,1.51-.85,3.07-1.67,4.58-2.47l.6-.32c.7-.37.81-.57.79-1.43-.03-1.15-.31-2.25-.88-3.37-.38-.74-.53-1.56-.47-2.5.09-1.49.11-2.82.07-4.07-.05-1.49.24-2.88.9-4.23.55-1.13.56-2.36.54-3.43-.01-.42-.16-.67-.47-.81-.12-.05-.21-.13-.31-.22-.05-.04-.1-.09-.16-.13l-.16-.13.16-.14c.17-.15.35-.29.52-.42.36-.29.71-.56.95-.9.26-.35.43-.76.63-1.24.1-.23.19-.47.31-.72l.13-.29.17.27c.09.14.16.26.22.36.11.19.2.32.29.44.17.22.4.35.62.35h.01c.18,0,.34-.09.45-.26.1-.14.2-.27.3-.41.52-.69,1.05-1.41,1.07-2.3Z"/>
</svg>