<?xml version="1.0" encoding="UTF-8"?>
<svg id="Layer_1" data-name="Layer 1" xmlns="http://www.w3.org/2000/svg" viewBox="0 0 64 64">
  <path d="M41.84,27.88h0c-.02-.28-.05-.55-.07-.81-.06-.74-.12-1.43-.22-2.12-.1-.66-.26-1.17-.47-1.56-.39-.7-.85-1.37-1.3-2.03-.14-.2-.27-.4-.4-.6-.12-.18-.26-.34-.41-.45-.89-.68-1.81-1.38-2.75-2.04-.26-.18-.59-.3-.91-.4-1.65-.51-3.4-.56-4.95-.6-.59-.02-1.16.13-1.73.46-.35.2-.72.39-1.07.58-.56.3-1.13.6-1.67.94l-.15.09c-.67.42-1.36.86-1.82,1.44-.62.79-1.14,1.68-1.65,2.55-.16.27-.31.54-.47.8-.18.3-.37.62-.86.72-.83.18-1.28.73-1.39,1.69-.04.34-.08.68-.13,1.02-.04.32-.09.65-.12.97-.02.18-.04.36-.07.54-.07.56-.15,1.15-.16,1.72,0,.34.06.8.27,1.05.65.77.63,1.62.61,2.43,0,.35-.03.7-.05,1.04-.06,1.05-.12,2.13.19,3.18.07.24-.02.54-.1.75-.22.53-.45,1.06-.68,1.57-.26.6-.53,1.22-.79,1.83-.22.52-.49.85-.9,1.08-.31.17-.62.36-.92.54-.4.24-.81.49-1.23.7-.73.38-1.2.96-1.44,1.76-.17.56-.34,1.11-.51,1.67-.22.71-.44,1.43-.65,2.15-.11.37-.11.62,0,.77.11.15.35.22.75.24.76.03,1.53.05,2.27.06h.58c.71.03,1.44.06,2.14.09,1.58.07,3.21.14,4.8.06.51-.02,1.03-.03,1.55-.03,1.12,0,2.25.05,3.34.09,2.04.09,4.15.18,6.23-.05.09,0,.18,0,.25,0,.05,0,.09,0,.14.01.34,0,.68,0,1.03,0,.94,0,1.92,0,2.88-.03.3,0,.49-.07.57-.19.08-.13.07-.34-.05-.65-.02-.05-.05-.1-.08-.16-.03-.06-.06-.11-.09-.17-.43-.99-.98-2.14-1.85-3.15-.13-.15-.22-.33-.3-.51-.1-.2-.19-.39-.33-.5l-.19-.14c-.95-.7-1.93-1.43-3.14-1.68-.48-.1-.81-.24-1.02-.45-.35-.35-.68-.42-1.22-.27-.71.2-1.47.4-2.25.48-.73.08-1.47.02-2.12-.04-.26-.02-.5-.12-.79-.23-.14-.05-.29-.11-.45-.17l-.35-.12.33-.18c.87-.49,1.61-.47,2.34-.44l.7.02c.53.02,1.07.03,1.6.06.71.03,1.31-.24,1.88-.86.7-.76,1.42-1.54,2.17-2.29.22-.22.6-.47.93-.45.75.03,1.4-.26,2-.56l.17-.09c.48-.24.97-.48,1.47-.7,1.43-.61,2.03-1.86,1.54-3.27-.24-.71-.06-1.22.16-1.74l.14-.33c.7-1.59,1.42-3.24,1.2-5.15ZM30.19,28.49c-.65.68-1.6,1.04-2.55,1.04-.67,0-1.34-.18-1.92-.54l-.03-.02-.02-.03c-.32-.53-.43-.94-.34-1.3.08-.31.3-.56.67-.78.59-.34,1.26-.54,1.92-.74l.23-.07c.32-.1.67-.08,1.01-.06h.08c.61.04,1.06.36,1.31.93.24.55.12,1.07-.35,1.56ZM37.11,32.61c-.21.49-.54.74-.98.77h-.02s-.02,0-.02,0c-1.52-.33-2.81-2-2.65-3.43.06-.56.32-.99.73-1.23.41-.23.91-.24,1.42-.02.55.24,1.07.88,1.39,1.71.32.83.37,1.65.12,2.2ZM21.2,16.49c-.99.33-2,.67-2.97,1.09-.41.18-.72.52-1.03.84-.13.14-.25.27-.37.38l-.06.06v.08c.09.67.46.96.85,1.17.24.13.48.23.71.33.6.25.9.48.95.72.05.24-.13.56-.56,1.01l-.3.31c-.38.39-.77.8-1.16,1.19-.37.37-.73.61-1.29.57h-.01s-.01,0-.01,0c-.79.06-1.36-.21-1.99-.63-1.27-.86-2.38-1.75-3.39-2.72-.74-.71-.76-1.22-.07-1.96.56-.6,1.13-1.2,1.69-1.77.48-.5.98-1.02,1.46-1.53.43-.46.93-.69,1.57-.73.83-.05,1.52-.12,2.2-.27,1-.22,2.01-.27,3.02-.27.6,0,1.19.02,1.77.04.22,0,.45.02.67.02.15,0,.31.01.46.03.35.03.58.24.63.58.06.32-.11.59-.45.72-.24.1-.49.16-.75.24-.2.05-.4.11-.6.18-.33.11-.65.22-.98.33ZM49.74,29.11c-.45.2-.98.32-1.49.34-.85.03-1.71,0-2.55-.01-.22,0-.45-.01-.67-.02-.74-.02-.89-.15-1.02-.91-.13-.76.02-1.06.64-1.34h.03c.74-.34,1.5-.68,2.2-1.1,1.15-.69,1.13-.96.47-2.18l-.02-.03c-.16-.19-.31-.36-.46-.54-.28-.33-.55-.64-.81-.96-.17-.22-.25-.38-.23-.51.02-.13.14-.26.37-.42l.12-.08c.67-.45,1.04-.7,1.29-.74.02,0,.05,0,.07,0,.18,0,.36.12.76.4.15.11.33.23.54.37.69.46,1.31.6,2,.45.75-.16,1.12.03,1.43.71.4.9.93,2.09,1.4,3.32.34.89.24,1.12-.68,1.57-.43.21-.86.43-1.27.64-.69.35-1.41.72-2.13,1.04ZM31.3,12.52c.13-.31.34-.45.68-.45.02,0,.04,0,.06,0,.48.02.95.04,1.43.06.92.04,1.86.08,2.84.13,3.08.22,5.7.85,8.02,1.93.31.15.65.23.98.31.2.05.4.1.59.16.35.12.58.31.63.53.04.21-.08.45-.34.68-.88.76-1.8,1.47-2.67,2.12-.39.29-.97.27-1.4-.05-.1-.07-.19-.16-.29-.25-.17-.16-.34-.32-.56-.42-.79-.36-1.58-.77-2.34-1.17-2.04-1.06-4.14-2.15-6.55-2.45-.25-.03-.56-.17-.84-.39-.15-.12-.39-.37-.24-.73Z"/>
</svg>