<?xml version="1.0" encoding="UTF-8"?>
<svg id="Layer_1" data-name="Layer 1" xmlns="http://www.w3.org/2000/svg" viewBox="0 0 64 64">
  <path d="M51.86,37.75c0,.24-.02.46-.01.67.06,3.39-.36,5.83-1.37,7.91-.72,1.49-2.71,3.25-4.52,3.51l-.25.04-.04.25c-.21,1.17-1,2.03-2.18,2.35l-2.16.59-2.91.47s-.11.01-.17.01c-.41,0-.99-.16-1.27-.33l-.53-1.63c.41-1.57.3-3.1.19-4.59-.03-.47-.07-.95-.09-1.42l-.1-2.61h0s0-.03,0-.03l-.17-1.45c-.02-.18.14-.62.25-.71.14-.11.28-.16.49-.16.11,0,.23.01.35.02.15.01.33.03.52.03.38,0,.72-.06,1.07-.2.39-.15.76-.22,1.14-.22.34,0,.65.06.94.11.28.05.54.1.82.1.22,0,.42-.03.62-.1.79-.27,1.69-.56,2.27-.56.15,0,.36.02.45.12.07.07.1.21.09.39-.04.87.12,1.59.29,2.35l.05.23.22,1.62.11.79.51-.61c1.66-1.98,2.26-6.41,1.52-8.39l-1.7-4.59c-.36-.97-.34-2.04-.31-3.16.01-.64.03-1.29-.03-1.94l-.16-1.65c-.08-.89-.59-1.6-1.32-1.86l-.53-.19.07.56c.07.63,0,1.25-.07,1.86-.06.48-.12.99-.1,1.49l.2,6.13v.04s.01.04.01.04l.71,2.45c.22.77.35,1.71.32,2.36-.04.08-.19.22-.28.27l-.78-.35-.11-.05-.11.02-5.99,1.29c-.15.03-.31.06-.47.09-.49.09-.99.19-1.4.36l-.12.05-.06.12c-.64,1.3-.78,2.5-.89,3.94l-.23,2.89-.3,4.22c-.08,1.1.82,2.01,1.48,2.67-.01.13-.1.33-.16.39-.24.06-.67.11-1.02.12-.5,0-1.01.04-1.51.06-.57.03-1.15.07-1.72.07-.93,0-1.67-.09-2.33-.29-1.08-.32-1.94-.55-3.02-.61l-4.21-.22h-.2c-1.09-.07-2.03-.11-2.99-.59-1.26-.62-2.49-1.02-3.67-1.18-1.64-.23-2.71-1.39-2.75-2.96-.01-.57,0-1.16,0-1.74.02-.97.04-1.98-.05-2.93-.15-1.61.14-2.69.7-4,.35-.83.66-1.87.92-2.78.06-.21.08-.51.1-.86.04-.67.12-1.78.55-1.78.01,0,.03,0,.04,0,.1.03.34.29.48.43l.04.04c.22.23.56.42.9.6.12.07.24.13.34.19.93.56,1.61.67,2.07.74.25.04.4.06.43.11.03.09-.03.43-.08.68-.12.66-.29,1.57.03,2.5.19.55.25.85.09,1.32l-.82,2.4c-.16.47-.58,2.03.57,2.62,1.38.7,2.31.79,3.04.79.33,0,.65-.02.98-.05.34-.02.68-.05,1.06-.05.08,0,.15,0,.23,0,.07,0,.17.02.27.03.16.03.35.05.53.05.74,0,.88-.51.91-.73.11-.91.21-1.68.47-2.49.12-.39.17-.88.16-1.46v-.07s-.03-.06-.03-.06c-.2-.46-.08-.92.4-1.52l.06-.08v-.1s.38-2.67.38-2.67c.2,0,.39.01.58.02.36.02.7.03,1.04.03.64,0,1.48-.05,2.33-.41.36-.16.75-.41,1.12-.66.26-.17.51-.34.73-.46l.18-.1,1.8-.54.13-.04.07-.11c.32-.52.54-1.4.71-2.19l.94-4.31.93-2.15v-.02s.02-.03.02-.03c1.02-3.88,1.82-5.7,5.17-6.91.45-.16.85-.24,1.22-.24.63,0,1.15.23,1.81.53.22.1.45.2.7.3.92.37,1.35.58,1.81,1.47.63,1.22,1.14,2.34,1.13,3.74-.02,1.77,0,3.66.27,5.61v.03s.02.03.02.03l.58,1.64c.21.59.45,1.14.69,1.67.33.73.63,1.43.85,2.21.09.33.07.85.05,1.31ZM13.07,31.03c.23-1.37.43-2.56.76-3.83.07-.27.17-.53.27-.81.23-.64.47-1.3.4-2.05-.01-.12-.02-.23-.04-.35-.13-1.25-.26-2.54.17-3.64.49-1.25,1.06-2.56,2.08-3.56.68-.67,1.92-1.46,2.71-1.56l3.16-.41,2.88.07h.25s.09-.22.09-.22v-.03c.57-1.42,1.33-3.37,2.48-3.74l2.41-.76c.29-.09.59-.14.9-.14.99,0,1.97.44,2.93.86.13.06.26.12.39.17.66.29.92.5,1.2,1.01l.82,1.47c.35.62.48,1.19.62,2.09l.04.24.24.05,1.67.36,2.84.83c.11.03.27.16.36.32.01.02.02.04.03.06-.64.25-1.2.34-1.7.43-.84.14-1.57.26-2.24,1.03l-1.73,1.99-.05.06-.02.08-1.21,4.67c-.34,1.3-.72,2.4-1.21,3.49-.72,1.59-.98,3.15-1.16,4.99-.02.17-.43.59-.8.81l-.16.1c-.38.09-.77.14-1.26.14-.28,0-.57-.01-.88-.03-.34-.02-.68-.03-1.06-.03-.68,0-1.3.06-1.94.18,0,0-.03,0-.09,0-.1,0-.2-.01-.27-.03-.03-.08-.06-.24-.04-.31.19-.51.17-.95-.05-1.31-.51-.81-1.92-.93-3.56-1.08-.71-.06-1.45-.13-2.11-.26-.14-.03-.29-.04-.45-.04-.21,0-.6.02-.9.19-.54.3-.66.99-.74,1.45,0,.06-.02.12-.03.18l-.39-.08-2.12-.69-.12-.04c-.71-.23-1.32-.43-2.14-.43-.07,0-.15,0-.22,0-.38-.53-.8-1.22-1.02-1.75l.02-.14ZM28.47,14.85l.47.08c1.76.3,3.37.51,5.36.7l.44.04-.05-.44c-.22-1.76-1.64-2.94-3.52-2.94h-.05s-.07,0-.07,0l-.06.03-1.43.59-.12.05-.06.12-.69,1.35-.22.43ZM25.26,35.53c.03-.23-.03-.77-.23-.8l-.76-.1-3.28-.41c-.64.96-.61,2.03-.6,3.13v1.27s2.8.37,2.8.37l1.53.09.53-3.56ZM24.53,41.19c.03-.19-.17-.53-.34-.55l-3.67-.41c-.15,1.95-1.34,3.61-.86,3.91.58.36,2.85.41,4.28.32l.59-3.27Z"/>
</svg>