<?xml version="1.0" encoding="UTF-8"?>
<svg id="Layer_1" data-name="Layer 1" xmlns="http://www.w3.org/2000/svg" viewBox="0 0 64 64">
  <path d="M48.29,16.05l-2.63-1.58c-1.17-.7-2.38-1.18-3.66-1.68l-.36-.14c-.17-.07-.49-.14-.76-.14-.22,0-.31.05-.33.07,0,0-.01.04,0,.09.21,1.59.07,2.87-.47,4.41l-1.18,3.39-.04.11-.09.07-2.05,1.55c-.73.55-1.67.91-2.42,1.21-.52.2-1.02.39-1.21.56-.05.12-.06.5-.06.66,0,.13,0,.23-.01.32-.26,2.41-.25,4.5.04,6.77.01.08.01.19.01.3,0,.12,0,.34.03.45l.77.39h0s0,0,0,0l3.14,1.73c1.36-.25,2.47-.36,3.58-.36h.05s1.59,0,1.59,0h1.72s-1.57.71-1.57.71l-.33.15c-.92.42-1.88.85-2.89,1.1l-2.31.58-.11.03-.11-.04c-1.16-.42-2.35-.89-3.26-1.5l-1.4-.94c-1.49.91-2.89,1.65-4.64,2.45l-.12.06-.13-.04-3.55-.98h-.02s-.02-.02-.02-.02l-2.12-.92-1.89-.82,2.06.11,2.5.13h0s0,0,0,0l2.85.23,3.76-2.11.07-1.64c.09-2.11.06-4.08-.09-5.87-.01-.15.01-.33.04-.53.02-.14.05-.37.04-.49-.19-.09-.39-.17-.58-.26-1.06-.46-2.07-.89-2.67-2.18l-.36-.77.81.26,3.34,1.09c.3.1.49.15.66.15s.34-.05.68-.18c.23-.09.48-.19.74-.29,1.31-.5,2.94-1.12,3.57-2.13l1-1.6s.03-.05.04-.08c-.08.01-.15.03-.19.05-1.63.82-3.58,1.27-5.48,1.27-.36,0-.72-.02-1.08-.05-1.95-.02-3.55-.41-5-1.22-.02,0-.03,0-.05,0-.02,0-.05,0-.07,0,.04.11.12.25.18.38.21.42.49.99.63,1.7l.06.32-.31.1-1.02.32-.4.13-.08-.41c-.13-.69-.32-1.09-.66-1.37-.77-.63-.86-1.35-.96-2.18v-.08c-.05-.33-.11-.65-.18-1-.15-.78-.3-1.59-.19-2.41.09-.67.03-.84,0-.88-.04-.08-.18-.09-.29-.09-.9,0-2.74,1-3.63,1.47l-3.58,1.93c-.21.84-.78,1.28-1.69,1.28-.05,0-.11,0-.16,0-.25.24-.53.47-.83.71-.65.53-1.32,1.08-1.63,1.72-.36.74-.78,2.13-1.06,3.53-.33,1.62-.32,2.49-.24,2.68.12.08.54.17.75.21l.13.03c.7.14,1.28.42,1.89.72.89.44,1.82.89,3.22.89.02,0,.05,0,.07,0,.76-1.09,1.38-1.87,2.17-2.77l-1.75-5.51-.29-.92.83.49c.62.37.94.88,1.21,1.34.12.21.24.4.38.58.49.61.68,1.13.93,1.78l.06.16.83,2.2.06.16-.08.15c-.86,1.61-1.69,2.81-2.54,3.66-.06.06-.15.13-.24.2-.1.07-.28.22-.35.31l1.14,4.72,1.52,1.14.1.08.03.12.41,1.58c.11.41.32.81.54,1.24.3.58.61,1.17.68,1.84l.19,1.93.03.31-.3.08-.83.22c-.06.11-.12.44-.17.7-.13.67-.33,1.67-.89,2.79-.08.16-.09.33-.02.47.07.14.2.25.38.29.78.2,1.36.59,1.92.97.29.2.59.4.92.59l1.98,1.09s.19.05.37.05c.09,0,.15,0,.18-.02l.53-.8.18-.27.29.15,1.3.65.24.12-.04.27c-.12.81,0,.96,0,.97.09.09.47.23.81.26.5.05,1,.14,1.47.23.64.12,1.24.23,1.86.24.05,0,.09,0,.14,0,.59,0,1.21-.09,1.82-.18.43-.06.88-.13,1.32-.16.34-.02.6-.14.76-.35.17-.22.23-.54.16-.93l-.03-.19.14-.14c.24-.24,1.02-.63,1.42-.63.06,0,.11,0,.16.02l.12.03.08.09.66.8s.03,0,.05,0c.21,0,.5-.08.61-.14l1.94-1.03,2.58-1.5s.09-.05.14-.08c.19-.11.63-.36.68-.49.05-.16-.08-.48-.18-.74-.04-.11-.09-.23-.13-.34l-.59-1.86c-.05-.15-.08-.3-.11-.45-.04-.18-.1-.47-.16-.53-.09-.06-.52-.12-.83-.12-.02,0-.05,0-.06,0l-.47.04.07-.47.31-1.99h0s0-.03,0-.03l.52-2.22v-.03s.02-.03.02-.03l.95-2.36.04-.09.07-.06,1.22-.99.57-2.2.56-2.75c-.62-.5-1.13-1.13-1.64-1.99l-.97-1.65-.11-.19.11-.19c.37-.64.51-1.33.66-2.07.14-.66.28-1.35.6-2l1.15-2.35.02-.04.03-.04,1.5-1.76.52-.66c-.03-.13-.16-.38-.24-.45ZM42.43,43.1l.29.33-.37.23-3.04,1.85c-.23.14-.48.21-.72.27-.52.14-.74.22-.78.67l-.05.64c-.04.43-.67.61-.93.61-.27,0-.4-.14-.45-.23l-.32-.54-2.57.52c-.09.02-.18.04-.27.06-.36.08-.78.17-1.18.17-.25,0-.46-.03-.66-.1-.96-.32-1.98-.61-2.92-.61-.07,0-.14,0-.2,0-.2.32-.43.67-.78.67-.03,0-.07,0-.1-.01-.75-.15-.78-.77-.8-1.13-.02-.42-.04-.59-.43-.71-1.41-.44-2.71-1.14-4.07-2.2l-.3-.23.24-.29.73-.89.2-.24.27.15,1.39.78c.28.16.62.29.97.43.56.22,1.14.44,1.6.83.18.15.29.38.41.63.12.24.27.56.42.6.57-.11,1.05-.16,1.52-.16.6,0,1.15.08,1.69.26.29.09.56.14.84.14.37,0,.71-.08,1.11-.17.47-.11,1.01-.24,1.71-.24.42,0,.84.05,1.3.14.04,0,.07.01.1.01.24,0,.42-.25.68-.66.22-.35.47-.74.88-.93l3.45-1.58.25-.12.18.21.75.86ZM53.28,26.11c-.67.08-1.26.36-1.89.66-.88.42-1.87.89-3.36.96l-2.25-2.78c.35-1.04.84-2.05,1.38-2.87l1.42-2.17c.39-.6.64-1.16.85-1.62.15-.32.33-.72.43-.8.02,0,.05.02.1.06.2.14.41.28.62.43.8.54,1.62,1.1,2.05,1.84.45.77.83,1.86.96,2.73l.4,2.77c.03.19-.01.35-.11.48-.13.17-.34.28-.6.31Z"/>
</svg>