<?xml version="1.0" encoding="UTF-8"?>
<svg id="Layer_1" data-name="Layer 1" xmlns="http://www.w3.org/2000/svg" viewBox="0 0 64 64">
  <path d="M16.06,40.39c-.88,0-1.58.06-2.08.11-.31.03-.56.05-.74.05-.17,0-.23-.02-.25-.03,0-.02-.03-.09-.03-.26l-.08-5.25c-.03-1.87-.08-3.74-.13-5.54-.04-1.45-.08-2.95-.11-4.45l-.13-6.3-.06-3.52c0-.22.08-.57.15-.7.5-.13,2.9-.45,4.41-.45.29,0,.53.01.7.04l5.07.7,2.57,1.37c1.1.59,1.9,1.15,2.91,1.87l1.98,1.43c.63.46.75.87.5,1.78-.31,1.13-.23,2.3-.16,3.44.03.41.05.84.06,1.24l.13,7.66.18,6.89-.21,5.99c-.09.03-.19.05-.3.05-.78,0-1.82-.92-2.82-1.8-.86-.76-1.76-1.55-2.66-1.95l-2.86-1.25c-1.59-.96-3.36-1.03-5.07-1.1h-.2c-.25-.02-.5-.02-.74-.02ZM51.23,33.46l-.23,4.4h0s0,.02,0,.02l-.03,2.72c-.04.09-.07.09-.16.09-.16,0-.38-.07-.58-.13-.23-.07-.44-.13-.64-.13h-.01s0,0,0,0l-4.31.08c-1.45.03-2.39.34-3.62.9l-5.73,2.65c-.96.44-1.68,1.09-2.2,1.56-.12.11-.25.23-.37.32,0-.03,0-.05,0-.09l-.23-4.33-.09-5.41.3-9.33.13-2.89c.06-1.32-.14-2.13-.28-2.72-.2-.83-.23-.96.79-1.69l4.07-2.87c.67-.47,1.36-.71,2.19-.92.72-.18,1.42-.48,2.1-.77.96-.41,1.96-.84,2.97-.9.15,0,.31-.01.46-.01.79,0,1.58.12,2.41.24.82.12,1.66.25,2.52.25.44,0,.9.15,1.04.34.12.16.09.48.06.85-.01.13-.02.27-.03.41l-.1,2.14c-.03.72-.13,1.44-.21,2.14-.17,1.3-.34,2.64-.13,4.07.35,2.38.19,4.67.03,7.1-.04.63-.09,1.28-.12,1.93ZM48.93,29.39l-.82-.39-3.74-1.78-1.7-4.82-.41-1.16-.41,1.16-1.72,4.86-3.68,1.82-.81.4.83.38,3.72,1.72,1.66,4.95.4,1.21.42-1.2,1.74-4.97,3.72-1.78.82-.39ZM53.49,25.89c-.11,1.87-.23,3.6-.09,5.47.18,2.5.14,5.02,0,7.51l-.26,4.79-2.45-.44-3.93-.9-6.69,2.15c-2.29.74-4.4,2.19-6.26,3.64-.62.49-.99,1.07-1.72,1.05-.61-.02-1.26-.31-1.68-.8-.56-.67-1.2-.84-1.93-1.2l-4.95-2.4-3.4-1.4c-1.82-.75-3.83-1.14-5.79-.55-1.22.37-2.37.75-3.78.81l-.11-16.41-.25-6.53c-.7.04-1.82.74-1.87,1.52l-.59,10.88-.6,14.5c-.02.41-.09,1.01.11,1.24s.88.32,1.26.35l7.4.67,7.17.36,5.3.31c.29.48.98,1.42,1.45,1.45l4.32.04,1.59-1.52,7.82-.38,8.64-.5,3.96-.43c.33-.03.74-.54.72-.89l-.37-8.04-.22-6.52-.68-10.22c.36-1.35-.41-2.61-1.83-2.75l-.3,5.15ZM38.38,47.72c1.63-1.1,3.3-1.16,5.13-1.46.63-.1,1.27-.07,1.32.98l-6.45.49Z"/>
</svg>