<?xml version="1.0" encoding="UTF-8"?>
<svg id="Layer_1" data-name="Layer 1" xmlns="http://www.w3.org/2000/svg" viewBox="0 0 64 64">
  <path d="M39.5,39.17c-.47-.59.97-2.63-.25-4.29-.41-.55-.4-.92-.41-1.59-.11-1.22-1.48-1.83-2.38-2.63.12-1.16,1.73-.2,3.46-.71l1.1-.94c1.39.6,1.58-.78,2.17-.82.22-.01.75.18.92.36l2.65,2.92c.6.67,1.39,1.62,1.63,2.44l.92,3.05.67,2.5.74,4.52c.1.61-.1,1.19-.46,1.7l-3.12,4.37c-.46.64-1.13.89-1.83,1.18l-3.45,1.41c-1.47.6-2.81.72-4.4.89l-4.48.48-4.1-.09c-1.21-.03-2.11-.46-3.25-.73l-5.57-1.35c-.88-.21-1.55-.36-2.12-1.09-1.59-2.03-4.24-3.06-4.51-4.79s-.2-3.5-.14-5.25c.03-1.12.91-2.13,1.08-3.21l.41-2.59,3.83-5.14c.42-.57.66-1.13,1.31-1.52,1.51-.89,1.6,1.21,3.52,1.18l1.41.61c.89-.27,1.34-.09,2.11.32,2.06,1.1,4.3-1.32,4.84,1.05-.82.72-.92,1.45-1.16,2.35-.21.79-.95,1.62-.41,2.52.7,1.15-.3,1.56-.06,1.93l.58.89c-.7,2.7.78,2.8.88,3.66.03.28-.42.61-.66.84-.8.76-.72,2.01-.14,2.92.52.81,1.74,1.08,2.58.47l.78-1.39c.53-.94-.56-1.8-1.01-2.42.2-1.12.31-2.17-.04-3.29l-.97-3.16-.27-.74c-.07-.19.39-.44.61-.58l.17-1.3c.71-.53.89-1.26.95-2.24l1.63-.18c.33.79.78,1.83,1.2,2.36l.93.37c.76.31-1.15,2.85.34,4.8l.68.89c-.59.93-.54,1.98.07,2.73s1.7,1.06,2.68.47l.65-1.39c-.21-1.98-1.86-2.14-2.33-2.73ZM19.72,18.64c-.07,0-.11,0-.14.01-.43.08-1.27.73-1.32,1.03l-.39,2.25,1.93,2.51c.25.33.43.69.61,1.04.21.42.4.81.7,1.14.36-.13.72-.2,1.08-.2,1.14,0,2.07.67,2.9,1.43.49-.1,1.06-.18,1.62-.18.65,0,1.23.11,1.76.35l1.43.19.94.1c.04-.07.09-.17.13-.24.09-.18.17-.35.3-.47.71-.69,1.7-1.09,2.72-1.09.91,0,1.77.32,2.4.91.1.09.19.22.28.35.05.07.14.19.2.25l.97-.21c1.02-.22,1.58-.36,2.35-.9l.05-.03.06-.02c.23-.07.55-.11.97-.11.58,0,1.22.07,1.43.09.05,0,.1,0,.14,0,.28,0,.34-.08.52-.5.03-.08.07-.16.11-.25.36-.78.95-1.44,1.51-2.08.12-.14.24-.28.36-.41l.96-1.13-.17-2.58c-.03-.1-.2-.31-.29-.37l-.85.05-2.6.19-.25.02-.11-.22c-.85-1.67-2.44-2.7-4.15-2.7-.66,0-1.31.15-1.94.45-1.67.79-2.65,2.34-2.55,3.99.27.02.55.06.82.09.52.06,1.06.13,1.57.13.44,0,.82-.05,1.14-.15,1.08-.34,2.37-.68,3.72-.68.73,0,1.42.1,2.1.3l.98.29-.94.41-2.45,1.07h-.03s-.03.02-.03.02l-3.09.83c-.21.06-.43.09-.68.09-.62,0-1.25-.19-1.87-.38-.59-.18-1.15-.35-1.68-.35-.04,0-.08,0-.11,0-1.62.08-3.08.39-4.63.73-.27.06-.54.12-.82.17h-.07s-.07,0-.07,0c-.41-.07-.87-.27-1.31-.48-.29-.13-.57-.25-.81-.33l-2.05-.67c-.71-.23-1.47-.8-2.08-1.26l-.18-.14-.23-.17.1-.27c.11-.29.46-1.18.23-1.51-.11-.15-.73-.4-1.21-.4ZM24.25,15.63c-.79.61-1.33,1.69-1.45,2.89-.08.82.05,1.57.34,1.92.1.05.42.06.59.06.11,0,.23,0,.34.02.67.06,1.24.29,1.84.53.75.3,1.53.61,2.6.61.5,0,1.01-.07,1.57-.2.12-.03.26-.05.42-.07.19-.03.59-.08.69-.15.16-.29.29-.72.4-1.1.02-.07.04-.13.06-.2.28-.94.29-1.57.04-2.39-.43-1.38-1.32-2.26-2.81-2.78-.5-.18-1.01-.26-1.53-.26v-.19h0v.19c-1.08,0-2.16.39-3.11,1.13ZM34.48,10v.19c-.69,0-1.67.17-2.49.95-.96.92-1.48,1.79-1.57,2.63,1.05.52,1.76,1.15,2.18,1.92l.76,1.42c1.21-1.26,2.49-1.88,3.9-1.88.44,0,.81.06,1.11.11.16.03.3.05.4.05.18-.5.29-1.17.16-1.54l-.59-1.65c-.71-1.19-2.29-2.02-3.85-2.02h0v-.19h0Z"/>
</svg>