<?xml version="1.0" encoding="UTF-8"?>
<svg id="Layer_1" data-name="Layer 1" xmlns="http://www.w3.org/2000/svg" viewBox="0 0 64 64">
  <path d="M38.45,55.66c-.24,2.98-3.99.19-7.6-.56-1.16-.24-2.16-.8-3.24-1.25l-3.86-1.6c-1.51-.63-2.46-2.2-3.88-3.05l-5.26-3.14c-.72-.43.02-1.47.22-1.92l1.82-4.02.76-2.46c.2-.64.3-1.04.17-1.74-.25-1.39-.13-2.96-.86-4.21-.67-1.14-1.16-2.3-1.54-3.53-.45-1.45.11-2.36,1.36-3.08l1.87-1.08,2.85-2.01,2.39-1.95c.98-.8,1.99-1.88,3.11-2.46l3.36-1.73c.74-.38,2.11-.36,3-.55.68-.15,1.45.23,2-.51-1.77-.14-3.9-.83-5.56-.1l-4.73,2.09c-2.06.91-4.36,3.57-5.93,5.47-.14.17-.49.42-.68.43-.68.01-.19-1.53-.3-3.85-.13-2.78-.69-2.77,1.04-4.05l5.28-3.9c1.69-.54,3.15-1.32,4.63-2.32,1.54-.77,3.25-1.44,4.95-1.59.94-.08,1.35,1.03,1.71,1.6l2.24,3.55,1.01,1.85.7,1.56c.11.25.82.45,1.04.62,1.4,1.07,2.82,2.21,3.8,3.68,1.18,1.77,1.56,3.85,2.32,5.8l1.21,2.38c.14.28-.16,1-.4,1.21l-3.34,2.85c-.12.1-.63.23-.75.12-.32-.3-.09-2-1.68-4.98l-.8-1.51-.21,1.97-.11,3.85c-.01.41.1,1.45-.5,1.41-2.09-.12-4.07-.55-6.13-.79-1.72-.2-3.17-.66-4.8-1.18-1.17-.37-2.43-.45-3.7-.72-.31-.06-1,.23-1.16.48-.5.77,1.11,2.98,1.11,5.28l3.92,1.87c.91.43,1.67.68,2.72.69,2.13.04,4.04.88,5.98,1.68l2.68.29c.2.02.6.2.75.33s.18.61.14.82l-.52,2.52-.5,2.89-1.26,5.3c-.25,1.07-.73,2.1-.82,3.21ZM30.53,47.82l.93-3.29c.07-.24.11-.67.1-.89-.01-.18-.52-.48-.7-.4-.64.28-.8,1.36-1.02,2.03l-.67,2.12c-.08.26.28.86.53.93s.77-.25.84-.5ZM35.09,49.75l.49-1.75.65-2.29c.1-.37-.22-1.07-.56-1.05-.82.05-.78.77-.94,1.29l-1.06,3.5c-.14.47.24,1.06.68,1,.36-.04.64-.34.75-.71ZM43.76,42.05c.28-1.17.25-1.56,1.26-2.15,1.08-.63,2.04-1.92,2.77-3.02l-1.4-1.6c-.16.52-.47,1.12-.84,1.44l-2.61,2.2-6.98-1.36-8.87-2.57-.79-2.73,3.81,1.06c3.98,1.11,8.05,1.55,12.17,2.12l1.32-1.04c.59-.47,1.47-1.02,1.73-1.76.31-.88.83-1.93,1.93-1.63.31.65.17,1.77-.11,2.53l1.97,1.76c.68.61.66,1.22.4,2.05l-.78,2.55-.57,2.28-.29,1.64-1.05,7.15-2.45,2.82-2.7,2.55c-.17.16-.73.27-.9.13s-.13-.65-.06-.94l1.53-7.09,1.52-6.39ZM44.44,48.94c1.01-1.53,1.23-3.28,1.2-5.22-.46.86-.7,1.8-.84,2.74l-.36,2.48Z"/>
</svg>