<?xml version="1.0" encoding="UTF-8"?>
<svg id="Layer_1" data-name="Layer 1" xmlns="http://www.w3.org/2000/svg" viewBox="0 0 64 64">
  <path d="M48.7,27.5c-.55-1.38-1.88-3.07-2.65-3.07-.09,0-.18.02-.26.06-.39.2-.59.73-.42,1.16.55,1.43,1.15,2.6,2.24,3.61l-.59,2.78-.74,3.61c-.09.46-.45.94-.91,1.23l-.7.44c-.16-.09-.33-.15-.51-.18h-.11s-.1.04-.1.04l-2.76,1.51h0s0,0,0,0l-1.31.81-1.8-1.27h-.01s-.01-.01-.01-.01l-2.83-1.69-.16-.1-.17.08-2.57,1.27c-.88.43-1.47.88-1.9,1.21-.48.37-.73.55-1.01.55-.16,0-.35-.06-.58-.18-1.81-.95-3.62-1.86-5.7-2.46-.11-.03-.23-.05-.37-.05-.46,0-1.03.17-1.53.32-.13.04-.25.07-.36.1l-.68.19.56.43c.68.53,1.48.81,2.26,1.09.5.18.97.35,1.41.58l2.87,1.49h0s0,0,0,0l2.15.96.18.08.16-.11,1.89-1.26,2.17-1.28,1.27-.64,2.04,1.35,1.74,1.21s.08.06.14.1c.29.23.53.4.78.4.08,0,.15-.02.22-.05l.81-.39c.59-.29,1.07-.66,1.52-1.02.22-.17.44-.35.68-.51l2.24-1.56.34-.24-.29-.29c-.1-.1-.29-.28-.54-.43l.7.13c.4.07.77.28.86.47.34.73.22,1.3-.4,1.97l-1.07,1.14-.71.76,1.03-.18,1.29-.23,1.61,3.22c.08.16.09.3.03.44-.08.22-.32.42-.61.53-.48.18-.8.54-1.12.89-.21.23-.41.45-.64.6l-2.95,1.91c-.08.05-.16.08-.24.08-.36,0-.82-.46-1.18-.83-.4-.41-.72-.73-1.09-.73-.03,0-.06,0-.09,0-.65.1-.79.79-.93,1.45-.13.61-.27,1.25-.74,1.45-.87.36-1.93.54-3.22.54-1.47,0-3.01-.22-4.5-.44l-.49-.07c-.2-.03-.27-.25-.35-.71-.01-.08-.03-.16-.04-.23l-.33-1.44-.05-.22-.22-.05-1.27-.27-.22-.05-.13.19c-.38.53-.89,1.18-1.57,1.66-1.51-.31-2.8-.63-4.13-1.16-.38-.15-.79-.5-1.19-.83-.19-.16-.37-.3-.54-.44-.7-.52-1.33-.75-1.84-.93-.59-.21-.85-.32-.93-.64-.02-.12.13-.52.28-.68.35-.39.54-.74.75-1.12.06-.11.12-.23.19-.35l.96-1.68s.07-.05.25-.05c.19,0,.41.05.53.09l1.39.46,1.29.43-.92-1-1.2-1.29-.1-.1h-.14c-.62-.05-.89-.25-1.13-.84-.36-.89-.18-1.54.55-2.05l.43-.3-.44-.28c-.53-.34-.8-.77-.9-1.43-.06-.42-.24-.75-.4-1.08-.1-.2-.2-.38-.27-.59l-.84-2.4c-.05-.15.07-.61.21-.73,0,0,.05-.03.22-.03s.39.03.59.06h.06s.07.02.07.02l.07-.02,1.46-.41.12-.03.07-.1,1.78-2.44c.56-.77.78-1.76.66-2.97-.02-.19.02-.27.83-.38.79-.11,1.99-.28,2.4-1.6l.15-.47-.5.02c-.66.03-1.24.24-1.75.43-.41.15-.77.29-1.08.29-.07,0-.14,0-.2-.02-.15-.04-.5-.4-.55-.63-.37-1.61-1.13-3.02-2.48-4.58-.06-.07-.12-.14-.18-.21-.36-.42-.72-.86-1.34-1.11-.36-.14-.45-.35-.42-.89.06-.9.44-1.41,1.22-1.64,1.01-.31,2.26-.69,3.33-.69.05,0,.1,0,.15,0,1.78.99,2.6,2.81,3.23,4.43l.73,1.9c.24.63.4,1.11.51,1.71l.03.16.14.08c.22.13.47.29.73.45.65.42,1.39.89,2.06,1.09l3.4,1.03c.35.11.64.16.91.16.41,0,.78-.11,1.26-.37.36-.2.78-.35,1.23-.5.73-.26,1.48-.53,2.04-1.03l1.48-1.33.1-.09v-.13s.4-3.47.4-3.47c0-.05.02-.13.03-.22.09-.51.2-1.22-.32-1.38h-.04s-.04-.01-.04-.01c-.48-.04-.7-.1-.79-.14.05-.44.29-1.09.54-1.43.48-.64,1.18-.96,2.14-.96.65,0,1.41.14,2.39.43h.03s.03.01.03.01c.4.04.73.21.95.47.2.25.28.56.24.92l-.02.13.08.11c.63.88.5,1.81.36,2.88-.01.09-.02.18-.04.28l-.29,2.23c-.03.21-.04.4-.06.59-.05.6-.09,1.06-.44,1.55l-.23-.03-1.48-.21-.76-.37c-.08-.04-.17-.06-.27-.06-.19,0-.54.07-.73.27-.09.09-.14.21-.14.33,0,.09,0,.36.53.8.47.4.99.6,1.5.6.49,0,.93-.18,1.32-.53l.26.04.81.12.23.03.12-.2c.67-1.1,1.17-2.24,1.48-3.39.29-1.07.14-1.86.02-2.43-.05-.28-.11-.54-.05-.64.01,0,.04-.01.1-.01.68,0,2.39,1.07,2.96,1.85.07.1.15.2.22.3.92,1.25,1.87,2.55,2.06,4l.37,2.85c.04.34.01.73-.08.89-.05.08-.42.14-.56.16-.18.03-.36.06-.5.12-1.06.47-2.26.98-3.14.98-.53,0-.84-.18-1-.58ZM18.13,18.81c-.5-.35-.75-.84-.97-1.26-.24-.45-.4-.73-.7-.82,0,0-.02,0-.07,0-.22,0-.54.1-.65.18l-2.48,1.78c-.43.31-.82.89-1.19,1.45-.14.21-.28.41-.41.6-.09.12-.2.51-.26.74-.03.12-.07.24-.1.33-1.66,4.9-1.28,5.94-1.13,6.14.07.09.44.16.64.21.09.02.18.04.27.06l3.3.8,3.32.34c.05,0,.1,0,.15,0,.44,0,.57-.23.84-.8.16-.33.34-.71.65-1.07l1.48-1.71c.6-.7,1-1.24.62-1.93l-2.04-3.7c-.29-.53-.65-.92-1.26-1.35ZM38.77,19.47l.63-2.07s0-.16-.02-.23h0c-.1,0-.2.02-.23.03l-1.46.84-.04.02h-.04c-1.56.45-3.13.67-4.65.67-1.77,0-3.51-.3-5.18-.9l.04.13c.49.65.78,1.35.87,2.14.52.65,1.37.84,2.27,1.04.09.02.18.04.27.06l3.1.72,3.16-1.33c.35-.15.98-.82,1.27-1.13Z"/>
</svg>