<?xml version="1.0" encoding="UTF-8"?>
<svg id="Layer_1" data-name="Layer 1" xmlns="http://www.w3.org/2000/svg" viewBox="0 0 64 64">
  <path d="M39.14,24.01s-.29,0-.32-.09l-.38-1.6v-.02s-.01-.02-.01-.02l-.7-2.03c-.43-1.26-.62-2.38-.13-3.78l.08-.23-.17-.18c-.33-.36-1.14-1.03-1.81-1.03-.04,0-.09,0-.13,0h-.02s-.02,0-.02,0c-.99.23-1.68,1.06-1.92,1.78l-.73,2.18c-.2.6-.43,1.19-.65,1.76-.39,1.01-.8,2.05-1.08,3.23-.3.5-.76.71-1.51.71-.5,0-1.05-.09-1.64-.19-.64-.1-1.29-.21-1.93-.21-.32,0-.61.03-.88.08-.5.1-.98.15-1.45.15-1.12,0-2.09-.27-3.44-.68-1.15-.35-2.81-.52-3.47-.57-.18-.01-.36-.02-.59-.02-.09,0-.18,0-.27,0-.08,0-.16,0-.25,0-.54,0-1.03-.04-1.6-.48-.43-.33-1.11-.51-1.71-.66-.18-.05-.35-.09-.48-.13-.51-.15-.53-.62-.4-1.53,0-.06.02-.12.02-.18l.25-1.97c.05-.38.2-.79.35-1.24.23-.64.46-1.3.43-1.95,0-.21-.02-.41-.03-.6-.12-2.32-.16-3.1,1.92-3.96.66-.27,1.29-.4,1.99-.4.64,0,1.27.1,2.09.24l7.02,1.18h0s0,0,0,0l3.58.42.35.04.09-.35c.2-.76.44-1.34.71-1.7.95.03,1.78.25,2.66.5l.12.03,4.31,1.19c.18.05.36.09.54.13,1.01.23,1.55.39,1.59,1.3l.11,2.53v.06s.02.06.02.06l.95,2.83.73,3.44c.08.38.02,1.04-.11,1.18-.23.24-1.4.78-2.13.78ZM14.02,50.14c-.08-.08-.12-.18-.11-.28l.14-2.45c.01-.2.03-.35.05-.5.05-.36.09-.67-.05-1.23-.51-2-.07-3.38.41-4.85.24-.75.49-1.53.61-2.4.01-.08.13-.27.2-.34.14.04.49.42.74.71.54.6,1.27,1.42,2.36,2,.16.56.38,1.28.62,1.71l1.33,2.41,1.04,1.88-.28-2.13-.29-2.22v-.02s0-.02,0-.02l-.6-2.54-.03-.12-.09-.08c-.53-.5-1.88-1.74-3.11-2.41l-.18-.1c-.71-.38-.97-.53-1.26-1.26l-.04-.09-.07-.07-1.48-1.34c-.02-.93.37-1.69,1.01-2.59.45-.65.31-1.43.19-2.11-.05-.3-.1-.59-.1-.84v-2.57c0-.23,0-.42-.02-.61-.02-.33-.03-.61.02-.95l4.9,1.22c.6.52,1.34.79,2.15.79.58,0,1.18-.14,1.73-.42l5.52.36h.12s.11-.05.11-.05c1-.58,1.88-1.04,2.9-1.37l.17-.06.07-.17,2.79-6.21,1.01,3.49c.19.65.2,1.1.06,1.85-.08.42-.15.86-.21,1.28-.17,1.09-.35,2.22-.73,3.23-.54,1.41-.05,2.05.43,2.66.26.34.53.68.66,1.22.14.55-.42,1.38-.95,1.81-.35-.17-.68-.25-.99-.25-.58,0-1.02.26-1.54.56l-.14.08c-.13.08-.27.15-.4.22-.85.48-1.65.92-2.24,1.89l-1.07.81-.07.06-.04.08-1.02,1.95-.16.31.28.21,1.25.95.12.09h.14c.19,0,.32-.11.49-.27.01-.01.03-.03.05-.04h.17s.09-.18.09-.18l.18.02-.13-.13c.02-.09.04-.23-.08-.37l-.11-.14h-.02s-.06-.07-.08-.09l-.02-.02c-.08-.12-.12-.23-.1-.29.03-.12.27-.27.46-.39.18-.11.37-.23.51-.39,1.82-2.05,3.59-3.08,5.74-3.33.39.32.75.76,1.02,1.11l.05.07.07.04,1.31.73c.09.06.22.31.24.45-.11.07-.34.11-.63.14-1.03.14-2.74.37-4.96,3.12-.35.43-.63.64-1.25.91l-.15.06-.06.15c-.04.09-.08.27.06.48.18.28.78.69,1.24.69.15,0,.29-.04.4-.13l1.88-1.43c1.69-1.29,3.13-2.27,4.93-2.27.14,0,.28,0,.42.02.4.29.71.5.93.57l2.96.94c.43.14.88.23,1.32.32.82.17,1.59.34,2.22.74.87.57,1.71,1.63,2.14,2.43.64,1.18.65,2.56.65,3.9,0,.23,0,.45,0,.68v.06s.02.05.02.05l.55,1.85c.08.26.14.69.15.96-.15.08-.65.14-1.05.18-.69.08-1.62.19-2.71.49-.55.15-1.05.16-1.59.16-.93,0-1.99,0-3.4.83l-9.96.05h-.01c-.75,0-1.3-.29-2-.71-.57-.34-1.29-.35-1.99-.36-.37,0-.73-.01-1.01-.07l-3.18-.63-.38-1.05-.07-.2-.2-.06-1.96-.56-.35-.1-.14.34c-.24.59-.76,1.21-1.47,1.21-.08,0-.16,0-.23-.02l-3.13-.59c-.37-.07-.69-.23-1.04-.4-.51-.25-1.03-.5-1.73-.5-.12,0-.25,0-.38.02-.02,0-.05,0-.08,0-.17,0-.35-.07-.46-.19ZM21.2,47.88l1.62.61,2.13.8h.01s.01,0,.01,0l1.72.52c.25.08.52.23.81.39.43.24.88.49,1.35.53l3.98.34h.01s.01,0,.01,0l3.47.07,3.79.08-3.68-.89-5.79-1.39h-.02s-.02,0-.02,0l-1.87-.29c-.26-.11-.56-.28-.87-.46-.67-.39-1.37-.79-2.05-.79-.06,0-.12,0-.17,0l-2.73.29-1.72.19Z"/>
</svg>