<?xml version="1.0" encoding="UTF-8"?>
<svg id="Layer_1" data-name="Layer 1" xmlns="http://www.w3.org/2000/svg" viewBox="0 0 64 64">
  <path d="M43.04,32.27l.08,3.68c.03,1.52-.08,2.78-.35,4.27l-.16,4.71-4.18,6.06-1.09,1.58c-1.03,1.49-4.37,4.39-5.11,4.43-.48.02-.97-.41-1.37-.73l-3.06-2.44c-.74-.59-1.16-1.53-1.67-2.27l-2.86-4.18-1.63-2.27-.14-3.7-.21-3.73-.12-4.75c-.04-1.44.78-1.67,1.47-2.55l3.57-4.53-.06-1.65-2.34-1.6c-1.98-1.35-3.16-2.34-2.33-4.34l-1.23-1.31c-1.16.63-2.71.18-3.39-1l-2.22-3.85c-.7-1.22-.84-2.26.04-3.46.31-.42.69-.72,1.25-.96l1.43-.61c.34-.15,1.16.35,1.39.67l1.99,2.84c.89,1.27,2.84,2.51,1.36,4.79l1.09,1.34c1.17-.81,2.03-.17,2.92.53l2.66,2.1c2.16-.78,4.59-.97,6.83-.16l2.63-2.29c.72-.63,1.55-.79,2.53-.3l1.07-1.21c-.84-.99-.73-2.23.03-3.2l3.06-3.9c.49-.62.76-1.27,1.56-1.28.74-.01,1.29.41,1.95.84.88.58,1.86,1.38,1.39,2.78-.51,1.49-1.45,2.98-2.27,4.4-.91,1.58-2.23,2.56-3.88,1.91-.32.22-1,.87-1.07,1.26.05.53.41,1.68.07,2.01l-2.33,2.28-2.2,1.67-.02,1.63,1.72,2.26,2.08,2.52c.38.46,1.12,1.02,1.13,1.71ZM45.4,14.29l1.92-3.05-1.34-1.09-2.14,2.96c.81.23,1.11.47,1.55,1.17ZM18.49,14.36c.53-.81.87-1,1.59-1.17l-2.15-2.93-1.38.96,1.94,3.15ZM39.87,20.22l-.97-1.36-1.58,1.43.63,1.56,1.92-1.63ZM26.29,21.84l.67-1.4-1.82-1.44c-.31.54-.6.9-1.08,1.29l2.23,1.55ZM34.14,25.38c.5.01.99-.18,1.02-.7.02-.39-.24-.69-.72-.94-.51-.26-.63-.87-.59-1.67l-3.64.09c.09.79-.3,1.53-.78,1.82-.22.14-.37.98-.15,1.11.17.11.57.18.87.19l3.99.09ZM31.92,47.87l-.87-3-1.36-4.76-1.36.08c-.35.02-.93-.51-.99-.88-.05-.33.48-.91.82-.96l1.7-.23,1.9-6.44c.23-.16.5-.38.6-.27l.38.39,1.77,6.32,1.71.1,1.58.1-2.14-3.98-2.76-4.9c-.11-.2-.47-.52-.68-.53s-.59.33-.7.52l-2.66,4.71-2.12,3.88c-.43.79-.83,1.43-.27,2.26.94,1.38,1.89,2.9,2.39,4.49.23.74.42,1.29.78,1.95l2,3.63c.09.16.42.44.57.41s.46-.28.54-.43l2.62-4.95.84-2.24,1.7-3.21-3.28.21-1.7,6.47-.17,1.02c-.03.2-.5.27-.86.23Z"/>
</svg>