<?xml version="1.0" encoding="UTF-8"?>
<svg id="Layer_1" data-name="Layer 1" xmlns="http://www.w3.org/2000/svg" viewBox="0 0 64 64">
  <path d="M48.11,43.28l-.38-3.43-.07-3.04c0-.33-.06-.52-.17-.62-.2-.18-.67-.14-1.39-.08-.86.07-2.04.17-3.67,0-1.01-.11-1.93.02-2.82.15-1.57.22-2.92.41-4.01-.9l-.04-.05-.45-4.83.11-.07c.73-.46,1.1-.96,1.26-1.72l.03-.13.13-.02c.95-.18,2.01-.22,3.03-.27.53-.02,1.03-.04,1.52-.08.33-.03.66-.06.98-.08,1.52-.13,2.96-.26,4.62-.08.06,0,.17-.04.29-.14.12-.11.18-.24.17-.31l-.33-4.86-.11-3.59-.36-4.62c-.06-.8-.65-1.12-1.9-1.03l-4.16.29c-.12,0-.26,0-.42,0-.64-.04-1.17-.03-1.23.39-.08.64-.06,1.29-.04,1.87.04.98.07,1.76-.57,1.78-.2,0-.55-.12-.71-.25l-1.46-1.22-1.58,1.38c-.17.15-.56.34-.8.37-.12,0-.24-.04-.36-.15-.19-.17-.39-.48-.39-.7l-.04-2.37c0-.2-.06-.35-.17-.45-.13-.12-.34-.18-.6-.17l-3.46.17c-.31.01-.74.13-.8.22-.06.16-.06.5-.06.82l.03,2.75c0,.27-.39.61-.59.67-.16.05-.27-.02-.32-.1l-1.03-1.57.61-.93c-.11-2.78-.08-5.19.12-8.06-.08-.35-.3-.34-1.26-.15-.89.18-2.22.44-4.04.18-.16-.02-.52.05-.59.13-.05.11-.06.46-.02.72l.8,5.46-.85.53-.51,3.23-.29-.46c-.3-.48-.37-1.07-.44-1.59-.09-.71-.16-1.15-.55-1.28-.47-.17-1.85.59-2.92,1.41-.46.36-.87.94-1.27,1.5-.21.3-.43.61-.66.88l.15,6.3c.02.75,0,1.49-.01,2.21-.02,1.03-.04,2.1.04,3.17l.4,5.48h0s-.17,3.32-.17,3.32l.28,4.06.23,5.65-.02,3.86,1.33,2.65c.45.19.89.43,1.3.67.53.3,1.04.58,1.56.75.74.24,1.63.16,2.49.09.59-.05,1.19-.1,1.75-.05,1.87.16,3.62.08,5.48-.01l4.85-.23,12.04-.41c.54-.3,1.26-.82,1.5-1.15.36-.49.11-1-.13-1.5-.09-.19-.18-.36-.23-.54l-.77-2.5.07-1.45h-1.53c-1.06,1.34-1.02,2.73.1,4.13l.25.31-5.83.31-15.53.59-3.82.07-1.75-1.18c-.45-.3-.81-1.49-.71-2.01.19-.91,1.04-2.42,1.93-2.72,1.24-.41,2.63-.63,3.69-.61l3.88.09c.51.01,1.02.04,1.51.07,1.21.07,2.46.14,3.8-.04,1.28-.17,2.42-.11,3.58-.04.69.05,1.41-.05,2.11-.14.49-.06.99-.13,1.48-.15l4.83-.17c.33-.01.65.02.96.05,1.11.11,2.06.2,3.21-1.58l-.12-2.8ZM21.57,46.35l-.07.36-.27-.25c-.44-.41-.49-.78-.55-1.14-.02-.12-.03-.23-.06-.36-.36-1.51-.55-2.96-.62-4.71l-.15-3.84-.6-12.48-.03-3.05c0-.74.08-1.28.54-2.02l.15-.24.18.23c.33.42.52.89.56,1.38l.22,2.46.33,6.26.34,6.86.3,6.52c.07,1.48-.01,2.65-.27,4.03ZM48.56,37.57c-.85-.23.12-2.1-.12-2.38-.67-.79-2.51-.64-3.72-.57l-6.31.37c-.38.02-1.07.03-1.32-.16s-.29-.84-.33-1.22l-.24-2.68c-.04-.44.16-1.18.66-1.19l6.89-.2c2.36-.07,4.29-.84,5.2-.05.36.32.43.9.48,1.47l.24,3.18c.07.96.2,1.56-.31,2.46-.21.36-.65,1.1-1.13.97ZM40.61,32.23c0-.58-.47-1.05-1.05-1.05s-1.05.47-1.05,1.05.47,1.05,1.05,1.05,1.05-.47,1.05-1.05ZM25.83,52.93l-5.18.06-1.35-1.17c-.34-.3.66-1.92,2.17-1.93l4.45-.02,4.24-.09,10.65-.35,1.8-.08c.11,0,.4.22.47.31.09.12-.31.47-.46.49l-6.53.9c1.78.33,3.28.38,4.98.46l.49.33c.11.08-.19.45-.3.54-3.56.27-6.94.39-10.5.44l-4.93.12ZM35.61,14.86c-.64.71-1.21,1.36-1.94,1.7-.18-3.09-.35-5.7-.66-8.62-.04-.37.41-.72.77-.7,2.5.13,4.26-.8,4.21.31-.13,3.02-.16,5.7-.11,8.76-1.26-.35-1.46-1.72-2.26-1.46Z"/>
</svg>