<?xml version="1.0" encoding="UTF-8"?>
<svg id="Layer_1" data-name="Layer 1" xmlns="http://www.w3.org/2000/svg" viewBox="0 0 64 64">
  <path d="M39.13,53.06c-2.6.26-4.77.96-7.35.89-1.43-.04-2.93.43-4.32.75-1.22.28-2.28-.16-3.45-.46-2.15-.56-4.35-.81-6.59-1.1-1.94-1.03-3.83-1.75-6.08-1.81-.5-.13-1.16-.58-1.34-1.05l1.5-3.65,6.55-3.7,3.69-2.34.27-3.05-1.7-1.6-1.27-3.38c-.86-.18-1.37-.66-1.63-1.43-.67-1.98-1.24-3.61.43-4.64.19-1.27-.19-2.64-.26-4.03-.05-1.07.33-2.73.9-3.63.63-.99,1.62-1.7,2.31-2.6.74-.99,1.62-1.62,2.86-1.89.97-.21,2.24-.84,3.22-.6l3.8.93c.83,1.96,2.69,1.73,3.13,2.81l1.19,2.88c.28.68.24,2.21.19,2.97l-.15,2.77c.92.18,1.6,1.08,1.39,1.94l-.67,2.71c-.21.87-1.06,1.33-1.89,1.55-.39,1.8-.84,3.73-2.58,4.78l.37,2.9,3.37,1.75c1.14.59,2.04.95,3.32,1.28.85.22,2.01.88,2.81,1.33l1.81,3.52,1.31,3.61c.21.57-.41,1.13-.96,1.19l-4.19.42ZM53.68,46.5c.57-.2.23-1.24.05-1.67l-1.88-4.54c-.24-.57-.66-1.28-1.23-1.53l-2.19-.97c-1.36-.36-2.27-.89-3.52-1.48l-1.91-.9-.25-2.04c-.1-.79,1.73-1.16,2.09-2.93l.99-4.81,1.95-.6c.68-.21.61-.85.43-1.42l-3.08-9.47c-.13-.4-.23-1.16-.5-1.38s-1.01-.29-1.41-.38l-4.86-1.14c-.57-.13-1.7.44-2.28.58-1.38.33-2.41.9-3.16,2.18l2.63,2.36,1.1,2.81c.27.7.53,1.49.5,2.27l-.13,3.86c1.32,1.31,1.51,3.06.58,4.55-.07,1.74-.9,3.22-2.44,3.96l-.5,2.22c-.43.52-.98.99-1.08,1.42-.11.49.08,1.59.5,1.74l1.78.6c1.15.95,2.14,1.34,3.62,1.63.49.09,1.27.66,1.76.9,1.09.53,1.8,1.22,2.27,2.27l1.16,2.59h2.08s3.53-.28,3.53-.28c1.19-.1,2.36-.01,3.39-.37Z"/>
</svg>