<?xml version="1.0" encoding="UTF-8"?>
<svg id="Layer_1" data-name="Layer 1" xmlns="http://www.w3.org/2000/svg" viewBox="0 0 64 64">
  <path d="M26.63,50.13c1.71.8,5.68.69,5.08,1.41l-.46.56-5.88-.14-4.03-.14c-.75-.03-1.79-.84-1.86-1.67-.07-.92,1-2.02,1.88-2.02h2.94s3.72.28,3.72.28l4.58.34c.13,0,.6.18.54.28l-.33.6-6.18.5ZM47.99,34.22l.08-2.44-.07-.07c-.18-.16-1.07-.93-1.61-.93h-.01l-5.15.12.04.24c.1.66.52,1.11,1.07,1.15l3.18.21,1.5.22.07,4,.33,4.2.19,5.46c0,.23-.09.48-.27.66-.15.16-.34.25-.52.26l-2.14.06-5.26-.43-7.13-.29-2.72-.03c-.49,0-.96-.07-1.41-.13-.63-.09-1.28-.18-2.01-.11-.28.03-.61-.09-.8-.27-.11-.11-.17-.23-.17-.36l.11-3.36-.25-5.46-.16-4.64-.1-4.9-1.13-1.2-.13.04c-.23.08-.63.24-.83.39-.29.22-.29.89-.26,1.28l.27,4.21.06,4.42.02,3.55.18,4.35c.02.39-.06.98-.2,1.26-.12.24-.33.26-.91.24-.83-.02-2.09-.06-3.55,1.37-.78.76-1.22,1.77-1.21,2.78.01.88.37,1.66,1.02,2.27.81.75,1.81,1.1,3.25,1.13l5.24.14,7.58.23,6.08.12,2.8.1-.63-2.57c-.17-.7.32-1.71.86-2.44l2-.08c.1.51-.15,1.12-.39,1.6l-.03.07,1.16,4.72c.03.12.08.26.13.4.08.23.18.52.16.65-.03.19-.6.57-.88.56l-16.06-.57-4.82-.21-6.26-.23c-.93-.42-2.49-1.38-2.82-2.21l-.89-2.31.13-5.84.42-7.4.05-6.25v-5.93s.31-7.17.31-7.17l.11-6.08c.02-.87.34-1.66.96-2.34l1.78-1.95,2.38-1.41c.26-.16.84-.1,1.03.05.18.15.39.89.33,1.15-.32,1.33-.21,2.53-.09,3.68.06.56.11,1.15.12,1.75l.14,10.2,1.47,1.47.15-.14c.55-.51.8-1.07.78-1.71l-.3-9.7-.03-5.85c.27-.49,1.25-.66,1.85-.62l6.75.48,7.34.3,5.45.31c.74.04.9.65.9,1.16v4.65s.31,8.99.31,8.99c0,.21-.09.34-.17.41-.12.11-.3.16-.47.13-1.1-.17-4.38-.42-5.03.65l-.16.26.3.06c.26.05.53.11.79.17.84.18,1.71.37,2.45.35l2.61-.1c.51-.02,1.14,0,1.41.14.28.13.64.73.65,1.07l.13,4.39c.03.96.05,1.6-.34,2.46l-.06.14c-.27.63-.46.97-1.04.84ZM39.85,30.68h-.29c-.13-.01-.27-.02-.4-.02-1.03-.02-2.01-.05-2.67-.47-.83-.53-1-1.35-1-2.52v-1.46c0-.06-.03-.22-.25-.31-.25-.09-.77-.07-.95.13-.12.14-.35.58-.35.84l.08,3.05,1.61,1.84.05.02c.59.23,1.23.35,1.81.35.5,0,.97-.09,1.35-.26.44-.2.75-.53.89-.93l.1-.27ZM40.05,27.07c-.12-.19-.27-.43-.27-.54l-.09-2.29-.08-.06c-.98-.71-2.59-.85-3.44.07l-.08.08.03.11c.16.62.79.68,1.29.73.53.05.7.1.7.3.01.33-.28.63-.59.94-.45.47-1.02,1.05-.62,1.9.34.72.81,1.06,1.51,1.06.19,0,.39-.02.61-.07.59-.12,1.26-.75,1.38-1.29.07-.29-.15-.63-.35-.95Z"/>
</svg>