<?xml version="1.0" encoding="UTF-8"?>
<svg id="Layer_1" data-name="Layer 1" xmlns="http://www.w3.org/2000/svg" viewBox="0 0 64 64">
  <path d="M34.4,53.98l-4.47.02c-.44,0-1.13-.15-1.36-.42-.26-.31-.28-1.02-.37-1.49l-.64-3.49-3.99-1.74-2.78,1.85c-.37.25-.86.73-1.2.74-.39,0-1.24-.37-1.5-.67l-3.17-3.61c-.28-.32-.64-1.03-.59-1.45.07-.52.56-.93,1.02-1.38l1.8-1.77c.17-.24-.35-.95-.45-1.25l-1.07-3.16c-2.79-1.26-4.74.01-4.95-2.01-.19-1.78-.28-3.53.1-5.31.14-.67,1.25-.46,1.7-.56l3.14-.69c.32-1.4.77-2.52,1.59-3.91-.96-2.57-3.8-2.83-1.87-5.05l2.92-3.35c1.6-1.83,2.69.99,5.3,2.11l3.86-1.79.37-3.6c.11-1.07.42-1.62,1.6-1.7l4.15-.3c1.05-.08,1.56.4,1.74,1.37l.39,2.07.29,2.18c2.36.49,3.85,2.22,4.63,1.64l2.49-1.83c.87-.64,2.02-.93,2.82.2l2.68,3.76c.34.48.56,1.27.18,1.69l-1.64,1.78c-1.4,1.51.54,2.21,1.01,5.24l4.84.98c.41,1.94.61,3.75.42,5.6-.21,2.02-2.62.81-5.09,2.05-.32,1.45-.78,2.51-1.48,3.84.23,2.15,3.08,3.35,2.35,4.31l-.83,1.09-2.42,2.74c-.39.44-.95.95-1.46.97-.62.02-1.12-.45-1.61-.83l-2.57-1.95-4.13,1.89-.53,3.72c-.09.66-.1,1.43-1.2,1.44ZM39.73,32.16c0-4.32-3.5-7.82-7.82-7.82s-7.82,3.5-7.82,7.82,3.5,7.82,7.82,7.82,7.82-3.5,7.82-7.82Z"/>
</svg>