<?xml version="1.0" encoding="UTF-8"?>
<svg id="Layer_1" data-name="Layer 1" xmlns="http://www.w3.org/2000/svg" viewBox="0 0 64 64">
  <path d="M32.32,56.48c-.12.2-.42.47-.59.51-.2.05-.56-.28-.68-.46l-1.04-1.59c-.52-.8-.8-1.46-.85-2.47l-.63.56c-.13.12-.48-.2-.58-.34l-1.98-2.96c-2.2,1.22-3.05,3.29-4.95,3.5l-1.34,1.65c-.13.16-.54.33-.74.29s-.48-.46-.47-.67l.1-2.06.13-5.07.06-3.07.1-2.66.1-10.58.25-2.43-.03-7.47-.08-4.33.61-.75c-.11-.23-.47-.56-.73-.59-1-.13-.95,1.03-2.18,1.05-.5,0-.82-.39-1.31-.76-.55-.42-1.51-1.27-.78-2.04l1.2-1.28c.88-.94,1.86-.04,2.46.46,2.66.24,5.55.02,8.23.04l3.96.03.18-.97c-.53-.35-.92-.77-1-1.19-.13-.69.07-1.22.43-1.71l1.27-1.69c.14-.19.61-.43.82-.4s.56.3.7.5l1.41,1.97c.37.53.21,1.67-.32,2.07-.42.32-.67,1.03-.34,1.29l3.86.12,8.1-.04c.87-.47,1.82-1.29,2.91-.26.34.32.9.83.95,1.32.11,1.21-1.19,2.53-2.16,2.56-.55.02-1.03-.35-1.47-.79-.27-.27-1.2-.33-1.51-.07-.36.29.13.83.55.98v3.3s.14,7.64.14,7.64v5.55s0,2.44,0,2.44l.09,7.46.02,6.76-.02,4.89c0,.31-.05.77-.32.92-.53.29-1.97-1.14-2.11-2.72l-.85.48c-.98-.59-1.6-1.41-2.22-2.39l-1.51-1.15-2.19,2.57-1.27,1.44c-.31-.22-.48-.49-.91-1.04l-.2,1.68-1.28,2.01ZM39.28,17.13l3.65-.71.12-.81-2.55-.16-3.8.13c-1.06.04-2.07-.16-3.06,0l-.25.65c-.05.13-.52.09-.68.09l-1.88-.02-.35-.79h-6.99s-2.75.03-2.75.03c-.02.25,0,.62.12.67l.61.22,3.73.7.98,1.58c.71-2.77,3.27-1.13,5.47-1.26l5.05-.3c.95-.06,1.03,2.03,1.26,1.76.43-.53.56-1.64,1.3-1.79ZM32.24,44.66l1.37.96,1.83,1.11,1.11-.81-.17-3.22v-2.46c1.32-.78,2.24-2.02,2.44-3.39.65-.98,1.21-1.94.83-3.19.38-1.29-.19-2.49-1.19-3.35-.23-1.4-1.06-2.7-2.55-2.96l-1.41-.88c-1.12-.7-2.93-.79-4.11-.16l-2.64,1.42c-.51.28-1.25,1.06-1.35,1.62-.14.79-.22,1.24-.76,1.78-1.08,1.08-1.18,4.53.45,5.88.15,1.38.9,2.39,2.13,3.07l-.07,3.82-.11,1.95c.23.32.84.69,1.31.83l2.88-2.02ZM33.61,39.73c-.74.43-2.05.41-2.74-.05-1.49-1-2.49-.41-3.21-1.96-.2-.86-.55-1.52-1.1-2.28-.59-.81-.56-2.56,0-3.37.47-.68.75-1.01.91-1.83.09-.48.69-1.29,1.15-1.46.62-.22,1.15-.35,1.62-.72,1.04-.81,2.57-1.16,3.69-.29.62.48,1.23.84,2.03.93.91.11,1.24.98,1.33,1.82.1,1.02,1.95,1.46,1.03,4.89-.75.67-1.14,1.37-1.16,2.4-.26.51-.94,1.21-1.53,1.26-.79.06-1.25.22-2.02.66ZM33.76,35.06l1.61-1.34c-1.5-.76-2.25-1.92-3.1-3.27-.75,1.46-1.67,2.49-2.95,3.32,1.3.95,2.11,2.01,2.95,3.26l1.48-1.96ZM35.19,43.66c-.27-1.57.08-2.27-.21-2.83-.07-.13-.54-.1-.69-.01-2.45,1.33-4.36-.57-4.66-.08-.07.11-.13.42-.14.61l-.19,2.77c-.01.22.1.68.24.82l2.75-1.83,2.8,1.95c.18-.55.18-.94.1-1.4Z"/>
</svg>