<?xml version="1.0" encoding="UTF-8"?>
<svg id="Layer_1" data-name="Layer 1" xmlns="http://www.w3.org/2000/svg" viewBox="0 0 64 64">
  <path d="M44.65,53.82h-.04s-.04,0-.04,0c-2.89.83-5.95,1.2-9.61,1.17l-6.3-.05-4.21-.27c-.42-.03-.84-.09-1.25-.15-.54-.08-1.1-.16-1.69-.16-.1,0-.2,0-.3,0-1.3.07-2.64.14-3.86-.17-1.34-.34-2.43-.56-3.71-.61-.41-.02-.84-.23-1.06-.52-.15-.2-.2-.42-.15-.64l.6-2.56c.25-1.06.81-2.07,1.36-3.05.12-.22.25-.44.37-.66.26-.48.49-.99.72-1.49.43-.95.87-1.93,1.53-2.7.75-.89,1.69-1.53,2.69-2.22.39-.27.79-.54,1.18-.83.08.05.15.1.23.15.46.3.98.64,1.21.93,1.2,1.55,2.62,2.02,4.13,2.51,1.3.42,2.65.86,4.12,2l1.98,1.53c.41.31.92.5,1.42.69.58.21,1.13.42,1.51.79.19.19.38.39.57.58.61.62,1.23,1.26,1.95,1.76l.11.07.6-.44c.08-.06.12-.15.14-.28.03-.23-.05-.64-.19-.8l-2.03-2.37-.04-.04c-.34-.22-.71-.36-1.07-.5-.64-.25-1.25-.49-1.61-1.12l2.79-1.46,1.95-.78c1.55-.24,2.32-1.04,2.99-1.75.5-.52.93-.97,1.59-1.15l4.3,3.11c.16.11.48.48.56.66l2.22,5.13,1.24,3.91c.06.19-.04.64-.13.72-.13.11-.55.23-.92.25h-.04c-1.64.54-3.62,1.05-5.82.8ZM38.02,40.76l1.68-.55c.68-.22,2.36-.88,3.27-2.07l1.35-1.78c.98-1.3,1-2.65.05-4.03-1.29-1.88-1.38-3.55-1.47-5.32-.06-1.12-.12-2.29-.52-3.52l-1.85-3.48-2.38-4.88c-.09-.18-.17-.37-.25-.55-.32-.72-.61-1.41-1.35-1.76l-3.27-1.54c-.81-.38-1.57-.37-2.55.04-.23.09-.52.16-.84.23-.52.12-1.11.25-1.39.53l-5.12,5.05-1.9,8.73c-.07.31-.1.63-.13.94-.05.49-.11.99-.28,1.46l-1.32,3.51-.64,1.93c-.28.86-.04,1.65.79,2.57l1.67,1.85c.96,1.06,2.31,1.57,3.62,2.06l.09.04c.18.07.34.16.5.24.32.18.59.32.97.27-.53-1.31-1.06-2.36-1.84-3.18l-2.54-2.64c-.65-.68-.08-2.11.23-2.88l1.21-3.02c.53-1.33,1.04-2.59,1.34-4v-.03s1.16-1.72,1.16-1.72c.24-.37.69-.68,1.11-.99.26-.19.51-.36.7-.54,1.12-1.04,2.4-2.23,4.04-2.37l1.6-.14.06.09c.55.87,1.31,1.57,2.04,2.26.55.51,1.11,1.04,1.61,1.65l1.64,2.01c.98,1.2,1.95,2.65,1.73,4.26-.18,1.29-.11,2.35.22,3.34.38,1.13.32,2.09-.18,2.92l-1.67,2.78-1.38,1.8c-.07.09-.14.3-.17.44.11.02.3.02.38,0ZM35.61,41.06c.47-.35,1.12-1.39,1.23-1.96.09-.47,0-1.06.33-1.41.8-.83,1.16-1.75,1.44-2.85.67-.29,1.1-.86,1.01-1.62l-.57-5.04c-1.31-1.3-2.36-2.71-3.25-4.37l-3.51-2.28c-1.02.3-1.84.9-2.69,1.53-.91.67-2.04,1.43-2.44,2.5l-.99,2.62-1.48,3.11-.53,1.86c-.27.93.56,1.7,1.48,1.75.36,1.22.95,2.16,1.83,3.01l-.14,1.23c.72,1.6,3.06,2.81,4.89,3.62,1.33-.54,2.37-.92,3.4-1.69Z"/>
</svg>