<?xml version="1.0" encoding="UTF-8"?>
<svg id="Layer_1" data-name="Layer 1" xmlns="http://www.w3.org/2000/svg" viewBox="0 0 64 64">
  <path d="M42.25,53.28c1.45-.33,2.48-.38,3.31-.41.6-.02,1.12-.05,1.65-.17l2.57-.6c.32-.08.72-.31.82-.59.07-.18-.07-.64-.16-.91v-.05s-1.06-3.47-1.06-3.47l-1.84-4.22c-.22-.49-.62-1-.99-1.24l-2.01-1.28v-.08c-.11-1.07-.71-1.73-1.66-2.45l-.12-.09,1.32-2.36c.59-1.07.07-1.96-.54-3-.48-.81-.97-1.65-1.01-2.69v-.35c-.08-1.88-.14-3.66-.79-5.47l-.46-1.83c-.07-.28-.27-.74-.84-.74h-.01c-.4,0-.76-.15-1.1-.29-.22-.09-.43-.18-.65-.22l-3.74-.77-1.4,1.46c-.43.45-.87.91-1.47,1.25l-.11.06-1.69-1.56-1.12-1.18-3.24.63c-.55.11-.99.19-1.45.44-.43.23-.79.3-1.08.35-.45.08-.66.12-.8.68l-.77,2.9c-.15.58-.14,1-.14,1.48.02.82.03,1.75-.72,3.75l-1.15,3.06c-.36.97-.3,1.71.19,2.34l1.33,1.7-1.42,1.54c-.46.5-.98,1.23-1.26,1.69l-.02.04-.04.02c-.89.56-1.2,1.14-1.65,2.01l-1.47,2.8c-.97,1.85-1.74,3.42-2.04,5.37-.08.55-.08.97,0,1.16.1.22.47.53.76.57l2.32.32c.42.06.85.13,1.25.2,1.15.2,2.24.39,3.41.27.19-.02.38-.03.56-.03.62,0,1.23.09,1.82.18.48.07.97.15,1.47.17l4.32.22c1.97.1,3.78.1,5.71-.02.6-.04,1.2-.06,1.79-.08,1.86-.07,3.61-.14,5.39-.55ZM31.77,45.07c-1.86-1.65-3.06-2.44-5.7-3.1-.49-.12-1.38-.48-1.8-.83l-1.53-1.28.1-.13c.41-.56.83-.41,1.19-.29.08.03.16.06.25.08.78.21,1.36.47,1.78.66.68.3.84.36,1,.12-.07-.14-.15-.29-.22-.44-.33-.66-.7-1.4-1.16-1.87l-3.11-3.12v-.06c-.04-.5,0-1.24.16-1.66l1.38-3.54,1.31-3.26.02-.02c.21-.21.73-.77,1.06-1.29l.04-.06.07-.02c3.64-.96,7.26-1.01,10.76-.17.45.11.77.63,1.02,1.06l.08.13c.15.24.35.48.57.74.48.57.97,1.16,1.02,1.85.02.33.04.65.06.98.08,1.38.16,2.69.51,4.02.31,1.18.03,2.25-.83,3.17l-.75,1.31-1.53,2.05s-.03.24-.01.33c.1.03.26.04.32.02l2.65-.98s.13-.03.23.04c.13.1.32.44.31.59v.07s-1.35,1.29-1.35,1.29l-1.97.55c-.86.24-1.55.61-2.37,1.06-.19.1-.38.19-.56.28-.37.18-.72.35-1.05.62.75.67,1.52.99,2.41,1.36.12.05.24.1.37.15l.04.02,1.74,2.25c.2.26.26.77.11,1-.12.18-.41.24-.52.25-.03,0-.08,0-.15,0-.15,0-.36-.03-.48-.15l-2.12-2.07-3.34-1.7ZM21.51,13.94c-.02-.11.04-.49.09-.58.05-.06.3-.14.47-.14.04,0,.07,0,.09.01l3.18,1.13c.42.15,1.08-.24,1.31-.48.5-.54,1-.9,1.58-1.31.14-.1.29-.21.44-.32l3.08-2.24c.09-.06.53.11.79.3l3.41,2.45,2.02,1.66,3.1-1.14c.23-.08.59-.15.73-.1.1.03.24.47.2.7l-.38,2.49-.39,3.21c-.02.19-.07.32-.13.35-.13.07-.48-.11-.85-.3-.45-.23-1.01-.51-1.69-.67l-3.34-.77-2.99-3.49h-.09c-.43.07-.95.41-1.21.71l-1.21,1.39c-.31.36-.58.77-.88,1.38l-2.6.58-2.73,1.03-.71.3c-.09-.04-.27-.29-.29-.42l-.28-2.12-.73-3.64ZM32.5,20.3l-.32.45c-.08.11-.43-.13-.53-.24l-1.06-1.22c-.23-.27-.22-.64-.01-.92l.93-1.23c.1-.13.36-.41.53-.4s.39.28.5.43l.84,1.12c.27.36.24.68-.06,1.03l-.83.98ZM35.94,40.19c-.57.85-1.68,1.19-2.49,1.63-1,.54-1.66.52-2.67.05-1.82-.83-3.32-2.35-3.56-4.38l-1.31-2.38c-.45-.24-1.1-.54-1.28-.91-.28-.57-.07-1.33.16-1.84l.92-2.07,1.74-3.83c3.04-.7,6.12-.76,9.11-.11l1.87,2.2c.24.29.11,1.17.17,1.55l.53,3.12c.15.89-.39,1.14-.84,1.7l-.93,2.01.07,1.04-1.49,2.23Z"/>
</svg>