<?xml version="1.0" encoding="UTF-8"?>
<svg id="Layer_1" data-name="Layer 1" xmlns="http://www.w3.org/2000/svg" viewBox="0 0 64 64">
  <path d="M49.11,46.55c.11-.04.33-.51.32-.74l-.21-5.83c-.59-.3-1.26-.26-1.96-.2l-.29.03.23-1.3-2.6-2.55c-.07,0-.15-.01-.24-.02-.39-.02-.79-.05-.93-.31-.14-.27-.17-.91-.12-1.19.18-1,.14-1.88.09-2.81-.03-.57-.06-1.17-.03-1.8l.1-2.56c-.17-2.32-.24-4.31,0-6.46.12-1.1-.03-2.17-.2-3.31-.03-.18-.05-.37-.08-.55-.23-1.6-.13-3.01-.06-4.15.08-1.16.14-2.08-.23-2.46-.16-.17-.42-.25-.81-.24l-2.31.04c-.42,0-.74.37-.87.71l-.27.71c-.02.05-.08.15-.24.18-.23.04-.79-.05-.94-.22l-3.09-3.34c-.67-.72-1.81-1.19-2.91-1.19h-.02c-.85,0-1.57.29-2.03.8l-3.01,3.34c-.19.21-.82.51-1.14.38-.4-.16-.55-.47-.67-.73-.16-.33-.28-.59-.89-.65l-2.41-.26c-.32-.03-.79.07-.9.2-.1.13-.24.68-.23.95l.16,5.93h0c-.23,2.36-.35,4.37-.2,6.56l.23,3.28.05,8.89-.18.03c-.92.17-1.55.84-2.23,1.55-.61.64-1.23,1.29-2.11,1.65-.16.07-.36.08-.55.1-.55.05-.75.11-.74.55l.13,5.86c.01.48.13.85.21.9.22.13.91.25,1.17.29l.17.03.35,6.22-.21,3.11c-.01.19.12.63.21.69.09.05.39.1.68.1l3.12.08c.25.02.71-.18.75-.29v-1.02s-.11-4.87-.11-4.87c-.02-.73.19-1.56.41-2.35l.27-.99.61,3.91c.02.11,0,.27,0,.44,0,.15-.03.42,0,.52.18.07.54.12.81.13l2.48.03-.07-5.44,3.13-.19h.13c1.92.19,3.58.34,5.41.1,1.46-.2,2.78-.07,4.11.09l.2.02-.19,4.43c-.02.35.09.84.2.94.09.08.53.17.82.16l1.84-.03c.17,0,.42-.06.51-.1l.06-.79c0-.08,0-.15.01-.22.03-.5.05-.93.61-1.34l.34-.24.18,6.66c0,.25.4.61.6.61h0l3.38-.03c.37,0,.68-.38.68-.82v-5.55s.04-3.8.04-3.8l1.49-.25ZM31.91,14.73l.17.28c1.23,2.05,2.25,3.43,3.5,4.76l.14.15-1.25,1.26-2.63,3.88-2.17-3.44-1.61-1.71,3.85-5.19ZM28.68,30.79h.02c2.03.26,3.73.44,5.59.11,1.4-.24,2.81-.2,4.57.13l.17.03.12,4.66-3.23.25-11.14-.23-.06-4.78,3.96-.17ZM46.01,40.28c-1.22.41-2.03.67-3.08.78l-5.84.58-4.9.07-5.03-.14c-3.27-.09-6.65-.18-9.9-1.57l-.98-.42h7.17s5.26.24,5.26.24l5.67.1,6.78-.2,5.99.18-1.14.39Z"/>
</svg>